%TF.GenerationSoftware,KiCad,Pcbnew,(5.1.8)-1*%
%TF.CreationDate,2021-09-14T11:30:17-04:00*%
%TF.ProjectId,ModularPreamp,4d6f6475-6c61-4725-9072-65616d702e6b,rev?*%
%TF.SameCoordinates,Original*%
%TF.FileFunction,Soldermask,Top*%
%TF.FilePolarity,Negative*%
%FSLAX46Y46*%
G04 Gerber Fmt 4.6, Leading zero omitted, Abs format (unit mm)*
G04 Created by KiCad (PCBNEW (5.1.8)-1) date 2021-09-14 11:30:17*
%MOMM*%
%LPD*%
G01*
G04 APERTURE LIST*
%ADD10C,3.000000*%
%ADD11R,3.000000X3.000000*%
%ADD12R,0.900000X0.800000*%
%ADD13C,2.600000*%
%ADD14R,2.600000X2.600000*%
%ADD15C,4.300000*%
%ADD16C,7.500000*%
%ADD17O,1.800000X1.800000*%
%ADD18R,1.800000X1.800000*%
%ADD19R,1.800000X2.500000*%
%ADD20C,3.810000*%
%ADD21C,3.556000*%
%ADD22O,1.700000X1.700000*%
%ADD23R,1.700000X1.700000*%
%ADD24R,1.060000X0.650000*%
%ADD25C,0.100000*%
%ADD26R,1.520000X1.520000*%
%ADD27C,2.400000*%
%ADD28R,0.650000X1.060000*%
%ADD29O,1.905000X2.000000*%
%ADD30R,1.905000X2.000000*%
%ADD31R,3.500000X3.500000*%
%ADD32R,2.300000X2.500000*%
%ADD33C,1.600000*%
%ADD34R,1.600000X1.600000*%
G04 APERTURE END LIST*
D10*
%TO.C,J25*%
X89600000Y-55360000D03*
X89600000Y-50280000D03*
D11*
X89600000Y-45200000D03*
%TD*%
D12*
%TO.C,D11*%
X108000000Y-109000000D03*
X106000000Y-109950000D03*
X106000000Y-108050000D03*
%TD*%
D13*
%TO.C,J24*%
X182000000Y-25840000D03*
X182000000Y-30920000D03*
D14*
X182000000Y-36000000D03*
%TD*%
D15*
%TO.C,H6*%
X135000000Y-65000000D03*
%TD*%
%TO.C,H5*%
X181000000Y-116000000D03*
%TD*%
%TO.C,H4*%
X103000000Y-24000000D03*
%TD*%
%TO.C,H3*%
X166000000Y-37000000D03*
%TD*%
%TO.C,H2*%
X89000000Y-116000000D03*
%TD*%
D16*
%TO.C,H1*%
X90000000Y-65000000D03*
%TD*%
D17*
%TO.C,D10*%
X115380000Y-56250000D03*
D18*
X123000000Y-56250000D03*
%TD*%
D17*
%TO.C,D9*%
X100130000Y-56250000D03*
D18*
X107750000Y-56250000D03*
%TD*%
D19*
%TO.C,D8*%
X134000000Y-36000000D03*
X134000000Y-40000000D03*
%TD*%
%TO.C,D7*%
X94750000Y-39000000D03*
X94750000Y-35000000D03*
%TD*%
D13*
%TO.C,J23*%
X91750000Y-109000000D03*
D14*
X91750000Y-103920000D03*
%TD*%
D20*
%TO.C,J15*%
X170425000Y-29925000D03*
X164075000Y-29925000D03*
X170425000Y-23575000D03*
D21*
X167250000Y-26750000D03*
D20*
X164075000Y-23575000D03*
%TD*%
%TO.C,J14*%
X154425000Y-29925000D03*
X148075000Y-29925000D03*
X154425000Y-23575000D03*
D21*
X151250000Y-26750000D03*
D20*
X148075000Y-23575000D03*
%TD*%
D22*
%TO.C,J19*%
X176940000Y-56750000D03*
X174400000Y-56750000D03*
X171860000Y-56750000D03*
X169320000Y-56750000D03*
X166780000Y-56750000D03*
X164240000Y-56750000D03*
X161700000Y-56750000D03*
X159160000Y-56750000D03*
X156620000Y-56750000D03*
X154080000Y-56750000D03*
X151540000Y-56750000D03*
D23*
X149000000Y-56750000D03*
%TD*%
D22*
%TO.C,J18*%
X177190000Y-88750000D03*
X174650000Y-88750000D03*
X172110000Y-88750000D03*
X169570000Y-88750000D03*
X167030000Y-88750000D03*
X164490000Y-88750000D03*
X161950000Y-88750000D03*
X159410000Y-88750000D03*
X156870000Y-88750000D03*
X154330000Y-88750000D03*
X151790000Y-88750000D03*
D23*
X149250000Y-88750000D03*
%TD*%
D22*
%TO.C,J22*%
X176940000Y-115000000D03*
X174400000Y-115000000D03*
X171860000Y-115000000D03*
X169320000Y-115000000D03*
X166780000Y-115000000D03*
X164240000Y-115000000D03*
X161700000Y-115000000D03*
X159160000Y-115000000D03*
X156620000Y-115000000D03*
X154080000Y-115000000D03*
X151540000Y-115000000D03*
D23*
X149000000Y-115000000D03*
%TD*%
D22*
%TO.C,J21*%
X156620000Y-42750000D03*
X154080000Y-42750000D03*
X151540000Y-42750000D03*
D23*
X149000000Y-42750000D03*
%TD*%
D22*
%TO.C,J20*%
X141750000Y-30370000D03*
X141750000Y-27830000D03*
X141750000Y-25290000D03*
D23*
X141750000Y-22750000D03*
%TD*%
D22*
%TO.C,J17*%
X145000000Y-70940000D03*
X145000000Y-68400000D03*
X145000000Y-65860000D03*
X145000000Y-63320000D03*
X145000000Y-60780000D03*
X145000000Y-58240000D03*
X145000000Y-55700000D03*
X145000000Y-53160000D03*
X145000000Y-50620000D03*
X145000000Y-48080000D03*
X145000000Y-45540000D03*
D23*
X145000000Y-43000000D03*
%TD*%
D22*
%TO.C,J16*%
X181500000Y-71440000D03*
X181500000Y-68900000D03*
X181500000Y-66360000D03*
X181500000Y-63820000D03*
X181500000Y-61280000D03*
X181500000Y-58740000D03*
X181500000Y-56200000D03*
X181500000Y-53660000D03*
X181500000Y-51120000D03*
X181500000Y-48580000D03*
X181500000Y-46040000D03*
D23*
X181500000Y-43500000D03*
%TD*%
D24*
%TO.C,U6*%
X159250000Y-50600000D03*
X159250000Y-52500000D03*
X157050000Y-52500000D03*
X157050000Y-51550000D03*
X157050000Y-50600000D03*
%TD*%
%TO.C,R47*%
G36*
G01*
X170512500Y-40549998D02*
X170512500Y-41450002D01*
G75*
G02*
X170262502Y-41700000I-249998J0D01*
G01*
X169737498Y-41700000D01*
G75*
G02*
X169487500Y-41450002I0J249998D01*
G01*
X169487500Y-40549998D01*
G75*
G02*
X169737498Y-40300000I249998J0D01*
G01*
X170262502Y-40300000D01*
G75*
G02*
X170512500Y-40549998I0J-249998D01*
G01*
G37*
G36*
G01*
X172337500Y-40549998D02*
X172337500Y-41450002D01*
G75*
G02*
X172087502Y-41700000I-249998J0D01*
G01*
X171562498Y-41700000D01*
G75*
G02*
X171312500Y-41450002I0J249998D01*
G01*
X171312500Y-40549998D01*
G75*
G02*
X171562498Y-40300000I249998J0D01*
G01*
X172087502Y-40300000D01*
G75*
G02*
X172337500Y-40549998I0J-249998D01*
G01*
G37*
%TD*%
%TO.C,R46*%
G36*
G01*
X175737500Y-41450002D02*
X175737500Y-40549998D01*
G75*
G02*
X175987498Y-40300000I249998J0D01*
G01*
X176512502Y-40300000D01*
G75*
G02*
X176762500Y-40549998I0J-249998D01*
G01*
X176762500Y-41450002D01*
G75*
G02*
X176512502Y-41700000I-249998J0D01*
G01*
X175987498Y-41700000D01*
G75*
G02*
X175737500Y-41450002I0J249998D01*
G01*
G37*
G36*
G01*
X173912500Y-41450002D02*
X173912500Y-40549998D01*
G75*
G02*
X174162498Y-40300000I249998J0D01*
G01*
X174687502Y-40300000D01*
G75*
G02*
X174937500Y-40549998I0J-249998D01*
G01*
X174937500Y-41450002D01*
G75*
G02*
X174687502Y-41700000I-249998J0D01*
G01*
X174162498Y-41700000D01*
G75*
G02*
X173912500Y-41450002I0J249998D01*
G01*
G37*
%TD*%
%TO.C,R45*%
G36*
G01*
X162487500Y-53700002D02*
X162487500Y-52799998D01*
G75*
G02*
X162737498Y-52550000I249998J0D01*
G01*
X163262502Y-52550000D01*
G75*
G02*
X163512500Y-52799998I0J-249998D01*
G01*
X163512500Y-53700002D01*
G75*
G02*
X163262502Y-53950000I-249998J0D01*
G01*
X162737498Y-53950000D01*
G75*
G02*
X162487500Y-53700002I0J249998D01*
G01*
G37*
G36*
G01*
X160662500Y-53700002D02*
X160662500Y-52799998D01*
G75*
G02*
X160912498Y-52550000I249998J0D01*
G01*
X161437502Y-52550000D01*
G75*
G02*
X161687500Y-52799998I0J-249998D01*
G01*
X161687500Y-53700002D01*
G75*
G02*
X161437502Y-53950000I-249998J0D01*
G01*
X160912498Y-53950000D01*
G75*
G02*
X160662500Y-53700002I0J249998D01*
G01*
G37*
%TD*%
D25*
%TO.C,JP11*%
G36*
X173000602Y-51500000D02*
G01*
X173000602Y-51475466D01*
X173005412Y-51426635D01*
X173014984Y-51378510D01*
X173029228Y-51331555D01*
X173048005Y-51286222D01*
X173071136Y-51242949D01*
X173098396Y-51202150D01*
X173129524Y-51164221D01*
X173164221Y-51129524D01*
X173202150Y-51098396D01*
X173242949Y-51071136D01*
X173286222Y-51048005D01*
X173331555Y-51029228D01*
X173378510Y-51014984D01*
X173426635Y-51005412D01*
X173475466Y-51000602D01*
X173500000Y-51000602D01*
X173500000Y-51000000D01*
X174000000Y-51000000D01*
X174000000Y-51000602D01*
X174024534Y-51000602D01*
X174073365Y-51005412D01*
X174121490Y-51014984D01*
X174168445Y-51029228D01*
X174213778Y-51048005D01*
X174257051Y-51071136D01*
X174297850Y-51098396D01*
X174335779Y-51129524D01*
X174370476Y-51164221D01*
X174401604Y-51202150D01*
X174428864Y-51242949D01*
X174451995Y-51286222D01*
X174470772Y-51331555D01*
X174485016Y-51378510D01*
X174494588Y-51426635D01*
X174499398Y-51475466D01*
X174499398Y-51500000D01*
X174500000Y-51500000D01*
X174500000Y-52000000D01*
X173000000Y-52000000D01*
X173000000Y-51500000D01*
X173000602Y-51500000D01*
G37*
G36*
X174500000Y-52300000D02*
G01*
X174500000Y-52800000D01*
X174499398Y-52800000D01*
X174499398Y-52824534D01*
X174494588Y-52873365D01*
X174485016Y-52921490D01*
X174470772Y-52968445D01*
X174451995Y-53013778D01*
X174428864Y-53057051D01*
X174401604Y-53097850D01*
X174370476Y-53135779D01*
X174335779Y-53170476D01*
X174297850Y-53201604D01*
X174257051Y-53228864D01*
X174213778Y-53251995D01*
X174168445Y-53270772D01*
X174121490Y-53285016D01*
X174073365Y-53294588D01*
X174024534Y-53299398D01*
X174000000Y-53299398D01*
X174000000Y-53300000D01*
X173500000Y-53300000D01*
X173500000Y-53299398D01*
X173475466Y-53299398D01*
X173426635Y-53294588D01*
X173378510Y-53285016D01*
X173331555Y-53270772D01*
X173286222Y-53251995D01*
X173242949Y-53228864D01*
X173202150Y-53201604D01*
X173164221Y-53170476D01*
X173129524Y-53135779D01*
X173098396Y-53097850D01*
X173071136Y-53057051D01*
X173048005Y-53013778D01*
X173029228Y-52968445D01*
X173014984Y-52921490D01*
X173005412Y-52873365D01*
X173000602Y-52824534D01*
X173000602Y-52800000D01*
X173000000Y-52800000D01*
X173000000Y-52300000D01*
X174500000Y-52300000D01*
G37*
%TD*%
%TO.C,JP10*%
G36*
X170250602Y-51500000D02*
G01*
X170250602Y-51475466D01*
X170255412Y-51426635D01*
X170264984Y-51378510D01*
X170279228Y-51331555D01*
X170298005Y-51286222D01*
X170321136Y-51242949D01*
X170348396Y-51202150D01*
X170379524Y-51164221D01*
X170414221Y-51129524D01*
X170452150Y-51098396D01*
X170492949Y-51071136D01*
X170536222Y-51048005D01*
X170581555Y-51029228D01*
X170628510Y-51014984D01*
X170676635Y-51005412D01*
X170725466Y-51000602D01*
X170750000Y-51000602D01*
X170750000Y-51000000D01*
X171250000Y-51000000D01*
X171250000Y-51000602D01*
X171274534Y-51000602D01*
X171323365Y-51005412D01*
X171371490Y-51014984D01*
X171418445Y-51029228D01*
X171463778Y-51048005D01*
X171507051Y-51071136D01*
X171547850Y-51098396D01*
X171585779Y-51129524D01*
X171620476Y-51164221D01*
X171651604Y-51202150D01*
X171678864Y-51242949D01*
X171701995Y-51286222D01*
X171720772Y-51331555D01*
X171735016Y-51378510D01*
X171744588Y-51426635D01*
X171749398Y-51475466D01*
X171749398Y-51500000D01*
X171750000Y-51500000D01*
X171750000Y-52000000D01*
X170250000Y-52000000D01*
X170250000Y-51500000D01*
X170250602Y-51500000D01*
G37*
G36*
X171750000Y-52300000D02*
G01*
X171750000Y-52800000D01*
X171749398Y-52800000D01*
X171749398Y-52824534D01*
X171744588Y-52873365D01*
X171735016Y-52921490D01*
X171720772Y-52968445D01*
X171701995Y-53013778D01*
X171678864Y-53057051D01*
X171651604Y-53097850D01*
X171620476Y-53135779D01*
X171585779Y-53170476D01*
X171547850Y-53201604D01*
X171507051Y-53228864D01*
X171463778Y-53251995D01*
X171418445Y-53270772D01*
X171371490Y-53285016D01*
X171323365Y-53294588D01*
X171274534Y-53299398D01*
X171250000Y-53299398D01*
X171250000Y-53300000D01*
X170750000Y-53300000D01*
X170750000Y-53299398D01*
X170725466Y-53299398D01*
X170676635Y-53294588D01*
X170628510Y-53285016D01*
X170581555Y-53270772D01*
X170536222Y-53251995D01*
X170492949Y-53228864D01*
X170452150Y-53201604D01*
X170414221Y-53170476D01*
X170379524Y-53135779D01*
X170348396Y-53097850D01*
X170321136Y-53057051D01*
X170298005Y-53013778D01*
X170279228Y-52968445D01*
X170264984Y-52921490D01*
X170255412Y-52873365D01*
X170250602Y-52824534D01*
X170250602Y-52800000D01*
X170250000Y-52800000D01*
X170250000Y-52300000D01*
X171750000Y-52300000D01*
G37*
%TD*%
%TO.C,JP9*%
G36*
X157500000Y-48999398D02*
G01*
X157475466Y-48999398D01*
X157426635Y-48994588D01*
X157378510Y-48985016D01*
X157331555Y-48970772D01*
X157286222Y-48951995D01*
X157242949Y-48928864D01*
X157202150Y-48901604D01*
X157164221Y-48870476D01*
X157129524Y-48835779D01*
X157098396Y-48797850D01*
X157071136Y-48757051D01*
X157048005Y-48713778D01*
X157029228Y-48668445D01*
X157014984Y-48621490D01*
X157005412Y-48573365D01*
X157000602Y-48524534D01*
X157000602Y-48500000D01*
X157000000Y-48500000D01*
X157000000Y-48000000D01*
X157000602Y-48000000D01*
X157000602Y-47975466D01*
X157005412Y-47926635D01*
X157014984Y-47878510D01*
X157029228Y-47831555D01*
X157048005Y-47786222D01*
X157071136Y-47742949D01*
X157098396Y-47702150D01*
X157129524Y-47664221D01*
X157164221Y-47629524D01*
X157202150Y-47598396D01*
X157242949Y-47571136D01*
X157286222Y-47548005D01*
X157331555Y-47529228D01*
X157378510Y-47514984D01*
X157426635Y-47505412D01*
X157475466Y-47500602D01*
X157500000Y-47500602D01*
X157500000Y-47500000D01*
X158000000Y-47500000D01*
X158000000Y-49000000D01*
X157500000Y-49000000D01*
X157500000Y-48999398D01*
G37*
G36*
X158300000Y-47500000D02*
G01*
X158800000Y-47500000D01*
X158800000Y-47500602D01*
X158824534Y-47500602D01*
X158873365Y-47505412D01*
X158921490Y-47514984D01*
X158968445Y-47529228D01*
X159013778Y-47548005D01*
X159057051Y-47571136D01*
X159097850Y-47598396D01*
X159135779Y-47629524D01*
X159170476Y-47664221D01*
X159201604Y-47702150D01*
X159228864Y-47742949D01*
X159251995Y-47786222D01*
X159270772Y-47831555D01*
X159285016Y-47878510D01*
X159294588Y-47926635D01*
X159299398Y-47975466D01*
X159299398Y-48000000D01*
X159300000Y-48000000D01*
X159300000Y-48500000D01*
X159299398Y-48500000D01*
X159299398Y-48524534D01*
X159294588Y-48573365D01*
X159285016Y-48621490D01*
X159270772Y-48668445D01*
X159251995Y-48713778D01*
X159228864Y-48757051D01*
X159201604Y-48797850D01*
X159170476Y-48835779D01*
X159135779Y-48870476D01*
X159097850Y-48901604D01*
X159057051Y-48928864D01*
X159013778Y-48951995D01*
X158968445Y-48970772D01*
X158921490Y-48985016D01*
X158873365Y-48994588D01*
X158824534Y-48999398D01*
X158800000Y-48999398D01*
X158800000Y-49000000D01*
X158300000Y-49000000D01*
X158300000Y-47500000D01*
G37*
%TD*%
%TO.C,C41*%
G36*
G01*
X154500000Y-47225000D02*
X154500000Y-46275000D01*
G75*
G02*
X154750000Y-46025000I250000J0D01*
G01*
X155250000Y-46025000D01*
G75*
G02*
X155500000Y-46275000I0J-250000D01*
G01*
X155500000Y-47225000D01*
G75*
G02*
X155250000Y-47475000I-250000J0D01*
G01*
X154750000Y-47475000D01*
G75*
G02*
X154500000Y-47225000I0J250000D01*
G01*
G37*
G36*
G01*
X152600000Y-47225000D02*
X152600000Y-46275000D01*
G75*
G02*
X152850000Y-46025000I250000J0D01*
G01*
X153350000Y-46025000D01*
G75*
G02*
X153600000Y-46275000I0J-250000D01*
G01*
X153600000Y-47225000D01*
G75*
G02*
X153350000Y-47475000I-250000J0D01*
G01*
X152850000Y-47475000D01*
G75*
G02*
X152600000Y-47225000I0J250000D01*
G01*
G37*
%TD*%
%TO.C,C40*%
G36*
G01*
X154500000Y-49475000D02*
X154500000Y-48525000D01*
G75*
G02*
X154750000Y-48275000I250000J0D01*
G01*
X155250000Y-48275000D01*
G75*
G02*
X155500000Y-48525000I0J-250000D01*
G01*
X155500000Y-49475000D01*
G75*
G02*
X155250000Y-49725000I-250000J0D01*
G01*
X154750000Y-49725000D01*
G75*
G02*
X154500000Y-49475000I0J250000D01*
G01*
G37*
G36*
G01*
X152600000Y-49475000D02*
X152600000Y-48525000D01*
G75*
G02*
X152850000Y-48275000I250000J0D01*
G01*
X153350000Y-48275000D01*
G75*
G02*
X153600000Y-48525000I0J-250000D01*
G01*
X153600000Y-49475000D01*
G75*
G02*
X153350000Y-49725000I-250000J0D01*
G01*
X152850000Y-49725000D01*
G75*
G02*
X152600000Y-49475000I0J250000D01*
G01*
G37*
%TD*%
%TO.C,C39*%
G36*
G01*
X154500000Y-51725000D02*
X154500000Y-50775000D01*
G75*
G02*
X154750000Y-50525000I250000J0D01*
G01*
X155250000Y-50525000D01*
G75*
G02*
X155500000Y-50775000I0J-250000D01*
G01*
X155500000Y-51725000D01*
G75*
G02*
X155250000Y-51975000I-250000J0D01*
G01*
X154750000Y-51975000D01*
G75*
G02*
X154500000Y-51725000I0J250000D01*
G01*
G37*
G36*
G01*
X152600000Y-51725000D02*
X152600000Y-50775000D01*
G75*
G02*
X152850000Y-50525000I250000J0D01*
G01*
X153350000Y-50525000D01*
G75*
G02*
X153600000Y-50775000I0J-250000D01*
G01*
X153600000Y-51725000D01*
G75*
G02*
X153350000Y-51975000I-250000J0D01*
G01*
X152850000Y-51975000D01*
G75*
G02*
X152600000Y-51725000I0J250000D01*
G01*
G37*
%TD*%
%TO.C,C38*%
G36*
G01*
X161600000Y-50525000D02*
X161600000Y-51475000D01*
G75*
G02*
X161350000Y-51725000I-250000J0D01*
G01*
X160850000Y-51725000D01*
G75*
G02*
X160600000Y-51475000I0J250000D01*
G01*
X160600000Y-50525000D01*
G75*
G02*
X160850000Y-50275000I250000J0D01*
G01*
X161350000Y-50275000D01*
G75*
G02*
X161600000Y-50525000I0J-250000D01*
G01*
G37*
G36*
G01*
X163500000Y-50525000D02*
X163500000Y-51475000D01*
G75*
G02*
X163250000Y-51725000I-250000J0D01*
G01*
X162750000Y-51725000D01*
G75*
G02*
X162500000Y-51475000I0J250000D01*
G01*
X162500000Y-50525000D01*
G75*
G02*
X162750000Y-50275000I250000J0D01*
G01*
X163250000Y-50275000D01*
G75*
G02*
X163500000Y-50525000I0J-250000D01*
G01*
G37*
%TD*%
%TO.C,C37*%
G36*
G01*
X161600000Y-48275000D02*
X161600000Y-49225000D01*
G75*
G02*
X161350000Y-49475000I-250000J0D01*
G01*
X160850000Y-49475000D01*
G75*
G02*
X160600000Y-49225000I0J250000D01*
G01*
X160600000Y-48275000D01*
G75*
G02*
X160850000Y-48025000I250000J0D01*
G01*
X161350000Y-48025000D01*
G75*
G02*
X161600000Y-48275000I0J-250000D01*
G01*
G37*
G36*
G01*
X163500000Y-48275000D02*
X163500000Y-49225000D01*
G75*
G02*
X163250000Y-49475000I-250000J0D01*
G01*
X162750000Y-49475000D01*
G75*
G02*
X162500000Y-49225000I0J250000D01*
G01*
X162500000Y-48275000D01*
G75*
G02*
X162750000Y-48025000I250000J0D01*
G01*
X163250000Y-48025000D01*
G75*
G02*
X163500000Y-48275000I0J-250000D01*
G01*
G37*
%TD*%
%TO.C,C36*%
G36*
G01*
X161600000Y-46025000D02*
X161600000Y-46975000D01*
G75*
G02*
X161350000Y-47225000I-250000J0D01*
G01*
X160850000Y-47225000D01*
G75*
G02*
X160600000Y-46975000I0J250000D01*
G01*
X160600000Y-46025000D01*
G75*
G02*
X160850000Y-45775000I250000J0D01*
G01*
X161350000Y-45775000D01*
G75*
G02*
X161600000Y-46025000I0J-250000D01*
G01*
G37*
G36*
G01*
X163500000Y-46025000D02*
X163500000Y-46975000D01*
G75*
G02*
X163250000Y-47225000I-250000J0D01*
G01*
X162750000Y-47225000D01*
G75*
G02*
X162500000Y-46975000I0J250000D01*
G01*
X162500000Y-46025000D01*
G75*
G02*
X162750000Y-45775000I250000J0D01*
G01*
X163250000Y-45775000D01*
G75*
G02*
X163500000Y-46025000I0J-250000D01*
G01*
G37*
%TD*%
%TO.C,C35*%
G36*
G01*
X155700000Y-71475000D02*
X155700000Y-70525000D01*
G75*
G02*
X155950000Y-70275000I250000J0D01*
G01*
X156450000Y-70275000D01*
G75*
G02*
X156700000Y-70525000I0J-250000D01*
G01*
X156700000Y-71475000D01*
G75*
G02*
X156450000Y-71725000I-250000J0D01*
G01*
X155950000Y-71725000D01*
G75*
G02*
X155700000Y-71475000I0J250000D01*
G01*
G37*
G36*
G01*
X153800000Y-71475000D02*
X153800000Y-70525000D01*
G75*
G02*
X154050000Y-70275000I250000J0D01*
G01*
X154550000Y-70275000D01*
G75*
G02*
X154800000Y-70525000I0J-250000D01*
G01*
X154800000Y-71475000D01*
G75*
G02*
X154550000Y-71725000I-250000J0D01*
G01*
X154050000Y-71725000D01*
G75*
G02*
X153800000Y-71475000I0J250000D01*
G01*
G37*
%TD*%
%TO.C,C34*%
G36*
G01*
X155700000Y-74225000D02*
X155700000Y-73275000D01*
G75*
G02*
X155950000Y-73025000I250000J0D01*
G01*
X156450000Y-73025000D01*
G75*
G02*
X156700000Y-73275000I0J-250000D01*
G01*
X156700000Y-74225000D01*
G75*
G02*
X156450000Y-74475000I-250000J0D01*
G01*
X155950000Y-74475000D01*
G75*
G02*
X155700000Y-74225000I0J250000D01*
G01*
G37*
G36*
G01*
X153800000Y-74225000D02*
X153800000Y-73275000D01*
G75*
G02*
X154050000Y-73025000I250000J0D01*
G01*
X154550000Y-73025000D01*
G75*
G02*
X154800000Y-73275000I0J-250000D01*
G01*
X154800000Y-74225000D01*
G75*
G02*
X154550000Y-74475000I-250000J0D01*
G01*
X154050000Y-74475000D01*
G75*
G02*
X153800000Y-74225000I0J250000D01*
G01*
G37*
%TD*%
%TO.C,C33*%
G36*
G01*
X155650000Y-76475000D02*
X155650000Y-75525000D01*
G75*
G02*
X155900000Y-75275000I250000J0D01*
G01*
X156400000Y-75275000D01*
G75*
G02*
X156650000Y-75525000I0J-250000D01*
G01*
X156650000Y-76475000D01*
G75*
G02*
X156400000Y-76725000I-250000J0D01*
G01*
X155900000Y-76725000D01*
G75*
G02*
X155650000Y-76475000I0J250000D01*
G01*
G37*
G36*
G01*
X153750000Y-76475000D02*
X153750000Y-75525000D01*
G75*
G02*
X154000000Y-75275000I250000J0D01*
G01*
X154500000Y-75275000D01*
G75*
G02*
X154750000Y-75525000I0J-250000D01*
G01*
X154750000Y-76475000D01*
G75*
G02*
X154500000Y-76725000I-250000J0D01*
G01*
X154000000Y-76725000D01*
G75*
G02*
X153750000Y-76475000I0J250000D01*
G01*
G37*
%TD*%
%TO.C,C32*%
G36*
G01*
X162800000Y-75775000D02*
X162800000Y-76725000D01*
G75*
G02*
X162550000Y-76975000I-250000J0D01*
G01*
X162050000Y-76975000D01*
G75*
G02*
X161800000Y-76725000I0J250000D01*
G01*
X161800000Y-75775000D01*
G75*
G02*
X162050000Y-75525000I250000J0D01*
G01*
X162550000Y-75525000D01*
G75*
G02*
X162800000Y-75775000I0J-250000D01*
G01*
G37*
G36*
G01*
X164700000Y-75775000D02*
X164700000Y-76725000D01*
G75*
G02*
X164450000Y-76975000I-250000J0D01*
G01*
X163950000Y-76975000D01*
G75*
G02*
X163700000Y-76725000I0J250000D01*
G01*
X163700000Y-75775000D01*
G75*
G02*
X163950000Y-75525000I250000J0D01*
G01*
X164450000Y-75525000D01*
G75*
G02*
X164700000Y-75775000I0J-250000D01*
G01*
G37*
%TD*%
%TO.C,C31*%
G36*
G01*
X162800000Y-78025000D02*
X162800000Y-78975000D01*
G75*
G02*
X162550000Y-79225000I-250000J0D01*
G01*
X162050000Y-79225000D01*
G75*
G02*
X161800000Y-78975000I0J250000D01*
G01*
X161800000Y-78025000D01*
G75*
G02*
X162050000Y-77775000I250000J0D01*
G01*
X162550000Y-77775000D01*
G75*
G02*
X162800000Y-78025000I0J-250000D01*
G01*
G37*
G36*
G01*
X164700000Y-78025000D02*
X164700000Y-78975000D01*
G75*
G02*
X164450000Y-79225000I-250000J0D01*
G01*
X163950000Y-79225000D01*
G75*
G02*
X163700000Y-78975000I0J250000D01*
G01*
X163700000Y-78025000D01*
G75*
G02*
X163950000Y-77775000I250000J0D01*
G01*
X164450000Y-77775000D01*
G75*
G02*
X164700000Y-78025000I0J-250000D01*
G01*
G37*
%TD*%
%TO.C,C30*%
G36*
G01*
X162750000Y-80275000D02*
X162750000Y-81225000D01*
G75*
G02*
X162500000Y-81475000I-250000J0D01*
G01*
X162000000Y-81475000D01*
G75*
G02*
X161750000Y-81225000I0J250000D01*
G01*
X161750000Y-80275000D01*
G75*
G02*
X162000000Y-80025000I250000J0D01*
G01*
X162500000Y-80025000D01*
G75*
G02*
X162750000Y-80275000I0J-250000D01*
G01*
G37*
G36*
G01*
X164650000Y-80275000D02*
X164650000Y-81225000D01*
G75*
G02*
X164400000Y-81475000I-250000J0D01*
G01*
X163900000Y-81475000D01*
G75*
G02*
X163650000Y-81225000I0J250000D01*
G01*
X163650000Y-80275000D01*
G75*
G02*
X163900000Y-80025000I250000J0D01*
G01*
X164400000Y-80025000D01*
G75*
G02*
X164650000Y-80275000I0J-250000D01*
G01*
G37*
%TD*%
D26*
%TO.C,X1*%
X170920000Y-42908000D03*
X173460000Y-42908000D03*
X176000000Y-42908000D03*
X176000000Y-48750000D03*
X173460000Y-48750000D03*
X170920000Y-48750000D03*
%TD*%
%TO.C,R44*%
G36*
G01*
X162850000Y-73549998D02*
X162850000Y-74450002D01*
G75*
G02*
X162600002Y-74700000I-249998J0D01*
G01*
X162074998Y-74700000D01*
G75*
G02*
X161825000Y-74450002I0J249998D01*
G01*
X161825000Y-73549998D01*
G75*
G02*
X162074998Y-73300000I249998J0D01*
G01*
X162600002Y-73300000D01*
G75*
G02*
X162850000Y-73549998I0J-249998D01*
G01*
G37*
G36*
G01*
X164675000Y-73549998D02*
X164675000Y-74450002D01*
G75*
G02*
X164425002Y-74700000I-249998J0D01*
G01*
X163899998Y-74700000D01*
G75*
G02*
X163650000Y-74450002I0J249998D01*
G01*
X163650000Y-73549998D01*
G75*
G02*
X163899998Y-73300000I249998J0D01*
G01*
X164425002Y-73300000D01*
G75*
G02*
X164675000Y-73549998I0J-249998D01*
G01*
G37*
%TD*%
%TO.C,R43*%
G36*
G01*
X158587500Y-73799998D02*
X158587500Y-74700002D01*
G75*
G02*
X158337502Y-74950000I-249998J0D01*
G01*
X157812498Y-74950000D01*
G75*
G02*
X157562500Y-74700002I0J249998D01*
G01*
X157562500Y-73799998D01*
G75*
G02*
X157812498Y-73550000I249998J0D01*
G01*
X158337502Y-73550000D01*
G75*
G02*
X158587500Y-73799998I0J-249998D01*
G01*
G37*
G36*
G01*
X160412500Y-73799998D02*
X160412500Y-74700002D01*
G75*
G02*
X160162502Y-74950000I-249998J0D01*
G01*
X159637498Y-74950000D01*
G75*
G02*
X159387500Y-74700002I0J249998D01*
G01*
X159387500Y-73799998D01*
G75*
G02*
X159637498Y-73550000I249998J0D01*
G01*
X160162502Y-73550000D01*
G75*
G02*
X160412500Y-73799998I0J-249998D01*
G01*
G37*
%TD*%
D27*
%TO.C,L1*%
X158300000Y-64250000D03*
X158300000Y-61250000D03*
%TD*%
D25*
%TO.C,JP8*%
G36*
X161500602Y-67200000D02*
G01*
X161500602Y-67175466D01*
X161505412Y-67126635D01*
X161514984Y-67078510D01*
X161529228Y-67031555D01*
X161548005Y-66986222D01*
X161571136Y-66942949D01*
X161598396Y-66902150D01*
X161629524Y-66864221D01*
X161664221Y-66829524D01*
X161702150Y-66798396D01*
X161742949Y-66771136D01*
X161786222Y-66748005D01*
X161831555Y-66729228D01*
X161878510Y-66714984D01*
X161926635Y-66705412D01*
X161975466Y-66700602D01*
X162000000Y-66700602D01*
X162000000Y-66700000D01*
X162500000Y-66700000D01*
X162500000Y-66700602D01*
X162524534Y-66700602D01*
X162573365Y-66705412D01*
X162621490Y-66714984D01*
X162668445Y-66729228D01*
X162713778Y-66748005D01*
X162757051Y-66771136D01*
X162797850Y-66798396D01*
X162835779Y-66829524D01*
X162870476Y-66864221D01*
X162901604Y-66902150D01*
X162928864Y-66942949D01*
X162951995Y-66986222D01*
X162970772Y-67031555D01*
X162985016Y-67078510D01*
X162994588Y-67126635D01*
X162999398Y-67175466D01*
X162999398Y-67200000D01*
X163000000Y-67200000D01*
X163000000Y-67700000D01*
X161500000Y-67700000D01*
X161500000Y-67200000D01*
X161500602Y-67200000D01*
G37*
G36*
X163000000Y-68000000D02*
G01*
X163000000Y-68500000D01*
X162999398Y-68500000D01*
X162999398Y-68524534D01*
X162994588Y-68573365D01*
X162985016Y-68621490D01*
X162970772Y-68668445D01*
X162951995Y-68713778D01*
X162928864Y-68757051D01*
X162901604Y-68797850D01*
X162870476Y-68835779D01*
X162835779Y-68870476D01*
X162797850Y-68901604D01*
X162757051Y-68928864D01*
X162713778Y-68951995D01*
X162668445Y-68970772D01*
X162621490Y-68985016D01*
X162573365Y-68994588D01*
X162524534Y-68999398D01*
X162500000Y-68999398D01*
X162500000Y-69000000D01*
X162000000Y-69000000D01*
X162000000Y-68999398D01*
X161975466Y-68999398D01*
X161926635Y-68994588D01*
X161878510Y-68985016D01*
X161831555Y-68970772D01*
X161786222Y-68951995D01*
X161742949Y-68928864D01*
X161702150Y-68901604D01*
X161664221Y-68870476D01*
X161629524Y-68835779D01*
X161598396Y-68797850D01*
X161571136Y-68757051D01*
X161548005Y-68713778D01*
X161529228Y-68668445D01*
X161514984Y-68621490D01*
X161505412Y-68573365D01*
X161500602Y-68524534D01*
X161500602Y-68500000D01*
X161500000Y-68500000D01*
X161500000Y-68000000D01*
X163000000Y-68000000D01*
G37*
%TD*%
%TO.C,C29*%
G36*
G01*
X152600000Y-64325000D02*
X152600000Y-63375000D01*
G75*
G02*
X152850000Y-63125000I250000J0D01*
G01*
X153350000Y-63125000D01*
G75*
G02*
X153600000Y-63375000I0J-250000D01*
G01*
X153600000Y-64325000D01*
G75*
G02*
X153350000Y-64575000I-250000J0D01*
G01*
X152850000Y-64575000D01*
G75*
G02*
X152600000Y-64325000I0J250000D01*
G01*
G37*
G36*
G01*
X150700000Y-64325000D02*
X150700000Y-63375000D01*
G75*
G02*
X150950000Y-63125000I250000J0D01*
G01*
X151450000Y-63125000D01*
G75*
G02*
X151700000Y-63375000I0J-250000D01*
G01*
X151700000Y-64325000D01*
G75*
G02*
X151450000Y-64575000I-250000J0D01*
G01*
X150950000Y-64575000D01*
G75*
G02*
X150700000Y-64325000I0J250000D01*
G01*
G37*
%TD*%
%TO.C,C28*%
G36*
G01*
X158500000Y-71775000D02*
X158500000Y-72725000D01*
G75*
G02*
X158250000Y-72975000I-250000J0D01*
G01*
X157750000Y-72975000D01*
G75*
G02*
X157500000Y-72725000I0J250000D01*
G01*
X157500000Y-71775000D01*
G75*
G02*
X157750000Y-71525000I250000J0D01*
G01*
X158250000Y-71525000D01*
G75*
G02*
X158500000Y-71775000I0J-250000D01*
G01*
G37*
G36*
G01*
X160400000Y-71775000D02*
X160400000Y-72725000D01*
G75*
G02*
X160150000Y-72975000I-250000J0D01*
G01*
X159650000Y-72975000D01*
G75*
G02*
X159400000Y-72725000I0J250000D01*
G01*
X159400000Y-71775000D01*
G75*
G02*
X159650000Y-71525000I250000J0D01*
G01*
X160150000Y-71525000D01*
G75*
G02*
X160400000Y-71775000I0J-250000D01*
G01*
G37*
%TD*%
%TO.C,JP7*%
G36*
X142100000Y-92650602D02*
G01*
X142124534Y-92650602D01*
X142173365Y-92655412D01*
X142221490Y-92664984D01*
X142268445Y-92679228D01*
X142313778Y-92698005D01*
X142357051Y-92721136D01*
X142397850Y-92748396D01*
X142435779Y-92779524D01*
X142470476Y-92814221D01*
X142501604Y-92852150D01*
X142528864Y-92892949D01*
X142551995Y-92936222D01*
X142570772Y-92981555D01*
X142585016Y-93028510D01*
X142594588Y-93076635D01*
X142599398Y-93125466D01*
X142599398Y-93150000D01*
X142600000Y-93150000D01*
X142600000Y-93650000D01*
X142599398Y-93650000D01*
X142599398Y-93674534D01*
X142594588Y-93723365D01*
X142585016Y-93771490D01*
X142570772Y-93818445D01*
X142551995Y-93863778D01*
X142528864Y-93907051D01*
X142501604Y-93947850D01*
X142470476Y-93985779D01*
X142435779Y-94020476D01*
X142397850Y-94051604D01*
X142357051Y-94078864D01*
X142313778Y-94101995D01*
X142268445Y-94120772D01*
X142221490Y-94135016D01*
X142173365Y-94144588D01*
X142124534Y-94149398D01*
X142100000Y-94149398D01*
X142100000Y-94150000D01*
X141600000Y-94150000D01*
X141600000Y-92650000D01*
X142100000Y-92650000D01*
X142100000Y-92650602D01*
G37*
G36*
X141300000Y-94150000D02*
G01*
X140800000Y-94150000D01*
X140800000Y-94149398D01*
X140775466Y-94149398D01*
X140726635Y-94144588D01*
X140678510Y-94135016D01*
X140631555Y-94120772D01*
X140586222Y-94101995D01*
X140542949Y-94078864D01*
X140502150Y-94051604D01*
X140464221Y-94020476D01*
X140429524Y-93985779D01*
X140398396Y-93947850D01*
X140371136Y-93907051D01*
X140348005Y-93863778D01*
X140329228Y-93818445D01*
X140314984Y-93771490D01*
X140305412Y-93723365D01*
X140300602Y-93674534D01*
X140300602Y-93650000D01*
X140300000Y-93650000D01*
X140300000Y-93150000D01*
X140300602Y-93150000D01*
X140300602Y-93125466D01*
X140305412Y-93076635D01*
X140314984Y-93028510D01*
X140329228Y-92981555D01*
X140348005Y-92936222D01*
X140371136Y-92892949D01*
X140398396Y-92852150D01*
X140429524Y-92814221D01*
X140464221Y-92779524D01*
X140502150Y-92748396D01*
X140542949Y-92721136D01*
X140586222Y-92698005D01*
X140631555Y-92679228D01*
X140678510Y-92664984D01*
X140726635Y-92655412D01*
X140775466Y-92650602D01*
X140800000Y-92650602D01*
X140800000Y-92650000D01*
X141300000Y-92650000D01*
X141300000Y-94150000D01*
G37*
%TD*%
%TO.C,JP6*%
G36*
X156200602Y-92800000D02*
G01*
X156200602Y-92775466D01*
X156205412Y-92726635D01*
X156214984Y-92678510D01*
X156229228Y-92631555D01*
X156248005Y-92586222D01*
X156271136Y-92542949D01*
X156298396Y-92502150D01*
X156329524Y-92464221D01*
X156364221Y-92429524D01*
X156402150Y-92398396D01*
X156442949Y-92371136D01*
X156486222Y-92348005D01*
X156531555Y-92329228D01*
X156578510Y-92314984D01*
X156626635Y-92305412D01*
X156675466Y-92300602D01*
X156700000Y-92300602D01*
X156700000Y-92300000D01*
X157200000Y-92300000D01*
X157200000Y-92300602D01*
X157224534Y-92300602D01*
X157273365Y-92305412D01*
X157321490Y-92314984D01*
X157368445Y-92329228D01*
X157413778Y-92348005D01*
X157457051Y-92371136D01*
X157497850Y-92398396D01*
X157535779Y-92429524D01*
X157570476Y-92464221D01*
X157601604Y-92502150D01*
X157628864Y-92542949D01*
X157651995Y-92586222D01*
X157670772Y-92631555D01*
X157685016Y-92678510D01*
X157694588Y-92726635D01*
X157699398Y-92775466D01*
X157699398Y-92800000D01*
X157700000Y-92800000D01*
X157700000Y-93300000D01*
X156200000Y-93300000D01*
X156200000Y-92800000D01*
X156200602Y-92800000D01*
G37*
G36*
X157700000Y-93600000D02*
G01*
X157700000Y-94100000D01*
X157699398Y-94100000D01*
X157699398Y-94124534D01*
X157694588Y-94173365D01*
X157685016Y-94221490D01*
X157670772Y-94268445D01*
X157651995Y-94313778D01*
X157628864Y-94357051D01*
X157601604Y-94397850D01*
X157570476Y-94435779D01*
X157535779Y-94470476D01*
X157497850Y-94501604D01*
X157457051Y-94528864D01*
X157413778Y-94551995D01*
X157368445Y-94570772D01*
X157321490Y-94585016D01*
X157273365Y-94594588D01*
X157224534Y-94599398D01*
X157200000Y-94599398D01*
X157200000Y-94600000D01*
X156700000Y-94600000D01*
X156700000Y-94599398D01*
X156675466Y-94599398D01*
X156626635Y-94594588D01*
X156578510Y-94585016D01*
X156531555Y-94570772D01*
X156486222Y-94551995D01*
X156442949Y-94528864D01*
X156402150Y-94501604D01*
X156364221Y-94470476D01*
X156329524Y-94435779D01*
X156298396Y-94397850D01*
X156271136Y-94357051D01*
X156248005Y-94313778D01*
X156229228Y-94268445D01*
X156214984Y-94221490D01*
X156205412Y-94173365D01*
X156200602Y-94124534D01*
X156200602Y-94100000D01*
X156200000Y-94100000D01*
X156200000Y-93600000D01*
X157700000Y-93600000D01*
G37*
%TD*%
%TO.C,JP5*%
G36*
X142050000Y-100450602D02*
G01*
X142074534Y-100450602D01*
X142123365Y-100455412D01*
X142171490Y-100464984D01*
X142218445Y-100479228D01*
X142263778Y-100498005D01*
X142307051Y-100521136D01*
X142347850Y-100548396D01*
X142385779Y-100579524D01*
X142420476Y-100614221D01*
X142451604Y-100652150D01*
X142478864Y-100692949D01*
X142501995Y-100736222D01*
X142520772Y-100781555D01*
X142535016Y-100828510D01*
X142544588Y-100876635D01*
X142549398Y-100925466D01*
X142549398Y-100950000D01*
X142550000Y-100950000D01*
X142550000Y-101450000D01*
X142549398Y-101450000D01*
X142549398Y-101474534D01*
X142544588Y-101523365D01*
X142535016Y-101571490D01*
X142520772Y-101618445D01*
X142501995Y-101663778D01*
X142478864Y-101707051D01*
X142451604Y-101747850D01*
X142420476Y-101785779D01*
X142385779Y-101820476D01*
X142347850Y-101851604D01*
X142307051Y-101878864D01*
X142263778Y-101901995D01*
X142218445Y-101920772D01*
X142171490Y-101935016D01*
X142123365Y-101944588D01*
X142074534Y-101949398D01*
X142050000Y-101949398D01*
X142050000Y-101950000D01*
X141550000Y-101950000D01*
X141550000Y-100450000D01*
X142050000Y-100450000D01*
X142050000Y-100450602D01*
G37*
G36*
X141250000Y-101950000D02*
G01*
X140750000Y-101950000D01*
X140750000Y-101949398D01*
X140725466Y-101949398D01*
X140676635Y-101944588D01*
X140628510Y-101935016D01*
X140581555Y-101920772D01*
X140536222Y-101901995D01*
X140492949Y-101878864D01*
X140452150Y-101851604D01*
X140414221Y-101820476D01*
X140379524Y-101785779D01*
X140348396Y-101747850D01*
X140321136Y-101707051D01*
X140298005Y-101663778D01*
X140279228Y-101618445D01*
X140264984Y-101571490D01*
X140255412Y-101523365D01*
X140250602Y-101474534D01*
X140250602Y-101450000D01*
X140250000Y-101450000D01*
X140250000Y-100950000D01*
X140250602Y-100950000D01*
X140250602Y-100925466D01*
X140255412Y-100876635D01*
X140264984Y-100828510D01*
X140279228Y-100781555D01*
X140298005Y-100736222D01*
X140321136Y-100692949D01*
X140348396Y-100652150D01*
X140379524Y-100614221D01*
X140414221Y-100579524D01*
X140452150Y-100548396D01*
X140492949Y-100521136D01*
X140536222Y-100498005D01*
X140581555Y-100479228D01*
X140628510Y-100464984D01*
X140676635Y-100455412D01*
X140725466Y-100450602D01*
X140750000Y-100450602D01*
X140750000Y-100450000D01*
X141250000Y-100450000D01*
X141250000Y-101950000D01*
G37*
%TD*%
%TO.C,JP4*%
G36*
X142100000Y-95850602D02*
G01*
X142124534Y-95850602D01*
X142173365Y-95855412D01*
X142221490Y-95864984D01*
X142268445Y-95879228D01*
X142313778Y-95898005D01*
X142357051Y-95921136D01*
X142397850Y-95948396D01*
X142435779Y-95979524D01*
X142470476Y-96014221D01*
X142501604Y-96052150D01*
X142528864Y-96092949D01*
X142551995Y-96136222D01*
X142570772Y-96181555D01*
X142585016Y-96228510D01*
X142594588Y-96276635D01*
X142599398Y-96325466D01*
X142599398Y-96350000D01*
X142600000Y-96350000D01*
X142600000Y-96850000D01*
X142599398Y-96850000D01*
X142599398Y-96874534D01*
X142594588Y-96923365D01*
X142585016Y-96971490D01*
X142570772Y-97018445D01*
X142551995Y-97063778D01*
X142528864Y-97107051D01*
X142501604Y-97147850D01*
X142470476Y-97185779D01*
X142435779Y-97220476D01*
X142397850Y-97251604D01*
X142357051Y-97278864D01*
X142313778Y-97301995D01*
X142268445Y-97320772D01*
X142221490Y-97335016D01*
X142173365Y-97344588D01*
X142124534Y-97349398D01*
X142100000Y-97349398D01*
X142100000Y-97350000D01*
X141600000Y-97350000D01*
X141600000Y-95850000D01*
X142100000Y-95850000D01*
X142100000Y-95850602D01*
G37*
G36*
X141300000Y-97350000D02*
G01*
X140800000Y-97350000D01*
X140800000Y-97349398D01*
X140775466Y-97349398D01*
X140726635Y-97344588D01*
X140678510Y-97335016D01*
X140631555Y-97320772D01*
X140586222Y-97301995D01*
X140542949Y-97278864D01*
X140502150Y-97251604D01*
X140464221Y-97220476D01*
X140429524Y-97185779D01*
X140398396Y-97147850D01*
X140371136Y-97107051D01*
X140348005Y-97063778D01*
X140329228Y-97018445D01*
X140314984Y-96971490D01*
X140305412Y-96923365D01*
X140300602Y-96874534D01*
X140300602Y-96850000D01*
X140300000Y-96850000D01*
X140300000Y-96350000D01*
X140300602Y-96350000D01*
X140300602Y-96325466D01*
X140305412Y-96276635D01*
X140314984Y-96228510D01*
X140329228Y-96181555D01*
X140348005Y-96136222D01*
X140371136Y-96092949D01*
X140398396Y-96052150D01*
X140429524Y-96014221D01*
X140464221Y-95979524D01*
X140502150Y-95948396D01*
X140542949Y-95921136D01*
X140586222Y-95898005D01*
X140631555Y-95879228D01*
X140678510Y-95864984D01*
X140726635Y-95855412D01*
X140775466Y-95850602D01*
X140800000Y-95850602D01*
X140800000Y-95850000D01*
X141300000Y-95850000D01*
X141300000Y-97350000D01*
G37*
%TD*%
%TO.C,JP3*%
G36*
X142100000Y-88050602D02*
G01*
X142124534Y-88050602D01*
X142173365Y-88055412D01*
X142221490Y-88064984D01*
X142268445Y-88079228D01*
X142313778Y-88098005D01*
X142357051Y-88121136D01*
X142397850Y-88148396D01*
X142435779Y-88179524D01*
X142470476Y-88214221D01*
X142501604Y-88252150D01*
X142528864Y-88292949D01*
X142551995Y-88336222D01*
X142570772Y-88381555D01*
X142585016Y-88428510D01*
X142594588Y-88476635D01*
X142599398Y-88525466D01*
X142599398Y-88550000D01*
X142600000Y-88550000D01*
X142600000Y-89050000D01*
X142599398Y-89050000D01*
X142599398Y-89074534D01*
X142594588Y-89123365D01*
X142585016Y-89171490D01*
X142570772Y-89218445D01*
X142551995Y-89263778D01*
X142528864Y-89307051D01*
X142501604Y-89347850D01*
X142470476Y-89385779D01*
X142435779Y-89420476D01*
X142397850Y-89451604D01*
X142357051Y-89478864D01*
X142313778Y-89501995D01*
X142268445Y-89520772D01*
X142221490Y-89535016D01*
X142173365Y-89544588D01*
X142124534Y-89549398D01*
X142100000Y-89549398D01*
X142100000Y-89550000D01*
X141600000Y-89550000D01*
X141600000Y-88050000D01*
X142100000Y-88050000D01*
X142100000Y-88050602D01*
G37*
G36*
X141300000Y-89550000D02*
G01*
X140800000Y-89550000D01*
X140800000Y-89549398D01*
X140775466Y-89549398D01*
X140726635Y-89544588D01*
X140678510Y-89535016D01*
X140631555Y-89520772D01*
X140586222Y-89501995D01*
X140542949Y-89478864D01*
X140502150Y-89451604D01*
X140464221Y-89420476D01*
X140429524Y-89385779D01*
X140398396Y-89347850D01*
X140371136Y-89307051D01*
X140348005Y-89263778D01*
X140329228Y-89218445D01*
X140314984Y-89171490D01*
X140305412Y-89123365D01*
X140300602Y-89074534D01*
X140300602Y-89050000D01*
X140300000Y-89050000D01*
X140300000Y-88550000D01*
X140300602Y-88550000D01*
X140300602Y-88525466D01*
X140305412Y-88476635D01*
X140314984Y-88428510D01*
X140329228Y-88381555D01*
X140348005Y-88336222D01*
X140371136Y-88292949D01*
X140398396Y-88252150D01*
X140429524Y-88214221D01*
X140464221Y-88179524D01*
X140502150Y-88148396D01*
X140542949Y-88121136D01*
X140586222Y-88098005D01*
X140631555Y-88079228D01*
X140678510Y-88064984D01*
X140726635Y-88055412D01*
X140775466Y-88050602D01*
X140800000Y-88050602D01*
X140800000Y-88050000D01*
X141300000Y-88050000D01*
X141300000Y-89550000D01*
G37*
%TD*%
D22*
%TO.C,J13*%
X102500000Y-87620000D03*
X102500000Y-85080000D03*
X102500000Y-82540000D03*
D23*
X102500000Y-80000000D03*
%TD*%
D22*
%TO.C,J12*%
X102500000Y-110120000D03*
X102500000Y-107580000D03*
X102500000Y-105040000D03*
D23*
X102500000Y-102500000D03*
%TD*%
D22*
%TO.C,J5*%
X102500000Y-92460000D03*
X102500000Y-95000000D03*
D23*
X102500000Y-97540000D03*
%TD*%
D22*
%TO.C,J7*%
X145000000Y-110240000D03*
X145000000Y-107700000D03*
X145000000Y-105160000D03*
X145000000Y-102620000D03*
X145000000Y-100080000D03*
X145000000Y-97540000D03*
X145000000Y-95000000D03*
X145000000Y-92460000D03*
X145000000Y-89920000D03*
X145000000Y-87380000D03*
X145000000Y-84840000D03*
X145000000Y-82300000D03*
D23*
X145000000Y-79760000D03*
%TD*%
D24*
%TO.C,U5*%
X160100000Y-76150000D03*
X160100000Y-78050000D03*
X157900000Y-78050000D03*
X157900000Y-77100000D03*
X157900000Y-76150000D03*
%TD*%
D22*
%TO.C,J11*%
X145120000Y-75000000D03*
X142580000Y-75000000D03*
X140040000Y-75000000D03*
D23*
X137500000Y-75000000D03*
%TD*%
D22*
%TO.C,J10*%
X145120000Y-115000000D03*
X142580000Y-115000000D03*
X140040000Y-115000000D03*
D23*
X137500000Y-115000000D03*
%TD*%
D22*
%TO.C,J9*%
X181250000Y-111240000D03*
X181250000Y-108700000D03*
X181250000Y-106160000D03*
X181250000Y-103620000D03*
X181250000Y-101080000D03*
X181250000Y-98540000D03*
X181250000Y-96000000D03*
X181250000Y-93460000D03*
X181250000Y-90920000D03*
X181250000Y-88380000D03*
X181250000Y-85840000D03*
D23*
X181250000Y-83300000D03*
%TD*%
D22*
%TO.C,J8*%
X132940000Y-115000000D03*
X130400000Y-115000000D03*
X127860000Y-115000000D03*
X125320000Y-115000000D03*
X122780000Y-115000000D03*
X120240000Y-115000000D03*
X117700000Y-115000000D03*
X115160000Y-115000000D03*
X112620000Y-115000000D03*
X110080000Y-115000000D03*
X107540000Y-115000000D03*
D23*
X105000000Y-115000000D03*
%TD*%
%TO.C,R42*%
G36*
G01*
X152612500Y-62100002D02*
X152612500Y-61199998D01*
G75*
G02*
X152862498Y-60950000I249998J0D01*
G01*
X153387502Y-60950000D01*
G75*
G02*
X153637500Y-61199998I0J-249998D01*
G01*
X153637500Y-62100002D01*
G75*
G02*
X153387502Y-62350000I-249998J0D01*
G01*
X152862498Y-62350000D01*
G75*
G02*
X152612500Y-62100002I0J249998D01*
G01*
G37*
G36*
G01*
X150787500Y-62100002D02*
X150787500Y-61199998D01*
G75*
G02*
X151037498Y-60950000I249998J0D01*
G01*
X151562502Y-60950000D01*
G75*
G02*
X151812500Y-61199998I0J-249998D01*
G01*
X151812500Y-62100002D01*
G75*
G02*
X151562502Y-62350000I-249998J0D01*
G01*
X151037498Y-62350000D01*
G75*
G02*
X150787500Y-62100002I0J249998D01*
G01*
G37*
%TD*%
%TO.C,R41*%
G36*
G01*
X157649998Y-69737500D02*
X158550002Y-69737500D01*
G75*
G02*
X158800000Y-69987498I0J-249998D01*
G01*
X158800000Y-70512502D01*
G75*
G02*
X158550002Y-70762500I-249998J0D01*
G01*
X157649998Y-70762500D01*
G75*
G02*
X157400000Y-70512502I0J249998D01*
G01*
X157400000Y-69987498D01*
G75*
G02*
X157649998Y-69737500I249998J0D01*
G01*
G37*
G36*
G01*
X157649998Y-67912500D02*
X158550002Y-67912500D01*
G75*
G02*
X158800000Y-68162498I0J-249998D01*
G01*
X158800000Y-68687502D01*
G75*
G02*
X158550002Y-68937500I-249998J0D01*
G01*
X157649998Y-68937500D01*
G75*
G02*
X157400000Y-68687502I0J249998D01*
G01*
X157400000Y-68162498D01*
G75*
G02*
X157649998Y-67912500I249998J0D01*
G01*
G37*
%TD*%
%TO.C,R40*%
G36*
G01*
X154812500Y-77799998D02*
X154812500Y-78700002D01*
G75*
G02*
X154562502Y-78950000I-249998J0D01*
G01*
X154037498Y-78950000D01*
G75*
G02*
X153787500Y-78700002I0J249998D01*
G01*
X153787500Y-77799998D01*
G75*
G02*
X154037498Y-77550000I249998J0D01*
G01*
X154562502Y-77550000D01*
G75*
G02*
X154812500Y-77799998I0J-249998D01*
G01*
G37*
G36*
G01*
X156637500Y-77799998D02*
X156637500Y-78700002D01*
G75*
G02*
X156387502Y-78950000I-249998J0D01*
G01*
X155862498Y-78950000D01*
G75*
G02*
X155612500Y-78700002I0J249998D01*
G01*
X155612500Y-77799998D01*
G75*
G02*
X155862498Y-77550000I249998J0D01*
G01*
X156387502Y-77550000D01*
G75*
G02*
X156637500Y-77799998I0J-249998D01*
G01*
G37*
%TD*%
%TO.C,R39*%
G36*
G01*
X152750002Y-80562500D02*
X151849998Y-80562500D01*
G75*
G02*
X151600000Y-80312502I0J249998D01*
G01*
X151600000Y-79787498D01*
G75*
G02*
X151849998Y-79537500I249998J0D01*
G01*
X152750002Y-79537500D01*
G75*
G02*
X153000000Y-79787498I0J-249998D01*
G01*
X153000000Y-80312502D01*
G75*
G02*
X152750002Y-80562500I-249998J0D01*
G01*
G37*
G36*
G01*
X152750002Y-82387500D02*
X151849998Y-82387500D01*
G75*
G02*
X151600000Y-82137502I0J249998D01*
G01*
X151600000Y-81612498D01*
G75*
G02*
X151849998Y-81362500I249998J0D01*
G01*
X152750002Y-81362500D01*
G75*
G02*
X153000000Y-81612498I0J-249998D01*
G01*
X153000000Y-82137502D01*
G75*
G02*
X152750002Y-82387500I-249998J0D01*
G01*
G37*
%TD*%
D25*
%TO.C,JP2*%
G36*
X148950602Y-80400000D02*
G01*
X148950602Y-80375466D01*
X148955412Y-80326635D01*
X148964984Y-80278510D01*
X148979228Y-80231555D01*
X148998005Y-80186222D01*
X149021136Y-80142949D01*
X149048396Y-80102150D01*
X149079524Y-80064221D01*
X149114221Y-80029524D01*
X149152150Y-79998396D01*
X149192949Y-79971136D01*
X149236222Y-79948005D01*
X149281555Y-79929228D01*
X149328510Y-79914984D01*
X149376635Y-79905412D01*
X149425466Y-79900602D01*
X149450000Y-79900602D01*
X149450000Y-79900000D01*
X149950000Y-79900000D01*
X149950000Y-79900602D01*
X149974534Y-79900602D01*
X150023365Y-79905412D01*
X150071490Y-79914984D01*
X150118445Y-79929228D01*
X150163778Y-79948005D01*
X150207051Y-79971136D01*
X150247850Y-79998396D01*
X150285779Y-80029524D01*
X150320476Y-80064221D01*
X150351604Y-80102150D01*
X150378864Y-80142949D01*
X150401995Y-80186222D01*
X150420772Y-80231555D01*
X150435016Y-80278510D01*
X150444588Y-80326635D01*
X150449398Y-80375466D01*
X150449398Y-80400000D01*
X150450000Y-80400000D01*
X150450000Y-80900000D01*
X148950000Y-80900000D01*
X148950000Y-80400000D01*
X148950602Y-80400000D01*
G37*
G36*
X150450000Y-81200000D02*
G01*
X150450000Y-81700000D01*
X150449398Y-81700000D01*
X150449398Y-81724534D01*
X150444588Y-81773365D01*
X150435016Y-81821490D01*
X150420772Y-81868445D01*
X150401995Y-81913778D01*
X150378864Y-81957051D01*
X150351604Y-81997850D01*
X150320476Y-82035779D01*
X150285779Y-82070476D01*
X150247850Y-82101604D01*
X150207051Y-82128864D01*
X150163778Y-82151995D01*
X150118445Y-82170772D01*
X150071490Y-82185016D01*
X150023365Y-82194588D01*
X149974534Y-82199398D01*
X149950000Y-82199398D01*
X149950000Y-82200000D01*
X149450000Y-82200000D01*
X149450000Y-82199398D01*
X149425466Y-82199398D01*
X149376635Y-82194588D01*
X149328510Y-82185016D01*
X149281555Y-82170772D01*
X149236222Y-82151995D01*
X149192949Y-82128864D01*
X149152150Y-82101604D01*
X149114221Y-82070476D01*
X149079524Y-82035779D01*
X149048396Y-81997850D01*
X149021136Y-81957051D01*
X148998005Y-81913778D01*
X148979228Y-81868445D01*
X148964984Y-81821490D01*
X148955412Y-81773365D01*
X148950602Y-81724534D01*
X148950602Y-81700000D01*
X148950000Y-81700000D01*
X148950000Y-81200000D01*
X150450000Y-81200000D01*
G37*
%TD*%
%TO.C,JP1*%
G36*
X152000000Y-71700602D02*
G01*
X152024534Y-71700602D01*
X152073365Y-71705412D01*
X152121490Y-71714984D01*
X152168445Y-71729228D01*
X152213778Y-71748005D01*
X152257051Y-71771136D01*
X152297850Y-71798396D01*
X152335779Y-71829524D01*
X152370476Y-71864221D01*
X152401604Y-71902150D01*
X152428864Y-71942949D01*
X152451995Y-71986222D01*
X152470772Y-72031555D01*
X152485016Y-72078510D01*
X152494588Y-72126635D01*
X152499398Y-72175466D01*
X152499398Y-72200000D01*
X152500000Y-72200000D01*
X152500000Y-72700000D01*
X152499398Y-72700000D01*
X152499398Y-72724534D01*
X152494588Y-72773365D01*
X152485016Y-72821490D01*
X152470772Y-72868445D01*
X152451995Y-72913778D01*
X152428864Y-72957051D01*
X152401604Y-72997850D01*
X152370476Y-73035779D01*
X152335779Y-73070476D01*
X152297850Y-73101604D01*
X152257051Y-73128864D01*
X152213778Y-73151995D01*
X152168445Y-73170772D01*
X152121490Y-73185016D01*
X152073365Y-73194588D01*
X152024534Y-73199398D01*
X152000000Y-73199398D01*
X152000000Y-73200000D01*
X151500000Y-73200000D01*
X151500000Y-71700000D01*
X152000000Y-71700000D01*
X152000000Y-71700602D01*
G37*
G36*
X151200000Y-73200000D02*
G01*
X150700000Y-73200000D01*
X150700000Y-73199398D01*
X150675466Y-73199398D01*
X150626635Y-73194588D01*
X150578510Y-73185016D01*
X150531555Y-73170772D01*
X150486222Y-73151995D01*
X150442949Y-73128864D01*
X150402150Y-73101604D01*
X150364221Y-73070476D01*
X150329524Y-73035779D01*
X150298396Y-72997850D01*
X150271136Y-72957051D01*
X150248005Y-72913778D01*
X150229228Y-72868445D01*
X150214984Y-72821490D01*
X150205412Y-72773365D01*
X150200602Y-72724534D01*
X150200602Y-72700000D01*
X150200000Y-72700000D01*
X150200000Y-72200000D01*
X150200602Y-72200000D01*
X150200602Y-72175466D01*
X150205412Y-72126635D01*
X150214984Y-72078510D01*
X150229228Y-72031555D01*
X150248005Y-71986222D01*
X150271136Y-71942949D01*
X150298396Y-71902150D01*
X150329524Y-71864221D01*
X150364221Y-71829524D01*
X150402150Y-71798396D01*
X150442949Y-71771136D01*
X150486222Y-71748005D01*
X150531555Y-71729228D01*
X150578510Y-71714984D01*
X150626635Y-71705412D01*
X150675466Y-71700602D01*
X150700000Y-71700602D01*
X150700000Y-71700000D01*
X151200000Y-71700000D01*
X151200000Y-73200000D01*
G37*
%TD*%
D22*
%TO.C,J6*%
X132940000Y-75000000D03*
X130400000Y-75000000D03*
X127860000Y-75000000D03*
X125320000Y-75000000D03*
X122780000Y-75000000D03*
X120240000Y-75000000D03*
X117700000Y-75000000D03*
X115160000Y-75000000D03*
X112620000Y-75000000D03*
X110080000Y-75000000D03*
X107540000Y-75000000D03*
D23*
X105000000Y-75000000D03*
%TD*%
%TO.C,C27*%
G36*
G01*
X155750000Y-69125000D02*
X155750000Y-68175000D01*
G75*
G02*
X156000000Y-67925000I250000J0D01*
G01*
X156500000Y-67925000D01*
G75*
G02*
X156750000Y-68175000I0J-250000D01*
G01*
X156750000Y-69125000D01*
G75*
G02*
X156500000Y-69375000I-250000J0D01*
G01*
X156000000Y-69375000D01*
G75*
G02*
X155750000Y-69125000I0J250000D01*
G01*
G37*
G36*
G01*
X153850000Y-69125000D02*
X153850000Y-68175000D01*
G75*
G02*
X154100000Y-67925000I250000J0D01*
G01*
X154600000Y-67925000D01*
G75*
G02*
X154850000Y-68175000I0J-250000D01*
G01*
X154850000Y-69125000D01*
G75*
G02*
X154600000Y-69375000I-250000J0D01*
G01*
X154100000Y-69375000D01*
G75*
G02*
X153850000Y-69125000I0J250000D01*
G01*
G37*
%TD*%
%TO.C,C26*%
G36*
G01*
X156375000Y-80550000D02*
X155425000Y-80550000D01*
G75*
G02*
X155175000Y-80300000I0J250000D01*
G01*
X155175000Y-79800000D01*
G75*
G02*
X155425000Y-79550000I250000J0D01*
G01*
X156375000Y-79550000D01*
G75*
G02*
X156625000Y-79800000I0J-250000D01*
G01*
X156625000Y-80300000D01*
G75*
G02*
X156375000Y-80550000I-250000J0D01*
G01*
G37*
G36*
G01*
X156375000Y-82450000D02*
X155425000Y-82450000D01*
G75*
G02*
X155175000Y-82200000I0J250000D01*
G01*
X155175000Y-81700000D01*
G75*
G02*
X155425000Y-81450000I250000J0D01*
G01*
X156375000Y-81450000D01*
G75*
G02*
X156625000Y-81700000I0J-250000D01*
G01*
X156625000Y-82200000D01*
G75*
G02*
X156375000Y-82450000I-250000J0D01*
G01*
G37*
%TD*%
%TO.C,C25*%
G36*
G01*
X151200000Y-77775000D02*
X151200000Y-78725000D01*
G75*
G02*
X150950000Y-78975000I-250000J0D01*
G01*
X150450000Y-78975000D01*
G75*
G02*
X150200000Y-78725000I0J250000D01*
G01*
X150200000Y-77775000D01*
G75*
G02*
X150450000Y-77525000I250000J0D01*
G01*
X150950000Y-77525000D01*
G75*
G02*
X151200000Y-77775000I0J-250000D01*
G01*
G37*
G36*
G01*
X153100000Y-77775000D02*
X153100000Y-78725000D01*
G75*
G02*
X152850000Y-78975000I-250000J0D01*
G01*
X152350000Y-78975000D01*
G75*
G02*
X152100000Y-78725000I0J250000D01*
G01*
X152100000Y-77775000D01*
G75*
G02*
X152350000Y-77525000I250000J0D01*
G01*
X152850000Y-77525000D01*
G75*
G02*
X153100000Y-77775000I0J-250000D01*
G01*
G37*
%TD*%
%TO.C,C24*%
G36*
G01*
X165975000Y-104500000D02*
X165025000Y-104500000D01*
G75*
G02*
X164775000Y-104250000I0J250000D01*
G01*
X164775000Y-103750000D01*
G75*
G02*
X165025000Y-103500000I250000J0D01*
G01*
X165975000Y-103500000D01*
G75*
G02*
X166225000Y-103750000I0J-250000D01*
G01*
X166225000Y-104250000D01*
G75*
G02*
X165975000Y-104500000I-250000J0D01*
G01*
G37*
G36*
G01*
X165975000Y-106400000D02*
X165025000Y-106400000D01*
G75*
G02*
X164775000Y-106150000I0J250000D01*
G01*
X164775000Y-105650000D01*
G75*
G02*
X165025000Y-105400000I250000J0D01*
G01*
X165975000Y-105400000D01*
G75*
G02*
X166225000Y-105650000I0J-250000D01*
G01*
X166225000Y-106150000D01*
G75*
G02*
X165975000Y-106400000I-250000J0D01*
G01*
G37*
%TD*%
D28*
%TO.C,U4*%
X159050000Y-103700000D03*
X160950000Y-103700000D03*
X160950000Y-105900000D03*
X160000000Y-105900000D03*
X159050000Y-105900000D03*
%TD*%
%TO.C,R38*%
G36*
G01*
X156349998Y-97687500D02*
X157250002Y-97687500D01*
G75*
G02*
X157500000Y-97937498I0J-249998D01*
G01*
X157500000Y-98462502D01*
G75*
G02*
X157250002Y-98712500I-249998J0D01*
G01*
X156349998Y-98712500D01*
G75*
G02*
X156100000Y-98462502I0J249998D01*
G01*
X156100000Y-97937498D01*
G75*
G02*
X156349998Y-97687500I249998J0D01*
G01*
G37*
G36*
G01*
X156349998Y-95862500D02*
X157250002Y-95862500D01*
G75*
G02*
X157500000Y-96112498I0J-249998D01*
G01*
X157500000Y-96637502D01*
G75*
G02*
X157250002Y-96887500I-249998J0D01*
G01*
X156349998Y-96887500D01*
G75*
G02*
X156100000Y-96637502I0J249998D01*
G01*
X156100000Y-96112498D01*
G75*
G02*
X156349998Y-95862500I249998J0D01*
G01*
G37*
%TD*%
%TO.C,R37*%
G36*
G01*
X158749998Y-97687500D02*
X159650002Y-97687500D01*
G75*
G02*
X159900000Y-97937498I0J-249998D01*
G01*
X159900000Y-98462502D01*
G75*
G02*
X159650002Y-98712500I-249998J0D01*
G01*
X158749998Y-98712500D01*
G75*
G02*
X158500000Y-98462502I0J249998D01*
G01*
X158500000Y-97937498D01*
G75*
G02*
X158749998Y-97687500I249998J0D01*
G01*
G37*
G36*
G01*
X158749998Y-95862500D02*
X159650002Y-95862500D01*
G75*
G02*
X159900000Y-96112498I0J-249998D01*
G01*
X159900000Y-96637502D01*
G75*
G02*
X159650002Y-96887500I-249998J0D01*
G01*
X158749998Y-96887500D01*
G75*
G02*
X158500000Y-96637502I0J249998D01*
G01*
X158500000Y-96112498D01*
G75*
G02*
X158749998Y-95862500I249998J0D01*
G01*
G37*
%TD*%
%TO.C,R36*%
G36*
G01*
X156349998Y-108687500D02*
X157250002Y-108687500D01*
G75*
G02*
X157500000Y-108937498I0J-249998D01*
G01*
X157500000Y-109462502D01*
G75*
G02*
X157250002Y-109712500I-249998J0D01*
G01*
X156349998Y-109712500D01*
G75*
G02*
X156100000Y-109462502I0J249998D01*
G01*
X156100000Y-108937498D01*
G75*
G02*
X156349998Y-108687500I249998J0D01*
G01*
G37*
G36*
G01*
X156349998Y-106862500D02*
X157250002Y-106862500D01*
G75*
G02*
X157500000Y-107112498I0J-249998D01*
G01*
X157500000Y-107637502D01*
G75*
G02*
X157250002Y-107887500I-249998J0D01*
G01*
X156349998Y-107887500D01*
G75*
G02*
X156100000Y-107637502I0J249998D01*
G01*
X156100000Y-107112498D01*
G75*
G02*
X156349998Y-106862500I249998J0D01*
G01*
G37*
%TD*%
%TO.C,R35*%
G36*
G01*
X163650002Y-104512500D02*
X162749998Y-104512500D01*
G75*
G02*
X162500000Y-104262502I0J249998D01*
G01*
X162500000Y-103737498D01*
G75*
G02*
X162749998Y-103487500I249998J0D01*
G01*
X163650002Y-103487500D01*
G75*
G02*
X163900000Y-103737498I0J-249998D01*
G01*
X163900000Y-104262502D01*
G75*
G02*
X163650002Y-104512500I-249998J0D01*
G01*
G37*
G36*
G01*
X163650002Y-106337500D02*
X162749998Y-106337500D01*
G75*
G02*
X162500000Y-106087502I0J249998D01*
G01*
X162500000Y-105562498D01*
G75*
G02*
X162749998Y-105312500I249998J0D01*
G01*
X163650002Y-105312500D01*
G75*
G02*
X163900000Y-105562498I0J-249998D01*
G01*
X163900000Y-106087502D01*
G75*
G02*
X163650002Y-106337500I-249998J0D01*
G01*
G37*
%TD*%
%TO.C,R34*%
G36*
G01*
X162749998Y-109087500D02*
X163650002Y-109087500D01*
G75*
G02*
X163900000Y-109337498I0J-249998D01*
G01*
X163900000Y-109862502D01*
G75*
G02*
X163650002Y-110112500I-249998J0D01*
G01*
X162749998Y-110112500D01*
G75*
G02*
X162500000Y-109862502I0J249998D01*
G01*
X162500000Y-109337498D01*
G75*
G02*
X162749998Y-109087500I249998J0D01*
G01*
G37*
G36*
G01*
X162749998Y-107262500D02*
X163650002Y-107262500D01*
G75*
G02*
X163900000Y-107512498I0J-249998D01*
G01*
X163900000Y-108037502D01*
G75*
G02*
X163650002Y-108287500I-249998J0D01*
G01*
X162749998Y-108287500D01*
G75*
G02*
X162500000Y-108037502I0J249998D01*
G01*
X162500000Y-107512498D01*
G75*
G02*
X162749998Y-107262500I249998J0D01*
G01*
G37*
%TD*%
%TO.C,R33*%
G36*
G01*
X167299998Y-105312500D02*
X168200002Y-105312500D01*
G75*
G02*
X168450000Y-105562498I0J-249998D01*
G01*
X168450000Y-106087502D01*
G75*
G02*
X168200002Y-106337500I-249998J0D01*
G01*
X167299998Y-106337500D01*
G75*
G02*
X167050000Y-106087502I0J249998D01*
G01*
X167050000Y-105562498D01*
G75*
G02*
X167299998Y-105312500I249998J0D01*
G01*
G37*
G36*
G01*
X167299998Y-103487500D02*
X168200002Y-103487500D01*
G75*
G02*
X168450000Y-103737498I0J-249998D01*
G01*
X168450000Y-104262502D01*
G75*
G02*
X168200002Y-104512500I-249998J0D01*
G01*
X167299998Y-104512500D01*
G75*
G02*
X167050000Y-104262502I0J249998D01*
G01*
X167050000Y-103737498D01*
G75*
G02*
X167299998Y-103487500I249998J0D01*
G01*
G37*
%TD*%
D20*
%TO.C,J4*%
X88825000Y-98175000D03*
X88825000Y-91825000D03*
X95175000Y-98175000D03*
D21*
X92000000Y-95000000D03*
D20*
X95175000Y-91825000D03*
%TD*%
%TO.C,C23*%
G36*
G01*
X160675000Y-108300000D02*
X159725000Y-108300000D01*
G75*
G02*
X159475000Y-108050000I0J250000D01*
G01*
X159475000Y-107550000D01*
G75*
G02*
X159725000Y-107300000I250000J0D01*
G01*
X160675000Y-107300000D01*
G75*
G02*
X160925000Y-107550000I0J-250000D01*
G01*
X160925000Y-108050000D01*
G75*
G02*
X160675000Y-108300000I-250000J0D01*
G01*
G37*
G36*
G01*
X160675000Y-110200000D02*
X159725000Y-110200000D01*
G75*
G02*
X159475000Y-109950000I0J250000D01*
G01*
X159475000Y-109450000D01*
G75*
G02*
X159725000Y-109200000I250000J0D01*
G01*
X160675000Y-109200000D01*
G75*
G02*
X160925000Y-109450000I0J-250000D01*
G01*
X160925000Y-109950000D01*
G75*
G02*
X160675000Y-110200000I-250000J0D01*
G01*
G37*
%TD*%
%TO.C,C22*%
G36*
G01*
X158725000Y-101500000D02*
X159675000Y-101500000D01*
G75*
G02*
X159925000Y-101750000I0J-250000D01*
G01*
X159925000Y-102250000D01*
G75*
G02*
X159675000Y-102500000I-250000J0D01*
G01*
X158725000Y-102500000D01*
G75*
G02*
X158475000Y-102250000I0J250000D01*
G01*
X158475000Y-101750000D01*
G75*
G02*
X158725000Y-101500000I250000J0D01*
G01*
G37*
G36*
G01*
X158725000Y-99600000D02*
X159675000Y-99600000D01*
G75*
G02*
X159925000Y-99850000I0J-250000D01*
G01*
X159925000Y-100350000D01*
G75*
G02*
X159675000Y-100600000I-250000J0D01*
G01*
X158725000Y-100600000D01*
G75*
G02*
X158475000Y-100350000I0J250000D01*
G01*
X158475000Y-99850000D01*
G75*
G02*
X158725000Y-99600000I250000J0D01*
G01*
G37*
%TD*%
%TO.C,C21*%
G36*
G01*
X156325000Y-105100000D02*
X157275000Y-105100000D01*
G75*
G02*
X157525000Y-105350000I0J-250000D01*
G01*
X157525000Y-105850000D01*
G75*
G02*
X157275000Y-106100000I-250000J0D01*
G01*
X156325000Y-106100000D01*
G75*
G02*
X156075000Y-105850000I0J250000D01*
G01*
X156075000Y-105350000D01*
G75*
G02*
X156325000Y-105100000I250000J0D01*
G01*
G37*
G36*
G01*
X156325000Y-103200000D02*
X157275000Y-103200000D01*
G75*
G02*
X157525000Y-103450000I0J-250000D01*
G01*
X157525000Y-103950000D01*
G75*
G02*
X157275000Y-104200000I-250000J0D01*
G01*
X156325000Y-104200000D01*
G75*
G02*
X156075000Y-103950000I0J250000D01*
G01*
X156075000Y-103450000D01*
G75*
G02*
X156325000Y-103200000I250000J0D01*
G01*
G37*
%TD*%
%TO.C,C8*%
G36*
G01*
X114292500Y-101775000D02*
X114292500Y-102725000D01*
G75*
G02*
X114042500Y-102975000I-250000J0D01*
G01*
X113542500Y-102975000D01*
G75*
G02*
X113292500Y-102725000I0J250000D01*
G01*
X113292500Y-101775000D01*
G75*
G02*
X113542500Y-101525000I250000J0D01*
G01*
X114042500Y-101525000D01*
G75*
G02*
X114292500Y-101775000I0J-250000D01*
G01*
G37*
G36*
G01*
X116192500Y-101775000D02*
X116192500Y-102725000D01*
G75*
G02*
X115942500Y-102975000I-250000J0D01*
G01*
X115442500Y-102975000D01*
G75*
G02*
X115192500Y-102725000I0J250000D01*
G01*
X115192500Y-101775000D01*
G75*
G02*
X115442500Y-101525000I250000J0D01*
G01*
X115942500Y-101525000D01*
G75*
G02*
X116192500Y-101775000I0J-250000D01*
G01*
G37*
%TD*%
%TO.C,C4*%
G36*
G01*
X123875000Y-92250000D02*
X124825000Y-92250000D01*
G75*
G02*
X125075000Y-92500000I0J-250000D01*
G01*
X125075000Y-93000000D01*
G75*
G02*
X124825000Y-93250000I-250000J0D01*
G01*
X123875000Y-93250000D01*
G75*
G02*
X123625000Y-93000000I0J250000D01*
G01*
X123625000Y-92500000D01*
G75*
G02*
X123875000Y-92250000I250000J0D01*
G01*
G37*
G36*
G01*
X123875000Y-90350000D02*
X124825000Y-90350000D01*
G75*
G02*
X125075000Y-90600000I0J-250000D01*
G01*
X125075000Y-91100000D01*
G75*
G02*
X124825000Y-91350000I-250000J0D01*
G01*
X123875000Y-91350000D01*
G75*
G02*
X123625000Y-91100000I0J250000D01*
G01*
X123625000Y-90600000D01*
G75*
G02*
X123875000Y-90350000I250000J0D01*
G01*
G37*
%TD*%
%TO.C,C20*%
G36*
G01*
X132875000Y-88275000D02*
X132875000Y-89225000D01*
G75*
G02*
X132625000Y-89475000I-250000J0D01*
G01*
X132125000Y-89475000D01*
G75*
G02*
X131875000Y-89225000I0J250000D01*
G01*
X131875000Y-88275000D01*
G75*
G02*
X132125000Y-88025000I250000J0D01*
G01*
X132625000Y-88025000D01*
G75*
G02*
X132875000Y-88275000I0J-250000D01*
G01*
G37*
G36*
G01*
X134775000Y-88275000D02*
X134775000Y-89225000D01*
G75*
G02*
X134525000Y-89475000I-250000J0D01*
G01*
X134025000Y-89475000D01*
G75*
G02*
X133775000Y-89225000I0J250000D01*
G01*
X133775000Y-88275000D01*
G75*
G02*
X134025000Y-88025000I250000J0D01*
G01*
X134525000Y-88025000D01*
G75*
G02*
X134775000Y-88275000I0J-250000D01*
G01*
G37*
%TD*%
%TO.C,C19*%
G36*
G01*
X132875000Y-100775000D02*
X132875000Y-101725000D01*
G75*
G02*
X132625000Y-101975000I-250000J0D01*
G01*
X132125000Y-101975000D01*
G75*
G02*
X131875000Y-101725000I0J250000D01*
G01*
X131875000Y-100775000D01*
G75*
G02*
X132125000Y-100525000I250000J0D01*
G01*
X132625000Y-100525000D01*
G75*
G02*
X132875000Y-100775000I0J-250000D01*
G01*
G37*
G36*
G01*
X134775000Y-100775000D02*
X134775000Y-101725000D01*
G75*
G02*
X134525000Y-101975000I-250000J0D01*
G01*
X134025000Y-101975000D01*
G75*
G02*
X133775000Y-101725000I0J250000D01*
G01*
X133775000Y-100775000D01*
G75*
G02*
X134025000Y-100525000I250000J0D01*
G01*
X134525000Y-100525000D01*
G75*
G02*
X134775000Y-100775000I0J-250000D01*
G01*
G37*
%TD*%
%TO.C,C18*%
G36*
G01*
X132875000Y-95775000D02*
X132875000Y-96725000D01*
G75*
G02*
X132625000Y-96975000I-250000J0D01*
G01*
X132125000Y-96975000D01*
G75*
G02*
X131875000Y-96725000I0J250000D01*
G01*
X131875000Y-95775000D01*
G75*
G02*
X132125000Y-95525000I250000J0D01*
G01*
X132625000Y-95525000D01*
G75*
G02*
X132875000Y-95775000I0J-250000D01*
G01*
G37*
G36*
G01*
X134775000Y-95775000D02*
X134775000Y-96725000D01*
G75*
G02*
X134525000Y-96975000I-250000J0D01*
G01*
X134025000Y-96975000D01*
G75*
G02*
X133775000Y-96725000I0J250000D01*
G01*
X133775000Y-95775000D01*
G75*
G02*
X134025000Y-95525000I250000J0D01*
G01*
X134525000Y-95525000D01*
G75*
G02*
X134775000Y-95775000I0J-250000D01*
G01*
G37*
%TD*%
%TO.C,C17*%
G36*
G01*
X132875000Y-93275000D02*
X132875000Y-94225000D01*
G75*
G02*
X132625000Y-94475000I-250000J0D01*
G01*
X132125000Y-94475000D01*
G75*
G02*
X131875000Y-94225000I0J250000D01*
G01*
X131875000Y-93275000D01*
G75*
G02*
X132125000Y-93025000I250000J0D01*
G01*
X132625000Y-93025000D01*
G75*
G02*
X132875000Y-93275000I0J-250000D01*
G01*
G37*
G36*
G01*
X134775000Y-93275000D02*
X134775000Y-94225000D01*
G75*
G02*
X134525000Y-94475000I-250000J0D01*
G01*
X134025000Y-94475000D01*
G75*
G02*
X133775000Y-94225000I0J250000D01*
G01*
X133775000Y-93275000D01*
G75*
G02*
X134025000Y-93025000I250000J0D01*
G01*
X134525000Y-93025000D01*
G75*
G02*
X134775000Y-93275000I0J-250000D01*
G01*
G37*
%TD*%
%TO.C,C16*%
G36*
G01*
X118825000Y-100250000D02*
X117875000Y-100250000D01*
G75*
G02*
X117625000Y-100000000I0J250000D01*
G01*
X117625000Y-99500000D01*
G75*
G02*
X117875000Y-99250000I250000J0D01*
G01*
X118825000Y-99250000D01*
G75*
G02*
X119075000Y-99500000I0J-250000D01*
G01*
X119075000Y-100000000D01*
G75*
G02*
X118825000Y-100250000I-250000J0D01*
G01*
G37*
G36*
G01*
X118825000Y-102150000D02*
X117875000Y-102150000D01*
G75*
G02*
X117625000Y-101900000I0J250000D01*
G01*
X117625000Y-101400000D01*
G75*
G02*
X117875000Y-101150000I250000J0D01*
G01*
X118825000Y-101150000D01*
G75*
G02*
X119075000Y-101400000I0J-250000D01*
G01*
X119075000Y-101900000D01*
G75*
G02*
X118825000Y-102150000I-250000J0D01*
G01*
G37*
%TD*%
%TO.C,C15*%
G36*
G01*
X117875000Y-89250000D02*
X118825000Y-89250000D01*
G75*
G02*
X119075000Y-89500000I0J-250000D01*
G01*
X119075000Y-90000000D01*
G75*
G02*
X118825000Y-90250000I-250000J0D01*
G01*
X117875000Y-90250000D01*
G75*
G02*
X117625000Y-90000000I0J250000D01*
G01*
X117625000Y-89500000D01*
G75*
G02*
X117875000Y-89250000I250000J0D01*
G01*
G37*
G36*
G01*
X117875000Y-87350000D02*
X118825000Y-87350000D01*
G75*
G02*
X119075000Y-87600000I0J-250000D01*
G01*
X119075000Y-88100000D01*
G75*
G02*
X118825000Y-88350000I-250000J0D01*
G01*
X117875000Y-88350000D01*
G75*
G02*
X117625000Y-88100000I0J250000D01*
G01*
X117625000Y-87600000D01*
G75*
G02*
X117875000Y-87350000I250000J0D01*
G01*
G37*
%TD*%
%TO.C,C14*%
G36*
G01*
X122325000Y-101750000D02*
X121375000Y-101750000D01*
G75*
G02*
X121125000Y-101500000I0J250000D01*
G01*
X121125000Y-101000000D01*
G75*
G02*
X121375000Y-100750000I250000J0D01*
G01*
X122325000Y-100750000D01*
G75*
G02*
X122575000Y-101000000I0J-250000D01*
G01*
X122575000Y-101500000D01*
G75*
G02*
X122325000Y-101750000I-250000J0D01*
G01*
G37*
G36*
G01*
X122325000Y-103650000D02*
X121375000Y-103650000D01*
G75*
G02*
X121125000Y-103400000I0J250000D01*
G01*
X121125000Y-102900000D01*
G75*
G02*
X121375000Y-102650000I250000J0D01*
G01*
X122325000Y-102650000D01*
G75*
G02*
X122575000Y-102900000I0J-250000D01*
G01*
X122575000Y-103400000D01*
G75*
G02*
X122325000Y-103650000I-250000J0D01*
G01*
G37*
%TD*%
%TO.C,C13*%
G36*
G01*
X121375000Y-88250000D02*
X122325000Y-88250000D01*
G75*
G02*
X122575000Y-88500000I0J-250000D01*
G01*
X122575000Y-89000000D01*
G75*
G02*
X122325000Y-89250000I-250000J0D01*
G01*
X121375000Y-89250000D01*
G75*
G02*
X121125000Y-89000000I0J250000D01*
G01*
X121125000Y-88500000D01*
G75*
G02*
X121375000Y-88250000I250000J0D01*
G01*
G37*
G36*
G01*
X121375000Y-86350000D02*
X122325000Y-86350000D01*
G75*
G02*
X122575000Y-86600000I0J-250000D01*
G01*
X122575000Y-87100000D01*
G75*
G02*
X122325000Y-87350000I-250000J0D01*
G01*
X121375000Y-87350000D01*
G75*
G02*
X121125000Y-87100000I0J250000D01*
G01*
X121125000Y-86600000D01*
G75*
G02*
X121375000Y-86350000I250000J0D01*
G01*
G37*
%TD*%
%TO.C,C12*%
G36*
G01*
X124825000Y-105800000D02*
X123875000Y-105800000D01*
G75*
G02*
X123625000Y-105550000I0J250000D01*
G01*
X123625000Y-105050000D01*
G75*
G02*
X123875000Y-104800000I250000J0D01*
G01*
X124825000Y-104800000D01*
G75*
G02*
X125075000Y-105050000I0J-250000D01*
G01*
X125075000Y-105550000D01*
G75*
G02*
X124825000Y-105800000I-250000J0D01*
G01*
G37*
G36*
G01*
X124825000Y-107700000D02*
X123875000Y-107700000D01*
G75*
G02*
X123625000Y-107450000I0J250000D01*
G01*
X123625000Y-106950000D01*
G75*
G02*
X123875000Y-106700000I250000J0D01*
G01*
X124825000Y-106700000D01*
G75*
G02*
X125075000Y-106950000I0J-250000D01*
G01*
X125075000Y-107450000D01*
G75*
G02*
X124825000Y-107700000I-250000J0D01*
G01*
G37*
%TD*%
%TO.C,C11*%
G36*
G01*
X123875000Y-84250000D02*
X124825000Y-84250000D01*
G75*
G02*
X125075000Y-84500000I0J-250000D01*
G01*
X125075000Y-85000000D01*
G75*
G02*
X124825000Y-85250000I-250000J0D01*
G01*
X123875000Y-85250000D01*
G75*
G02*
X123625000Y-85000000I0J250000D01*
G01*
X123625000Y-84500000D01*
G75*
G02*
X123875000Y-84250000I250000J0D01*
G01*
G37*
G36*
G01*
X123875000Y-82350000D02*
X124825000Y-82350000D01*
G75*
G02*
X125075000Y-82600000I0J-250000D01*
G01*
X125075000Y-83100000D01*
G75*
G02*
X124825000Y-83350000I-250000J0D01*
G01*
X123875000Y-83350000D01*
G75*
G02*
X123625000Y-83100000I0J250000D01*
G01*
X123625000Y-82600000D01*
G75*
G02*
X123875000Y-82350000I250000J0D01*
G01*
G37*
%TD*%
%TO.C,C10*%
G36*
G01*
X114467500Y-86775000D02*
X114467500Y-87725000D01*
G75*
G02*
X114217500Y-87975000I-250000J0D01*
G01*
X113717500Y-87975000D01*
G75*
G02*
X113467500Y-87725000I0J250000D01*
G01*
X113467500Y-86775000D01*
G75*
G02*
X113717500Y-86525000I250000J0D01*
G01*
X114217500Y-86525000D01*
G75*
G02*
X114467500Y-86775000I0J-250000D01*
G01*
G37*
G36*
G01*
X116367500Y-86775000D02*
X116367500Y-87725000D01*
G75*
G02*
X116117500Y-87975000I-250000J0D01*
G01*
X115617500Y-87975000D01*
G75*
G02*
X115367500Y-87725000I0J250000D01*
G01*
X115367500Y-86775000D01*
G75*
G02*
X115617500Y-86525000I250000J0D01*
G01*
X116117500Y-86525000D01*
G75*
G02*
X116367500Y-86775000I0J-250000D01*
G01*
G37*
%TD*%
%TO.C,C9*%
G36*
G01*
X110467500Y-86775000D02*
X110467500Y-87725000D01*
G75*
G02*
X110217500Y-87975000I-250000J0D01*
G01*
X109717500Y-87975000D01*
G75*
G02*
X109467500Y-87725000I0J250000D01*
G01*
X109467500Y-86775000D01*
G75*
G02*
X109717500Y-86525000I250000J0D01*
G01*
X110217500Y-86525000D01*
G75*
G02*
X110467500Y-86775000I0J-250000D01*
G01*
G37*
G36*
G01*
X112367500Y-86775000D02*
X112367500Y-87725000D01*
G75*
G02*
X112117500Y-87975000I-250000J0D01*
G01*
X111617500Y-87975000D01*
G75*
G02*
X111367500Y-87725000I0J250000D01*
G01*
X111367500Y-86775000D01*
G75*
G02*
X111617500Y-86525000I250000J0D01*
G01*
X112117500Y-86525000D01*
G75*
G02*
X112367500Y-86775000I0J-250000D01*
G01*
G37*
%TD*%
%TO.C,C7*%
G36*
G01*
X110467500Y-101775000D02*
X110467500Y-102725000D01*
G75*
G02*
X110217500Y-102975000I-250000J0D01*
G01*
X109717500Y-102975000D01*
G75*
G02*
X109467500Y-102725000I0J250000D01*
G01*
X109467500Y-101775000D01*
G75*
G02*
X109717500Y-101525000I250000J0D01*
G01*
X110217500Y-101525000D01*
G75*
G02*
X110467500Y-101775000I0J-250000D01*
G01*
G37*
G36*
G01*
X112367500Y-101775000D02*
X112367500Y-102725000D01*
G75*
G02*
X112117500Y-102975000I-250000J0D01*
G01*
X111617500Y-102975000D01*
G75*
G02*
X111367500Y-102725000I0J250000D01*
G01*
X111367500Y-101775000D01*
G75*
G02*
X111617500Y-101525000I250000J0D01*
G01*
X112117500Y-101525000D01*
G75*
G02*
X112367500Y-101775000I0J-250000D01*
G01*
G37*
%TD*%
%TO.C,C6*%
G36*
G01*
X124825000Y-97775000D02*
X123875000Y-97775000D01*
G75*
G02*
X123625000Y-97525000I0J250000D01*
G01*
X123625000Y-97025000D01*
G75*
G02*
X123875000Y-96775000I250000J0D01*
G01*
X124825000Y-96775000D01*
G75*
G02*
X125075000Y-97025000I0J-250000D01*
G01*
X125075000Y-97525000D01*
G75*
G02*
X124825000Y-97775000I-250000J0D01*
G01*
G37*
G36*
G01*
X124825000Y-99675000D02*
X123875000Y-99675000D01*
G75*
G02*
X123625000Y-99425000I0J250000D01*
G01*
X123625000Y-98925000D01*
G75*
G02*
X123875000Y-98675000I250000J0D01*
G01*
X124825000Y-98675000D01*
G75*
G02*
X125075000Y-98925000I0J-250000D01*
G01*
X125075000Y-99425000D01*
G75*
G02*
X124825000Y-99675000I-250000J0D01*
G01*
G37*
%TD*%
%TO.C,C5*%
G36*
G01*
X114292500Y-104775000D02*
X114292500Y-105725000D01*
G75*
G02*
X114042500Y-105975000I-250000J0D01*
G01*
X113542500Y-105975000D01*
G75*
G02*
X113292500Y-105725000I0J250000D01*
G01*
X113292500Y-104775000D01*
G75*
G02*
X113542500Y-104525000I250000J0D01*
G01*
X114042500Y-104525000D01*
G75*
G02*
X114292500Y-104775000I0J-250000D01*
G01*
G37*
G36*
G01*
X116192500Y-104775000D02*
X116192500Y-105725000D01*
G75*
G02*
X115942500Y-105975000I-250000J0D01*
G01*
X115442500Y-105975000D01*
G75*
G02*
X115192500Y-105725000I0J250000D01*
G01*
X115192500Y-104775000D01*
G75*
G02*
X115442500Y-104525000I250000J0D01*
G01*
X115942500Y-104525000D01*
G75*
G02*
X116192500Y-104775000I0J-250000D01*
G01*
G37*
%TD*%
%TO.C,C3*%
G36*
G01*
X114467500Y-83775000D02*
X114467500Y-84725000D01*
G75*
G02*
X114217500Y-84975000I-250000J0D01*
G01*
X113717500Y-84975000D01*
G75*
G02*
X113467500Y-84725000I0J250000D01*
G01*
X113467500Y-83775000D01*
G75*
G02*
X113717500Y-83525000I250000J0D01*
G01*
X114217500Y-83525000D01*
G75*
G02*
X114467500Y-83775000I0J-250000D01*
G01*
G37*
G36*
G01*
X116367500Y-83775000D02*
X116367500Y-84725000D01*
G75*
G02*
X116117500Y-84975000I-250000J0D01*
G01*
X115617500Y-84975000D01*
G75*
G02*
X115367500Y-84725000I0J250000D01*
G01*
X115367500Y-83775000D01*
G75*
G02*
X115617500Y-83525000I250000J0D01*
G01*
X116117500Y-83525000D01*
G75*
G02*
X116367500Y-83775000I0J-250000D01*
G01*
G37*
%TD*%
%TO.C,R32*%
G36*
G01*
X137450000Y-88299998D02*
X137450000Y-89200002D01*
G75*
G02*
X137200002Y-89450000I-249998J0D01*
G01*
X136674998Y-89450000D01*
G75*
G02*
X136425000Y-89200002I0J249998D01*
G01*
X136425000Y-88299998D01*
G75*
G02*
X136674998Y-88050000I249998J0D01*
G01*
X137200002Y-88050000D01*
G75*
G02*
X137450000Y-88299998I0J-249998D01*
G01*
G37*
G36*
G01*
X139275000Y-88299998D02*
X139275000Y-89200002D01*
G75*
G02*
X139025002Y-89450000I-249998J0D01*
G01*
X138499998Y-89450000D01*
G75*
G02*
X138250000Y-89200002I0J249998D01*
G01*
X138250000Y-88299998D01*
G75*
G02*
X138499998Y-88050000I249998J0D01*
G01*
X139025002Y-88050000D01*
G75*
G02*
X139275000Y-88299998I0J-249998D01*
G01*
G37*
%TD*%
%TO.C,R31*%
G36*
G01*
X133745000Y-87200002D02*
X133745000Y-86299998D01*
G75*
G02*
X133994998Y-86050000I249998J0D01*
G01*
X134520002Y-86050000D01*
G75*
G02*
X134770000Y-86299998I0J-249998D01*
G01*
X134770000Y-87200002D01*
G75*
G02*
X134520002Y-87450000I-249998J0D01*
G01*
X133994998Y-87450000D01*
G75*
G02*
X133745000Y-87200002I0J249998D01*
G01*
G37*
G36*
G01*
X131920000Y-87200002D02*
X131920000Y-86299998D01*
G75*
G02*
X132169998Y-86050000I249998J0D01*
G01*
X132695002Y-86050000D01*
G75*
G02*
X132945000Y-86299998I0J-249998D01*
G01*
X132945000Y-87200002D01*
G75*
G02*
X132695002Y-87450000I-249998J0D01*
G01*
X132169998Y-87450000D01*
G75*
G02*
X131920000Y-87200002I0J249998D01*
G01*
G37*
%TD*%
%TO.C,R30*%
G36*
G01*
X128537500Y-88299998D02*
X128537500Y-89200002D01*
G75*
G02*
X128287502Y-89450000I-249998J0D01*
G01*
X127762498Y-89450000D01*
G75*
G02*
X127512500Y-89200002I0J249998D01*
G01*
X127512500Y-88299998D01*
G75*
G02*
X127762498Y-88050000I249998J0D01*
G01*
X128287502Y-88050000D01*
G75*
G02*
X128537500Y-88299998I0J-249998D01*
G01*
G37*
G36*
G01*
X130362500Y-88299998D02*
X130362500Y-89200002D01*
G75*
G02*
X130112502Y-89450000I-249998J0D01*
G01*
X129587498Y-89450000D01*
G75*
G02*
X129337500Y-89200002I0J249998D01*
G01*
X129337500Y-88299998D01*
G75*
G02*
X129587498Y-88050000I249998J0D01*
G01*
X130112502Y-88050000D01*
G75*
G02*
X130362500Y-88299998I0J-249998D01*
G01*
G37*
%TD*%
%TO.C,R29*%
G36*
G01*
X137450000Y-100799998D02*
X137450000Y-101700002D01*
G75*
G02*
X137200002Y-101950000I-249998J0D01*
G01*
X136674998Y-101950000D01*
G75*
G02*
X136425000Y-101700002I0J249998D01*
G01*
X136425000Y-100799998D01*
G75*
G02*
X136674998Y-100550000I249998J0D01*
G01*
X137200002Y-100550000D01*
G75*
G02*
X137450000Y-100799998I0J-249998D01*
G01*
G37*
G36*
G01*
X139275000Y-100799998D02*
X139275000Y-101700002D01*
G75*
G02*
X139025002Y-101950000I-249998J0D01*
G01*
X138499998Y-101950000D01*
G75*
G02*
X138250000Y-101700002I0J249998D01*
G01*
X138250000Y-100799998D01*
G75*
G02*
X138499998Y-100550000I249998J0D01*
G01*
X139025002Y-100550000D01*
G75*
G02*
X139275000Y-100799998I0J-249998D01*
G01*
G37*
%TD*%
%TO.C,R28*%
G36*
G01*
X133745000Y-104200002D02*
X133745000Y-103299998D01*
G75*
G02*
X133994998Y-103050000I249998J0D01*
G01*
X134520002Y-103050000D01*
G75*
G02*
X134770000Y-103299998I0J-249998D01*
G01*
X134770000Y-104200002D01*
G75*
G02*
X134520002Y-104450000I-249998J0D01*
G01*
X133994998Y-104450000D01*
G75*
G02*
X133745000Y-104200002I0J249998D01*
G01*
G37*
G36*
G01*
X131920000Y-104200002D02*
X131920000Y-103299998D01*
G75*
G02*
X132169998Y-103050000I249998J0D01*
G01*
X132695002Y-103050000D01*
G75*
G02*
X132945000Y-103299998I0J-249998D01*
G01*
X132945000Y-104200002D01*
G75*
G02*
X132695002Y-104450000I-249998J0D01*
G01*
X132169998Y-104450000D01*
G75*
G02*
X131920000Y-104200002I0J249998D01*
G01*
G37*
%TD*%
%TO.C,R27*%
G36*
G01*
X128537500Y-100799998D02*
X128537500Y-101700002D01*
G75*
G02*
X128287502Y-101950000I-249998J0D01*
G01*
X127762498Y-101950000D01*
G75*
G02*
X127512500Y-101700002I0J249998D01*
G01*
X127512500Y-100799998D01*
G75*
G02*
X127762498Y-100550000I249998J0D01*
G01*
X128287502Y-100550000D01*
G75*
G02*
X128537500Y-100799998I0J-249998D01*
G01*
G37*
G36*
G01*
X130362500Y-100799998D02*
X130362500Y-101700002D01*
G75*
G02*
X130112502Y-101950000I-249998J0D01*
G01*
X129587498Y-101950000D01*
G75*
G02*
X129337500Y-101700002I0J249998D01*
G01*
X129337500Y-100799998D01*
G75*
G02*
X129587498Y-100550000I249998J0D01*
G01*
X130112502Y-100550000D01*
G75*
G02*
X130362500Y-100799998I0J-249998D01*
G01*
G37*
%TD*%
%TO.C,R26*%
G36*
G01*
X137450000Y-95799998D02*
X137450000Y-96700002D01*
G75*
G02*
X137200002Y-96950000I-249998J0D01*
G01*
X136674998Y-96950000D01*
G75*
G02*
X136425000Y-96700002I0J249998D01*
G01*
X136425000Y-95799998D01*
G75*
G02*
X136674998Y-95550000I249998J0D01*
G01*
X137200002Y-95550000D01*
G75*
G02*
X137450000Y-95799998I0J-249998D01*
G01*
G37*
G36*
G01*
X139275000Y-95799998D02*
X139275000Y-96700002D01*
G75*
G02*
X139025002Y-96950000I-249998J0D01*
G01*
X138499998Y-96950000D01*
G75*
G02*
X138250000Y-96700002I0J249998D01*
G01*
X138250000Y-95799998D01*
G75*
G02*
X138499998Y-95550000I249998J0D01*
G01*
X139025002Y-95550000D01*
G75*
G02*
X139275000Y-95799998I0J-249998D01*
G01*
G37*
%TD*%
%TO.C,R25*%
G36*
G01*
X133745000Y-98700002D02*
X133745000Y-97799998D01*
G75*
G02*
X133994998Y-97550000I249998J0D01*
G01*
X134520002Y-97550000D01*
G75*
G02*
X134770000Y-97799998I0J-249998D01*
G01*
X134770000Y-98700002D01*
G75*
G02*
X134520002Y-98950000I-249998J0D01*
G01*
X133994998Y-98950000D01*
G75*
G02*
X133745000Y-98700002I0J249998D01*
G01*
G37*
G36*
G01*
X131920000Y-98700002D02*
X131920000Y-97799998D01*
G75*
G02*
X132169998Y-97550000I249998J0D01*
G01*
X132695002Y-97550000D01*
G75*
G02*
X132945000Y-97799998I0J-249998D01*
G01*
X132945000Y-98700002D01*
G75*
G02*
X132695002Y-98950000I-249998J0D01*
G01*
X132169998Y-98950000D01*
G75*
G02*
X131920000Y-98700002I0J249998D01*
G01*
G37*
%TD*%
%TO.C,R24*%
G36*
G01*
X128537500Y-95799998D02*
X128537500Y-96700002D01*
G75*
G02*
X128287502Y-96950000I-249998J0D01*
G01*
X127762498Y-96950000D01*
G75*
G02*
X127512500Y-96700002I0J249998D01*
G01*
X127512500Y-95799998D01*
G75*
G02*
X127762498Y-95550000I249998J0D01*
G01*
X128287502Y-95550000D01*
G75*
G02*
X128537500Y-95799998I0J-249998D01*
G01*
G37*
G36*
G01*
X130362500Y-95799998D02*
X130362500Y-96700002D01*
G75*
G02*
X130112502Y-96950000I-249998J0D01*
G01*
X129587498Y-96950000D01*
G75*
G02*
X129337500Y-96700002I0J249998D01*
G01*
X129337500Y-95799998D01*
G75*
G02*
X129587498Y-95550000I249998J0D01*
G01*
X130112502Y-95550000D01*
G75*
G02*
X130362500Y-95799998I0J-249998D01*
G01*
G37*
%TD*%
%TO.C,R23*%
G36*
G01*
X137450000Y-93299998D02*
X137450000Y-94200002D01*
G75*
G02*
X137200002Y-94450000I-249998J0D01*
G01*
X136674998Y-94450000D01*
G75*
G02*
X136425000Y-94200002I0J249998D01*
G01*
X136425000Y-93299998D01*
G75*
G02*
X136674998Y-93050000I249998J0D01*
G01*
X137200002Y-93050000D01*
G75*
G02*
X137450000Y-93299998I0J-249998D01*
G01*
G37*
G36*
G01*
X139275000Y-93299998D02*
X139275000Y-94200002D01*
G75*
G02*
X139025002Y-94450000I-249998J0D01*
G01*
X138499998Y-94450000D01*
G75*
G02*
X138250000Y-94200002I0J249998D01*
G01*
X138250000Y-93299998D01*
G75*
G02*
X138499998Y-93050000I249998J0D01*
G01*
X139025002Y-93050000D01*
G75*
G02*
X139275000Y-93299998I0J-249998D01*
G01*
G37*
%TD*%
%TO.C,R22*%
G36*
G01*
X133745000Y-92200002D02*
X133745000Y-91299998D01*
G75*
G02*
X133994998Y-91050000I249998J0D01*
G01*
X134520002Y-91050000D01*
G75*
G02*
X134770000Y-91299998I0J-249998D01*
G01*
X134770000Y-92200002D01*
G75*
G02*
X134520002Y-92450000I-249998J0D01*
G01*
X133994998Y-92450000D01*
G75*
G02*
X133745000Y-92200002I0J249998D01*
G01*
G37*
G36*
G01*
X131920000Y-92200002D02*
X131920000Y-91299998D01*
G75*
G02*
X132169998Y-91050000I249998J0D01*
G01*
X132695002Y-91050000D01*
G75*
G02*
X132945000Y-91299998I0J-249998D01*
G01*
X132945000Y-92200002D01*
G75*
G02*
X132695002Y-92450000I-249998J0D01*
G01*
X132169998Y-92450000D01*
G75*
G02*
X131920000Y-92200002I0J249998D01*
G01*
G37*
%TD*%
%TO.C,R21*%
G36*
G01*
X128537500Y-93299998D02*
X128537500Y-94200002D01*
G75*
G02*
X128287502Y-94450000I-249998J0D01*
G01*
X127762498Y-94450000D01*
G75*
G02*
X127512500Y-94200002I0J249998D01*
G01*
X127512500Y-93299998D01*
G75*
G02*
X127762498Y-93050000I249998J0D01*
G01*
X128287502Y-93050000D01*
G75*
G02*
X128537500Y-93299998I0J-249998D01*
G01*
G37*
G36*
G01*
X130362500Y-93299998D02*
X130362500Y-94200002D01*
G75*
G02*
X130112502Y-94450000I-249998J0D01*
G01*
X129587498Y-94450000D01*
G75*
G02*
X129337500Y-94200002I0J249998D01*
G01*
X129337500Y-93299998D01*
G75*
G02*
X129587498Y-93050000I249998J0D01*
G01*
X130112502Y-93050000D01*
G75*
G02*
X130362500Y-93299998I0J-249998D01*
G01*
G37*
%TD*%
%TO.C,R19*%
G36*
G01*
X114537500Y-89299998D02*
X114537500Y-90200002D01*
G75*
G02*
X114287502Y-90450000I-249998J0D01*
G01*
X113762498Y-90450000D01*
G75*
G02*
X113512500Y-90200002I0J249998D01*
G01*
X113512500Y-89299998D01*
G75*
G02*
X113762498Y-89050000I249998J0D01*
G01*
X114287502Y-89050000D01*
G75*
G02*
X114537500Y-89299998I0J-249998D01*
G01*
G37*
G36*
G01*
X116362500Y-89299998D02*
X116362500Y-90200002D01*
G75*
G02*
X116112502Y-90450000I-249998J0D01*
G01*
X115587498Y-90450000D01*
G75*
G02*
X115337500Y-90200002I0J249998D01*
G01*
X115337500Y-89299998D01*
G75*
G02*
X115587498Y-89050000I249998J0D01*
G01*
X116112502Y-89050000D01*
G75*
G02*
X116362500Y-89299998I0J-249998D01*
G01*
G37*
%TD*%
%TO.C,R20*%
G36*
G01*
X113662500Y-93700002D02*
X113662500Y-92799998D01*
G75*
G02*
X113912498Y-92550000I249998J0D01*
G01*
X114437502Y-92550000D01*
G75*
G02*
X114687500Y-92799998I0J-249998D01*
G01*
X114687500Y-93700002D01*
G75*
G02*
X114437502Y-93950000I-249998J0D01*
G01*
X113912498Y-93950000D01*
G75*
G02*
X113662500Y-93700002I0J249998D01*
G01*
G37*
G36*
G01*
X111837500Y-93700002D02*
X111837500Y-92799998D01*
G75*
G02*
X112087498Y-92550000I249998J0D01*
G01*
X112612502Y-92550000D01*
G75*
G02*
X112862500Y-92799998I0J-249998D01*
G01*
X112862500Y-93700002D01*
G75*
G02*
X112612502Y-93950000I-249998J0D01*
G01*
X112087498Y-93950000D01*
G75*
G02*
X111837500Y-93700002I0J249998D01*
G01*
G37*
%TD*%
%TO.C,R18*%
G36*
G01*
X111337500Y-90200002D02*
X111337500Y-89299998D01*
G75*
G02*
X111587498Y-89050000I249998J0D01*
G01*
X112112502Y-89050000D01*
G75*
G02*
X112362500Y-89299998I0J-249998D01*
G01*
X112362500Y-90200002D01*
G75*
G02*
X112112502Y-90450000I-249998J0D01*
G01*
X111587498Y-90450000D01*
G75*
G02*
X111337500Y-90200002I0J249998D01*
G01*
G37*
G36*
G01*
X109512500Y-90200002D02*
X109512500Y-89299998D01*
G75*
G02*
X109762498Y-89050000I249998J0D01*
G01*
X110287502Y-89050000D01*
G75*
G02*
X110537500Y-89299998I0J-249998D01*
G01*
X110537500Y-90200002D01*
G75*
G02*
X110287502Y-90450000I-249998J0D01*
G01*
X109762498Y-90450000D01*
G75*
G02*
X109512500Y-90200002I0J249998D01*
G01*
G37*
%TD*%
%TO.C,R17*%
G36*
G01*
X107037500Y-86799998D02*
X107037500Y-87700002D01*
G75*
G02*
X106787502Y-87950000I-249998J0D01*
G01*
X106262498Y-87950000D01*
G75*
G02*
X106012500Y-87700002I0J249998D01*
G01*
X106012500Y-86799998D01*
G75*
G02*
X106262498Y-86550000I249998J0D01*
G01*
X106787502Y-86550000D01*
G75*
G02*
X107037500Y-86799998I0J-249998D01*
G01*
G37*
G36*
G01*
X108862500Y-86799998D02*
X108862500Y-87700002D01*
G75*
G02*
X108612502Y-87950000I-249998J0D01*
G01*
X108087498Y-87950000D01*
G75*
G02*
X107837500Y-87700002I0J249998D01*
G01*
X107837500Y-86799998D01*
G75*
G02*
X108087498Y-86550000I249998J0D01*
G01*
X108612502Y-86550000D01*
G75*
G02*
X108862500Y-86799998I0J-249998D01*
G01*
G37*
%TD*%
%TO.C,R16*%
G36*
G01*
X113662500Y-97200002D02*
X113662500Y-96299998D01*
G75*
G02*
X113912498Y-96050000I249998J0D01*
G01*
X114437502Y-96050000D01*
G75*
G02*
X114687500Y-96299998I0J-249998D01*
G01*
X114687500Y-97200002D01*
G75*
G02*
X114437502Y-97450000I-249998J0D01*
G01*
X113912498Y-97450000D01*
G75*
G02*
X113662500Y-97200002I0J249998D01*
G01*
G37*
G36*
G01*
X111837500Y-97200002D02*
X111837500Y-96299998D01*
G75*
G02*
X112087498Y-96050000I249998J0D01*
G01*
X112612502Y-96050000D01*
G75*
G02*
X112862500Y-96299998I0J-249998D01*
G01*
X112862500Y-97200002D01*
G75*
G02*
X112612502Y-97450000I-249998J0D01*
G01*
X112087498Y-97450000D01*
G75*
G02*
X111837500Y-97200002I0J249998D01*
G01*
G37*
%TD*%
%TO.C,R15*%
G36*
G01*
X114362500Y-99299998D02*
X114362500Y-100200002D01*
G75*
G02*
X114112502Y-100450000I-249998J0D01*
G01*
X113587498Y-100450000D01*
G75*
G02*
X113337500Y-100200002I0J249998D01*
G01*
X113337500Y-99299998D01*
G75*
G02*
X113587498Y-99050000I249998J0D01*
G01*
X114112502Y-99050000D01*
G75*
G02*
X114362500Y-99299998I0J-249998D01*
G01*
G37*
G36*
G01*
X116187500Y-99299998D02*
X116187500Y-100200002D01*
G75*
G02*
X115937502Y-100450000I-249998J0D01*
G01*
X115412498Y-100450000D01*
G75*
G02*
X115162500Y-100200002I0J249998D01*
G01*
X115162500Y-99299998D01*
G75*
G02*
X115412498Y-99050000I249998J0D01*
G01*
X115937502Y-99050000D01*
G75*
G02*
X116187500Y-99299998I0J-249998D01*
G01*
G37*
%TD*%
%TO.C,R14*%
G36*
G01*
X111337500Y-100200002D02*
X111337500Y-99299998D01*
G75*
G02*
X111587498Y-99050000I249998J0D01*
G01*
X112112502Y-99050000D01*
G75*
G02*
X112362500Y-99299998I0J-249998D01*
G01*
X112362500Y-100200002D01*
G75*
G02*
X112112502Y-100450000I-249998J0D01*
G01*
X111587498Y-100450000D01*
G75*
G02*
X111337500Y-100200002I0J249998D01*
G01*
G37*
G36*
G01*
X109512500Y-100200002D02*
X109512500Y-99299998D01*
G75*
G02*
X109762498Y-99050000I249998J0D01*
G01*
X110287502Y-99050000D01*
G75*
G02*
X110537500Y-99299998I0J-249998D01*
G01*
X110537500Y-100200002D01*
G75*
G02*
X110287502Y-100450000I-249998J0D01*
G01*
X109762498Y-100450000D01*
G75*
G02*
X109512500Y-100200002I0J249998D01*
G01*
G37*
%TD*%
%TO.C,R13*%
G36*
G01*
X107037500Y-101799998D02*
X107037500Y-102700002D01*
G75*
G02*
X106787502Y-102950000I-249998J0D01*
G01*
X106262498Y-102950000D01*
G75*
G02*
X106012500Y-102700002I0J249998D01*
G01*
X106012500Y-101799998D01*
G75*
G02*
X106262498Y-101550000I249998J0D01*
G01*
X106787502Y-101550000D01*
G75*
G02*
X107037500Y-101799998I0J-249998D01*
G01*
G37*
G36*
G01*
X108862500Y-101799998D02*
X108862500Y-102700002D01*
G75*
G02*
X108612502Y-102950000I-249998J0D01*
G01*
X108087498Y-102950000D01*
G75*
G02*
X107837500Y-102700002I0J249998D01*
G01*
X107837500Y-101799998D01*
G75*
G02*
X108087498Y-101550000I249998J0D01*
G01*
X108612502Y-101550000D01*
G75*
G02*
X108862500Y-101799998I0J-249998D01*
G01*
G37*
%TD*%
%TO.C,R12*%
G36*
G01*
X124800002Y-101762500D02*
X123899998Y-101762500D01*
G75*
G02*
X123650000Y-101512502I0J249998D01*
G01*
X123650000Y-100987498D01*
G75*
G02*
X123899998Y-100737500I249998J0D01*
G01*
X124800002Y-100737500D01*
G75*
G02*
X125050000Y-100987498I0J-249998D01*
G01*
X125050000Y-101512502D01*
G75*
G02*
X124800002Y-101762500I-249998J0D01*
G01*
G37*
G36*
G01*
X124800002Y-103587500D02*
X123899998Y-103587500D01*
G75*
G02*
X123650000Y-103337502I0J249998D01*
G01*
X123650000Y-102812498D01*
G75*
G02*
X123899998Y-102562500I249998J0D01*
G01*
X124800002Y-102562500D01*
G75*
G02*
X125050000Y-102812498I0J-249998D01*
G01*
X125050000Y-103337502D01*
G75*
G02*
X124800002Y-103587500I-249998J0D01*
G01*
G37*
%TD*%
%TO.C,R11*%
G36*
G01*
X122300002Y-97762500D02*
X121399998Y-97762500D01*
G75*
G02*
X121150000Y-97512502I0J249998D01*
G01*
X121150000Y-96987498D01*
G75*
G02*
X121399998Y-96737500I249998J0D01*
G01*
X122300002Y-96737500D01*
G75*
G02*
X122550000Y-96987498I0J-249998D01*
G01*
X122550000Y-97512502D01*
G75*
G02*
X122300002Y-97762500I-249998J0D01*
G01*
G37*
G36*
G01*
X122300002Y-99587500D02*
X121399998Y-99587500D01*
G75*
G02*
X121150000Y-99337502I0J249998D01*
G01*
X121150000Y-98812498D01*
G75*
G02*
X121399998Y-98562500I249998J0D01*
G01*
X122300002Y-98562500D01*
G75*
G02*
X122550000Y-98812498I0J-249998D01*
G01*
X122550000Y-99337502D01*
G75*
G02*
X122300002Y-99587500I-249998J0D01*
G01*
G37*
%TD*%
%TO.C,R10*%
G36*
G01*
X115162500Y-108200002D02*
X115162500Y-107299998D01*
G75*
G02*
X115412498Y-107050000I249998J0D01*
G01*
X115937502Y-107050000D01*
G75*
G02*
X116187500Y-107299998I0J-249998D01*
G01*
X116187500Y-108200002D01*
G75*
G02*
X115937502Y-108450000I-249998J0D01*
G01*
X115412498Y-108450000D01*
G75*
G02*
X115162500Y-108200002I0J249998D01*
G01*
G37*
G36*
G01*
X113337500Y-108200002D02*
X113337500Y-107299998D01*
G75*
G02*
X113587498Y-107050000I249998J0D01*
G01*
X114112502Y-107050000D01*
G75*
G02*
X114362500Y-107299998I0J-249998D01*
G01*
X114362500Y-108200002D01*
G75*
G02*
X114112502Y-108450000I-249998J0D01*
G01*
X113587498Y-108450000D01*
G75*
G02*
X113337500Y-108200002I0J249998D01*
G01*
G37*
%TD*%
%TO.C,R9*%
G36*
G01*
X110537500Y-104799998D02*
X110537500Y-105700002D01*
G75*
G02*
X110287502Y-105950000I-249998J0D01*
G01*
X109762498Y-105950000D01*
G75*
G02*
X109512500Y-105700002I0J249998D01*
G01*
X109512500Y-104799998D01*
G75*
G02*
X109762498Y-104550000I249998J0D01*
G01*
X110287502Y-104550000D01*
G75*
G02*
X110537500Y-104799998I0J-249998D01*
G01*
G37*
G36*
G01*
X112362500Y-104799998D02*
X112362500Y-105700002D01*
G75*
G02*
X112112502Y-105950000I-249998J0D01*
G01*
X111587498Y-105950000D01*
G75*
G02*
X111337500Y-105700002I0J249998D01*
G01*
X111337500Y-104799998D01*
G75*
G02*
X111587498Y-104550000I249998J0D01*
G01*
X112112502Y-104550000D01*
G75*
G02*
X112362500Y-104799998I0J-249998D01*
G01*
G37*
%TD*%
%TO.C,R8*%
G36*
G01*
X123899998Y-88237500D02*
X124800002Y-88237500D01*
G75*
G02*
X125050000Y-88487498I0J-249998D01*
G01*
X125050000Y-89012502D01*
G75*
G02*
X124800002Y-89262500I-249998J0D01*
G01*
X123899998Y-89262500D01*
G75*
G02*
X123650000Y-89012502I0J249998D01*
G01*
X123650000Y-88487498D01*
G75*
G02*
X123899998Y-88237500I249998J0D01*
G01*
G37*
G36*
G01*
X123899998Y-86412500D02*
X124800002Y-86412500D01*
G75*
G02*
X125050000Y-86662498I0J-249998D01*
G01*
X125050000Y-87187502D01*
G75*
G02*
X124800002Y-87437500I-249998J0D01*
G01*
X123899998Y-87437500D01*
G75*
G02*
X123650000Y-87187502I0J249998D01*
G01*
X123650000Y-86662498D01*
G75*
G02*
X123899998Y-86412500I249998J0D01*
G01*
G37*
%TD*%
%TO.C,R7*%
G36*
G01*
X121399998Y-92237500D02*
X122300002Y-92237500D01*
G75*
G02*
X122550000Y-92487498I0J-249998D01*
G01*
X122550000Y-93012502D01*
G75*
G02*
X122300002Y-93262500I-249998J0D01*
G01*
X121399998Y-93262500D01*
G75*
G02*
X121150000Y-93012502I0J249998D01*
G01*
X121150000Y-92487498D01*
G75*
G02*
X121399998Y-92237500I249998J0D01*
G01*
G37*
G36*
G01*
X121399998Y-90412500D02*
X122300002Y-90412500D01*
G75*
G02*
X122550000Y-90662498I0J-249998D01*
G01*
X122550000Y-91187502D01*
G75*
G02*
X122300002Y-91437500I-249998J0D01*
G01*
X121399998Y-91437500D01*
G75*
G02*
X121150000Y-91187502I0J249998D01*
G01*
X121150000Y-90662498D01*
G75*
G02*
X121399998Y-90412500I249998J0D01*
G01*
G37*
%TD*%
%TO.C,R6*%
G36*
G01*
X115337500Y-82200002D02*
X115337500Y-81299998D01*
G75*
G02*
X115587498Y-81050000I249998J0D01*
G01*
X116112502Y-81050000D01*
G75*
G02*
X116362500Y-81299998I0J-249998D01*
G01*
X116362500Y-82200002D01*
G75*
G02*
X116112502Y-82450000I-249998J0D01*
G01*
X115587498Y-82450000D01*
G75*
G02*
X115337500Y-82200002I0J249998D01*
G01*
G37*
G36*
G01*
X113512500Y-82200002D02*
X113512500Y-81299998D01*
G75*
G02*
X113762498Y-81050000I249998J0D01*
G01*
X114287502Y-81050000D01*
G75*
G02*
X114537500Y-81299998I0J-249998D01*
G01*
X114537500Y-82200002D01*
G75*
G02*
X114287502Y-82450000I-249998J0D01*
G01*
X113762498Y-82450000D01*
G75*
G02*
X113512500Y-82200002I0J249998D01*
G01*
G37*
%TD*%
%TO.C,R5*%
G36*
G01*
X110537500Y-83799998D02*
X110537500Y-84700002D01*
G75*
G02*
X110287502Y-84950000I-249998J0D01*
G01*
X109762498Y-84950000D01*
G75*
G02*
X109512500Y-84700002I0J249998D01*
G01*
X109512500Y-83799998D01*
G75*
G02*
X109762498Y-83550000I249998J0D01*
G01*
X110287502Y-83550000D01*
G75*
G02*
X110537500Y-83799998I0J-249998D01*
G01*
G37*
G36*
G01*
X112362500Y-83799998D02*
X112362500Y-84700002D01*
G75*
G02*
X112112502Y-84950000I-249998J0D01*
G01*
X111587498Y-84950000D01*
G75*
G02*
X111337500Y-84700002I0J249998D01*
G01*
X111337500Y-83799998D01*
G75*
G02*
X111587498Y-83550000I249998J0D01*
G01*
X112112502Y-83550000D01*
G75*
G02*
X112362500Y-83799998I0J-249998D01*
G01*
G37*
%TD*%
D29*
%TO.C,U3*%
X122250000Y-41550000D03*
X119710000Y-41550000D03*
D30*
X117170000Y-41550000D03*
%TD*%
D29*
%TO.C,U2*%
X111250000Y-41550000D03*
X108710000Y-41550000D03*
D30*
X106170000Y-41550000D03*
%TD*%
%TO.C,U1*%
G36*
G01*
X119530000Y-96955225D02*
X119730000Y-96955225D01*
G75*
G02*
X119830000Y-97055225I0J-100000D01*
G01*
X119830000Y-98330225D01*
G75*
G02*
X119730000Y-98430225I-100000J0D01*
G01*
X119530000Y-98430225D01*
G75*
G02*
X119430000Y-98330225I0J100000D01*
G01*
X119430000Y-97055225D01*
G75*
G02*
X119530000Y-96955225I100000J0D01*
G01*
G37*
G36*
G01*
X118880000Y-96955225D02*
X119080000Y-96955225D01*
G75*
G02*
X119180000Y-97055225I0J-100000D01*
G01*
X119180000Y-98330225D01*
G75*
G02*
X119080000Y-98430225I-100000J0D01*
G01*
X118880000Y-98430225D01*
G75*
G02*
X118780000Y-98330225I0J100000D01*
G01*
X118780000Y-97055225D01*
G75*
G02*
X118880000Y-96955225I100000J0D01*
G01*
G37*
G36*
G01*
X118230000Y-96955225D02*
X118430000Y-96955225D01*
G75*
G02*
X118530000Y-97055225I0J-100000D01*
G01*
X118530000Y-98330225D01*
G75*
G02*
X118430000Y-98430225I-100000J0D01*
G01*
X118230000Y-98430225D01*
G75*
G02*
X118130000Y-98330225I0J100000D01*
G01*
X118130000Y-97055225D01*
G75*
G02*
X118230000Y-96955225I100000J0D01*
G01*
G37*
G36*
G01*
X117580000Y-96955225D02*
X117780000Y-96955225D01*
G75*
G02*
X117880000Y-97055225I0J-100000D01*
G01*
X117880000Y-98330225D01*
G75*
G02*
X117780000Y-98430225I-100000J0D01*
G01*
X117580000Y-98430225D01*
G75*
G02*
X117480000Y-98330225I0J100000D01*
G01*
X117480000Y-97055225D01*
G75*
G02*
X117580000Y-96955225I100000J0D01*
G01*
G37*
G36*
G01*
X116930000Y-96955225D02*
X117130000Y-96955225D01*
G75*
G02*
X117230000Y-97055225I0J-100000D01*
G01*
X117230000Y-98330225D01*
G75*
G02*
X117130000Y-98430225I-100000J0D01*
G01*
X116930000Y-98430225D01*
G75*
G02*
X116830000Y-98330225I0J100000D01*
G01*
X116830000Y-97055225D01*
G75*
G02*
X116930000Y-96955225I100000J0D01*
G01*
G37*
G36*
G01*
X116280000Y-96955225D02*
X116480000Y-96955225D01*
G75*
G02*
X116580000Y-97055225I0J-100000D01*
G01*
X116580000Y-98330225D01*
G75*
G02*
X116480000Y-98430225I-100000J0D01*
G01*
X116280000Y-98430225D01*
G75*
G02*
X116180000Y-98330225I0J100000D01*
G01*
X116180000Y-97055225D01*
G75*
G02*
X116280000Y-96955225I100000J0D01*
G01*
G37*
G36*
G01*
X115630000Y-96955225D02*
X115830000Y-96955225D01*
G75*
G02*
X115930000Y-97055225I0J-100000D01*
G01*
X115930000Y-98330225D01*
G75*
G02*
X115830000Y-98430225I-100000J0D01*
G01*
X115630000Y-98430225D01*
G75*
G02*
X115530000Y-98330225I0J100000D01*
G01*
X115530000Y-97055225D01*
G75*
G02*
X115630000Y-96955225I100000J0D01*
G01*
G37*
G36*
G01*
X115630000Y-91230225D02*
X115830000Y-91230225D01*
G75*
G02*
X115930000Y-91330225I0J-100000D01*
G01*
X115930000Y-92605225D01*
G75*
G02*
X115830000Y-92705225I-100000J0D01*
G01*
X115630000Y-92705225D01*
G75*
G02*
X115530000Y-92605225I0J100000D01*
G01*
X115530000Y-91330225D01*
G75*
G02*
X115630000Y-91230225I100000J0D01*
G01*
G37*
G36*
G01*
X116280000Y-91230225D02*
X116480000Y-91230225D01*
G75*
G02*
X116580000Y-91330225I0J-100000D01*
G01*
X116580000Y-92605225D01*
G75*
G02*
X116480000Y-92705225I-100000J0D01*
G01*
X116280000Y-92705225D01*
G75*
G02*
X116180000Y-92605225I0J100000D01*
G01*
X116180000Y-91330225D01*
G75*
G02*
X116280000Y-91230225I100000J0D01*
G01*
G37*
G36*
G01*
X116930000Y-91230225D02*
X117130000Y-91230225D01*
G75*
G02*
X117230000Y-91330225I0J-100000D01*
G01*
X117230000Y-92605225D01*
G75*
G02*
X117130000Y-92705225I-100000J0D01*
G01*
X116930000Y-92705225D01*
G75*
G02*
X116830000Y-92605225I0J100000D01*
G01*
X116830000Y-91330225D01*
G75*
G02*
X116930000Y-91230225I100000J0D01*
G01*
G37*
G36*
G01*
X117580000Y-91230225D02*
X117780000Y-91230225D01*
G75*
G02*
X117880000Y-91330225I0J-100000D01*
G01*
X117880000Y-92605225D01*
G75*
G02*
X117780000Y-92705225I-100000J0D01*
G01*
X117580000Y-92705225D01*
G75*
G02*
X117480000Y-92605225I0J100000D01*
G01*
X117480000Y-91330225D01*
G75*
G02*
X117580000Y-91230225I100000J0D01*
G01*
G37*
G36*
G01*
X118230000Y-91230225D02*
X118430000Y-91230225D01*
G75*
G02*
X118530000Y-91330225I0J-100000D01*
G01*
X118530000Y-92605225D01*
G75*
G02*
X118430000Y-92705225I-100000J0D01*
G01*
X118230000Y-92705225D01*
G75*
G02*
X118130000Y-92605225I0J100000D01*
G01*
X118130000Y-91330225D01*
G75*
G02*
X118230000Y-91230225I100000J0D01*
G01*
G37*
G36*
G01*
X118880000Y-91230225D02*
X119080000Y-91230225D01*
G75*
G02*
X119180000Y-91330225I0J-100000D01*
G01*
X119180000Y-92605225D01*
G75*
G02*
X119080000Y-92705225I-100000J0D01*
G01*
X118880000Y-92705225D01*
G75*
G02*
X118780000Y-92605225I0J100000D01*
G01*
X118780000Y-91330225D01*
G75*
G02*
X118880000Y-91230225I100000J0D01*
G01*
G37*
G36*
G01*
X119530000Y-91230225D02*
X119730000Y-91230225D01*
G75*
G02*
X119830000Y-91330225I0J-100000D01*
G01*
X119830000Y-92605225D01*
G75*
G02*
X119730000Y-92705225I-100000J0D01*
G01*
X119530000Y-92705225D01*
G75*
G02*
X119430000Y-92605225I0J100000D01*
G01*
X119430000Y-91330225D01*
G75*
G02*
X119530000Y-91230225I100000J0D01*
G01*
G37*
%TD*%
%TO.C,R4*%
G36*
G01*
X117812500Y-51924998D02*
X117812500Y-53175002D01*
G75*
G02*
X117562502Y-53425000I-249998J0D01*
G01*
X116937498Y-53425000D01*
G75*
G02*
X116687500Y-53175002I0J249998D01*
G01*
X116687500Y-51924998D01*
G75*
G02*
X116937498Y-51675000I249998J0D01*
G01*
X117562502Y-51675000D01*
G75*
G02*
X117812500Y-51924998I0J-249998D01*
G01*
G37*
G36*
G01*
X120737500Y-51924998D02*
X120737500Y-53175002D01*
G75*
G02*
X120487502Y-53425000I-249998J0D01*
G01*
X119862498Y-53425000D01*
G75*
G02*
X119612500Y-53175002I0J249998D01*
G01*
X119612500Y-51924998D01*
G75*
G02*
X119862498Y-51675000I249998J0D01*
G01*
X120487502Y-51675000D01*
G75*
G02*
X120737500Y-51924998I0J-249998D01*
G01*
G37*
%TD*%
%TO.C,R3*%
G36*
G01*
X102812500Y-51924998D02*
X102812500Y-53175002D01*
G75*
G02*
X102562502Y-53425000I-249998J0D01*
G01*
X101937498Y-53425000D01*
G75*
G02*
X101687500Y-53175002I0J249998D01*
G01*
X101687500Y-51924998D01*
G75*
G02*
X101937498Y-51675000I249998J0D01*
G01*
X102562502Y-51675000D01*
G75*
G02*
X102812500Y-51924998I0J-249998D01*
G01*
G37*
G36*
G01*
X105737500Y-51924998D02*
X105737500Y-53175002D01*
G75*
G02*
X105487502Y-53425000I-249998J0D01*
G01*
X104862498Y-53425000D01*
G75*
G02*
X104612500Y-53175002I0J249998D01*
G01*
X104612500Y-51924998D01*
G75*
G02*
X104862498Y-51675000I249998J0D01*
G01*
X105487502Y-51675000D01*
G75*
G02*
X105737500Y-51924998I0J-249998D01*
G01*
G37*
%TD*%
%TO.C,R2*%
G36*
G01*
X115124998Y-32912500D02*
X116375002Y-32912500D01*
G75*
G02*
X116625000Y-33162498I0J-249998D01*
G01*
X116625000Y-33787502D01*
G75*
G02*
X116375002Y-34037500I-249998J0D01*
G01*
X115124998Y-34037500D01*
G75*
G02*
X114875000Y-33787502I0J249998D01*
G01*
X114875000Y-33162498D01*
G75*
G02*
X115124998Y-32912500I249998J0D01*
G01*
G37*
G36*
G01*
X115124998Y-29987500D02*
X116375002Y-29987500D01*
G75*
G02*
X116625000Y-30237498I0J-249998D01*
G01*
X116625000Y-30862502D01*
G75*
G02*
X116375002Y-31112500I-249998J0D01*
G01*
X115124998Y-31112500D01*
G75*
G02*
X114875000Y-30862502I0J249998D01*
G01*
X114875000Y-30237498D01*
G75*
G02*
X115124998Y-29987500I249998J0D01*
G01*
G37*
%TD*%
%TO.C,R1*%
G36*
G01*
X113375002Y-31112500D02*
X112124998Y-31112500D01*
G75*
G02*
X111875000Y-30862502I0J249998D01*
G01*
X111875000Y-30237498D01*
G75*
G02*
X112124998Y-29987500I249998J0D01*
G01*
X113375002Y-29987500D01*
G75*
G02*
X113625000Y-30237498I0J-249998D01*
G01*
X113625000Y-30862502D01*
G75*
G02*
X113375002Y-31112500I-249998J0D01*
G01*
G37*
G36*
G01*
X113375002Y-34037500D02*
X112124998Y-34037500D01*
G75*
G02*
X111875000Y-33787502I0J249998D01*
G01*
X111875000Y-33162498D01*
G75*
G02*
X112124998Y-32912500I249998J0D01*
G01*
X113375002Y-32912500D01*
G75*
G02*
X113625000Y-33162498I0J-249998D01*
G01*
X113625000Y-33787502D01*
G75*
G02*
X113375002Y-34037500I-249998J0D01*
G01*
G37*
%TD*%
D10*
%TO.C,J3*%
X109170000Y-22550000D03*
X114250000Y-22550000D03*
D11*
X119330000Y-22550000D03*
%TD*%
%TO.C,J2*%
G36*
G01*
X128375000Y-26800000D02*
X130125000Y-26800000D01*
G75*
G02*
X131000000Y-27675000I0J-875000D01*
G01*
X131000000Y-29425000D01*
G75*
G02*
X130125000Y-30300000I-875000J0D01*
G01*
X128375000Y-30300000D01*
G75*
G02*
X127500000Y-29425000I0J875000D01*
G01*
X127500000Y-27675000D01*
G75*
G02*
X128375000Y-26800000I875000J0D01*
G01*
G37*
G36*
G01*
X132950000Y-24050000D02*
X134950000Y-24050000D01*
G75*
G02*
X135700000Y-24800000I0J-750000D01*
G01*
X135700000Y-26300000D01*
G75*
G02*
X134950000Y-27050000I-750000J0D01*
G01*
X132950000Y-27050000D01*
G75*
G02*
X132200000Y-26300000I0J750000D01*
G01*
X132200000Y-24800000D01*
G75*
G02*
X132950000Y-24050000I750000J0D01*
G01*
G37*
D31*
X133950000Y-31550000D03*
%TD*%
%TO.C,J1*%
G36*
G01*
X89375000Y-25800000D02*
X91125000Y-25800000D01*
G75*
G02*
X92000000Y-26675000I0J-875000D01*
G01*
X92000000Y-28425000D01*
G75*
G02*
X91125000Y-29300000I-875000J0D01*
G01*
X89375000Y-29300000D01*
G75*
G02*
X88500000Y-28425000I0J875000D01*
G01*
X88500000Y-26675000D01*
G75*
G02*
X89375000Y-25800000I875000J0D01*
G01*
G37*
G36*
G01*
X93950000Y-23050000D02*
X95950000Y-23050000D01*
G75*
G02*
X96700000Y-23800000I0J-750000D01*
G01*
X96700000Y-25300000D01*
G75*
G02*
X95950000Y-26050000I-750000J0D01*
G01*
X93950000Y-26050000D01*
G75*
G02*
X93200000Y-25300000I0J750000D01*
G01*
X93200000Y-23800000D01*
G75*
G02*
X93950000Y-23050000I750000J0D01*
G01*
G37*
X94950000Y-30550000D03*
%TD*%
%TO.C,F2*%
G36*
G01*
X122875000Y-45175000D02*
X121625000Y-45175000D01*
G75*
G02*
X121375000Y-44925000I0J250000D01*
G01*
X121375000Y-44175000D01*
G75*
G02*
X121625000Y-43925000I250000J0D01*
G01*
X122875000Y-43925000D01*
G75*
G02*
X123125000Y-44175000I0J-250000D01*
G01*
X123125000Y-44925000D01*
G75*
G02*
X122875000Y-45175000I-250000J0D01*
G01*
G37*
G36*
G01*
X122875000Y-47975000D02*
X121625000Y-47975000D01*
G75*
G02*
X121375000Y-47725000I0J250000D01*
G01*
X121375000Y-46975000D01*
G75*
G02*
X121625000Y-46725000I250000J0D01*
G01*
X122875000Y-46725000D01*
G75*
G02*
X123125000Y-46975000I0J-250000D01*
G01*
X123125000Y-47725000D01*
G75*
G02*
X122875000Y-47975000I-250000J0D01*
G01*
G37*
%TD*%
%TO.C,F1*%
G36*
G01*
X112875000Y-45175000D02*
X111625000Y-45175000D01*
G75*
G02*
X111375000Y-44925000I0J250000D01*
G01*
X111375000Y-44175000D01*
G75*
G02*
X111625000Y-43925000I250000J0D01*
G01*
X112875000Y-43925000D01*
G75*
G02*
X113125000Y-44175000I0J-250000D01*
G01*
X113125000Y-44925000D01*
G75*
G02*
X112875000Y-45175000I-250000J0D01*
G01*
G37*
G36*
G01*
X112875000Y-47975000D02*
X111625000Y-47975000D01*
G75*
G02*
X111375000Y-47725000I0J250000D01*
G01*
X111375000Y-46975000D01*
G75*
G02*
X111625000Y-46725000I250000J0D01*
G01*
X112875000Y-46725000D01*
G75*
G02*
X113125000Y-46975000I0J-250000D01*
G01*
X113125000Y-47725000D01*
G75*
G02*
X112875000Y-47975000I-250000J0D01*
G01*
G37*
%TD*%
%TO.C,D6*%
G36*
G01*
X118050000Y-48975000D02*
X118050000Y-50125000D01*
G75*
G02*
X117800000Y-50375000I-250000J0D01*
G01*
X116700000Y-50375000D01*
G75*
G02*
X116450000Y-50125000I0J250000D01*
G01*
X116450000Y-48975000D01*
G75*
G02*
X116700000Y-48725000I250000J0D01*
G01*
X117800000Y-48725000D01*
G75*
G02*
X118050000Y-48975000I0J-250000D01*
G01*
G37*
G36*
G01*
X120900000Y-48975000D02*
X120900000Y-50125000D01*
G75*
G02*
X120650000Y-50375000I-250000J0D01*
G01*
X119550000Y-50375000D01*
G75*
G02*
X119300000Y-50125000I0J250000D01*
G01*
X119300000Y-48975000D01*
G75*
G02*
X119550000Y-48725000I250000J0D01*
G01*
X120650000Y-48725000D01*
G75*
G02*
X120900000Y-48975000I0J-250000D01*
G01*
G37*
%TD*%
%TO.C,D5*%
G36*
G01*
X103050000Y-48975000D02*
X103050000Y-50125000D01*
G75*
G02*
X102800000Y-50375000I-250000J0D01*
G01*
X101700000Y-50375000D01*
G75*
G02*
X101450000Y-50125000I0J250000D01*
G01*
X101450000Y-48975000D01*
G75*
G02*
X101700000Y-48725000I250000J0D01*
G01*
X102800000Y-48725000D01*
G75*
G02*
X103050000Y-48975000I0J-250000D01*
G01*
G37*
G36*
G01*
X105900000Y-48975000D02*
X105900000Y-50125000D01*
G75*
G02*
X105650000Y-50375000I-250000J0D01*
G01*
X104550000Y-50375000D01*
G75*
G02*
X104300000Y-50125000I0J250000D01*
G01*
X104300000Y-48975000D01*
G75*
G02*
X104550000Y-48725000I250000J0D01*
G01*
X105650000Y-48725000D01*
G75*
G02*
X105900000Y-48975000I0J-250000D01*
G01*
G37*
%TD*%
D32*
%TO.C,D4*%
X122250000Y-34700000D03*
X122250000Y-30400000D03*
%TD*%
%TO.C,D3*%
X106250000Y-30550000D03*
X106250000Y-34850000D03*
%TD*%
%TO.C,D2*%
G36*
G01*
X118825000Y-31500000D02*
X117675000Y-31500000D01*
G75*
G02*
X117425000Y-31250000I0J250000D01*
G01*
X117425000Y-30150000D01*
G75*
G02*
X117675000Y-29900000I250000J0D01*
G01*
X118825000Y-29900000D01*
G75*
G02*
X119075000Y-30150000I0J-250000D01*
G01*
X119075000Y-31250000D01*
G75*
G02*
X118825000Y-31500000I-250000J0D01*
G01*
G37*
G36*
G01*
X118825000Y-34350000D02*
X117675000Y-34350000D01*
G75*
G02*
X117425000Y-34100000I0J250000D01*
G01*
X117425000Y-33000000D01*
G75*
G02*
X117675000Y-32750000I250000J0D01*
G01*
X118825000Y-32750000D01*
G75*
G02*
X119075000Y-33000000I0J-250000D01*
G01*
X119075000Y-34100000D01*
G75*
G02*
X118825000Y-34350000I-250000J0D01*
G01*
G37*
%TD*%
%TO.C,D1*%
G36*
G01*
X109675000Y-32750000D02*
X110825000Y-32750000D01*
G75*
G02*
X111075000Y-33000000I0J-250000D01*
G01*
X111075000Y-34100000D01*
G75*
G02*
X110825000Y-34350000I-250000J0D01*
G01*
X109675000Y-34350000D01*
G75*
G02*
X109425000Y-34100000I0J250000D01*
G01*
X109425000Y-33000000D01*
G75*
G02*
X109675000Y-32750000I250000J0D01*
G01*
G37*
G36*
G01*
X109675000Y-29900000D02*
X110825000Y-29900000D01*
G75*
G02*
X111075000Y-30150000I0J-250000D01*
G01*
X111075000Y-31250000D01*
G75*
G02*
X110825000Y-31500000I-250000J0D01*
G01*
X109675000Y-31500000D01*
G75*
G02*
X109425000Y-31250000I0J250000D01*
G01*
X109425000Y-30150000D01*
G75*
G02*
X109675000Y-29900000I250000J0D01*
G01*
G37*
%TD*%
D33*
%TO.C,C2*%
X129250000Y-41550000D03*
D34*
X126750000Y-41550000D03*
%TD*%
D33*
%TO.C,C1*%
X98250000Y-41550000D03*
D34*
X100750000Y-41550000D03*
%TD*%
M02*
