%TF.GenerationSoftware,KiCad,Pcbnew,(5.1.8)-1*%
%TF.CreationDate,2021-09-14T11:30:17-04:00*%
%TF.ProjectId,ModularPreamp,4d6f6475-6c61-4725-9072-65616d702e6b,rev?*%
%TF.SameCoordinates,Original*%
%TF.FileFunction,Soldermask,Bot*%
%TF.FilePolarity,Negative*%
%FSLAX46Y46*%
G04 Gerber Fmt 4.6, Leading zero omitted, Abs format (unit mm)*
G04 Created by KiCad (PCBNEW (5.1.8)-1) date 2021-09-14 11:30:17*
%MOMM*%
%LPD*%
G01*
G04 APERTURE LIST*
%ADD10C,3.000000*%
%ADD11R,3.000000X3.000000*%
%ADD12C,2.600000*%
%ADD13R,2.600000X2.600000*%
%ADD14C,4.300000*%
%ADD15C,7.500000*%
%ADD16O,1.800000X1.800000*%
%ADD17R,1.800000X1.800000*%
%ADD18C,3.810000*%
%ADD19C,3.556000*%
%ADD20O,1.700000X1.700000*%
%ADD21R,1.700000X1.700000*%
%ADD22C,2.400000*%
%ADD23O,1.905000X2.000000*%
%ADD24R,1.905000X2.000000*%
%ADD25R,3.500000X3.500000*%
%ADD26C,1.600000*%
%ADD27R,1.600000X1.600000*%
G04 APERTURE END LIST*
D10*
%TO.C,J25*%
X89600000Y-55360000D03*
X89600000Y-50280000D03*
D11*
X89600000Y-45200000D03*
%TD*%
D12*
%TO.C,J24*%
X182000000Y-25840000D03*
X182000000Y-30920000D03*
D13*
X182000000Y-36000000D03*
%TD*%
D14*
%TO.C,H6*%
X135000000Y-65000000D03*
%TD*%
%TO.C,H5*%
X181000000Y-116000000D03*
%TD*%
%TO.C,H4*%
X103000000Y-24000000D03*
%TD*%
%TO.C,H3*%
X166000000Y-37000000D03*
%TD*%
%TO.C,H2*%
X89000000Y-116000000D03*
%TD*%
D15*
%TO.C,H1*%
X90000000Y-65000000D03*
%TD*%
D16*
%TO.C,D10*%
X115380000Y-56250000D03*
D17*
X123000000Y-56250000D03*
%TD*%
D16*
%TO.C,D9*%
X100130000Y-56250000D03*
D17*
X107750000Y-56250000D03*
%TD*%
D12*
%TO.C,J23*%
X91750000Y-109000000D03*
D13*
X91750000Y-103920000D03*
%TD*%
D18*
%TO.C,J15*%
X170425000Y-29925000D03*
X164075000Y-29925000D03*
X170425000Y-23575000D03*
D19*
X167250000Y-26750000D03*
D18*
X164075000Y-23575000D03*
%TD*%
%TO.C,J14*%
X154425000Y-29925000D03*
X148075000Y-29925000D03*
X154425000Y-23575000D03*
D19*
X151250000Y-26750000D03*
D18*
X148075000Y-23575000D03*
%TD*%
D20*
%TO.C,J19*%
X176940000Y-56750000D03*
X174400000Y-56750000D03*
X171860000Y-56750000D03*
X169320000Y-56750000D03*
X166780000Y-56750000D03*
X164240000Y-56750000D03*
X161700000Y-56750000D03*
X159160000Y-56750000D03*
X156620000Y-56750000D03*
X154080000Y-56750000D03*
X151540000Y-56750000D03*
D21*
X149000000Y-56750000D03*
%TD*%
D20*
%TO.C,J18*%
X177190000Y-88750000D03*
X174650000Y-88750000D03*
X172110000Y-88750000D03*
X169570000Y-88750000D03*
X167030000Y-88750000D03*
X164490000Y-88750000D03*
X161950000Y-88750000D03*
X159410000Y-88750000D03*
X156870000Y-88750000D03*
X154330000Y-88750000D03*
X151790000Y-88750000D03*
D21*
X149250000Y-88750000D03*
%TD*%
D20*
%TO.C,J22*%
X176940000Y-115000000D03*
X174400000Y-115000000D03*
X171860000Y-115000000D03*
X169320000Y-115000000D03*
X166780000Y-115000000D03*
X164240000Y-115000000D03*
X161700000Y-115000000D03*
X159160000Y-115000000D03*
X156620000Y-115000000D03*
X154080000Y-115000000D03*
X151540000Y-115000000D03*
D21*
X149000000Y-115000000D03*
%TD*%
D20*
%TO.C,J21*%
X156620000Y-42750000D03*
X154080000Y-42750000D03*
X151540000Y-42750000D03*
D21*
X149000000Y-42750000D03*
%TD*%
D20*
%TO.C,J20*%
X141750000Y-30370000D03*
X141750000Y-27830000D03*
X141750000Y-25290000D03*
D21*
X141750000Y-22750000D03*
%TD*%
D20*
%TO.C,J17*%
X145000000Y-70940000D03*
X145000000Y-68400000D03*
X145000000Y-65860000D03*
X145000000Y-63320000D03*
X145000000Y-60780000D03*
X145000000Y-58240000D03*
X145000000Y-55700000D03*
X145000000Y-53160000D03*
X145000000Y-50620000D03*
X145000000Y-48080000D03*
X145000000Y-45540000D03*
D21*
X145000000Y-43000000D03*
%TD*%
D20*
%TO.C,J16*%
X181500000Y-71440000D03*
X181500000Y-68900000D03*
X181500000Y-66360000D03*
X181500000Y-63820000D03*
X181500000Y-61280000D03*
X181500000Y-58740000D03*
X181500000Y-56200000D03*
X181500000Y-53660000D03*
X181500000Y-51120000D03*
X181500000Y-48580000D03*
X181500000Y-46040000D03*
D21*
X181500000Y-43500000D03*
%TD*%
D22*
%TO.C,L1*%
X158300000Y-64250000D03*
X158300000Y-61250000D03*
%TD*%
D20*
%TO.C,J13*%
X102500000Y-87620000D03*
X102500000Y-85080000D03*
X102500000Y-82540000D03*
D21*
X102500000Y-80000000D03*
%TD*%
D20*
%TO.C,J12*%
X102500000Y-110120000D03*
X102500000Y-107580000D03*
X102500000Y-105040000D03*
D21*
X102500000Y-102500000D03*
%TD*%
D20*
%TO.C,J5*%
X102500000Y-92460000D03*
X102500000Y-95000000D03*
D21*
X102500000Y-97540000D03*
%TD*%
D20*
%TO.C,J7*%
X145000000Y-110240000D03*
X145000000Y-107700000D03*
X145000000Y-105160000D03*
X145000000Y-102620000D03*
X145000000Y-100080000D03*
X145000000Y-97540000D03*
X145000000Y-95000000D03*
X145000000Y-92460000D03*
X145000000Y-89920000D03*
X145000000Y-87380000D03*
X145000000Y-84840000D03*
X145000000Y-82300000D03*
D21*
X145000000Y-79760000D03*
%TD*%
D20*
%TO.C,J11*%
X145120000Y-75000000D03*
X142580000Y-75000000D03*
X140040000Y-75000000D03*
D21*
X137500000Y-75000000D03*
%TD*%
D20*
%TO.C,J10*%
X145120000Y-115000000D03*
X142580000Y-115000000D03*
X140040000Y-115000000D03*
D21*
X137500000Y-115000000D03*
%TD*%
D20*
%TO.C,J9*%
X181250000Y-111240000D03*
X181250000Y-108700000D03*
X181250000Y-106160000D03*
X181250000Y-103620000D03*
X181250000Y-101080000D03*
X181250000Y-98540000D03*
X181250000Y-96000000D03*
X181250000Y-93460000D03*
X181250000Y-90920000D03*
X181250000Y-88380000D03*
X181250000Y-85840000D03*
D21*
X181250000Y-83300000D03*
%TD*%
D20*
%TO.C,J8*%
X132940000Y-115000000D03*
X130400000Y-115000000D03*
X127860000Y-115000000D03*
X125320000Y-115000000D03*
X122780000Y-115000000D03*
X120240000Y-115000000D03*
X117700000Y-115000000D03*
X115160000Y-115000000D03*
X112620000Y-115000000D03*
X110080000Y-115000000D03*
X107540000Y-115000000D03*
D21*
X105000000Y-115000000D03*
%TD*%
D20*
%TO.C,J6*%
X132940000Y-75000000D03*
X130400000Y-75000000D03*
X127860000Y-75000000D03*
X125320000Y-75000000D03*
X122780000Y-75000000D03*
X120240000Y-75000000D03*
X117700000Y-75000000D03*
X115160000Y-75000000D03*
X112620000Y-75000000D03*
X110080000Y-75000000D03*
X107540000Y-75000000D03*
D21*
X105000000Y-75000000D03*
%TD*%
D18*
%TO.C,J4*%
X88825000Y-98175000D03*
X88825000Y-91825000D03*
X95175000Y-98175000D03*
D19*
X92000000Y-95000000D03*
D18*
X95175000Y-91825000D03*
%TD*%
D23*
%TO.C,U3*%
X122250000Y-41550000D03*
X119710000Y-41550000D03*
D24*
X117170000Y-41550000D03*
%TD*%
D23*
%TO.C,U2*%
X111250000Y-41550000D03*
X108710000Y-41550000D03*
D24*
X106170000Y-41550000D03*
%TD*%
D10*
%TO.C,J3*%
X109170000Y-22550000D03*
X114250000Y-22550000D03*
D11*
X119330000Y-22550000D03*
%TD*%
%TO.C,J2*%
G36*
G01*
X128375000Y-26800000D02*
X130125000Y-26800000D01*
G75*
G02*
X131000000Y-27675000I0J-875000D01*
G01*
X131000000Y-29425000D01*
G75*
G02*
X130125000Y-30300000I-875000J0D01*
G01*
X128375000Y-30300000D01*
G75*
G02*
X127500000Y-29425000I0J875000D01*
G01*
X127500000Y-27675000D01*
G75*
G02*
X128375000Y-26800000I875000J0D01*
G01*
G37*
G36*
G01*
X132950000Y-24050000D02*
X134950000Y-24050000D01*
G75*
G02*
X135700000Y-24800000I0J-750000D01*
G01*
X135700000Y-26300000D01*
G75*
G02*
X134950000Y-27050000I-750000J0D01*
G01*
X132950000Y-27050000D01*
G75*
G02*
X132200000Y-26300000I0J750000D01*
G01*
X132200000Y-24800000D01*
G75*
G02*
X132950000Y-24050000I750000J0D01*
G01*
G37*
D25*
X133950000Y-31550000D03*
%TD*%
%TO.C,J1*%
G36*
G01*
X89375000Y-25800000D02*
X91125000Y-25800000D01*
G75*
G02*
X92000000Y-26675000I0J-875000D01*
G01*
X92000000Y-28425000D01*
G75*
G02*
X91125000Y-29300000I-875000J0D01*
G01*
X89375000Y-29300000D01*
G75*
G02*
X88500000Y-28425000I0J875000D01*
G01*
X88500000Y-26675000D01*
G75*
G02*
X89375000Y-25800000I875000J0D01*
G01*
G37*
G36*
G01*
X93950000Y-23050000D02*
X95950000Y-23050000D01*
G75*
G02*
X96700000Y-23800000I0J-750000D01*
G01*
X96700000Y-25300000D01*
G75*
G02*
X95950000Y-26050000I-750000J0D01*
G01*
X93950000Y-26050000D01*
G75*
G02*
X93200000Y-25300000I0J750000D01*
G01*
X93200000Y-23800000D01*
G75*
G02*
X93950000Y-23050000I750000J0D01*
G01*
G37*
X94950000Y-30550000D03*
%TD*%
D26*
%TO.C,C2*%
X129250000Y-41550000D03*
D27*
X126750000Y-41550000D03*
%TD*%
D26*
%TO.C,C1*%
X98250000Y-41550000D03*
D27*
X100750000Y-41550000D03*
%TD*%
M02*
