%TF.GenerationSoftware,KiCad,Pcbnew,(5.1.9)-1*%
%TF.CreationDate,2021-10-14T16:08:06-04:00*%
%TF.ProjectId,ModularPreamp-ParallelInputs,4d6f6475-6c61-4725-9072-65616d702d50,rev?*%
%TF.SameCoordinates,Original*%
%TF.FileFunction,Soldermask,Top*%
%TF.FilePolarity,Negative*%
%FSLAX46Y46*%
G04 Gerber Fmt 4.6, Leading zero omitted, Abs format (unit mm)*
G04 Created by KiCad (PCBNEW (5.1.9)-1) date 2021-10-14 16:08:06*
%MOMM*%
%LPD*%
G01*
G04 APERTURE LIST*
%ADD10R,2.500000X2.300000*%
%ADD11O,1.700000X1.700000*%
%ADD12R,1.700000X1.700000*%
%ADD13R,0.900000X0.800000*%
%ADD14C,0.100000*%
G04 APERTURE END LIST*
%TO.C,R2*%
G36*
G01*
X135400000Y-111950002D02*
X135400000Y-111049998D01*
G75*
G02*
X135649998Y-110800000I249998J0D01*
G01*
X136175002Y-110800000D01*
G75*
G02*
X136425000Y-111049998I0J-249998D01*
G01*
X136425000Y-111950002D01*
G75*
G02*
X136175002Y-112200000I-249998J0D01*
G01*
X135649998Y-112200000D01*
G75*
G02*
X135400000Y-111950002I0J249998D01*
G01*
G37*
G36*
G01*
X133575000Y-111950002D02*
X133575000Y-111049998D01*
G75*
G02*
X133824998Y-110800000I249998J0D01*
G01*
X134350002Y-110800000D01*
G75*
G02*
X134600000Y-111049998I0J-249998D01*
G01*
X134600000Y-111950002D01*
G75*
G02*
X134350002Y-112200000I-249998J0D01*
G01*
X133824998Y-112200000D01*
G75*
G02*
X133575000Y-111950002I0J249998D01*
G01*
G37*
%TD*%
%TO.C,R1*%
G36*
G01*
X135900000Y-78950002D02*
X135900000Y-78049998D01*
G75*
G02*
X136149998Y-77800000I249998J0D01*
G01*
X136675002Y-77800000D01*
G75*
G02*
X136925000Y-78049998I0J-249998D01*
G01*
X136925000Y-78950002D01*
G75*
G02*
X136675002Y-79200000I-249998J0D01*
G01*
X136149998Y-79200000D01*
G75*
G02*
X135900000Y-78950002I0J249998D01*
G01*
G37*
G36*
G01*
X134075000Y-78950002D02*
X134075000Y-78049998D01*
G75*
G02*
X134324998Y-77800000I249998J0D01*
G01*
X134850002Y-77800000D01*
G75*
G02*
X135100000Y-78049998I0J-249998D01*
G01*
X135100000Y-78950002D01*
G75*
G02*
X134850002Y-79200000I-249998J0D01*
G01*
X134324998Y-79200000D01*
G75*
G02*
X134075000Y-78950002I0J249998D01*
G01*
G37*
%TD*%
%TO.C,D4*%
G36*
G01*
X130700000Y-112075000D02*
X130700000Y-110925000D01*
G75*
G02*
X130950000Y-110675000I250000J0D01*
G01*
X132050000Y-110675000D01*
G75*
G02*
X132300000Y-110925000I0J-250000D01*
G01*
X132300000Y-112075000D01*
G75*
G02*
X132050000Y-112325000I-250000J0D01*
G01*
X130950000Y-112325000D01*
G75*
G02*
X130700000Y-112075000I0J250000D01*
G01*
G37*
G36*
G01*
X127850000Y-112075000D02*
X127850000Y-110925000D01*
G75*
G02*
X128100000Y-110675000I250000J0D01*
G01*
X129200000Y-110675000D01*
G75*
G02*
X129450000Y-110925000I0J-250000D01*
G01*
X129450000Y-112075000D01*
G75*
G02*
X129200000Y-112325000I-250000J0D01*
G01*
X128100000Y-112325000D01*
G75*
G02*
X127850000Y-112075000I0J250000D01*
G01*
G37*
%TD*%
%TO.C,D3*%
G36*
G01*
X129800000Y-77925000D02*
X129800000Y-79075000D01*
G75*
G02*
X129550000Y-79325000I-250000J0D01*
G01*
X128450000Y-79325000D01*
G75*
G02*
X128200000Y-79075000I0J250000D01*
G01*
X128200000Y-77925000D01*
G75*
G02*
X128450000Y-77675000I250000J0D01*
G01*
X129550000Y-77675000D01*
G75*
G02*
X129800000Y-77925000I0J-250000D01*
G01*
G37*
G36*
G01*
X132650000Y-77925000D02*
X132650000Y-79075000D01*
G75*
G02*
X132400000Y-79325000I-250000J0D01*
G01*
X131300000Y-79325000D01*
G75*
G02*
X131050000Y-79075000I0J250000D01*
G01*
X131050000Y-77925000D01*
G75*
G02*
X131300000Y-77675000I250000J0D01*
G01*
X132400000Y-77675000D01*
G75*
G02*
X132650000Y-77925000I0J-250000D01*
G01*
G37*
%TD*%
D10*
%TO.C,D2*%
X124500000Y-111000000D03*
X120200000Y-111000000D03*
%TD*%
%TO.C,D1*%
X124500000Y-79500000D03*
X120200000Y-79500000D03*
%TD*%
%TO.C,C23*%
G36*
G01*
X110975000Y-78500000D02*
X110025000Y-78500000D01*
G75*
G02*
X109775000Y-78250000I0J250000D01*
G01*
X109775000Y-77750000D01*
G75*
G02*
X110025000Y-77500000I250000J0D01*
G01*
X110975000Y-77500000D01*
G75*
G02*
X111225000Y-77750000I0J-250000D01*
G01*
X111225000Y-78250000D01*
G75*
G02*
X110975000Y-78500000I-250000J0D01*
G01*
G37*
G36*
G01*
X110975000Y-80400000D02*
X110025000Y-80400000D01*
G75*
G02*
X109775000Y-80150000I0J250000D01*
G01*
X109775000Y-79650000D01*
G75*
G02*
X110025000Y-79400000I250000J0D01*
G01*
X110975000Y-79400000D01*
G75*
G02*
X111225000Y-79650000I0J-250000D01*
G01*
X111225000Y-80150000D01*
G75*
G02*
X110975000Y-80400000I-250000J0D01*
G01*
G37*
%TD*%
%TO.C,C22*%
G36*
G01*
X107975000Y-78500000D02*
X107025000Y-78500000D01*
G75*
G02*
X106775000Y-78250000I0J250000D01*
G01*
X106775000Y-77750000D01*
G75*
G02*
X107025000Y-77500000I250000J0D01*
G01*
X107975000Y-77500000D01*
G75*
G02*
X108225000Y-77750000I0J-250000D01*
G01*
X108225000Y-78250000D01*
G75*
G02*
X107975000Y-78500000I-250000J0D01*
G01*
G37*
G36*
G01*
X107975000Y-80400000D02*
X107025000Y-80400000D01*
G75*
G02*
X106775000Y-80150000I0J250000D01*
G01*
X106775000Y-79650000D01*
G75*
G02*
X107025000Y-79400000I250000J0D01*
G01*
X107975000Y-79400000D01*
G75*
G02*
X108225000Y-79650000I0J-250000D01*
G01*
X108225000Y-80150000D01*
G75*
G02*
X107975000Y-80400000I-250000J0D01*
G01*
G37*
%TD*%
D11*
%TO.C,J5*%
X102500000Y-97580000D03*
X102500000Y-95040000D03*
D12*
X102500000Y-92500000D03*
%TD*%
D13*
%TO.C,D11*%
X108000000Y-109000000D03*
X106000000Y-109950000D03*
X106000000Y-108050000D03*
%TD*%
D14*
%TO.C,JP7*%
G36*
X142100000Y-92650602D02*
G01*
X142124534Y-92650602D01*
X142173365Y-92655412D01*
X142221490Y-92664984D01*
X142268445Y-92679228D01*
X142313778Y-92698005D01*
X142357051Y-92721136D01*
X142397850Y-92748396D01*
X142435779Y-92779524D01*
X142470476Y-92814221D01*
X142501604Y-92852150D01*
X142528864Y-92892949D01*
X142551995Y-92936222D01*
X142570772Y-92981555D01*
X142585016Y-93028510D01*
X142594588Y-93076635D01*
X142599398Y-93125466D01*
X142599398Y-93150000D01*
X142600000Y-93150000D01*
X142600000Y-93650000D01*
X142599398Y-93650000D01*
X142599398Y-93674534D01*
X142594588Y-93723365D01*
X142585016Y-93771490D01*
X142570772Y-93818445D01*
X142551995Y-93863778D01*
X142528864Y-93907051D01*
X142501604Y-93947850D01*
X142470476Y-93985779D01*
X142435779Y-94020476D01*
X142397850Y-94051604D01*
X142357051Y-94078864D01*
X142313778Y-94101995D01*
X142268445Y-94120772D01*
X142221490Y-94135016D01*
X142173365Y-94144588D01*
X142124534Y-94149398D01*
X142100000Y-94149398D01*
X142100000Y-94150000D01*
X141600000Y-94150000D01*
X141600000Y-92650000D01*
X142100000Y-92650000D01*
X142100000Y-92650602D01*
G37*
G36*
X141300000Y-94150000D02*
G01*
X140800000Y-94150000D01*
X140800000Y-94149398D01*
X140775466Y-94149398D01*
X140726635Y-94144588D01*
X140678510Y-94135016D01*
X140631555Y-94120772D01*
X140586222Y-94101995D01*
X140542949Y-94078864D01*
X140502150Y-94051604D01*
X140464221Y-94020476D01*
X140429524Y-93985779D01*
X140398396Y-93947850D01*
X140371136Y-93907051D01*
X140348005Y-93863778D01*
X140329228Y-93818445D01*
X140314984Y-93771490D01*
X140305412Y-93723365D01*
X140300602Y-93674534D01*
X140300602Y-93650000D01*
X140300000Y-93650000D01*
X140300000Y-93150000D01*
X140300602Y-93150000D01*
X140300602Y-93125466D01*
X140305412Y-93076635D01*
X140314984Y-93028510D01*
X140329228Y-92981555D01*
X140348005Y-92936222D01*
X140371136Y-92892949D01*
X140398396Y-92852150D01*
X140429524Y-92814221D01*
X140464221Y-92779524D01*
X140502150Y-92748396D01*
X140542949Y-92721136D01*
X140586222Y-92698005D01*
X140631555Y-92679228D01*
X140678510Y-92664984D01*
X140726635Y-92655412D01*
X140775466Y-92650602D01*
X140800000Y-92650602D01*
X140800000Y-92650000D01*
X141300000Y-92650000D01*
X141300000Y-94150000D01*
G37*
%TD*%
%TO.C,JP5*%
G36*
X142050000Y-100450602D02*
G01*
X142074534Y-100450602D01*
X142123365Y-100455412D01*
X142171490Y-100464984D01*
X142218445Y-100479228D01*
X142263778Y-100498005D01*
X142307051Y-100521136D01*
X142347850Y-100548396D01*
X142385779Y-100579524D01*
X142420476Y-100614221D01*
X142451604Y-100652150D01*
X142478864Y-100692949D01*
X142501995Y-100736222D01*
X142520772Y-100781555D01*
X142535016Y-100828510D01*
X142544588Y-100876635D01*
X142549398Y-100925466D01*
X142549398Y-100950000D01*
X142550000Y-100950000D01*
X142550000Y-101450000D01*
X142549398Y-101450000D01*
X142549398Y-101474534D01*
X142544588Y-101523365D01*
X142535016Y-101571490D01*
X142520772Y-101618445D01*
X142501995Y-101663778D01*
X142478864Y-101707051D01*
X142451604Y-101747850D01*
X142420476Y-101785779D01*
X142385779Y-101820476D01*
X142347850Y-101851604D01*
X142307051Y-101878864D01*
X142263778Y-101901995D01*
X142218445Y-101920772D01*
X142171490Y-101935016D01*
X142123365Y-101944588D01*
X142074534Y-101949398D01*
X142050000Y-101949398D01*
X142050000Y-101950000D01*
X141550000Y-101950000D01*
X141550000Y-100450000D01*
X142050000Y-100450000D01*
X142050000Y-100450602D01*
G37*
G36*
X141250000Y-101950000D02*
G01*
X140750000Y-101950000D01*
X140750000Y-101949398D01*
X140725466Y-101949398D01*
X140676635Y-101944588D01*
X140628510Y-101935016D01*
X140581555Y-101920772D01*
X140536222Y-101901995D01*
X140492949Y-101878864D01*
X140452150Y-101851604D01*
X140414221Y-101820476D01*
X140379524Y-101785779D01*
X140348396Y-101747850D01*
X140321136Y-101707051D01*
X140298005Y-101663778D01*
X140279228Y-101618445D01*
X140264984Y-101571490D01*
X140255412Y-101523365D01*
X140250602Y-101474534D01*
X140250602Y-101450000D01*
X140250000Y-101450000D01*
X140250000Y-100950000D01*
X140250602Y-100950000D01*
X140250602Y-100925466D01*
X140255412Y-100876635D01*
X140264984Y-100828510D01*
X140279228Y-100781555D01*
X140298005Y-100736222D01*
X140321136Y-100692949D01*
X140348396Y-100652150D01*
X140379524Y-100614221D01*
X140414221Y-100579524D01*
X140452150Y-100548396D01*
X140492949Y-100521136D01*
X140536222Y-100498005D01*
X140581555Y-100479228D01*
X140628510Y-100464984D01*
X140676635Y-100455412D01*
X140725466Y-100450602D01*
X140750000Y-100450602D01*
X140750000Y-100450000D01*
X141250000Y-100450000D01*
X141250000Y-101950000D01*
G37*
%TD*%
%TO.C,JP4*%
G36*
X142100000Y-95850602D02*
G01*
X142124534Y-95850602D01*
X142173365Y-95855412D01*
X142221490Y-95864984D01*
X142268445Y-95879228D01*
X142313778Y-95898005D01*
X142357051Y-95921136D01*
X142397850Y-95948396D01*
X142435779Y-95979524D01*
X142470476Y-96014221D01*
X142501604Y-96052150D01*
X142528864Y-96092949D01*
X142551995Y-96136222D01*
X142570772Y-96181555D01*
X142585016Y-96228510D01*
X142594588Y-96276635D01*
X142599398Y-96325466D01*
X142599398Y-96350000D01*
X142600000Y-96350000D01*
X142600000Y-96850000D01*
X142599398Y-96850000D01*
X142599398Y-96874534D01*
X142594588Y-96923365D01*
X142585016Y-96971490D01*
X142570772Y-97018445D01*
X142551995Y-97063778D01*
X142528864Y-97107051D01*
X142501604Y-97147850D01*
X142470476Y-97185779D01*
X142435779Y-97220476D01*
X142397850Y-97251604D01*
X142357051Y-97278864D01*
X142313778Y-97301995D01*
X142268445Y-97320772D01*
X142221490Y-97335016D01*
X142173365Y-97344588D01*
X142124534Y-97349398D01*
X142100000Y-97349398D01*
X142100000Y-97350000D01*
X141600000Y-97350000D01*
X141600000Y-95850000D01*
X142100000Y-95850000D01*
X142100000Y-95850602D01*
G37*
G36*
X141300000Y-97350000D02*
G01*
X140800000Y-97350000D01*
X140800000Y-97349398D01*
X140775466Y-97349398D01*
X140726635Y-97344588D01*
X140678510Y-97335016D01*
X140631555Y-97320772D01*
X140586222Y-97301995D01*
X140542949Y-97278864D01*
X140502150Y-97251604D01*
X140464221Y-97220476D01*
X140429524Y-97185779D01*
X140398396Y-97147850D01*
X140371136Y-97107051D01*
X140348005Y-97063778D01*
X140329228Y-97018445D01*
X140314984Y-96971490D01*
X140305412Y-96923365D01*
X140300602Y-96874534D01*
X140300602Y-96850000D01*
X140300000Y-96850000D01*
X140300000Y-96350000D01*
X140300602Y-96350000D01*
X140300602Y-96325466D01*
X140305412Y-96276635D01*
X140314984Y-96228510D01*
X140329228Y-96181555D01*
X140348005Y-96136222D01*
X140371136Y-96092949D01*
X140398396Y-96052150D01*
X140429524Y-96014221D01*
X140464221Y-95979524D01*
X140502150Y-95948396D01*
X140542949Y-95921136D01*
X140586222Y-95898005D01*
X140631555Y-95879228D01*
X140678510Y-95864984D01*
X140726635Y-95855412D01*
X140775466Y-95850602D01*
X140800000Y-95850602D01*
X140800000Y-95850000D01*
X141300000Y-95850000D01*
X141300000Y-97350000D01*
G37*
%TD*%
%TO.C,JP3*%
G36*
X142100000Y-88050602D02*
G01*
X142124534Y-88050602D01*
X142173365Y-88055412D01*
X142221490Y-88064984D01*
X142268445Y-88079228D01*
X142313778Y-88098005D01*
X142357051Y-88121136D01*
X142397850Y-88148396D01*
X142435779Y-88179524D01*
X142470476Y-88214221D01*
X142501604Y-88252150D01*
X142528864Y-88292949D01*
X142551995Y-88336222D01*
X142570772Y-88381555D01*
X142585016Y-88428510D01*
X142594588Y-88476635D01*
X142599398Y-88525466D01*
X142599398Y-88550000D01*
X142600000Y-88550000D01*
X142600000Y-89050000D01*
X142599398Y-89050000D01*
X142599398Y-89074534D01*
X142594588Y-89123365D01*
X142585016Y-89171490D01*
X142570772Y-89218445D01*
X142551995Y-89263778D01*
X142528864Y-89307051D01*
X142501604Y-89347850D01*
X142470476Y-89385779D01*
X142435779Y-89420476D01*
X142397850Y-89451604D01*
X142357051Y-89478864D01*
X142313778Y-89501995D01*
X142268445Y-89520772D01*
X142221490Y-89535016D01*
X142173365Y-89544588D01*
X142124534Y-89549398D01*
X142100000Y-89549398D01*
X142100000Y-89550000D01*
X141600000Y-89550000D01*
X141600000Y-88050000D01*
X142100000Y-88050000D01*
X142100000Y-88050602D01*
G37*
G36*
X141300000Y-89550000D02*
G01*
X140800000Y-89550000D01*
X140800000Y-89549398D01*
X140775466Y-89549398D01*
X140726635Y-89544588D01*
X140678510Y-89535016D01*
X140631555Y-89520772D01*
X140586222Y-89501995D01*
X140542949Y-89478864D01*
X140502150Y-89451604D01*
X140464221Y-89420476D01*
X140429524Y-89385779D01*
X140398396Y-89347850D01*
X140371136Y-89307051D01*
X140348005Y-89263778D01*
X140329228Y-89218445D01*
X140314984Y-89171490D01*
X140305412Y-89123365D01*
X140300602Y-89074534D01*
X140300602Y-89050000D01*
X140300000Y-89050000D01*
X140300000Y-88550000D01*
X140300602Y-88550000D01*
X140300602Y-88525466D01*
X140305412Y-88476635D01*
X140314984Y-88428510D01*
X140329228Y-88381555D01*
X140348005Y-88336222D01*
X140371136Y-88292949D01*
X140398396Y-88252150D01*
X140429524Y-88214221D01*
X140464221Y-88179524D01*
X140502150Y-88148396D01*
X140542949Y-88121136D01*
X140586222Y-88098005D01*
X140631555Y-88079228D01*
X140678510Y-88064984D01*
X140726635Y-88055412D01*
X140775466Y-88050602D01*
X140800000Y-88050602D01*
X140800000Y-88050000D01*
X141300000Y-88050000D01*
X141300000Y-89550000D01*
G37*
%TD*%
D11*
%TO.C,J13*%
X102500000Y-87620000D03*
X102500000Y-85080000D03*
X102500000Y-82540000D03*
D12*
X102500000Y-80000000D03*
%TD*%
D11*
%TO.C,J12*%
X102500000Y-110120000D03*
X102500000Y-107580000D03*
X102500000Y-105040000D03*
D12*
X102500000Y-102500000D03*
%TD*%
D11*
%TO.C,J7*%
X145000000Y-110240000D03*
X145000000Y-107700000D03*
X145000000Y-105160000D03*
X145000000Y-102620000D03*
X145000000Y-100080000D03*
X145000000Y-97540000D03*
X145000000Y-95000000D03*
X145000000Y-92460000D03*
X145000000Y-89920000D03*
X145000000Y-87380000D03*
X145000000Y-84840000D03*
X145000000Y-82300000D03*
D12*
X145000000Y-79760000D03*
%TD*%
D11*
%TO.C,J11*%
X145120000Y-75000000D03*
X142580000Y-75000000D03*
X140040000Y-75000000D03*
D12*
X137500000Y-75000000D03*
%TD*%
D11*
%TO.C,J10*%
X145120000Y-115000000D03*
X142580000Y-115000000D03*
X140040000Y-115000000D03*
D12*
X137500000Y-115000000D03*
%TD*%
D11*
%TO.C,J8*%
X132940000Y-115000000D03*
X130400000Y-115000000D03*
X127860000Y-115000000D03*
X125320000Y-115000000D03*
X122780000Y-115000000D03*
X120240000Y-115000000D03*
X117700000Y-115000000D03*
X115160000Y-115000000D03*
X112620000Y-115000000D03*
X110080000Y-115000000D03*
X107540000Y-115000000D03*
D12*
X105000000Y-115000000D03*
%TD*%
D11*
%TO.C,J6*%
X132940000Y-75000000D03*
X130400000Y-75000000D03*
X127860000Y-75000000D03*
X125320000Y-75000000D03*
X122780000Y-75000000D03*
X120240000Y-75000000D03*
X117700000Y-75000000D03*
X115160000Y-75000000D03*
X112620000Y-75000000D03*
X110080000Y-75000000D03*
X107540000Y-75000000D03*
D12*
X105000000Y-75000000D03*
%TD*%
%TO.C,C8*%
G36*
G01*
X114292500Y-101775000D02*
X114292500Y-102725000D01*
G75*
G02*
X114042500Y-102975000I-250000J0D01*
G01*
X113542500Y-102975000D01*
G75*
G02*
X113292500Y-102725000I0J250000D01*
G01*
X113292500Y-101775000D01*
G75*
G02*
X113542500Y-101525000I250000J0D01*
G01*
X114042500Y-101525000D01*
G75*
G02*
X114292500Y-101775000I0J-250000D01*
G01*
G37*
G36*
G01*
X116192500Y-101775000D02*
X116192500Y-102725000D01*
G75*
G02*
X115942500Y-102975000I-250000J0D01*
G01*
X115442500Y-102975000D01*
G75*
G02*
X115192500Y-102725000I0J250000D01*
G01*
X115192500Y-101775000D01*
G75*
G02*
X115442500Y-101525000I250000J0D01*
G01*
X115942500Y-101525000D01*
G75*
G02*
X116192500Y-101775000I0J-250000D01*
G01*
G37*
%TD*%
%TO.C,C4*%
G36*
G01*
X123875000Y-92250000D02*
X124825000Y-92250000D01*
G75*
G02*
X125075000Y-92500000I0J-250000D01*
G01*
X125075000Y-93000000D01*
G75*
G02*
X124825000Y-93250000I-250000J0D01*
G01*
X123875000Y-93250000D01*
G75*
G02*
X123625000Y-93000000I0J250000D01*
G01*
X123625000Y-92500000D01*
G75*
G02*
X123875000Y-92250000I250000J0D01*
G01*
G37*
G36*
G01*
X123875000Y-90350000D02*
X124825000Y-90350000D01*
G75*
G02*
X125075000Y-90600000I0J-250000D01*
G01*
X125075000Y-91100000D01*
G75*
G02*
X124825000Y-91350000I-250000J0D01*
G01*
X123875000Y-91350000D01*
G75*
G02*
X123625000Y-91100000I0J250000D01*
G01*
X123625000Y-90600000D01*
G75*
G02*
X123875000Y-90350000I250000J0D01*
G01*
G37*
%TD*%
%TO.C,C20*%
G36*
G01*
X132875000Y-88275000D02*
X132875000Y-89225000D01*
G75*
G02*
X132625000Y-89475000I-250000J0D01*
G01*
X132125000Y-89475000D01*
G75*
G02*
X131875000Y-89225000I0J250000D01*
G01*
X131875000Y-88275000D01*
G75*
G02*
X132125000Y-88025000I250000J0D01*
G01*
X132625000Y-88025000D01*
G75*
G02*
X132875000Y-88275000I0J-250000D01*
G01*
G37*
G36*
G01*
X134775000Y-88275000D02*
X134775000Y-89225000D01*
G75*
G02*
X134525000Y-89475000I-250000J0D01*
G01*
X134025000Y-89475000D01*
G75*
G02*
X133775000Y-89225000I0J250000D01*
G01*
X133775000Y-88275000D01*
G75*
G02*
X134025000Y-88025000I250000J0D01*
G01*
X134525000Y-88025000D01*
G75*
G02*
X134775000Y-88275000I0J-250000D01*
G01*
G37*
%TD*%
%TO.C,C19*%
G36*
G01*
X132875000Y-100775000D02*
X132875000Y-101725000D01*
G75*
G02*
X132625000Y-101975000I-250000J0D01*
G01*
X132125000Y-101975000D01*
G75*
G02*
X131875000Y-101725000I0J250000D01*
G01*
X131875000Y-100775000D01*
G75*
G02*
X132125000Y-100525000I250000J0D01*
G01*
X132625000Y-100525000D01*
G75*
G02*
X132875000Y-100775000I0J-250000D01*
G01*
G37*
G36*
G01*
X134775000Y-100775000D02*
X134775000Y-101725000D01*
G75*
G02*
X134525000Y-101975000I-250000J0D01*
G01*
X134025000Y-101975000D01*
G75*
G02*
X133775000Y-101725000I0J250000D01*
G01*
X133775000Y-100775000D01*
G75*
G02*
X134025000Y-100525000I250000J0D01*
G01*
X134525000Y-100525000D01*
G75*
G02*
X134775000Y-100775000I0J-250000D01*
G01*
G37*
%TD*%
%TO.C,C18*%
G36*
G01*
X132875000Y-95775000D02*
X132875000Y-96725000D01*
G75*
G02*
X132625000Y-96975000I-250000J0D01*
G01*
X132125000Y-96975000D01*
G75*
G02*
X131875000Y-96725000I0J250000D01*
G01*
X131875000Y-95775000D01*
G75*
G02*
X132125000Y-95525000I250000J0D01*
G01*
X132625000Y-95525000D01*
G75*
G02*
X132875000Y-95775000I0J-250000D01*
G01*
G37*
G36*
G01*
X134775000Y-95775000D02*
X134775000Y-96725000D01*
G75*
G02*
X134525000Y-96975000I-250000J0D01*
G01*
X134025000Y-96975000D01*
G75*
G02*
X133775000Y-96725000I0J250000D01*
G01*
X133775000Y-95775000D01*
G75*
G02*
X134025000Y-95525000I250000J0D01*
G01*
X134525000Y-95525000D01*
G75*
G02*
X134775000Y-95775000I0J-250000D01*
G01*
G37*
%TD*%
%TO.C,C17*%
G36*
G01*
X132875000Y-93275000D02*
X132875000Y-94225000D01*
G75*
G02*
X132625000Y-94475000I-250000J0D01*
G01*
X132125000Y-94475000D01*
G75*
G02*
X131875000Y-94225000I0J250000D01*
G01*
X131875000Y-93275000D01*
G75*
G02*
X132125000Y-93025000I250000J0D01*
G01*
X132625000Y-93025000D01*
G75*
G02*
X132875000Y-93275000I0J-250000D01*
G01*
G37*
G36*
G01*
X134775000Y-93275000D02*
X134775000Y-94225000D01*
G75*
G02*
X134525000Y-94475000I-250000J0D01*
G01*
X134025000Y-94475000D01*
G75*
G02*
X133775000Y-94225000I0J250000D01*
G01*
X133775000Y-93275000D01*
G75*
G02*
X134025000Y-93025000I250000J0D01*
G01*
X134525000Y-93025000D01*
G75*
G02*
X134775000Y-93275000I0J-250000D01*
G01*
G37*
%TD*%
%TO.C,C16*%
G36*
G01*
X118825000Y-100250000D02*
X117875000Y-100250000D01*
G75*
G02*
X117625000Y-100000000I0J250000D01*
G01*
X117625000Y-99500000D01*
G75*
G02*
X117875000Y-99250000I250000J0D01*
G01*
X118825000Y-99250000D01*
G75*
G02*
X119075000Y-99500000I0J-250000D01*
G01*
X119075000Y-100000000D01*
G75*
G02*
X118825000Y-100250000I-250000J0D01*
G01*
G37*
G36*
G01*
X118825000Y-102150000D02*
X117875000Y-102150000D01*
G75*
G02*
X117625000Y-101900000I0J250000D01*
G01*
X117625000Y-101400000D01*
G75*
G02*
X117875000Y-101150000I250000J0D01*
G01*
X118825000Y-101150000D01*
G75*
G02*
X119075000Y-101400000I0J-250000D01*
G01*
X119075000Y-101900000D01*
G75*
G02*
X118825000Y-102150000I-250000J0D01*
G01*
G37*
%TD*%
%TO.C,C15*%
G36*
G01*
X117875000Y-89250000D02*
X118825000Y-89250000D01*
G75*
G02*
X119075000Y-89500000I0J-250000D01*
G01*
X119075000Y-90000000D01*
G75*
G02*
X118825000Y-90250000I-250000J0D01*
G01*
X117875000Y-90250000D01*
G75*
G02*
X117625000Y-90000000I0J250000D01*
G01*
X117625000Y-89500000D01*
G75*
G02*
X117875000Y-89250000I250000J0D01*
G01*
G37*
G36*
G01*
X117875000Y-87350000D02*
X118825000Y-87350000D01*
G75*
G02*
X119075000Y-87600000I0J-250000D01*
G01*
X119075000Y-88100000D01*
G75*
G02*
X118825000Y-88350000I-250000J0D01*
G01*
X117875000Y-88350000D01*
G75*
G02*
X117625000Y-88100000I0J250000D01*
G01*
X117625000Y-87600000D01*
G75*
G02*
X117875000Y-87350000I250000J0D01*
G01*
G37*
%TD*%
%TO.C,C14*%
G36*
G01*
X122325000Y-101750000D02*
X121375000Y-101750000D01*
G75*
G02*
X121125000Y-101500000I0J250000D01*
G01*
X121125000Y-101000000D01*
G75*
G02*
X121375000Y-100750000I250000J0D01*
G01*
X122325000Y-100750000D01*
G75*
G02*
X122575000Y-101000000I0J-250000D01*
G01*
X122575000Y-101500000D01*
G75*
G02*
X122325000Y-101750000I-250000J0D01*
G01*
G37*
G36*
G01*
X122325000Y-103650000D02*
X121375000Y-103650000D01*
G75*
G02*
X121125000Y-103400000I0J250000D01*
G01*
X121125000Y-102900000D01*
G75*
G02*
X121375000Y-102650000I250000J0D01*
G01*
X122325000Y-102650000D01*
G75*
G02*
X122575000Y-102900000I0J-250000D01*
G01*
X122575000Y-103400000D01*
G75*
G02*
X122325000Y-103650000I-250000J0D01*
G01*
G37*
%TD*%
%TO.C,C13*%
G36*
G01*
X121375000Y-88250000D02*
X122325000Y-88250000D01*
G75*
G02*
X122575000Y-88500000I0J-250000D01*
G01*
X122575000Y-89000000D01*
G75*
G02*
X122325000Y-89250000I-250000J0D01*
G01*
X121375000Y-89250000D01*
G75*
G02*
X121125000Y-89000000I0J250000D01*
G01*
X121125000Y-88500000D01*
G75*
G02*
X121375000Y-88250000I250000J0D01*
G01*
G37*
G36*
G01*
X121375000Y-86350000D02*
X122325000Y-86350000D01*
G75*
G02*
X122575000Y-86600000I0J-250000D01*
G01*
X122575000Y-87100000D01*
G75*
G02*
X122325000Y-87350000I-250000J0D01*
G01*
X121375000Y-87350000D01*
G75*
G02*
X121125000Y-87100000I0J250000D01*
G01*
X121125000Y-86600000D01*
G75*
G02*
X121375000Y-86350000I250000J0D01*
G01*
G37*
%TD*%
%TO.C,C12*%
G36*
G01*
X124825000Y-105800000D02*
X123875000Y-105800000D01*
G75*
G02*
X123625000Y-105550000I0J250000D01*
G01*
X123625000Y-105050000D01*
G75*
G02*
X123875000Y-104800000I250000J0D01*
G01*
X124825000Y-104800000D01*
G75*
G02*
X125075000Y-105050000I0J-250000D01*
G01*
X125075000Y-105550000D01*
G75*
G02*
X124825000Y-105800000I-250000J0D01*
G01*
G37*
G36*
G01*
X124825000Y-107700000D02*
X123875000Y-107700000D01*
G75*
G02*
X123625000Y-107450000I0J250000D01*
G01*
X123625000Y-106950000D01*
G75*
G02*
X123875000Y-106700000I250000J0D01*
G01*
X124825000Y-106700000D01*
G75*
G02*
X125075000Y-106950000I0J-250000D01*
G01*
X125075000Y-107450000D01*
G75*
G02*
X124825000Y-107700000I-250000J0D01*
G01*
G37*
%TD*%
%TO.C,C11*%
G36*
G01*
X123875000Y-84250000D02*
X124825000Y-84250000D01*
G75*
G02*
X125075000Y-84500000I0J-250000D01*
G01*
X125075000Y-85000000D01*
G75*
G02*
X124825000Y-85250000I-250000J0D01*
G01*
X123875000Y-85250000D01*
G75*
G02*
X123625000Y-85000000I0J250000D01*
G01*
X123625000Y-84500000D01*
G75*
G02*
X123875000Y-84250000I250000J0D01*
G01*
G37*
G36*
G01*
X123875000Y-82350000D02*
X124825000Y-82350000D01*
G75*
G02*
X125075000Y-82600000I0J-250000D01*
G01*
X125075000Y-83100000D01*
G75*
G02*
X124825000Y-83350000I-250000J0D01*
G01*
X123875000Y-83350000D01*
G75*
G02*
X123625000Y-83100000I0J250000D01*
G01*
X123625000Y-82600000D01*
G75*
G02*
X123875000Y-82350000I250000J0D01*
G01*
G37*
%TD*%
%TO.C,C10*%
G36*
G01*
X114467500Y-86775000D02*
X114467500Y-87725000D01*
G75*
G02*
X114217500Y-87975000I-250000J0D01*
G01*
X113717500Y-87975000D01*
G75*
G02*
X113467500Y-87725000I0J250000D01*
G01*
X113467500Y-86775000D01*
G75*
G02*
X113717500Y-86525000I250000J0D01*
G01*
X114217500Y-86525000D01*
G75*
G02*
X114467500Y-86775000I0J-250000D01*
G01*
G37*
G36*
G01*
X116367500Y-86775000D02*
X116367500Y-87725000D01*
G75*
G02*
X116117500Y-87975000I-250000J0D01*
G01*
X115617500Y-87975000D01*
G75*
G02*
X115367500Y-87725000I0J250000D01*
G01*
X115367500Y-86775000D01*
G75*
G02*
X115617500Y-86525000I250000J0D01*
G01*
X116117500Y-86525000D01*
G75*
G02*
X116367500Y-86775000I0J-250000D01*
G01*
G37*
%TD*%
%TO.C,C9*%
G36*
G01*
X110467500Y-86775000D02*
X110467500Y-87725000D01*
G75*
G02*
X110217500Y-87975000I-250000J0D01*
G01*
X109717500Y-87975000D01*
G75*
G02*
X109467500Y-87725000I0J250000D01*
G01*
X109467500Y-86775000D01*
G75*
G02*
X109717500Y-86525000I250000J0D01*
G01*
X110217500Y-86525000D01*
G75*
G02*
X110467500Y-86775000I0J-250000D01*
G01*
G37*
G36*
G01*
X112367500Y-86775000D02*
X112367500Y-87725000D01*
G75*
G02*
X112117500Y-87975000I-250000J0D01*
G01*
X111617500Y-87975000D01*
G75*
G02*
X111367500Y-87725000I0J250000D01*
G01*
X111367500Y-86775000D01*
G75*
G02*
X111617500Y-86525000I250000J0D01*
G01*
X112117500Y-86525000D01*
G75*
G02*
X112367500Y-86775000I0J-250000D01*
G01*
G37*
%TD*%
%TO.C,C7*%
G36*
G01*
X110467500Y-101775000D02*
X110467500Y-102725000D01*
G75*
G02*
X110217500Y-102975000I-250000J0D01*
G01*
X109717500Y-102975000D01*
G75*
G02*
X109467500Y-102725000I0J250000D01*
G01*
X109467500Y-101775000D01*
G75*
G02*
X109717500Y-101525000I250000J0D01*
G01*
X110217500Y-101525000D01*
G75*
G02*
X110467500Y-101775000I0J-250000D01*
G01*
G37*
G36*
G01*
X112367500Y-101775000D02*
X112367500Y-102725000D01*
G75*
G02*
X112117500Y-102975000I-250000J0D01*
G01*
X111617500Y-102975000D01*
G75*
G02*
X111367500Y-102725000I0J250000D01*
G01*
X111367500Y-101775000D01*
G75*
G02*
X111617500Y-101525000I250000J0D01*
G01*
X112117500Y-101525000D01*
G75*
G02*
X112367500Y-101775000I0J-250000D01*
G01*
G37*
%TD*%
%TO.C,C6*%
G36*
G01*
X124825000Y-97775000D02*
X123875000Y-97775000D01*
G75*
G02*
X123625000Y-97525000I0J250000D01*
G01*
X123625000Y-97025000D01*
G75*
G02*
X123875000Y-96775000I250000J0D01*
G01*
X124825000Y-96775000D01*
G75*
G02*
X125075000Y-97025000I0J-250000D01*
G01*
X125075000Y-97525000D01*
G75*
G02*
X124825000Y-97775000I-250000J0D01*
G01*
G37*
G36*
G01*
X124825000Y-99675000D02*
X123875000Y-99675000D01*
G75*
G02*
X123625000Y-99425000I0J250000D01*
G01*
X123625000Y-98925000D01*
G75*
G02*
X123875000Y-98675000I250000J0D01*
G01*
X124825000Y-98675000D01*
G75*
G02*
X125075000Y-98925000I0J-250000D01*
G01*
X125075000Y-99425000D01*
G75*
G02*
X124825000Y-99675000I-250000J0D01*
G01*
G37*
%TD*%
%TO.C,C5*%
G36*
G01*
X114292500Y-104775000D02*
X114292500Y-105725000D01*
G75*
G02*
X114042500Y-105975000I-250000J0D01*
G01*
X113542500Y-105975000D01*
G75*
G02*
X113292500Y-105725000I0J250000D01*
G01*
X113292500Y-104775000D01*
G75*
G02*
X113542500Y-104525000I250000J0D01*
G01*
X114042500Y-104525000D01*
G75*
G02*
X114292500Y-104775000I0J-250000D01*
G01*
G37*
G36*
G01*
X116192500Y-104775000D02*
X116192500Y-105725000D01*
G75*
G02*
X115942500Y-105975000I-250000J0D01*
G01*
X115442500Y-105975000D01*
G75*
G02*
X115192500Y-105725000I0J250000D01*
G01*
X115192500Y-104775000D01*
G75*
G02*
X115442500Y-104525000I250000J0D01*
G01*
X115942500Y-104525000D01*
G75*
G02*
X116192500Y-104775000I0J-250000D01*
G01*
G37*
%TD*%
%TO.C,C3*%
G36*
G01*
X114467500Y-83775000D02*
X114467500Y-84725000D01*
G75*
G02*
X114217500Y-84975000I-250000J0D01*
G01*
X113717500Y-84975000D01*
G75*
G02*
X113467500Y-84725000I0J250000D01*
G01*
X113467500Y-83775000D01*
G75*
G02*
X113717500Y-83525000I250000J0D01*
G01*
X114217500Y-83525000D01*
G75*
G02*
X114467500Y-83775000I0J-250000D01*
G01*
G37*
G36*
G01*
X116367500Y-83775000D02*
X116367500Y-84725000D01*
G75*
G02*
X116117500Y-84975000I-250000J0D01*
G01*
X115617500Y-84975000D01*
G75*
G02*
X115367500Y-84725000I0J250000D01*
G01*
X115367500Y-83775000D01*
G75*
G02*
X115617500Y-83525000I250000J0D01*
G01*
X116117500Y-83525000D01*
G75*
G02*
X116367500Y-83775000I0J-250000D01*
G01*
G37*
%TD*%
%TO.C,R32*%
G36*
G01*
X137450000Y-88299998D02*
X137450000Y-89200002D01*
G75*
G02*
X137200002Y-89450000I-249998J0D01*
G01*
X136674998Y-89450000D01*
G75*
G02*
X136425000Y-89200002I0J249998D01*
G01*
X136425000Y-88299998D01*
G75*
G02*
X136674998Y-88050000I249998J0D01*
G01*
X137200002Y-88050000D01*
G75*
G02*
X137450000Y-88299998I0J-249998D01*
G01*
G37*
G36*
G01*
X139275000Y-88299998D02*
X139275000Y-89200002D01*
G75*
G02*
X139025002Y-89450000I-249998J0D01*
G01*
X138499998Y-89450000D01*
G75*
G02*
X138250000Y-89200002I0J249998D01*
G01*
X138250000Y-88299998D01*
G75*
G02*
X138499998Y-88050000I249998J0D01*
G01*
X139025002Y-88050000D01*
G75*
G02*
X139275000Y-88299998I0J-249998D01*
G01*
G37*
%TD*%
%TO.C,R31*%
G36*
G01*
X133745000Y-87200002D02*
X133745000Y-86299998D01*
G75*
G02*
X133994998Y-86050000I249998J0D01*
G01*
X134520002Y-86050000D01*
G75*
G02*
X134770000Y-86299998I0J-249998D01*
G01*
X134770000Y-87200002D01*
G75*
G02*
X134520002Y-87450000I-249998J0D01*
G01*
X133994998Y-87450000D01*
G75*
G02*
X133745000Y-87200002I0J249998D01*
G01*
G37*
G36*
G01*
X131920000Y-87200002D02*
X131920000Y-86299998D01*
G75*
G02*
X132169998Y-86050000I249998J0D01*
G01*
X132695002Y-86050000D01*
G75*
G02*
X132945000Y-86299998I0J-249998D01*
G01*
X132945000Y-87200002D01*
G75*
G02*
X132695002Y-87450000I-249998J0D01*
G01*
X132169998Y-87450000D01*
G75*
G02*
X131920000Y-87200002I0J249998D01*
G01*
G37*
%TD*%
%TO.C,R30*%
G36*
G01*
X128537500Y-88299998D02*
X128537500Y-89200002D01*
G75*
G02*
X128287502Y-89450000I-249998J0D01*
G01*
X127762498Y-89450000D01*
G75*
G02*
X127512500Y-89200002I0J249998D01*
G01*
X127512500Y-88299998D01*
G75*
G02*
X127762498Y-88050000I249998J0D01*
G01*
X128287502Y-88050000D01*
G75*
G02*
X128537500Y-88299998I0J-249998D01*
G01*
G37*
G36*
G01*
X130362500Y-88299998D02*
X130362500Y-89200002D01*
G75*
G02*
X130112502Y-89450000I-249998J0D01*
G01*
X129587498Y-89450000D01*
G75*
G02*
X129337500Y-89200002I0J249998D01*
G01*
X129337500Y-88299998D01*
G75*
G02*
X129587498Y-88050000I249998J0D01*
G01*
X130112502Y-88050000D01*
G75*
G02*
X130362500Y-88299998I0J-249998D01*
G01*
G37*
%TD*%
%TO.C,R29*%
G36*
G01*
X137450000Y-100799998D02*
X137450000Y-101700002D01*
G75*
G02*
X137200002Y-101950000I-249998J0D01*
G01*
X136674998Y-101950000D01*
G75*
G02*
X136425000Y-101700002I0J249998D01*
G01*
X136425000Y-100799998D01*
G75*
G02*
X136674998Y-100550000I249998J0D01*
G01*
X137200002Y-100550000D01*
G75*
G02*
X137450000Y-100799998I0J-249998D01*
G01*
G37*
G36*
G01*
X139275000Y-100799998D02*
X139275000Y-101700002D01*
G75*
G02*
X139025002Y-101950000I-249998J0D01*
G01*
X138499998Y-101950000D01*
G75*
G02*
X138250000Y-101700002I0J249998D01*
G01*
X138250000Y-100799998D01*
G75*
G02*
X138499998Y-100550000I249998J0D01*
G01*
X139025002Y-100550000D01*
G75*
G02*
X139275000Y-100799998I0J-249998D01*
G01*
G37*
%TD*%
%TO.C,R28*%
G36*
G01*
X133745000Y-104200002D02*
X133745000Y-103299998D01*
G75*
G02*
X133994998Y-103050000I249998J0D01*
G01*
X134520002Y-103050000D01*
G75*
G02*
X134770000Y-103299998I0J-249998D01*
G01*
X134770000Y-104200002D01*
G75*
G02*
X134520002Y-104450000I-249998J0D01*
G01*
X133994998Y-104450000D01*
G75*
G02*
X133745000Y-104200002I0J249998D01*
G01*
G37*
G36*
G01*
X131920000Y-104200002D02*
X131920000Y-103299998D01*
G75*
G02*
X132169998Y-103050000I249998J0D01*
G01*
X132695002Y-103050000D01*
G75*
G02*
X132945000Y-103299998I0J-249998D01*
G01*
X132945000Y-104200002D01*
G75*
G02*
X132695002Y-104450000I-249998J0D01*
G01*
X132169998Y-104450000D01*
G75*
G02*
X131920000Y-104200002I0J249998D01*
G01*
G37*
%TD*%
%TO.C,R27*%
G36*
G01*
X128537500Y-100799998D02*
X128537500Y-101700002D01*
G75*
G02*
X128287502Y-101950000I-249998J0D01*
G01*
X127762498Y-101950000D01*
G75*
G02*
X127512500Y-101700002I0J249998D01*
G01*
X127512500Y-100799998D01*
G75*
G02*
X127762498Y-100550000I249998J0D01*
G01*
X128287502Y-100550000D01*
G75*
G02*
X128537500Y-100799998I0J-249998D01*
G01*
G37*
G36*
G01*
X130362500Y-100799998D02*
X130362500Y-101700002D01*
G75*
G02*
X130112502Y-101950000I-249998J0D01*
G01*
X129587498Y-101950000D01*
G75*
G02*
X129337500Y-101700002I0J249998D01*
G01*
X129337500Y-100799998D01*
G75*
G02*
X129587498Y-100550000I249998J0D01*
G01*
X130112502Y-100550000D01*
G75*
G02*
X130362500Y-100799998I0J-249998D01*
G01*
G37*
%TD*%
%TO.C,R26*%
G36*
G01*
X137450000Y-95799998D02*
X137450000Y-96700002D01*
G75*
G02*
X137200002Y-96950000I-249998J0D01*
G01*
X136674998Y-96950000D01*
G75*
G02*
X136425000Y-96700002I0J249998D01*
G01*
X136425000Y-95799998D01*
G75*
G02*
X136674998Y-95550000I249998J0D01*
G01*
X137200002Y-95550000D01*
G75*
G02*
X137450000Y-95799998I0J-249998D01*
G01*
G37*
G36*
G01*
X139275000Y-95799998D02*
X139275000Y-96700002D01*
G75*
G02*
X139025002Y-96950000I-249998J0D01*
G01*
X138499998Y-96950000D01*
G75*
G02*
X138250000Y-96700002I0J249998D01*
G01*
X138250000Y-95799998D01*
G75*
G02*
X138499998Y-95550000I249998J0D01*
G01*
X139025002Y-95550000D01*
G75*
G02*
X139275000Y-95799998I0J-249998D01*
G01*
G37*
%TD*%
%TO.C,R25*%
G36*
G01*
X133745000Y-98700002D02*
X133745000Y-97799998D01*
G75*
G02*
X133994998Y-97550000I249998J0D01*
G01*
X134520002Y-97550000D01*
G75*
G02*
X134770000Y-97799998I0J-249998D01*
G01*
X134770000Y-98700002D01*
G75*
G02*
X134520002Y-98950000I-249998J0D01*
G01*
X133994998Y-98950000D01*
G75*
G02*
X133745000Y-98700002I0J249998D01*
G01*
G37*
G36*
G01*
X131920000Y-98700002D02*
X131920000Y-97799998D01*
G75*
G02*
X132169998Y-97550000I249998J0D01*
G01*
X132695002Y-97550000D01*
G75*
G02*
X132945000Y-97799998I0J-249998D01*
G01*
X132945000Y-98700002D01*
G75*
G02*
X132695002Y-98950000I-249998J0D01*
G01*
X132169998Y-98950000D01*
G75*
G02*
X131920000Y-98700002I0J249998D01*
G01*
G37*
%TD*%
%TO.C,R24*%
G36*
G01*
X128537500Y-95799998D02*
X128537500Y-96700002D01*
G75*
G02*
X128287502Y-96950000I-249998J0D01*
G01*
X127762498Y-96950000D01*
G75*
G02*
X127512500Y-96700002I0J249998D01*
G01*
X127512500Y-95799998D01*
G75*
G02*
X127762498Y-95550000I249998J0D01*
G01*
X128287502Y-95550000D01*
G75*
G02*
X128537500Y-95799998I0J-249998D01*
G01*
G37*
G36*
G01*
X130362500Y-95799998D02*
X130362500Y-96700002D01*
G75*
G02*
X130112502Y-96950000I-249998J0D01*
G01*
X129587498Y-96950000D01*
G75*
G02*
X129337500Y-96700002I0J249998D01*
G01*
X129337500Y-95799998D01*
G75*
G02*
X129587498Y-95550000I249998J0D01*
G01*
X130112502Y-95550000D01*
G75*
G02*
X130362500Y-95799998I0J-249998D01*
G01*
G37*
%TD*%
%TO.C,R23*%
G36*
G01*
X137450000Y-93299998D02*
X137450000Y-94200002D01*
G75*
G02*
X137200002Y-94450000I-249998J0D01*
G01*
X136674998Y-94450000D01*
G75*
G02*
X136425000Y-94200002I0J249998D01*
G01*
X136425000Y-93299998D01*
G75*
G02*
X136674998Y-93050000I249998J0D01*
G01*
X137200002Y-93050000D01*
G75*
G02*
X137450000Y-93299998I0J-249998D01*
G01*
G37*
G36*
G01*
X139275000Y-93299998D02*
X139275000Y-94200002D01*
G75*
G02*
X139025002Y-94450000I-249998J0D01*
G01*
X138499998Y-94450000D01*
G75*
G02*
X138250000Y-94200002I0J249998D01*
G01*
X138250000Y-93299998D01*
G75*
G02*
X138499998Y-93050000I249998J0D01*
G01*
X139025002Y-93050000D01*
G75*
G02*
X139275000Y-93299998I0J-249998D01*
G01*
G37*
%TD*%
%TO.C,R22*%
G36*
G01*
X133745000Y-92200002D02*
X133745000Y-91299998D01*
G75*
G02*
X133994998Y-91050000I249998J0D01*
G01*
X134520002Y-91050000D01*
G75*
G02*
X134770000Y-91299998I0J-249998D01*
G01*
X134770000Y-92200002D01*
G75*
G02*
X134520002Y-92450000I-249998J0D01*
G01*
X133994998Y-92450000D01*
G75*
G02*
X133745000Y-92200002I0J249998D01*
G01*
G37*
G36*
G01*
X131920000Y-92200002D02*
X131920000Y-91299998D01*
G75*
G02*
X132169998Y-91050000I249998J0D01*
G01*
X132695002Y-91050000D01*
G75*
G02*
X132945000Y-91299998I0J-249998D01*
G01*
X132945000Y-92200002D01*
G75*
G02*
X132695002Y-92450000I-249998J0D01*
G01*
X132169998Y-92450000D01*
G75*
G02*
X131920000Y-92200002I0J249998D01*
G01*
G37*
%TD*%
%TO.C,R21*%
G36*
G01*
X128537500Y-93299998D02*
X128537500Y-94200002D01*
G75*
G02*
X128287502Y-94450000I-249998J0D01*
G01*
X127762498Y-94450000D01*
G75*
G02*
X127512500Y-94200002I0J249998D01*
G01*
X127512500Y-93299998D01*
G75*
G02*
X127762498Y-93050000I249998J0D01*
G01*
X128287502Y-93050000D01*
G75*
G02*
X128537500Y-93299998I0J-249998D01*
G01*
G37*
G36*
G01*
X130362500Y-93299998D02*
X130362500Y-94200002D01*
G75*
G02*
X130112502Y-94450000I-249998J0D01*
G01*
X129587498Y-94450000D01*
G75*
G02*
X129337500Y-94200002I0J249998D01*
G01*
X129337500Y-93299998D01*
G75*
G02*
X129587498Y-93050000I249998J0D01*
G01*
X130112502Y-93050000D01*
G75*
G02*
X130362500Y-93299998I0J-249998D01*
G01*
G37*
%TD*%
%TO.C,R19*%
G36*
G01*
X114537500Y-89299998D02*
X114537500Y-90200002D01*
G75*
G02*
X114287502Y-90450000I-249998J0D01*
G01*
X113762498Y-90450000D01*
G75*
G02*
X113512500Y-90200002I0J249998D01*
G01*
X113512500Y-89299998D01*
G75*
G02*
X113762498Y-89050000I249998J0D01*
G01*
X114287502Y-89050000D01*
G75*
G02*
X114537500Y-89299998I0J-249998D01*
G01*
G37*
G36*
G01*
X116362500Y-89299998D02*
X116362500Y-90200002D01*
G75*
G02*
X116112502Y-90450000I-249998J0D01*
G01*
X115587498Y-90450000D01*
G75*
G02*
X115337500Y-90200002I0J249998D01*
G01*
X115337500Y-89299998D01*
G75*
G02*
X115587498Y-89050000I249998J0D01*
G01*
X116112502Y-89050000D01*
G75*
G02*
X116362500Y-89299998I0J-249998D01*
G01*
G37*
%TD*%
%TO.C,R20*%
G36*
G01*
X113662500Y-93700002D02*
X113662500Y-92799998D01*
G75*
G02*
X113912498Y-92550000I249998J0D01*
G01*
X114437502Y-92550000D01*
G75*
G02*
X114687500Y-92799998I0J-249998D01*
G01*
X114687500Y-93700002D01*
G75*
G02*
X114437502Y-93950000I-249998J0D01*
G01*
X113912498Y-93950000D01*
G75*
G02*
X113662500Y-93700002I0J249998D01*
G01*
G37*
G36*
G01*
X111837500Y-93700002D02*
X111837500Y-92799998D01*
G75*
G02*
X112087498Y-92550000I249998J0D01*
G01*
X112612502Y-92550000D01*
G75*
G02*
X112862500Y-92799998I0J-249998D01*
G01*
X112862500Y-93700002D01*
G75*
G02*
X112612502Y-93950000I-249998J0D01*
G01*
X112087498Y-93950000D01*
G75*
G02*
X111837500Y-93700002I0J249998D01*
G01*
G37*
%TD*%
%TO.C,R18*%
G36*
G01*
X111337500Y-90200002D02*
X111337500Y-89299998D01*
G75*
G02*
X111587498Y-89050000I249998J0D01*
G01*
X112112502Y-89050000D01*
G75*
G02*
X112362500Y-89299998I0J-249998D01*
G01*
X112362500Y-90200002D01*
G75*
G02*
X112112502Y-90450000I-249998J0D01*
G01*
X111587498Y-90450000D01*
G75*
G02*
X111337500Y-90200002I0J249998D01*
G01*
G37*
G36*
G01*
X109512500Y-90200002D02*
X109512500Y-89299998D01*
G75*
G02*
X109762498Y-89050000I249998J0D01*
G01*
X110287502Y-89050000D01*
G75*
G02*
X110537500Y-89299998I0J-249998D01*
G01*
X110537500Y-90200002D01*
G75*
G02*
X110287502Y-90450000I-249998J0D01*
G01*
X109762498Y-90450000D01*
G75*
G02*
X109512500Y-90200002I0J249998D01*
G01*
G37*
%TD*%
%TO.C,R17*%
G36*
G01*
X107037500Y-86799998D02*
X107037500Y-87700002D01*
G75*
G02*
X106787502Y-87950000I-249998J0D01*
G01*
X106262498Y-87950000D01*
G75*
G02*
X106012500Y-87700002I0J249998D01*
G01*
X106012500Y-86799998D01*
G75*
G02*
X106262498Y-86550000I249998J0D01*
G01*
X106787502Y-86550000D01*
G75*
G02*
X107037500Y-86799998I0J-249998D01*
G01*
G37*
G36*
G01*
X108862500Y-86799998D02*
X108862500Y-87700002D01*
G75*
G02*
X108612502Y-87950000I-249998J0D01*
G01*
X108087498Y-87950000D01*
G75*
G02*
X107837500Y-87700002I0J249998D01*
G01*
X107837500Y-86799998D01*
G75*
G02*
X108087498Y-86550000I249998J0D01*
G01*
X108612502Y-86550000D01*
G75*
G02*
X108862500Y-86799998I0J-249998D01*
G01*
G37*
%TD*%
%TO.C,R16*%
G36*
G01*
X113662500Y-97200002D02*
X113662500Y-96299998D01*
G75*
G02*
X113912498Y-96050000I249998J0D01*
G01*
X114437502Y-96050000D01*
G75*
G02*
X114687500Y-96299998I0J-249998D01*
G01*
X114687500Y-97200002D01*
G75*
G02*
X114437502Y-97450000I-249998J0D01*
G01*
X113912498Y-97450000D01*
G75*
G02*
X113662500Y-97200002I0J249998D01*
G01*
G37*
G36*
G01*
X111837500Y-97200002D02*
X111837500Y-96299998D01*
G75*
G02*
X112087498Y-96050000I249998J0D01*
G01*
X112612502Y-96050000D01*
G75*
G02*
X112862500Y-96299998I0J-249998D01*
G01*
X112862500Y-97200002D01*
G75*
G02*
X112612502Y-97450000I-249998J0D01*
G01*
X112087498Y-97450000D01*
G75*
G02*
X111837500Y-97200002I0J249998D01*
G01*
G37*
%TD*%
%TO.C,R15*%
G36*
G01*
X114362500Y-99299998D02*
X114362500Y-100200002D01*
G75*
G02*
X114112502Y-100450000I-249998J0D01*
G01*
X113587498Y-100450000D01*
G75*
G02*
X113337500Y-100200002I0J249998D01*
G01*
X113337500Y-99299998D01*
G75*
G02*
X113587498Y-99050000I249998J0D01*
G01*
X114112502Y-99050000D01*
G75*
G02*
X114362500Y-99299998I0J-249998D01*
G01*
G37*
G36*
G01*
X116187500Y-99299998D02*
X116187500Y-100200002D01*
G75*
G02*
X115937502Y-100450000I-249998J0D01*
G01*
X115412498Y-100450000D01*
G75*
G02*
X115162500Y-100200002I0J249998D01*
G01*
X115162500Y-99299998D01*
G75*
G02*
X115412498Y-99050000I249998J0D01*
G01*
X115937502Y-99050000D01*
G75*
G02*
X116187500Y-99299998I0J-249998D01*
G01*
G37*
%TD*%
%TO.C,R14*%
G36*
G01*
X111337500Y-100200002D02*
X111337500Y-99299998D01*
G75*
G02*
X111587498Y-99050000I249998J0D01*
G01*
X112112502Y-99050000D01*
G75*
G02*
X112362500Y-99299998I0J-249998D01*
G01*
X112362500Y-100200002D01*
G75*
G02*
X112112502Y-100450000I-249998J0D01*
G01*
X111587498Y-100450000D01*
G75*
G02*
X111337500Y-100200002I0J249998D01*
G01*
G37*
G36*
G01*
X109512500Y-100200002D02*
X109512500Y-99299998D01*
G75*
G02*
X109762498Y-99050000I249998J0D01*
G01*
X110287502Y-99050000D01*
G75*
G02*
X110537500Y-99299998I0J-249998D01*
G01*
X110537500Y-100200002D01*
G75*
G02*
X110287502Y-100450000I-249998J0D01*
G01*
X109762498Y-100450000D01*
G75*
G02*
X109512500Y-100200002I0J249998D01*
G01*
G37*
%TD*%
%TO.C,R13*%
G36*
G01*
X107037500Y-101799998D02*
X107037500Y-102700002D01*
G75*
G02*
X106787502Y-102950000I-249998J0D01*
G01*
X106262498Y-102950000D01*
G75*
G02*
X106012500Y-102700002I0J249998D01*
G01*
X106012500Y-101799998D01*
G75*
G02*
X106262498Y-101550000I249998J0D01*
G01*
X106787502Y-101550000D01*
G75*
G02*
X107037500Y-101799998I0J-249998D01*
G01*
G37*
G36*
G01*
X108862500Y-101799998D02*
X108862500Y-102700002D01*
G75*
G02*
X108612502Y-102950000I-249998J0D01*
G01*
X108087498Y-102950000D01*
G75*
G02*
X107837500Y-102700002I0J249998D01*
G01*
X107837500Y-101799998D01*
G75*
G02*
X108087498Y-101550000I249998J0D01*
G01*
X108612502Y-101550000D01*
G75*
G02*
X108862500Y-101799998I0J-249998D01*
G01*
G37*
%TD*%
%TO.C,R12*%
G36*
G01*
X124800002Y-101762500D02*
X123899998Y-101762500D01*
G75*
G02*
X123650000Y-101512502I0J249998D01*
G01*
X123650000Y-100987498D01*
G75*
G02*
X123899998Y-100737500I249998J0D01*
G01*
X124800002Y-100737500D01*
G75*
G02*
X125050000Y-100987498I0J-249998D01*
G01*
X125050000Y-101512502D01*
G75*
G02*
X124800002Y-101762500I-249998J0D01*
G01*
G37*
G36*
G01*
X124800002Y-103587500D02*
X123899998Y-103587500D01*
G75*
G02*
X123650000Y-103337502I0J249998D01*
G01*
X123650000Y-102812498D01*
G75*
G02*
X123899998Y-102562500I249998J0D01*
G01*
X124800002Y-102562500D01*
G75*
G02*
X125050000Y-102812498I0J-249998D01*
G01*
X125050000Y-103337502D01*
G75*
G02*
X124800002Y-103587500I-249998J0D01*
G01*
G37*
%TD*%
%TO.C,R11*%
G36*
G01*
X122300002Y-97762500D02*
X121399998Y-97762500D01*
G75*
G02*
X121150000Y-97512502I0J249998D01*
G01*
X121150000Y-96987498D01*
G75*
G02*
X121399998Y-96737500I249998J0D01*
G01*
X122300002Y-96737500D01*
G75*
G02*
X122550000Y-96987498I0J-249998D01*
G01*
X122550000Y-97512502D01*
G75*
G02*
X122300002Y-97762500I-249998J0D01*
G01*
G37*
G36*
G01*
X122300002Y-99587500D02*
X121399998Y-99587500D01*
G75*
G02*
X121150000Y-99337502I0J249998D01*
G01*
X121150000Y-98812498D01*
G75*
G02*
X121399998Y-98562500I249998J0D01*
G01*
X122300002Y-98562500D01*
G75*
G02*
X122550000Y-98812498I0J-249998D01*
G01*
X122550000Y-99337502D01*
G75*
G02*
X122300002Y-99587500I-249998J0D01*
G01*
G37*
%TD*%
%TO.C,R10*%
G36*
G01*
X115162500Y-108200002D02*
X115162500Y-107299998D01*
G75*
G02*
X115412498Y-107050000I249998J0D01*
G01*
X115937502Y-107050000D01*
G75*
G02*
X116187500Y-107299998I0J-249998D01*
G01*
X116187500Y-108200002D01*
G75*
G02*
X115937502Y-108450000I-249998J0D01*
G01*
X115412498Y-108450000D01*
G75*
G02*
X115162500Y-108200002I0J249998D01*
G01*
G37*
G36*
G01*
X113337500Y-108200002D02*
X113337500Y-107299998D01*
G75*
G02*
X113587498Y-107050000I249998J0D01*
G01*
X114112502Y-107050000D01*
G75*
G02*
X114362500Y-107299998I0J-249998D01*
G01*
X114362500Y-108200002D01*
G75*
G02*
X114112502Y-108450000I-249998J0D01*
G01*
X113587498Y-108450000D01*
G75*
G02*
X113337500Y-108200002I0J249998D01*
G01*
G37*
%TD*%
%TO.C,R9*%
G36*
G01*
X110537500Y-104799998D02*
X110537500Y-105700002D01*
G75*
G02*
X110287502Y-105950000I-249998J0D01*
G01*
X109762498Y-105950000D01*
G75*
G02*
X109512500Y-105700002I0J249998D01*
G01*
X109512500Y-104799998D01*
G75*
G02*
X109762498Y-104550000I249998J0D01*
G01*
X110287502Y-104550000D01*
G75*
G02*
X110537500Y-104799998I0J-249998D01*
G01*
G37*
G36*
G01*
X112362500Y-104799998D02*
X112362500Y-105700002D01*
G75*
G02*
X112112502Y-105950000I-249998J0D01*
G01*
X111587498Y-105950000D01*
G75*
G02*
X111337500Y-105700002I0J249998D01*
G01*
X111337500Y-104799998D01*
G75*
G02*
X111587498Y-104550000I249998J0D01*
G01*
X112112502Y-104550000D01*
G75*
G02*
X112362500Y-104799998I0J-249998D01*
G01*
G37*
%TD*%
%TO.C,R8*%
G36*
G01*
X123899998Y-88237500D02*
X124800002Y-88237500D01*
G75*
G02*
X125050000Y-88487498I0J-249998D01*
G01*
X125050000Y-89012502D01*
G75*
G02*
X124800002Y-89262500I-249998J0D01*
G01*
X123899998Y-89262500D01*
G75*
G02*
X123650000Y-89012502I0J249998D01*
G01*
X123650000Y-88487498D01*
G75*
G02*
X123899998Y-88237500I249998J0D01*
G01*
G37*
G36*
G01*
X123899998Y-86412500D02*
X124800002Y-86412500D01*
G75*
G02*
X125050000Y-86662498I0J-249998D01*
G01*
X125050000Y-87187502D01*
G75*
G02*
X124800002Y-87437500I-249998J0D01*
G01*
X123899998Y-87437500D01*
G75*
G02*
X123650000Y-87187502I0J249998D01*
G01*
X123650000Y-86662498D01*
G75*
G02*
X123899998Y-86412500I249998J0D01*
G01*
G37*
%TD*%
%TO.C,R7*%
G36*
G01*
X121399998Y-92237500D02*
X122300002Y-92237500D01*
G75*
G02*
X122550000Y-92487498I0J-249998D01*
G01*
X122550000Y-93012502D01*
G75*
G02*
X122300002Y-93262500I-249998J0D01*
G01*
X121399998Y-93262500D01*
G75*
G02*
X121150000Y-93012502I0J249998D01*
G01*
X121150000Y-92487498D01*
G75*
G02*
X121399998Y-92237500I249998J0D01*
G01*
G37*
G36*
G01*
X121399998Y-90412500D02*
X122300002Y-90412500D01*
G75*
G02*
X122550000Y-90662498I0J-249998D01*
G01*
X122550000Y-91187502D01*
G75*
G02*
X122300002Y-91437500I-249998J0D01*
G01*
X121399998Y-91437500D01*
G75*
G02*
X121150000Y-91187502I0J249998D01*
G01*
X121150000Y-90662498D01*
G75*
G02*
X121399998Y-90412500I249998J0D01*
G01*
G37*
%TD*%
%TO.C,R6*%
G36*
G01*
X115337500Y-82200002D02*
X115337500Y-81299998D01*
G75*
G02*
X115587498Y-81050000I249998J0D01*
G01*
X116112502Y-81050000D01*
G75*
G02*
X116362500Y-81299998I0J-249998D01*
G01*
X116362500Y-82200002D01*
G75*
G02*
X116112502Y-82450000I-249998J0D01*
G01*
X115587498Y-82450000D01*
G75*
G02*
X115337500Y-82200002I0J249998D01*
G01*
G37*
G36*
G01*
X113512500Y-82200002D02*
X113512500Y-81299998D01*
G75*
G02*
X113762498Y-81050000I249998J0D01*
G01*
X114287502Y-81050000D01*
G75*
G02*
X114537500Y-81299998I0J-249998D01*
G01*
X114537500Y-82200002D01*
G75*
G02*
X114287502Y-82450000I-249998J0D01*
G01*
X113762498Y-82450000D01*
G75*
G02*
X113512500Y-82200002I0J249998D01*
G01*
G37*
%TD*%
%TO.C,R5*%
G36*
G01*
X110537500Y-83799998D02*
X110537500Y-84700002D01*
G75*
G02*
X110287502Y-84950000I-249998J0D01*
G01*
X109762498Y-84950000D01*
G75*
G02*
X109512500Y-84700002I0J249998D01*
G01*
X109512500Y-83799998D01*
G75*
G02*
X109762498Y-83550000I249998J0D01*
G01*
X110287502Y-83550000D01*
G75*
G02*
X110537500Y-83799998I0J-249998D01*
G01*
G37*
G36*
G01*
X112362500Y-83799998D02*
X112362500Y-84700002D01*
G75*
G02*
X112112502Y-84950000I-249998J0D01*
G01*
X111587498Y-84950000D01*
G75*
G02*
X111337500Y-84700002I0J249998D01*
G01*
X111337500Y-83799998D01*
G75*
G02*
X111587498Y-83550000I249998J0D01*
G01*
X112112502Y-83550000D01*
G75*
G02*
X112362500Y-83799998I0J-249998D01*
G01*
G37*
%TD*%
%TO.C,U1*%
G36*
G01*
X119530000Y-96955225D02*
X119730000Y-96955225D01*
G75*
G02*
X119830000Y-97055225I0J-100000D01*
G01*
X119830000Y-98330225D01*
G75*
G02*
X119730000Y-98430225I-100000J0D01*
G01*
X119530000Y-98430225D01*
G75*
G02*
X119430000Y-98330225I0J100000D01*
G01*
X119430000Y-97055225D01*
G75*
G02*
X119530000Y-96955225I100000J0D01*
G01*
G37*
G36*
G01*
X118880000Y-96955225D02*
X119080000Y-96955225D01*
G75*
G02*
X119180000Y-97055225I0J-100000D01*
G01*
X119180000Y-98330225D01*
G75*
G02*
X119080000Y-98430225I-100000J0D01*
G01*
X118880000Y-98430225D01*
G75*
G02*
X118780000Y-98330225I0J100000D01*
G01*
X118780000Y-97055225D01*
G75*
G02*
X118880000Y-96955225I100000J0D01*
G01*
G37*
G36*
G01*
X118230000Y-96955225D02*
X118430000Y-96955225D01*
G75*
G02*
X118530000Y-97055225I0J-100000D01*
G01*
X118530000Y-98330225D01*
G75*
G02*
X118430000Y-98430225I-100000J0D01*
G01*
X118230000Y-98430225D01*
G75*
G02*
X118130000Y-98330225I0J100000D01*
G01*
X118130000Y-97055225D01*
G75*
G02*
X118230000Y-96955225I100000J0D01*
G01*
G37*
G36*
G01*
X117580000Y-96955225D02*
X117780000Y-96955225D01*
G75*
G02*
X117880000Y-97055225I0J-100000D01*
G01*
X117880000Y-98330225D01*
G75*
G02*
X117780000Y-98430225I-100000J0D01*
G01*
X117580000Y-98430225D01*
G75*
G02*
X117480000Y-98330225I0J100000D01*
G01*
X117480000Y-97055225D01*
G75*
G02*
X117580000Y-96955225I100000J0D01*
G01*
G37*
G36*
G01*
X116930000Y-96955225D02*
X117130000Y-96955225D01*
G75*
G02*
X117230000Y-97055225I0J-100000D01*
G01*
X117230000Y-98330225D01*
G75*
G02*
X117130000Y-98430225I-100000J0D01*
G01*
X116930000Y-98430225D01*
G75*
G02*
X116830000Y-98330225I0J100000D01*
G01*
X116830000Y-97055225D01*
G75*
G02*
X116930000Y-96955225I100000J0D01*
G01*
G37*
G36*
G01*
X116280000Y-96955225D02*
X116480000Y-96955225D01*
G75*
G02*
X116580000Y-97055225I0J-100000D01*
G01*
X116580000Y-98330225D01*
G75*
G02*
X116480000Y-98430225I-100000J0D01*
G01*
X116280000Y-98430225D01*
G75*
G02*
X116180000Y-98330225I0J100000D01*
G01*
X116180000Y-97055225D01*
G75*
G02*
X116280000Y-96955225I100000J0D01*
G01*
G37*
G36*
G01*
X115630000Y-96955225D02*
X115830000Y-96955225D01*
G75*
G02*
X115930000Y-97055225I0J-100000D01*
G01*
X115930000Y-98330225D01*
G75*
G02*
X115830000Y-98430225I-100000J0D01*
G01*
X115630000Y-98430225D01*
G75*
G02*
X115530000Y-98330225I0J100000D01*
G01*
X115530000Y-97055225D01*
G75*
G02*
X115630000Y-96955225I100000J0D01*
G01*
G37*
G36*
G01*
X115630000Y-91230225D02*
X115830000Y-91230225D01*
G75*
G02*
X115930000Y-91330225I0J-100000D01*
G01*
X115930000Y-92605225D01*
G75*
G02*
X115830000Y-92705225I-100000J0D01*
G01*
X115630000Y-92705225D01*
G75*
G02*
X115530000Y-92605225I0J100000D01*
G01*
X115530000Y-91330225D01*
G75*
G02*
X115630000Y-91230225I100000J0D01*
G01*
G37*
G36*
G01*
X116280000Y-91230225D02*
X116480000Y-91230225D01*
G75*
G02*
X116580000Y-91330225I0J-100000D01*
G01*
X116580000Y-92605225D01*
G75*
G02*
X116480000Y-92705225I-100000J0D01*
G01*
X116280000Y-92705225D01*
G75*
G02*
X116180000Y-92605225I0J100000D01*
G01*
X116180000Y-91330225D01*
G75*
G02*
X116280000Y-91230225I100000J0D01*
G01*
G37*
G36*
G01*
X116930000Y-91230225D02*
X117130000Y-91230225D01*
G75*
G02*
X117230000Y-91330225I0J-100000D01*
G01*
X117230000Y-92605225D01*
G75*
G02*
X117130000Y-92705225I-100000J0D01*
G01*
X116930000Y-92705225D01*
G75*
G02*
X116830000Y-92605225I0J100000D01*
G01*
X116830000Y-91330225D01*
G75*
G02*
X116930000Y-91230225I100000J0D01*
G01*
G37*
G36*
G01*
X117580000Y-91230225D02*
X117780000Y-91230225D01*
G75*
G02*
X117880000Y-91330225I0J-100000D01*
G01*
X117880000Y-92605225D01*
G75*
G02*
X117780000Y-92705225I-100000J0D01*
G01*
X117580000Y-92705225D01*
G75*
G02*
X117480000Y-92605225I0J100000D01*
G01*
X117480000Y-91330225D01*
G75*
G02*
X117580000Y-91230225I100000J0D01*
G01*
G37*
G36*
G01*
X118230000Y-91230225D02*
X118430000Y-91230225D01*
G75*
G02*
X118530000Y-91330225I0J-100000D01*
G01*
X118530000Y-92605225D01*
G75*
G02*
X118430000Y-92705225I-100000J0D01*
G01*
X118230000Y-92705225D01*
G75*
G02*
X118130000Y-92605225I0J100000D01*
G01*
X118130000Y-91330225D01*
G75*
G02*
X118230000Y-91230225I100000J0D01*
G01*
G37*
G36*
G01*
X118880000Y-91230225D02*
X119080000Y-91230225D01*
G75*
G02*
X119180000Y-91330225I0J-100000D01*
G01*
X119180000Y-92605225D01*
G75*
G02*
X119080000Y-92705225I-100000J0D01*
G01*
X118880000Y-92705225D01*
G75*
G02*
X118780000Y-92605225I0J100000D01*
G01*
X118780000Y-91330225D01*
G75*
G02*
X118880000Y-91230225I100000J0D01*
G01*
G37*
G36*
G01*
X119530000Y-91230225D02*
X119730000Y-91230225D01*
G75*
G02*
X119830000Y-91330225I0J-100000D01*
G01*
X119830000Y-92605225D01*
G75*
G02*
X119730000Y-92705225I-100000J0D01*
G01*
X119530000Y-92705225D01*
G75*
G02*
X119430000Y-92605225I0J100000D01*
G01*
X119430000Y-91330225D01*
G75*
G02*
X119530000Y-91230225I100000J0D01*
G01*
G37*
%TD*%
M02*
