%TF.GenerationSoftware,KiCad,Pcbnew,(5.1.9)-1*%
%TF.CreationDate,2021-10-14T16:08:06-04:00*%
%TF.ProjectId,ModularPreamp-ParallelInputs,4d6f6475-6c61-4725-9072-65616d702d50,rev?*%
%TF.SameCoordinates,Original*%
%TF.FileFunction,Legend,Top*%
%TF.FilePolarity,Positive*%
%FSLAX46Y46*%
G04 Gerber Fmt 4.6, Leading zero omitted, Abs format (unit mm)*
G04 Created by KiCad (PCBNEW (5.1.9)-1) date 2021-10-14 16:08:06*
%MOMM*%
%LPD*%
G01*
G04 APERTURE LIST*
%ADD10C,0.150000*%
%ADD11C,0.120000*%
G04 APERTURE END LIST*
D10*
X126907142Y-80560714D02*
X127554761Y-80560714D01*
X127230952Y-80884523D02*
X127230952Y-80236904D01*
X128364285Y-80034523D02*
X127959523Y-80034523D01*
X127919047Y-80439285D01*
X127959523Y-80398809D01*
X128040476Y-80358333D01*
X128242857Y-80358333D01*
X128323809Y-80398809D01*
X128364285Y-80439285D01*
X128404761Y-80520238D01*
X128404761Y-80722619D01*
X128364285Y-80803571D01*
X128323809Y-80844047D01*
X128242857Y-80884523D01*
X128040476Y-80884523D01*
X127959523Y-80844047D01*
X127919047Y-80803571D01*
X128647619Y-80034523D02*
X128930952Y-80884523D01*
X129214285Y-80034523D01*
X116488095Y-77534523D02*
X116973809Y-77534523D01*
X116730952Y-78384523D02*
X116730952Y-77534523D01*
X117135714Y-77534523D02*
X117419047Y-78384523D01*
X117702380Y-77534523D01*
X117945238Y-78344047D02*
X118066666Y-78384523D01*
X118269047Y-78384523D01*
X118350000Y-78344047D01*
X118390476Y-78303571D01*
X118430952Y-78222619D01*
X118430952Y-78141666D01*
X118390476Y-78060714D01*
X118350000Y-78020238D01*
X118269047Y-77979761D01*
X118107142Y-77939285D01*
X118026190Y-77898809D01*
X117985714Y-77858333D01*
X117945238Y-77777380D01*
X117945238Y-77696428D01*
X117985714Y-77615476D01*
X118026190Y-77575000D01*
X118107142Y-77534523D01*
X118309523Y-77534523D01*
X118430952Y-77575000D01*
X118988095Y-107534523D02*
X119473809Y-107534523D01*
X119230952Y-108384523D02*
X119230952Y-107534523D01*
X119635714Y-107534523D02*
X119919047Y-108384523D01*
X120202380Y-107534523D01*
X120445238Y-108344047D02*
X120566666Y-108384523D01*
X120769047Y-108384523D01*
X120850000Y-108344047D01*
X120890476Y-108303571D01*
X120930952Y-108222619D01*
X120930952Y-108141666D01*
X120890476Y-108060714D01*
X120850000Y-108020238D01*
X120769047Y-107979761D01*
X120607142Y-107939285D01*
X120526190Y-107898809D01*
X120485714Y-107858333D01*
X120445238Y-107777380D01*
X120445238Y-107696428D01*
X120485714Y-107615476D01*
X120526190Y-107575000D01*
X120607142Y-107534523D01*
X120809523Y-107534523D01*
X120930952Y-107575000D01*
X125907142Y-109560714D02*
X126554761Y-109560714D01*
X127364285Y-109034523D02*
X126959523Y-109034523D01*
X126919047Y-109439285D01*
X126959523Y-109398809D01*
X127040476Y-109358333D01*
X127242857Y-109358333D01*
X127323809Y-109398809D01*
X127364285Y-109439285D01*
X127404761Y-109520238D01*
X127404761Y-109722619D01*
X127364285Y-109803571D01*
X127323809Y-109844047D01*
X127242857Y-109884523D01*
X127040476Y-109884523D01*
X126959523Y-109844047D01*
X126919047Y-109803571D01*
X127647619Y-109034523D02*
X127930952Y-109884523D01*
X128214285Y-109034523D01*
X108814970Y-111091071D02*
X108769434Y-111131547D01*
X108642946Y-111172023D01*
X108561994Y-111172023D01*
X108445625Y-111131547D01*
X108374791Y-111050595D01*
X108344434Y-110969642D01*
X108324196Y-110807738D01*
X108339375Y-110686309D01*
X108400089Y-110524404D01*
X108450684Y-110443452D01*
X108541755Y-110362500D01*
X108668244Y-110322023D01*
X108749196Y-110322023D01*
X108865565Y-110362500D01*
X108900982Y-110402976D01*
X109169136Y-111172023D02*
X109239970Y-110605357D01*
X109219732Y-110767261D02*
X109270327Y-110686309D01*
X109315863Y-110645833D01*
X109401875Y-110605357D01*
X109482827Y-110605357D01*
X109816755Y-111172023D02*
X109740863Y-111131547D01*
X109705446Y-111091071D01*
X109675089Y-111010119D01*
X109705446Y-110767261D01*
X109756041Y-110686309D01*
X109801577Y-110645833D01*
X109887589Y-110605357D01*
X110009017Y-110605357D01*
X110084910Y-110645833D01*
X110120327Y-110686309D01*
X110150684Y-110767261D01*
X110120327Y-111010119D01*
X110069732Y-111091071D01*
X110024196Y-111131547D01*
X109938184Y-111172023D01*
X109816755Y-111172023D01*
X110428958Y-111131547D02*
X110504851Y-111172023D01*
X110666755Y-111172023D01*
X110752767Y-111131547D01*
X110803363Y-111050595D01*
X110808422Y-111010119D01*
X110778065Y-110929166D01*
X110702172Y-110888690D01*
X110580744Y-110888690D01*
X110504851Y-110848214D01*
X110474494Y-110767261D01*
X110479553Y-110726785D01*
X110530148Y-110645833D01*
X110616160Y-110605357D01*
X110737589Y-110605357D01*
X110813482Y-110645833D01*
X111117053Y-111131547D02*
X111192946Y-111172023D01*
X111354851Y-111172023D01*
X111440863Y-111131547D01*
X111491458Y-111050595D01*
X111496517Y-111010119D01*
X111466160Y-110929166D01*
X111390267Y-110888690D01*
X111268839Y-110888690D01*
X111192946Y-110848214D01*
X111162589Y-110767261D01*
X111167648Y-110726785D01*
X111218244Y-110645833D01*
X111304255Y-110605357D01*
X111425684Y-110605357D01*
X111501577Y-110645833D01*
X112169434Y-111131547D02*
X112083422Y-111172023D01*
X111921517Y-111172023D01*
X111845625Y-111131547D01*
X111815267Y-111050595D01*
X111855744Y-110726785D01*
X111906339Y-110645833D01*
X111992351Y-110605357D01*
X112154255Y-110605357D01*
X112230148Y-110645833D01*
X112260505Y-110726785D01*
X112250386Y-110807738D01*
X111835505Y-110888690D01*
X112933422Y-111172023D02*
X113039672Y-110322023D01*
X112938482Y-111131547D02*
X112852470Y-111172023D01*
X112690565Y-111172023D01*
X112614672Y-111131547D01*
X112579255Y-111091071D01*
X112548898Y-111010119D01*
X112579255Y-110767261D01*
X112629851Y-110686309D01*
X112675386Y-110645833D01*
X112761398Y-110605357D01*
X112923303Y-110605357D01*
X112999196Y-110645833D01*
X113378660Y-110848214D02*
X114026279Y-110848214D01*
X114390565Y-111172023D02*
X114496815Y-110322023D01*
X114699196Y-110322023D01*
X114815565Y-110362500D01*
X114886398Y-110443452D01*
X114916755Y-110524404D01*
X114936994Y-110686309D01*
X114921815Y-110807738D01*
X114861101Y-110969642D01*
X114810505Y-111050595D01*
X114719434Y-111131547D01*
X114592946Y-111172023D01*
X114390565Y-111172023D01*
X115240565Y-111172023D02*
X115311398Y-110605357D01*
X115346815Y-110322023D02*
X115301279Y-110362500D01*
X115336696Y-110402976D01*
X115382232Y-110362500D01*
X115346815Y-110322023D01*
X115336696Y-110402976D01*
X115766755Y-111172023D02*
X115690863Y-111131547D01*
X115655446Y-111091071D01*
X115625089Y-111010119D01*
X115655446Y-110767261D01*
X115706041Y-110686309D01*
X115751577Y-110645833D01*
X115837589Y-110605357D01*
X115959017Y-110605357D01*
X116034910Y-110645833D01*
X116070327Y-110686309D01*
X116100684Y-110767261D01*
X116070327Y-111010119D01*
X116019732Y-111091071D01*
X115974196Y-111131547D01*
X115888184Y-111172023D01*
X115766755Y-111172023D01*
X116778660Y-111172023D02*
X116884910Y-110322023D01*
X116783720Y-111131547D02*
X116697708Y-111172023D01*
X116535803Y-111172023D01*
X116459910Y-111131547D01*
X116424494Y-111091071D01*
X116394136Y-111010119D01*
X116424494Y-110767261D01*
X116475089Y-110686309D01*
X116520625Y-110645833D01*
X116606636Y-110605357D01*
X116768541Y-110605357D01*
X116844434Y-110645833D01*
X117512291Y-111131547D02*
X117426279Y-111172023D01*
X117264375Y-111172023D01*
X117188482Y-111131547D01*
X117158125Y-111050595D01*
X117198601Y-110726785D01*
X117249196Y-110645833D01*
X117335208Y-110605357D01*
X117497113Y-110605357D01*
X117573005Y-110645833D01*
X117603363Y-110726785D01*
X117593244Y-110807738D01*
X117178363Y-110888690D01*
X107934613Y-112597023D02*
X108040863Y-111747023D01*
X108410208Y-112030357D02*
X108339375Y-112597023D01*
X108400089Y-112111309D02*
X108445625Y-112070833D01*
X108531636Y-112030357D01*
X108653065Y-112030357D01*
X108728958Y-112070833D01*
X108759315Y-112151785D01*
X108703660Y-112597023D01*
X109179255Y-112030357D02*
X109073005Y-112880357D01*
X109174196Y-112070833D02*
X109260208Y-112030357D01*
X109422113Y-112030357D01*
X109498005Y-112070833D01*
X109533422Y-112111309D01*
X109563779Y-112192261D01*
X109533422Y-112435119D01*
X109482827Y-112516071D01*
X109437291Y-112556547D01*
X109351279Y-112597023D01*
X109189375Y-112597023D01*
X109113482Y-112556547D01*
X110312589Y-112030357D02*
X110241755Y-112597023D01*
X109948303Y-112030357D02*
X109892648Y-112475595D01*
X109923005Y-112556547D01*
X109998898Y-112597023D01*
X110120327Y-112597023D01*
X110206339Y-112556547D01*
X110251875Y-112516071D01*
X110595922Y-112030357D02*
X110919732Y-112030357D01*
X110752767Y-111747023D02*
X110661696Y-112475595D01*
X110692053Y-112556547D01*
X110767946Y-112597023D01*
X110848898Y-112597023D01*
X111779851Y-112597023D02*
X111886101Y-111747023D01*
X112209910Y-111747023D01*
X112285803Y-111787500D01*
X112321220Y-111827976D01*
X112351577Y-111908928D01*
X112336398Y-112030357D01*
X112285803Y-112111309D01*
X112240267Y-112151785D01*
X112154255Y-112192261D01*
X111830446Y-112192261D01*
X112629851Y-112597023D02*
X112700684Y-112030357D01*
X112680446Y-112192261D02*
X112731041Y-112111309D01*
X112776577Y-112070833D01*
X112862589Y-112030357D01*
X112943541Y-112030357D01*
X113277470Y-112597023D02*
X113201577Y-112556547D01*
X113166160Y-112516071D01*
X113135803Y-112435119D01*
X113166160Y-112192261D01*
X113216755Y-112111309D01*
X113262291Y-112070833D01*
X113348303Y-112030357D01*
X113469732Y-112030357D01*
X113545624Y-112070833D01*
X113581041Y-112111309D01*
X113611398Y-112192261D01*
X113581041Y-112435119D01*
X113530446Y-112516071D01*
X113484910Y-112556547D01*
X113398898Y-112597023D01*
X113277470Y-112597023D01*
X113874494Y-112030357D02*
X114198303Y-112030357D01*
X114031339Y-111747023D02*
X113940267Y-112475595D01*
X113970625Y-112556547D01*
X114046517Y-112597023D01*
X114127470Y-112597023D01*
X114739672Y-112556547D02*
X114653660Y-112597023D01*
X114491755Y-112597023D01*
X114415863Y-112556547D01*
X114385505Y-112475595D01*
X114425982Y-112151785D01*
X114476577Y-112070833D01*
X114562589Y-112030357D01*
X114724494Y-112030357D01*
X114800386Y-112070833D01*
X114830744Y-112151785D01*
X114820625Y-112232738D01*
X114405744Y-112313690D01*
X115508720Y-112556547D02*
X115422708Y-112597023D01*
X115260803Y-112597023D01*
X115184910Y-112556547D01*
X115149494Y-112516071D01*
X115119136Y-112435119D01*
X115149494Y-112192261D01*
X115200089Y-112111309D01*
X115245624Y-112070833D01*
X115331636Y-112030357D01*
X115493541Y-112030357D01*
X115569434Y-112070833D01*
X115817351Y-112030357D02*
X116141160Y-112030357D01*
X115974196Y-111747023D02*
X115883124Y-112475595D01*
X115913482Y-112556547D01*
X115989375Y-112597023D01*
X116070327Y-112597023D01*
X116353660Y-112597023D02*
X116424494Y-112030357D01*
X116459910Y-111747023D02*
X116414374Y-111787500D01*
X116449791Y-111827976D01*
X116495327Y-111787500D01*
X116459910Y-111747023D01*
X116449791Y-111827976D01*
X116879851Y-112597023D02*
X116803958Y-112556547D01*
X116768541Y-112516071D01*
X116738184Y-112435119D01*
X116768541Y-112192261D01*
X116819136Y-112111309D01*
X116864672Y-112070833D01*
X116950684Y-112030357D01*
X117072113Y-112030357D01*
X117148005Y-112070833D01*
X117183422Y-112111309D01*
X117213779Y-112192261D01*
X117183422Y-112435119D01*
X117132827Y-112516071D01*
X117087291Y-112556547D01*
X117001279Y-112597023D01*
X116879851Y-112597023D01*
X117598303Y-112030357D02*
X117527470Y-112597023D01*
X117588184Y-112111309D02*
X117633720Y-112070833D01*
X117719732Y-112030357D01*
X117841160Y-112030357D01*
X117917053Y-112070833D01*
X117947410Y-112151785D01*
X117891755Y-112597023D01*
X104103571Y-95384523D02*
X104103571Y-94534523D01*
X104508333Y-94817857D02*
X104508333Y-95384523D01*
X104508333Y-94898809D02*
X104548809Y-94858333D01*
X104629761Y-94817857D01*
X104751190Y-94817857D01*
X104832142Y-94858333D01*
X104872619Y-94939285D01*
X104872619Y-95384523D01*
X105277380Y-94817857D02*
X105277380Y-95667857D01*
X105277380Y-94858333D02*
X105358333Y-94817857D01*
X105520238Y-94817857D01*
X105601190Y-94858333D01*
X105641666Y-94898809D01*
X105682142Y-94979761D01*
X105682142Y-95222619D01*
X105641666Y-95303571D01*
X105601190Y-95344047D01*
X105520238Y-95384523D01*
X105358333Y-95384523D01*
X105277380Y-95344047D01*
X106410714Y-94817857D02*
X106410714Y-95384523D01*
X106046428Y-94817857D02*
X106046428Y-95263095D01*
X106086904Y-95344047D01*
X106167857Y-95384523D01*
X106289285Y-95384523D01*
X106370238Y-95344047D01*
X106410714Y-95303571D01*
X106694047Y-94817857D02*
X107017857Y-94817857D01*
X106815476Y-94534523D02*
X106815476Y-95263095D01*
X106855952Y-95344047D01*
X106936904Y-95384523D01*
X107017857Y-95384523D01*
D11*
X107000000Y-76500000D02*
X107000000Y-77000000D01*
X107000000Y-76500000D02*
X106500000Y-76500000D01*
X111000000Y-77000000D02*
X111500000Y-77000000D01*
X110500000Y-76500000D02*
X111000000Y-77000000D01*
X110500000Y-76500000D02*
X111000000Y-76500000D01*
X110500000Y-77000000D02*
X110500000Y-76500000D01*
X110500000Y-76500000D02*
X110500000Y-77000000D01*
X107000000Y-76500000D02*
X106500000Y-77000000D01*
D10*
X111407142Y-77560714D02*
X112054761Y-77560714D01*
X112864285Y-77034523D02*
X112459523Y-77034523D01*
X112419047Y-77439285D01*
X112459523Y-77398809D01*
X112540476Y-77358333D01*
X112742857Y-77358333D01*
X112823809Y-77398809D01*
X112864285Y-77439285D01*
X112904761Y-77520238D01*
X112904761Y-77722619D01*
X112864285Y-77803571D01*
X112823809Y-77844047D01*
X112742857Y-77884523D01*
X112540476Y-77884523D01*
X112459523Y-77844047D01*
X112419047Y-77803571D01*
X113147619Y-77034523D02*
X113430952Y-77884523D01*
X113714285Y-77034523D01*
X104407142Y-77560714D02*
X105054761Y-77560714D01*
X104730952Y-77884523D02*
X104730952Y-77236904D01*
X105864285Y-77034523D02*
X105459523Y-77034523D01*
X105419047Y-77439285D01*
X105459523Y-77398809D01*
X105540476Y-77358333D01*
X105742857Y-77358333D01*
X105823809Y-77398809D01*
X105864285Y-77439285D01*
X105904761Y-77520238D01*
X105904761Y-77722619D01*
X105864285Y-77803571D01*
X105823809Y-77844047D01*
X105742857Y-77884523D01*
X105540476Y-77884523D01*
X105459523Y-77844047D01*
X105419047Y-77803571D01*
X106147619Y-77034523D02*
X106430952Y-77884523D01*
X106714285Y-77034523D01*
X138302380Y-111071428D02*
X139016666Y-111071428D01*
X139159523Y-111119047D01*
X139254761Y-111214285D01*
X139302380Y-111357142D01*
X139302380Y-111452380D01*
X138635714Y-110166666D02*
X139302380Y-110166666D01*
X138635714Y-110595238D02*
X139159523Y-110595238D01*
X139254761Y-110547619D01*
X139302380Y-110452380D01*
X139302380Y-110309523D01*
X139254761Y-110214285D01*
X139207142Y-110166666D01*
X139302380Y-109690476D02*
X138635714Y-109690476D01*
X138730952Y-109690476D02*
X138683333Y-109642857D01*
X138635714Y-109547619D01*
X138635714Y-109404761D01*
X138683333Y-109309523D01*
X138778571Y-109261904D01*
X139302380Y-109261904D01*
X138778571Y-109261904D02*
X138683333Y-109214285D01*
X138635714Y-109119047D01*
X138635714Y-108976190D01*
X138683333Y-108880952D01*
X138778571Y-108833333D01*
X139302380Y-108833333D01*
X138635714Y-108357142D02*
X139635714Y-108357142D01*
X138683333Y-108357142D02*
X138635714Y-108261904D01*
X138635714Y-108071428D01*
X138683333Y-107976190D01*
X138730952Y-107928571D01*
X138826190Y-107880952D01*
X139111904Y-107880952D01*
X139207142Y-107928571D01*
X139254761Y-107976190D01*
X139302380Y-108071428D01*
X139302380Y-108261904D01*
X139254761Y-108357142D01*
X139254761Y-107071428D02*
X139302380Y-107166666D01*
X139302380Y-107357142D01*
X139254761Y-107452380D01*
X139159523Y-107500000D01*
X138778571Y-107500000D01*
X138683333Y-107452380D01*
X138635714Y-107357142D01*
X138635714Y-107166666D01*
X138683333Y-107071428D01*
X138778571Y-107023809D01*
X138873809Y-107023809D01*
X138969047Y-107500000D01*
X139302380Y-106595238D02*
X138635714Y-106595238D01*
X138826190Y-106595238D02*
X138730952Y-106547619D01*
X138683333Y-106500000D01*
X138635714Y-106404761D01*
X138635714Y-106309523D01*
X139254761Y-106023809D02*
X139302380Y-105928571D01*
X139302380Y-105738095D01*
X139254761Y-105642857D01*
X139159523Y-105595238D01*
X139111904Y-105595238D01*
X139016666Y-105642857D01*
X138969047Y-105738095D01*
X138969047Y-105880952D01*
X138921428Y-105976190D01*
X138826190Y-106023809D01*
X138778571Y-106023809D01*
X138683333Y-105976190D01*
X138635714Y-105880952D01*
X138635714Y-105738095D01*
X138683333Y-105642857D01*
X140904761Y-110357142D02*
X140952380Y-110452380D01*
X140952380Y-110642857D01*
X140904761Y-110738095D01*
X140809523Y-110785714D01*
X140428571Y-110785714D01*
X140333333Y-110738095D01*
X140285714Y-110642857D01*
X140285714Y-110452380D01*
X140333333Y-110357142D01*
X140428571Y-110309523D01*
X140523809Y-110309523D01*
X140619047Y-110785714D01*
X140285714Y-109880952D02*
X140952380Y-109880952D01*
X140380952Y-109880952D02*
X140333333Y-109833333D01*
X140285714Y-109738095D01*
X140285714Y-109595238D01*
X140333333Y-109500000D01*
X140428571Y-109452380D01*
X140952380Y-109452380D01*
X140952380Y-108547619D02*
X140428571Y-108547619D01*
X140333333Y-108595238D01*
X140285714Y-108690476D01*
X140285714Y-108880952D01*
X140333333Y-108976190D01*
X140904761Y-108547619D02*
X140952380Y-108642857D01*
X140952380Y-108880952D01*
X140904761Y-108976190D01*
X140809523Y-109023809D01*
X140714285Y-109023809D01*
X140619047Y-108976190D01*
X140571428Y-108880952D01*
X140571428Y-108642857D01*
X140523809Y-108547619D01*
X140952380Y-108071428D02*
X139952380Y-108071428D01*
X140333333Y-108071428D02*
X140285714Y-107976190D01*
X140285714Y-107785714D01*
X140333333Y-107690476D01*
X140380952Y-107642857D01*
X140476190Y-107595238D01*
X140761904Y-107595238D01*
X140857142Y-107642857D01*
X140904761Y-107690476D01*
X140952380Y-107785714D01*
X140952380Y-107976190D01*
X140904761Y-108071428D01*
X140952380Y-107023809D02*
X140904761Y-107119047D01*
X140809523Y-107166666D01*
X139952380Y-107166666D01*
X140904761Y-106261904D02*
X140952380Y-106357142D01*
X140952380Y-106547619D01*
X140904761Y-106642857D01*
X140809523Y-106690476D01*
X140428571Y-106690476D01*
X140333333Y-106642857D01*
X140285714Y-106547619D01*
X140285714Y-106357142D01*
X140333333Y-106261904D01*
X140428571Y-106214285D01*
X140523809Y-106214285D01*
X140619047Y-106690476D01*
X142554761Y-112452380D02*
X142602380Y-112309523D01*
X142602380Y-112071428D01*
X142554761Y-111976190D01*
X142507142Y-111928571D01*
X142411904Y-111880952D01*
X142316666Y-111880952D01*
X142221428Y-111928571D01*
X142173809Y-111976190D01*
X142126190Y-112071428D01*
X142078571Y-112261904D01*
X142030952Y-112357142D01*
X141983333Y-112404761D01*
X141888095Y-112452380D01*
X141792857Y-112452380D01*
X141697619Y-112404761D01*
X141650000Y-112357142D01*
X141602380Y-112261904D01*
X141602380Y-112023809D01*
X141650000Y-111880952D01*
X141935714Y-111023809D02*
X142602380Y-111023809D01*
X141935714Y-111452380D02*
X142459523Y-111452380D01*
X142554761Y-111404761D01*
X142602380Y-111309523D01*
X142602380Y-111166666D01*
X142554761Y-111071428D01*
X142507142Y-111023809D01*
X142602380Y-110547619D02*
X141935714Y-110547619D01*
X142030952Y-110547619D02*
X141983333Y-110500000D01*
X141935714Y-110404761D01*
X141935714Y-110261904D01*
X141983333Y-110166666D01*
X142078571Y-110119047D01*
X142602380Y-110119047D01*
X142078571Y-110119047D02*
X141983333Y-110071428D01*
X141935714Y-109976190D01*
X141935714Y-109833333D01*
X141983333Y-109738095D01*
X142078571Y-109690476D01*
X142602380Y-109690476D01*
X142602380Y-109214285D02*
X141935714Y-109214285D01*
X142030952Y-109214285D02*
X141983333Y-109166666D01*
X141935714Y-109071428D01*
X141935714Y-108928571D01*
X141983333Y-108833333D01*
X142078571Y-108785714D01*
X142602380Y-108785714D01*
X142078571Y-108785714D02*
X141983333Y-108738095D01*
X141935714Y-108642857D01*
X141935714Y-108500000D01*
X141983333Y-108404761D01*
X142078571Y-108357142D01*
X142602380Y-108357142D01*
X142602380Y-107452380D02*
X142078571Y-107452380D01*
X141983333Y-107500000D01*
X141935714Y-107595238D01*
X141935714Y-107785714D01*
X141983333Y-107880952D01*
X142554761Y-107452380D02*
X142602380Y-107547619D01*
X142602380Y-107785714D01*
X142554761Y-107880952D01*
X142459523Y-107928571D01*
X142364285Y-107928571D01*
X142269047Y-107880952D01*
X142221428Y-107785714D01*
X142221428Y-107547619D01*
X142173809Y-107452380D01*
X141935714Y-107119047D02*
X141935714Y-106738095D01*
X141602380Y-106976190D02*
X142459523Y-106976190D01*
X142554761Y-106928571D01*
X142602380Y-106833333D01*
X142602380Y-106738095D01*
X142602380Y-106404761D02*
X141935714Y-106404761D01*
X141602380Y-106404761D02*
X141650000Y-106452380D01*
X141697619Y-106404761D01*
X141650000Y-106357142D01*
X141602380Y-106404761D01*
X141697619Y-106404761D01*
X142602380Y-105785714D02*
X142554761Y-105880952D01*
X142507142Y-105928571D01*
X142411904Y-105976190D01*
X142126190Y-105976190D01*
X142030952Y-105928571D01*
X141983333Y-105880952D01*
X141935714Y-105785714D01*
X141935714Y-105642857D01*
X141983333Y-105547619D01*
X142030952Y-105500000D01*
X142126190Y-105452380D01*
X142411904Y-105452380D01*
X142507142Y-105500000D01*
X142554761Y-105547619D01*
X142602380Y-105642857D01*
X142602380Y-105785714D01*
X141935714Y-105023809D02*
X142602380Y-105023809D01*
X142030952Y-105023809D02*
X141983333Y-104976190D01*
X141935714Y-104880952D01*
X141935714Y-104738095D01*
X141983333Y-104642857D01*
X142078571Y-104595238D01*
X142602380Y-104595238D01*
X130394642Y-82605357D02*
X130323809Y-83172023D01*
X130232738Y-82281547D02*
X129954464Y-82888690D01*
X130480654Y-82888690D01*
X131416666Y-83172023D02*
X131522916Y-82322023D01*
X131846726Y-82322023D01*
X131922619Y-82362500D01*
X131958035Y-82402976D01*
X131988392Y-82483928D01*
X131973214Y-82605357D01*
X131922619Y-82686309D01*
X131877083Y-82726785D01*
X131791071Y-82767261D01*
X131467261Y-82767261D01*
X132630952Y-83172023D02*
X132686607Y-82726785D01*
X132656250Y-82645833D01*
X132580357Y-82605357D01*
X132418452Y-82605357D01*
X132332440Y-82645833D01*
X132636011Y-83131547D02*
X132550000Y-83172023D01*
X132347619Y-83172023D01*
X132271726Y-83131547D01*
X132241369Y-83050595D01*
X132251488Y-82969642D01*
X132302083Y-82888690D01*
X132388095Y-82848214D01*
X132590476Y-82848214D01*
X132676488Y-82807738D01*
X133035714Y-83172023D02*
X133106547Y-82605357D01*
X133086309Y-82767261D02*
X133136904Y-82686309D01*
X133182440Y-82645833D01*
X133268452Y-82605357D01*
X133349404Y-82605357D01*
X133926190Y-83172023D02*
X133981845Y-82726785D01*
X133951488Y-82645833D01*
X133875595Y-82605357D01*
X133713690Y-82605357D01*
X133627678Y-82645833D01*
X133931250Y-83131547D02*
X133845238Y-83172023D01*
X133642857Y-83172023D01*
X133566964Y-83131547D01*
X133536607Y-83050595D01*
X133546726Y-82969642D01*
X133597321Y-82888690D01*
X133683333Y-82848214D01*
X133885714Y-82848214D01*
X133971726Y-82807738D01*
X134452380Y-83172023D02*
X134376488Y-83131547D01*
X134346130Y-83050595D01*
X134437202Y-82322023D01*
X134897619Y-83172023D02*
X134821726Y-83131547D01*
X134791369Y-83050595D01*
X134882440Y-82322023D01*
X135550297Y-83131547D02*
X135464285Y-83172023D01*
X135302380Y-83172023D01*
X135226488Y-83131547D01*
X135196130Y-83050595D01*
X135236607Y-82726785D01*
X135287202Y-82645833D01*
X135373214Y-82605357D01*
X135535119Y-82605357D01*
X135611011Y-82645833D01*
X135641369Y-82726785D01*
X135631250Y-82807738D01*
X135216369Y-82888690D01*
X136071428Y-83172023D02*
X135995535Y-83131547D01*
X135965178Y-83050595D01*
X136056250Y-82322023D01*
X137113690Y-82605357D02*
X137007440Y-83455357D01*
X137108630Y-82645833D02*
X137194642Y-82605357D01*
X137356547Y-82605357D01*
X137432440Y-82645833D01*
X137467857Y-82686309D01*
X137498214Y-82767261D01*
X137467857Y-83010119D01*
X137417261Y-83091071D01*
X137371726Y-83131547D01*
X137285714Y-83172023D01*
X137123809Y-83172023D01*
X137047916Y-83131547D01*
X137811904Y-83172023D02*
X137882738Y-82605357D01*
X137862500Y-82767261D02*
X137913095Y-82686309D01*
X137958630Y-82645833D01*
X138044642Y-82605357D01*
X138125595Y-82605357D01*
X138666964Y-83131547D02*
X138580952Y-83172023D01*
X138419047Y-83172023D01*
X138343154Y-83131547D01*
X138312797Y-83050595D01*
X138353273Y-82726785D01*
X138403869Y-82645833D01*
X138489880Y-82605357D01*
X138651785Y-82605357D01*
X138727678Y-82645833D01*
X138758035Y-82726785D01*
X138747916Y-82807738D01*
X138333035Y-82888690D01*
X139430952Y-83172023D02*
X139486607Y-82726785D01*
X139456250Y-82645833D01*
X139380357Y-82605357D01*
X139218452Y-82605357D01*
X139132440Y-82645833D01*
X139436011Y-83131547D02*
X139350000Y-83172023D01*
X139147619Y-83172023D01*
X139071726Y-83131547D01*
X139041369Y-83050595D01*
X139051488Y-82969642D01*
X139102083Y-82888690D01*
X139188095Y-82848214D01*
X139390476Y-82848214D01*
X139476488Y-82807738D01*
X139835714Y-83172023D02*
X139906547Y-82605357D01*
X139896428Y-82686309D02*
X139941964Y-82645833D01*
X140027976Y-82605357D01*
X140149404Y-82605357D01*
X140225297Y-82645833D01*
X140255654Y-82726785D01*
X140200000Y-83172023D01*
X140255654Y-82726785D02*
X140306250Y-82645833D01*
X140392261Y-82605357D01*
X140513690Y-82605357D01*
X140589583Y-82645833D01*
X140619940Y-82726785D01*
X140564285Y-83172023D01*
X141039880Y-82605357D02*
X140933630Y-83455357D01*
X141034821Y-82645833D02*
X141120833Y-82605357D01*
X141282738Y-82605357D01*
X141358630Y-82645833D01*
X141394047Y-82686309D01*
X141424404Y-82767261D01*
X141394047Y-83010119D01*
X141343452Y-83091071D01*
X141297916Y-83131547D01*
X141211904Y-83172023D01*
X141050000Y-83172023D01*
X140974107Y-83131547D01*
X141702678Y-83131547D02*
X141778571Y-83172023D01*
X141940476Y-83172023D01*
X142026488Y-83131547D01*
X142077083Y-83050595D01*
X142082142Y-83010119D01*
X142051785Y-82929166D01*
X141975892Y-82888690D01*
X141854464Y-82888690D01*
X141778571Y-82848214D01*
X141748214Y-82767261D01*
X141753273Y-82726785D01*
X141803869Y-82645833D01*
X141889880Y-82605357D01*
X142011309Y-82605357D01*
X142087202Y-82645833D01*
X135044345Y-83747023D02*
X134958333Y-84435119D01*
X134988690Y-84516071D01*
X135024107Y-84556547D01*
X135100000Y-84597023D01*
X135261904Y-84597023D01*
X135347916Y-84556547D01*
X135393452Y-84516071D01*
X135444047Y-84435119D01*
X135530059Y-83747023D01*
X135793154Y-84556547D02*
X135869047Y-84597023D01*
X136030952Y-84597023D01*
X136116964Y-84556547D01*
X136167559Y-84475595D01*
X136172619Y-84435119D01*
X136142261Y-84354166D01*
X136066369Y-84313690D01*
X135944940Y-84313690D01*
X135869047Y-84273214D01*
X135838690Y-84192261D01*
X135843750Y-84151785D01*
X135894345Y-84070833D01*
X135980357Y-84030357D01*
X136101785Y-84030357D01*
X136177678Y-84070833D01*
X136845535Y-84556547D02*
X136759523Y-84597023D01*
X136597619Y-84597023D01*
X136521726Y-84556547D01*
X136491369Y-84475595D01*
X136531845Y-84151785D01*
X136582440Y-84070833D01*
X136668452Y-84030357D01*
X136830357Y-84030357D01*
X136906250Y-84070833D01*
X136936607Y-84151785D01*
X136926488Y-84232738D01*
X136511607Y-84313690D01*
X137933333Y-84273214D02*
X138580952Y-84273214D01*
X138216666Y-84597023D02*
X138297619Y-83949404D01*
X139663690Y-83706547D02*
X138798511Y-84799404D01*
X139876190Y-84273214D02*
X140523809Y-84273214D01*
X141399107Y-83747023D02*
X140994345Y-83747023D01*
X140903273Y-84151785D01*
X140948809Y-84111309D01*
X141034821Y-84070833D01*
X141237202Y-84070833D01*
X141313095Y-84111309D01*
X141348511Y-84151785D01*
X141378869Y-84232738D01*
X141353571Y-84435119D01*
X141302976Y-84516071D01*
X141257440Y-84556547D01*
X141171428Y-84597023D01*
X140969047Y-84597023D01*
X140893154Y-84556547D01*
X140857738Y-84516071D01*
X141682440Y-83747023D02*
X141859523Y-84597023D01*
X142249107Y-83747023D01*
D11*
%TO.C,R2*%
X134772936Y-112235000D02*
X135227064Y-112235000D01*
X134772936Y-110765000D02*
X135227064Y-110765000D01*
%TO.C,R1*%
X135272936Y-79235000D02*
X135727064Y-79235000D01*
X135272936Y-77765000D02*
X135727064Y-77765000D01*
%TO.C,D4*%
X127590000Y-112585000D02*
X131675000Y-112585000D01*
X127590000Y-110415000D02*
X127590000Y-112585000D01*
X131675000Y-110415000D02*
X127590000Y-110415000D01*
%TO.C,D3*%
X132910000Y-77415000D02*
X128825000Y-77415000D01*
X132910000Y-79585000D02*
X132910000Y-77415000D01*
X128825000Y-79585000D02*
X132910000Y-79585000D01*
%TO.C,D2*%
X118800000Y-108850000D02*
X124500000Y-108850000D01*
X118800000Y-113150000D02*
X124500000Y-113150000D01*
X118800000Y-108850000D02*
X118800000Y-113150000D01*
%TO.C,D1*%
X118800000Y-77350000D02*
X124500000Y-77350000D01*
X118800000Y-81650000D02*
X124500000Y-81650000D01*
X118800000Y-77350000D02*
X118800000Y-81650000D01*
%TO.C,C23*%
X111235000Y-79211252D02*
X111235000Y-78688748D01*
X109765000Y-79211252D02*
X109765000Y-78688748D01*
%TO.C,C22*%
X108235000Y-79211252D02*
X108235000Y-78688748D01*
X106765000Y-79211252D02*
X106765000Y-78688748D01*
%TO.C,J5*%
X102500000Y-91170000D02*
X103830000Y-91170000D01*
X103830000Y-91170000D02*
X103830000Y-92500000D01*
X103830000Y-93770000D02*
X103830000Y-98910000D01*
X101170000Y-98910000D02*
X103830000Y-98910000D01*
X101170000Y-93770000D02*
X101170000Y-98910000D01*
X101170000Y-93770000D02*
X103830000Y-93770000D01*
%TO.C,D11*%
X107760000Y-110580000D02*
X106300000Y-110580000D01*
X107760000Y-107420000D02*
X105600000Y-107420000D01*
X107760000Y-107420000D02*
X107760000Y-108350000D01*
X107760000Y-110580000D02*
X107760000Y-109650000D01*
%TO.C,JP7*%
X140750000Y-92400000D02*
X142150000Y-92400000D01*
X142850000Y-93100000D02*
X142850000Y-93700000D01*
X142150000Y-94400000D02*
X140750000Y-94400000D01*
X140050000Y-93700000D02*
X140050000Y-93100000D01*
X140050000Y-93100000D02*
G75*
G02*
X140750000Y-92400000I700000J0D01*
G01*
X140750000Y-94400000D02*
G75*
G02*
X140050000Y-93700000I0J700000D01*
G01*
X142850000Y-93700000D02*
G75*
G02*
X142150000Y-94400000I-700000J0D01*
G01*
X142150000Y-92400000D02*
G75*
G02*
X142850000Y-93100000I0J-700000D01*
G01*
%TO.C,JP5*%
X140700000Y-100200000D02*
X142100000Y-100200000D01*
X142800000Y-100900000D02*
X142800000Y-101500000D01*
X142100000Y-102200000D02*
X140700000Y-102200000D01*
X140000000Y-101500000D02*
X140000000Y-100900000D01*
X140000000Y-100900000D02*
G75*
G02*
X140700000Y-100200000I700000J0D01*
G01*
X140700000Y-102200000D02*
G75*
G02*
X140000000Y-101500000I0J700000D01*
G01*
X142800000Y-101500000D02*
G75*
G02*
X142100000Y-102200000I-700000J0D01*
G01*
X142100000Y-100200000D02*
G75*
G02*
X142800000Y-100900000I0J-700000D01*
G01*
%TO.C,JP4*%
X140750000Y-95600000D02*
X142150000Y-95600000D01*
X142850000Y-96300000D02*
X142850000Y-96900000D01*
X142150000Y-97600000D02*
X140750000Y-97600000D01*
X140050000Y-96900000D02*
X140050000Y-96300000D01*
X140050000Y-96300000D02*
G75*
G02*
X140750000Y-95600000I700000J0D01*
G01*
X140750000Y-97600000D02*
G75*
G02*
X140050000Y-96900000I0J700000D01*
G01*
X142850000Y-96900000D02*
G75*
G02*
X142150000Y-97600000I-700000J0D01*
G01*
X142150000Y-95600000D02*
G75*
G02*
X142850000Y-96300000I0J-700000D01*
G01*
%TO.C,JP3*%
X140750000Y-87800000D02*
X142150000Y-87800000D01*
X142850000Y-88500000D02*
X142850000Y-89100000D01*
X142150000Y-89800000D02*
X140750000Y-89800000D01*
X140050000Y-89100000D02*
X140050000Y-88500000D01*
X140050000Y-88500000D02*
G75*
G02*
X140750000Y-87800000I700000J0D01*
G01*
X140750000Y-89800000D02*
G75*
G02*
X140050000Y-89100000I0J700000D01*
G01*
X142850000Y-89100000D02*
G75*
G02*
X142150000Y-89800000I-700000J0D01*
G01*
X142150000Y-87800000D02*
G75*
G02*
X142850000Y-88500000I0J-700000D01*
G01*
%TO.C,J13*%
X101170000Y-78670000D02*
X102500000Y-78670000D01*
X101170000Y-80000000D02*
X101170000Y-78670000D01*
X101170000Y-81270000D02*
X103830000Y-81270000D01*
X103830000Y-81270000D02*
X103830000Y-88950000D01*
X101170000Y-81270000D02*
X101170000Y-88950000D01*
X101170000Y-88950000D02*
X103830000Y-88950000D01*
%TO.C,J12*%
X101170000Y-101170000D02*
X102500000Y-101170000D01*
X101170000Y-102500000D02*
X101170000Y-101170000D01*
X101170000Y-103770000D02*
X103830000Y-103770000D01*
X103830000Y-103770000D02*
X103830000Y-111450000D01*
X101170000Y-103770000D02*
X101170000Y-111450000D01*
X101170000Y-111450000D02*
X103830000Y-111450000D01*
%TO.C,J7*%
X143670000Y-78430000D02*
X145000000Y-78430000D01*
X143670000Y-79760000D02*
X143670000Y-78430000D01*
X143670000Y-81030000D02*
X146330000Y-81030000D01*
X146330000Y-81030000D02*
X146330000Y-111570000D01*
X143670000Y-81030000D02*
X143670000Y-111570000D01*
X143670000Y-111570000D02*
X146330000Y-111570000D01*
%TO.C,J11*%
X136170000Y-76330000D02*
X136170000Y-75000000D01*
X137500000Y-76330000D02*
X136170000Y-76330000D01*
X138770000Y-76330000D02*
X138770000Y-73670000D01*
X138770000Y-73670000D02*
X146450000Y-73670000D01*
X138770000Y-76330000D02*
X146450000Y-76330000D01*
X146450000Y-76330000D02*
X146450000Y-73670000D01*
%TO.C,J10*%
X136170000Y-116330000D02*
X136170000Y-115000000D01*
X137500000Y-116330000D02*
X136170000Y-116330000D01*
X138770000Y-116330000D02*
X138770000Y-113670000D01*
X138770000Y-113670000D02*
X146450000Y-113670000D01*
X138770000Y-116330000D02*
X146450000Y-116330000D01*
X146450000Y-116330000D02*
X146450000Y-113670000D01*
%TO.C,J8*%
X103670000Y-116330000D02*
X103670000Y-115000000D01*
X105000000Y-116330000D02*
X103670000Y-116330000D01*
X106270000Y-116330000D02*
X106270000Y-113670000D01*
X106270000Y-113670000D02*
X134270000Y-113670000D01*
X106270000Y-116330000D02*
X134270000Y-116330000D01*
X134270000Y-116330000D02*
X134270000Y-113670000D01*
%TO.C,J6*%
X103670000Y-76330000D02*
X103670000Y-75000000D01*
X105000000Y-76330000D02*
X103670000Y-76330000D01*
X106270000Y-76330000D02*
X106270000Y-73670000D01*
X106270000Y-73670000D02*
X134270000Y-73670000D01*
X106270000Y-76330000D02*
X134270000Y-76330000D01*
X134270000Y-76330000D02*
X134270000Y-73670000D01*
%TO.C,C8*%
X115003752Y-102985000D02*
X114481248Y-102985000D01*
X115003752Y-101515000D02*
X114481248Y-101515000D01*
%TO.C,C4*%
X125085000Y-91538748D02*
X125085000Y-92061252D01*
X123615000Y-91538748D02*
X123615000Y-92061252D01*
%TO.C,C20*%
X133586252Y-89485000D02*
X133063748Y-89485000D01*
X133586252Y-88015000D02*
X133063748Y-88015000D01*
%TO.C,C19*%
X133586252Y-101985000D02*
X133063748Y-101985000D01*
X133586252Y-100515000D02*
X133063748Y-100515000D01*
%TO.C,C18*%
X133586252Y-96985000D02*
X133063748Y-96985000D01*
X133586252Y-95515000D02*
X133063748Y-95515000D01*
%TO.C,C17*%
X133586252Y-94485000D02*
X133063748Y-94485000D01*
X133586252Y-93015000D02*
X133063748Y-93015000D01*
%TO.C,C16*%
X117615000Y-100961252D02*
X117615000Y-100438748D01*
X119085000Y-100961252D02*
X119085000Y-100438748D01*
%TO.C,C15*%
X119085000Y-88538748D02*
X119085000Y-89061252D01*
X117615000Y-88538748D02*
X117615000Y-89061252D01*
%TO.C,C14*%
X121115000Y-102461252D02*
X121115000Y-101938748D01*
X122585000Y-102461252D02*
X122585000Y-101938748D01*
%TO.C,C13*%
X122585000Y-87538748D02*
X122585000Y-88061252D01*
X121115000Y-87538748D02*
X121115000Y-88061252D01*
%TO.C,C12*%
X123615000Y-106511252D02*
X123615000Y-105988748D01*
X125085000Y-106511252D02*
X125085000Y-105988748D01*
%TO.C,C11*%
X125085000Y-83538748D02*
X125085000Y-84061252D01*
X123615000Y-83538748D02*
X123615000Y-84061252D01*
%TO.C,C10*%
X115178752Y-87985000D02*
X114656248Y-87985000D01*
X115178752Y-86515000D02*
X114656248Y-86515000D01*
%TO.C,C9*%
X111178752Y-87985000D02*
X110656248Y-87985000D01*
X111178752Y-86515000D02*
X110656248Y-86515000D01*
%TO.C,C7*%
X111178752Y-102985000D02*
X110656248Y-102985000D01*
X111178752Y-101515000D02*
X110656248Y-101515000D01*
%TO.C,C6*%
X123615000Y-98486252D02*
X123615000Y-97963748D01*
X125085000Y-98486252D02*
X125085000Y-97963748D01*
%TO.C,C5*%
X115003752Y-105985000D02*
X114481248Y-105985000D01*
X115003752Y-104515000D02*
X114481248Y-104515000D01*
%TO.C,C3*%
X115178752Y-84985000D02*
X114656248Y-84985000D01*
X115178752Y-83515000D02*
X114656248Y-83515000D01*
%TO.C,R32*%
X138077064Y-89485000D02*
X137622936Y-89485000D01*
X138077064Y-88015000D02*
X137622936Y-88015000D01*
%TO.C,R31*%
X133117936Y-86015000D02*
X133572064Y-86015000D01*
X133117936Y-87485000D02*
X133572064Y-87485000D01*
%TO.C,R30*%
X129164564Y-89485000D02*
X128710436Y-89485000D01*
X129164564Y-88015000D02*
X128710436Y-88015000D01*
%TO.C,R29*%
X138077064Y-101985000D02*
X137622936Y-101985000D01*
X138077064Y-100515000D02*
X137622936Y-100515000D01*
%TO.C,R28*%
X133117936Y-103015000D02*
X133572064Y-103015000D01*
X133117936Y-104485000D02*
X133572064Y-104485000D01*
%TO.C,R27*%
X129164564Y-101985000D02*
X128710436Y-101985000D01*
X129164564Y-100515000D02*
X128710436Y-100515000D01*
%TO.C,R26*%
X138077064Y-96985000D02*
X137622936Y-96985000D01*
X138077064Y-95515000D02*
X137622936Y-95515000D01*
%TO.C,R25*%
X133117936Y-97515000D02*
X133572064Y-97515000D01*
X133117936Y-98985000D02*
X133572064Y-98985000D01*
%TO.C,R24*%
X129164564Y-96985000D02*
X128710436Y-96985000D01*
X129164564Y-95515000D02*
X128710436Y-95515000D01*
%TO.C,R23*%
X138077064Y-94485000D02*
X137622936Y-94485000D01*
X138077064Y-93015000D02*
X137622936Y-93015000D01*
%TO.C,R22*%
X133117936Y-91015000D02*
X133572064Y-91015000D01*
X133117936Y-92485000D02*
X133572064Y-92485000D01*
%TO.C,R21*%
X129164564Y-94485000D02*
X128710436Y-94485000D01*
X129164564Y-93015000D02*
X128710436Y-93015000D01*
%TO.C,R19*%
X115164564Y-90485000D02*
X114710436Y-90485000D01*
X115164564Y-89015000D02*
X114710436Y-89015000D01*
%TO.C,R20*%
X113035436Y-92515000D02*
X113489564Y-92515000D01*
X113035436Y-93985000D02*
X113489564Y-93985000D01*
%TO.C,R18*%
X110710436Y-89015000D02*
X111164564Y-89015000D01*
X110710436Y-90485000D02*
X111164564Y-90485000D01*
%TO.C,R17*%
X107664564Y-87985000D02*
X107210436Y-87985000D01*
X107664564Y-86515000D02*
X107210436Y-86515000D01*
%TO.C,R16*%
X113035436Y-96015000D02*
X113489564Y-96015000D01*
X113035436Y-97485000D02*
X113489564Y-97485000D01*
%TO.C,R15*%
X114989564Y-100485000D02*
X114535436Y-100485000D01*
X114989564Y-99015000D02*
X114535436Y-99015000D01*
%TO.C,R14*%
X110710436Y-99015000D02*
X111164564Y-99015000D01*
X110710436Y-100485000D02*
X111164564Y-100485000D01*
%TO.C,R13*%
X107664564Y-102985000D02*
X107210436Y-102985000D01*
X107664564Y-101515000D02*
X107210436Y-101515000D01*
%TO.C,R12*%
X123615000Y-102389564D02*
X123615000Y-101935436D01*
X125085000Y-102389564D02*
X125085000Y-101935436D01*
%TO.C,R11*%
X121115000Y-98389564D02*
X121115000Y-97935436D01*
X122585000Y-98389564D02*
X122585000Y-97935436D01*
%TO.C,R10*%
X114535436Y-107015000D02*
X114989564Y-107015000D01*
X114535436Y-108485000D02*
X114989564Y-108485000D01*
%TO.C,R9*%
X111164564Y-105985000D02*
X110710436Y-105985000D01*
X111164564Y-104515000D02*
X110710436Y-104515000D01*
%TO.C,R8*%
X125085000Y-87610436D02*
X125085000Y-88064564D01*
X123615000Y-87610436D02*
X123615000Y-88064564D01*
%TO.C,R7*%
X122585000Y-91610436D02*
X122585000Y-92064564D01*
X121115000Y-91610436D02*
X121115000Y-92064564D01*
%TO.C,R6*%
X114710436Y-81015000D02*
X115164564Y-81015000D01*
X114710436Y-82485000D02*
X115164564Y-82485000D01*
%TO.C,R5*%
X111164564Y-84985000D02*
X110710436Y-84985000D01*
X111164564Y-83515000D02*
X110710436Y-83515000D01*
%TO.C,U1*%
X115070000Y-94830225D02*
X115070000Y-97030225D01*
X115070000Y-94830225D02*
X115070000Y-92630225D01*
X120290000Y-94830225D02*
X120290000Y-97030225D01*
X120290000Y-94830225D02*
X120290000Y-91230225D01*
%TO.C,R2*%
D10*
X134833333Y-110302380D02*
X134500000Y-109826190D01*
X134261904Y-110302380D02*
X134261904Y-109302380D01*
X134642857Y-109302380D01*
X134738095Y-109350000D01*
X134785714Y-109397619D01*
X134833333Y-109492857D01*
X134833333Y-109635714D01*
X134785714Y-109730952D01*
X134738095Y-109778571D01*
X134642857Y-109826190D01*
X134261904Y-109826190D01*
X135214285Y-109397619D02*
X135261904Y-109350000D01*
X135357142Y-109302380D01*
X135595238Y-109302380D01*
X135690476Y-109350000D01*
X135738095Y-109397619D01*
X135785714Y-109492857D01*
X135785714Y-109588095D01*
X135738095Y-109730952D01*
X135166666Y-110302380D01*
X135785714Y-110302380D01*
%TO.C,R1*%
X135333333Y-80952380D02*
X135000000Y-80476190D01*
X134761904Y-80952380D02*
X134761904Y-79952380D01*
X135142857Y-79952380D01*
X135238095Y-80000000D01*
X135285714Y-80047619D01*
X135333333Y-80142857D01*
X135333333Y-80285714D01*
X135285714Y-80380952D01*
X135238095Y-80428571D01*
X135142857Y-80476190D01*
X134761904Y-80476190D01*
X136285714Y-80952380D02*
X135714285Y-80952380D01*
X136000000Y-80952380D02*
X136000000Y-79952380D01*
X135904761Y-80095238D01*
X135809523Y-80190476D01*
X135714285Y-80238095D01*
%TO.C,D4*%
X129336904Y-110172380D02*
X129336904Y-109172380D01*
X129575000Y-109172380D01*
X129717857Y-109220000D01*
X129813095Y-109315238D01*
X129860714Y-109410476D01*
X129908333Y-109600952D01*
X129908333Y-109743809D01*
X129860714Y-109934285D01*
X129813095Y-110029523D01*
X129717857Y-110124761D01*
X129575000Y-110172380D01*
X129336904Y-110172380D01*
X130765476Y-109505714D02*
X130765476Y-110172380D01*
X130527380Y-109124761D02*
X130289285Y-109839047D01*
X130908333Y-109839047D01*
%TO.C,D3*%
X130261904Y-80952380D02*
X130261904Y-79952380D01*
X130500000Y-79952380D01*
X130642857Y-80000000D01*
X130738095Y-80095238D01*
X130785714Y-80190476D01*
X130833333Y-80380952D01*
X130833333Y-80523809D01*
X130785714Y-80714285D01*
X130738095Y-80809523D01*
X130642857Y-80904761D01*
X130500000Y-80952380D01*
X130261904Y-80952380D01*
X131166666Y-79952380D02*
X131785714Y-79952380D01*
X131452380Y-80333333D01*
X131595238Y-80333333D01*
X131690476Y-80380952D01*
X131738095Y-80428571D01*
X131785714Y-80523809D01*
X131785714Y-80761904D01*
X131738095Y-80857142D01*
X131690476Y-80904761D01*
X131595238Y-80952380D01*
X131309523Y-80952380D01*
X131214285Y-80904761D01*
X131166666Y-80857142D01*
%TO.C,D2*%
X121611904Y-108452380D02*
X121611904Y-107452380D01*
X121850000Y-107452380D01*
X121992857Y-107500000D01*
X122088095Y-107595238D01*
X122135714Y-107690476D01*
X122183333Y-107880952D01*
X122183333Y-108023809D01*
X122135714Y-108214285D01*
X122088095Y-108309523D01*
X121992857Y-108404761D01*
X121850000Y-108452380D01*
X121611904Y-108452380D01*
X122564285Y-107547619D02*
X122611904Y-107500000D01*
X122707142Y-107452380D01*
X122945238Y-107452380D01*
X123040476Y-107500000D01*
X123088095Y-107547619D01*
X123135714Y-107642857D01*
X123135714Y-107738095D01*
X123088095Y-107880952D01*
X122516666Y-108452380D01*
X123135714Y-108452380D01*
%TO.C,D1*%
X117261904Y-79952380D02*
X117261904Y-78952380D01*
X117500000Y-78952380D01*
X117642857Y-79000000D01*
X117738095Y-79095238D01*
X117785714Y-79190476D01*
X117833333Y-79380952D01*
X117833333Y-79523809D01*
X117785714Y-79714285D01*
X117738095Y-79809523D01*
X117642857Y-79904761D01*
X117500000Y-79952380D01*
X117261904Y-79952380D01*
X118785714Y-79952380D02*
X118214285Y-79952380D01*
X118500000Y-79952380D02*
X118500000Y-78952380D01*
X118404761Y-79095238D01*
X118309523Y-79190476D01*
X118214285Y-79238095D01*
%TO.C,C23*%
X109857142Y-81857142D02*
X109809523Y-81904761D01*
X109666666Y-81952380D01*
X109571428Y-81952380D01*
X109428571Y-81904761D01*
X109333333Y-81809523D01*
X109285714Y-81714285D01*
X109238095Y-81523809D01*
X109238095Y-81380952D01*
X109285714Y-81190476D01*
X109333333Y-81095238D01*
X109428571Y-81000000D01*
X109571428Y-80952380D01*
X109666666Y-80952380D01*
X109809523Y-81000000D01*
X109857142Y-81047619D01*
X110238095Y-81047619D02*
X110285714Y-81000000D01*
X110380952Y-80952380D01*
X110619047Y-80952380D01*
X110714285Y-81000000D01*
X110761904Y-81047619D01*
X110809523Y-81142857D01*
X110809523Y-81238095D01*
X110761904Y-81380952D01*
X110190476Y-81952380D01*
X110809523Y-81952380D01*
X111142857Y-80952380D02*
X111761904Y-80952380D01*
X111428571Y-81333333D01*
X111571428Y-81333333D01*
X111666666Y-81380952D01*
X111714285Y-81428571D01*
X111761904Y-81523809D01*
X111761904Y-81761904D01*
X111714285Y-81857142D01*
X111666666Y-81904761D01*
X111571428Y-81952380D01*
X111285714Y-81952380D01*
X111190476Y-81904761D01*
X111142857Y-81857142D01*
%TO.C,C22*%
X106857142Y-81857142D02*
X106809523Y-81904761D01*
X106666666Y-81952380D01*
X106571428Y-81952380D01*
X106428571Y-81904761D01*
X106333333Y-81809523D01*
X106285714Y-81714285D01*
X106238095Y-81523809D01*
X106238095Y-81380952D01*
X106285714Y-81190476D01*
X106333333Y-81095238D01*
X106428571Y-81000000D01*
X106571428Y-80952380D01*
X106666666Y-80952380D01*
X106809523Y-81000000D01*
X106857142Y-81047619D01*
X107238095Y-81047619D02*
X107285714Y-81000000D01*
X107380952Y-80952380D01*
X107619047Y-80952380D01*
X107714285Y-81000000D01*
X107761904Y-81047619D01*
X107809523Y-81142857D01*
X107809523Y-81238095D01*
X107761904Y-81380952D01*
X107190476Y-81952380D01*
X107809523Y-81952380D01*
X108190476Y-81047619D02*
X108238095Y-81000000D01*
X108333333Y-80952380D01*
X108571428Y-80952380D01*
X108666666Y-81000000D01*
X108714285Y-81047619D01*
X108761904Y-81142857D01*
X108761904Y-81238095D01*
X108714285Y-81380952D01*
X108142857Y-81952380D01*
X108761904Y-81952380D01*
%TO.C,J5*%
X102166666Y-89182380D02*
X102166666Y-89896666D01*
X102119047Y-90039523D01*
X102023809Y-90134761D01*
X101880952Y-90182380D01*
X101785714Y-90182380D01*
X103119047Y-89182380D02*
X102642857Y-89182380D01*
X102595238Y-89658571D01*
X102642857Y-89610952D01*
X102738095Y-89563333D01*
X102976190Y-89563333D01*
X103071428Y-89610952D01*
X103119047Y-89658571D01*
X103166666Y-89753809D01*
X103166666Y-89991904D01*
X103119047Y-90087142D01*
X103071428Y-90134761D01*
X102976190Y-90182380D01*
X102738095Y-90182380D01*
X102642857Y-90134761D01*
X102595238Y-90087142D01*
%TO.C,D11*%
X105785714Y-106952380D02*
X105785714Y-105952380D01*
X106023809Y-105952380D01*
X106166666Y-106000000D01*
X106261904Y-106095238D01*
X106309523Y-106190476D01*
X106357142Y-106380952D01*
X106357142Y-106523809D01*
X106309523Y-106714285D01*
X106261904Y-106809523D01*
X106166666Y-106904761D01*
X106023809Y-106952380D01*
X105785714Y-106952380D01*
X107309523Y-106952380D02*
X106738095Y-106952380D01*
X107023809Y-106952380D02*
X107023809Y-105952380D01*
X106928571Y-106095238D01*
X106833333Y-106190476D01*
X106738095Y-106238095D01*
X108261904Y-106952380D02*
X107690476Y-106952380D01*
X107976190Y-106952380D02*
X107976190Y-105952380D01*
X107880952Y-106095238D01*
X107785714Y-106190476D01*
X107690476Y-106238095D01*
%TO.C,JP7*%
X140741666Y-91134523D02*
X140741666Y-91741666D01*
X140701190Y-91863095D01*
X140620238Y-91944047D01*
X140498809Y-91984523D01*
X140417857Y-91984523D01*
X141146428Y-91984523D02*
X141146428Y-91134523D01*
X141470238Y-91134523D01*
X141551190Y-91175000D01*
X141591666Y-91215476D01*
X141632142Y-91296428D01*
X141632142Y-91417857D01*
X141591666Y-91498809D01*
X141551190Y-91539285D01*
X141470238Y-91579761D01*
X141146428Y-91579761D01*
X141915476Y-91134523D02*
X142482142Y-91134523D01*
X142117857Y-91984523D01*
%TO.C,JP5*%
X140691666Y-102934523D02*
X140691666Y-103541666D01*
X140651190Y-103663095D01*
X140570238Y-103744047D01*
X140448809Y-103784523D01*
X140367857Y-103784523D01*
X141096428Y-103784523D02*
X141096428Y-102934523D01*
X141420238Y-102934523D01*
X141501190Y-102975000D01*
X141541666Y-103015476D01*
X141582142Y-103096428D01*
X141582142Y-103217857D01*
X141541666Y-103298809D01*
X141501190Y-103339285D01*
X141420238Y-103379761D01*
X141096428Y-103379761D01*
X142351190Y-102934523D02*
X141946428Y-102934523D01*
X141905952Y-103339285D01*
X141946428Y-103298809D01*
X142027380Y-103258333D01*
X142229761Y-103258333D01*
X142310714Y-103298809D01*
X142351190Y-103339285D01*
X142391666Y-103420238D01*
X142391666Y-103622619D01*
X142351190Y-103703571D01*
X142310714Y-103744047D01*
X142229761Y-103784523D01*
X142027380Y-103784523D01*
X141946428Y-103744047D01*
X141905952Y-103703571D01*
%TO.C,JP4*%
X140741666Y-98134523D02*
X140741666Y-98741666D01*
X140701190Y-98863095D01*
X140620238Y-98944047D01*
X140498809Y-98984523D01*
X140417857Y-98984523D01*
X141146428Y-98984523D02*
X141146428Y-98134523D01*
X141470238Y-98134523D01*
X141551190Y-98175000D01*
X141591666Y-98215476D01*
X141632142Y-98296428D01*
X141632142Y-98417857D01*
X141591666Y-98498809D01*
X141551190Y-98539285D01*
X141470238Y-98579761D01*
X141146428Y-98579761D01*
X142360714Y-98417857D02*
X142360714Y-98984523D01*
X142158333Y-98094047D02*
X141955952Y-98701190D01*
X142482142Y-98701190D01*
%TO.C,JP3*%
X140741666Y-86534523D02*
X140741666Y-87141666D01*
X140701190Y-87263095D01*
X140620238Y-87344047D01*
X140498809Y-87384523D01*
X140417857Y-87384523D01*
X141146428Y-87384523D02*
X141146428Y-86534523D01*
X141470238Y-86534523D01*
X141551190Y-86575000D01*
X141591666Y-86615476D01*
X141632142Y-86696428D01*
X141632142Y-86817857D01*
X141591666Y-86898809D01*
X141551190Y-86939285D01*
X141470238Y-86979761D01*
X141146428Y-86979761D01*
X141915476Y-86534523D02*
X142441666Y-86534523D01*
X142158333Y-86858333D01*
X142279761Y-86858333D01*
X142360714Y-86898809D01*
X142401190Y-86939285D01*
X142441666Y-87020238D01*
X142441666Y-87222619D01*
X142401190Y-87303571D01*
X142360714Y-87344047D01*
X142279761Y-87384523D01*
X142036904Y-87384523D01*
X141955952Y-87344047D01*
X141915476Y-87303571D01*
%TO.C,J13*%
X101534523Y-77688095D02*
X102141666Y-77688095D01*
X102263095Y-77728571D01*
X102344047Y-77809523D01*
X102384523Y-77930952D01*
X102384523Y-78011904D01*
X102384523Y-76838095D02*
X102384523Y-77323809D01*
X102384523Y-77080952D02*
X101534523Y-77080952D01*
X101655952Y-77161904D01*
X101736904Y-77242857D01*
X101777380Y-77323809D01*
X101534523Y-76554761D02*
X101534523Y-76028571D01*
X101858333Y-76311904D01*
X101858333Y-76190476D01*
X101898809Y-76109523D01*
X101939285Y-76069047D01*
X102020238Y-76028571D01*
X102222619Y-76028571D01*
X102303571Y-76069047D01*
X102344047Y-76109523D01*
X102384523Y-76190476D01*
X102384523Y-76433333D01*
X102344047Y-76514285D01*
X102303571Y-76554761D01*
%TO.C,J12*%
X99534523Y-103188095D02*
X100141666Y-103188095D01*
X100263095Y-103228571D01*
X100344047Y-103309523D01*
X100384523Y-103430952D01*
X100384523Y-103511904D01*
X100384523Y-102338095D02*
X100384523Y-102823809D01*
X100384523Y-102580952D02*
X99534523Y-102580952D01*
X99655952Y-102661904D01*
X99736904Y-102742857D01*
X99777380Y-102823809D01*
X99615476Y-102014285D02*
X99575000Y-101973809D01*
X99534523Y-101892857D01*
X99534523Y-101690476D01*
X99575000Y-101609523D01*
X99615476Y-101569047D01*
X99696428Y-101528571D01*
X99777380Y-101528571D01*
X99898809Y-101569047D01*
X100384523Y-102054761D01*
X100384523Y-101528571D01*
%TO.C,J7*%
X144716666Y-76964523D02*
X144716666Y-77571666D01*
X144676190Y-77693095D01*
X144595238Y-77774047D01*
X144473809Y-77814523D01*
X144392857Y-77814523D01*
X145040476Y-76964523D02*
X145607142Y-76964523D01*
X145242857Y-77814523D01*
%TO.C,J11*%
X136561904Y-71784523D02*
X136561904Y-72391666D01*
X136521428Y-72513095D01*
X136440476Y-72594047D01*
X136319047Y-72634523D01*
X136238095Y-72634523D01*
X137411904Y-72634523D02*
X136926190Y-72634523D01*
X137169047Y-72634523D02*
X137169047Y-71784523D01*
X137088095Y-71905952D01*
X137007142Y-71986904D01*
X136926190Y-72027380D01*
X138221428Y-72634523D02*
X137735714Y-72634523D01*
X137978571Y-72634523D02*
X137978571Y-71784523D01*
X137897619Y-71905952D01*
X137816666Y-71986904D01*
X137735714Y-72027380D01*
%TO.C,J10*%
X136811904Y-117034523D02*
X136811904Y-117641666D01*
X136771428Y-117763095D01*
X136690476Y-117844047D01*
X136569047Y-117884523D01*
X136488095Y-117884523D01*
X137661904Y-117884523D02*
X137176190Y-117884523D01*
X137419047Y-117884523D02*
X137419047Y-117034523D01*
X137338095Y-117155952D01*
X137257142Y-117236904D01*
X137176190Y-117277380D01*
X138188095Y-117034523D02*
X138269047Y-117034523D01*
X138350000Y-117075000D01*
X138390476Y-117115476D01*
X138430952Y-117196428D01*
X138471428Y-117358333D01*
X138471428Y-117560714D01*
X138430952Y-117722619D01*
X138390476Y-117803571D01*
X138350000Y-117844047D01*
X138269047Y-117884523D01*
X138188095Y-117884523D01*
X138107142Y-117844047D01*
X138066666Y-117803571D01*
X138026190Y-117722619D01*
X137985714Y-117560714D01*
X137985714Y-117358333D01*
X138026190Y-117196428D01*
X138066666Y-117115476D01*
X138107142Y-117075000D01*
X138188095Y-117034523D01*
%TO.C,J8*%
X102204523Y-115283333D02*
X102811666Y-115283333D01*
X102933095Y-115323809D01*
X103014047Y-115404761D01*
X103054523Y-115526190D01*
X103054523Y-115607142D01*
X102568809Y-114757142D02*
X102528333Y-114838095D01*
X102487857Y-114878571D01*
X102406904Y-114919047D01*
X102366428Y-114919047D01*
X102285476Y-114878571D01*
X102245000Y-114838095D01*
X102204523Y-114757142D01*
X102204523Y-114595238D01*
X102245000Y-114514285D01*
X102285476Y-114473809D01*
X102366428Y-114433333D01*
X102406904Y-114433333D01*
X102487857Y-114473809D01*
X102528333Y-114514285D01*
X102568809Y-114595238D01*
X102568809Y-114757142D01*
X102609285Y-114838095D01*
X102649761Y-114878571D01*
X102730714Y-114919047D01*
X102892619Y-114919047D01*
X102973571Y-114878571D01*
X103014047Y-114838095D01*
X103054523Y-114757142D01*
X103054523Y-114595238D01*
X103014047Y-114514285D01*
X102973571Y-114473809D01*
X102892619Y-114433333D01*
X102730714Y-114433333D01*
X102649761Y-114473809D01*
X102609285Y-114514285D01*
X102568809Y-114595238D01*
%TO.C,J6*%
X101716666Y-74534523D02*
X101716666Y-75141666D01*
X101676190Y-75263095D01*
X101595238Y-75344047D01*
X101473809Y-75384523D01*
X101392857Y-75384523D01*
X102485714Y-74534523D02*
X102323809Y-74534523D01*
X102242857Y-74575000D01*
X102202380Y-74615476D01*
X102121428Y-74736904D01*
X102080952Y-74898809D01*
X102080952Y-75222619D01*
X102121428Y-75303571D01*
X102161904Y-75344047D01*
X102242857Y-75384523D01*
X102404761Y-75384523D01*
X102485714Y-75344047D01*
X102526190Y-75303571D01*
X102566666Y-75222619D01*
X102566666Y-75020238D01*
X102526190Y-74939285D01*
X102485714Y-74898809D01*
X102404761Y-74858333D01*
X102242857Y-74858333D01*
X102161904Y-74898809D01*
X102121428Y-74939285D01*
X102080952Y-75020238D01*
%TO.C,C8*%
X114600833Y-104053571D02*
X114560357Y-104094047D01*
X114438928Y-104134523D01*
X114357976Y-104134523D01*
X114236547Y-104094047D01*
X114155595Y-104013095D01*
X114115119Y-103932142D01*
X114074642Y-103770238D01*
X114074642Y-103648809D01*
X114115119Y-103486904D01*
X114155595Y-103405952D01*
X114236547Y-103325000D01*
X114357976Y-103284523D01*
X114438928Y-103284523D01*
X114560357Y-103325000D01*
X114600833Y-103365476D01*
X115086547Y-103648809D02*
X115005595Y-103608333D01*
X114965119Y-103567857D01*
X114924642Y-103486904D01*
X114924642Y-103446428D01*
X114965119Y-103365476D01*
X115005595Y-103325000D01*
X115086547Y-103284523D01*
X115248452Y-103284523D01*
X115329404Y-103325000D01*
X115369880Y-103365476D01*
X115410357Y-103446428D01*
X115410357Y-103486904D01*
X115369880Y-103567857D01*
X115329404Y-103608333D01*
X115248452Y-103648809D01*
X115086547Y-103648809D01*
X115005595Y-103689285D01*
X114965119Y-103729761D01*
X114924642Y-103810714D01*
X114924642Y-103972619D01*
X114965119Y-104053571D01*
X115005595Y-104094047D01*
X115086547Y-104134523D01*
X115248452Y-104134523D01*
X115329404Y-104094047D01*
X115369880Y-104053571D01*
X115410357Y-103972619D01*
X115410357Y-103810714D01*
X115369880Y-103729761D01*
X115329404Y-103689285D01*
X115248452Y-103648809D01*
%TO.C,C4*%
X124108333Y-94553571D02*
X124067857Y-94594047D01*
X123946428Y-94634523D01*
X123865476Y-94634523D01*
X123744047Y-94594047D01*
X123663095Y-94513095D01*
X123622619Y-94432142D01*
X123582142Y-94270238D01*
X123582142Y-94148809D01*
X123622619Y-93986904D01*
X123663095Y-93905952D01*
X123744047Y-93825000D01*
X123865476Y-93784523D01*
X123946428Y-93784523D01*
X124067857Y-93825000D01*
X124108333Y-93865476D01*
X124836904Y-94067857D02*
X124836904Y-94634523D01*
X124634523Y-93744047D02*
X124432142Y-94351190D01*
X124958333Y-94351190D01*
%TO.C,C20*%
X129724993Y-87239686D02*
X129669701Y-87254501D01*
X129544303Y-87228840D01*
X129474196Y-87188364D01*
X129389274Y-87092596D01*
X129359643Y-86982013D01*
X129365066Y-86891668D01*
X129410965Y-86731217D01*
X129471679Y-86626056D01*
X129587685Y-86506081D01*
X129663215Y-86456212D01*
X129773798Y-86426582D01*
X129899196Y-86452242D01*
X129969303Y-86492719D01*
X130054225Y-86588486D01*
X130069040Y-86643778D01*
X130349468Y-86805683D02*
X130404759Y-86790867D01*
X130495104Y-86796290D01*
X130670371Y-86897481D01*
X130720240Y-86973010D01*
X130735055Y-87028302D01*
X130729632Y-87118647D01*
X130689156Y-87188753D01*
X130593388Y-87273676D01*
X129929890Y-87451459D01*
X130385585Y-87714555D01*
X131266279Y-87241528D02*
X131336386Y-87282004D01*
X131386255Y-87357534D01*
X131401070Y-87412825D01*
X131395647Y-87503170D01*
X131349748Y-87663622D01*
X131248558Y-87838889D01*
X131132552Y-87958865D01*
X131057022Y-88008733D01*
X131001731Y-88023549D01*
X130911386Y-88018126D01*
X130841279Y-87977650D01*
X130791410Y-87902120D01*
X130776595Y-87846829D01*
X130782018Y-87756484D01*
X130827917Y-87596032D01*
X130929107Y-87420765D01*
X131045113Y-87300789D01*
X131120643Y-87250921D01*
X131175934Y-87236105D01*
X131266279Y-87241528D01*
%TO.C,C19*%
X129928564Y-103536114D02*
X129913749Y-103591406D01*
X129828827Y-103687174D01*
X129758720Y-103727650D01*
X129633322Y-103753311D01*
X129522739Y-103723680D01*
X129447209Y-103673811D01*
X129331203Y-103553836D01*
X129270489Y-103448676D01*
X129224590Y-103288224D01*
X129219167Y-103197879D01*
X129248798Y-103087296D01*
X129333720Y-102991528D01*
X129403827Y-102951052D01*
X129529225Y-102925391D01*
X129584517Y-102940206D01*
X130670109Y-103201459D02*
X130249468Y-103444316D01*
X130459788Y-103322888D02*
X130034788Y-102586766D01*
X130025396Y-102732403D01*
X129995765Y-102842986D01*
X129945896Y-102918515D01*
X131020643Y-102999078D02*
X131160856Y-102918126D01*
X131210725Y-102842596D01*
X131225540Y-102787305D01*
X131234933Y-102641668D01*
X131189034Y-102481217D01*
X131027129Y-102200789D01*
X130951600Y-102150921D01*
X130896308Y-102136105D01*
X130805963Y-102141528D01*
X130665749Y-102222481D01*
X130615881Y-102298010D01*
X130601065Y-102353302D01*
X130606488Y-102443647D01*
X130707679Y-102618914D01*
X130783208Y-102668782D01*
X130838500Y-102683598D01*
X130928845Y-102678175D01*
X131069058Y-102597222D01*
X131118927Y-102521693D01*
X131133742Y-102466401D01*
X131128320Y-102376056D01*
%TO.C,C18*%
X130028564Y-98466114D02*
X130013749Y-98521406D01*
X129928827Y-98617174D01*
X129858720Y-98657650D01*
X129733322Y-98683311D01*
X129622739Y-98653680D01*
X129547209Y-98603811D01*
X129431203Y-98483836D01*
X129370489Y-98378676D01*
X129324590Y-98218224D01*
X129319167Y-98127879D01*
X129348798Y-98017296D01*
X129433720Y-97921528D01*
X129503827Y-97881052D01*
X129629225Y-97855391D01*
X129684517Y-97870206D01*
X130770109Y-98131459D02*
X130349468Y-98374316D01*
X130559788Y-98252888D02*
X130134788Y-97516766D01*
X130125396Y-97662403D01*
X130095765Y-97772986D01*
X130045896Y-97848515D01*
X130947892Y-97467961D02*
X130857547Y-97473384D01*
X130802256Y-97458569D01*
X130726726Y-97408700D01*
X130706488Y-97373647D01*
X130701065Y-97283302D01*
X130715881Y-97228010D01*
X130765749Y-97152481D01*
X130905963Y-97071528D01*
X130996308Y-97066105D01*
X131051600Y-97080921D01*
X131127129Y-97130789D01*
X131147367Y-97165843D01*
X131152790Y-97256188D01*
X131137975Y-97311479D01*
X131088106Y-97387009D01*
X130947892Y-97467961D01*
X130898024Y-97543491D01*
X130883208Y-97598782D01*
X130888631Y-97689127D01*
X130969583Y-97829341D01*
X131045113Y-97879210D01*
X131100405Y-97894025D01*
X131190749Y-97888602D01*
X131330963Y-97807650D01*
X131380832Y-97732120D01*
X131395647Y-97676829D01*
X131390224Y-97586484D01*
X131309272Y-97446270D01*
X131233742Y-97396401D01*
X131178451Y-97381586D01*
X131088106Y-97387009D01*
%TO.C,C17*%
X129749993Y-92239686D02*
X129694701Y-92254501D01*
X129569303Y-92228840D01*
X129499196Y-92188364D01*
X129414274Y-92092596D01*
X129384643Y-91982013D01*
X129390066Y-91891668D01*
X129435965Y-91731217D01*
X129496679Y-91626056D01*
X129612685Y-91506081D01*
X129688215Y-91456212D01*
X129798798Y-91426582D01*
X129924196Y-91452242D01*
X129994303Y-91492719D01*
X130079225Y-91588486D01*
X130094040Y-91643778D01*
X130410585Y-92714555D02*
X129989944Y-92471697D01*
X130200264Y-92593126D02*
X130625264Y-91857004D01*
X130494443Y-91921688D01*
X130383860Y-91951319D01*
X130293515Y-91945896D01*
X131080959Y-92120100D02*
X131571706Y-92403433D01*
X130831226Y-92957412D01*
%TO.C,C16*%
X118653571Y-104246428D02*
X118694047Y-104286904D01*
X118734523Y-104408333D01*
X118734523Y-104489285D01*
X118694047Y-104610714D01*
X118613095Y-104691666D01*
X118532142Y-104732142D01*
X118370238Y-104772619D01*
X118248809Y-104772619D01*
X118086904Y-104732142D01*
X118005952Y-104691666D01*
X117925000Y-104610714D01*
X117884523Y-104489285D01*
X117884523Y-104408333D01*
X117925000Y-104286904D01*
X117965476Y-104246428D01*
X118734523Y-103436904D02*
X118734523Y-103922619D01*
X118734523Y-103679761D02*
X117884523Y-103679761D01*
X118005952Y-103760714D01*
X118086904Y-103841666D01*
X118127380Y-103922619D01*
X117884523Y-102708333D02*
X117884523Y-102870238D01*
X117925000Y-102951190D01*
X117965476Y-102991666D01*
X118086904Y-103072619D01*
X118248809Y-103113095D01*
X118572619Y-103113095D01*
X118653571Y-103072619D01*
X118694047Y-103032142D01*
X118734523Y-102951190D01*
X118734523Y-102789285D01*
X118694047Y-102708333D01*
X118653571Y-102667857D01*
X118572619Y-102627380D01*
X118370238Y-102627380D01*
X118289285Y-102667857D01*
X118248809Y-102708333D01*
X118208333Y-102789285D01*
X118208333Y-102951190D01*
X118248809Y-103032142D01*
X118289285Y-103072619D01*
X118370238Y-103113095D01*
%TO.C,C15*%
X118653571Y-86371428D02*
X118694047Y-86411904D01*
X118734523Y-86533333D01*
X118734523Y-86614285D01*
X118694047Y-86735714D01*
X118613095Y-86816666D01*
X118532142Y-86857142D01*
X118370238Y-86897619D01*
X118248809Y-86897619D01*
X118086904Y-86857142D01*
X118005952Y-86816666D01*
X117925000Y-86735714D01*
X117884523Y-86614285D01*
X117884523Y-86533333D01*
X117925000Y-86411904D01*
X117965476Y-86371428D01*
X118734523Y-85561904D02*
X118734523Y-86047619D01*
X118734523Y-85804761D02*
X117884523Y-85804761D01*
X118005952Y-85885714D01*
X118086904Y-85966666D01*
X118127380Y-86047619D01*
X117884523Y-84792857D02*
X117884523Y-85197619D01*
X118289285Y-85238095D01*
X118248809Y-85197619D01*
X118208333Y-85116666D01*
X118208333Y-84914285D01*
X118248809Y-84833333D01*
X118289285Y-84792857D01*
X118370238Y-84752380D01*
X118572619Y-84752380D01*
X118653571Y-84792857D01*
X118694047Y-84833333D01*
X118734523Y-84914285D01*
X118734523Y-85116666D01*
X118694047Y-85197619D01*
X118653571Y-85238095D01*
%TO.C,C14*%
X122153571Y-105721428D02*
X122194047Y-105761904D01*
X122234523Y-105883333D01*
X122234523Y-105964285D01*
X122194047Y-106085714D01*
X122113095Y-106166666D01*
X122032142Y-106207142D01*
X121870238Y-106247619D01*
X121748809Y-106247619D01*
X121586904Y-106207142D01*
X121505952Y-106166666D01*
X121425000Y-106085714D01*
X121384523Y-105964285D01*
X121384523Y-105883333D01*
X121425000Y-105761904D01*
X121465476Y-105721428D01*
X122234523Y-104911904D02*
X122234523Y-105397619D01*
X122234523Y-105154761D02*
X121384523Y-105154761D01*
X121505952Y-105235714D01*
X121586904Y-105316666D01*
X121627380Y-105397619D01*
X121667857Y-104183333D02*
X122234523Y-104183333D01*
X121344047Y-104385714D02*
X121951190Y-104588095D01*
X121951190Y-104061904D01*
%TO.C,C13*%
X122153571Y-85346428D02*
X122194047Y-85386904D01*
X122234523Y-85508333D01*
X122234523Y-85589285D01*
X122194047Y-85710714D01*
X122113095Y-85791666D01*
X122032142Y-85832142D01*
X121870238Y-85872619D01*
X121748809Y-85872619D01*
X121586904Y-85832142D01*
X121505952Y-85791666D01*
X121425000Y-85710714D01*
X121384523Y-85589285D01*
X121384523Y-85508333D01*
X121425000Y-85386904D01*
X121465476Y-85346428D01*
X122234523Y-84536904D02*
X122234523Y-85022619D01*
X122234523Y-84779761D02*
X121384523Y-84779761D01*
X121505952Y-84860714D01*
X121586904Y-84941666D01*
X121627380Y-85022619D01*
X121384523Y-84253571D02*
X121384523Y-83727380D01*
X121708333Y-84010714D01*
X121708333Y-83889285D01*
X121748809Y-83808333D01*
X121789285Y-83767857D01*
X121870238Y-83727380D01*
X122072619Y-83727380D01*
X122153571Y-83767857D01*
X122194047Y-83808333D01*
X122234523Y-83889285D01*
X122234523Y-84132142D01*
X122194047Y-84213095D01*
X122153571Y-84253571D01*
%TO.C,C12*%
X126153571Y-106796428D02*
X126194047Y-106836904D01*
X126234523Y-106958333D01*
X126234523Y-107039285D01*
X126194047Y-107160714D01*
X126113095Y-107241666D01*
X126032142Y-107282142D01*
X125870238Y-107322619D01*
X125748809Y-107322619D01*
X125586904Y-107282142D01*
X125505952Y-107241666D01*
X125425000Y-107160714D01*
X125384523Y-107039285D01*
X125384523Y-106958333D01*
X125425000Y-106836904D01*
X125465476Y-106796428D01*
X126234523Y-105986904D02*
X126234523Y-106472619D01*
X126234523Y-106229761D02*
X125384523Y-106229761D01*
X125505952Y-106310714D01*
X125586904Y-106391666D01*
X125627380Y-106472619D01*
X125465476Y-105663095D02*
X125425000Y-105622619D01*
X125384523Y-105541666D01*
X125384523Y-105339285D01*
X125425000Y-105258333D01*
X125465476Y-105217857D01*
X125546428Y-105177380D01*
X125627380Y-105177380D01*
X125748809Y-105217857D01*
X126234523Y-105703571D01*
X126234523Y-105177380D01*
%TO.C,C11*%
X126333571Y-84346428D02*
X126374047Y-84386904D01*
X126414523Y-84508333D01*
X126414523Y-84589285D01*
X126374047Y-84710714D01*
X126293095Y-84791666D01*
X126212142Y-84832142D01*
X126050238Y-84872619D01*
X125928809Y-84872619D01*
X125766904Y-84832142D01*
X125685952Y-84791666D01*
X125605000Y-84710714D01*
X125564523Y-84589285D01*
X125564523Y-84508333D01*
X125605000Y-84386904D01*
X125645476Y-84346428D01*
X126414523Y-83536904D02*
X126414523Y-84022619D01*
X126414523Y-83779761D02*
X125564523Y-83779761D01*
X125685952Y-83860714D01*
X125766904Y-83941666D01*
X125807380Y-84022619D01*
X126414523Y-82727380D02*
X126414523Y-83213095D01*
X126414523Y-82970238D02*
X125564523Y-82970238D01*
X125685952Y-83051190D01*
X125766904Y-83132142D01*
X125807380Y-83213095D01*
%TO.C,C10*%
X114303571Y-86053571D02*
X114263095Y-86094047D01*
X114141666Y-86134523D01*
X114060714Y-86134523D01*
X113939285Y-86094047D01*
X113858333Y-86013095D01*
X113817857Y-85932142D01*
X113777380Y-85770238D01*
X113777380Y-85648809D01*
X113817857Y-85486904D01*
X113858333Y-85405952D01*
X113939285Y-85325000D01*
X114060714Y-85284523D01*
X114141666Y-85284523D01*
X114263095Y-85325000D01*
X114303571Y-85365476D01*
X115113095Y-86134523D02*
X114627380Y-86134523D01*
X114870238Y-86134523D02*
X114870238Y-85284523D01*
X114789285Y-85405952D01*
X114708333Y-85486904D01*
X114627380Y-85527380D01*
X115639285Y-85284523D02*
X115720238Y-85284523D01*
X115801190Y-85325000D01*
X115841666Y-85365476D01*
X115882142Y-85446428D01*
X115922619Y-85608333D01*
X115922619Y-85810714D01*
X115882142Y-85972619D01*
X115841666Y-86053571D01*
X115801190Y-86094047D01*
X115720238Y-86134523D01*
X115639285Y-86134523D01*
X115558333Y-86094047D01*
X115517857Y-86053571D01*
X115477380Y-85972619D01*
X115436904Y-85810714D01*
X115436904Y-85608333D01*
X115477380Y-85446428D01*
X115517857Y-85365476D01*
X115558333Y-85325000D01*
X115639285Y-85284523D01*
%TO.C,C9*%
X110775833Y-86053571D02*
X110735357Y-86094047D01*
X110613928Y-86134523D01*
X110532976Y-86134523D01*
X110411547Y-86094047D01*
X110330595Y-86013095D01*
X110290119Y-85932142D01*
X110249642Y-85770238D01*
X110249642Y-85648809D01*
X110290119Y-85486904D01*
X110330595Y-85405952D01*
X110411547Y-85325000D01*
X110532976Y-85284523D01*
X110613928Y-85284523D01*
X110735357Y-85325000D01*
X110775833Y-85365476D01*
X111180595Y-86134523D02*
X111342500Y-86134523D01*
X111423452Y-86094047D01*
X111463928Y-86053571D01*
X111544880Y-85932142D01*
X111585357Y-85770238D01*
X111585357Y-85446428D01*
X111544880Y-85365476D01*
X111504404Y-85325000D01*
X111423452Y-85284523D01*
X111261547Y-85284523D01*
X111180595Y-85325000D01*
X111140119Y-85365476D01*
X111099642Y-85446428D01*
X111099642Y-85648809D01*
X111140119Y-85729761D01*
X111180595Y-85770238D01*
X111261547Y-85810714D01*
X111423452Y-85810714D01*
X111504404Y-85770238D01*
X111544880Y-85729761D01*
X111585357Y-85648809D01*
%TO.C,C7*%
X110775833Y-104233571D02*
X110735357Y-104274047D01*
X110613928Y-104314523D01*
X110532976Y-104314523D01*
X110411547Y-104274047D01*
X110330595Y-104193095D01*
X110290119Y-104112142D01*
X110249642Y-103950238D01*
X110249642Y-103828809D01*
X110290119Y-103666904D01*
X110330595Y-103585952D01*
X110411547Y-103505000D01*
X110532976Y-103464523D01*
X110613928Y-103464523D01*
X110735357Y-103505000D01*
X110775833Y-103545476D01*
X111059166Y-103464523D02*
X111625833Y-103464523D01*
X111261547Y-104314523D01*
%TO.C,C6*%
X124108333Y-96053571D02*
X124067857Y-96094047D01*
X123946428Y-96134523D01*
X123865476Y-96134523D01*
X123744047Y-96094047D01*
X123663095Y-96013095D01*
X123622619Y-95932142D01*
X123582142Y-95770238D01*
X123582142Y-95648809D01*
X123622619Y-95486904D01*
X123663095Y-95405952D01*
X123744047Y-95325000D01*
X123865476Y-95284523D01*
X123946428Y-95284523D01*
X124067857Y-95325000D01*
X124108333Y-95365476D01*
X124836904Y-95284523D02*
X124675000Y-95284523D01*
X124594047Y-95325000D01*
X124553571Y-95365476D01*
X124472619Y-95486904D01*
X124432142Y-95648809D01*
X124432142Y-95972619D01*
X124472619Y-96053571D01*
X124513095Y-96094047D01*
X124594047Y-96134523D01*
X124755952Y-96134523D01*
X124836904Y-96094047D01*
X124877380Y-96053571D01*
X124917857Y-95972619D01*
X124917857Y-95770238D01*
X124877380Y-95689285D01*
X124836904Y-95648809D01*
X124755952Y-95608333D01*
X124594047Y-95608333D01*
X124513095Y-95648809D01*
X124472619Y-95689285D01*
X124432142Y-95770238D01*
%TO.C,C5*%
X117125833Y-105553571D02*
X117085357Y-105594047D01*
X116963928Y-105634523D01*
X116882976Y-105634523D01*
X116761547Y-105594047D01*
X116680595Y-105513095D01*
X116640119Y-105432142D01*
X116599642Y-105270238D01*
X116599642Y-105148809D01*
X116640119Y-104986904D01*
X116680595Y-104905952D01*
X116761547Y-104825000D01*
X116882976Y-104784523D01*
X116963928Y-104784523D01*
X117085357Y-104825000D01*
X117125833Y-104865476D01*
X117894880Y-104784523D02*
X117490119Y-104784523D01*
X117449642Y-105189285D01*
X117490119Y-105148809D01*
X117571071Y-105108333D01*
X117773452Y-105108333D01*
X117854404Y-105148809D01*
X117894880Y-105189285D01*
X117935357Y-105270238D01*
X117935357Y-105472619D01*
X117894880Y-105553571D01*
X117854404Y-105594047D01*
X117773452Y-105634523D01*
X117571071Y-105634523D01*
X117490119Y-105594047D01*
X117449642Y-105553571D01*
%TO.C,C3*%
X117208333Y-84553571D02*
X117167857Y-84594047D01*
X117046428Y-84634523D01*
X116965476Y-84634523D01*
X116844047Y-84594047D01*
X116763095Y-84513095D01*
X116722619Y-84432142D01*
X116682142Y-84270238D01*
X116682142Y-84148809D01*
X116722619Y-83986904D01*
X116763095Y-83905952D01*
X116844047Y-83825000D01*
X116965476Y-83784523D01*
X117046428Y-83784523D01*
X117167857Y-83825000D01*
X117208333Y-83865476D01*
X117491666Y-83784523D02*
X118017857Y-83784523D01*
X117734523Y-84108333D01*
X117855952Y-84108333D01*
X117936904Y-84148809D01*
X117977380Y-84189285D01*
X118017857Y-84270238D01*
X118017857Y-84472619D01*
X117977380Y-84553571D01*
X117936904Y-84594047D01*
X117855952Y-84634523D01*
X117613095Y-84634523D01*
X117532142Y-84594047D01*
X117491666Y-84553571D01*
%TO.C,R32*%
X137053571Y-87384523D02*
X136770238Y-86979761D01*
X136567857Y-87384523D02*
X136567857Y-86534523D01*
X136891666Y-86534523D01*
X136972619Y-86575000D01*
X137013095Y-86615476D01*
X137053571Y-86696428D01*
X137053571Y-86817857D01*
X137013095Y-86898809D01*
X136972619Y-86939285D01*
X136891666Y-86979761D01*
X136567857Y-86979761D01*
X137336904Y-86534523D02*
X137863095Y-86534523D01*
X137579761Y-86858333D01*
X137701190Y-86858333D01*
X137782142Y-86898809D01*
X137822619Y-86939285D01*
X137863095Y-87020238D01*
X137863095Y-87222619D01*
X137822619Y-87303571D01*
X137782142Y-87344047D01*
X137701190Y-87384523D01*
X137458333Y-87384523D01*
X137377380Y-87344047D01*
X137336904Y-87303571D01*
X138186904Y-86615476D02*
X138227380Y-86575000D01*
X138308333Y-86534523D01*
X138510714Y-86534523D01*
X138591666Y-86575000D01*
X138632142Y-86615476D01*
X138672619Y-86696428D01*
X138672619Y-86777380D01*
X138632142Y-86898809D01*
X138146428Y-87384523D01*
X138672619Y-87384523D01*
%TO.C,R31*%
X132798571Y-85484523D02*
X132515238Y-85079761D01*
X132312857Y-85484523D02*
X132312857Y-84634523D01*
X132636666Y-84634523D01*
X132717619Y-84675000D01*
X132758095Y-84715476D01*
X132798571Y-84796428D01*
X132798571Y-84917857D01*
X132758095Y-84998809D01*
X132717619Y-85039285D01*
X132636666Y-85079761D01*
X132312857Y-85079761D01*
X133081904Y-84634523D02*
X133608095Y-84634523D01*
X133324761Y-84958333D01*
X133446190Y-84958333D01*
X133527142Y-84998809D01*
X133567619Y-85039285D01*
X133608095Y-85120238D01*
X133608095Y-85322619D01*
X133567619Y-85403571D01*
X133527142Y-85444047D01*
X133446190Y-85484523D01*
X133203333Y-85484523D01*
X133122380Y-85444047D01*
X133081904Y-85403571D01*
X134417619Y-85484523D02*
X133931904Y-85484523D01*
X134174761Y-85484523D02*
X134174761Y-84634523D01*
X134093809Y-84755952D01*
X134012857Y-84836904D01*
X133931904Y-84877380D01*
%TO.C,R30*%
X127453571Y-90784523D02*
X127170238Y-90379761D01*
X126967857Y-90784523D02*
X126967857Y-89934523D01*
X127291666Y-89934523D01*
X127372619Y-89975000D01*
X127413095Y-90015476D01*
X127453571Y-90096428D01*
X127453571Y-90217857D01*
X127413095Y-90298809D01*
X127372619Y-90339285D01*
X127291666Y-90379761D01*
X126967857Y-90379761D01*
X127736904Y-89934523D02*
X128263095Y-89934523D01*
X127979761Y-90258333D01*
X128101190Y-90258333D01*
X128182142Y-90298809D01*
X128222619Y-90339285D01*
X128263095Y-90420238D01*
X128263095Y-90622619D01*
X128222619Y-90703571D01*
X128182142Y-90744047D01*
X128101190Y-90784523D01*
X127858333Y-90784523D01*
X127777380Y-90744047D01*
X127736904Y-90703571D01*
X128789285Y-89934523D02*
X128870238Y-89934523D01*
X128951190Y-89975000D01*
X128991666Y-90015476D01*
X129032142Y-90096428D01*
X129072619Y-90258333D01*
X129072619Y-90460714D01*
X129032142Y-90622619D01*
X128991666Y-90703571D01*
X128951190Y-90744047D01*
X128870238Y-90784523D01*
X128789285Y-90784523D01*
X128708333Y-90744047D01*
X128667857Y-90703571D01*
X128627380Y-90622619D01*
X128586904Y-90460714D01*
X128586904Y-90258333D01*
X128627380Y-90096428D01*
X128667857Y-90015476D01*
X128708333Y-89975000D01*
X128789285Y-89934523D01*
%TO.C,R29*%
X137203571Y-103134523D02*
X136920238Y-102729761D01*
X136717857Y-103134523D02*
X136717857Y-102284523D01*
X137041666Y-102284523D01*
X137122619Y-102325000D01*
X137163095Y-102365476D01*
X137203571Y-102446428D01*
X137203571Y-102567857D01*
X137163095Y-102648809D01*
X137122619Y-102689285D01*
X137041666Y-102729761D01*
X136717857Y-102729761D01*
X137527380Y-102365476D02*
X137567857Y-102325000D01*
X137648809Y-102284523D01*
X137851190Y-102284523D01*
X137932142Y-102325000D01*
X137972619Y-102365476D01*
X138013095Y-102446428D01*
X138013095Y-102527380D01*
X137972619Y-102648809D01*
X137486904Y-103134523D01*
X138013095Y-103134523D01*
X138417857Y-103134523D02*
X138579761Y-103134523D01*
X138660714Y-103094047D01*
X138701190Y-103053571D01*
X138782142Y-102932142D01*
X138822619Y-102770238D01*
X138822619Y-102446428D01*
X138782142Y-102365476D01*
X138741666Y-102325000D01*
X138660714Y-102284523D01*
X138498809Y-102284523D01*
X138417857Y-102325000D01*
X138377380Y-102365476D01*
X138336904Y-102446428D01*
X138336904Y-102648809D01*
X138377380Y-102729761D01*
X138417857Y-102770238D01*
X138498809Y-102810714D01*
X138660714Y-102810714D01*
X138741666Y-102770238D01*
X138782142Y-102729761D01*
X138822619Y-102648809D01*
%TO.C,R28*%
X132711071Y-105634523D02*
X132427738Y-105229761D01*
X132225357Y-105634523D02*
X132225357Y-104784523D01*
X132549166Y-104784523D01*
X132630119Y-104825000D01*
X132670595Y-104865476D01*
X132711071Y-104946428D01*
X132711071Y-105067857D01*
X132670595Y-105148809D01*
X132630119Y-105189285D01*
X132549166Y-105229761D01*
X132225357Y-105229761D01*
X133034880Y-104865476D02*
X133075357Y-104825000D01*
X133156309Y-104784523D01*
X133358690Y-104784523D01*
X133439642Y-104825000D01*
X133480119Y-104865476D01*
X133520595Y-104946428D01*
X133520595Y-105027380D01*
X133480119Y-105148809D01*
X132994404Y-105634523D01*
X133520595Y-105634523D01*
X134006309Y-105148809D02*
X133925357Y-105108333D01*
X133884880Y-105067857D01*
X133844404Y-104986904D01*
X133844404Y-104946428D01*
X133884880Y-104865476D01*
X133925357Y-104825000D01*
X134006309Y-104784523D01*
X134168214Y-104784523D01*
X134249166Y-104825000D01*
X134289642Y-104865476D01*
X134330119Y-104946428D01*
X134330119Y-104986904D01*
X134289642Y-105067857D01*
X134249166Y-105108333D01*
X134168214Y-105148809D01*
X134006309Y-105148809D01*
X133925357Y-105189285D01*
X133884880Y-105229761D01*
X133844404Y-105310714D01*
X133844404Y-105472619D01*
X133884880Y-105553571D01*
X133925357Y-105594047D01*
X134006309Y-105634523D01*
X134168214Y-105634523D01*
X134249166Y-105594047D01*
X134289642Y-105553571D01*
X134330119Y-105472619D01*
X134330119Y-105310714D01*
X134289642Y-105229761D01*
X134249166Y-105189285D01*
X134168214Y-105148809D01*
%TO.C,R27*%
X127453571Y-100134523D02*
X127170238Y-99729761D01*
X126967857Y-100134523D02*
X126967857Y-99284523D01*
X127291666Y-99284523D01*
X127372619Y-99325000D01*
X127413095Y-99365476D01*
X127453571Y-99446428D01*
X127453571Y-99567857D01*
X127413095Y-99648809D01*
X127372619Y-99689285D01*
X127291666Y-99729761D01*
X126967857Y-99729761D01*
X127777380Y-99365476D02*
X127817857Y-99325000D01*
X127898809Y-99284523D01*
X128101190Y-99284523D01*
X128182142Y-99325000D01*
X128222619Y-99365476D01*
X128263095Y-99446428D01*
X128263095Y-99527380D01*
X128222619Y-99648809D01*
X127736904Y-100134523D01*
X128263095Y-100134523D01*
X128546428Y-99284523D02*
X129113095Y-99284523D01*
X128748809Y-100134523D01*
%TO.C,R26*%
X137053571Y-98184523D02*
X136770238Y-97779761D01*
X136567857Y-98184523D02*
X136567857Y-97334523D01*
X136891666Y-97334523D01*
X136972619Y-97375000D01*
X137013095Y-97415476D01*
X137053571Y-97496428D01*
X137053571Y-97617857D01*
X137013095Y-97698809D01*
X136972619Y-97739285D01*
X136891666Y-97779761D01*
X136567857Y-97779761D01*
X137377380Y-97415476D02*
X137417857Y-97375000D01*
X137498809Y-97334523D01*
X137701190Y-97334523D01*
X137782142Y-97375000D01*
X137822619Y-97415476D01*
X137863095Y-97496428D01*
X137863095Y-97577380D01*
X137822619Y-97698809D01*
X137336904Y-98184523D01*
X137863095Y-98184523D01*
X138591666Y-97334523D02*
X138429761Y-97334523D01*
X138348809Y-97375000D01*
X138308333Y-97415476D01*
X138227380Y-97536904D01*
X138186904Y-97698809D01*
X138186904Y-98022619D01*
X138227380Y-98103571D01*
X138267857Y-98144047D01*
X138348809Y-98184523D01*
X138510714Y-98184523D01*
X138591666Y-98144047D01*
X138632142Y-98103571D01*
X138672619Y-98022619D01*
X138672619Y-97820238D01*
X138632142Y-97739285D01*
X138591666Y-97698809D01*
X138510714Y-97658333D01*
X138348809Y-97658333D01*
X138267857Y-97698809D01*
X138227380Y-97739285D01*
X138186904Y-97820238D01*
%TO.C,R25*%
X135653571Y-99184523D02*
X135370238Y-98779761D01*
X135167857Y-99184523D02*
X135167857Y-98334523D01*
X135491666Y-98334523D01*
X135572619Y-98375000D01*
X135613095Y-98415476D01*
X135653571Y-98496428D01*
X135653571Y-98617857D01*
X135613095Y-98698809D01*
X135572619Y-98739285D01*
X135491666Y-98779761D01*
X135167857Y-98779761D01*
X135977380Y-98415476D02*
X136017857Y-98375000D01*
X136098809Y-98334523D01*
X136301190Y-98334523D01*
X136382142Y-98375000D01*
X136422619Y-98415476D01*
X136463095Y-98496428D01*
X136463095Y-98577380D01*
X136422619Y-98698809D01*
X135936904Y-99184523D01*
X136463095Y-99184523D01*
X137232142Y-98334523D02*
X136827380Y-98334523D01*
X136786904Y-98739285D01*
X136827380Y-98698809D01*
X136908333Y-98658333D01*
X137110714Y-98658333D01*
X137191666Y-98698809D01*
X137232142Y-98739285D01*
X137272619Y-98820238D01*
X137272619Y-99022619D01*
X137232142Y-99103571D01*
X137191666Y-99144047D01*
X137110714Y-99184523D01*
X136908333Y-99184523D01*
X136827380Y-99144047D01*
X136786904Y-99103571D01*
%TO.C,R24*%
X127478571Y-98284523D02*
X127195238Y-97879761D01*
X126992857Y-98284523D02*
X126992857Y-97434523D01*
X127316666Y-97434523D01*
X127397619Y-97475000D01*
X127438095Y-97515476D01*
X127478571Y-97596428D01*
X127478571Y-97717857D01*
X127438095Y-97798809D01*
X127397619Y-97839285D01*
X127316666Y-97879761D01*
X126992857Y-97879761D01*
X127802380Y-97515476D02*
X127842857Y-97475000D01*
X127923809Y-97434523D01*
X128126190Y-97434523D01*
X128207142Y-97475000D01*
X128247619Y-97515476D01*
X128288095Y-97596428D01*
X128288095Y-97677380D01*
X128247619Y-97798809D01*
X127761904Y-98284523D01*
X128288095Y-98284523D01*
X129016666Y-97717857D02*
X129016666Y-98284523D01*
X128814285Y-97394047D02*
X128611904Y-98001190D01*
X129138095Y-98001190D01*
%TO.C,R23*%
X137453571Y-92584523D02*
X137170238Y-92179761D01*
X136967857Y-92584523D02*
X136967857Y-91734523D01*
X137291666Y-91734523D01*
X137372619Y-91775000D01*
X137413095Y-91815476D01*
X137453571Y-91896428D01*
X137453571Y-92017857D01*
X137413095Y-92098809D01*
X137372619Y-92139285D01*
X137291666Y-92179761D01*
X136967857Y-92179761D01*
X137777380Y-91815476D02*
X137817857Y-91775000D01*
X137898809Y-91734523D01*
X138101190Y-91734523D01*
X138182142Y-91775000D01*
X138222619Y-91815476D01*
X138263095Y-91896428D01*
X138263095Y-91977380D01*
X138222619Y-92098809D01*
X137736904Y-92584523D01*
X138263095Y-92584523D01*
X138546428Y-91734523D02*
X139072619Y-91734523D01*
X138789285Y-92058333D01*
X138910714Y-92058333D01*
X138991666Y-92098809D01*
X139032142Y-92139285D01*
X139072619Y-92220238D01*
X139072619Y-92422619D01*
X139032142Y-92503571D01*
X138991666Y-92544047D01*
X138910714Y-92584523D01*
X138667857Y-92584523D01*
X138586904Y-92544047D01*
X138546428Y-92503571D01*
%TO.C,R22*%
X135653571Y-91584523D02*
X135370238Y-91179761D01*
X135167857Y-91584523D02*
X135167857Y-90734523D01*
X135491666Y-90734523D01*
X135572619Y-90775000D01*
X135613095Y-90815476D01*
X135653571Y-90896428D01*
X135653571Y-91017857D01*
X135613095Y-91098809D01*
X135572619Y-91139285D01*
X135491666Y-91179761D01*
X135167857Y-91179761D01*
X135977380Y-90815476D02*
X136017857Y-90775000D01*
X136098809Y-90734523D01*
X136301190Y-90734523D01*
X136382142Y-90775000D01*
X136422619Y-90815476D01*
X136463095Y-90896428D01*
X136463095Y-90977380D01*
X136422619Y-91098809D01*
X135936904Y-91584523D01*
X136463095Y-91584523D01*
X136786904Y-90815476D02*
X136827380Y-90775000D01*
X136908333Y-90734523D01*
X137110714Y-90734523D01*
X137191666Y-90775000D01*
X137232142Y-90815476D01*
X137272619Y-90896428D01*
X137272619Y-90977380D01*
X137232142Y-91098809D01*
X136746428Y-91584523D01*
X137272619Y-91584523D01*
%TO.C,R21*%
X127391071Y-92634523D02*
X127107738Y-92229761D01*
X126905357Y-92634523D02*
X126905357Y-91784523D01*
X127229166Y-91784523D01*
X127310119Y-91825000D01*
X127350595Y-91865476D01*
X127391071Y-91946428D01*
X127391071Y-92067857D01*
X127350595Y-92148809D01*
X127310119Y-92189285D01*
X127229166Y-92229761D01*
X126905357Y-92229761D01*
X127714880Y-91865476D02*
X127755357Y-91825000D01*
X127836309Y-91784523D01*
X128038690Y-91784523D01*
X128119642Y-91825000D01*
X128160119Y-91865476D01*
X128200595Y-91946428D01*
X128200595Y-92027380D01*
X128160119Y-92148809D01*
X127674404Y-92634523D01*
X128200595Y-92634523D01*
X129010119Y-92634523D02*
X128524404Y-92634523D01*
X128767261Y-92634523D02*
X128767261Y-91784523D01*
X128686309Y-91905952D01*
X128605357Y-91986904D01*
X128524404Y-92027380D01*
%TO.C,R19*%
X112978571Y-91634523D02*
X112695238Y-91229761D01*
X112492857Y-91634523D02*
X112492857Y-90784523D01*
X112816666Y-90784523D01*
X112897619Y-90825000D01*
X112938095Y-90865476D01*
X112978571Y-90946428D01*
X112978571Y-91067857D01*
X112938095Y-91148809D01*
X112897619Y-91189285D01*
X112816666Y-91229761D01*
X112492857Y-91229761D01*
X113788095Y-91634523D02*
X113302380Y-91634523D01*
X113545238Y-91634523D02*
X113545238Y-90784523D01*
X113464285Y-90905952D01*
X113383333Y-90986904D01*
X113302380Y-91027380D01*
X114192857Y-91634523D02*
X114354761Y-91634523D01*
X114435714Y-91594047D01*
X114476190Y-91553571D01*
X114557142Y-91432142D01*
X114597619Y-91270238D01*
X114597619Y-90946428D01*
X114557142Y-90865476D01*
X114516666Y-90825000D01*
X114435714Y-90784523D01*
X114273809Y-90784523D01*
X114192857Y-90825000D01*
X114152380Y-90865476D01*
X114111904Y-90946428D01*
X114111904Y-91148809D01*
X114152380Y-91229761D01*
X114192857Y-91270238D01*
X114273809Y-91310714D01*
X114435714Y-91310714D01*
X114516666Y-91270238D01*
X114557142Y-91229761D01*
X114597619Y-91148809D01*
%TO.C,R20*%
X109628571Y-93634523D02*
X109345238Y-93229761D01*
X109142857Y-93634523D02*
X109142857Y-92784523D01*
X109466666Y-92784523D01*
X109547619Y-92825000D01*
X109588095Y-92865476D01*
X109628571Y-92946428D01*
X109628571Y-93067857D01*
X109588095Y-93148809D01*
X109547619Y-93189285D01*
X109466666Y-93229761D01*
X109142857Y-93229761D01*
X109952380Y-92865476D02*
X109992857Y-92825000D01*
X110073809Y-92784523D01*
X110276190Y-92784523D01*
X110357142Y-92825000D01*
X110397619Y-92865476D01*
X110438095Y-92946428D01*
X110438095Y-93027380D01*
X110397619Y-93148809D01*
X109911904Y-93634523D01*
X110438095Y-93634523D01*
X110964285Y-92784523D02*
X111045238Y-92784523D01*
X111126190Y-92825000D01*
X111166666Y-92865476D01*
X111207142Y-92946428D01*
X111247619Y-93108333D01*
X111247619Y-93310714D01*
X111207142Y-93472619D01*
X111166666Y-93553571D01*
X111126190Y-93594047D01*
X111045238Y-93634523D01*
X110964285Y-93634523D01*
X110883333Y-93594047D01*
X110842857Y-93553571D01*
X110802380Y-93472619D01*
X110761904Y-93310714D01*
X110761904Y-93108333D01*
X110802380Y-92946428D01*
X110842857Y-92865476D01*
X110883333Y-92825000D01*
X110964285Y-92784523D01*
%TO.C,R18*%
X107303571Y-90134523D02*
X107020238Y-89729761D01*
X106817857Y-90134523D02*
X106817857Y-89284523D01*
X107141666Y-89284523D01*
X107222619Y-89325000D01*
X107263095Y-89365476D01*
X107303571Y-89446428D01*
X107303571Y-89567857D01*
X107263095Y-89648809D01*
X107222619Y-89689285D01*
X107141666Y-89729761D01*
X106817857Y-89729761D01*
X108113095Y-90134523D02*
X107627380Y-90134523D01*
X107870238Y-90134523D02*
X107870238Y-89284523D01*
X107789285Y-89405952D01*
X107708333Y-89486904D01*
X107627380Y-89527380D01*
X108598809Y-89648809D02*
X108517857Y-89608333D01*
X108477380Y-89567857D01*
X108436904Y-89486904D01*
X108436904Y-89446428D01*
X108477380Y-89365476D01*
X108517857Y-89325000D01*
X108598809Y-89284523D01*
X108760714Y-89284523D01*
X108841666Y-89325000D01*
X108882142Y-89365476D01*
X108922619Y-89446428D01*
X108922619Y-89486904D01*
X108882142Y-89567857D01*
X108841666Y-89608333D01*
X108760714Y-89648809D01*
X108598809Y-89648809D01*
X108517857Y-89689285D01*
X108477380Y-89729761D01*
X108436904Y-89810714D01*
X108436904Y-89972619D01*
X108477380Y-90053571D01*
X108517857Y-90094047D01*
X108598809Y-90134523D01*
X108760714Y-90134523D01*
X108841666Y-90094047D01*
X108882142Y-90053571D01*
X108922619Y-89972619D01*
X108922619Y-89810714D01*
X108882142Y-89729761D01*
X108841666Y-89689285D01*
X108760714Y-89648809D01*
%TO.C,R17*%
X106953571Y-85884523D02*
X106670238Y-85479761D01*
X106467857Y-85884523D02*
X106467857Y-85034523D01*
X106791666Y-85034523D01*
X106872619Y-85075000D01*
X106913095Y-85115476D01*
X106953571Y-85196428D01*
X106953571Y-85317857D01*
X106913095Y-85398809D01*
X106872619Y-85439285D01*
X106791666Y-85479761D01*
X106467857Y-85479761D01*
X107763095Y-85884523D02*
X107277380Y-85884523D01*
X107520238Y-85884523D02*
X107520238Y-85034523D01*
X107439285Y-85155952D01*
X107358333Y-85236904D01*
X107277380Y-85277380D01*
X108046428Y-85034523D02*
X108613095Y-85034523D01*
X108248809Y-85884523D01*
%TO.C,R16*%
X109303571Y-97134523D02*
X109020238Y-96729761D01*
X108817857Y-97134523D02*
X108817857Y-96284523D01*
X109141666Y-96284523D01*
X109222619Y-96325000D01*
X109263095Y-96365476D01*
X109303571Y-96446428D01*
X109303571Y-96567857D01*
X109263095Y-96648809D01*
X109222619Y-96689285D01*
X109141666Y-96729761D01*
X108817857Y-96729761D01*
X110113095Y-97134523D02*
X109627380Y-97134523D01*
X109870238Y-97134523D02*
X109870238Y-96284523D01*
X109789285Y-96405952D01*
X109708333Y-96486904D01*
X109627380Y-96527380D01*
X110841666Y-96284523D02*
X110679761Y-96284523D01*
X110598809Y-96325000D01*
X110558333Y-96365476D01*
X110477380Y-96486904D01*
X110436904Y-96648809D01*
X110436904Y-96972619D01*
X110477380Y-97053571D01*
X110517857Y-97094047D01*
X110598809Y-97134523D01*
X110760714Y-97134523D01*
X110841666Y-97094047D01*
X110882142Y-97053571D01*
X110922619Y-96972619D01*
X110922619Y-96770238D01*
X110882142Y-96689285D01*
X110841666Y-96648809D01*
X110760714Y-96608333D01*
X110598809Y-96608333D01*
X110517857Y-96648809D01*
X110477380Y-96689285D01*
X110436904Y-96770238D01*
%TO.C,R15*%
X112803571Y-98634523D02*
X112520238Y-98229761D01*
X112317857Y-98634523D02*
X112317857Y-97784523D01*
X112641666Y-97784523D01*
X112722619Y-97825000D01*
X112763095Y-97865476D01*
X112803571Y-97946428D01*
X112803571Y-98067857D01*
X112763095Y-98148809D01*
X112722619Y-98189285D01*
X112641666Y-98229761D01*
X112317857Y-98229761D01*
X113613095Y-98634523D02*
X113127380Y-98634523D01*
X113370238Y-98634523D02*
X113370238Y-97784523D01*
X113289285Y-97905952D01*
X113208333Y-97986904D01*
X113127380Y-98027380D01*
X114382142Y-97784523D02*
X113977380Y-97784523D01*
X113936904Y-98189285D01*
X113977380Y-98148809D01*
X114058333Y-98108333D01*
X114260714Y-98108333D01*
X114341666Y-98148809D01*
X114382142Y-98189285D01*
X114422619Y-98270238D01*
X114422619Y-98472619D01*
X114382142Y-98553571D01*
X114341666Y-98594047D01*
X114260714Y-98634523D01*
X114058333Y-98634523D01*
X113977380Y-98594047D01*
X113936904Y-98553571D01*
%TO.C,R14*%
X107303571Y-100134523D02*
X107020238Y-99729761D01*
X106817857Y-100134523D02*
X106817857Y-99284523D01*
X107141666Y-99284523D01*
X107222619Y-99325000D01*
X107263095Y-99365476D01*
X107303571Y-99446428D01*
X107303571Y-99567857D01*
X107263095Y-99648809D01*
X107222619Y-99689285D01*
X107141666Y-99729761D01*
X106817857Y-99729761D01*
X108113095Y-100134523D02*
X107627380Y-100134523D01*
X107870238Y-100134523D02*
X107870238Y-99284523D01*
X107789285Y-99405952D01*
X107708333Y-99486904D01*
X107627380Y-99527380D01*
X108841666Y-99567857D02*
X108841666Y-100134523D01*
X108639285Y-99244047D02*
X108436904Y-99851190D01*
X108963095Y-99851190D01*
%TO.C,R13*%
X106953571Y-104134523D02*
X106670238Y-103729761D01*
X106467857Y-104134523D02*
X106467857Y-103284523D01*
X106791666Y-103284523D01*
X106872619Y-103325000D01*
X106913095Y-103365476D01*
X106953571Y-103446428D01*
X106953571Y-103567857D01*
X106913095Y-103648809D01*
X106872619Y-103689285D01*
X106791666Y-103729761D01*
X106467857Y-103729761D01*
X107763095Y-104134523D02*
X107277380Y-104134523D01*
X107520238Y-104134523D02*
X107520238Y-103284523D01*
X107439285Y-103405952D01*
X107358333Y-103486904D01*
X107277380Y-103527380D01*
X108046428Y-103284523D02*
X108572619Y-103284523D01*
X108289285Y-103608333D01*
X108410714Y-103608333D01*
X108491666Y-103648809D01*
X108532142Y-103689285D01*
X108572619Y-103770238D01*
X108572619Y-103972619D01*
X108532142Y-104053571D01*
X108491666Y-104094047D01*
X108410714Y-104134523D01*
X108167857Y-104134523D01*
X108086904Y-104094047D01*
X108046428Y-104053571D01*
%TO.C,R12*%
X126234523Y-102796428D02*
X125829761Y-103079761D01*
X126234523Y-103282142D02*
X125384523Y-103282142D01*
X125384523Y-102958333D01*
X125425000Y-102877380D01*
X125465476Y-102836904D01*
X125546428Y-102796428D01*
X125667857Y-102796428D01*
X125748809Y-102836904D01*
X125789285Y-102877380D01*
X125829761Y-102958333D01*
X125829761Y-103282142D01*
X126234523Y-101986904D02*
X126234523Y-102472619D01*
X126234523Y-102229761D02*
X125384523Y-102229761D01*
X125505952Y-102310714D01*
X125586904Y-102391666D01*
X125627380Y-102472619D01*
X125465476Y-101663095D02*
X125425000Y-101622619D01*
X125384523Y-101541666D01*
X125384523Y-101339285D01*
X125425000Y-101258333D01*
X125465476Y-101217857D01*
X125546428Y-101177380D01*
X125627380Y-101177380D01*
X125748809Y-101217857D01*
X126234523Y-101703571D01*
X126234523Y-101177380D01*
%TO.C,R11*%
X121453571Y-96134523D02*
X121170238Y-95729761D01*
X120967857Y-96134523D02*
X120967857Y-95284523D01*
X121291666Y-95284523D01*
X121372619Y-95325000D01*
X121413095Y-95365476D01*
X121453571Y-95446428D01*
X121453571Y-95567857D01*
X121413095Y-95648809D01*
X121372619Y-95689285D01*
X121291666Y-95729761D01*
X120967857Y-95729761D01*
X122263095Y-96134523D02*
X121777380Y-96134523D01*
X122020238Y-96134523D02*
X122020238Y-95284523D01*
X121939285Y-95405952D01*
X121858333Y-95486904D01*
X121777380Y-95527380D01*
X123072619Y-96134523D02*
X122586904Y-96134523D01*
X122829761Y-96134523D02*
X122829761Y-95284523D01*
X122748809Y-95405952D01*
X122667857Y-95486904D01*
X122586904Y-95527380D01*
%TO.C,R10*%
X115453571Y-109884523D02*
X115170238Y-109479761D01*
X114967857Y-109884523D02*
X114967857Y-109034523D01*
X115291666Y-109034523D01*
X115372619Y-109075000D01*
X115413095Y-109115476D01*
X115453571Y-109196428D01*
X115453571Y-109317857D01*
X115413095Y-109398809D01*
X115372619Y-109439285D01*
X115291666Y-109479761D01*
X114967857Y-109479761D01*
X116263095Y-109884523D02*
X115777380Y-109884523D01*
X116020238Y-109884523D02*
X116020238Y-109034523D01*
X115939285Y-109155952D01*
X115858333Y-109236904D01*
X115777380Y-109277380D01*
X116789285Y-109034523D02*
X116870238Y-109034523D01*
X116951190Y-109075000D01*
X116991666Y-109115476D01*
X117032142Y-109196428D01*
X117072619Y-109358333D01*
X117072619Y-109560714D01*
X117032142Y-109722619D01*
X116991666Y-109803571D01*
X116951190Y-109844047D01*
X116870238Y-109884523D01*
X116789285Y-109884523D01*
X116708333Y-109844047D01*
X116667857Y-109803571D01*
X116627380Y-109722619D01*
X116586904Y-109560714D01*
X116586904Y-109358333D01*
X116627380Y-109196428D01*
X116667857Y-109115476D01*
X116708333Y-109075000D01*
X116789285Y-109034523D01*
%TO.C,R9*%
X110358333Y-107384523D02*
X110075000Y-106979761D01*
X109872619Y-107384523D02*
X109872619Y-106534523D01*
X110196428Y-106534523D01*
X110277380Y-106575000D01*
X110317857Y-106615476D01*
X110358333Y-106696428D01*
X110358333Y-106817857D01*
X110317857Y-106898809D01*
X110277380Y-106939285D01*
X110196428Y-106979761D01*
X109872619Y-106979761D01*
X110763095Y-107384523D02*
X110925000Y-107384523D01*
X111005952Y-107344047D01*
X111046428Y-107303571D01*
X111127380Y-107182142D01*
X111167857Y-107020238D01*
X111167857Y-106696428D01*
X111127380Y-106615476D01*
X111086904Y-106575000D01*
X111005952Y-106534523D01*
X110844047Y-106534523D01*
X110763095Y-106575000D01*
X110722619Y-106615476D01*
X110682142Y-106696428D01*
X110682142Y-106898809D01*
X110722619Y-106979761D01*
X110763095Y-107020238D01*
X110844047Y-107060714D01*
X111005952Y-107060714D01*
X111086904Y-107020238D01*
X111127380Y-106979761D01*
X111167857Y-106898809D01*
%TO.C,R8*%
X126384523Y-87979166D02*
X125979761Y-88262500D01*
X126384523Y-88464880D02*
X125534523Y-88464880D01*
X125534523Y-88141071D01*
X125575000Y-88060119D01*
X125615476Y-88019642D01*
X125696428Y-87979166D01*
X125817857Y-87979166D01*
X125898809Y-88019642D01*
X125939285Y-88060119D01*
X125979761Y-88141071D01*
X125979761Y-88464880D01*
X125898809Y-87493452D02*
X125858333Y-87574404D01*
X125817857Y-87614880D01*
X125736904Y-87655357D01*
X125696428Y-87655357D01*
X125615476Y-87614880D01*
X125575000Y-87574404D01*
X125534523Y-87493452D01*
X125534523Y-87331547D01*
X125575000Y-87250595D01*
X125615476Y-87210119D01*
X125696428Y-87169642D01*
X125736904Y-87169642D01*
X125817857Y-87210119D01*
X125858333Y-87250595D01*
X125898809Y-87331547D01*
X125898809Y-87493452D01*
X125939285Y-87574404D01*
X125979761Y-87614880D01*
X126060714Y-87655357D01*
X126222619Y-87655357D01*
X126303571Y-87614880D01*
X126344047Y-87574404D01*
X126384523Y-87493452D01*
X126384523Y-87331547D01*
X126344047Y-87250595D01*
X126303571Y-87210119D01*
X126222619Y-87169642D01*
X126060714Y-87169642D01*
X125979761Y-87210119D01*
X125939285Y-87250595D01*
X125898809Y-87331547D01*
%TO.C,R7*%
X121608333Y-94634523D02*
X121325000Y-94229761D01*
X121122619Y-94634523D02*
X121122619Y-93784523D01*
X121446428Y-93784523D01*
X121527380Y-93825000D01*
X121567857Y-93865476D01*
X121608333Y-93946428D01*
X121608333Y-94067857D01*
X121567857Y-94148809D01*
X121527380Y-94189285D01*
X121446428Y-94229761D01*
X121122619Y-94229761D01*
X121891666Y-93784523D02*
X122458333Y-93784523D01*
X122094047Y-94634523D01*
%TO.C,R6*%
X114858333Y-80484523D02*
X114575000Y-80079761D01*
X114372619Y-80484523D02*
X114372619Y-79634523D01*
X114696428Y-79634523D01*
X114777380Y-79675000D01*
X114817857Y-79715476D01*
X114858333Y-79796428D01*
X114858333Y-79917857D01*
X114817857Y-79998809D01*
X114777380Y-80039285D01*
X114696428Y-80079761D01*
X114372619Y-80079761D01*
X115586904Y-79634523D02*
X115425000Y-79634523D01*
X115344047Y-79675000D01*
X115303571Y-79715476D01*
X115222619Y-79836904D01*
X115182142Y-79998809D01*
X115182142Y-80322619D01*
X115222619Y-80403571D01*
X115263095Y-80444047D01*
X115344047Y-80484523D01*
X115505952Y-80484523D01*
X115586904Y-80444047D01*
X115627380Y-80403571D01*
X115667857Y-80322619D01*
X115667857Y-80120238D01*
X115627380Y-80039285D01*
X115586904Y-79998809D01*
X115505952Y-79958333D01*
X115344047Y-79958333D01*
X115263095Y-79998809D01*
X115222619Y-80039285D01*
X115182142Y-80120238D01*
%TO.C,R5*%
X110795833Y-83134523D02*
X110512500Y-82729761D01*
X110310119Y-83134523D02*
X110310119Y-82284523D01*
X110633928Y-82284523D01*
X110714880Y-82325000D01*
X110755357Y-82365476D01*
X110795833Y-82446428D01*
X110795833Y-82567857D01*
X110755357Y-82648809D01*
X110714880Y-82689285D01*
X110633928Y-82729761D01*
X110310119Y-82729761D01*
X111564880Y-82284523D02*
X111160119Y-82284523D01*
X111119642Y-82689285D01*
X111160119Y-82648809D01*
X111241071Y-82608333D01*
X111443452Y-82608333D01*
X111524404Y-82648809D01*
X111564880Y-82689285D01*
X111605357Y-82770238D01*
X111605357Y-82972619D01*
X111564880Y-83053571D01*
X111524404Y-83094047D01*
X111443452Y-83134523D01*
X111241071Y-83134523D01*
X111160119Y-83094047D01*
X111119642Y-83053571D01*
%TO.C,U1*%
X113202380Y-94284523D02*
X113202380Y-94972619D01*
X113242857Y-95053571D01*
X113283333Y-95094047D01*
X113364285Y-95134523D01*
X113526190Y-95134523D01*
X113607142Y-95094047D01*
X113647619Y-95053571D01*
X113688095Y-94972619D01*
X113688095Y-94284523D01*
X114538095Y-95134523D02*
X114052380Y-95134523D01*
X114295238Y-95134523D02*
X114295238Y-94284523D01*
X114214285Y-94405952D01*
X114133333Y-94486904D01*
X114052380Y-94527380D01*
%TD*%
M02*
