%TF.GenerationSoftware,KiCad,Pcbnew,(5.1.9)-1*%
%TF.CreationDate,2021-10-14T16:08:06-04:00*%
%TF.ProjectId,ModularPreamp-ParallelInputs,4d6f6475-6c61-4725-9072-65616d702d50,rev?*%
%TF.SameCoordinates,Original*%
%TF.FileFunction,Copper,L2,Bot*%
%TF.FilePolarity,Positive*%
%FSLAX46Y46*%
G04 Gerber Fmt 4.6, Leading zero omitted, Abs format (unit mm)*
G04 Created by KiCad (PCBNEW (5.1.9)-1) date 2021-10-14 16:08:06*
%MOMM*%
%LPD*%
G01*
G04 APERTURE LIST*
%TA.AperFunction,ComponentPad*%
%ADD10O,1.700000X1.700000*%
%TD*%
%TA.AperFunction,ComponentPad*%
%ADD11R,1.700000X1.700000*%
%TD*%
%TA.AperFunction,ViaPad*%
%ADD12C,0.800000*%
%TD*%
%TA.AperFunction,Conductor*%
%ADD13C,0.250000*%
%TD*%
%TA.AperFunction,Conductor*%
%ADD14C,0.254000*%
%TD*%
%TA.AperFunction,Conductor*%
%ADD15C,0.100000*%
%TD*%
G04 APERTURE END LIST*
D10*
%TO.P,J5,3*%
%TO.N,GND*%
X102500000Y-97580000D03*
%TO.P,J5,2*%
%TO.N,SigIn*%
X102500000Y-95040000D03*
D11*
%TO.P,J5,1*%
%TO.N,GND*%
X102500000Y-92500000D03*
%TD*%
D10*
%TO.P,J13,4*%
%TO.N,GND*%
X102500000Y-87620000D03*
%TO.P,J13,3*%
X102500000Y-85080000D03*
%TO.P,J13,2*%
X102500000Y-82540000D03*
D11*
%TO.P,J13,1*%
X102500000Y-80000000D03*
%TD*%
D10*
%TO.P,J12,4*%
%TO.N,GND*%
X102500000Y-110120000D03*
%TO.P,J12,3*%
X102500000Y-107580000D03*
%TO.P,J12,2*%
X102500000Y-105040000D03*
D11*
%TO.P,J12,1*%
X102500000Y-102500000D03*
%TD*%
D10*
%TO.P,J7,13*%
%TO.N,GND*%
X145000000Y-110240000D03*
%TO.P,J7,12*%
X145000000Y-107700000D03*
%TO.P,J7,11*%
X145000000Y-105160000D03*
%TO.P,J7,10*%
X145000000Y-102620000D03*
%TO.P,J7,9*%
X145000000Y-100080000D03*
%TO.P,J7,8*%
X145000000Y-97540000D03*
%TO.P,J7,7*%
%TO.N,Sum*%
X145000000Y-95000000D03*
%TO.P,J7,6*%
%TO.N,GND*%
X145000000Y-92460000D03*
%TO.P,J7,5*%
X145000000Y-89920000D03*
%TO.P,J7,4*%
X145000000Y-87380000D03*
%TO.P,J7,3*%
X145000000Y-84840000D03*
%TO.P,J7,2*%
X145000000Y-82300000D03*
D11*
%TO.P,J7,1*%
X145000000Y-79760000D03*
%TD*%
D10*
%TO.P,J11,4*%
%TO.N,GND*%
X145120000Y-75000000D03*
%TO.P,J11,3*%
X142580000Y-75000000D03*
%TO.P,J11,2*%
X140040000Y-75000000D03*
D11*
%TO.P,J11,1*%
X137500000Y-75000000D03*
%TD*%
D10*
%TO.P,J10,4*%
%TO.N,GND*%
X145120000Y-115000000D03*
%TO.P,J10,3*%
X142580000Y-115000000D03*
%TO.P,J10,2*%
X140040000Y-115000000D03*
D11*
%TO.P,J10,1*%
X137500000Y-115000000D03*
%TD*%
D10*
%TO.P,J8,12*%
%TO.N,GND*%
X132940000Y-115000000D03*
%TO.P,J8,11*%
X130400000Y-115000000D03*
%TO.P,J8,10*%
X127860000Y-115000000D03*
%TO.P,J8,9*%
X125320000Y-115000000D03*
%TO.P,J8,8*%
X122780000Y-115000000D03*
%TO.P,J8,7*%
X120240000Y-115000000D03*
%TO.P,J8,6*%
X117700000Y-115000000D03*
%TO.P,J8,5*%
X115160000Y-115000000D03*
%TO.P,J8,4*%
X112620000Y-115000000D03*
%TO.P,J8,3*%
X110080000Y-115000000D03*
%TO.P,J8,2*%
X107540000Y-115000000D03*
D11*
%TO.P,J8,1*%
X105000000Y-115000000D03*
%TD*%
D10*
%TO.P,J6,12*%
%TO.N,GND*%
X132940000Y-75000000D03*
%TO.P,J6,11*%
X130400000Y-75000000D03*
%TO.P,J6,10*%
X127860000Y-75000000D03*
%TO.P,J6,9*%
X125320000Y-75000000D03*
%TO.P,J6,8*%
X122780000Y-75000000D03*
%TO.P,J6,7*%
X120240000Y-75000000D03*
%TO.P,J6,6*%
X117700000Y-75000000D03*
%TO.P,J6,5*%
X115160000Y-75000000D03*
%TO.P,J6,4*%
X112620000Y-75000000D03*
%TO.P,J6,3*%
%TO.N,-5V*%
X110080000Y-75000000D03*
%TO.P,J6,2*%
%TO.N,+5V*%
X107540000Y-75000000D03*
D11*
%TO.P,J6,1*%
%TO.N,GND*%
X105000000Y-75000000D03*
%TD*%
D12*
%TO.N,GND*%
X109100000Y-90750000D03*
X111600000Y-92250000D03*
X119600000Y-87500000D03*
X120600000Y-86250000D03*
X125600000Y-86750000D03*
X111350000Y-95750000D03*
X109350000Y-98500000D03*
X112500000Y-107750000D03*
X119750000Y-102500000D03*
X124500000Y-108500000D03*
X125500000Y-103500000D03*
X120750000Y-103500000D03*
X124250000Y-81750000D03*
X112750000Y-81750000D03*
X131000000Y-86500000D03*
X131500000Y-91500000D03*
X131250000Y-103750000D03*
X131250000Y-98500000D03*
X141000000Y-99000000D03*
X139500000Y-99500000D03*
X138000000Y-99000000D03*
X136500000Y-99000000D03*
X135500000Y-97500000D03*
X135500000Y-95000000D03*
X135500000Y-92500000D03*
X140000000Y-95000000D03*
X139500000Y-92500000D03*
X139500000Y-90500000D03*
X139500000Y-98000000D03*
X141000000Y-91000000D03*
X138000000Y-90500000D03*
X136000000Y-90500000D03*
X126000000Y-92500000D03*
X126000000Y-90500000D03*
X126000000Y-88500000D03*
X126500000Y-95000000D03*
X125000000Y-95000000D03*
X126000000Y-97500000D03*
X126000000Y-99500000D03*
X116000000Y-94000000D03*
X116000000Y-95500000D03*
X119500000Y-94000000D03*
X119500000Y-96000000D03*
X117500000Y-94500000D03*
X113000000Y-95000000D03*
X120000000Y-90000000D03*
X113000000Y-91500000D03*
X108000000Y-100500000D03*
X105500000Y-100500000D03*
X117500000Y-107500000D03*
X120000000Y-107500000D03*
X120000000Y-105500000D03*
X117500000Y-105500000D03*
X122500000Y-105500000D03*
X121500000Y-95500000D03*
X123500000Y-95500000D03*
X123500000Y-94000000D03*
X121500000Y-94000000D03*
X119500000Y-84000000D03*
X117500000Y-82000000D03*
X117500000Y-84000000D03*
X122000000Y-83000000D03*
X118000000Y-79000000D03*
X116000000Y-77500000D03*
X114500000Y-79000000D03*
X112000000Y-80000000D03*
X105000000Y-83500000D03*
X107000000Y-82000000D03*
X109000000Y-80000000D03*
X109000000Y-78000000D03*
X106500000Y-95000000D03*
X108000000Y-97500000D03*
X108000000Y-99000000D03*
X107500000Y-96000000D03*
X107500000Y-94000000D03*
X108000000Y-92500000D03*
X108000000Y-91000000D03*
X108000000Y-89500000D03*
%TO.N,+5V*%
X112250000Y-78000000D03*
%TO.N,-5V*%
X104750000Y-85750000D03*
X104750000Y-98250000D03*
%TO.N,Net-(C3-Pad1)*%
X117390498Y-86209502D03*
X118350000Y-93250000D03*
%TO.N,Net-(C5-Pad1)*%
X117350000Y-103750000D03*
X117850000Y-95750000D03*
%TO.N,Net-(C8-Pad2)*%
X127350000Y-103250000D03*
X114669490Y-103588052D03*
%TO.N,Net-(C10-Pad2)*%
X114650000Y-86075000D03*
X127050000Y-86350000D03*
%TO.N,SigIn*%
X108000000Y-107000000D03*
X109000000Y-105000000D03*
%TD*%
D13*
%TO.N,+5V*%
X107540000Y-75000000D02*
X110540000Y-78000000D01*
X110540000Y-78000000D02*
X112250000Y-78000000D01*
%TO.N,-5V*%
X104750000Y-85750000D02*
X104750000Y-98250000D01*
%TO.N,Net-(C3-Pad1)*%
X117390498Y-92290498D02*
X118350000Y-93250000D01*
X117390498Y-86209502D02*
X117390498Y-92290498D01*
%TO.N,Net-(C5-Pad1)*%
X117350000Y-103750000D02*
X117350000Y-96250000D01*
X117350000Y-96250000D02*
X117850000Y-95750000D01*
%TO.N,Net-(C8-Pad2)*%
X115556439Y-104475001D02*
X114669490Y-103588052D01*
X127350000Y-103250000D02*
X126124999Y-104475001D01*
X126124999Y-104475001D02*
X115556439Y-104475001D01*
%TO.N,Net-(C10-Pad2)*%
X126184501Y-85484501D02*
X127050000Y-86350000D01*
X115240499Y-85484501D02*
X126184501Y-85484501D01*
X114650000Y-86075000D02*
X115240499Y-85484501D01*
%TO.N,SigIn*%
X109000000Y-106000000D02*
X109000000Y-105000000D01*
X108000000Y-107000000D02*
X109000000Y-106000000D01*
%TD*%
D14*
%TO.N,GND*%
X144648126Y-73226714D02*
X145271572Y-73414943D01*
X145638339Y-73609958D01*
X145624099Y-73603175D01*
X145476890Y-73558524D01*
X145247000Y-73679845D01*
X145247000Y-74873000D01*
X146440814Y-74873000D01*
X146561481Y-74643109D01*
X146464157Y-74368748D01*
X146315178Y-74118645D01*
X146261460Y-74059050D01*
X146351247Y-74132279D01*
X146766362Y-74634067D01*
X147076105Y-75206924D01*
X147268682Y-75829039D01*
X147340001Y-76507594D01*
X147340000Y-113967721D01*
X147273286Y-114648126D01*
X147085057Y-115271570D01*
X146779323Y-115846573D01*
X146367721Y-116351248D01*
X145865933Y-116766362D01*
X145293077Y-117076104D01*
X144670961Y-117268682D01*
X143992417Y-117340000D01*
X104032279Y-117340000D01*
X103351874Y-117273286D01*
X102728430Y-117085057D01*
X102153427Y-116779323D01*
X101648752Y-116367721D01*
X101233638Y-115865933D01*
X101225024Y-115850000D01*
X103511928Y-115850000D01*
X103524188Y-115974482D01*
X103560498Y-116094180D01*
X103619463Y-116204494D01*
X103698815Y-116301185D01*
X103795506Y-116380537D01*
X103905820Y-116439502D01*
X104025518Y-116475812D01*
X104150000Y-116488072D01*
X104714250Y-116485000D01*
X104873000Y-116326250D01*
X104873000Y-115127000D01*
X105127000Y-115127000D01*
X105127000Y-116326250D01*
X105285750Y-116485000D01*
X105850000Y-116488072D01*
X105974482Y-116475812D01*
X106094180Y-116439502D01*
X106204494Y-116380537D01*
X106301185Y-116301185D01*
X106380537Y-116204494D01*
X106439502Y-116094180D01*
X106463966Y-116013534D01*
X106539731Y-116097588D01*
X106773080Y-116271641D01*
X107035901Y-116396825D01*
X107183110Y-116441476D01*
X107413000Y-116320155D01*
X107413000Y-115127000D01*
X107667000Y-115127000D01*
X107667000Y-116320155D01*
X107896890Y-116441476D01*
X108044099Y-116396825D01*
X108306920Y-116271641D01*
X108540269Y-116097588D01*
X108735178Y-115881355D01*
X108810000Y-115755745D01*
X108884822Y-115881355D01*
X109079731Y-116097588D01*
X109313080Y-116271641D01*
X109575901Y-116396825D01*
X109723110Y-116441476D01*
X109953000Y-116320155D01*
X109953000Y-115127000D01*
X110207000Y-115127000D01*
X110207000Y-116320155D01*
X110436890Y-116441476D01*
X110584099Y-116396825D01*
X110846920Y-116271641D01*
X111080269Y-116097588D01*
X111275178Y-115881355D01*
X111350000Y-115755745D01*
X111424822Y-115881355D01*
X111619731Y-116097588D01*
X111853080Y-116271641D01*
X112115901Y-116396825D01*
X112263110Y-116441476D01*
X112493000Y-116320155D01*
X112493000Y-115127000D01*
X112747000Y-115127000D01*
X112747000Y-116320155D01*
X112976890Y-116441476D01*
X113124099Y-116396825D01*
X113386920Y-116271641D01*
X113620269Y-116097588D01*
X113815178Y-115881355D01*
X113890000Y-115755745D01*
X113964822Y-115881355D01*
X114159731Y-116097588D01*
X114393080Y-116271641D01*
X114655901Y-116396825D01*
X114803110Y-116441476D01*
X115033000Y-116320155D01*
X115033000Y-115127000D01*
X115287000Y-115127000D01*
X115287000Y-116320155D01*
X115516890Y-116441476D01*
X115664099Y-116396825D01*
X115926920Y-116271641D01*
X116160269Y-116097588D01*
X116355178Y-115881355D01*
X116430000Y-115755745D01*
X116504822Y-115881355D01*
X116699731Y-116097588D01*
X116933080Y-116271641D01*
X117195901Y-116396825D01*
X117343110Y-116441476D01*
X117573000Y-116320155D01*
X117573000Y-115127000D01*
X117827000Y-115127000D01*
X117827000Y-116320155D01*
X118056890Y-116441476D01*
X118204099Y-116396825D01*
X118466920Y-116271641D01*
X118700269Y-116097588D01*
X118895178Y-115881355D01*
X118970000Y-115755745D01*
X119044822Y-115881355D01*
X119239731Y-116097588D01*
X119473080Y-116271641D01*
X119735901Y-116396825D01*
X119883110Y-116441476D01*
X120113000Y-116320155D01*
X120113000Y-115127000D01*
X120367000Y-115127000D01*
X120367000Y-116320155D01*
X120596890Y-116441476D01*
X120744099Y-116396825D01*
X121006920Y-116271641D01*
X121240269Y-116097588D01*
X121435178Y-115881355D01*
X121510000Y-115755745D01*
X121584822Y-115881355D01*
X121779731Y-116097588D01*
X122013080Y-116271641D01*
X122275901Y-116396825D01*
X122423110Y-116441476D01*
X122653000Y-116320155D01*
X122653000Y-115127000D01*
X122907000Y-115127000D01*
X122907000Y-116320155D01*
X123136890Y-116441476D01*
X123284099Y-116396825D01*
X123546920Y-116271641D01*
X123780269Y-116097588D01*
X123975178Y-115881355D01*
X124050000Y-115755745D01*
X124124822Y-115881355D01*
X124319731Y-116097588D01*
X124553080Y-116271641D01*
X124815901Y-116396825D01*
X124963110Y-116441476D01*
X125193000Y-116320155D01*
X125193000Y-115127000D01*
X125447000Y-115127000D01*
X125447000Y-116320155D01*
X125676890Y-116441476D01*
X125824099Y-116396825D01*
X126086920Y-116271641D01*
X126320269Y-116097588D01*
X126515178Y-115881355D01*
X126590000Y-115755745D01*
X126664822Y-115881355D01*
X126859731Y-116097588D01*
X127093080Y-116271641D01*
X127355901Y-116396825D01*
X127503110Y-116441476D01*
X127733000Y-116320155D01*
X127733000Y-115127000D01*
X127987000Y-115127000D01*
X127987000Y-116320155D01*
X128216890Y-116441476D01*
X128364099Y-116396825D01*
X128626920Y-116271641D01*
X128860269Y-116097588D01*
X129055178Y-115881355D01*
X129130000Y-115755745D01*
X129204822Y-115881355D01*
X129399731Y-116097588D01*
X129633080Y-116271641D01*
X129895901Y-116396825D01*
X130043110Y-116441476D01*
X130273000Y-116320155D01*
X130273000Y-115127000D01*
X130527000Y-115127000D01*
X130527000Y-116320155D01*
X130756890Y-116441476D01*
X130904099Y-116396825D01*
X131166920Y-116271641D01*
X131400269Y-116097588D01*
X131595178Y-115881355D01*
X131670000Y-115755745D01*
X131744822Y-115881355D01*
X131939731Y-116097588D01*
X132173080Y-116271641D01*
X132435901Y-116396825D01*
X132583110Y-116441476D01*
X132813000Y-116320155D01*
X132813000Y-115127000D01*
X133067000Y-115127000D01*
X133067000Y-116320155D01*
X133296890Y-116441476D01*
X133444099Y-116396825D01*
X133706920Y-116271641D01*
X133940269Y-116097588D01*
X134135178Y-115881355D01*
X134153855Y-115850000D01*
X136011928Y-115850000D01*
X136024188Y-115974482D01*
X136060498Y-116094180D01*
X136119463Y-116204494D01*
X136198815Y-116301185D01*
X136295506Y-116380537D01*
X136405820Y-116439502D01*
X136525518Y-116475812D01*
X136650000Y-116488072D01*
X137214250Y-116485000D01*
X137373000Y-116326250D01*
X137373000Y-115127000D01*
X137627000Y-115127000D01*
X137627000Y-116326250D01*
X137785750Y-116485000D01*
X138350000Y-116488072D01*
X138474482Y-116475812D01*
X138594180Y-116439502D01*
X138704494Y-116380537D01*
X138801185Y-116301185D01*
X138880537Y-116204494D01*
X138939502Y-116094180D01*
X138963966Y-116013534D01*
X139039731Y-116097588D01*
X139273080Y-116271641D01*
X139535901Y-116396825D01*
X139683110Y-116441476D01*
X139913000Y-116320155D01*
X139913000Y-115127000D01*
X140167000Y-115127000D01*
X140167000Y-116320155D01*
X140396890Y-116441476D01*
X140544099Y-116396825D01*
X140806920Y-116271641D01*
X141040269Y-116097588D01*
X141235178Y-115881355D01*
X141310000Y-115755745D01*
X141384822Y-115881355D01*
X141579731Y-116097588D01*
X141813080Y-116271641D01*
X142075901Y-116396825D01*
X142223110Y-116441476D01*
X142453000Y-116320155D01*
X142453000Y-115127000D01*
X142707000Y-115127000D01*
X142707000Y-116320155D01*
X142936890Y-116441476D01*
X143084099Y-116396825D01*
X143346920Y-116271641D01*
X143580269Y-116097588D01*
X143775178Y-115881355D01*
X143850000Y-115755745D01*
X143924822Y-115881355D01*
X144119731Y-116097588D01*
X144353080Y-116271641D01*
X144615901Y-116396825D01*
X144763110Y-116441476D01*
X144993000Y-116320155D01*
X144993000Y-115127000D01*
X145247000Y-115127000D01*
X145247000Y-116320155D01*
X145476890Y-116441476D01*
X145624099Y-116396825D01*
X145886920Y-116271641D01*
X146120269Y-116097588D01*
X146315178Y-115881355D01*
X146464157Y-115631252D01*
X146561481Y-115356891D01*
X146440814Y-115127000D01*
X145247000Y-115127000D01*
X144993000Y-115127000D01*
X142707000Y-115127000D01*
X142453000Y-115127000D01*
X140167000Y-115127000D01*
X139913000Y-115127000D01*
X137627000Y-115127000D01*
X137373000Y-115127000D01*
X136173750Y-115127000D01*
X136015000Y-115285750D01*
X136011928Y-115850000D01*
X134153855Y-115850000D01*
X134284157Y-115631252D01*
X134381481Y-115356891D01*
X134260814Y-115127000D01*
X133067000Y-115127000D01*
X132813000Y-115127000D01*
X130527000Y-115127000D01*
X130273000Y-115127000D01*
X127987000Y-115127000D01*
X127733000Y-115127000D01*
X125447000Y-115127000D01*
X125193000Y-115127000D01*
X122907000Y-115127000D01*
X122653000Y-115127000D01*
X120367000Y-115127000D01*
X120113000Y-115127000D01*
X117827000Y-115127000D01*
X117573000Y-115127000D01*
X115287000Y-115127000D01*
X115033000Y-115127000D01*
X112747000Y-115127000D01*
X112493000Y-115127000D01*
X110207000Y-115127000D01*
X109953000Y-115127000D01*
X107667000Y-115127000D01*
X107413000Y-115127000D01*
X105127000Y-115127000D01*
X104873000Y-115127000D01*
X103673750Y-115127000D01*
X103515000Y-115285750D01*
X103511928Y-115850000D01*
X101225024Y-115850000D01*
X100923896Y-115293077D01*
X100731318Y-114670961D01*
X100676563Y-114150000D01*
X103511928Y-114150000D01*
X103515000Y-114714250D01*
X103673750Y-114873000D01*
X104873000Y-114873000D01*
X104873000Y-113673750D01*
X105127000Y-113673750D01*
X105127000Y-114873000D01*
X107413000Y-114873000D01*
X107413000Y-113679845D01*
X107667000Y-113679845D01*
X107667000Y-114873000D01*
X109953000Y-114873000D01*
X109953000Y-113679845D01*
X110207000Y-113679845D01*
X110207000Y-114873000D01*
X112493000Y-114873000D01*
X112493000Y-113679845D01*
X112747000Y-113679845D01*
X112747000Y-114873000D01*
X115033000Y-114873000D01*
X115033000Y-113679845D01*
X115287000Y-113679845D01*
X115287000Y-114873000D01*
X117573000Y-114873000D01*
X117573000Y-113679845D01*
X117827000Y-113679845D01*
X117827000Y-114873000D01*
X120113000Y-114873000D01*
X120113000Y-113679845D01*
X120367000Y-113679845D01*
X120367000Y-114873000D01*
X122653000Y-114873000D01*
X122653000Y-113679845D01*
X122907000Y-113679845D01*
X122907000Y-114873000D01*
X125193000Y-114873000D01*
X125193000Y-113679845D01*
X125447000Y-113679845D01*
X125447000Y-114873000D01*
X127733000Y-114873000D01*
X127733000Y-113679845D01*
X127987000Y-113679845D01*
X127987000Y-114873000D01*
X130273000Y-114873000D01*
X130273000Y-113679845D01*
X130527000Y-113679845D01*
X130527000Y-114873000D01*
X132813000Y-114873000D01*
X132813000Y-113679845D01*
X133067000Y-113679845D01*
X133067000Y-114873000D01*
X134260814Y-114873000D01*
X134381481Y-114643109D01*
X134284157Y-114368748D01*
X134153856Y-114150000D01*
X136011928Y-114150000D01*
X136015000Y-114714250D01*
X136173750Y-114873000D01*
X137373000Y-114873000D01*
X137373000Y-113673750D01*
X137627000Y-113673750D01*
X137627000Y-114873000D01*
X139913000Y-114873000D01*
X139913000Y-113679845D01*
X140167000Y-113679845D01*
X140167000Y-114873000D01*
X142453000Y-114873000D01*
X142453000Y-113679845D01*
X142707000Y-113679845D01*
X142707000Y-114873000D01*
X144993000Y-114873000D01*
X144993000Y-113679845D01*
X145247000Y-113679845D01*
X145247000Y-114873000D01*
X146440814Y-114873000D01*
X146561481Y-114643109D01*
X146464157Y-114368748D01*
X146315178Y-114118645D01*
X146120269Y-113902412D01*
X145886920Y-113728359D01*
X145624099Y-113603175D01*
X145476890Y-113558524D01*
X145247000Y-113679845D01*
X144993000Y-113679845D01*
X144763110Y-113558524D01*
X144615901Y-113603175D01*
X144353080Y-113728359D01*
X144119731Y-113902412D01*
X143924822Y-114118645D01*
X143850000Y-114244255D01*
X143775178Y-114118645D01*
X143580269Y-113902412D01*
X143346920Y-113728359D01*
X143084099Y-113603175D01*
X142936890Y-113558524D01*
X142707000Y-113679845D01*
X142453000Y-113679845D01*
X142223110Y-113558524D01*
X142075901Y-113603175D01*
X141813080Y-113728359D01*
X141579731Y-113902412D01*
X141384822Y-114118645D01*
X141310000Y-114244255D01*
X141235178Y-114118645D01*
X141040269Y-113902412D01*
X140806920Y-113728359D01*
X140544099Y-113603175D01*
X140396890Y-113558524D01*
X140167000Y-113679845D01*
X139913000Y-113679845D01*
X139683110Y-113558524D01*
X139535901Y-113603175D01*
X139273080Y-113728359D01*
X139039731Y-113902412D01*
X138963966Y-113986466D01*
X138939502Y-113905820D01*
X138880537Y-113795506D01*
X138801185Y-113698815D01*
X138704494Y-113619463D01*
X138594180Y-113560498D01*
X138474482Y-113524188D01*
X138350000Y-113511928D01*
X137785750Y-113515000D01*
X137627000Y-113673750D01*
X137373000Y-113673750D01*
X137214250Y-113515000D01*
X136650000Y-113511928D01*
X136525518Y-113524188D01*
X136405820Y-113560498D01*
X136295506Y-113619463D01*
X136198815Y-113698815D01*
X136119463Y-113795506D01*
X136060498Y-113905820D01*
X136024188Y-114025518D01*
X136011928Y-114150000D01*
X134153856Y-114150000D01*
X134135178Y-114118645D01*
X133940269Y-113902412D01*
X133706920Y-113728359D01*
X133444099Y-113603175D01*
X133296890Y-113558524D01*
X133067000Y-113679845D01*
X132813000Y-113679845D01*
X132583110Y-113558524D01*
X132435901Y-113603175D01*
X132173080Y-113728359D01*
X131939731Y-113902412D01*
X131744822Y-114118645D01*
X131670000Y-114244255D01*
X131595178Y-114118645D01*
X131400269Y-113902412D01*
X131166920Y-113728359D01*
X130904099Y-113603175D01*
X130756890Y-113558524D01*
X130527000Y-113679845D01*
X130273000Y-113679845D01*
X130043110Y-113558524D01*
X129895901Y-113603175D01*
X129633080Y-113728359D01*
X129399731Y-113902412D01*
X129204822Y-114118645D01*
X129130000Y-114244255D01*
X129055178Y-114118645D01*
X128860269Y-113902412D01*
X128626920Y-113728359D01*
X128364099Y-113603175D01*
X128216890Y-113558524D01*
X127987000Y-113679845D01*
X127733000Y-113679845D01*
X127503110Y-113558524D01*
X127355901Y-113603175D01*
X127093080Y-113728359D01*
X126859731Y-113902412D01*
X126664822Y-114118645D01*
X126590000Y-114244255D01*
X126515178Y-114118645D01*
X126320269Y-113902412D01*
X126086920Y-113728359D01*
X125824099Y-113603175D01*
X125676890Y-113558524D01*
X125447000Y-113679845D01*
X125193000Y-113679845D01*
X124963110Y-113558524D01*
X124815901Y-113603175D01*
X124553080Y-113728359D01*
X124319731Y-113902412D01*
X124124822Y-114118645D01*
X124050000Y-114244255D01*
X123975178Y-114118645D01*
X123780269Y-113902412D01*
X123546920Y-113728359D01*
X123284099Y-113603175D01*
X123136890Y-113558524D01*
X122907000Y-113679845D01*
X122653000Y-113679845D01*
X122423110Y-113558524D01*
X122275901Y-113603175D01*
X122013080Y-113728359D01*
X121779731Y-113902412D01*
X121584822Y-114118645D01*
X121510000Y-114244255D01*
X121435178Y-114118645D01*
X121240269Y-113902412D01*
X121006920Y-113728359D01*
X120744099Y-113603175D01*
X120596890Y-113558524D01*
X120367000Y-113679845D01*
X120113000Y-113679845D01*
X119883110Y-113558524D01*
X119735901Y-113603175D01*
X119473080Y-113728359D01*
X119239731Y-113902412D01*
X119044822Y-114118645D01*
X118970000Y-114244255D01*
X118895178Y-114118645D01*
X118700269Y-113902412D01*
X118466920Y-113728359D01*
X118204099Y-113603175D01*
X118056890Y-113558524D01*
X117827000Y-113679845D01*
X117573000Y-113679845D01*
X117343110Y-113558524D01*
X117195901Y-113603175D01*
X116933080Y-113728359D01*
X116699731Y-113902412D01*
X116504822Y-114118645D01*
X116430000Y-114244255D01*
X116355178Y-114118645D01*
X116160269Y-113902412D01*
X115926920Y-113728359D01*
X115664099Y-113603175D01*
X115516890Y-113558524D01*
X115287000Y-113679845D01*
X115033000Y-113679845D01*
X114803110Y-113558524D01*
X114655901Y-113603175D01*
X114393080Y-113728359D01*
X114159731Y-113902412D01*
X113964822Y-114118645D01*
X113890000Y-114244255D01*
X113815178Y-114118645D01*
X113620269Y-113902412D01*
X113386920Y-113728359D01*
X113124099Y-113603175D01*
X112976890Y-113558524D01*
X112747000Y-113679845D01*
X112493000Y-113679845D01*
X112263110Y-113558524D01*
X112115901Y-113603175D01*
X111853080Y-113728359D01*
X111619731Y-113902412D01*
X111424822Y-114118645D01*
X111350000Y-114244255D01*
X111275178Y-114118645D01*
X111080269Y-113902412D01*
X110846920Y-113728359D01*
X110584099Y-113603175D01*
X110436890Y-113558524D01*
X110207000Y-113679845D01*
X109953000Y-113679845D01*
X109723110Y-113558524D01*
X109575901Y-113603175D01*
X109313080Y-113728359D01*
X109079731Y-113902412D01*
X108884822Y-114118645D01*
X108810000Y-114244255D01*
X108735178Y-114118645D01*
X108540269Y-113902412D01*
X108306920Y-113728359D01*
X108044099Y-113603175D01*
X107896890Y-113558524D01*
X107667000Y-113679845D01*
X107413000Y-113679845D01*
X107183110Y-113558524D01*
X107035901Y-113603175D01*
X106773080Y-113728359D01*
X106539731Y-113902412D01*
X106463966Y-113986466D01*
X106439502Y-113905820D01*
X106380537Y-113795506D01*
X106301185Y-113698815D01*
X106204494Y-113619463D01*
X106094180Y-113560498D01*
X105974482Y-113524188D01*
X105850000Y-113511928D01*
X105285750Y-113515000D01*
X105127000Y-113673750D01*
X104873000Y-113673750D01*
X104714250Y-113515000D01*
X104150000Y-113511928D01*
X104025518Y-113524188D01*
X103905820Y-113560498D01*
X103795506Y-113619463D01*
X103698815Y-113698815D01*
X103619463Y-113795506D01*
X103560498Y-113905820D01*
X103524188Y-114025518D01*
X103511928Y-114150000D01*
X100676563Y-114150000D01*
X100660000Y-113992417D01*
X100660000Y-110476890D01*
X101058524Y-110476890D01*
X101103175Y-110624099D01*
X101228359Y-110886920D01*
X101402412Y-111120269D01*
X101618645Y-111315178D01*
X101868748Y-111464157D01*
X102143109Y-111561481D01*
X102373000Y-111440814D01*
X102373000Y-110247000D01*
X102627000Y-110247000D01*
X102627000Y-111440814D01*
X102856891Y-111561481D01*
X103131252Y-111464157D01*
X103381355Y-111315178D01*
X103597588Y-111120269D01*
X103771641Y-110886920D01*
X103896825Y-110624099D01*
X103905077Y-110596890D01*
X143558524Y-110596890D01*
X143603175Y-110744099D01*
X143728359Y-111006920D01*
X143902412Y-111240269D01*
X144118645Y-111435178D01*
X144368748Y-111584157D01*
X144643109Y-111681481D01*
X144873000Y-111560814D01*
X144873000Y-110367000D01*
X145127000Y-110367000D01*
X145127000Y-111560814D01*
X145356891Y-111681481D01*
X145631252Y-111584157D01*
X145881355Y-111435178D01*
X146097588Y-111240269D01*
X146271641Y-111006920D01*
X146396825Y-110744099D01*
X146441476Y-110596890D01*
X146320155Y-110367000D01*
X145127000Y-110367000D01*
X144873000Y-110367000D01*
X143679845Y-110367000D01*
X143558524Y-110596890D01*
X103905077Y-110596890D01*
X103941476Y-110476890D01*
X103820155Y-110247000D01*
X102627000Y-110247000D01*
X102373000Y-110247000D01*
X101179845Y-110247000D01*
X101058524Y-110476890D01*
X100660000Y-110476890D01*
X100660000Y-107936890D01*
X101058524Y-107936890D01*
X101103175Y-108084099D01*
X101228359Y-108346920D01*
X101402412Y-108580269D01*
X101618645Y-108775178D01*
X101744255Y-108850000D01*
X101618645Y-108924822D01*
X101402412Y-109119731D01*
X101228359Y-109353080D01*
X101103175Y-109615901D01*
X101058524Y-109763110D01*
X101179845Y-109993000D01*
X102373000Y-109993000D01*
X102373000Y-107707000D01*
X102627000Y-107707000D01*
X102627000Y-109993000D01*
X103820155Y-109993000D01*
X103941476Y-109763110D01*
X103896825Y-109615901D01*
X103771641Y-109353080D01*
X103597588Y-109119731D01*
X103381355Y-108924822D01*
X103255745Y-108850000D01*
X103381355Y-108775178D01*
X103597588Y-108580269D01*
X103771641Y-108346920D01*
X103896825Y-108084099D01*
X103905077Y-108056890D01*
X143558524Y-108056890D01*
X143603175Y-108204099D01*
X143728359Y-108466920D01*
X143902412Y-108700269D01*
X144118645Y-108895178D01*
X144244255Y-108970000D01*
X144118645Y-109044822D01*
X143902412Y-109239731D01*
X143728359Y-109473080D01*
X143603175Y-109735901D01*
X143558524Y-109883110D01*
X143679845Y-110113000D01*
X144873000Y-110113000D01*
X144873000Y-107827000D01*
X145127000Y-107827000D01*
X145127000Y-110113000D01*
X146320155Y-110113000D01*
X146441476Y-109883110D01*
X146396825Y-109735901D01*
X146271641Y-109473080D01*
X146097588Y-109239731D01*
X145881355Y-109044822D01*
X145755745Y-108970000D01*
X145881355Y-108895178D01*
X146097588Y-108700269D01*
X146271641Y-108466920D01*
X146396825Y-108204099D01*
X146441476Y-108056890D01*
X146320155Y-107827000D01*
X145127000Y-107827000D01*
X144873000Y-107827000D01*
X143679845Y-107827000D01*
X143558524Y-108056890D01*
X103905077Y-108056890D01*
X103941476Y-107936890D01*
X103820155Y-107707000D01*
X102627000Y-107707000D01*
X102373000Y-107707000D01*
X101179845Y-107707000D01*
X101058524Y-107936890D01*
X100660000Y-107936890D01*
X100660000Y-105396890D01*
X101058524Y-105396890D01*
X101103175Y-105544099D01*
X101228359Y-105806920D01*
X101402412Y-106040269D01*
X101618645Y-106235178D01*
X101744255Y-106310000D01*
X101618645Y-106384822D01*
X101402412Y-106579731D01*
X101228359Y-106813080D01*
X101103175Y-107075901D01*
X101058524Y-107223110D01*
X101179845Y-107453000D01*
X102373000Y-107453000D01*
X102373000Y-105167000D01*
X102627000Y-105167000D01*
X102627000Y-107453000D01*
X103820155Y-107453000D01*
X103941476Y-107223110D01*
X103896825Y-107075901D01*
X103812119Y-106898061D01*
X106965000Y-106898061D01*
X106965000Y-107101939D01*
X107004774Y-107301898D01*
X107082795Y-107490256D01*
X107196063Y-107659774D01*
X107340226Y-107803937D01*
X107509744Y-107917205D01*
X107698102Y-107995226D01*
X107898061Y-108035000D01*
X108101939Y-108035000D01*
X108301898Y-107995226D01*
X108490256Y-107917205D01*
X108659774Y-107803937D01*
X108803937Y-107659774D01*
X108917205Y-107490256D01*
X108995226Y-107301898D01*
X109035000Y-107101939D01*
X109035000Y-107039801D01*
X109511004Y-106563798D01*
X109540001Y-106540001D01*
X109634974Y-106424276D01*
X109705546Y-106292247D01*
X109749003Y-106148986D01*
X109760000Y-106037333D01*
X109760000Y-106037332D01*
X109763677Y-106000000D01*
X109760000Y-105962667D01*
X109760000Y-105703711D01*
X109803937Y-105659774D01*
X109899408Y-105516890D01*
X143558524Y-105516890D01*
X143603175Y-105664099D01*
X143728359Y-105926920D01*
X143902412Y-106160269D01*
X144118645Y-106355178D01*
X144244255Y-106430000D01*
X144118645Y-106504822D01*
X143902412Y-106699731D01*
X143728359Y-106933080D01*
X143603175Y-107195901D01*
X143558524Y-107343110D01*
X143679845Y-107573000D01*
X144873000Y-107573000D01*
X144873000Y-105287000D01*
X145127000Y-105287000D01*
X145127000Y-107573000D01*
X146320155Y-107573000D01*
X146441476Y-107343110D01*
X146396825Y-107195901D01*
X146271641Y-106933080D01*
X146097588Y-106699731D01*
X145881355Y-106504822D01*
X145755745Y-106430000D01*
X145881355Y-106355178D01*
X146097588Y-106160269D01*
X146271641Y-105926920D01*
X146396825Y-105664099D01*
X146441476Y-105516890D01*
X146320155Y-105287000D01*
X145127000Y-105287000D01*
X144873000Y-105287000D01*
X143679845Y-105287000D01*
X143558524Y-105516890D01*
X109899408Y-105516890D01*
X109917205Y-105490256D01*
X109995226Y-105301898D01*
X110035000Y-105101939D01*
X110035000Y-104898061D01*
X109995226Y-104698102D01*
X109917205Y-104509744D01*
X109803937Y-104340226D01*
X109659774Y-104196063D01*
X109490256Y-104082795D01*
X109301898Y-104004774D01*
X109101939Y-103965000D01*
X108898061Y-103965000D01*
X108698102Y-104004774D01*
X108509744Y-104082795D01*
X108340226Y-104196063D01*
X108196063Y-104340226D01*
X108082795Y-104509744D01*
X108004774Y-104698102D01*
X107965000Y-104898061D01*
X107965000Y-105101939D01*
X108004774Y-105301898D01*
X108082795Y-105490256D01*
X108196063Y-105659774D01*
X108230744Y-105694455D01*
X107960199Y-105965000D01*
X107898061Y-105965000D01*
X107698102Y-106004774D01*
X107509744Y-106082795D01*
X107340226Y-106196063D01*
X107196063Y-106340226D01*
X107082795Y-106509744D01*
X107004774Y-106698102D01*
X106965000Y-106898061D01*
X103812119Y-106898061D01*
X103771641Y-106813080D01*
X103597588Y-106579731D01*
X103381355Y-106384822D01*
X103255745Y-106310000D01*
X103381355Y-106235178D01*
X103597588Y-106040269D01*
X103771641Y-105806920D01*
X103896825Y-105544099D01*
X103941476Y-105396890D01*
X103820155Y-105167000D01*
X102627000Y-105167000D01*
X102373000Y-105167000D01*
X101179845Y-105167000D01*
X101058524Y-105396890D01*
X100660000Y-105396890D01*
X100660000Y-103350000D01*
X101011928Y-103350000D01*
X101024188Y-103474482D01*
X101060498Y-103594180D01*
X101119463Y-103704494D01*
X101198815Y-103801185D01*
X101295506Y-103880537D01*
X101405820Y-103939502D01*
X101486466Y-103963966D01*
X101402412Y-104039731D01*
X101228359Y-104273080D01*
X101103175Y-104535901D01*
X101058524Y-104683110D01*
X101179845Y-104913000D01*
X102373000Y-104913000D01*
X102373000Y-102627000D01*
X102627000Y-102627000D01*
X102627000Y-104913000D01*
X103820155Y-104913000D01*
X103941476Y-104683110D01*
X103896825Y-104535901D01*
X103771641Y-104273080D01*
X103597588Y-104039731D01*
X103513534Y-103963966D01*
X103594180Y-103939502D01*
X103704494Y-103880537D01*
X103801185Y-103801185D01*
X103880537Y-103704494D01*
X103939502Y-103594180D01*
X103972283Y-103486113D01*
X113634490Y-103486113D01*
X113634490Y-103689991D01*
X113674264Y-103889950D01*
X113752285Y-104078308D01*
X113865553Y-104247826D01*
X114009716Y-104391989D01*
X114179234Y-104505257D01*
X114367592Y-104583278D01*
X114567551Y-104623052D01*
X114629688Y-104623052D01*
X114992640Y-104986004D01*
X115016438Y-105015002D01*
X115132163Y-105109975D01*
X115264192Y-105180547D01*
X115407453Y-105224004D01*
X115519106Y-105235001D01*
X115519115Y-105235001D01*
X115556438Y-105238677D01*
X115593761Y-105235001D01*
X126087677Y-105235001D01*
X126124999Y-105238677D01*
X126162321Y-105235001D01*
X126162332Y-105235001D01*
X126273985Y-105224004D01*
X126417246Y-105180547D01*
X126549275Y-105109975D01*
X126665000Y-105015002D01*
X126688803Y-104985998D01*
X127389802Y-104285000D01*
X127451939Y-104285000D01*
X127651898Y-104245226D01*
X127840256Y-104167205D01*
X128009774Y-104053937D01*
X128153937Y-103909774D01*
X128267205Y-103740256D01*
X128345226Y-103551898D01*
X128385000Y-103351939D01*
X128385000Y-103148061D01*
X128350953Y-102976890D01*
X143558524Y-102976890D01*
X143603175Y-103124099D01*
X143728359Y-103386920D01*
X143902412Y-103620269D01*
X144118645Y-103815178D01*
X144244255Y-103890000D01*
X144118645Y-103964822D01*
X143902412Y-104159731D01*
X143728359Y-104393080D01*
X143603175Y-104655901D01*
X143558524Y-104803110D01*
X143679845Y-105033000D01*
X144873000Y-105033000D01*
X144873000Y-102747000D01*
X145127000Y-102747000D01*
X145127000Y-105033000D01*
X146320155Y-105033000D01*
X146441476Y-104803110D01*
X146396825Y-104655901D01*
X146271641Y-104393080D01*
X146097588Y-104159731D01*
X145881355Y-103964822D01*
X145755745Y-103890000D01*
X145881355Y-103815178D01*
X146097588Y-103620269D01*
X146271641Y-103386920D01*
X146396825Y-103124099D01*
X146441476Y-102976890D01*
X146320155Y-102747000D01*
X145127000Y-102747000D01*
X144873000Y-102747000D01*
X143679845Y-102747000D01*
X143558524Y-102976890D01*
X128350953Y-102976890D01*
X128345226Y-102948102D01*
X128267205Y-102759744D01*
X128153937Y-102590226D01*
X128009774Y-102446063D01*
X127840256Y-102332795D01*
X127651898Y-102254774D01*
X127451939Y-102215000D01*
X127248061Y-102215000D01*
X127048102Y-102254774D01*
X126859744Y-102332795D01*
X126690226Y-102446063D01*
X126546063Y-102590226D01*
X126432795Y-102759744D01*
X126354774Y-102948102D01*
X126315000Y-103148061D01*
X126315000Y-103210198D01*
X125810198Y-103715001D01*
X118385000Y-103715001D01*
X118385000Y-103648061D01*
X118345226Y-103448102D01*
X118267205Y-103259744D01*
X118153937Y-103090226D01*
X118110000Y-103046289D01*
X118110000Y-100436890D01*
X143558524Y-100436890D01*
X143603175Y-100584099D01*
X143728359Y-100846920D01*
X143902412Y-101080269D01*
X144118645Y-101275178D01*
X144244255Y-101350000D01*
X144118645Y-101424822D01*
X143902412Y-101619731D01*
X143728359Y-101853080D01*
X143603175Y-102115901D01*
X143558524Y-102263110D01*
X143679845Y-102493000D01*
X144873000Y-102493000D01*
X144873000Y-100207000D01*
X145127000Y-100207000D01*
X145127000Y-102493000D01*
X146320155Y-102493000D01*
X146441476Y-102263110D01*
X146396825Y-102115901D01*
X146271641Y-101853080D01*
X146097588Y-101619731D01*
X145881355Y-101424822D01*
X145755745Y-101350000D01*
X145881355Y-101275178D01*
X146097588Y-101080269D01*
X146271641Y-100846920D01*
X146396825Y-100584099D01*
X146441476Y-100436890D01*
X146320155Y-100207000D01*
X145127000Y-100207000D01*
X144873000Y-100207000D01*
X143679845Y-100207000D01*
X143558524Y-100436890D01*
X118110000Y-100436890D01*
X118110000Y-97896890D01*
X143558524Y-97896890D01*
X143603175Y-98044099D01*
X143728359Y-98306920D01*
X143902412Y-98540269D01*
X144118645Y-98735178D01*
X144244255Y-98810000D01*
X144118645Y-98884822D01*
X143902412Y-99079731D01*
X143728359Y-99313080D01*
X143603175Y-99575901D01*
X143558524Y-99723110D01*
X143679845Y-99953000D01*
X144873000Y-99953000D01*
X144873000Y-97667000D01*
X145127000Y-97667000D01*
X145127000Y-99953000D01*
X146320155Y-99953000D01*
X146441476Y-99723110D01*
X146396825Y-99575901D01*
X146271641Y-99313080D01*
X146097588Y-99079731D01*
X145881355Y-98884822D01*
X145755745Y-98810000D01*
X145881355Y-98735178D01*
X146097588Y-98540269D01*
X146271641Y-98306920D01*
X146396825Y-98044099D01*
X146441476Y-97896890D01*
X146320155Y-97667000D01*
X145127000Y-97667000D01*
X144873000Y-97667000D01*
X143679845Y-97667000D01*
X143558524Y-97896890D01*
X118110000Y-97896890D01*
X118110000Y-96753560D01*
X118151898Y-96745226D01*
X118340256Y-96667205D01*
X118509774Y-96553937D01*
X118653937Y-96409774D01*
X118767205Y-96240256D01*
X118845226Y-96051898D01*
X118885000Y-95851939D01*
X118885000Y-95648061D01*
X118845226Y-95448102D01*
X118767205Y-95259744D01*
X118653937Y-95090226D01*
X118509774Y-94946063D01*
X118371603Y-94853740D01*
X143515000Y-94853740D01*
X143515000Y-95146260D01*
X143572068Y-95433158D01*
X143684010Y-95703411D01*
X143846525Y-95946632D01*
X144053368Y-96153475D01*
X144235534Y-96275195D01*
X144118645Y-96344822D01*
X143902412Y-96539731D01*
X143728359Y-96773080D01*
X143603175Y-97035901D01*
X143558524Y-97183110D01*
X143679845Y-97413000D01*
X144873000Y-97413000D01*
X144873000Y-97393000D01*
X145127000Y-97393000D01*
X145127000Y-97413000D01*
X146320155Y-97413000D01*
X146441476Y-97183110D01*
X146396825Y-97035901D01*
X146271641Y-96773080D01*
X146097588Y-96539731D01*
X145881355Y-96344822D01*
X145764466Y-96275195D01*
X145946632Y-96153475D01*
X146153475Y-95946632D01*
X146315990Y-95703411D01*
X146427932Y-95433158D01*
X146485000Y-95146260D01*
X146485000Y-94853740D01*
X146427932Y-94566842D01*
X146315990Y-94296589D01*
X146153475Y-94053368D01*
X145946632Y-93846525D01*
X145764466Y-93724805D01*
X145881355Y-93655178D01*
X146097588Y-93460269D01*
X146271641Y-93226920D01*
X146396825Y-92964099D01*
X146441476Y-92816890D01*
X146320155Y-92587000D01*
X145127000Y-92587000D01*
X145127000Y-92607000D01*
X144873000Y-92607000D01*
X144873000Y-92587000D01*
X143679845Y-92587000D01*
X143558524Y-92816890D01*
X143603175Y-92964099D01*
X143728359Y-93226920D01*
X143902412Y-93460269D01*
X144118645Y-93655178D01*
X144235534Y-93724805D01*
X144053368Y-93846525D01*
X143846525Y-94053368D01*
X143684010Y-94296589D01*
X143572068Y-94566842D01*
X143515000Y-94853740D01*
X118371603Y-94853740D01*
X118340256Y-94832795D01*
X118151898Y-94754774D01*
X117951939Y-94715000D01*
X117748061Y-94715000D01*
X117548102Y-94754774D01*
X117359744Y-94832795D01*
X117190226Y-94946063D01*
X117046063Y-95090226D01*
X116932795Y-95259744D01*
X116854774Y-95448102D01*
X116815000Y-95648061D01*
X116815000Y-95705896D01*
X116810000Y-95709999D01*
X116786202Y-95738997D01*
X116786201Y-95738998D01*
X116715026Y-95825724D01*
X116644454Y-95957754D01*
X116600998Y-96101015D01*
X116586324Y-96250000D01*
X116590001Y-96287332D01*
X116590000Y-103046289D01*
X116546063Y-103090226D01*
X116432795Y-103259744D01*
X116354774Y-103448102D01*
X116315000Y-103648061D01*
X116315000Y-103715001D01*
X115871241Y-103715001D01*
X115704490Y-103548250D01*
X115704490Y-103486113D01*
X115664716Y-103286154D01*
X115586695Y-103097796D01*
X115473427Y-102928278D01*
X115329264Y-102784115D01*
X115159746Y-102670847D01*
X114971388Y-102592826D01*
X114771429Y-102553052D01*
X114567551Y-102553052D01*
X114367592Y-102592826D01*
X114179234Y-102670847D01*
X114009716Y-102784115D01*
X113865553Y-102928278D01*
X113752285Y-103097796D01*
X113674264Y-103286154D01*
X113634490Y-103486113D01*
X103972283Y-103486113D01*
X103975812Y-103474482D01*
X103988072Y-103350000D01*
X103985000Y-102785750D01*
X103826250Y-102627000D01*
X102627000Y-102627000D01*
X102373000Y-102627000D01*
X101173750Y-102627000D01*
X101015000Y-102785750D01*
X101011928Y-103350000D01*
X100660000Y-103350000D01*
X100660000Y-101650000D01*
X101011928Y-101650000D01*
X101015000Y-102214250D01*
X101173750Y-102373000D01*
X102373000Y-102373000D01*
X102373000Y-101173750D01*
X102627000Y-101173750D01*
X102627000Y-102373000D01*
X103826250Y-102373000D01*
X103985000Y-102214250D01*
X103988072Y-101650000D01*
X103975812Y-101525518D01*
X103939502Y-101405820D01*
X103880537Y-101295506D01*
X103801185Y-101198815D01*
X103704494Y-101119463D01*
X103594180Y-101060498D01*
X103474482Y-101024188D01*
X103350000Y-101011928D01*
X102785750Y-101015000D01*
X102627000Y-101173750D01*
X102373000Y-101173750D01*
X102214250Y-101015000D01*
X101650000Y-101011928D01*
X101525518Y-101024188D01*
X101405820Y-101060498D01*
X101295506Y-101119463D01*
X101198815Y-101198815D01*
X101119463Y-101295506D01*
X101060498Y-101405820D01*
X101024188Y-101525518D01*
X101011928Y-101650000D01*
X100660000Y-101650000D01*
X100660000Y-97936890D01*
X101058524Y-97936890D01*
X101103175Y-98084099D01*
X101228359Y-98346920D01*
X101402412Y-98580269D01*
X101618645Y-98775178D01*
X101868748Y-98924157D01*
X102143109Y-99021481D01*
X102373000Y-98900814D01*
X102373000Y-97707000D01*
X101179845Y-97707000D01*
X101058524Y-97936890D01*
X100660000Y-97936890D01*
X100660000Y-93350000D01*
X101011928Y-93350000D01*
X101024188Y-93474482D01*
X101060498Y-93594180D01*
X101119463Y-93704494D01*
X101198815Y-93801185D01*
X101295506Y-93880537D01*
X101405820Y-93939502D01*
X101478380Y-93961513D01*
X101346525Y-94093368D01*
X101184010Y-94336589D01*
X101072068Y-94606842D01*
X101015000Y-94893740D01*
X101015000Y-95186260D01*
X101072068Y-95473158D01*
X101184010Y-95743411D01*
X101346525Y-95986632D01*
X101553368Y-96193475D01*
X101735534Y-96315195D01*
X101618645Y-96384822D01*
X101402412Y-96579731D01*
X101228359Y-96813080D01*
X101103175Y-97075901D01*
X101058524Y-97223110D01*
X101179845Y-97453000D01*
X102373000Y-97453000D01*
X102373000Y-97433000D01*
X102627000Y-97433000D01*
X102627000Y-97453000D01*
X102647000Y-97453000D01*
X102647000Y-97707000D01*
X102627000Y-97707000D01*
X102627000Y-98900814D01*
X102856891Y-99021481D01*
X103131252Y-98924157D01*
X103381355Y-98775178D01*
X103597588Y-98580269D01*
X103726137Y-98407927D01*
X103754774Y-98551898D01*
X103832795Y-98740256D01*
X103946063Y-98909774D01*
X104090226Y-99053937D01*
X104259744Y-99167205D01*
X104448102Y-99245226D01*
X104648061Y-99285000D01*
X104851939Y-99285000D01*
X105051898Y-99245226D01*
X105240256Y-99167205D01*
X105409774Y-99053937D01*
X105553937Y-98909774D01*
X105667205Y-98740256D01*
X105745226Y-98551898D01*
X105785000Y-98351939D01*
X105785000Y-98148061D01*
X105745226Y-97948102D01*
X105667205Y-97759744D01*
X105553937Y-97590226D01*
X105510000Y-97546289D01*
X105510000Y-86453711D01*
X105553937Y-86409774D01*
X105667205Y-86240256D01*
X105745226Y-86051898D01*
X105760907Y-85973061D01*
X113615000Y-85973061D01*
X113615000Y-86176939D01*
X113654774Y-86376898D01*
X113732795Y-86565256D01*
X113846063Y-86734774D01*
X113990226Y-86878937D01*
X114159744Y-86992205D01*
X114348102Y-87070226D01*
X114548061Y-87110000D01*
X114751939Y-87110000D01*
X114951898Y-87070226D01*
X115140256Y-86992205D01*
X115309774Y-86878937D01*
X115453937Y-86734774D01*
X115567205Y-86565256D01*
X115645226Y-86376898D01*
X115671561Y-86244501D01*
X116355498Y-86244501D01*
X116355498Y-86311441D01*
X116395272Y-86511400D01*
X116473293Y-86699758D01*
X116586561Y-86869276D01*
X116630498Y-86913213D01*
X116630499Y-92253166D01*
X116626822Y-92290498D01*
X116641496Y-92439483D01*
X116684952Y-92582744D01*
X116755524Y-92714774D01*
X116813773Y-92785750D01*
X116850498Y-92830499D01*
X116879496Y-92854297D01*
X117315000Y-93289801D01*
X117315000Y-93351939D01*
X117354774Y-93551898D01*
X117432795Y-93740256D01*
X117546063Y-93909774D01*
X117690226Y-94053937D01*
X117859744Y-94167205D01*
X118048102Y-94245226D01*
X118248061Y-94285000D01*
X118451939Y-94285000D01*
X118651898Y-94245226D01*
X118840256Y-94167205D01*
X119009774Y-94053937D01*
X119153937Y-93909774D01*
X119267205Y-93740256D01*
X119345226Y-93551898D01*
X119385000Y-93351939D01*
X119385000Y-93148061D01*
X119345226Y-92948102D01*
X119267205Y-92759744D01*
X119153937Y-92590226D01*
X119009774Y-92446063D01*
X118840256Y-92332795D01*
X118651898Y-92254774D01*
X118451939Y-92215000D01*
X118389801Y-92215000D01*
X118150498Y-91975697D01*
X118150498Y-90276890D01*
X143558524Y-90276890D01*
X143603175Y-90424099D01*
X143728359Y-90686920D01*
X143902412Y-90920269D01*
X144118645Y-91115178D01*
X144244255Y-91190000D01*
X144118645Y-91264822D01*
X143902412Y-91459731D01*
X143728359Y-91693080D01*
X143603175Y-91955901D01*
X143558524Y-92103110D01*
X143679845Y-92333000D01*
X144873000Y-92333000D01*
X144873000Y-90047000D01*
X145127000Y-90047000D01*
X145127000Y-92333000D01*
X146320155Y-92333000D01*
X146441476Y-92103110D01*
X146396825Y-91955901D01*
X146271641Y-91693080D01*
X146097588Y-91459731D01*
X145881355Y-91264822D01*
X145755745Y-91190000D01*
X145881355Y-91115178D01*
X146097588Y-90920269D01*
X146271641Y-90686920D01*
X146396825Y-90424099D01*
X146441476Y-90276890D01*
X146320155Y-90047000D01*
X145127000Y-90047000D01*
X144873000Y-90047000D01*
X143679845Y-90047000D01*
X143558524Y-90276890D01*
X118150498Y-90276890D01*
X118150498Y-87736890D01*
X143558524Y-87736890D01*
X143603175Y-87884099D01*
X143728359Y-88146920D01*
X143902412Y-88380269D01*
X144118645Y-88575178D01*
X144244255Y-88650000D01*
X144118645Y-88724822D01*
X143902412Y-88919731D01*
X143728359Y-89153080D01*
X143603175Y-89415901D01*
X143558524Y-89563110D01*
X143679845Y-89793000D01*
X144873000Y-89793000D01*
X144873000Y-87507000D01*
X145127000Y-87507000D01*
X145127000Y-89793000D01*
X146320155Y-89793000D01*
X146441476Y-89563110D01*
X146396825Y-89415901D01*
X146271641Y-89153080D01*
X146097588Y-88919731D01*
X145881355Y-88724822D01*
X145755745Y-88650000D01*
X145881355Y-88575178D01*
X146097588Y-88380269D01*
X146271641Y-88146920D01*
X146396825Y-87884099D01*
X146441476Y-87736890D01*
X146320155Y-87507000D01*
X145127000Y-87507000D01*
X144873000Y-87507000D01*
X143679845Y-87507000D01*
X143558524Y-87736890D01*
X118150498Y-87736890D01*
X118150498Y-86913213D01*
X118194435Y-86869276D01*
X118307703Y-86699758D01*
X118385724Y-86511400D01*
X118425498Y-86311441D01*
X118425498Y-86244501D01*
X125869699Y-86244501D01*
X126015000Y-86389802D01*
X126015000Y-86451939D01*
X126054774Y-86651898D01*
X126132795Y-86840256D01*
X126246063Y-87009774D01*
X126390226Y-87153937D01*
X126559744Y-87267205D01*
X126748102Y-87345226D01*
X126948061Y-87385000D01*
X127151939Y-87385000D01*
X127351898Y-87345226D01*
X127540256Y-87267205D01*
X127709774Y-87153937D01*
X127853937Y-87009774D01*
X127967205Y-86840256D01*
X128045226Y-86651898D01*
X128085000Y-86451939D01*
X128085000Y-86248061D01*
X128045226Y-86048102D01*
X127967205Y-85859744D01*
X127853937Y-85690226D01*
X127709774Y-85546063D01*
X127540256Y-85432795D01*
X127351898Y-85354774D01*
X127151939Y-85315000D01*
X127089802Y-85315000D01*
X126971692Y-85196890D01*
X143558524Y-85196890D01*
X143603175Y-85344099D01*
X143728359Y-85606920D01*
X143902412Y-85840269D01*
X144118645Y-86035178D01*
X144244255Y-86110000D01*
X144118645Y-86184822D01*
X143902412Y-86379731D01*
X143728359Y-86613080D01*
X143603175Y-86875901D01*
X143558524Y-87023110D01*
X143679845Y-87253000D01*
X144873000Y-87253000D01*
X144873000Y-84967000D01*
X145127000Y-84967000D01*
X145127000Y-87253000D01*
X146320155Y-87253000D01*
X146441476Y-87023110D01*
X146396825Y-86875901D01*
X146271641Y-86613080D01*
X146097588Y-86379731D01*
X145881355Y-86184822D01*
X145755745Y-86110000D01*
X145881355Y-86035178D01*
X146097588Y-85840269D01*
X146271641Y-85606920D01*
X146396825Y-85344099D01*
X146441476Y-85196890D01*
X146320155Y-84967000D01*
X145127000Y-84967000D01*
X144873000Y-84967000D01*
X143679845Y-84967000D01*
X143558524Y-85196890D01*
X126971692Y-85196890D01*
X126748304Y-84973503D01*
X126724502Y-84944500D01*
X126608777Y-84849527D01*
X126476748Y-84778955D01*
X126333487Y-84735498D01*
X126221834Y-84724501D01*
X126221823Y-84724501D01*
X126184501Y-84720825D01*
X126147179Y-84724501D01*
X115277824Y-84724501D01*
X115240499Y-84720825D01*
X115203174Y-84724501D01*
X115203166Y-84724501D01*
X115091513Y-84735498D01*
X114948252Y-84778955D01*
X114816223Y-84849527D01*
X114700498Y-84944500D01*
X114676699Y-84973499D01*
X114610198Y-85040000D01*
X114548061Y-85040000D01*
X114348102Y-85079774D01*
X114159744Y-85157795D01*
X113990226Y-85271063D01*
X113846063Y-85415226D01*
X113732795Y-85584744D01*
X113654774Y-85773102D01*
X113615000Y-85973061D01*
X105760907Y-85973061D01*
X105785000Y-85851939D01*
X105785000Y-85648061D01*
X105745226Y-85448102D01*
X105667205Y-85259744D01*
X105553937Y-85090226D01*
X105409774Y-84946063D01*
X105240256Y-84832795D01*
X105051898Y-84754774D01*
X104851939Y-84715000D01*
X104648061Y-84715000D01*
X104448102Y-84754774D01*
X104259744Y-84832795D01*
X104090226Y-84946063D01*
X103985000Y-85051289D01*
X103985000Y-84952998D01*
X103820156Y-84952998D01*
X103941476Y-84723110D01*
X103896825Y-84575901D01*
X103771641Y-84313080D01*
X103597588Y-84079731D01*
X103381355Y-83884822D01*
X103255745Y-83810000D01*
X103381355Y-83735178D01*
X103597588Y-83540269D01*
X103771641Y-83306920D01*
X103896825Y-83044099D01*
X103941476Y-82896890D01*
X103820155Y-82667000D01*
X102627000Y-82667000D01*
X102627000Y-84953000D01*
X102647000Y-84953000D01*
X102647000Y-85207000D01*
X102627000Y-85207000D01*
X102627000Y-87493000D01*
X103820155Y-87493000D01*
X103941476Y-87263110D01*
X103896825Y-87115901D01*
X103771641Y-86853080D01*
X103597588Y-86619731D01*
X103381355Y-86424822D01*
X103255745Y-86350000D01*
X103381355Y-86275178D01*
X103597588Y-86080269D01*
X103726137Y-85907927D01*
X103754774Y-86051898D01*
X103832795Y-86240256D01*
X103946063Y-86409774D01*
X103990000Y-86453711D01*
X103990001Y-97546288D01*
X103985000Y-97551289D01*
X103985000Y-97452998D01*
X103820156Y-97452998D01*
X103941476Y-97223110D01*
X103896825Y-97075901D01*
X103771641Y-96813080D01*
X103597588Y-96579731D01*
X103381355Y-96384822D01*
X103264466Y-96315195D01*
X103446632Y-96193475D01*
X103653475Y-95986632D01*
X103815990Y-95743411D01*
X103927932Y-95473158D01*
X103985000Y-95186260D01*
X103985000Y-94893740D01*
X103927932Y-94606842D01*
X103815990Y-94336589D01*
X103653475Y-94093368D01*
X103521620Y-93961513D01*
X103594180Y-93939502D01*
X103704494Y-93880537D01*
X103801185Y-93801185D01*
X103880537Y-93704494D01*
X103939502Y-93594180D01*
X103975812Y-93474482D01*
X103988072Y-93350000D01*
X103985000Y-92785750D01*
X103826250Y-92627000D01*
X102627000Y-92627000D01*
X102627000Y-92647000D01*
X102373000Y-92647000D01*
X102373000Y-92627000D01*
X101173750Y-92627000D01*
X101015000Y-92785750D01*
X101011928Y-93350000D01*
X100660000Y-93350000D01*
X100660000Y-91650000D01*
X101011928Y-91650000D01*
X101015000Y-92214250D01*
X101173750Y-92373000D01*
X102373000Y-92373000D01*
X102373000Y-91173750D01*
X102627000Y-91173750D01*
X102627000Y-92373000D01*
X103826250Y-92373000D01*
X103985000Y-92214250D01*
X103988072Y-91650000D01*
X103975812Y-91525518D01*
X103939502Y-91405820D01*
X103880537Y-91295506D01*
X103801185Y-91198815D01*
X103704494Y-91119463D01*
X103594180Y-91060498D01*
X103474482Y-91024188D01*
X103350000Y-91011928D01*
X102785750Y-91015000D01*
X102627000Y-91173750D01*
X102373000Y-91173750D01*
X102214250Y-91015000D01*
X101650000Y-91011928D01*
X101525518Y-91024188D01*
X101405820Y-91060498D01*
X101295506Y-91119463D01*
X101198815Y-91198815D01*
X101119463Y-91295506D01*
X101060498Y-91405820D01*
X101024188Y-91525518D01*
X101011928Y-91650000D01*
X100660000Y-91650000D01*
X100660000Y-87976890D01*
X101058524Y-87976890D01*
X101103175Y-88124099D01*
X101228359Y-88386920D01*
X101402412Y-88620269D01*
X101618645Y-88815178D01*
X101868748Y-88964157D01*
X102143109Y-89061481D01*
X102373000Y-88940814D01*
X102373000Y-87747000D01*
X102627000Y-87747000D01*
X102627000Y-88940814D01*
X102856891Y-89061481D01*
X103131252Y-88964157D01*
X103381355Y-88815178D01*
X103597588Y-88620269D01*
X103771641Y-88386920D01*
X103896825Y-88124099D01*
X103941476Y-87976890D01*
X103820155Y-87747000D01*
X102627000Y-87747000D01*
X102373000Y-87747000D01*
X101179845Y-87747000D01*
X101058524Y-87976890D01*
X100660000Y-87976890D01*
X100660000Y-85436890D01*
X101058524Y-85436890D01*
X101103175Y-85584099D01*
X101228359Y-85846920D01*
X101402412Y-86080269D01*
X101618645Y-86275178D01*
X101744255Y-86350000D01*
X101618645Y-86424822D01*
X101402412Y-86619731D01*
X101228359Y-86853080D01*
X101103175Y-87115901D01*
X101058524Y-87263110D01*
X101179845Y-87493000D01*
X102373000Y-87493000D01*
X102373000Y-85207000D01*
X101179845Y-85207000D01*
X101058524Y-85436890D01*
X100660000Y-85436890D01*
X100660000Y-82896890D01*
X101058524Y-82896890D01*
X101103175Y-83044099D01*
X101228359Y-83306920D01*
X101402412Y-83540269D01*
X101618645Y-83735178D01*
X101744255Y-83810000D01*
X101618645Y-83884822D01*
X101402412Y-84079731D01*
X101228359Y-84313080D01*
X101103175Y-84575901D01*
X101058524Y-84723110D01*
X101179845Y-84953000D01*
X102373000Y-84953000D01*
X102373000Y-82667000D01*
X101179845Y-82667000D01*
X101058524Y-82896890D01*
X100660000Y-82896890D01*
X100660000Y-82656890D01*
X143558524Y-82656890D01*
X143603175Y-82804099D01*
X143728359Y-83066920D01*
X143902412Y-83300269D01*
X144118645Y-83495178D01*
X144244255Y-83570000D01*
X144118645Y-83644822D01*
X143902412Y-83839731D01*
X143728359Y-84073080D01*
X143603175Y-84335901D01*
X143558524Y-84483110D01*
X143679845Y-84713000D01*
X144873000Y-84713000D01*
X144873000Y-82427000D01*
X145127000Y-82427000D01*
X145127000Y-84713000D01*
X146320155Y-84713000D01*
X146441476Y-84483110D01*
X146396825Y-84335901D01*
X146271641Y-84073080D01*
X146097588Y-83839731D01*
X145881355Y-83644822D01*
X145755745Y-83570000D01*
X145881355Y-83495178D01*
X146097588Y-83300269D01*
X146271641Y-83066920D01*
X146396825Y-82804099D01*
X146441476Y-82656890D01*
X146320155Y-82427000D01*
X145127000Y-82427000D01*
X144873000Y-82427000D01*
X143679845Y-82427000D01*
X143558524Y-82656890D01*
X100660000Y-82656890D01*
X100660000Y-80850000D01*
X101011928Y-80850000D01*
X101024188Y-80974482D01*
X101060498Y-81094180D01*
X101119463Y-81204494D01*
X101198815Y-81301185D01*
X101295506Y-81380537D01*
X101405820Y-81439502D01*
X101486466Y-81463966D01*
X101402412Y-81539731D01*
X101228359Y-81773080D01*
X101103175Y-82035901D01*
X101058524Y-82183110D01*
X101179845Y-82413000D01*
X102373000Y-82413000D01*
X102373000Y-80127000D01*
X102627000Y-80127000D01*
X102627000Y-82413000D01*
X103820155Y-82413000D01*
X103941476Y-82183110D01*
X103896825Y-82035901D01*
X103771641Y-81773080D01*
X103597588Y-81539731D01*
X103513534Y-81463966D01*
X103594180Y-81439502D01*
X103704494Y-81380537D01*
X103801185Y-81301185D01*
X103880537Y-81204494D01*
X103939502Y-81094180D01*
X103975812Y-80974482D01*
X103988072Y-80850000D01*
X103986766Y-80610000D01*
X143511928Y-80610000D01*
X143524188Y-80734482D01*
X143560498Y-80854180D01*
X143619463Y-80964494D01*
X143698815Y-81061185D01*
X143795506Y-81140537D01*
X143905820Y-81199502D01*
X143986466Y-81223966D01*
X143902412Y-81299731D01*
X143728359Y-81533080D01*
X143603175Y-81795901D01*
X143558524Y-81943110D01*
X143679845Y-82173000D01*
X144873000Y-82173000D01*
X144873000Y-79887000D01*
X145127000Y-79887000D01*
X145127000Y-82173000D01*
X146320155Y-82173000D01*
X146441476Y-81943110D01*
X146396825Y-81795901D01*
X146271641Y-81533080D01*
X146097588Y-81299731D01*
X146013534Y-81223966D01*
X146094180Y-81199502D01*
X146204494Y-81140537D01*
X146301185Y-81061185D01*
X146380537Y-80964494D01*
X146439502Y-80854180D01*
X146475812Y-80734482D01*
X146488072Y-80610000D01*
X146485000Y-80045750D01*
X146326250Y-79887000D01*
X145127000Y-79887000D01*
X144873000Y-79887000D01*
X143673750Y-79887000D01*
X143515000Y-80045750D01*
X143511928Y-80610000D01*
X103986766Y-80610000D01*
X103985000Y-80285750D01*
X103826250Y-80127000D01*
X102627000Y-80127000D01*
X102373000Y-80127000D01*
X101173750Y-80127000D01*
X101015000Y-80285750D01*
X101011928Y-80850000D01*
X100660000Y-80850000D01*
X100660000Y-79150000D01*
X101011928Y-79150000D01*
X101015000Y-79714250D01*
X101173750Y-79873000D01*
X102373000Y-79873000D01*
X102373000Y-78673750D01*
X102627000Y-78673750D01*
X102627000Y-79873000D01*
X103826250Y-79873000D01*
X103985000Y-79714250D01*
X103988072Y-79150000D01*
X103975812Y-79025518D01*
X103939502Y-78905820D01*
X103880537Y-78795506D01*
X103801185Y-78698815D01*
X103704494Y-78619463D01*
X103594180Y-78560498D01*
X103474482Y-78524188D01*
X103350000Y-78511928D01*
X102785750Y-78515000D01*
X102627000Y-78673750D01*
X102373000Y-78673750D01*
X102214250Y-78515000D01*
X101650000Y-78511928D01*
X101525518Y-78524188D01*
X101405820Y-78560498D01*
X101295506Y-78619463D01*
X101198815Y-78698815D01*
X101119463Y-78795506D01*
X101060498Y-78905820D01*
X101024188Y-79025518D01*
X101011928Y-79150000D01*
X100660000Y-79150000D01*
X100660000Y-76532278D01*
X100726714Y-75851874D01*
X100727279Y-75850000D01*
X103511928Y-75850000D01*
X103524188Y-75974482D01*
X103560498Y-76094180D01*
X103619463Y-76204494D01*
X103698815Y-76301185D01*
X103795506Y-76380537D01*
X103905820Y-76439502D01*
X104025518Y-76475812D01*
X104150000Y-76488072D01*
X104714250Y-76485000D01*
X104873000Y-76326250D01*
X104873000Y-75127000D01*
X103673750Y-75127000D01*
X103515000Y-75285750D01*
X103511928Y-75850000D01*
X100727279Y-75850000D01*
X100914943Y-75228428D01*
X101220681Y-74653421D01*
X101631261Y-74150000D01*
X103511928Y-74150000D01*
X103515000Y-74714250D01*
X103673750Y-74873000D01*
X104873000Y-74873000D01*
X104873000Y-73673750D01*
X105127000Y-73673750D01*
X105127000Y-74873000D01*
X105147000Y-74873000D01*
X105147000Y-75127000D01*
X105127000Y-75127000D01*
X105127000Y-76326250D01*
X105285750Y-76485000D01*
X105850000Y-76488072D01*
X105974482Y-76475812D01*
X106094180Y-76439502D01*
X106204494Y-76380537D01*
X106301185Y-76301185D01*
X106380537Y-76204494D01*
X106439502Y-76094180D01*
X106461513Y-76021620D01*
X106593368Y-76153475D01*
X106836589Y-76315990D01*
X107106842Y-76427932D01*
X107393740Y-76485000D01*
X107686260Y-76485000D01*
X107906408Y-76441209D01*
X109976201Y-78511003D01*
X109999999Y-78540001D01*
X110115724Y-78634974D01*
X110247753Y-78705546D01*
X110391014Y-78749003D01*
X110502667Y-78760000D01*
X110502675Y-78760000D01*
X110540000Y-78763676D01*
X110577325Y-78760000D01*
X111546289Y-78760000D01*
X111590226Y-78803937D01*
X111759744Y-78917205D01*
X111948102Y-78995226D01*
X112148061Y-79035000D01*
X112351939Y-79035000D01*
X112551898Y-78995226D01*
X112740256Y-78917205D01*
X112751039Y-78910000D01*
X143511928Y-78910000D01*
X143515000Y-79474250D01*
X143673750Y-79633000D01*
X144873000Y-79633000D01*
X144873000Y-78433750D01*
X145127000Y-78433750D01*
X145127000Y-79633000D01*
X146326250Y-79633000D01*
X146485000Y-79474250D01*
X146488072Y-78910000D01*
X146475812Y-78785518D01*
X146439502Y-78665820D01*
X146380537Y-78555506D01*
X146301185Y-78458815D01*
X146204494Y-78379463D01*
X146094180Y-78320498D01*
X145974482Y-78284188D01*
X145850000Y-78271928D01*
X145285750Y-78275000D01*
X145127000Y-78433750D01*
X144873000Y-78433750D01*
X144714250Y-78275000D01*
X144150000Y-78271928D01*
X144025518Y-78284188D01*
X143905820Y-78320498D01*
X143795506Y-78379463D01*
X143698815Y-78458815D01*
X143619463Y-78555506D01*
X143560498Y-78665820D01*
X143524188Y-78785518D01*
X143511928Y-78910000D01*
X112751039Y-78910000D01*
X112909774Y-78803937D01*
X113053937Y-78659774D01*
X113167205Y-78490256D01*
X113245226Y-78301898D01*
X113285000Y-78101939D01*
X113285000Y-77898061D01*
X113245226Y-77698102D01*
X113167205Y-77509744D01*
X113053937Y-77340226D01*
X112909774Y-77196063D01*
X112740256Y-77082795D01*
X112551898Y-77004774D01*
X112351939Y-76965000D01*
X112148061Y-76965000D01*
X111948102Y-77004774D01*
X111759744Y-77082795D01*
X111590226Y-77196063D01*
X111546289Y-77240000D01*
X110854802Y-77240000D01*
X110099802Y-76485000D01*
X110226260Y-76485000D01*
X110513158Y-76427932D01*
X110783411Y-76315990D01*
X111026632Y-76153475D01*
X111233475Y-75946632D01*
X111355195Y-75764466D01*
X111424822Y-75881355D01*
X111619731Y-76097588D01*
X111853080Y-76271641D01*
X112115901Y-76396825D01*
X112263110Y-76441476D01*
X112493000Y-76320155D01*
X112493000Y-75127000D01*
X112747000Y-75127000D01*
X112747000Y-76320155D01*
X112976890Y-76441476D01*
X113124099Y-76396825D01*
X113386920Y-76271641D01*
X113620269Y-76097588D01*
X113815178Y-75881355D01*
X113890000Y-75755745D01*
X113964822Y-75881355D01*
X114159731Y-76097588D01*
X114393080Y-76271641D01*
X114655901Y-76396825D01*
X114803110Y-76441476D01*
X115033000Y-76320155D01*
X115033000Y-75127000D01*
X115287000Y-75127000D01*
X115287000Y-76320155D01*
X115516890Y-76441476D01*
X115664099Y-76396825D01*
X115926920Y-76271641D01*
X116160269Y-76097588D01*
X116355178Y-75881355D01*
X116430000Y-75755745D01*
X116504822Y-75881355D01*
X116699731Y-76097588D01*
X116933080Y-76271641D01*
X117195901Y-76396825D01*
X117343110Y-76441476D01*
X117573000Y-76320155D01*
X117573000Y-75127000D01*
X117827000Y-75127000D01*
X117827000Y-76320155D01*
X118056890Y-76441476D01*
X118204099Y-76396825D01*
X118466920Y-76271641D01*
X118700269Y-76097588D01*
X118895178Y-75881355D01*
X118970000Y-75755745D01*
X119044822Y-75881355D01*
X119239731Y-76097588D01*
X119473080Y-76271641D01*
X119735901Y-76396825D01*
X119883110Y-76441476D01*
X120113000Y-76320155D01*
X120113000Y-75127000D01*
X120367000Y-75127000D01*
X120367000Y-76320155D01*
X120596890Y-76441476D01*
X120744099Y-76396825D01*
X121006920Y-76271641D01*
X121240269Y-76097588D01*
X121435178Y-75881355D01*
X121510000Y-75755745D01*
X121584822Y-75881355D01*
X121779731Y-76097588D01*
X122013080Y-76271641D01*
X122275901Y-76396825D01*
X122423110Y-76441476D01*
X122653000Y-76320155D01*
X122653000Y-75127000D01*
X122907000Y-75127000D01*
X122907000Y-76320155D01*
X123136890Y-76441476D01*
X123284099Y-76396825D01*
X123546920Y-76271641D01*
X123780269Y-76097588D01*
X123975178Y-75881355D01*
X124050000Y-75755745D01*
X124124822Y-75881355D01*
X124319731Y-76097588D01*
X124553080Y-76271641D01*
X124815901Y-76396825D01*
X124963110Y-76441476D01*
X125193000Y-76320155D01*
X125193000Y-75127000D01*
X125447000Y-75127000D01*
X125447000Y-76320155D01*
X125676890Y-76441476D01*
X125824099Y-76396825D01*
X126086920Y-76271641D01*
X126320269Y-76097588D01*
X126515178Y-75881355D01*
X126590000Y-75755745D01*
X126664822Y-75881355D01*
X126859731Y-76097588D01*
X127093080Y-76271641D01*
X127355901Y-76396825D01*
X127503110Y-76441476D01*
X127733000Y-76320155D01*
X127733000Y-75127000D01*
X127987000Y-75127000D01*
X127987000Y-76320155D01*
X128216890Y-76441476D01*
X128364099Y-76396825D01*
X128626920Y-76271641D01*
X128860269Y-76097588D01*
X129055178Y-75881355D01*
X129130000Y-75755745D01*
X129204822Y-75881355D01*
X129399731Y-76097588D01*
X129633080Y-76271641D01*
X129895901Y-76396825D01*
X130043110Y-76441476D01*
X130273000Y-76320155D01*
X130273000Y-75127000D01*
X130527000Y-75127000D01*
X130527000Y-76320155D01*
X130756890Y-76441476D01*
X130904099Y-76396825D01*
X131166920Y-76271641D01*
X131400269Y-76097588D01*
X131595178Y-75881355D01*
X131670000Y-75755745D01*
X131744822Y-75881355D01*
X131939731Y-76097588D01*
X132173080Y-76271641D01*
X132435901Y-76396825D01*
X132583110Y-76441476D01*
X132813000Y-76320155D01*
X132813000Y-75127000D01*
X133067000Y-75127000D01*
X133067000Y-76320155D01*
X133296890Y-76441476D01*
X133444099Y-76396825D01*
X133706920Y-76271641D01*
X133940269Y-76097588D01*
X134135178Y-75881355D01*
X134153855Y-75850000D01*
X136011928Y-75850000D01*
X136024188Y-75974482D01*
X136060498Y-76094180D01*
X136119463Y-76204494D01*
X136198815Y-76301185D01*
X136295506Y-76380537D01*
X136405820Y-76439502D01*
X136525518Y-76475812D01*
X136650000Y-76488072D01*
X137214250Y-76485000D01*
X137373000Y-76326250D01*
X137373000Y-75127000D01*
X137627000Y-75127000D01*
X137627000Y-76326250D01*
X137785750Y-76485000D01*
X138350000Y-76488072D01*
X138474482Y-76475812D01*
X138594180Y-76439502D01*
X138704494Y-76380537D01*
X138801185Y-76301185D01*
X138880537Y-76204494D01*
X138939502Y-76094180D01*
X138963966Y-76013534D01*
X139039731Y-76097588D01*
X139273080Y-76271641D01*
X139535901Y-76396825D01*
X139683110Y-76441476D01*
X139913000Y-76320155D01*
X139913000Y-75127000D01*
X140167000Y-75127000D01*
X140167000Y-76320155D01*
X140396890Y-76441476D01*
X140544099Y-76396825D01*
X140806920Y-76271641D01*
X141040269Y-76097588D01*
X141235178Y-75881355D01*
X141310000Y-75755745D01*
X141384822Y-75881355D01*
X141579731Y-76097588D01*
X141813080Y-76271641D01*
X142075901Y-76396825D01*
X142223110Y-76441476D01*
X142453000Y-76320155D01*
X142453000Y-75127000D01*
X142707000Y-75127000D01*
X142707000Y-76320155D01*
X142936890Y-76441476D01*
X143084099Y-76396825D01*
X143346920Y-76271641D01*
X143580269Y-76097588D01*
X143775178Y-75881355D01*
X143850000Y-75755745D01*
X143924822Y-75881355D01*
X144119731Y-76097588D01*
X144353080Y-76271641D01*
X144615901Y-76396825D01*
X144763110Y-76441476D01*
X144993000Y-76320155D01*
X144993000Y-75127000D01*
X145247000Y-75127000D01*
X145247000Y-76320155D01*
X145476890Y-76441476D01*
X145624099Y-76396825D01*
X145886920Y-76271641D01*
X146120269Y-76097588D01*
X146315178Y-75881355D01*
X146464157Y-75631252D01*
X146561481Y-75356891D01*
X146440814Y-75127000D01*
X145247000Y-75127000D01*
X144993000Y-75127000D01*
X142707000Y-75127000D01*
X142453000Y-75127000D01*
X140167000Y-75127000D01*
X139913000Y-75127000D01*
X137627000Y-75127000D01*
X137373000Y-75127000D01*
X136173750Y-75127000D01*
X136015000Y-75285750D01*
X136011928Y-75850000D01*
X134153855Y-75850000D01*
X134284157Y-75631252D01*
X134381481Y-75356891D01*
X134260814Y-75127000D01*
X133067000Y-75127000D01*
X132813000Y-75127000D01*
X130527000Y-75127000D01*
X130273000Y-75127000D01*
X127987000Y-75127000D01*
X127733000Y-75127000D01*
X125447000Y-75127000D01*
X125193000Y-75127000D01*
X122907000Y-75127000D01*
X122653000Y-75127000D01*
X120367000Y-75127000D01*
X120113000Y-75127000D01*
X117827000Y-75127000D01*
X117573000Y-75127000D01*
X115287000Y-75127000D01*
X115033000Y-75127000D01*
X112747000Y-75127000D01*
X112493000Y-75127000D01*
X112473000Y-75127000D01*
X112473000Y-74873000D01*
X112493000Y-74873000D01*
X112493000Y-73679845D01*
X112747000Y-73679845D01*
X112747000Y-74873000D01*
X115033000Y-74873000D01*
X115033000Y-73679845D01*
X115287000Y-73679845D01*
X115287000Y-74873000D01*
X117573000Y-74873000D01*
X117573000Y-73679845D01*
X117827000Y-73679845D01*
X117827000Y-74873000D01*
X120113000Y-74873000D01*
X120113000Y-73679845D01*
X120367000Y-73679845D01*
X120367000Y-74873000D01*
X122653000Y-74873000D01*
X122653000Y-73679845D01*
X122907000Y-73679845D01*
X122907000Y-74873000D01*
X125193000Y-74873000D01*
X125193000Y-73679845D01*
X125447000Y-73679845D01*
X125447000Y-74873000D01*
X127733000Y-74873000D01*
X127733000Y-73679845D01*
X127987000Y-73679845D01*
X127987000Y-74873000D01*
X130273000Y-74873000D01*
X130273000Y-73679845D01*
X130527000Y-73679845D01*
X130527000Y-74873000D01*
X132813000Y-74873000D01*
X132813000Y-73679845D01*
X133067000Y-73679845D01*
X133067000Y-74873000D01*
X134260814Y-74873000D01*
X134381481Y-74643109D01*
X134284157Y-74368748D01*
X134153856Y-74150000D01*
X136011928Y-74150000D01*
X136015000Y-74714250D01*
X136173750Y-74873000D01*
X137373000Y-74873000D01*
X137373000Y-73673750D01*
X137627000Y-73673750D01*
X137627000Y-74873000D01*
X139913000Y-74873000D01*
X139913000Y-73679845D01*
X140167000Y-73679845D01*
X140167000Y-74873000D01*
X142453000Y-74873000D01*
X142453000Y-73679845D01*
X142707000Y-73679845D01*
X142707000Y-74873000D01*
X144993000Y-74873000D01*
X144993000Y-73679845D01*
X144763110Y-73558524D01*
X144615901Y-73603175D01*
X144353080Y-73728359D01*
X144119731Y-73902412D01*
X143924822Y-74118645D01*
X143850000Y-74244255D01*
X143775178Y-74118645D01*
X143580269Y-73902412D01*
X143346920Y-73728359D01*
X143084099Y-73603175D01*
X142936890Y-73558524D01*
X142707000Y-73679845D01*
X142453000Y-73679845D01*
X142223110Y-73558524D01*
X142075901Y-73603175D01*
X141813080Y-73728359D01*
X141579731Y-73902412D01*
X141384822Y-74118645D01*
X141310000Y-74244255D01*
X141235178Y-74118645D01*
X141040269Y-73902412D01*
X140806920Y-73728359D01*
X140544099Y-73603175D01*
X140396890Y-73558524D01*
X140167000Y-73679845D01*
X139913000Y-73679845D01*
X139683110Y-73558524D01*
X139535901Y-73603175D01*
X139273080Y-73728359D01*
X139039731Y-73902412D01*
X138963966Y-73986466D01*
X138939502Y-73905820D01*
X138880537Y-73795506D01*
X138801185Y-73698815D01*
X138704494Y-73619463D01*
X138594180Y-73560498D01*
X138474482Y-73524188D01*
X138350000Y-73511928D01*
X137785750Y-73515000D01*
X137627000Y-73673750D01*
X137373000Y-73673750D01*
X137214250Y-73515000D01*
X136650000Y-73511928D01*
X136525518Y-73524188D01*
X136405820Y-73560498D01*
X136295506Y-73619463D01*
X136198815Y-73698815D01*
X136119463Y-73795506D01*
X136060498Y-73905820D01*
X136024188Y-74025518D01*
X136011928Y-74150000D01*
X134153856Y-74150000D01*
X134135178Y-74118645D01*
X133940269Y-73902412D01*
X133706920Y-73728359D01*
X133444099Y-73603175D01*
X133296890Y-73558524D01*
X133067000Y-73679845D01*
X132813000Y-73679845D01*
X132583110Y-73558524D01*
X132435901Y-73603175D01*
X132173080Y-73728359D01*
X131939731Y-73902412D01*
X131744822Y-74118645D01*
X131670000Y-74244255D01*
X131595178Y-74118645D01*
X131400269Y-73902412D01*
X131166920Y-73728359D01*
X130904099Y-73603175D01*
X130756890Y-73558524D01*
X130527000Y-73679845D01*
X130273000Y-73679845D01*
X130043110Y-73558524D01*
X129895901Y-73603175D01*
X129633080Y-73728359D01*
X129399731Y-73902412D01*
X129204822Y-74118645D01*
X129130000Y-74244255D01*
X129055178Y-74118645D01*
X128860269Y-73902412D01*
X128626920Y-73728359D01*
X128364099Y-73603175D01*
X128216890Y-73558524D01*
X127987000Y-73679845D01*
X127733000Y-73679845D01*
X127503110Y-73558524D01*
X127355901Y-73603175D01*
X127093080Y-73728359D01*
X126859731Y-73902412D01*
X126664822Y-74118645D01*
X126590000Y-74244255D01*
X126515178Y-74118645D01*
X126320269Y-73902412D01*
X126086920Y-73728359D01*
X125824099Y-73603175D01*
X125676890Y-73558524D01*
X125447000Y-73679845D01*
X125193000Y-73679845D01*
X124963110Y-73558524D01*
X124815901Y-73603175D01*
X124553080Y-73728359D01*
X124319731Y-73902412D01*
X124124822Y-74118645D01*
X124050000Y-74244255D01*
X123975178Y-74118645D01*
X123780269Y-73902412D01*
X123546920Y-73728359D01*
X123284099Y-73603175D01*
X123136890Y-73558524D01*
X122907000Y-73679845D01*
X122653000Y-73679845D01*
X122423110Y-73558524D01*
X122275901Y-73603175D01*
X122013080Y-73728359D01*
X121779731Y-73902412D01*
X121584822Y-74118645D01*
X121510000Y-74244255D01*
X121435178Y-74118645D01*
X121240269Y-73902412D01*
X121006920Y-73728359D01*
X120744099Y-73603175D01*
X120596890Y-73558524D01*
X120367000Y-73679845D01*
X120113000Y-73679845D01*
X119883110Y-73558524D01*
X119735901Y-73603175D01*
X119473080Y-73728359D01*
X119239731Y-73902412D01*
X119044822Y-74118645D01*
X118970000Y-74244255D01*
X118895178Y-74118645D01*
X118700269Y-73902412D01*
X118466920Y-73728359D01*
X118204099Y-73603175D01*
X118056890Y-73558524D01*
X117827000Y-73679845D01*
X117573000Y-73679845D01*
X117343110Y-73558524D01*
X117195901Y-73603175D01*
X116933080Y-73728359D01*
X116699731Y-73902412D01*
X116504822Y-74118645D01*
X116430000Y-74244255D01*
X116355178Y-74118645D01*
X116160269Y-73902412D01*
X115926920Y-73728359D01*
X115664099Y-73603175D01*
X115516890Y-73558524D01*
X115287000Y-73679845D01*
X115033000Y-73679845D01*
X114803110Y-73558524D01*
X114655901Y-73603175D01*
X114393080Y-73728359D01*
X114159731Y-73902412D01*
X113964822Y-74118645D01*
X113890000Y-74244255D01*
X113815178Y-74118645D01*
X113620269Y-73902412D01*
X113386920Y-73728359D01*
X113124099Y-73603175D01*
X112976890Y-73558524D01*
X112747000Y-73679845D01*
X112493000Y-73679845D01*
X112263110Y-73558524D01*
X112115901Y-73603175D01*
X111853080Y-73728359D01*
X111619731Y-73902412D01*
X111424822Y-74118645D01*
X111355195Y-74235534D01*
X111233475Y-74053368D01*
X111026632Y-73846525D01*
X110783411Y-73684010D01*
X110513158Y-73572068D01*
X110226260Y-73515000D01*
X109933740Y-73515000D01*
X109646842Y-73572068D01*
X109376589Y-73684010D01*
X109133368Y-73846525D01*
X108926525Y-74053368D01*
X108810000Y-74227760D01*
X108693475Y-74053368D01*
X108486632Y-73846525D01*
X108243411Y-73684010D01*
X107973158Y-73572068D01*
X107686260Y-73515000D01*
X107393740Y-73515000D01*
X107106842Y-73572068D01*
X106836589Y-73684010D01*
X106593368Y-73846525D01*
X106461513Y-73978380D01*
X106439502Y-73905820D01*
X106380537Y-73795506D01*
X106301185Y-73698815D01*
X106204494Y-73619463D01*
X106094180Y-73560498D01*
X105974482Y-73524188D01*
X105850000Y-73511928D01*
X105285750Y-73515000D01*
X105127000Y-73673750D01*
X104873000Y-73673750D01*
X104714250Y-73515000D01*
X104150000Y-73511928D01*
X104025518Y-73524188D01*
X103905820Y-73560498D01*
X103795506Y-73619463D01*
X103698815Y-73698815D01*
X103619463Y-73795506D01*
X103560498Y-73905820D01*
X103524188Y-74025518D01*
X103511928Y-74150000D01*
X101631261Y-74150000D01*
X101632279Y-74148753D01*
X102134067Y-73733638D01*
X102706924Y-73423895D01*
X103329039Y-73231318D01*
X104007584Y-73160000D01*
X143967722Y-73160000D01*
X144648126Y-73226714D01*
%TA.AperFunction,Conductor*%
D15*
G36*
X144648126Y-73226714D02*
G01*
X145271572Y-73414943D01*
X145638339Y-73609958D01*
X145624099Y-73603175D01*
X145476890Y-73558524D01*
X145247000Y-73679845D01*
X145247000Y-74873000D01*
X146440814Y-74873000D01*
X146561481Y-74643109D01*
X146464157Y-74368748D01*
X146315178Y-74118645D01*
X146261460Y-74059050D01*
X146351247Y-74132279D01*
X146766362Y-74634067D01*
X147076105Y-75206924D01*
X147268682Y-75829039D01*
X147340001Y-76507594D01*
X147340000Y-113967721D01*
X147273286Y-114648126D01*
X147085057Y-115271570D01*
X146779323Y-115846573D01*
X146367721Y-116351248D01*
X145865933Y-116766362D01*
X145293077Y-117076104D01*
X144670961Y-117268682D01*
X143992417Y-117340000D01*
X104032279Y-117340000D01*
X103351874Y-117273286D01*
X102728430Y-117085057D01*
X102153427Y-116779323D01*
X101648752Y-116367721D01*
X101233638Y-115865933D01*
X101225024Y-115850000D01*
X103511928Y-115850000D01*
X103524188Y-115974482D01*
X103560498Y-116094180D01*
X103619463Y-116204494D01*
X103698815Y-116301185D01*
X103795506Y-116380537D01*
X103905820Y-116439502D01*
X104025518Y-116475812D01*
X104150000Y-116488072D01*
X104714250Y-116485000D01*
X104873000Y-116326250D01*
X104873000Y-115127000D01*
X105127000Y-115127000D01*
X105127000Y-116326250D01*
X105285750Y-116485000D01*
X105850000Y-116488072D01*
X105974482Y-116475812D01*
X106094180Y-116439502D01*
X106204494Y-116380537D01*
X106301185Y-116301185D01*
X106380537Y-116204494D01*
X106439502Y-116094180D01*
X106463966Y-116013534D01*
X106539731Y-116097588D01*
X106773080Y-116271641D01*
X107035901Y-116396825D01*
X107183110Y-116441476D01*
X107413000Y-116320155D01*
X107413000Y-115127000D01*
X107667000Y-115127000D01*
X107667000Y-116320155D01*
X107896890Y-116441476D01*
X108044099Y-116396825D01*
X108306920Y-116271641D01*
X108540269Y-116097588D01*
X108735178Y-115881355D01*
X108810000Y-115755745D01*
X108884822Y-115881355D01*
X109079731Y-116097588D01*
X109313080Y-116271641D01*
X109575901Y-116396825D01*
X109723110Y-116441476D01*
X109953000Y-116320155D01*
X109953000Y-115127000D01*
X110207000Y-115127000D01*
X110207000Y-116320155D01*
X110436890Y-116441476D01*
X110584099Y-116396825D01*
X110846920Y-116271641D01*
X111080269Y-116097588D01*
X111275178Y-115881355D01*
X111350000Y-115755745D01*
X111424822Y-115881355D01*
X111619731Y-116097588D01*
X111853080Y-116271641D01*
X112115901Y-116396825D01*
X112263110Y-116441476D01*
X112493000Y-116320155D01*
X112493000Y-115127000D01*
X112747000Y-115127000D01*
X112747000Y-116320155D01*
X112976890Y-116441476D01*
X113124099Y-116396825D01*
X113386920Y-116271641D01*
X113620269Y-116097588D01*
X113815178Y-115881355D01*
X113890000Y-115755745D01*
X113964822Y-115881355D01*
X114159731Y-116097588D01*
X114393080Y-116271641D01*
X114655901Y-116396825D01*
X114803110Y-116441476D01*
X115033000Y-116320155D01*
X115033000Y-115127000D01*
X115287000Y-115127000D01*
X115287000Y-116320155D01*
X115516890Y-116441476D01*
X115664099Y-116396825D01*
X115926920Y-116271641D01*
X116160269Y-116097588D01*
X116355178Y-115881355D01*
X116430000Y-115755745D01*
X116504822Y-115881355D01*
X116699731Y-116097588D01*
X116933080Y-116271641D01*
X117195901Y-116396825D01*
X117343110Y-116441476D01*
X117573000Y-116320155D01*
X117573000Y-115127000D01*
X117827000Y-115127000D01*
X117827000Y-116320155D01*
X118056890Y-116441476D01*
X118204099Y-116396825D01*
X118466920Y-116271641D01*
X118700269Y-116097588D01*
X118895178Y-115881355D01*
X118970000Y-115755745D01*
X119044822Y-115881355D01*
X119239731Y-116097588D01*
X119473080Y-116271641D01*
X119735901Y-116396825D01*
X119883110Y-116441476D01*
X120113000Y-116320155D01*
X120113000Y-115127000D01*
X120367000Y-115127000D01*
X120367000Y-116320155D01*
X120596890Y-116441476D01*
X120744099Y-116396825D01*
X121006920Y-116271641D01*
X121240269Y-116097588D01*
X121435178Y-115881355D01*
X121510000Y-115755745D01*
X121584822Y-115881355D01*
X121779731Y-116097588D01*
X122013080Y-116271641D01*
X122275901Y-116396825D01*
X122423110Y-116441476D01*
X122653000Y-116320155D01*
X122653000Y-115127000D01*
X122907000Y-115127000D01*
X122907000Y-116320155D01*
X123136890Y-116441476D01*
X123284099Y-116396825D01*
X123546920Y-116271641D01*
X123780269Y-116097588D01*
X123975178Y-115881355D01*
X124050000Y-115755745D01*
X124124822Y-115881355D01*
X124319731Y-116097588D01*
X124553080Y-116271641D01*
X124815901Y-116396825D01*
X124963110Y-116441476D01*
X125193000Y-116320155D01*
X125193000Y-115127000D01*
X125447000Y-115127000D01*
X125447000Y-116320155D01*
X125676890Y-116441476D01*
X125824099Y-116396825D01*
X126086920Y-116271641D01*
X126320269Y-116097588D01*
X126515178Y-115881355D01*
X126590000Y-115755745D01*
X126664822Y-115881355D01*
X126859731Y-116097588D01*
X127093080Y-116271641D01*
X127355901Y-116396825D01*
X127503110Y-116441476D01*
X127733000Y-116320155D01*
X127733000Y-115127000D01*
X127987000Y-115127000D01*
X127987000Y-116320155D01*
X128216890Y-116441476D01*
X128364099Y-116396825D01*
X128626920Y-116271641D01*
X128860269Y-116097588D01*
X129055178Y-115881355D01*
X129130000Y-115755745D01*
X129204822Y-115881355D01*
X129399731Y-116097588D01*
X129633080Y-116271641D01*
X129895901Y-116396825D01*
X130043110Y-116441476D01*
X130273000Y-116320155D01*
X130273000Y-115127000D01*
X130527000Y-115127000D01*
X130527000Y-116320155D01*
X130756890Y-116441476D01*
X130904099Y-116396825D01*
X131166920Y-116271641D01*
X131400269Y-116097588D01*
X131595178Y-115881355D01*
X131670000Y-115755745D01*
X131744822Y-115881355D01*
X131939731Y-116097588D01*
X132173080Y-116271641D01*
X132435901Y-116396825D01*
X132583110Y-116441476D01*
X132813000Y-116320155D01*
X132813000Y-115127000D01*
X133067000Y-115127000D01*
X133067000Y-116320155D01*
X133296890Y-116441476D01*
X133444099Y-116396825D01*
X133706920Y-116271641D01*
X133940269Y-116097588D01*
X134135178Y-115881355D01*
X134153855Y-115850000D01*
X136011928Y-115850000D01*
X136024188Y-115974482D01*
X136060498Y-116094180D01*
X136119463Y-116204494D01*
X136198815Y-116301185D01*
X136295506Y-116380537D01*
X136405820Y-116439502D01*
X136525518Y-116475812D01*
X136650000Y-116488072D01*
X137214250Y-116485000D01*
X137373000Y-116326250D01*
X137373000Y-115127000D01*
X137627000Y-115127000D01*
X137627000Y-116326250D01*
X137785750Y-116485000D01*
X138350000Y-116488072D01*
X138474482Y-116475812D01*
X138594180Y-116439502D01*
X138704494Y-116380537D01*
X138801185Y-116301185D01*
X138880537Y-116204494D01*
X138939502Y-116094180D01*
X138963966Y-116013534D01*
X139039731Y-116097588D01*
X139273080Y-116271641D01*
X139535901Y-116396825D01*
X139683110Y-116441476D01*
X139913000Y-116320155D01*
X139913000Y-115127000D01*
X140167000Y-115127000D01*
X140167000Y-116320155D01*
X140396890Y-116441476D01*
X140544099Y-116396825D01*
X140806920Y-116271641D01*
X141040269Y-116097588D01*
X141235178Y-115881355D01*
X141310000Y-115755745D01*
X141384822Y-115881355D01*
X141579731Y-116097588D01*
X141813080Y-116271641D01*
X142075901Y-116396825D01*
X142223110Y-116441476D01*
X142453000Y-116320155D01*
X142453000Y-115127000D01*
X142707000Y-115127000D01*
X142707000Y-116320155D01*
X142936890Y-116441476D01*
X143084099Y-116396825D01*
X143346920Y-116271641D01*
X143580269Y-116097588D01*
X143775178Y-115881355D01*
X143850000Y-115755745D01*
X143924822Y-115881355D01*
X144119731Y-116097588D01*
X144353080Y-116271641D01*
X144615901Y-116396825D01*
X144763110Y-116441476D01*
X144993000Y-116320155D01*
X144993000Y-115127000D01*
X145247000Y-115127000D01*
X145247000Y-116320155D01*
X145476890Y-116441476D01*
X145624099Y-116396825D01*
X145886920Y-116271641D01*
X146120269Y-116097588D01*
X146315178Y-115881355D01*
X146464157Y-115631252D01*
X146561481Y-115356891D01*
X146440814Y-115127000D01*
X145247000Y-115127000D01*
X144993000Y-115127000D01*
X142707000Y-115127000D01*
X142453000Y-115127000D01*
X140167000Y-115127000D01*
X139913000Y-115127000D01*
X137627000Y-115127000D01*
X137373000Y-115127000D01*
X136173750Y-115127000D01*
X136015000Y-115285750D01*
X136011928Y-115850000D01*
X134153855Y-115850000D01*
X134284157Y-115631252D01*
X134381481Y-115356891D01*
X134260814Y-115127000D01*
X133067000Y-115127000D01*
X132813000Y-115127000D01*
X130527000Y-115127000D01*
X130273000Y-115127000D01*
X127987000Y-115127000D01*
X127733000Y-115127000D01*
X125447000Y-115127000D01*
X125193000Y-115127000D01*
X122907000Y-115127000D01*
X122653000Y-115127000D01*
X120367000Y-115127000D01*
X120113000Y-115127000D01*
X117827000Y-115127000D01*
X117573000Y-115127000D01*
X115287000Y-115127000D01*
X115033000Y-115127000D01*
X112747000Y-115127000D01*
X112493000Y-115127000D01*
X110207000Y-115127000D01*
X109953000Y-115127000D01*
X107667000Y-115127000D01*
X107413000Y-115127000D01*
X105127000Y-115127000D01*
X104873000Y-115127000D01*
X103673750Y-115127000D01*
X103515000Y-115285750D01*
X103511928Y-115850000D01*
X101225024Y-115850000D01*
X100923896Y-115293077D01*
X100731318Y-114670961D01*
X100676563Y-114150000D01*
X103511928Y-114150000D01*
X103515000Y-114714250D01*
X103673750Y-114873000D01*
X104873000Y-114873000D01*
X104873000Y-113673750D01*
X105127000Y-113673750D01*
X105127000Y-114873000D01*
X107413000Y-114873000D01*
X107413000Y-113679845D01*
X107667000Y-113679845D01*
X107667000Y-114873000D01*
X109953000Y-114873000D01*
X109953000Y-113679845D01*
X110207000Y-113679845D01*
X110207000Y-114873000D01*
X112493000Y-114873000D01*
X112493000Y-113679845D01*
X112747000Y-113679845D01*
X112747000Y-114873000D01*
X115033000Y-114873000D01*
X115033000Y-113679845D01*
X115287000Y-113679845D01*
X115287000Y-114873000D01*
X117573000Y-114873000D01*
X117573000Y-113679845D01*
X117827000Y-113679845D01*
X117827000Y-114873000D01*
X120113000Y-114873000D01*
X120113000Y-113679845D01*
X120367000Y-113679845D01*
X120367000Y-114873000D01*
X122653000Y-114873000D01*
X122653000Y-113679845D01*
X122907000Y-113679845D01*
X122907000Y-114873000D01*
X125193000Y-114873000D01*
X125193000Y-113679845D01*
X125447000Y-113679845D01*
X125447000Y-114873000D01*
X127733000Y-114873000D01*
X127733000Y-113679845D01*
X127987000Y-113679845D01*
X127987000Y-114873000D01*
X130273000Y-114873000D01*
X130273000Y-113679845D01*
X130527000Y-113679845D01*
X130527000Y-114873000D01*
X132813000Y-114873000D01*
X132813000Y-113679845D01*
X133067000Y-113679845D01*
X133067000Y-114873000D01*
X134260814Y-114873000D01*
X134381481Y-114643109D01*
X134284157Y-114368748D01*
X134153856Y-114150000D01*
X136011928Y-114150000D01*
X136015000Y-114714250D01*
X136173750Y-114873000D01*
X137373000Y-114873000D01*
X137373000Y-113673750D01*
X137627000Y-113673750D01*
X137627000Y-114873000D01*
X139913000Y-114873000D01*
X139913000Y-113679845D01*
X140167000Y-113679845D01*
X140167000Y-114873000D01*
X142453000Y-114873000D01*
X142453000Y-113679845D01*
X142707000Y-113679845D01*
X142707000Y-114873000D01*
X144993000Y-114873000D01*
X144993000Y-113679845D01*
X145247000Y-113679845D01*
X145247000Y-114873000D01*
X146440814Y-114873000D01*
X146561481Y-114643109D01*
X146464157Y-114368748D01*
X146315178Y-114118645D01*
X146120269Y-113902412D01*
X145886920Y-113728359D01*
X145624099Y-113603175D01*
X145476890Y-113558524D01*
X145247000Y-113679845D01*
X144993000Y-113679845D01*
X144763110Y-113558524D01*
X144615901Y-113603175D01*
X144353080Y-113728359D01*
X144119731Y-113902412D01*
X143924822Y-114118645D01*
X143850000Y-114244255D01*
X143775178Y-114118645D01*
X143580269Y-113902412D01*
X143346920Y-113728359D01*
X143084099Y-113603175D01*
X142936890Y-113558524D01*
X142707000Y-113679845D01*
X142453000Y-113679845D01*
X142223110Y-113558524D01*
X142075901Y-113603175D01*
X141813080Y-113728359D01*
X141579731Y-113902412D01*
X141384822Y-114118645D01*
X141310000Y-114244255D01*
X141235178Y-114118645D01*
X141040269Y-113902412D01*
X140806920Y-113728359D01*
X140544099Y-113603175D01*
X140396890Y-113558524D01*
X140167000Y-113679845D01*
X139913000Y-113679845D01*
X139683110Y-113558524D01*
X139535901Y-113603175D01*
X139273080Y-113728359D01*
X139039731Y-113902412D01*
X138963966Y-113986466D01*
X138939502Y-113905820D01*
X138880537Y-113795506D01*
X138801185Y-113698815D01*
X138704494Y-113619463D01*
X138594180Y-113560498D01*
X138474482Y-113524188D01*
X138350000Y-113511928D01*
X137785750Y-113515000D01*
X137627000Y-113673750D01*
X137373000Y-113673750D01*
X137214250Y-113515000D01*
X136650000Y-113511928D01*
X136525518Y-113524188D01*
X136405820Y-113560498D01*
X136295506Y-113619463D01*
X136198815Y-113698815D01*
X136119463Y-113795506D01*
X136060498Y-113905820D01*
X136024188Y-114025518D01*
X136011928Y-114150000D01*
X134153856Y-114150000D01*
X134135178Y-114118645D01*
X133940269Y-113902412D01*
X133706920Y-113728359D01*
X133444099Y-113603175D01*
X133296890Y-113558524D01*
X133067000Y-113679845D01*
X132813000Y-113679845D01*
X132583110Y-113558524D01*
X132435901Y-113603175D01*
X132173080Y-113728359D01*
X131939731Y-113902412D01*
X131744822Y-114118645D01*
X131670000Y-114244255D01*
X131595178Y-114118645D01*
X131400269Y-113902412D01*
X131166920Y-113728359D01*
X130904099Y-113603175D01*
X130756890Y-113558524D01*
X130527000Y-113679845D01*
X130273000Y-113679845D01*
X130043110Y-113558524D01*
X129895901Y-113603175D01*
X129633080Y-113728359D01*
X129399731Y-113902412D01*
X129204822Y-114118645D01*
X129130000Y-114244255D01*
X129055178Y-114118645D01*
X128860269Y-113902412D01*
X128626920Y-113728359D01*
X128364099Y-113603175D01*
X128216890Y-113558524D01*
X127987000Y-113679845D01*
X127733000Y-113679845D01*
X127503110Y-113558524D01*
X127355901Y-113603175D01*
X127093080Y-113728359D01*
X126859731Y-113902412D01*
X126664822Y-114118645D01*
X126590000Y-114244255D01*
X126515178Y-114118645D01*
X126320269Y-113902412D01*
X126086920Y-113728359D01*
X125824099Y-113603175D01*
X125676890Y-113558524D01*
X125447000Y-113679845D01*
X125193000Y-113679845D01*
X124963110Y-113558524D01*
X124815901Y-113603175D01*
X124553080Y-113728359D01*
X124319731Y-113902412D01*
X124124822Y-114118645D01*
X124050000Y-114244255D01*
X123975178Y-114118645D01*
X123780269Y-113902412D01*
X123546920Y-113728359D01*
X123284099Y-113603175D01*
X123136890Y-113558524D01*
X122907000Y-113679845D01*
X122653000Y-113679845D01*
X122423110Y-113558524D01*
X122275901Y-113603175D01*
X122013080Y-113728359D01*
X121779731Y-113902412D01*
X121584822Y-114118645D01*
X121510000Y-114244255D01*
X121435178Y-114118645D01*
X121240269Y-113902412D01*
X121006920Y-113728359D01*
X120744099Y-113603175D01*
X120596890Y-113558524D01*
X120367000Y-113679845D01*
X120113000Y-113679845D01*
X119883110Y-113558524D01*
X119735901Y-113603175D01*
X119473080Y-113728359D01*
X119239731Y-113902412D01*
X119044822Y-114118645D01*
X118970000Y-114244255D01*
X118895178Y-114118645D01*
X118700269Y-113902412D01*
X118466920Y-113728359D01*
X118204099Y-113603175D01*
X118056890Y-113558524D01*
X117827000Y-113679845D01*
X117573000Y-113679845D01*
X117343110Y-113558524D01*
X117195901Y-113603175D01*
X116933080Y-113728359D01*
X116699731Y-113902412D01*
X116504822Y-114118645D01*
X116430000Y-114244255D01*
X116355178Y-114118645D01*
X116160269Y-113902412D01*
X115926920Y-113728359D01*
X115664099Y-113603175D01*
X115516890Y-113558524D01*
X115287000Y-113679845D01*
X115033000Y-113679845D01*
X114803110Y-113558524D01*
X114655901Y-113603175D01*
X114393080Y-113728359D01*
X114159731Y-113902412D01*
X113964822Y-114118645D01*
X113890000Y-114244255D01*
X113815178Y-114118645D01*
X113620269Y-113902412D01*
X113386920Y-113728359D01*
X113124099Y-113603175D01*
X112976890Y-113558524D01*
X112747000Y-113679845D01*
X112493000Y-113679845D01*
X112263110Y-113558524D01*
X112115901Y-113603175D01*
X111853080Y-113728359D01*
X111619731Y-113902412D01*
X111424822Y-114118645D01*
X111350000Y-114244255D01*
X111275178Y-114118645D01*
X111080269Y-113902412D01*
X110846920Y-113728359D01*
X110584099Y-113603175D01*
X110436890Y-113558524D01*
X110207000Y-113679845D01*
X109953000Y-113679845D01*
X109723110Y-113558524D01*
X109575901Y-113603175D01*
X109313080Y-113728359D01*
X109079731Y-113902412D01*
X108884822Y-114118645D01*
X108810000Y-114244255D01*
X108735178Y-114118645D01*
X108540269Y-113902412D01*
X108306920Y-113728359D01*
X108044099Y-113603175D01*
X107896890Y-113558524D01*
X107667000Y-113679845D01*
X107413000Y-113679845D01*
X107183110Y-113558524D01*
X107035901Y-113603175D01*
X106773080Y-113728359D01*
X106539731Y-113902412D01*
X106463966Y-113986466D01*
X106439502Y-113905820D01*
X106380537Y-113795506D01*
X106301185Y-113698815D01*
X106204494Y-113619463D01*
X106094180Y-113560498D01*
X105974482Y-113524188D01*
X105850000Y-113511928D01*
X105285750Y-113515000D01*
X105127000Y-113673750D01*
X104873000Y-113673750D01*
X104714250Y-113515000D01*
X104150000Y-113511928D01*
X104025518Y-113524188D01*
X103905820Y-113560498D01*
X103795506Y-113619463D01*
X103698815Y-113698815D01*
X103619463Y-113795506D01*
X103560498Y-113905820D01*
X103524188Y-114025518D01*
X103511928Y-114150000D01*
X100676563Y-114150000D01*
X100660000Y-113992417D01*
X100660000Y-110476890D01*
X101058524Y-110476890D01*
X101103175Y-110624099D01*
X101228359Y-110886920D01*
X101402412Y-111120269D01*
X101618645Y-111315178D01*
X101868748Y-111464157D01*
X102143109Y-111561481D01*
X102373000Y-111440814D01*
X102373000Y-110247000D01*
X102627000Y-110247000D01*
X102627000Y-111440814D01*
X102856891Y-111561481D01*
X103131252Y-111464157D01*
X103381355Y-111315178D01*
X103597588Y-111120269D01*
X103771641Y-110886920D01*
X103896825Y-110624099D01*
X103905077Y-110596890D01*
X143558524Y-110596890D01*
X143603175Y-110744099D01*
X143728359Y-111006920D01*
X143902412Y-111240269D01*
X144118645Y-111435178D01*
X144368748Y-111584157D01*
X144643109Y-111681481D01*
X144873000Y-111560814D01*
X144873000Y-110367000D01*
X145127000Y-110367000D01*
X145127000Y-111560814D01*
X145356891Y-111681481D01*
X145631252Y-111584157D01*
X145881355Y-111435178D01*
X146097588Y-111240269D01*
X146271641Y-111006920D01*
X146396825Y-110744099D01*
X146441476Y-110596890D01*
X146320155Y-110367000D01*
X145127000Y-110367000D01*
X144873000Y-110367000D01*
X143679845Y-110367000D01*
X143558524Y-110596890D01*
X103905077Y-110596890D01*
X103941476Y-110476890D01*
X103820155Y-110247000D01*
X102627000Y-110247000D01*
X102373000Y-110247000D01*
X101179845Y-110247000D01*
X101058524Y-110476890D01*
X100660000Y-110476890D01*
X100660000Y-107936890D01*
X101058524Y-107936890D01*
X101103175Y-108084099D01*
X101228359Y-108346920D01*
X101402412Y-108580269D01*
X101618645Y-108775178D01*
X101744255Y-108850000D01*
X101618645Y-108924822D01*
X101402412Y-109119731D01*
X101228359Y-109353080D01*
X101103175Y-109615901D01*
X101058524Y-109763110D01*
X101179845Y-109993000D01*
X102373000Y-109993000D01*
X102373000Y-107707000D01*
X102627000Y-107707000D01*
X102627000Y-109993000D01*
X103820155Y-109993000D01*
X103941476Y-109763110D01*
X103896825Y-109615901D01*
X103771641Y-109353080D01*
X103597588Y-109119731D01*
X103381355Y-108924822D01*
X103255745Y-108850000D01*
X103381355Y-108775178D01*
X103597588Y-108580269D01*
X103771641Y-108346920D01*
X103896825Y-108084099D01*
X103905077Y-108056890D01*
X143558524Y-108056890D01*
X143603175Y-108204099D01*
X143728359Y-108466920D01*
X143902412Y-108700269D01*
X144118645Y-108895178D01*
X144244255Y-108970000D01*
X144118645Y-109044822D01*
X143902412Y-109239731D01*
X143728359Y-109473080D01*
X143603175Y-109735901D01*
X143558524Y-109883110D01*
X143679845Y-110113000D01*
X144873000Y-110113000D01*
X144873000Y-107827000D01*
X145127000Y-107827000D01*
X145127000Y-110113000D01*
X146320155Y-110113000D01*
X146441476Y-109883110D01*
X146396825Y-109735901D01*
X146271641Y-109473080D01*
X146097588Y-109239731D01*
X145881355Y-109044822D01*
X145755745Y-108970000D01*
X145881355Y-108895178D01*
X146097588Y-108700269D01*
X146271641Y-108466920D01*
X146396825Y-108204099D01*
X146441476Y-108056890D01*
X146320155Y-107827000D01*
X145127000Y-107827000D01*
X144873000Y-107827000D01*
X143679845Y-107827000D01*
X143558524Y-108056890D01*
X103905077Y-108056890D01*
X103941476Y-107936890D01*
X103820155Y-107707000D01*
X102627000Y-107707000D01*
X102373000Y-107707000D01*
X101179845Y-107707000D01*
X101058524Y-107936890D01*
X100660000Y-107936890D01*
X100660000Y-105396890D01*
X101058524Y-105396890D01*
X101103175Y-105544099D01*
X101228359Y-105806920D01*
X101402412Y-106040269D01*
X101618645Y-106235178D01*
X101744255Y-106310000D01*
X101618645Y-106384822D01*
X101402412Y-106579731D01*
X101228359Y-106813080D01*
X101103175Y-107075901D01*
X101058524Y-107223110D01*
X101179845Y-107453000D01*
X102373000Y-107453000D01*
X102373000Y-105167000D01*
X102627000Y-105167000D01*
X102627000Y-107453000D01*
X103820155Y-107453000D01*
X103941476Y-107223110D01*
X103896825Y-107075901D01*
X103812119Y-106898061D01*
X106965000Y-106898061D01*
X106965000Y-107101939D01*
X107004774Y-107301898D01*
X107082795Y-107490256D01*
X107196063Y-107659774D01*
X107340226Y-107803937D01*
X107509744Y-107917205D01*
X107698102Y-107995226D01*
X107898061Y-108035000D01*
X108101939Y-108035000D01*
X108301898Y-107995226D01*
X108490256Y-107917205D01*
X108659774Y-107803937D01*
X108803937Y-107659774D01*
X108917205Y-107490256D01*
X108995226Y-107301898D01*
X109035000Y-107101939D01*
X109035000Y-107039801D01*
X109511004Y-106563798D01*
X109540001Y-106540001D01*
X109634974Y-106424276D01*
X109705546Y-106292247D01*
X109749003Y-106148986D01*
X109760000Y-106037333D01*
X109760000Y-106037332D01*
X109763677Y-106000000D01*
X109760000Y-105962667D01*
X109760000Y-105703711D01*
X109803937Y-105659774D01*
X109899408Y-105516890D01*
X143558524Y-105516890D01*
X143603175Y-105664099D01*
X143728359Y-105926920D01*
X143902412Y-106160269D01*
X144118645Y-106355178D01*
X144244255Y-106430000D01*
X144118645Y-106504822D01*
X143902412Y-106699731D01*
X143728359Y-106933080D01*
X143603175Y-107195901D01*
X143558524Y-107343110D01*
X143679845Y-107573000D01*
X144873000Y-107573000D01*
X144873000Y-105287000D01*
X145127000Y-105287000D01*
X145127000Y-107573000D01*
X146320155Y-107573000D01*
X146441476Y-107343110D01*
X146396825Y-107195901D01*
X146271641Y-106933080D01*
X146097588Y-106699731D01*
X145881355Y-106504822D01*
X145755745Y-106430000D01*
X145881355Y-106355178D01*
X146097588Y-106160269D01*
X146271641Y-105926920D01*
X146396825Y-105664099D01*
X146441476Y-105516890D01*
X146320155Y-105287000D01*
X145127000Y-105287000D01*
X144873000Y-105287000D01*
X143679845Y-105287000D01*
X143558524Y-105516890D01*
X109899408Y-105516890D01*
X109917205Y-105490256D01*
X109995226Y-105301898D01*
X110035000Y-105101939D01*
X110035000Y-104898061D01*
X109995226Y-104698102D01*
X109917205Y-104509744D01*
X109803937Y-104340226D01*
X109659774Y-104196063D01*
X109490256Y-104082795D01*
X109301898Y-104004774D01*
X109101939Y-103965000D01*
X108898061Y-103965000D01*
X108698102Y-104004774D01*
X108509744Y-104082795D01*
X108340226Y-104196063D01*
X108196063Y-104340226D01*
X108082795Y-104509744D01*
X108004774Y-104698102D01*
X107965000Y-104898061D01*
X107965000Y-105101939D01*
X108004774Y-105301898D01*
X108082795Y-105490256D01*
X108196063Y-105659774D01*
X108230744Y-105694455D01*
X107960199Y-105965000D01*
X107898061Y-105965000D01*
X107698102Y-106004774D01*
X107509744Y-106082795D01*
X107340226Y-106196063D01*
X107196063Y-106340226D01*
X107082795Y-106509744D01*
X107004774Y-106698102D01*
X106965000Y-106898061D01*
X103812119Y-106898061D01*
X103771641Y-106813080D01*
X103597588Y-106579731D01*
X103381355Y-106384822D01*
X103255745Y-106310000D01*
X103381355Y-106235178D01*
X103597588Y-106040269D01*
X103771641Y-105806920D01*
X103896825Y-105544099D01*
X103941476Y-105396890D01*
X103820155Y-105167000D01*
X102627000Y-105167000D01*
X102373000Y-105167000D01*
X101179845Y-105167000D01*
X101058524Y-105396890D01*
X100660000Y-105396890D01*
X100660000Y-103350000D01*
X101011928Y-103350000D01*
X101024188Y-103474482D01*
X101060498Y-103594180D01*
X101119463Y-103704494D01*
X101198815Y-103801185D01*
X101295506Y-103880537D01*
X101405820Y-103939502D01*
X101486466Y-103963966D01*
X101402412Y-104039731D01*
X101228359Y-104273080D01*
X101103175Y-104535901D01*
X101058524Y-104683110D01*
X101179845Y-104913000D01*
X102373000Y-104913000D01*
X102373000Y-102627000D01*
X102627000Y-102627000D01*
X102627000Y-104913000D01*
X103820155Y-104913000D01*
X103941476Y-104683110D01*
X103896825Y-104535901D01*
X103771641Y-104273080D01*
X103597588Y-104039731D01*
X103513534Y-103963966D01*
X103594180Y-103939502D01*
X103704494Y-103880537D01*
X103801185Y-103801185D01*
X103880537Y-103704494D01*
X103939502Y-103594180D01*
X103972283Y-103486113D01*
X113634490Y-103486113D01*
X113634490Y-103689991D01*
X113674264Y-103889950D01*
X113752285Y-104078308D01*
X113865553Y-104247826D01*
X114009716Y-104391989D01*
X114179234Y-104505257D01*
X114367592Y-104583278D01*
X114567551Y-104623052D01*
X114629688Y-104623052D01*
X114992640Y-104986004D01*
X115016438Y-105015002D01*
X115132163Y-105109975D01*
X115264192Y-105180547D01*
X115407453Y-105224004D01*
X115519106Y-105235001D01*
X115519115Y-105235001D01*
X115556438Y-105238677D01*
X115593761Y-105235001D01*
X126087677Y-105235001D01*
X126124999Y-105238677D01*
X126162321Y-105235001D01*
X126162332Y-105235001D01*
X126273985Y-105224004D01*
X126417246Y-105180547D01*
X126549275Y-105109975D01*
X126665000Y-105015002D01*
X126688803Y-104985998D01*
X127389802Y-104285000D01*
X127451939Y-104285000D01*
X127651898Y-104245226D01*
X127840256Y-104167205D01*
X128009774Y-104053937D01*
X128153937Y-103909774D01*
X128267205Y-103740256D01*
X128345226Y-103551898D01*
X128385000Y-103351939D01*
X128385000Y-103148061D01*
X128350953Y-102976890D01*
X143558524Y-102976890D01*
X143603175Y-103124099D01*
X143728359Y-103386920D01*
X143902412Y-103620269D01*
X144118645Y-103815178D01*
X144244255Y-103890000D01*
X144118645Y-103964822D01*
X143902412Y-104159731D01*
X143728359Y-104393080D01*
X143603175Y-104655901D01*
X143558524Y-104803110D01*
X143679845Y-105033000D01*
X144873000Y-105033000D01*
X144873000Y-102747000D01*
X145127000Y-102747000D01*
X145127000Y-105033000D01*
X146320155Y-105033000D01*
X146441476Y-104803110D01*
X146396825Y-104655901D01*
X146271641Y-104393080D01*
X146097588Y-104159731D01*
X145881355Y-103964822D01*
X145755745Y-103890000D01*
X145881355Y-103815178D01*
X146097588Y-103620269D01*
X146271641Y-103386920D01*
X146396825Y-103124099D01*
X146441476Y-102976890D01*
X146320155Y-102747000D01*
X145127000Y-102747000D01*
X144873000Y-102747000D01*
X143679845Y-102747000D01*
X143558524Y-102976890D01*
X128350953Y-102976890D01*
X128345226Y-102948102D01*
X128267205Y-102759744D01*
X128153937Y-102590226D01*
X128009774Y-102446063D01*
X127840256Y-102332795D01*
X127651898Y-102254774D01*
X127451939Y-102215000D01*
X127248061Y-102215000D01*
X127048102Y-102254774D01*
X126859744Y-102332795D01*
X126690226Y-102446063D01*
X126546063Y-102590226D01*
X126432795Y-102759744D01*
X126354774Y-102948102D01*
X126315000Y-103148061D01*
X126315000Y-103210198D01*
X125810198Y-103715001D01*
X118385000Y-103715001D01*
X118385000Y-103648061D01*
X118345226Y-103448102D01*
X118267205Y-103259744D01*
X118153937Y-103090226D01*
X118110000Y-103046289D01*
X118110000Y-100436890D01*
X143558524Y-100436890D01*
X143603175Y-100584099D01*
X143728359Y-100846920D01*
X143902412Y-101080269D01*
X144118645Y-101275178D01*
X144244255Y-101350000D01*
X144118645Y-101424822D01*
X143902412Y-101619731D01*
X143728359Y-101853080D01*
X143603175Y-102115901D01*
X143558524Y-102263110D01*
X143679845Y-102493000D01*
X144873000Y-102493000D01*
X144873000Y-100207000D01*
X145127000Y-100207000D01*
X145127000Y-102493000D01*
X146320155Y-102493000D01*
X146441476Y-102263110D01*
X146396825Y-102115901D01*
X146271641Y-101853080D01*
X146097588Y-101619731D01*
X145881355Y-101424822D01*
X145755745Y-101350000D01*
X145881355Y-101275178D01*
X146097588Y-101080269D01*
X146271641Y-100846920D01*
X146396825Y-100584099D01*
X146441476Y-100436890D01*
X146320155Y-100207000D01*
X145127000Y-100207000D01*
X144873000Y-100207000D01*
X143679845Y-100207000D01*
X143558524Y-100436890D01*
X118110000Y-100436890D01*
X118110000Y-97896890D01*
X143558524Y-97896890D01*
X143603175Y-98044099D01*
X143728359Y-98306920D01*
X143902412Y-98540269D01*
X144118645Y-98735178D01*
X144244255Y-98810000D01*
X144118645Y-98884822D01*
X143902412Y-99079731D01*
X143728359Y-99313080D01*
X143603175Y-99575901D01*
X143558524Y-99723110D01*
X143679845Y-99953000D01*
X144873000Y-99953000D01*
X144873000Y-97667000D01*
X145127000Y-97667000D01*
X145127000Y-99953000D01*
X146320155Y-99953000D01*
X146441476Y-99723110D01*
X146396825Y-99575901D01*
X146271641Y-99313080D01*
X146097588Y-99079731D01*
X145881355Y-98884822D01*
X145755745Y-98810000D01*
X145881355Y-98735178D01*
X146097588Y-98540269D01*
X146271641Y-98306920D01*
X146396825Y-98044099D01*
X146441476Y-97896890D01*
X146320155Y-97667000D01*
X145127000Y-97667000D01*
X144873000Y-97667000D01*
X143679845Y-97667000D01*
X143558524Y-97896890D01*
X118110000Y-97896890D01*
X118110000Y-96753560D01*
X118151898Y-96745226D01*
X118340256Y-96667205D01*
X118509774Y-96553937D01*
X118653937Y-96409774D01*
X118767205Y-96240256D01*
X118845226Y-96051898D01*
X118885000Y-95851939D01*
X118885000Y-95648061D01*
X118845226Y-95448102D01*
X118767205Y-95259744D01*
X118653937Y-95090226D01*
X118509774Y-94946063D01*
X118371603Y-94853740D01*
X143515000Y-94853740D01*
X143515000Y-95146260D01*
X143572068Y-95433158D01*
X143684010Y-95703411D01*
X143846525Y-95946632D01*
X144053368Y-96153475D01*
X144235534Y-96275195D01*
X144118645Y-96344822D01*
X143902412Y-96539731D01*
X143728359Y-96773080D01*
X143603175Y-97035901D01*
X143558524Y-97183110D01*
X143679845Y-97413000D01*
X144873000Y-97413000D01*
X144873000Y-97393000D01*
X145127000Y-97393000D01*
X145127000Y-97413000D01*
X146320155Y-97413000D01*
X146441476Y-97183110D01*
X146396825Y-97035901D01*
X146271641Y-96773080D01*
X146097588Y-96539731D01*
X145881355Y-96344822D01*
X145764466Y-96275195D01*
X145946632Y-96153475D01*
X146153475Y-95946632D01*
X146315990Y-95703411D01*
X146427932Y-95433158D01*
X146485000Y-95146260D01*
X146485000Y-94853740D01*
X146427932Y-94566842D01*
X146315990Y-94296589D01*
X146153475Y-94053368D01*
X145946632Y-93846525D01*
X145764466Y-93724805D01*
X145881355Y-93655178D01*
X146097588Y-93460269D01*
X146271641Y-93226920D01*
X146396825Y-92964099D01*
X146441476Y-92816890D01*
X146320155Y-92587000D01*
X145127000Y-92587000D01*
X145127000Y-92607000D01*
X144873000Y-92607000D01*
X144873000Y-92587000D01*
X143679845Y-92587000D01*
X143558524Y-92816890D01*
X143603175Y-92964099D01*
X143728359Y-93226920D01*
X143902412Y-93460269D01*
X144118645Y-93655178D01*
X144235534Y-93724805D01*
X144053368Y-93846525D01*
X143846525Y-94053368D01*
X143684010Y-94296589D01*
X143572068Y-94566842D01*
X143515000Y-94853740D01*
X118371603Y-94853740D01*
X118340256Y-94832795D01*
X118151898Y-94754774D01*
X117951939Y-94715000D01*
X117748061Y-94715000D01*
X117548102Y-94754774D01*
X117359744Y-94832795D01*
X117190226Y-94946063D01*
X117046063Y-95090226D01*
X116932795Y-95259744D01*
X116854774Y-95448102D01*
X116815000Y-95648061D01*
X116815000Y-95705896D01*
X116810000Y-95709999D01*
X116786202Y-95738997D01*
X116786201Y-95738998D01*
X116715026Y-95825724D01*
X116644454Y-95957754D01*
X116600998Y-96101015D01*
X116586324Y-96250000D01*
X116590001Y-96287332D01*
X116590000Y-103046289D01*
X116546063Y-103090226D01*
X116432795Y-103259744D01*
X116354774Y-103448102D01*
X116315000Y-103648061D01*
X116315000Y-103715001D01*
X115871241Y-103715001D01*
X115704490Y-103548250D01*
X115704490Y-103486113D01*
X115664716Y-103286154D01*
X115586695Y-103097796D01*
X115473427Y-102928278D01*
X115329264Y-102784115D01*
X115159746Y-102670847D01*
X114971388Y-102592826D01*
X114771429Y-102553052D01*
X114567551Y-102553052D01*
X114367592Y-102592826D01*
X114179234Y-102670847D01*
X114009716Y-102784115D01*
X113865553Y-102928278D01*
X113752285Y-103097796D01*
X113674264Y-103286154D01*
X113634490Y-103486113D01*
X103972283Y-103486113D01*
X103975812Y-103474482D01*
X103988072Y-103350000D01*
X103985000Y-102785750D01*
X103826250Y-102627000D01*
X102627000Y-102627000D01*
X102373000Y-102627000D01*
X101173750Y-102627000D01*
X101015000Y-102785750D01*
X101011928Y-103350000D01*
X100660000Y-103350000D01*
X100660000Y-101650000D01*
X101011928Y-101650000D01*
X101015000Y-102214250D01*
X101173750Y-102373000D01*
X102373000Y-102373000D01*
X102373000Y-101173750D01*
X102627000Y-101173750D01*
X102627000Y-102373000D01*
X103826250Y-102373000D01*
X103985000Y-102214250D01*
X103988072Y-101650000D01*
X103975812Y-101525518D01*
X103939502Y-101405820D01*
X103880537Y-101295506D01*
X103801185Y-101198815D01*
X103704494Y-101119463D01*
X103594180Y-101060498D01*
X103474482Y-101024188D01*
X103350000Y-101011928D01*
X102785750Y-101015000D01*
X102627000Y-101173750D01*
X102373000Y-101173750D01*
X102214250Y-101015000D01*
X101650000Y-101011928D01*
X101525518Y-101024188D01*
X101405820Y-101060498D01*
X101295506Y-101119463D01*
X101198815Y-101198815D01*
X101119463Y-101295506D01*
X101060498Y-101405820D01*
X101024188Y-101525518D01*
X101011928Y-101650000D01*
X100660000Y-101650000D01*
X100660000Y-97936890D01*
X101058524Y-97936890D01*
X101103175Y-98084099D01*
X101228359Y-98346920D01*
X101402412Y-98580269D01*
X101618645Y-98775178D01*
X101868748Y-98924157D01*
X102143109Y-99021481D01*
X102373000Y-98900814D01*
X102373000Y-97707000D01*
X101179845Y-97707000D01*
X101058524Y-97936890D01*
X100660000Y-97936890D01*
X100660000Y-93350000D01*
X101011928Y-93350000D01*
X101024188Y-93474482D01*
X101060498Y-93594180D01*
X101119463Y-93704494D01*
X101198815Y-93801185D01*
X101295506Y-93880537D01*
X101405820Y-93939502D01*
X101478380Y-93961513D01*
X101346525Y-94093368D01*
X101184010Y-94336589D01*
X101072068Y-94606842D01*
X101015000Y-94893740D01*
X101015000Y-95186260D01*
X101072068Y-95473158D01*
X101184010Y-95743411D01*
X101346525Y-95986632D01*
X101553368Y-96193475D01*
X101735534Y-96315195D01*
X101618645Y-96384822D01*
X101402412Y-96579731D01*
X101228359Y-96813080D01*
X101103175Y-97075901D01*
X101058524Y-97223110D01*
X101179845Y-97453000D01*
X102373000Y-97453000D01*
X102373000Y-97433000D01*
X102627000Y-97433000D01*
X102627000Y-97453000D01*
X102647000Y-97453000D01*
X102647000Y-97707000D01*
X102627000Y-97707000D01*
X102627000Y-98900814D01*
X102856891Y-99021481D01*
X103131252Y-98924157D01*
X103381355Y-98775178D01*
X103597588Y-98580269D01*
X103726137Y-98407927D01*
X103754774Y-98551898D01*
X103832795Y-98740256D01*
X103946063Y-98909774D01*
X104090226Y-99053937D01*
X104259744Y-99167205D01*
X104448102Y-99245226D01*
X104648061Y-99285000D01*
X104851939Y-99285000D01*
X105051898Y-99245226D01*
X105240256Y-99167205D01*
X105409774Y-99053937D01*
X105553937Y-98909774D01*
X105667205Y-98740256D01*
X105745226Y-98551898D01*
X105785000Y-98351939D01*
X105785000Y-98148061D01*
X105745226Y-97948102D01*
X105667205Y-97759744D01*
X105553937Y-97590226D01*
X105510000Y-97546289D01*
X105510000Y-86453711D01*
X105553937Y-86409774D01*
X105667205Y-86240256D01*
X105745226Y-86051898D01*
X105760907Y-85973061D01*
X113615000Y-85973061D01*
X113615000Y-86176939D01*
X113654774Y-86376898D01*
X113732795Y-86565256D01*
X113846063Y-86734774D01*
X113990226Y-86878937D01*
X114159744Y-86992205D01*
X114348102Y-87070226D01*
X114548061Y-87110000D01*
X114751939Y-87110000D01*
X114951898Y-87070226D01*
X115140256Y-86992205D01*
X115309774Y-86878937D01*
X115453937Y-86734774D01*
X115567205Y-86565256D01*
X115645226Y-86376898D01*
X115671561Y-86244501D01*
X116355498Y-86244501D01*
X116355498Y-86311441D01*
X116395272Y-86511400D01*
X116473293Y-86699758D01*
X116586561Y-86869276D01*
X116630498Y-86913213D01*
X116630499Y-92253166D01*
X116626822Y-92290498D01*
X116641496Y-92439483D01*
X116684952Y-92582744D01*
X116755524Y-92714774D01*
X116813773Y-92785750D01*
X116850498Y-92830499D01*
X116879496Y-92854297D01*
X117315000Y-93289801D01*
X117315000Y-93351939D01*
X117354774Y-93551898D01*
X117432795Y-93740256D01*
X117546063Y-93909774D01*
X117690226Y-94053937D01*
X117859744Y-94167205D01*
X118048102Y-94245226D01*
X118248061Y-94285000D01*
X118451939Y-94285000D01*
X118651898Y-94245226D01*
X118840256Y-94167205D01*
X119009774Y-94053937D01*
X119153937Y-93909774D01*
X119267205Y-93740256D01*
X119345226Y-93551898D01*
X119385000Y-93351939D01*
X119385000Y-93148061D01*
X119345226Y-92948102D01*
X119267205Y-92759744D01*
X119153937Y-92590226D01*
X119009774Y-92446063D01*
X118840256Y-92332795D01*
X118651898Y-92254774D01*
X118451939Y-92215000D01*
X118389801Y-92215000D01*
X118150498Y-91975697D01*
X118150498Y-90276890D01*
X143558524Y-90276890D01*
X143603175Y-90424099D01*
X143728359Y-90686920D01*
X143902412Y-90920269D01*
X144118645Y-91115178D01*
X144244255Y-91190000D01*
X144118645Y-91264822D01*
X143902412Y-91459731D01*
X143728359Y-91693080D01*
X143603175Y-91955901D01*
X143558524Y-92103110D01*
X143679845Y-92333000D01*
X144873000Y-92333000D01*
X144873000Y-90047000D01*
X145127000Y-90047000D01*
X145127000Y-92333000D01*
X146320155Y-92333000D01*
X146441476Y-92103110D01*
X146396825Y-91955901D01*
X146271641Y-91693080D01*
X146097588Y-91459731D01*
X145881355Y-91264822D01*
X145755745Y-91190000D01*
X145881355Y-91115178D01*
X146097588Y-90920269D01*
X146271641Y-90686920D01*
X146396825Y-90424099D01*
X146441476Y-90276890D01*
X146320155Y-90047000D01*
X145127000Y-90047000D01*
X144873000Y-90047000D01*
X143679845Y-90047000D01*
X143558524Y-90276890D01*
X118150498Y-90276890D01*
X118150498Y-87736890D01*
X143558524Y-87736890D01*
X143603175Y-87884099D01*
X143728359Y-88146920D01*
X143902412Y-88380269D01*
X144118645Y-88575178D01*
X144244255Y-88650000D01*
X144118645Y-88724822D01*
X143902412Y-88919731D01*
X143728359Y-89153080D01*
X143603175Y-89415901D01*
X143558524Y-89563110D01*
X143679845Y-89793000D01*
X144873000Y-89793000D01*
X144873000Y-87507000D01*
X145127000Y-87507000D01*
X145127000Y-89793000D01*
X146320155Y-89793000D01*
X146441476Y-89563110D01*
X146396825Y-89415901D01*
X146271641Y-89153080D01*
X146097588Y-88919731D01*
X145881355Y-88724822D01*
X145755745Y-88650000D01*
X145881355Y-88575178D01*
X146097588Y-88380269D01*
X146271641Y-88146920D01*
X146396825Y-87884099D01*
X146441476Y-87736890D01*
X146320155Y-87507000D01*
X145127000Y-87507000D01*
X144873000Y-87507000D01*
X143679845Y-87507000D01*
X143558524Y-87736890D01*
X118150498Y-87736890D01*
X118150498Y-86913213D01*
X118194435Y-86869276D01*
X118307703Y-86699758D01*
X118385724Y-86511400D01*
X118425498Y-86311441D01*
X118425498Y-86244501D01*
X125869699Y-86244501D01*
X126015000Y-86389802D01*
X126015000Y-86451939D01*
X126054774Y-86651898D01*
X126132795Y-86840256D01*
X126246063Y-87009774D01*
X126390226Y-87153937D01*
X126559744Y-87267205D01*
X126748102Y-87345226D01*
X126948061Y-87385000D01*
X127151939Y-87385000D01*
X127351898Y-87345226D01*
X127540256Y-87267205D01*
X127709774Y-87153937D01*
X127853937Y-87009774D01*
X127967205Y-86840256D01*
X128045226Y-86651898D01*
X128085000Y-86451939D01*
X128085000Y-86248061D01*
X128045226Y-86048102D01*
X127967205Y-85859744D01*
X127853937Y-85690226D01*
X127709774Y-85546063D01*
X127540256Y-85432795D01*
X127351898Y-85354774D01*
X127151939Y-85315000D01*
X127089802Y-85315000D01*
X126971692Y-85196890D01*
X143558524Y-85196890D01*
X143603175Y-85344099D01*
X143728359Y-85606920D01*
X143902412Y-85840269D01*
X144118645Y-86035178D01*
X144244255Y-86110000D01*
X144118645Y-86184822D01*
X143902412Y-86379731D01*
X143728359Y-86613080D01*
X143603175Y-86875901D01*
X143558524Y-87023110D01*
X143679845Y-87253000D01*
X144873000Y-87253000D01*
X144873000Y-84967000D01*
X145127000Y-84967000D01*
X145127000Y-87253000D01*
X146320155Y-87253000D01*
X146441476Y-87023110D01*
X146396825Y-86875901D01*
X146271641Y-86613080D01*
X146097588Y-86379731D01*
X145881355Y-86184822D01*
X145755745Y-86110000D01*
X145881355Y-86035178D01*
X146097588Y-85840269D01*
X146271641Y-85606920D01*
X146396825Y-85344099D01*
X146441476Y-85196890D01*
X146320155Y-84967000D01*
X145127000Y-84967000D01*
X144873000Y-84967000D01*
X143679845Y-84967000D01*
X143558524Y-85196890D01*
X126971692Y-85196890D01*
X126748304Y-84973503D01*
X126724502Y-84944500D01*
X126608777Y-84849527D01*
X126476748Y-84778955D01*
X126333487Y-84735498D01*
X126221834Y-84724501D01*
X126221823Y-84724501D01*
X126184501Y-84720825D01*
X126147179Y-84724501D01*
X115277824Y-84724501D01*
X115240499Y-84720825D01*
X115203174Y-84724501D01*
X115203166Y-84724501D01*
X115091513Y-84735498D01*
X114948252Y-84778955D01*
X114816223Y-84849527D01*
X114700498Y-84944500D01*
X114676699Y-84973499D01*
X114610198Y-85040000D01*
X114548061Y-85040000D01*
X114348102Y-85079774D01*
X114159744Y-85157795D01*
X113990226Y-85271063D01*
X113846063Y-85415226D01*
X113732795Y-85584744D01*
X113654774Y-85773102D01*
X113615000Y-85973061D01*
X105760907Y-85973061D01*
X105785000Y-85851939D01*
X105785000Y-85648061D01*
X105745226Y-85448102D01*
X105667205Y-85259744D01*
X105553937Y-85090226D01*
X105409774Y-84946063D01*
X105240256Y-84832795D01*
X105051898Y-84754774D01*
X104851939Y-84715000D01*
X104648061Y-84715000D01*
X104448102Y-84754774D01*
X104259744Y-84832795D01*
X104090226Y-84946063D01*
X103985000Y-85051289D01*
X103985000Y-84952998D01*
X103820156Y-84952998D01*
X103941476Y-84723110D01*
X103896825Y-84575901D01*
X103771641Y-84313080D01*
X103597588Y-84079731D01*
X103381355Y-83884822D01*
X103255745Y-83810000D01*
X103381355Y-83735178D01*
X103597588Y-83540269D01*
X103771641Y-83306920D01*
X103896825Y-83044099D01*
X103941476Y-82896890D01*
X103820155Y-82667000D01*
X102627000Y-82667000D01*
X102627000Y-84953000D01*
X102647000Y-84953000D01*
X102647000Y-85207000D01*
X102627000Y-85207000D01*
X102627000Y-87493000D01*
X103820155Y-87493000D01*
X103941476Y-87263110D01*
X103896825Y-87115901D01*
X103771641Y-86853080D01*
X103597588Y-86619731D01*
X103381355Y-86424822D01*
X103255745Y-86350000D01*
X103381355Y-86275178D01*
X103597588Y-86080269D01*
X103726137Y-85907927D01*
X103754774Y-86051898D01*
X103832795Y-86240256D01*
X103946063Y-86409774D01*
X103990000Y-86453711D01*
X103990001Y-97546288D01*
X103985000Y-97551289D01*
X103985000Y-97452998D01*
X103820156Y-97452998D01*
X103941476Y-97223110D01*
X103896825Y-97075901D01*
X103771641Y-96813080D01*
X103597588Y-96579731D01*
X103381355Y-96384822D01*
X103264466Y-96315195D01*
X103446632Y-96193475D01*
X103653475Y-95986632D01*
X103815990Y-95743411D01*
X103927932Y-95473158D01*
X103985000Y-95186260D01*
X103985000Y-94893740D01*
X103927932Y-94606842D01*
X103815990Y-94336589D01*
X103653475Y-94093368D01*
X103521620Y-93961513D01*
X103594180Y-93939502D01*
X103704494Y-93880537D01*
X103801185Y-93801185D01*
X103880537Y-93704494D01*
X103939502Y-93594180D01*
X103975812Y-93474482D01*
X103988072Y-93350000D01*
X103985000Y-92785750D01*
X103826250Y-92627000D01*
X102627000Y-92627000D01*
X102627000Y-92647000D01*
X102373000Y-92647000D01*
X102373000Y-92627000D01*
X101173750Y-92627000D01*
X101015000Y-92785750D01*
X101011928Y-93350000D01*
X100660000Y-93350000D01*
X100660000Y-91650000D01*
X101011928Y-91650000D01*
X101015000Y-92214250D01*
X101173750Y-92373000D01*
X102373000Y-92373000D01*
X102373000Y-91173750D01*
X102627000Y-91173750D01*
X102627000Y-92373000D01*
X103826250Y-92373000D01*
X103985000Y-92214250D01*
X103988072Y-91650000D01*
X103975812Y-91525518D01*
X103939502Y-91405820D01*
X103880537Y-91295506D01*
X103801185Y-91198815D01*
X103704494Y-91119463D01*
X103594180Y-91060498D01*
X103474482Y-91024188D01*
X103350000Y-91011928D01*
X102785750Y-91015000D01*
X102627000Y-91173750D01*
X102373000Y-91173750D01*
X102214250Y-91015000D01*
X101650000Y-91011928D01*
X101525518Y-91024188D01*
X101405820Y-91060498D01*
X101295506Y-91119463D01*
X101198815Y-91198815D01*
X101119463Y-91295506D01*
X101060498Y-91405820D01*
X101024188Y-91525518D01*
X101011928Y-91650000D01*
X100660000Y-91650000D01*
X100660000Y-87976890D01*
X101058524Y-87976890D01*
X101103175Y-88124099D01*
X101228359Y-88386920D01*
X101402412Y-88620269D01*
X101618645Y-88815178D01*
X101868748Y-88964157D01*
X102143109Y-89061481D01*
X102373000Y-88940814D01*
X102373000Y-87747000D01*
X102627000Y-87747000D01*
X102627000Y-88940814D01*
X102856891Y-89061481D01*
X103131252Y-88964157D01*
X103381355Y-88815178D01*
X103597588Y-88620269D01*
X103771641Y-88386920D01*
X103896825Y-88124099D01*
X103941476Y-87976890D01*
X103820155Y-87747000D01*
X102627000Y-87747000D01*
X102373000Y-87747000D01*
X101179845Y-87747000D01*
X101058524Y-87976890D01*
X100660000Y-87976890D01*
X100660000Y-85436890D01*
X101058524Y-85436890D01*
X101103175Y-85584099D01*
X101228359Y-85846920D01*
X101402412Y-86080269D01*
X101618645Y-86275178D01*
X101744255Y-86350000D01*
X101618645Y-86424822D01*
X101402412Y-86619731D01*
X101228359Y-86853080D01*
X101103175Y-87115901D01*
X101058524Y-87263110D01*
X101179845Y-87493000D01*
X102373000Y-87493000D01*
X102373000Y-85207000D01*
X101179845Y-85207000D01*
X101058524Y-85436890D01*
X100660000Y-85436890D01*
X100660000Y-82896890D01*
X101058524Y-82896890D01*
X101103175Y-83044099D01*
X101228359Y-83306920D01*
X101402412Y-83540269D01*
X101618645Y-83735178D01*
X101744255Y-83810000D01*
X101618645Y-83884822D01*
X101402412Y-84079731D01*
X101228359Y-84313080D01*
X101103175Y-84575901D01*
X101058524Y-84723110D01*
X101179845Y-84953000D01*
X102373000Y-84953000D01*
X102373000Y-82667000D01*
X101179845Y-82667000D01*
X101058524Y-82896890D01*
X100660000Y-82896890D01*
X100660000Y-82656890D01*
X143558524Y-82656890D01*
X143603175Y-82804099D01*
X143728359Y-83066920D01*
X143902412Y-83300269D01*
X144118645Y-83495178D01*
X144244255Y-83570000D01*
X144118645Y-83644822D01*
X143902412Y-83839731D01*
X143728359Y-84073080D01*
X143603175Y-84335901D01*
X143558524Y-84483110D01*
X143679845Y-84713000D01*
X144873000Y-84713000D01*
X144873000Y-82427000D01*
X145127000Y-82427000D01*
X145127000Y-84713000D01*
X146320155Y-84713000D01*
X146441476Y-84483110D01*
X146396825Y-84335901D01*
X146271641Y-84073080D01*
X146097588Y-83839731D01*
X145881355Y-83644822D01*
X145755745Y-83570000D01*
X145881355Y-83495178D01*
X146097588Y-83300269D01*
X146271641Y-83066920D01*
X146396825Y-82804099D01*
X146441476Y-82656890D01*
X146320155Y-82427000D01*
X145127000Y-82427000D01*
X144873000Y-82427000D01*
X143679845Y-82427000D01*
X143558524Y-82656890D01*
X100660000Y-82656890D01*
X100660000Y-80850000D01*
X101011928Y-80850000D01*
X101024188Y-80974482D01*
X101060498Y-81094180D01*
X101119463Y-81204494D01*
X101198815Y-81301185D01*
X101295506Y-81380537D01*
X101405820Y-81439502D01*
X101486466Y-81463966D01*
X101402412Y-81539731D01*
X101228359Y-81773080D01*
X101103175Y-82035901D01*
X101058524Y-82183110D01*
X101179845Y-82413000D01*
X102373000Y-82413000D01*
X102373000Y-80127000D01*
X102627000Y-80127000D01*
X102627000Y-82413000D01*
X103820155Y-82413000D01*
X103941476Y-82183110D01*
X103896825Y-82035901D01*
X103771641Y-81773080D01*
X103597588Y-81539731D01*
X103513534Y-81463966D01*
X103594180Y-81439502D01*
X103704494Y-81380537D01*
X103801185Y-81301185D01*
X103880537Y-81204494D01*
X103939502Y-81094180D01*
X103975812Y-80974482D01*
X103988072Y-80850000D01*
X103986766Y-80610000D01*
X143511928Y-80610000D01*
X143524188Y-80734482D01*
X143560498Y-80854180D01*
X143619463Y-80964494D01*
X143698815Y-81061185D01*
X143795506Y-81140537D01*
X143905820Y-81199502D01*
X143986466Y-81223966D01*
X143902412Y-81299731D01*
X143728359Y-81533080D01*
X143603175Y-81795901D01*
X143558524Y-81943110D01*
X143679845Y-82173000D01*
X144873000Y-82173000D01*
X144873000Y-79887000D01*
X145127000Y-79887000D01*
X145127000Y-82173000D01*
X146320155Y-82173000D01*
X146441476Y-81943110D01*
X146396825Y-81795901D01*
X146271641Y-81533080D01*
X146097588Y-81299731D01*
X146013534Y-81223966D01*
X146094180Y-81199502D01*
X146204494Y-81140537D01*
X146301185Y-81061185D01*
X146380537Y-80964494D01*
X146439502Y-80854180D01*
X146475812Y-80734482D01*
X146488072Y-80610000D01*
X146485000Y-80045750D01*
X146326250Y-79887000D01*
X145127000Y-79887000D01*
X144873000Y-79887000D01*
X143673750Y-79887000D01*
X143515000Y-80045750D01*
X143511928Y-80610000D01*
X103986766Y-80610000D01*
X103985000Y-80285750D01*
X103826250Y-80127000D01*
X102627000Y-80127000D01*
X102373000Y-80127000D01*
X101173750Y-80127000D01*
X101015000Y-80285750D01*
X101011928Y-80850000D01*
X100660000Y-80850000D01*
X100660000Y-79150000D01*
X101011928Y-79150000D01*
X101015000Y-79714250D01*
X101173750Y-79873000D01*
X102373000Y-79873000D01*
X102373000Y-78673750D01*
X102627000Y-78673750D01*
X102627000Y-79873000D01*
X103826250Y-79873000D01*
X103985000Y-79714250D01*
X103988072Y-79150000D01*
X103975812Y-79025518D01*
X103939502Y-78905820D01*
X103880537Y-78795506D01*
X103801185Y-78698815D01*
X103704494Y-78619463D01*
X103594180Y-78560498D01*
X103474482Y-78524188D01*
X103350000Y-78511928D01*
X102785750Y-78515000D01*
X102627000Y-78673750D01*
X102373000Y-78673750D01*
X102214250Y-78515000D01*
X101650000Y-78511928D01*
X101525518Y-78524188D01*
X101405820Y-78560498D01*
X101295506Y-78619463D01*
X101198815Y-78698815D01*
X101119463Y-78795506D01*
X101060498Y-78905820D01*
X101024188Y-79025518D01*
X101011928Y-79150000D01*
X100660000Y-79150000D01*
X100660000Y-76532278D01*
X100726714Y-75851874D01*
X100727279Y-75850000D01*
X103511928Y-75850000D01*
X103524188Y-75974482D01*
X103560498Y-76094180D01*
X103619463Y-76204494D01*
X103698815Y-76301185D01*
X103795506Y-76380537D01*
X103905820Y-76439502D01*
X104025518Y-76475812D01*
X104150000Y-76488072D01*
X104714250Y-76485000D01*
X104873000Y-76326250D01*
X104873000Y-75127000D01*
X103673750Y-75127000D01*
X103515000Y-75285750D01*
X103511928Y-75850000D01*
X100727279Y-75850000D01*
X100914943Y-75228428D01*
X101220681Y-74653421D01*
X101631261Y-74150000D01*
X103511928Y-74150000D01*
X103515000Y-74714250D01*
X103673750Y-74873000D01*
X104873000Y-74873000D01*
X104873000Y-73673750D01*
X105127000Y-73673750D01*
X105127000Y-74873000D01*
X105147000Y-74873000D01*
X105147000Y-75127000D01*
X105127000Y-75127000D01*
X105127000Y-76326250D01*
X105285750Y-76485000D01*
X105850000Y-76488072D01*
X105974482Y-76475812D01*
X106094180Y-76439502D01*
X106204494Y-76380537D01*
X106301185Y-76301185D01*
X106380537Y-76204494D01*
X106439502Y-76094180D01*
X106461513Y-76021620D01*
X106593368Y-76153475D01*
X106836589Y-76315990D01*
X107106842Y-76427932D01*
X107393740Y-76485000D01*
X107686260Y-76485000D01*
X107906408Y-76441209D01*
X109976201Y-78511003D01*
X109999999Y-78540001D01*
X110115724Y-78634974D01*
X110247753Y-78705546D01*
X110391014Y-78749003D01*
X110502667Y-78760000D01*
X110502675Y-78760000D01*
X110540000Y-78763676D01*
X110577325Y-78760000D01*
X111546289Y-78760000D01*
X111590226Y-78803937D01*
X111759744Y-78917205D01*
X111948102Y-78995226D01*
X112148061Y-79035000D01*
X112351939Y-79035000D01*
X112551898Y-78995226D01*
X112740256Y-78917205D01*
X112751039Y-78910000D01*
X143511928Y-78910000D01*
X143515000Y-79474250D01*
X143673750Y-79633000D01*
X144873000Y-79633000D01*
X144873000Y-78433750D01*
X145127000Y-78433750D01*
X145127000Y-79633000D01*
X146326250Y-79633000D01*
X146485000Y-79474250D01*
X146488072Y-78910000D01*
X146475812Y-78785518D01*
X146439502Y-78665820D01*
X146380537Y-78555506D01*
X146301185Y-78458815D01*
X146204494Y-78379463D01*
X146094180Y-78320498D01*
X145974482Y-78284188D01*
X145850000Y-78271928D01*
X145285750Y-78275000D01*
X145127000Y-78433750D01*
X144873000Y-78433750D01*
X144714250Y-78275000D01*
X144150000Y-78271928D01*
X144025518Y-78284188D01*
X143905820Y-78320498D01*
X143795506Y-78379463D01*
X143698815Y-78458815D01*
X143619463Y-78555506D01*
X143560498Y-78665820D01*
X143524188Y-78785518D01*
X143511928Y-78910000D01*
X112751039Y-78910000D01*
X112909774Y-78803937D01*
X113053937Y-78659774D01*
X113167205Y-78490256D01*
X113245226Y-78301898D01*
X113285000Y-78101939D01*
X113285000Y-77898061D01*
X113245226Y-77698102D01*
X113167205Y-77509744D01*
X113053937Y-77340226D01*
X112909774Y-77196063D01*
X112740256Y-77082795D01*
X112551898Y-77004774D01*
X112351939Y-76965000D01*
X112148061Y-76965000D01*
X111948102Y-77004774D01*
X111759744Y-77082795D01*
X111590226Y-77196063D01*
X111546289Y-77240000D01*
X110854802Y-77240000D01*
X110099802Y-76485000D01*
X110226260Y-76485000D01*
X110513158Y-76427932D01*
X110783411Y-76315990D01*
X111026632Y-76153475D01*
X111233475Y-75946632D01*
X111355195Y-75764466D01*
X111424822Y-75881355D01*
X111619731Y-76097588D01*
X111853080Y-76271641D01*
X112115901Y-76396825D01*
X112263110Y-76441476D01*
X112493000Y-76320155D01*
X112493000Y-75127000D01*
X112747000Y-75127000D01*
X112747000Y-76320155D01*
X112976890Y-76441476D01*
X113124099Y-76396825D01*
X113386920Y-76271641D01*
X113620269Y-76097588D01*
X113815178Y-75881355D01*
X113890000Y-75755745D01*
X113964822Y-75881355D01*
X114159731Y-76097588D01*
X114393080Y-76271641D01*
X114655901Y-76396825D01*
X114803110Y-76441476D01*
X115033000Y-76320155D01*
X115033000Y-75127000D01*
X115287000Y-75127000D01*
X115287000Y-76320155D01*
X115516890Y-76441476D01*
X115664099Y-76396825D01*
X115926920Y-76271641D01*
X116160269Y-76097588D01*
X116355178Y-75881355D01*
X116430000Y-75755745D01*
X116504822Y-75881355D01*
X116699731Y-76097588D01*
X116933080Y-76271641D01*
X117195901Y-76396825D01*
X117343110Y-76441476D01*
X117573000Y-76320155D01*
X117573000Y-75127000D01*
X117827000Y-75127000D01*
X117827000Y-76320155D01*
X118056890Y-76441476D01*
X118204099Y-76396825D01*
X118466920Y-76271641D01*
X118700269Y-76097588D01*
X118895178Y-75881355D01*
X118970000Y-75755745D01*
X119044822Y-75881355D01*
X119239731Y-76097588D01*
X119473080Y-76271641D01*
X119735901Y-76396825D01*
X119883110Y-76441476D01*
X120113000Y-76320155D01*
X120113000Y-75127000D01*
X120367000Y-75127000D01*
X120367000Y-76320155D01*
X120596890Y-76441476D01*
X120744099Y-76396825D01*
X121006920Y-76271641D01*
X121240269Y-76097588D01*
X121435178Y-75881355D01*
X121510000Y-75755745D01*
X121584822Y-75881355D01*
X121779731Y-76097588D01*
X122013080Y-76271641D01*
X122275901Y-76396825D01*
X122423110Y-76441476D01*
X122653000Y-76320155D01*
X122653000Y-75127000D01*
X122907000Y-75127000D01*
X122907000Y-76320155D01*
X123136890Y-76441476D01*
X123284099Y-76396825D01*
X123546920Y-76271641D01*
X123780269Y-76097588D01*
X123975178Y-75881355D01*
X124050000Y-75755745D01*
X124124822Y-75881355D01*
X124319731Y-76097588D01*
X124553080Y-76271641D01*
X124815901Y-76396825D01*
X124963110Y-76441476D01*
X125193000Y-76320155D01*
X125193000Y-75127000D01*
X125447000Y-75127000D01*
X125447000Y-76320155D01*
X125676890Y-76441476D01*
X125824099Y-76396825D01*
X126086920Y-76271641D01*
X126320269Y-76097588D01*
X126515178Y-75881355D01*
X126590000Y-75755745D01*
X126664822Y-75881355D01*
X126859731Y-76097588D01*
X127093080Y-76271641D01*
X127355901Y-76396825D01*
X127503110Y-76441476D01*
X127733000Y-76320155D01*
X127733000Y-75127000D01*
X127987000Y-75127000D01*
X127987000Y-76320155D01*
X128216890Y-76441476D01*
X128364099Y-76396825D01*
X128626920Y-76271641D01*
X128860269Y-76097588D01*
X129055178Y-75881355D01*
X129130000Y-75755745D01*
X129204822Y-75881355D01*
X129399731Y-76097588D01*
X129633080Y-76271641D01*
X129895901Y-76396825D01*
X130043110Y-76441476D01*
X130273000Y-76320155D01*
X130273000Y-75127000D01*
X130527000Y-75127000D01*
X130527000Y-76320155D01*
X130756890Y-76441476D01*
X130904099Y-76396825D01*
X131166920Y-76271641D01*
X131400269Y-76097588D01*
X131595178Y-75881355D01*
X131670000Y-75755745D01*
X131744822Y-75881355D01*
X131939731Y-76097588D01*
X132173080Y-76271641D01*
X132435901Y-76396825D01*
X132583110Y-76441476D01*
X132813000Y-76320155D01*
X132813000Y-75127000D01*
X133067000Y-75127000D01*
X133067000Y-76320155D01*
X133296890Y-76441476D01*
X133444099Y-76396825D01*
X133706920Y-76271641D01*
X133940269Y-76097588D01*
X134135178Y-75881355D01*
X134153855Y-75850000D01*
X136011928Y-75850000D01*
X136024188Y-75974482D01*
X136060498Y-76094180D01*
X136119463Y-76204494D01*
X136198815Y-76301185D01*
X136295506Y-76380537D01*
X136405820Y-76439502D01*
X136525518Y-76475812D01*
X136650000Y-76488072D01*
X137214250Y-76485000D01*
X137373000Y-76326250D01*
X137373000Y-75127000D01*
X137627000Y-75127000D01*
X137627000Y-76326250D01*
X137785750Y-76485000D01*
X138350000Y-76488072D01*
X138474482Y-76475812D01*
X138594180Y-76439502D01*
X138704494Y-76380537D01*
X138801185Y-76301185D01*
X138880537Y-76204494D01*
X138939502Y-76094180D01*
X138963966Y-76013534D01*
X139039731Y-76097588D01*
X139273080Y-76271641D01*
X139535901Y-76396825D01*
X139683110Y-76441476D01*
X139913000Y-76320155D01*
X139913000Y-75127000D01*
X140167000Y-75127000D01*
X140167000Y-76320155D01*
X140396890Y-76441476D01*
X140544099Y-76396825D01*
X140806920Y-76271641D01*
X141040269Y-76097588D01*
X141235178Y-75881355D01*
X141310000Y-75755745D01*
X141384822Y-75881355D01*
X141579731Y-76097588D01*
X141813080Y-76271641D01*
X142075901Y-76396825D01*
X142223110Y-76441476D01*
X142453000Y-76320155D01*
X142453000Y-75127000D01*
X142707000Y-75127000D01*
X142707000Y-76320155D01*
X142936890Y-76441476D01*
X143084099Y-76396825D01*
X143346920Y-76271641D01*
X143580269Y-76097588D01*
X143775178Y-75881355D01*
X143850000Y-75755745D01*
X143924822Y-75881355D01*
X144119731Y-76097588D01*
X144353080Y-76271641D01*
X144615901Y-76396825D01*
X144763110Y-76441476D01*
X144993000Y-76320155D01*
X144993000Y-75127000D01*
X145247000Y-75127000D01*
X145247000Y-76320155D01*
X145476890Y-76441476D01*
X145624099Y-76396825D01*
X145886920Y-76271641D01*
X146120269Y-76097588D01*
X146315178Y-75881355D01*
X146464157Y-75631252D01*
X146561481Y-75356891D01*
X146440814Y-75127000D01*
X145247000Y-75127000D01*
X144993000Y-75127000D01*
X142707000Y-75127000D01*
X142453000Y-75127000D01*
X140167000Y-75127000D01*
X139913000Y-75127000D01*
X137627000Y-75127000D01*
X137373000Y-75127000D01*
X136173750Y-75127000D01*
X136015000Y-75285750D01*
X136011928Y-75850000D01*
X134153855Y-75850000D01*
X134284157Y-75631252D01*
X134381481Y-75356891D01*
X134260814Y-75127000D01*
X133067000Y-75127000D01*
X132813000Y-75127000D01*
X130527000Y-75127000D01*
X130273000Y-75127000D01*
X127987000Y-75127000D01*
X127733000Y-75127000D01*
X125447000Y-75127000D01*
X125193000Y-75127000D01*
X122907000Y-75127000D01*
X122653000Y-75127000D01*
X120367000Y-75127000D01*
X120113000Y-75127000D01*
X117827000Y-75127000D01*
X117573000Y-75127000D01*
X115287000Y-75127000D01*
X115033000Y-75127000D01*
X112747000Y-75127000D01*
X112493000Y-75127000D01*
X112473000Y-75127000D01*
X112473000Y-74873000D01*
X112493000Y-74873000D01*
X112493000Y-73679845D01*
X112747000Y-73679845D01*
X112747000Y-74873000D01*
X115033000Y-74873000D01*
X115033000Y-73679845D01*
X115287000Y-73679845D01*
X115287000Y-74873000D01*
X117573000Y-74873000D01*
X117573000Y-73679845D01*
X117827000Y-73679845D01*
X117827000Y-74873000D01*
X120113000Y-74873000D01*
X120113000Y-73679845D01*
X120367000Y-73679845D01*
X120367000Y-74873000D01*
X122653000Y-74873000D01*
X122653000Y-73679845D01*
X122907000Y-73679845D01*
X122907000Y-74873000D01*
X125193000Y-74873000D01*
X125193000Y-73679845D01*
X125447000Y-73679845D01*
X125447000Y-74873000D01*
X127733000Y-74873000D01*
X127733000Y-73679845D01*
X127987000Y-73679845D01*
X127987000Y-74873000D01*
X130273000Y-74873000D01*
X130273000Y-73679845D01*
X130527000Y-73679845D01*
X130527000Y-74873000D01*
X132813000Y-74873000D01*
X132813000Y-73679845D01*
X133067000Y-73679845D01*
X133067000Y-74873000D01*
X134260814Y-74873000D01*
X134381481Y-74643109D01*
X134284157Y-74368748D01*
X134153856Y-74150000D01*
X136011928Y-74150000D01*
X136015000Y-74714250D01*
X136173750Y-74873000D01*
X137373000Y-74873000D01*
X137373000Y-73673750D01*
X137627000Y-73673750D01*
X137627000Y-74873000D01*
X139913000Y-74873000D01*
X139913000Y-73679845D01*
X140167000Y-73679845D01*
X140167000Y-74873000D01*
X142453000Y-74873000D01*
X142453000Y-73679845D01*
X142707000Y-73679845D01*
X142707000Y-74873000D01*
X144993000Y-74873000D01*
X144993000Y-73679845D01*
X144763110Y-73558524D01*
X144615901Y-73603175D01*
X144353080Y-73728359D01*
X144119731Y-73902412D01*
X143924822Y-74118645D01*
X143850000Y-74244255D01*
X143775178Y-74118645D01*
X143580269Y-73902412D01*
X143346920Y-73728359D01*
X143084099Y-73603175D01*
X142936890Y-73558524D01*
X142707000Y-73679845D01*
X142453000Y-73679845D01*
X142223110Y-73558524D01*
X142075901Y-73603175D01*
X141813080Y-73728359D01*
X141579731Y-73902412D01*
X141384822Y-74118645D01*
X141310000Y-74244255D01*
X141235178Y-74118645D01*
X141040269Y-73902412D01*
X140806920Y-73728359D01*
X140544099Y-73603175D01*
X140396890Y-73558524D01*
X140167000Y-73679845D01*
X139913000Y-73679845D01*
X139683110Y-73558524D01*
X139535901Y-73603175D01*
X139273080Y-73728359D01*
X139039731Y-73902412D01*
X138963966Y-73986466D01*
X138939502Y-73905820D01*
X138880537Y-73795506D01*
X138801185Y-73698815D01*
X138704494Y-73619463D01*
X138594180Y-73560498D01*
X138474482Y-73524188D01*
X138350000Y-73511928D01*
X137785750Y-73515000D01*
X137627000Y-73673750D01*
X137373000Y-73673750D01*
X137214250Y-73515000D01*
X136650000Y-73511928D01*
X136525518Y-73524188D01*
X136405820Y-73560498D01*
X136295506Y-73619463D01*
X136198815Y-73698815D01*
X136119463Y-73795506D01*
X136060498Y-73905820D01*
X136024188Y-74025518D01*
X136011928Y-74150000D01*
X134153856Y-74150000D01*
X134135178Y-74118645D01*
X133940269Y-73902412D01*
X133706920Y-73728359D01*
X133444099Y-73603175D01*
X133296890Y-73558524D01*
X133067000Y-73679845D01*
X132813000Y-73679845D01*
X132583110Y-73558524D01*
X132435901Y-73603175D01*
X132173080Y-73728359D01*
X131939731Y-73902412D01*
X131744822Y-74118645D01*
X131670000Y-74244255D01*
X131595178Y-74118645D01*
X131400269Y-73902412D01*
X131166920Y-73728359D01*
X130904099Y-73603175D01*
X130756890Y-73558524D01*
X130527000Y-73679845D01*
X130273000Y-73679845D01*
X130043110Y-73558524D01*
X129895901Y-73603175D01*
X129633080Y-73728359D01*
X129399731Y-73902412D01*
X129204822Y-74118645D01*
X129130000Y-74244255D01*
X129055178Y-74118645D01*
X128860269Y-73902412D01*
X128626920Y-73728359D01*
X128364099Y-73603175D01*
X128216890Y-73558524D01*
X127987000Y-73679845D01*
X127733000Y-73679845D01*
X127503110Y-73558524D01*
X127355901Y-73603175D01*
X127093080Y-73728359D01*
X126859731Y-73902412D01*
X126664822Y-74118645D01*
X126590000Y-74244255D01*
X126515178Y-74118645D01*
X126320269Y-73902412D01*
X126086920Y-73728359D01*
X125824099Y-73603175D01*
X125676890Y-73558524D01*
X125447000Y-73679845D01*
X125193000Y-73679845D01*
X124963110Y-73558524D01*
X124815901Y-73603175D01*
X124553080Y-73728359D01*
X124319731Y-73902412D01*
X124124822Y-74118645D01*
X124050000Y-74244255D01*
X123975178Y-74118645D01*
X123780269Y-73902412D01*
X123546920Y-73728359D01*
X123284099Y-73603175D01*
X123136890Y-73558524D01*
X122907000Y-73679845D01*
X122653000Y-73679845D01*
X122423110Y-73558524D01*
X122275901Y-73603175D01*
X122013080Y-73728359D01*
X121779731Y-73902412D01*
X121584822Y-74118645D01*
X121510000Y-74244255D01*
X121435178Y-74118645D01*
X121240269Y-73902412D01*
X121006920Y-73728359D01*
X120744099Y-73603175D01*
X120596890Y-73558524D01*
X120367000Y-73679845D01*
X120113000Y-73679845D01*
X119883110Y-73558524D01*
X119735901Y-73603175D01*
X119473080Y-73728359D01*
X119239731Y-73902412D01*
X119044822Y-74118645D01*
X118970000Y-74244255D01*
X118895178Y-74118645D01*
X118700269Y-73902412D01*
X118466920Y-73728359D01*
X118204099Y-73603175D01*
X118056890Y-73558524D01*
X117827000Y-73679845D01*
X117573000Y-73679845D01*
X117343110Y-73558524D01*
X117195901Y-73603175D01*
X116933080Y-73728359D01*
X116699731Y-73902412D01*
X116504822Y-74118645D01*
X116430000Y-74244255D01*
X116355178Y-74118645D01*
X116160269Y-73902412D01*
X115926920Y-73728359D01*
X115664099Y-73603175D01*
X115516890Y-73558524D01*
X115287000Y-73679845D01*
X115033000Y-73679845D01*
X114803110Y-73558524D01*
X114655901Y-73603175D01*
X114393080Y-73728359D01*
X114159731Y-73902412D01*
X113964822Y-74118645D01*
X113890000Y-74244255D01*
X113815178Y-74118645D01*
X113620269Y-73902412D01*
X113386920Y-73728359D01*
X113124099Y-73603175D01*
X112976890Y-73558524D01*
X112747000Y-73679845D01*
X112493000Y-73679845D01*
X112263110Y-73558524D01*
X112115901Y-73603175D01*
X111853080Y-73728359D01*
X111619731Y-73902412D01*
X111424822Y-74118645D01*
X111355195Y-74235534D01*
X111233475Y-74053368D01*
X111026632Y-73846525D01*
X110783411Y-73684010D01*
X110513158Y-73572068D01*
X110226260Y-73515000D01*
X109933740Y-73515000D01*
X109646842Y-73572068D01*
X109376589Y-73684010D01*
X109133368Y-73846525D01*
X108926525Y-74053368D01*
X108810000Y-74227760D01*
X108693475Y-74053368D01*
X108486632Y-73846525D01*
X108243411Y-73684010D01*
X107973158Y-73572068D01*
X107686260Y-73515000D01*
X107393740Y-73515000D01*
X107106842Y-73572068D01*
X106836589Y-73684010D01*
X106593368Y-73846525D01*
X106461513Y-73978380D01*
X106439502Y-73905820D01*
X106380537Y-73795506D01*
X106301185Y-73698815D01*
X106204494Y-73619463D01*
X106094180Y-73560498D01*
X105974482Y-73524188D01*
X105850000Y-73511928D01*
X105285750Y-73515000D01*
X105127000Y-73673750D01*
X104873000Y-73673750D01*
X104714250Y-73515000D01*
X104150000Y-73511928D01*
X104025518Y-73524188D01*
X103905820Y-73560498D01*
X103795506Y-73619463D01*
X103698815Y-73698815D01*
X103619463Y-73795506D01*
X103560498Y-73905820D01*
X103524188Y-74025518D01*
X103511928Y-74150000D01*
X101631261Y-74150000D01*
X101632279Y-74148753D01*
X102134067Y-73733638D01*
X102706924Y-73423895D01*
X103329039Y-73231318D01*
X104007584Y-73160000D01*
X143967722Y-73160000D01*
X144648126Y-73226714D01*
G37*
%TD.AperFunction*%
%TD*%
M02*
