M48
; DRILL file {KiCad (5.1.9)-1} date 10/14/21 16:08:10
; FORMAT={-:-/ absolute / inch / decimal}
; #@! TF.CreationDate,2021-10-14T16:08:10-04:00
; #@! TF.GenerationSoftware,Kicad,Pcbnew,(5.1.9)-1
; #@! TF.FileFunction,Plated,1,2,PTH
FMAT,2
INCH
T1C0.0157
T2C0.0394
%
G90
G05
T1
X4.124Y-3.376
X4.124Y-3.8681
X4.1339Y-3.2874
X4.1535Y-3.9567
X4.1929Y-3.7402
X4.2126Y-3.2283
X4.2323Y-3.7008
X4.2323Y-3.7795
X4.252Y-3.5236
X4.252Y-3.5827
X4.252Y-3.6417
X4.252Y-3.8386
X4.252Y-3.8976
X4.252Y-3.9567
X4.252Y-4.2126
X4.2913Y-3.0709
X4.2913Y-3.1496
X4.2913Y-4.1339
X4.2953Y-3.5728
X4.3051Y-3.878
X4.3839Y-3.7697
X4.3937Y-3.6319
X4.4094Y-3.1496
X4.4193Y-3.0709
X4.4291Y-4.2421
X4.439Y-3.2185
X4.4488Y-3.6024
X4.4488Y-3.7402
X4.5079Y-3.1102
X4.5138Y-3.3888
X4.5145Y-4.0783
X4.5669Y-3.0512
X4.5669Y-3.7008
X4.5669Y-3.7598
X4.6201Y-4.0846
X4.6217Y-3.3941
X4.626Y-3.2283
X4.626Y-3.3071
X4.626Y-3.7205
X4.626Y-4.1535
X4.626Y-4.2323
X4.6398Y-3.7697
X4.6457Y-3.1102
X4.6594Y-3.6713
X4.7047Y-3.3071
X4.7047Y-3.7008
X4.7047Y-3.7795
X4.7087Y-3.4449
X4.7146Y-4.0354
X4.7244Y-3.5433
X4.7244Y-4.1535
X4.7244Y-4.2323
X4.748Y-3.3957
X4.7539Y-4.0748
X4.7835Y-3.7008
X4.7835Y-3.7598
X4.8031Y-3.2677
X4.8228Y-4.1535
X4.8622Y-3.7008
X4.8622Y-3.7598
X4.8917Y-3.2185
X4.9016Y-4.2717
X4.9213Y-3.7402
X4.9409Y-4.0748
X4.9449Y-3.4154
X4.9606Y-3.4843
X4.9606Y-3.563
X4.9606Y-3.6417
X4.9606Y-3.8386
X4.9606Y-3.9173
X4.9803Y-3.7402
X5.002Y-3.3996
X5.0138Y-4.065
X5.1575Y-3.4055
X5.1673Y-3.878
X5.1673Y-4.0846
X5.1772Y-3.6024
X5.3346Y-3.6417
X5.3346Y-3.7402
X5.3346Y-3.8386
X5.3543Y-3.563
X5.374Y-3.8976
X5.4331Y-3.563
X5.4331Y-3.8976
X5.4921Y-3.563
X5.4921Y-3.6417
X5.4921Y-3.8583
X5.4921Y-3.9173
X5.5118Y-3.7402
X5.5512Y-3.5827
X5.5512Y-3.8976
T2
X4.0354Y-3.1496
X4.0354Y-3.2496
X4.0354Y-3.3496
X4.0354Y-3.4496
X4.0354Y-3.6417
X4.0354Y-3.7417
X4.0354Y-3.8417
X4.0354Y-4.0354
X4.0354Y-4.1354
X4.0354Y-4.2354
X4.0354Y-4.3354
X4.1339Y-2.9528
X4.1339Y-4.5276
X4.2339Y-2.9528
X4.2339Y-4.5276
X4.3339Y-2.9528
X4.3339Y-4.5276
X4.4339Y-2.9528
X4.4339Y-4.5276
X4.5339Y-2.9528
X4.5339Y-4.5276
X4.6339Y-2.9528
X4.6339Y-4.5276
X4.7339Y-2.9528
X4.7339Y-4.5276
X4.8339Y-2.9528
X4.8339Y-4.5276
X4.9339Y-2.9528
X4.9339Y-4.5276
X5.0339Y-2.9528
X5.0339Y-4.5276
X5.1339Y-2.9528
X5.1339Y-4.5276
X5.2339Y-2.9528
X5.2339Y-4.5276
X5.4134Y-2.9528
X5.4134Y-4.5276
X5.5134Y-2.9528
X5.5134Y-4.5276
X5.6134Y-2.9528
X5.6134Y-4.5276
X5.7087Y-3.1402
X5.7087Y-3.2402
X5.7087Y-3.3402
X5.7087Y-3.4402
X5.7087Y-3.5402
X5.7087Y-3.6402
X5.7087Y-3.7402
X5.7087Y-3.8402
X5.7087Y-3.9402
X5.7087Y-4.0402
X5.7087Y-4.1402
X5.7087Y-4.2402
X5.7087Y-4.3402
X5.7134Y-2.9528
X5.7134Y-4.5276
T0
M30
