%TF.GenerationSoftware,KiCad,Pcbnew,(5.1.8)-1*%
%TF.CreationDate,2021-09-17T10:49:21-04:00*%
%TF.ProjectId,HallEffect_CalibrationCoil,48616c6c-4566-4666-9563-745f43616c69,rev?*%
%TF.SameCoordinates,Original*%
%TF.FileFunction,Copper,L2,Bot*%
%TF.FilePolarity,Positive*%
%FSLAX46Y46*%
G04 Gerber Fmt 4.6, Leading zero omitted, Abs format (unit mm)*
G04 Created by KiCad (PCBNEW (5.1.8)-1) date 2021-09-17 10:49:21*
%MOMM*%
%LPD*%
G01*
G04 APERTURE LIST*
%TA.AperFunction,ComponentPad*%
%ADD10O,0.850000X0.850000*%
%TD*%
%TA.AperFunction,ComponentPad*%
%ADD11R,0.850000X0.850000*%
%TD*%
%TA.AperFunction,ViaPad*%
%ADD12C,0.800000*%
%TD*%
%TA.AperFunction,Conductor*%
%ADD13C,0.200000*%
%TD*%
%TA.AperFunction,Conductor*%
%ADD14C,1.000000*%
%TD*%
%TA.AperFunction,Conductor*%
%ADD15C,0.250000*%
%TD*%
G04 APERTURE END LIST*
D10*
%TO.P,J1,3*%
%TO.N,GND*%
X173000000Y-81000000D03*
%TO.P,J1,2*%
%TO.N,Net-(C2-Pad1)*%
X173000000Y-80000000D03*
D11*
%TO.P,J1,1*%
%TO.N,+5V*%
X173000000Y-79000000D03*
%TD*%
%TO.P,C2,2*%
%TO.N,GND*%
%TA.AperFunction,SMDPad,CuDef*%
G36*
G01*
X171760000Y-79545000D02*
X171260000Y-79545000D01*
G75*
G02*
X171035000Y-79320000I0J225000D01*
G01*
X171035000Y-78870000D01*
G75*
G02*
X171260000Y-78645000I225000J0D01*
G01*
X171760000Y-78645000D01*
G75*
G02*
X171985000Y-78870000I0J-225000D01*
G01*
X171985000Y-79320000D01*
G75*
G02*
X171760000Y-79545000I-225000J0D01*
G01*
G37*
%TD.AperFunction*%
%TO.P,C2,1*%
%TO.N,Net-(C2-Pad1)*%
%TA.AperFunction,SMDPad,CuDef*%
G36*
G01*
X171760000Y-81095000D02*
X171260000Y-81095000D01*
G75*
G02*
X171035000Y-80870000I0J225000D01*
G01*
X171035000Y-80420000D01*
G75*
G02*
X171260000Y-80195000I225000J0D01*
G01*
X171760000Y-80195000D01*
G75*
G02*
X171985000Y-80420000I0J-225000D01*
G01*
X171985000Y-80870000D01*
G75*
G02*
X171760000Y-81095000I-225000J0D01*
G01*
G37*
%TD.AperFunction*%
%TD*%
%TO.P,C1,2*%
%TO.N,GND*%
%TA.AperFunction,SMDPad,CuDef*%
G36*
G01*
X169990000Y-80195000D02*
X170490000Y-80195000D01*
G75*
G02*
X170715000Y-80420000I0J-225000D01*
G01*
X170715000Y-80870000D01*
G75*
G02*
X170490000Y-81095000I-225000J0D01*
G01*
X169990000Y-81095000D01*
G75*
G02*
X169765000Y-80870000I0J225000D01*
G01*
X169765000Y-80420000D01*
G75*
G02*
X169990000Y-80195000I225000J0D01*
G01*
G37*
%TD.AperFunction*%
%TO.P,C1,1*%
%TO.N,+5V*%
%TA.AperFunction,SMDPad,CuDef*%
G36*
G01*
X169990000Y-78645000D02*
X170490000Y-78645000D01*
G75*
G02*
X170715000Y-78870000I0J-225000D01*
G01*
X170715000Y-79320000D01*
G75*
G02*
X170490000Y-79545000I-225000J0D01*
G01*
X169990000Y-79545000D01*
G75*
G02*
X169765000Y-79320000I0J225000D01*
G01*
X169765000Y-78870000D01*
G75*
G02*
X169990000Y-78645000I225000J0D01*
G01*
G37*
%TD.AperFunction*%
%TD*%
D12*
%TO.N,*%
X179400000Y-80000000D03*
%TO.N,GND*%
X171510000Y-79425000D03*
%TO.N,+5V*%
X170240000Y-79095000D03*
%TD*%
D13*
%TO.N,*%
X181000000Y-75000000D02*
X161000000Y-75000000D01*
X161000000Y-75000000D02*
X161000000Y-85000000D01*
X161000000Y-85000000D02*
X181000000Y-85000000D01*
X181000000Y-85000000D02*
X181000000Y-75400000D01*
X181000000Y-75400000D02*
X161400000Y-75400000D01*
X161400000Y-75400000D02*
X161400000Y-84600000D01*
X161400000Y-84600000D02*
X180600000Y-84600000D01*
X180600000Y-84600000D02*
X180600000Y-75800000D01*
X180600000Y-75800000D02*
X161800000Y-75800000D01*
X161800000Y-75800000D02*
X161800000Y-84200000D01*
X161800000Y-84200000D02*
X180200000Y-84200000D01*
X180200000Y-84200000D02*
X180200000Y-76200000D01*
X180200000Y-76200000D02*
X162200000Y-76200000D01*
X162200000Y-76200000D02*
X162200000Y-83800000D01*
X162200000Y-83800000D02*
X179800000Y-83800000D01*
X179800000Y-80400000D02*
X179400000Y-80000000D01*
X179800000Y-83800000D02*
X179800000Y-80400000D01*
X181000000Y-75000000D02*
X181400000Y-75000000D01*
X181400000Y-75000000D02*
X181400000Y-79600000D01*
X181400000Y-79600000D02*
X181400000Y-80000000D01*
D14*
X184000000Y-80000000D02*
X182200000Y-80000000D01*
D13*
X181400000Y-80000000D02*
X182200000Y-80000000D01*
D15*
%TO.N,GND*%
X170240000Y-80365000D02*
X171510000Y-79095000D01*
X170240000Y-80645000D02*
X170240000Y-80365000D01*
X170240000Y-80645000D02*
X169855197Y-80645000D01*
X170240000Y-80645000D02*
X171015010Y-81420010D01*
X171015010Y-81420010D02*
X173004990Y-81420010D01*
X173000000Y-81415020D02*
X173004990Y-81420010D01*
X173000000Y-81000000D02*
X173000000Y-81415020D01*
%TO.N,Net-(C2-Pad1)*%
X171510000Y-80645000D02*
X172145000Y-80010000D01*
X172155000Y-80000000D02*
X172145000Y-80010000D01*
X173000000Y-80000000D02*
X172155000Y-80000000D01*
%TD*%
M02*
