%TF.GenerationSoftware,KiCad,Pcbnew,(5.1.8)-1*%
%TF.CreationDate,2021-09-17T10:49:21-04:00*%
%TF.ProjectId,HallEffect_CalibrationCoil,48616c6c-4566-4666-9563-745f43616c69,rev?*%
%TF.SameCoordinates,Original*%
%TF.FileFunction,Copper,L1,Top*%
%TF.FilePolarity,Positive*%
%FSLAX46Y46*%
G04 Gerber Fmt 4.6, Leading zero omitted, Abs format (unit mm)*
G04 Created by KiCad (PCBNEW (5.1.8)-1) date 2021-09-17 10:49:21*
%MOMM*%
%LPD*%
G01*
G04 APERTURE LIST*
%TA.AperFunction,SMDPad,CuDef*%
%ADD10R,0.900000X0.800000*%
%TD*%
%TA.AperFunction,ComponentPad*%
%ADD11O,0.850000X0.850000*%
%TD*%
%TA.AperFunction,ComponentPad*%
%ADD12R,0.850000X0.850000*%
%TD*%
%TA.AperFunction,ViaPad*%
%ADD13C,0.800000*%
%TD*%
%TA.AperFunction,Conductor*%
%ADD14C,0.200000*%
%TD*%
%TA.AperFunction,Conductor*%
%ADD15C,0.250000*%
%TD*%
%TA.AperFunction,Conductor*%
%ADD16C,1.000000*%
%TD*%
G04 APERTURE END LIST*
D10*
%TO.P,U1,3*%
%TO.N,GND*%
X171780001Y-79880001D03*
%TO.P,U1,2*%
%TO.N,Net-(C2-Pad1)*%
X169780001Y-80830001D03*
%TO.P,U1,1*%
%TO.N,+5V*%
X169780001Y-78930001D03*
%TD*%
D11*
%TO.P,J1,3*%
%TO.N,GND*%
X173000000Y-81000000D03*
%TO.P,J1,2*%
%TO.N,Net-(C2-Pad1)*%
X173000000Y-80000000D03*
D12*
%TO.P,J1,1*%
%TO.N,+5V*%
X173000000Y-79000000D03*
%TD*%
D13*
%TO.N,*%
X179400000Y-80000000D03*
%TO.N,GND*%
X171510000Y-79425000D03*
%TO.N,+5V*%
X170240000Y-79095000D03*
%TD*%
D14*
%TO.N,*%
X179400000Y-80000000D02*
X179800000Y-79600000D01*
X179800000Y-79600000D02*
X179800000Y-76200000D01*
X179800000Y-76200000D02*
X162200000Y-76200000D01*
X162200000Y-76200000D02*
X162200000Y-83800000D01*
X162200000Y-83800000D02*
X179800000Y-83800000D01*
X179800000Y-83800000D02*
X179800000Y-80600000D01*
X179800000Y-80600000D02*
X179800000Y-80400000D01*
X179800000Y-80400000D02*
X180200000Y-80000000D01*
X180200000Y-80000000D02*
X180200000Y-75800000D01*
X180200000Y-75800000D02*
X161800000Y-75800000D01*
X161800000Y-75800000D02*
X161800000Y-84200000D01*
X161800000Y-84200000D02*
X180200000Y-84200000D01*
X180200000Y-84200000D02*
X180200000Y-80600000D01*
X180200000Y-80600000D02*
X180200000Y-80400000D01*
X180200000Y-80400000D02*
X180600000Y-80000000D01*
X180600000Y-80000000D02*
X180600000Y-75400000D01*
X180600000Y-75400000D02*
X161400000Y-75400000D01*
X161400000Y-75400000D02*
X161400000Y-84600000D01*
X161400000Y-84600000D02*
X180600000Y-84600000D01*
X180600000Y-84600000D02*
X180600000Y-80600000D01*
X180600000Y-80600000D02*
X181000000Y-80200000D01*
X181000000Y-80200000D02*
X181000000Y-75000000D01*
X181000000Y-75000000D02*
X161000000Y-75000000D01*
X161000000Y-75000000D02*
X161000000Y-85000000D01*
X161000000Y-85000000D02*
X181000000Y-85000000D01*
X181000000Y-85000000D02*
X181000000Y-80800000D01*
X181000000Y-80800000D02*
X181400000Y-80400000D01*
X181400000Y-80400000D02*
X181400000Y-80000000D01*
D15*
%TO.N,GND*%
X171780001Y-79695001D02*
X171510000Y-79425000D01*
X171780001Y-79880001D02*
X171780001Y-79695001D01*
D14*
%TO.N,+5V*%
X181400000Y-80000000D02*
X184000000Y-80000000D01*
D16*
X184000000Y-80000000D02*
X182200010Y-80000000D01*
D15*
X170010002Y-78700000D02*
X169780001Y-78930001D01*
X173105000Y-78700000D02*
X170010002Y-78700000D01*
X170075001Y-78930001D02*
X170240000Y-79095000D01*
X169780001Y-78930001D02*
X170075001Y-78930001D01*
%TO.N,Net-(C2-Pad1)*%
X172265003Y-80830001D02*
X173085004Y-80010000D01*
X169780001Y-80830001D02*
X172265003Y-80830001D01*
%TD*%
M02*
