%TF.GenerationSoftware,KiCad,Pcbnew,(5.1.8)-1*%
%TF.CreationDate,2021-09-17T10:49:21-04:00*%
%TF.ProjectId,HallEffect_CalibrationCoil,48616c6c-4566-4666-9563-745f43616c69,rev?*%
%TF.SameCoordinates,Original*%
%TF.FileFunction,Legend,Top*%
%TF.FilePolarity,Positive*%
%FSLAX46Y46*%
G04 Gerber Fmt 4.6, Leading zero omitted, Abs format (unit mm)*
G04 Created by KiCad (PCBNEW (5.1.8)-1) date 2021-09-17 10:49:21*
%MOMM*%
%LPD*%
G01*
G04 APERTURE LIST*
%ADD10C,0.100000*%
%ADD11C,0.150000*%
%ADD12C,0.120000*%
G04 APERTURE END LIST*
D10*
X179120818Y-80825000D02*
X179044925Y-80784523D01*
X178923497Y-80784523D01*
X178797008Y-80825000D01*
X178705937Y-80905952D01*
X178655342Y-80986904D01*
X178594627Y-81148809D01*
X178579449Y-81270238D01*
X178599687Y-81432142D01*
X178630044Y-81513095D01*
X178700877Y-81594047D01*
X178817247Y-81634523D01*
X178898199Y-81634523D01*
X179024687Y-81594047D01*
X179070223Y-81553571D01*
X179105639Y-81270238D01*
X178943735Y-81270238D01*
X179424389Y-81634523D02*
X179530639Y-80784523D01*
X179910104Y-81634523D01*
X180016354Y-80784523D01*
X180314866Y-81634523D02*
X180421116Y-80784523D01*
X180623497Y-80784523D01*
X180739866Y-80825000D01*
X180810699Y-80905952D01*
X180841056Y-80986904D01*
X180861294Y-81148809D01*
X180846116Y-81270238D01*
X180785401Y-81432142D01*
X180734806Y-81513095D01*
X180643735Y-81594047D01*
X180517247Y-81634523D01*
X180314866Y-81634523D01*
X178667544Y-79534523D02*
X178844627Y-80384523D01*
X179234211Y-79534523D01*
X179679449Y-79534523D02*
X179841354Y-79534523D01*
X179917247Y-79575000D01*
X179988080Y-79655952D01*
X180008318Y-79817857D01*
X179972901Y-80101190D01*
X179912187Y-80263095D01*
X179821116Y-80344047D01*
X179735104Y-80384523D01*
X179573199Y-80384523D01*
X179497306Y-80344047D01*
X179426473Y-80263095D01*
X179406235Y-80101190D01*
X179441651Y-79817857D01*
X179502366Y-79655952D01*
X179593437Y-79575000D01*
X179679449Y-79534523D01*
X180736889Y-79817857D02*
X180666056Y-80384523D01*
X180372604Y-79817857D02*
X180316949Y-80263095D01*
X180347306Y-80344047D01*
X180423199Y-80384523D01*
X180544627Y-80384523D01*
X180630639Y-80344047D01*
X180676175Y-80303571D01*
X181020223Y-79817857D02*
X181344032Y-79817857D01*
X181177068Y-79534523D02*
X181085997Y-80263095D01*
X181116354Y-80344047D01*
X181192247Y-80384523D01*
X181273199Y-80384523D01*
X178479151Y-78810714D02*
X179126770Y-78810714D01*
X178762485Y-79134523D02*
X178843437Y-78486904D01*
X180002068Y-78284523D02*
X179597306Y-78284523D01*
X179506235Y-78689285D01*
X179551770Y-78648809D01*
X179637782Y-78608333D01*
X179840163Y-78608333D01*
X179916056Y-78648809D01*
X179951473Y-78689285D01*
X179981830Y-78770238D01*
X179956532Y-78972619D01*
X179905937Y-79053571D01*
X179860401Y-79094047D01*
X179774389Y-79134523D01*
X179572008Y-79134523D01*
X179496116Y-79094047D01*
X179460699Y-79053571D01*
D11*
X160845238Y-83829761D02*
X160988095Y-83877380D01*
X161226190Y-83877380D01*
X161321428Y-83829761D01*
X161369047Y-83782142D01*
X161416666Y-83686904D01*
X161416666Y-83591666D01*
X161369047Y-83496428D01*
X161321428Y-83448809D01*
X161226190Y-83401190D01*
X161035714Y-83353571D01*
X160940476Y-83305952D01*
X160892857Y-83258333D01*
X160845238Y-83163095D01*
X160845238Y-83067857D01*
X160892857Y-82972619D01*
X160940476Y-82925000D01*
X161035714Y-82877380D01*
X161273809Y-82877380D01*
X161416666Y-82925000D01*
X161797619Y-83829761D02*
X161940476Y-83877380D01*
X162178571Y-83877380D01*
X162273809Y-83829761D01*
X162321428Y-83782142D01*
X162369047Y-83686904D01*
X162369047Y-83591666D01*
X162321428Y-83496428D01*
X162273809Y-83448809D01*
X162178571Y-83401190D01*
X161988095Y-83353571D01*
X161892857Y-83305952D01*
X161845238Y-83258333D01*
X161797619Y-83163095D01*
X161797619Y-83067857D01*
X161845238Y-82972619D01*
X161892857Y-82925000D01*
X161988095Y-82877380D01*
X162226190Y-82877380D01*
X162369047Y-82925000D01*
X162702380Y-82877380D02*
X163321428Y-82877380D01*
X162988095Y-83258333D01*
X163130952Y-83258333D01*
X163226190Y-83305952D01*
X163273809Y-83353571D01*
X163321428Y-83448809D01*
X163321428Y-83686904D01*
X163273809Y-83782142D01*
X163226190Y-83829761D01*
X163130952Y-83877380D01*
X162845238Y-83877380D01*
X162750000Y-83829761D01*
X162702380Y-83782142D01*
X163797619Y-83877380D02*
X163988095Y-83877380D01*
X164083333Y-83829761D01*
X164130952Y-83782142D01*
X164226190Y-83639285D01*
X164273809Y-83448809D01*
X164273809Y-83067857D01*
X164226190Y-82972619D01*
X164178571Y-82925000D01*
X164083333Y-82877380D01*
X163892857Y-82877380D01*
X163797619Y-82925000D01*
X163750000Y-82972619D01*
X163702380Y-83067857D01*
X163702380Y-83305952D01*
X163750000Y-83401190D01*
X163797619Y-83448809D01*
X163892857Y-83496428D01*
X164083333Y-83496428D01*
X164178571Y-83448809D01*
X164226190Y-83401190D01*
X164273809Y-83305952D01*
X164702380Y-83353571D02*
X165035714Y-83353571D01*
X165178571Y-83877380D02*
X164702380Y-83877380D01*
X164702380Y-82877380D01*
X165178571Y-82877380D01*
X165464285Y-82877380D02*
X166035714Y-82877380D01*
X165750000Y-83877380D02*
X165750000Y-82877380D01*
X167416666Y-84258333D02*
X167369047Y-84210714D01*
X167273809Y-84067857D01*
X167226190Y-83972619D01*
X167178571Y-83829761D01*
X167130952Y-83591666D01*
X167130952Y-83401190D01*
X167178571Y-83163095D01*
X167226190Y-83020238D01*
X167273809Y-82925000D01*
X167369047Y-82782142D01*
X167416666Y-82734523D01*
X168321428Y-83877380D02*
X167750000Y-83877380D01*
X168035714Y-83877380D02*
X168035714Y-82877380D01*
X167940476Y-83020238D01*
X167845238Y-83115476D01*
X167750000Y-83163095D01*
X168750000Y-83782142D02*
X168797619Y-83829761D01*
X168750000Y-83877380D01*
X168702380Y-83829761D01*
X168750000Y-83782142D01*
X168750000Y-83877380D01*
X169654761Y-83210714D02*
X169654761Y-83877380D01*
X169416666Y-82829761D02*
X169178571Y-83544047D01*
X169797619Y-83544047D01*
X170178571Y-83877380D02*
X170178571Y-83210714D01*
X170178571Y-83305952D02*
X170226190Y-83258333D01*
X170321428Y-83210714D01*
X170464285Y-83210714D01*
X170559523Y-83258333D01*
X170607142Y-83353571D01*
X170607142Y-83877380D01*
X170607142Y-83353571D02*
X170654761Y-83258333D01*
X170750000Y-83210714D01*
X170892857Y-83210714D01*
X170988095Y-83258333D01*
X171035714Y-83353571D01*
X171035714Y-83877380D01*
X171369047Y-82877380D02*
X171702380Y-83877380D01*
X172035714Y-82877380D01*
X173083333Y-82829761D02*
X172226190Y-84115476D01*
X173940476Y-82925000D02*
X173845238Y-82877380D01*
X173702380Y-82877380D01*
X173559523Y-82925000D01*
X173464285Y-83020238D01*
X173416666Y-83115476D01*
X173369047Y-83305952D01*
X173369047Y-83448809D01*
X173416666Y-83639285D01*
X173464285Y-83734523D01*
X173559523Y-83829761D01*
X173702380Y-83877380D01*
X173797619Y-83877380D01*
X173940476Y-83829761D01*
X173988095Y-83782142D01*
X173988095Y-83448809D01*
X173797619Y-83448809D01*
X174321428Y-84258333D02*
X174369047Y-84210714D01*
X174464285Y-84067857D01*
X174511904Y-83972619D01*
X174559523Y-83829761D01*
X174607142Y-83591666D01*
X174607142Y-83401190D01*
X174559523Y-83163095D01*
X174511904Y-83020238D01*
X174464285Y-82925000D01*
X174369047Y-82782142D01*
X174321428Y-82734523D01*
X161369047Y-85527380D02*
X161369047Y-84527380D01*
X161369047Y-85003571D02*
X161940476Y-85003571D01*
X161940476Y-85527380D02*
X161940476Y-84527380D01*
X162845238Y-85527380D02*
X162845238Y-85003571D01*
X162797619Y-84908333D01*
X162702380Y-84860714D01*
X162511904Y-84860714D01*
X162416666Y-84908333D01*
X162845238Y-85479761D02*
X162750000Y-85527380D01*
X162511904Y-85527380D01*
X162416666Y-85479761D01*
X162369047Y-85384523D01*
X162369047Y-85289285D01*
X162416666Y-85194047D01*
X162511904Y-85146428D01*
X162750000Y-85146428D01*
X162845238Y-85098809D01*
X163464285Y-85527380D02*
X163369047Y-85479761D01*
X163321428Y-85384523D01*
X163321428Y-84527380D01*
X163988095Y-85527380D02*
X163892857Y-85479761D01*
X163845238Y-85384523D01*
X163845238Y-84527380D01*
X165130952Y-85003571D02*
X165464285Y-85003571D01*
X165607142Y-85527380D02*
X165130952Y-85527380D01*
X165130952Y-84527380D01*
X165607142Y-84527380D01*
X165892857Y-84860714D02*
X166273809Y-84860714D01*
X166035714Y-85527380D02*
X166035714Y-84670238D01*
X166083333Y-84575000D01*
X166178571Y-84527380D01*
X166273809Y-84527380D01*
X166464285Y-84860714D02*
X166845238Y-84860714D01*
X166607142Y-85527380D02*
X166607142Y-84670238D01*
X166654761Y-84575000D01*
X166750000Y-84527380D01*
X166845238Y-84527380D01*
X167559523Y-85479761D02*
X167464285Y-85527380D01*
X167273809Y-85527380D01*
X167178571Y-85479761D01*
X167130952Y-85384523D01*
X167130952Y-85003571D01*
X167178571Y-84908333D01*
X167273809Y-84860714D01*
X167464285Y-84860714D01*
X167559523Y-84908333D01*
X167607142Y-85003571D01*
X167607142Y-85098809D01*
X167130952Y-85194047D01*
X168464285Y-85479761D02*
X168369047Y-85527380D01*
X168178571Y-85527380D01*
X168083333Y-85479761D01*
X168035714Y-85432142D01*
X167988095Y-85336904D01*
X167988095Y-85051190D01*
X168035714Y-84955952D01*
X168083333Y-84908333D01*
X168178571Y-84860714D01*
X168369047Y-84860714D01*
X168464285Y-84908333D01*
X168750000Y-84860714D02*
X169130952Y-84860714D01*
X168892857Y-84527380D02*
X168892857Y-85384523D01*
X168940476Y-85479761D01*
X169035714Y-85527380D01*
X169130952Y-85527380D01*
X170797619Y-85527380D02*
X170464285Y-85051190D01*
X170226190Y-85527380D02*
X170226190Y-84527380D01*
X170607142Y-84527380D01*
X170702380Y-84575000D01*
X170750000Y-84622619D01*
X170797619Y-84717857D01*
X170797619Y-84860714D01*
X170750000Y-84955952D01*
X170702380Y-85003571D01*
X170607142Y-85051190D01*
X170226190Y-85051190D01*
X171607142Y-85479761D02*
X171511904Y-85527380D01*
X171321428Y-85527380D01*
X171226190Y-85479761D01*
X171178571Y-85384523D01*
X171178571Y-85003571D01*
X171226190Y-84908333D01*
X171321428Y-84860714D01*
X171511904Y-84860714D01*
X171607142Y-84908333D01*
X171654761Y-85003571D01*
X171654761Y-85098809D01*
X171178571Y-85194047D01*
X171988095Y-84860714D02*
X172226190Y-85527380D01*
X172464285Y-84860714D01*
X173940476Y-85003571D02*
X174083333Y-85051190D01*
X174130952Y-85098809D01*
X174178571Y-85194047D01*
X174178571Y-85336904D01*
X174130952Y-85432142D01*
X174083333Y-85479761D01*
X173988095Y-85527380D01*
X173607142Y-85527380D01*
X173607142Y-84527380D01*
X173940476Y-84527380D01*
X174035714Y-84575000D01*
X174083333Y-84622619D01*
X174130952Y-84717857D01*
X174130952Y-84813095D01*
X174083333Y-84908333D01*
X174035714Y-84955952D01*
X173940476Y-85003571D01*
X173607142Y-85003571D01*
D12*
%TO.C,U1*%
X171540001Y-81460001D02*
X171540001Y-80530001D01*
X171540001Y-78300001D02*
X171540001Y-79230001D01*
X171540001Y-78300001D02*
X169380001Y-78300001D01*
X171540001Y-81460001D02*
X170080001Y-81460001D01*
%TO.C,J1*%
X173685000Y-78440000D02*
X174310000Y-78440000D01*
X174310000Y-78440000D02*
X174310000Y-81560000D01*
X174310000Y-81560000D02*
X173394493Y-81560000D01*
X174310000Y-78790000D02*
X176310000Y-78790000D01*
X176310000Y-78790000D02*
X176310000Y-79210000D01*
X176310000Y-79210000D02*
X174310000Y-79210000D01*
X174310000Y-78850000D02*
X176310000Y-78850000D01*
X174310000Y-78970000D02*
X176310000Y-78970000D01*
X174310000Y-79090000D02*
X176310000Y-79090000D01*
X173685000Y-79500000D02*
X174310000Y-79500000D01*
X174310000Y-79790000D02*
X176310000Y-79790000D01*
X176310000Y-79790000D02*
X176310000Y-80210000D01*
X176310000Y-80210000D02*
X174310000Y-80210000D01*
X173468215Y-80500000D02*
X174310000Y-80500000D01*
X174310000Y-80790000D02*
X176310000Y-80790000D01*
X176310000Y-80790000D02*
X176310000Y-81210000D01*
X176310000Y-81210000D02*
X174310000Y-81210000D01*
X172315000Y-79000000D02*
X172315000Y-78315000D01*
X172315000Y-78315000D02*
X173000000Y-78315000D01*
%TO.C,U1*%
D11*
X166738095Y-76452380D02*
X166738095Y-77261904D01*
X166785714Y-77357142D01*
X166833333Y-77404761D01*
X166928571Y-77452380D01*
X167119047Y-77452380D01*
X167214285Y-77404761D01*
X167261904Y-77357142D01*
X167309523Y-77261904D01*
X167309523Y-76452380D01*
X168309523Y-77452380D02*
X167738095Y-77452380D01*
X168023809Y-77452380D02*
X168023809Y-76452380D01*
X167928571Y-76595238D01*
X167833333Y-76690476D01*
X167738095Y-76738095D01*
%TO.C,J1*%
X174666666Y-76452380D02*
X174666666Y-77166666D01*
X174619047Y-77309523D01*
X174523809Y-77404761D01*
X174380952Y-77452380D01*
X174285714Y-77452380D01*
X175666666Y-77452380D02*
X175095238Y-77452380D01*
X175380952Y-77452380D02*
X175380952Y-76452380D01*
X175285714Y-76595238D01*
X175190476Y-76690476D01*
X175095238Y-76738095D01*
%TD*%
M02*
