M48
; DRILL file {KiCad (5.1.9)-1} date 09/03/21 13:39:50
; FORMAT={-:-/ absolute / inch / decimal}
; #@! TF.CreationDate,2021-09-03T13:39:50-04:00
; #@! TF.GenerationSoftware,Kicad,Pcbnew,(5.1.9)-1
; #@! TF.FileFunction,Plated,1,2,PTH
FMAT,2
INCH
T1C0.0394
%
G90
G05
T1
X4.0354Y-3.1496
X4.0354Y-3.2496
X4.0354Y-3.3496
X4.0354Y-3.4496
X4.0354Y-3.6402
X4.0354Y-3.7402
X4.0354Y-3.8402
X4.0354Y-4.0354
X4.0354Y-4.1354
X4.0354Y-4.2354
X4.0354Y-4.3354
X4.1339Y-2.9528
X4.1339Y-4.5276
X4.2339Y-2.9528
X4.2339Y-4.5276
X4.3339Y-2.9528
X4.3339Y-4.5276
X4.4339Y-2.9528
X4.4339Y-4.5276
X4.5339Y-2.9528
X4.5339Y-4.5276
X4.6339Y-2.9528
X4.6339Y-4.5276
X4.7339Y-2.9528
X4.7339Y-4.5276
X4.8339Y-2.9528
X4.8339Y-4.5276
X4.9339Y-2.9528
X4.9339Y-4.5276
X5.0339Y-2.9528
X5.0339Y-4.5276
X5.1339Y-2.9528
X5.1339Y-4.5276
X5.2339Y-2.9528
X5.2339Y-4.5276
X5.4134Y-2.9528
X5.4134Y-4.5276
X5.5134Y-2.9528
X5.5134Y-4.5276
X5.6134Y-2.9528
X5.6134Y-4.5276
X5.7087Y-3.1402
X5.7087Y-3.2402
X5.7087Y-3.3402
X5.7087Y-3.4402
X5.7087Y-3.5402
X5.7087Y-3.6402
X5.7087Y-3.7402
X5.7087Y-3.8402
X5.7087Y-3.9402
X5.7087Y-4.0402
X5.7087Y-4.1402
X5.7087Y-4.2402
X5.7087Y-4.3402
X5.7134Y-2.9528
X5.7134Y-4.5276
T0
M30
