%TF.GenerationSoftware,KiCad,Pcbnew,(5.1.9)-1*%
%TF.CreationDate,2021-09-03T13:39:35-04:00*%
%TF.ProjectId,Preamp_Shield,50726561-6d70-45f5-9368-69656c642e6b,rev?*%
%TF.SameCoordinates,Original*%
%TF.FileFunction,Legend,Bot*%
%TF.FilePolarity,Positive*%
%FSLAX46Y46*%
G04 Gerber Fmt 4.6, Leading zero omitted, Abs format (unit mm)*
G04 Created by KiCad (PCBNEW (5.1.9)-1) date 2021-09-03 13:39:35*
%MOMM*%
%LPD*%
G01*
G04 APERTURE LIST*
%ADD10C,0.120000*%
%ADD11C,0.150000*%
G04 APERTURE END LIST*
D10*
%TO.C,C8*%
X105688748Y-78235000D02*
X106211252Y-78235000D01*
X105688748Y-76765000D02*
X106211252Y-76765000D01*
%TO.C,C6*%
X105738748Y-80235000D02*
X106261252Y-80235000D01*
X105738748Y-78765000D02*
X106261252Y-78765000D01*
%TO.C,C9*%
X111288748Y-76765000D02*
X111811252Y-76765000D01*
X111288748Y-78235000D02*
X111811252Y-78235000D01*
%TO.C,C7*%
X111288748Y-78765000D02*
X111811252Y-78765000D01*
X111288748Y-80235000D02*
X111811252Y-80235000D01*
%TO.C,C8*%
D11*
X108666666Y-77857142D02*
X108714285Y-77904761D01*
X108857142Y-77952380D01*
X108952380Y-77952380D01*
X109095238Y-77904761D01*
X109190476Y-77809523D01*
X109238095Y-77714285D01*
X109285714Y-77523809D01*
X109285714Y-77380952D01*
X109238095Y-77190476D01*
X109190476Y-77095238D01*
X109095238Y-77000000D01*
X108952380Y-76952380D01*
X108857142Y-76952380D01*
X108714285Y-77000000D01*
X108666666Y-77047619D01*
X108095238Y-77380952D02*
X108190476Y-77333333D01*
X108238095Y-77285714D01*
X108285714Y-77190476D01*
X108285714Y-77142857D01*
X108238095Y-77047619D01*
X108190476Y-77000000D01*
X108095238Y-76952380D01*
X107904761Y-76952380D01*
X107809523Y-77000000D01*
X107761904Y-77047619D01*
X107714285Y-77142857D01*
X107714285Y-77190476D01*
X107761904Y-77285714D01*
X107809523Y-77333333D01*
X107904761Y-77380952D01*
X108095238Y-77380952D01*
X108190476Y-77428571D01*
X108238095Y-77476190D01*
X108285714Y-77571428D01*
X108285714Y-77761904D01*
X108238095Y-77857142D01*
X108190476Y-77904761D01*
X108095238Y-77952380D01*
X107904761Y-77952380D01*
X107809523Y-77904761D01*
X107761904Y-77857142D01*
X107714285Y-77761904D01*
X107714285Y-77571428D01*
X107761904Y-77476190D01*
X107809523Y-77428571D01*
X107904761Y-77380952D01*
%TO.C,C6*%
X108616666Y-79857142D02*
X108664285Y-79904761D01*
X108807142Y-79952380D01*
X108902380Y-79952380D01*
X109045238Y-79904761D01*
X109140476Y-79809523D01*
X109188095Y-79714285D01*
X109235714Y-79523809D01*
X109235714Y-79380952D01*
X109188095Y-79190476D01*
X109140476Y-79095238D01*
X109045238Y-79000000D01*
X108902380Y-78952380D01*
X108807142Y-78952380D01*
X108664285Y-79000000D01*
X108616666Y-79047619D01*
X107759523Y-78952380D02*
X107950000Y-78952380D01*
X108045238Y-79000000D01*
X108092857Y-79047619D01*
X108188095Y-79190476D01*
X108235714Y-79380952D01*
X108235714Y-79761904D01*
X108188095Y-79857142D01*
X108140476Y-79904761D01*
X108045238Y-79952380D01*
X107854761Y-79952380D01*
X107759523Y-79904761D01*
X107711904Y-79857142D01*
X107664285Y-79761904D01*
X107664285Y-79523809D01*
X107711904Y-79428571D01*
X107759523Y-79380952D01*
X107854761Y-79333333D01*
X108045238Y-79333333D01*
X108140476Y-79380952D01*
X108188095Y-79428571D01*
X108235714Y-79523809D01*
%TO.C,C9*%
X114416666Y-77857142D02*
X114464285Y-77904761D01*
X114607142Y-77952380D01*
X114702380Y-77952380D01*
X114845238Y-77904761D01*
X114940476Y-77809523D01*
X114988095Y-77714285D01*
X115035714Y-77523809D01*
X115035714Y-77380952D01*
X114988095Y-77190476D01*
X114940476Y-77095238D01*
X114845238Y-77000000D01*
X114702380Y-76952380D01*
X114607142Y-76952380D01*
X114464285Y-77000000D01*
X114416666Y-77047619D01*
X113940476Y-77952380D02*
X113750000Y-77952380D01*
X113654761Y-77904761D01*
X113607142Y-77857142D01*
X113511904Y-77714285D01*
X113464285Y-77523809D01*
X113464285Y-77142857D01*
X113511904Y-77047619D01*
X113559523Y-77000000D01*
X113654761Y-76952380D01*
X113845238Y-76952380D01*
X113940476Y-77000000D01*
X113988095Y-77047619D01*
X114035714Y-77142857D01*
X114035714Y-77380952D01*
X113988095Y-77476190D01*
X113940476Y-77523809D01*
X113845238Y-77571428D01*
X113654761Y-77571428D01*
X113559523Y-77523809D01*
X113511904Y-77476190D01*
X113464285Y-77380952D01*
%TO.C,C7*%
X114666666Y-80107142D02*
X114714285Y-80154761D01*
X114857142Y-80202380D01*
X114952380Y-80202380D01*
X115095238Y-80154761D01*
X115190476Y-80059523D01*
X115238095Y-79964285D01*
X115285714Y-79773809D01*
X115285714Y-79630952D01*
X115238095Y-79440476D01*
X115190476Y-79345238D01*
X115095238Y-79250000D01*
X114952380Y-79202380D01*
X114857142Y-79202380D01*
X114714285Y-79250000D01*
X114666666Y-79297619D01*
X114333333Y-79202380D02*
X113666666Y-79202380D01*
X114095238Y-80202380D01*
%TD*%
M02*
