%TF.GenerationSoftware,KiCad,Pcbnew,(5.1.9)-1*%
%TF.CreationDate,2021-09-03T13:39:35-04:00*%
%TF.ProjectId,Preamp_Shield,50726561-6d70-45f5-9368-69656c642e6b,rev?*%
%TF.SameCoordinates,Original*%
%TF.FileFunction,Soldermask,Bot*%
%TF.FilePolarity,Negative*%
%FSLAX46Y46*%
G04 Gerber Fmt 4.6, Leading zero omitted, Abs format (unit mm)*
G04 Created by KiCad (PCBNEW (5.1.9)-1) date 2021-09-03 13:39:35*
%MOMM*%
%LPD*%
G01*
G04 APERTURE LIST*
%ADD10O,1.700000X1.700000*%
%ADD11R,1.700000X1.700000*%
G04 APERTURE END LIST*
%TO.C,C8*%
G36*
G01*
X106400000Y-77975000D02*
X106400000Y-77025000D01*
G75*
G02*
X106650000Y-76775000I250000J0D01*
G01*
X107150000Y-76775000D01*
G75*
G02*
X107400000Y-77025000I0J-250000D01*
G01*
X107400000Y-77975000D01*
G75*
G02*
X107150000Y-78225000I-250000J0D01*
G01*
X106650000Y-78225000D01*
G75*
G02*
X106400000Y-77975000I0J250000D01*
G01*
G37*
G36*
G01*
X104500000Y-77975000D02*
X104500000Y-77025000D01*
G75*
G02*
X104750000Y-76775000I250000J0D01*
G01*
X105250000Y-76775000D01*
G75*
G02*
X105500000Y-77025000I0J-250000D01*
G01*
X105500000Y-77975000D01*
G75*
G02*
X105250000Y-78225000I-250000J0D01*
G01*
X104750000Y-78225000D01*
G75*
G02*
X104500000Y-77975000I0J250000D01*
G01*
G37*
%TD*%
%TO.C,C6*%
G36*
G01*
X106450000Y-79975000D02*
X106450000Y-79025000D01*
G75*
G02*
X106700000Y-78775000I250000J0D01*
G01*
X107200000Y-78775000D01*
G75*
G02*
X107450000Y-79025000I0J-250000D01*
G01*
X107450000Y-79975000D01*
G75*
G02*
X107200000Y-80225000I-250000J0D01*
G01*
X106700000Y-80225000D01*
G75*
G02*
X106450000Y-79975000I0J250000D01*
G01*
G37*
G36*
G01*
X104550000Y-79975000D02*
X104550000Y-79025000D01*
G75*
G02*
X104800000Y-78775000I250000J0D01*
G01*
X105300000Y-78775000D01*
G75*
G02*
X105550000Y-79025000I0J-250000D01*
G01*
X105550000Y-79975000D01*
G75*
G02*
X105300000Y-80225000I-250000J0D01*
G01*
X104800000Y-80225000D01*
G75*
G02*
X104550000Y-79975000I0J250000D01*
G01*
G37*
%TD*%
D10*
%TO.C,J6*%
X145000000Y-110240000D03*
X145000000Y-107700000D03*
X145000000Y-105160000D03*
X145000000Y-102620000D03*
X145000000Y-100080000D03*
X145000000Y-97540000D03*
X145000000Y-95000000D03*
X145000000Y-92460000D03*
X145000000Y-89920000D03*
X145000000Y-87380000D03*
X145000000Y-84840000D03*
X145000000Y-82300000D03*
D11*
X145000000Y-79760000D03*
%TD*%
%TO.C,C9*%
G36*
G01*
X112000000Y-77975000D02*
X112000000Y-77025000D01*
G75*
G02*
X112250000Y-76775000I250000J0D01*
G01*
X112750000Y-76775000D01*
G75*
G02*
X113000000Y-77025000I0J-250000D01*
G01*
X113000000Y-77975000D01*
G75*
G02*
X112750000Y-78225000I-250000J0D01*
G01*
X112250000Y-78225000D01*
G75*
G02*
X112000000Y-77975000I0J250000D01*
G01*
G37*
G36*
G01*
X110100000Y-77975000D02*
X110100000Y-77025000D01*
G75*
G02*
X110350000Y-76775000I250000J0D01*
G01*
X110850000Y-76775000D01*
G75*
G02*
X111100000Y-77025000I0J-250000D01*
G01*
X111100000Y-77975000D01*
G75*
G02*
X110850000Y-78225000I-250000J0D01*
G01*
X110350000Y-78225000D01*
G75*
G02*
X110100000Y-77975000I0J250000D01*
G01*
G37*
%TD*%
%TO.C,C7*%
G36*
G01*
X112000000Y-79975000D02*
X112000000Y-79025000D01*
G75*
G02*
X112250000Y-78775000I250000J0D01*
G01*
X112750000Y-78775000D01*
G75*
G02*
X113000000Y-79025000I0J-250000D01*
G01*
X113000000Y-79975000D01*
G75*
G02*
X112750000Y-80225000I-250000J0D01*
G01*
X112250000Y-80225000D01*
G75*
G02*
X112000000Y-79975000I0J250000D01*
G01*
G37*
G36*
G01*
X110100000Y-79975000D02*
X110100000Y-79025000D01*
G75*
G02*
X110350000Y-78775000I250000J0D01*
G01*
X110850000Y-78775000D01*
G75*
G02*
X111100000Y-79025000I0J-250000D01*
G01*
X111100000Y-79975000D01*
G75*
G02*
X110850000Y-80225000I-250000J0D01*
G01*
X110350000Y-80225000D01*
G75*
G02*
X110100000Y-79975000I0J250000D01*
G01*
G37*
%TD*%
D10*
%TO.C,J8*%
X132940000Y-75000000D03*
X130400000Y-75000000D03*
X127860000Y-75000000D03*
X125320000Y-75000000D03*
X122780000Y-75000000D03*
X120240000Y-75000000D03*
X117700000Y-75000000D03*
X115160000Y-75000000D03*
X112620000Y-75000000D03*
X110080000Y-75000000D03*
X107540000Y-75000000D03*
D11*
X105000000Y-75000000D03*
%TD*%
D10*
%TO.C,J7*%
X132940000Y-115000000D03*
X130400000Y-115000000D03*
X127860000Y-115000000D03*
X125320000Y-115000000D03*
X122780000Y-115000000D03*
X120240000Y-115000000D03*
X117700000Y-115000000D03*
X115160000Y-115000000D03*
X112620000Y-115000000D03*
X110080000Y-115000000D03*
X107540000Y-115000000D03*
D11*
X105000000Y-115000000D03*
%TD*%
D10*
%TO.C,J5*%
X102500000Y-92460000D03*
X102500000Y-95000000D03*
D11*
X102500000Y-97540000D03*
%TD*%
D10*
%TO.C,J4*%
X102500000Y-110120000D03*
X102500000Y-107580000D03*
X102500000Y-105040000D03*
D11*
X102500000Y-102500000D03*
%TD*%
D10*
%TO.C,J3*%
X102500000Y-87620000D03*
X102500000Y-85080000D03*
X102500000Y-82540000D03*
D11*
X102500000Y-80000000D03*
%TD*%
D10*
%TO.C,J2*%
X145120000Y-115000000D03*
X142580000Y-115000000D03*
X140040000Y-115000000D03*
D11*
X137500000Y-115000000D03*
%TD*%
D10*
%TO.C,J1*%
X145120000Y-75000000D03*
X142580000Y-75000000D03*
X140040000Y-75000000D03*
D11*
X137500000Y-75000000D03*
%TD*%
M02*
