%TF.GenerationSoftware,KiCad,Pcbnew,(5.1.9)-1*%
%TF.CreationDate,2021-09-03T13:39:34-04:00*%
%TF.ProjectId,Preamp_Shield,50726561-6d70-45f5-9368-69656c642e6b,rev?*%
%TF.SameCoordinates,Original*%
%TF.FileFunction,Copper,L1,Top*%
%TF.FilePolarity,Positive*%
%FSLAX46Y46*%
G04 Gerber Fmt 4.6, Leading zero omitted, Abs format (unit mm)*
G04 Created by KiCad (PCBNEW (5.1.9)-1) date 2021-09-03 13:39:34*
%MOMM*%
%LPD*%
G01*
G04 APERTURE LIST*
%TA.AperFunction,ComponentPad*%
%ADD10O,1.700000X1.700000*%
%TD*%
%TA.AperFunction,ComponentPad*%
%ADD11R,1.700000X1.700000*%
%TD*%
%TA.AperFunction,Conductor*%
%ADD12C,1.000000*%
%TD*%
%TA.AperFunction,Conductor*%
%ADD13C,0.254000*%
%TD*%
%TA.AperFunction,Conductor*%
%ADD14C,0.100000*%
%TD*%
G04 APERTURE END LIST*
D10*
%TO.P,J6,13*%
%TO.N,GND*%
X145000000Y-110240000D03*
%TO.P,J6,12*%
X145000000Y-107700000D03*
%TO.P,J6,11*%
X145000000Y-105160000D03*
%TO.P,J6,10*%
X145000000Y-102620000D03*
%TO.P,J6,9*%
X145000000Y-100080000D03*
%TO.P,J6,8*%
X145000000Y-97540000D03*
%TO.P,J6,7*%
%TO.N,Vout*%
X145000000Y-95000000D03*
%TO.P,J6,6*%
%TO.N,GND*%
X145000000Y-92460000D03*
%TO.P,J6,5*%
X145000000Y-89920000D03*
%TO.P,J6,4*%
X145000000Y-87380000D03*
%TO.P,J6,3*%
X145000000Y-84840000D03*
%TO.P,J6,2*%
X145000000Y-82300000D03*
D11*
%TO.P,J6,1*%
X145000000Y-79760000D03*
%TD*%
%TO.P,C5,2*%
%TO.N,GND*%
%TA.AperFunction,SMDPad,CuDef*%
G36*
G01*
X111950000Y-77975000D02*
X111950000Y-77025000D01*
G75*
G02*
X112200000Y-76775000I250000J0D01*
G01*
X112700000Y-76775000D01*
G75*
G02*
X112950000Y-77025000I0J-250000D01*
G01*
X112950000Y-77975000D01*
G75*
G02*
X112700000Y-78225000I-250000J0D01*
G01*
X112200000Y-78225000D01*
G75*
G02*
X111950000Y-77975000I0J250000D01*
G01*
G37*
%TD.AperFunction*%
%TO.P,C5,1*%
%TO.N,-5V*%
%TA.AperFunction,SMDPad,CuDef*%
G36*
G01*
X110050000Y-77975000D02*
X110050000Y-77025000D01*
G75*
G02*
X110300000Y-76775000I250000J0D01*
G01*
X110800000Y-76775000D01*
G75*
G02*
X111050000Y-77025000I0J-250000D01*
G01*
X111050000Y-77975000D01*
G75*
G02*
X110800000Y-78225000I-250000J0D01*
G01*
X110300000Y-78225000D01*
G75*
G02*
X110050000Y-77975000I0J250000D01*
G01*
G37*
%TD.AperFunction*%
%TD*%
%TO.P,C4,2*%
%TO.N,+5V*%
%TA.AperFunction,SMDPad,CuDef*%
G36*
G01*
X106400000Y-77975000D02*
X106400000Y-77025000D01*
G75*
G02*
X106650000Y-76775000I250000J0D01*
G01*
X107150000Y-76775000D01*
G75*
G02*
X107400000Y-77025000I0J-250000D01*
G01*
X107400000Y-77975000D01*
G75*
G02*
X107150000Y-78225000I-250000J0D01*
G01*
X106650000Y-78225000D01*
G75*
G02*
X106400000Y-77975000I0J250000D01*
G01*
G37*
%TD.AperFunction*%
%TO.P,C4,1*%
%TO.N,GND*%
%TA.AperFunction,SMDPad,CuDef*%
G36*
G01*
X104500000Y-77975000D02*
X104500000Y-77025000D01*
G75*
G02*
X104750000Y-76775000I250000J0D01*
G01*
X105250000Y-76775000D01*
G75*
G02*
X105500000Y-77025000I0J-250000D01*
G01*
X105500000Y-77975000D01*
G75*
G02*
X105250000Y-78225000I-250000J0D01*
G01*
X104750000Y-78225000D01*
G75*
G02*
X104500000Y-77975000I0J250000D01*
G01*
G37*
%TD.AperFunction*%
%TD*%
D10*
%TO.P,J8,12*%
%TO.N,GND*%
X132940000Y-75000000D03*
%TO.P,J8,11*%
X130400000Y-75000000D03*
%TO.P,J8,10*%
X127860000Y-75000000D03*
%TO.P,J8,9*%
X125320000Y-75000000D03*
%TO.P,J8,8*%
X122780000Y-75000000D03*
%TO.P,J8,7*%
X120240000Y-75000000D03*
%TO.P,J8,6*%
X117700000Y-75000000D03*
%TO.P,J8,5*%
X115160000Y-75000000D03*
%TO.P,J8,4*%
X112620000Y-75000000D03*
%TO.P,J8,3*%
%TO.N,-5V*%
X110080000Y-75000000D03*
%TO.P,J8,2*%
%TO.N,+5V*%
X107540000Y-75000000D03*
D11*
%TO.P,J8,1*%
%TO.N,GND*%
X105000000Y-75000000D03*
%TD*%
D10*
%TO.P,J7,12*%
%TO.N,GND*%
X132940000Y-115000000D03*
%TO.P,J7,11*%
X130400000Y-115000000D03*
%TO.P,J7,10*%
X127860000Y-115000000D03*
%TO.P,J7,9*%
X125320000Y-115000000D03*
%TO.P,J7,8*%
X122780000Y-115000000D03*
%TO.P,J7,7*%
X120240000Y-115000000D03*
%TO.P,J7,6*%
X117700000Y-115000000D03*
%TO.P,J7,5*%
X115160000Y-115000000D03*
%TO.P,J7,4*%
X112620000Y-115000000D03*
%TO.P,J7,3*%
X110080000Y-115000000D03*
%TO.P,J7,2*%
X107540000Y-115000000D03*
D11*
%TO.P,J7,1*%
X105000000Y-115000000D03*
%TD*%
D10*
%TO.P,J5,3*%
%TO.N,GND*%
X102500000Y-92460000D03*
%TO.P,J5,2*%
%TO.N,Vin-DC*%
X102500000Y-95000000D03*
D11*
%TO.P,J5,1*%
%TO.N,GND*%
X102500000Y-97540000D03*
%TD*%
D10*
%TO.P,J4,4*%
%TO.N,GND*%
X102500000Y-110120000D03*
%TO.P,J4,3*%
X102500000Y-107580000D03*
%TO.P,J4,2*%
X102500000Y-105040000D03*
D11*
%TO.P,J4,1*%
X102500000Y-102500000D03*
%TD*%
D10*
%TO.P,J3,4*%
%TO.N,GND*%
X102500000Y-87620000D03*
%TO.P,J3,3*%
X102500000Y-85080000D03*
%TO.P,J3,2*%
X102500000Y-82540000D03*
D11*
%TO.P,J3,1*%
X102500000Y-80000000D03*
%TD*%
D10*
%TO.P,J2,4*%
%TO.N,GND*%
X145120000Y-115000000D03*
%TO.P,J2,3*%
X142580000Y-115000000D03*
%TO.P,J2,2*%
X140040000Y-115000000D03*
D11*
%TO.P,J2,1*%
X137500000Y-115000000D03*
%TD*%
D10*
%TO.P,J1,4*%
%TO.N,GND*%
X145120000Y-75000000D03*
%TO.P,J1,3*%
X142580000Y-75000000D03*
%TO.P,J1,2*%
X140040000Y-75000000D03*
D11*
%TO.P,J1,1*%
X137500000Y-75000000D03*
%TD*%
D12*
%TO.N,+5V*%
X107540000Y-76860000D02*
X106900000Y-77500000D01*
X107540000Y-75000000D02*
X107540000Y-76860000D01*
%TO.N,GND*%
X105000000Y-115000000D02*
X145120000Y-115000000D01*
X145120000Y-97660000D02*
X145000000Y-97540000D01*
X145120000Y-115000000D02*
X145120000Y-97660000D01*
X145000000Y-92460000D02*
X145000000Y-79760000D01*
X145000000Y-75120000D02*
X145120000Y-75000000D01*
X145000000Y-79760000D02*
X145000000Y-75120000D01*
X145120000Y-75000000D02*
X112620000Y-75000000D01*
X105000000Y-75000000D02*
X103250000Y-75000000D01*
X102500000Y-75750000D02*
X102500000Y-80000000D01*
X103250000Y-75000000D02*
X102500000Y-75750000D01*
X102500000Y-80000000D02*
X102500000Y-92460000D01*
X102500000Y-97540000D02*
X102500000Y-110120000D01*
X102500000Y-112500000D02*
X105000000Y-115000000D01*
X102500000Y-110120000D02*
X102500000Y-112500000D01*
X112450000Y-75170000D02*
X112620000Y-75000000D01*
X112450000Y-77500000D02*
X112450000Y-75170000D01*
X105100000Y-75100000D02*
X105000000Y-75000000D01*
X107500000Y-114960000D02*
X107540000Y-115000000D01*
%TO.N,-5V*%
X110080000Y-77030000D02*
X110550000Y-77500000D01*
X110080000Y-75000000D02*
X110080000Y-77030000D01*
%TD*%
D13*
%TO.N,GND*%
X143268083Y-73231173D02*
X144011891Y-73434656D01*
X144490462Y-73662923D01*
X144353080Y-73728359D01*
X144119731Y-73902412D01*
X143924822Y-74118645D01*
X143850000Y-74244255D01*
X143775178Y-74118645D01*
X143580269Y-73902412D01*
X143346920Y-73728359D01*
X143084099Y-73603175D01*
X142936890Y-73558524D01*
X142707000Y-73679845D01*
X142707000Y-74873000D01*
X144993000Y-74873000D01*
X144993000Y-74853000D01*
X145247000Y-74853000D01*
X145247000Y-74873000D01*
X145267000Y-74873000D01*
X145267000Y-75127000D01*
X145247000Y-75127000D01*
X145247000Y-76320155D01*
X145476890Y-76441476D01*
X145624099Y-76396825D01*
X145886920Y-76271641D01*
X146120269Y-76097588D01*
X146315178Y-75881355D01*
X146425951Y-75695391D01*
X146610829Y-76116553D01*
X146792065Y-76871457D01*
X146840000Y-77524207D01*
X146840001Y-112470597D01*
X146768827Y-113268083D01*
X146565344Y-114011890D01*
X146425826Y-114304398D01*
X146315178Y-114118645D01*
X146120269Y-113902412D01*
X145886920Y-113728359D01*
X145624099Y-113603175D01*
X145476890Y-113558524D01*
X145247000Y-113679845D01*
X145247000Y-114873000D01*
X145267000Y-114873000D01*
X145267000Y-115127000D01*
X145247000Y-115127000D01*
X145247000Y-115147000D01*
X144993000Y-115147000D01*
X144993000Y-115127000D01*
X142707000Y-115127000D01*
X142707000Y-116320155D01*
X142936890Y-116441476D01*
X143084099Y-116396825D01*
X143346920Y-116271641D01*
X143580269Y-116097588D01*
X143775178Y-115881355D01*
X143850000Y-115755745D01*
X143924822Y-115881355D01*
X144119731Y-116097588D01*
X144353080Y-116271641D01*
X144498427Y-116340871D01*
X143883447Y-116610829D01*
X143128543Y-116792065D01*
X142475793Y-116840000D01*
X105029392Y-116840000D01*
X104231917Y-116768827D01*
X103488110Y-116565344D01*
X102792096Y-116233363D01*
X102258590Y-115850000D01*
X103511928Y-115850000D01*
X103524188Y-115974482D01*
X103560498Y-116094180D01*
X103619463Y-116204494D01*
X103698815Y-116301185D01*
X103795506Y-116380537D01*
X103905820Y-116439502D01*
X104025518Y-116475812D01*
X104150000Y-116488072D01*
X104714250Y-116485000D01*
X104873000Y-116326250D01*
X104873000Y-115127000D01*
X105127000Y-115127000D01*
X105127000Y-116326250D01*
X105285750Y-116485000D01*
X105850000Y-116488072D01*
X105974482Y-116475812D01*
X106094180Y-116439502D01*
X106204494Y-116380537D01*
X106301185Y-116301185D01*
X106380537Y-116204494D01*
X106439502Y-116094180D01*
X106463966Y-116013534D01*
X106539731Y-116097588D01*
X106773080Y-116271641D01*
X107035901Y-116396825D01*
X107183110Y-116441476D01*
X107413000Y-116320155D01*
X107413000Y-115127000D01*
X107667000Y-115127000D01*
X107667000Y-116320155D01*
X107896890Y-116441476D01*
X108044099Y-116396825D01*
X108306920Y-116271641D01*
X108540269Y-116097588D01*
X108735178Y-115881355D01*
X108810000Y-115755745D01*
X108884822Y-115881355D01*
X109079731Y-116097588D01*
X109313080Y-116271641D01*
X109575901Y-116396825D01*
X109723110Y-116441476D01*
X109953000Y-116320155D01*
X109953000Y-115127000D01*
X110207000Y-115127000D01*
X110207000Y-116320155D01*
X110436890Y-116441476D01*
X110584099Y-116396825D01*
X110846920Y-116271641D01*
X111080269Y-116097588D01*
X111275178Y-115881355D01*
X111350000Y-115755745D01*
X111424822Y-115881355D01*
X111619731Y-116097588D01*
X111853080Y-116271641D01*
X112115901Y-116396825D01*
X112263110Y-116441476D01*
X112493000Y-116320155D01*
X112493000Y-115127000D01*
X112747000Y-115127000D01*
X112747000Y-116320155D01*
X112976890Y-116441476D01*
X113124099Y-116396825D01*
X113386920Y-116271641D01*
X113620269Y-116097588D01*
X113815178Y-115881355D01*
X113890000Y-115755745D01*
X113964822Y-115881355D01*
X114159731Y-116097588D01*
X114393080Y-116271641D01*
X114655901Y-116396825D01*
X114803110Y-116441476D01*
X115033000Y-116320155D01*
X115033000Y-115127000D01*
X115287000Y-115127000D01*
X115287000Y-116320155D01*
X115516890Y-116441476D01*
X115664099Y-116396825D01*
X115926920Y-116271641D01*
X116160269Y-116097588D01*
X116355178Y-115881355D01*
X116430000Y-115755745D01*
X116504822Y-115881355D01*
X116699731Y-116097588D01*
X116933080Y-116271641D01*
X117195901Y-116396825D01*
X117343110Y-116441476D01*
X117573000Y-116320155D01*
X117573000Y-115127000D01*
X117827000Y-115127000D01*
X117827000Y-116320155D01*
X118056890Y-116441476D01*
X118204099Y-116396825D01*
X118466920Y-116271641D01*
X118700269Y-116097588D01*
X118895178Y-115881355D01*
X118970000Y-115755745D01*
X119044822Y-115881355D01*
X119239731Y-116097588D01*
X119473080Y-116271641D01*
X119735901Y-116396825D01*
X119883110Y-116441476D01*
X120113000Y-116320155D01*
X120113000Y-115127000D01*
X120367000Y-115127000D01*
X120367000Y-116320155D01*
X120596890Y-116441476D01*
X120744099Y-116396825D01*
X121006920Y-116271641D01*
X121240269Y-116097588D01*
X121435178Y-115881355D01*
X121510000Y-115755745D01*
X121584822Y-115881355D01*
X121779731Y-116097588D01*
X122013080Y-116271641D01*
X122275901Y-116396825D01*
X122423110Y-116441476D01*
X122653000Y-116320155D01*
X122653000Y-115127000D01*
X122907000Y-115127000D01*
X122907000Y-116320155D01*
X123136890Y-116441476D01*
X123284099Y-116396825D01*
X123546920Y-116271641D01*
X123780269Y-116097588D01*
X123975178Y-115881355D01*
X124050000Y-115755745D01*
X124124822Y-115881355D01*
X124319731Y-116097588D01*
X124553080Y-116271641D01*
X124815901Y-116396825D01*
X124963110Y-116441476D01*
X125193000Y-116320155D01*
X125193000Y-115127000D01*
X125447000Y-115127000D01*
X125447000Y-116320155D01*
X125676890Y-116441476D01*
X125824099Y-116396825D01*
X126086920Y-116271641D01*
X126320269Y-116097588D01*
X126515178Y-115881355D01*
X126590000Y-115755745D01*
X126664822Y-115881355D01*
X126859731Y-116097588D01*
X127093080Y-116271641D01*
X127355901Y-116396825D01*
X127503110Y-116441476D01*
X127733000Y-116320155D01*
X127733000Y-115127000D01*
X127987000Y-115127000D01*
X127987000Y-116320155D01*
X128216890Y-116441476D01*
X128364099Y-116396825D01*
X128626920Y-116271641D01*
X128860269Y-116097588D01*
X129055178Y-115881355D01*
X129130000Y-115755745D01*
X129204822Y-115881355D01*
X129399731Y-116097588D01*
X129633080Y-116271641D01*
X129895901Y-116396825D01*
X130043110Y-116441476D01*
X130273000Y-116320155D01*
X130273000Y-115127000D01*
X130527000Y-115127000D01*
X130527000Y-116320155D01*
X130756890Y-116441476D01*
X130904099Y-116396825D01*
X131166920Y-116271641D01*
X131400269Y-116097588D01*
X131595178Y-115881355D01*
X131670000Y-115755745D01*
X131744822Y-115881355D01*
X131939731Y-116097588D01*
X132173080Y-116271641D01*
X132435901Y-116396825D01*
X132583110Y-116441476D01*
X132813000Y-116320155D01*
X132813000Y-115127000D01*
X133067000Y-115127000D01*
X133067000Y-116320155D01*
X133296890Y-116441476D01*
X133444099Y-116396825D01*
X133706920Y-116271641D01*
X133940269Y-116097588D01*
X134135178Y-115881355D01*
X134153855Y-115850000D01*
X136011928Y-115850000D01*
X136024188Y-115974482D01*
X136060498Y-116094180D01*
X136119463Y-116204494D01*
X136198815Y-116301185D01*
X136295506Y-116380537D01*
X136405820Y-116439502D01*
X136525518Y-116475812D01*
X136650000Y-116488072D01*
X137214250Y-116485000D01*
X137373000Y-116326250D01*
X137373000Y-115127000D01*
X137627000Y-115127000D01*
X137627000Y-116326250D01*
X137785750Y-116485000D01*
X138350000Y-116488072D01*
X138474482Y-116475812D01*
X138594180Y-116439502D01*
X138704494Y-116380537D01*
X138801185Y-116301185D01*
X138880537Y-116204494D01*
X138939502Y-116094180D01*
X138963966Y-116013534D01*
X139039731Y-116097588D01*
X139273080Y-116271641D01*
X139535901Y-116396825D01*
X139683110Y-116441476D01*
X139913000Y-116320155D01*
X139913000Y-115127000D01*
X140167000Y-115127000D01*
X140167000Y-116320155D01*
X140396890Y-116441476D01*
X140544099Y-116396825D01*
X140806920Y-116271641D01*
X141040269Y-116097588D01*
X141235178Y-115881355D01*
X141310000Y-115755745D01*
X141384822Y-115881355D01*
X141579731Y-116097588D01*
X141813080Y-116271641D01*
X142075901Y-116396825D01*
X142223110Y-116441476D01*
X142453000Y-116320155D01*
X142453000Y-115127000D01*
X140167000Y-115127000D01*
X139913000Y-115127000D01*
X137627000Y-115127000D01*
X137373000Y-115127000D01*
X136173750Y-115127000D01*
X136015000Y-115285750D01*
X136011928Y-115850000D01*
X134153855Y-115850000D01*
X134284157Y-115631252D01*
X134381481Y-115356891D01*
X134260814Y-115127000D01*
X133067000Y-115127000D01*
X132813000Y-115127000D01*
X130527000Y-115127000D01*
X130273000Y-115127000D01*
X127987000Y-115127000D01*
X127733000Y-115127000D01*
X125447000Y-115127000D01*
X125193000Y-115127000D01*
X122907000Y-115127000D01*
X122653000Y-115127000D01*
X120367000Y-115127000D01*
X120113000Y-115127000D01*
X117827000Y-115127000D01*
X117573000Y-115127000D01*
X115287000Y-115127000D01*
X115033000Y-115127000D01*
X112747000Y-115127000D01*
X112493000Y-115127000D01*
X110207000Y-115127000D01*
X109953000Y-115127000D01*
X107667000Y-115127000D01*
X107413000Y-115127000D01*
X105127000Y-115127000D01*
X104873000Y-115127000D01*
X103673750Y-115127000D01*
X103515000Y-115285750D01*
X103511928Y-115850000D01*
X102258590Y-115850000D01*
X102165870Y-115783374D01*
X101629223Y-115229597D01*
X101199129Y-114589549D01*
X101006180Y-114150000D01*
X103511928Y-114150000D01*
X103515000Y-114714250D01*
X103673750Y-114873000D01*
X104873000Y-114873000D01*
X104873000Y-113673750D01*
X105127000Y-113673750D01*
X105127000Y-114873000D01*
X107413000Y-114873000D01*
X107413000Y-113679845D01*
X107667000Y-113679845D01*
X107667000Y-114873000D01*
X109953000Y-114873000D01*
X109953000Y-113679845D01*
X110207000Y-113679845D01*
X110207000Y-114873000D01*
X112493000Y-114873000D01*
X112493000Y-113679845D01*
X112747000Y-113679845D01*
X112747000Y-114873000D01*
X115033000Y-114873000D01*
X115033000Y-113679845D01*
X115287000Y-113679845D01*
X115287000Y-114873000D01*
X117573000Y-114873000D01*
X117573000Y-113679845D01*
X117827000Y-113679845D01*
X117827000Y-114873000D01*
X120113000Y-114873000D01*
X120113000Y-113679845D01*
X120367000Y-113679845D01*
X120367000Y-114873000D01*
X122653000Y-114873000D01*
X122653000Y-113679845D01*
X122907000Y-113679845D01*
X122907000Y-114873000D01*
X125193000Y-114873000D01*
X125193000Y-113679845D01*
X125447000Y-113679845D01*
X125447000Y-114873000D01*
X127733000Y-114873000D01*
X127733000Y-113679845D01*
X127987000Y-113679845D01*
X127987000Y-114873000D01*
X130273000Y-114873000D01*
X130273000Y-113679845D01*
X130527000Y-113679845D01*
X130527000Y-114873000D01*
X132813000Y-114873000D01*
X132813000Y-113679845D01*
X133067000Y-113679845D01*
X133067000Y-114873000D01*
X134260814Y-114873000D01*
X134381481Y-114643109D01*
X134284157Y-114368748D01*
X134153856Y-114150000D01*
X136011928Y-114150000D01*
X136015000Y-114714250D01*
X136173750Y-114873000D01*
X137373000Y-114873000D01*
X137373000Y-113673750D01*
X137627000Y-113673750D01*
X137627000Y-114873000D01*
X139913000Y-114873000D01*
X139913000Y-113679845D01*
X140167000Y-113679845D01*
X140167000Y-114873000D01*
X142453000Y-114873000D01*
X142453000Y-113679845D01*
X142707000Y-113679845D01*
X142707000Y-114873000D01*
X144993000Y-114873000D01*
X144993000Y-113679845D01*
X144763110Y-113558524D01*
X144615901Y-113603175D01*
X144353080Y-113728359D01*
X144119731Y-113902412D01*
X143924822Y-114118645D01*
X143850000Y-114244255D01*
X143775178Y-114118645D01*
X143580269Y-113902412D01*
X143346920Y-113728359D01*
X143084099Y-113603175D01*
X142936890Y-113558524D01*
X142707000Y-113679845D01*
X142453000Y-113679845D01*
X142223110Y-113558524D01*
X142075901Y-113603175D01*
X141813080Y-113728359D01*
X141579731Y-113902412D01*
X141384822Y-114118645D01*
X141310000Y-114244255D01*
X141235178Y-114118645D01*
X141040269Y-113902412D01*
X140806920Y-113728359D01*
X140544099Y-113603175D01*
X140396890Y-113558524D01*
X140167000Y-113679845D01*
X139913000Y-113679845D01*
X139683110Y-113558524D01*
X139535901Y-113603175D01*
X139273080Y-113728359D01*
X139039731Y-113902412D01*
X138963966Y-113986466D01*
X138939502Y-113905820D01*
X138880537Y-113795506D01*
X138801185Y-113698815D01*
X138704494Y-113619463D01*
X138594180Y-113560498D01*
X138474482Y-113524188D01*
X138350000Y-113511928D01*
X137785750Y-113515000D01*
X137627000Y-113673750D01*
X137373000Y-113673750D01*
X137214250Y-113515000D01*
X136650000Y-113511928D01*
X136525518Y-113524188D01*
X136405820Y-113560498D01*
X136295506Y-113619463D01*
X136198815Y-113698815D01*
X136119463Y-113795506D01*
X136060498Y-113905820D01*
X136024188Y-114025518D01*
X136011928Y-114150000D01*
X134153856Y-114150000D01*
X134135178Y-114118645D01*
X133940269Y-113902412D01*
X133706920Y-113728359D01*
X133444099Y-113603175D01*
X133296890Y-113558524D01*
X133067000Y-113679845D01*
X132813000Y-113679845D01*
X132583110Y-113558524D01*
X132435901Y-113603175D01*
X132173080Y-113728359D01*
X131939731Y-113902412D01*
X131744822Y-114118645D01*
X131670000Y-114244255D01*
X131595178Y-114118645D01*
X131400269Y-113902412D01*
X131166920Y-113728359D01*
X130904099Y-113603175D01*
X130756890Y-113558524D01*
X130527000Y-113679845D01*
X130273000Y-113679845D01*
X130043110Y-113558524D01*
X129895901Y-113603175D01*
X129633080Y-113728359D01*
X129399731Y-113902412D01*
X129204822Y-114118645D01*
X129130000Y-114244255D01*
X129055178Y-114118645D01*
X128860269Y-113902412D01*
X128626920Y-113728359D01*
X128364099Y-113603175D01*
X128216890Y-113558524D01*
X127987000Y-113679845D01*
X127733000Y-113679845D01*
X127503110Y-113558524D01*
X127355901Y-113603175D01*
X127093080Y-113728359D01*
X126859731Y-113902412D01*
X126664822Y-114118645D01*
X126590000Y-114244255D01*
X126515178Y-114118645D01*
X126320269Y-113902412D01*
X126086920Y-113728359D01*
X125824099Y-113603175D01*
X125676890Y-113558524D01*
X125447000Y-113679845D01*
X125193000Y-113679845D01*
X124963110Y-113558524D01*
X124815901Y-113603175D01*
X124553080Y-113728359D01*
X124319731Y-113902412D01*
X124124822Y-114118645D01*
X124050000Y-114244255D01*
X123975178Y-114118645D01*
X123780269Y-113902412D01*
X123546920Y-113728359D01*
X123284099Y-113603175D01*
X123136890Y-113558524D01*
X122907000Y-113679845D01*
X122653000Y-113679845D01*
X122423110Y-113558524D01*
X122275901Y-113603175D01*
X122013080Y-113728359D01*
X121779731Y-113902412D01*
X121584822Y-114118645D01*
X121510000Y-114244255D01*
X121435178Y-114118645D01*
X121240269Y-113902412D01*
X121006920Y-113728359D01*
X120744099Y-113603175D01*
X120596890Y-113558524D01*
X120367000Y-113679845D01*
X120113000Y-113679845D01*
X119883110Y-113558524D01*
X119735901Y-113603175D01*
X119473080Y-113728359D01*
X119239731Y-113902412D01*
X119044822Y-114118645D01*
X118970000Y-114244255D01*
X118895178Y-114118645D01*
X118700269Y-113902412D01*
X118466920Y-113728359D01*
X118204099Y-113603175D01*
X118056890Y-113558524D01*
X117827000Y-113679845D01*
X117573000Y-113679845D01*
X117343110Y-113558524D01*
X117195901Y-113603175D01*
X116933080Y-113728359D01*
X116699731Y-113902412D01*
X116504822Y-114118645D01*
X116430000Y-114244255D01*
X116355178Y-114118645D01*
X116160269Y-113902412D01*
X115926920Y-113728359D01*
X115664099Y-113603175D01*
X115516890Y-113558524D01*
X115287000Y-113679845D01*
X115033000Y-113679845D01*
X114803110Y-113558524D01*
X114655901Y-113603175D01*
X114393080Y-113728359D01*
X114159731Y-113902412D01*
X113964822Y-114118645D01*
X113890000Y-114244255D01*
X113815178Y-114118645D01*
X113620269Y-113902412D01*
X113386920Y-113728359D01*
X113124099Y-113603175D01*
X112976890Y-113558524D01*
X112747000Y-113679845D01*
X112493000Y-113679845D01*
X112263110Y-113558524D01*
X112115901Y-113603175D01*
X111853080Y-113728359D01*
X111619731Y-113902412D01*
X111424822Y-114118645D01*
X111350000Y-114244255D01*
X111275178Y-114118645D01*
X111080269Y-113902412D01*
X110846920Y-113728359D01*
X110584099Y-113603175D01*
X110436890Y-113558524D01*
X110207000Y-113679845D01*
X109953000Y-113679845D01*
X109723110Y-113558524D01*
X109575901Y-113603175D01*
X109313080Y-113728359D01*
X109079731Y-113902412D01*
X108884822Y-114118645D01*
X108810000Y-114244255D01*
X108735178Y-114118645D01*
X108540269Y-113902412D01*
X108306920Y-113728359D01*
X108044099Y-113603175D01*
X107896890Y-113558524D01*
X107667000Y-113679845D01*
X107413000Y-113679845D01*
X107183110Y-113558524D01*
X107035901Y-113603175D01*
X106773080Y-113728359D01*
X106539731Y-113902412D01*
X106463966Y-113986466D01*
X106439502Y-113905820D01*
X106380537Y-113795506D01*
X106301185Y-113698815D01*
X106204494Y-113619463D01*
X106094180Y-113560498D01*
X105974482Y-113524188D01*
X105850000Y-113511928D01*
X105285750Y-113515000D01*
X105127000Y-113673750D01*
X104873000Y-113673750D01*
X104714250Y-113515000D01*
X104150000Y-113511928D01*
X104025518Y-113524188D01*
X103905820Y-113560498D01*
X103795506Y-113619463D01*
X103698815Y-113698815D01*
X103619463Y-113795506D01*
X103560498Y-113905820D01*
X103524188Y-114025518D01*
X103511928Y-114150000D01*
X101006180Y-114150000D01*
X100889171Y-113883447D01*
X100707935Y-113128543D01*
X100660000Y-112475793D01*
X100660000Y-110476890D01*
X101058524Y-110476890D01*
X101103175Y-110624099D01*
X101228359Y-110886920D01*
X101402412Y-111120269D01*
X101618645Y-111315178D01*
X101868748Y-111464157D01*
X102143109Y-111561481D01*
X102373000Y-111440814D01*
X102373000Y-110247000D01*
X102627000Y-110247000D01*
X102627000Y-111440814D01*
X102856891Y-111561481D01*
X103131252Y-111464157D01*
X103381355Y-111315178D01*
X103597588Y-111120269D01*
X103771641Y-110886920D01*
X103896825Y-110624099D01*
X103905077Y-110596890D01*
X143558524Y-110596890D01*
X143603175Y-110744099D01*
X143728359Y-111006920D01*
X143902412Y-111240269D01*
X144118645Y-111435178D01*
X144368748Y-111584157D01*
X144643109Y-111681481D01*
X144873000Y-111560814D01*
X144873000Y-110367000D01*
X145127000Y-110367000D01*
X145127000Y-111560814D01*
X145356891Y-111681481D01*
X145631252Y-111584157D01*
X145881355Y-111435178D01*
X146097588Y-111240269D01*
X146271641Y-111006920D01*
X146396825Y-110744099D01*
X146441476Y-110596890D01*
X146320155Y-110367000D01*
X145127000Y-110367000D01*
X144873000Y-110367000D01*
X143679845Y-110367000D01*
X143558524Y-110596890D01*
X103905077Y-110596890D01*
X103941476Y-110476890D01*
X103820155Y-110247000D01*
X102627000Y-110247000D01*
X102373000Y-110247000D01*
X101179845Y-110247000D01*
X101058524Y-110476890D01*
X100660000Y-110476890D01*
X100660000Y-107936890D01*
X101058524Y-107936890D01*
X101103175Y-108084099D01*
X101228359Y-108346920D01*
X101402412Y-108580269D01*
X101618645Y-108775178D01*
X101744255Y-108850000D01*
X101618645Y-108924822D01*
X101402412Y-109119731D01*
X101228359Y-109353080D01*
X101103175Y-109615901D01*
X101058524Y-109763110D01*
X101179845Y-109993000D01*
X102373000Y-109993000D01*
X102373000Y-107707000D01*
X102627000Y-107707000D01*
X102627000Y-109993000D01*
X103820155Y-109993000D01*
X103941476Y-109763110D01*
X103896825Y-109615901D01*
X103771641Y-109353080D01*
X103597588Y-109119731D01*
X103381355Y-108924822D01*
X103255745Y-108850000D01*
X103381355Y-108775178D01*
X103597588Y-108580269D01*
X103771641Y-108346920D01*
X103896825Y-108084099D01*
X103905077Y-108056890D01*
X143558524Y-108056890D01*
X143603175Y-108204099D01*
X143728359Y-108466920D01*
X143902412Y-108700269D01*
X144118645Y-108895178D01*
X144244255Y-108970000D01*
X144118645Y-109044822D01*
X143902412Y-109239731D01*
X143728359Y-109473080D01*
X143603175Y-109735901D01*
X143558524Y-109883110D01*
X143679845Y-110113000D01*
X144873000Y-110113000D01*
X144873000Y-107827000D01*
X145127000Y-107827000D01*
X145127000Y-110113000D01*
X146320155Y-110113000D01*
X146441476Y-109883110D01*
X146396825Y-109735901D01*
X146271641Y-109473080D01*
X146097588Y-109239731D01*
X145881355Y-109044822D01*
X145755745Y-108970000D01*
X145881355Y-108895178D01*
X146097588Y-108700269D01*
X146271641Y-108466920D01*
X146396825Y-108204099D01*
X146441476Y-108056890D01*
X146320155Y-107827000D01*
X145127000Y-107827000D01*
X144873000Y-107827000D01*
X143679845Y-107827000D01*
X143558524Y-108056890D01*
X103905077Y-108056890D01*
X103941476Y-107936890D01*
X103820155Y-107707000D01*
X102627000Y-107707000D01*
X102373000Y-107707000D01*
X101179845Y-107707000D01*
X101058524Y-107936890D01*
X100660000Y-107936890D01*
X100660000Y-105396890D01*
X101058524Y-105396890D01*
X101103175Y-105544099D01*
X101228359Y-105806920D01*
X101402412Y-106040269D01*
X101618645Y-106235178D01*
X101744255Y-106310000D01*
X101618645Y-106384822D01*
X101402412Y-106579731D01*
X101228359Y-106813080D01*
X101103175Y-107075901D01*
X101058524Y-107223110D01*
X101179845Y-107453000D01*
X102373000Y-107453000D01*
X102373000Y-105167000D01*
X102627000Y-105167000D01*
X102627000Y-107453000D01*
X103820155Y-107453000D01*
X103941476Y-107223110D01*
X103896825Y-107075901D01*
X103771641Y-106813080D01*
X103597588Y-106579731D01*
X103381355Y-106384822D01*
X103255745Y-106310000D01*
X103381355Y-106235178D01*
X103597588Y-106040269D01*
X103771641Y-105806920D01*
X103896825Y-105544099D01*
X103905077Y-105516890D01*
X143558524Y-105516890D01*
X143603175Y-105664099D01*
X143728359Y-105926920D01*
X143902412Y-106160269D01*
X144118645Y-106355178D01*
X144244255Y-106430000D01*
X144118645Y-106504822D01*
X143902412Y-106699731D01*
X143728359Y-106933080D01*
X143603175Y-107195901D01*
X143558524Y-107343110D01*
X143679845Y-107573000D01*
X144873000Y-107573000D01*
X144873000Y-105287000D01*
X145127000Y-105287000D01*
X145127000Y-107573000D01*
X146320155Y-107573000D01*
X146441476Y-107343110D01*
X146396825Y-107195901D01*
X146271641Y-106933080D01*
X146097588Y-106699731D01*
X145881355Y-106504822D01*
X145755745Y-106430000D01*
X145881355Y-106355178D01*
X146097588Y-106160269D01*
X146271641Y-105926920D01*
X146396825Y-105664099D01*
X146441476Y-105516890D01*
X146320155Y-105287000D01*
X145127000Y-105287000D01*
X144873000Y-105287000D01*
X143679845Y-105287000D01*
X143558524Y-105516890D01*
X103905077Y-105516890D01*
X103941476Y-105396890D01*
X103820155Y-105167000D01*
X102627000Y-105167000D01*
X102373000Y-105167000D01*
X101179845Y-105167000D01*
X101058524Y-105396890D01*
X100660000Y-105396890D01*
X100660000Y-103350000D01*
X101011928Y-103350000D01*
X101024188Y-103474482D01*
X101060498Y-103594180D01*
X101119463Y-103704494D01*
X101198815Y-103801185D01*
X101295506Y-103880537D01*
X101405820Y-103939502D01*
X101486466Y-103963966D01*
X101402412Y-104039731D01*
X101228359Y-104273080D01*
X101103175Y-104535901D01*
X101058524Y-104683110D01*
X101179845Y-104913000D01*
X102373000Y-104913000D01*
X102373000Y-102627000D01*
X102627000Y-102627000D01*
X102627000Y-104913000D01*
X103820155Y-104913000D01*
X103941476Y-104683110D01*
X103896825Y-104535901D01*
X103771641Y-104273080D01*
X103597588Y-104039731D01*
X103513534Y-103963966D01*
X103594180Y-103939502D01*
X103704494Y-103880537D01*
X103801185Y-103801185D01*
X103880537Y-103704494D01*
X103939502Y-103594180D01*
X103975812Y-103474482D01*
X103988072Y-103350000D01*
X103986041Y-102976890D01*
X143558524Y-102976890D01*
X143603175Y-103124099D01*
X143728359Y-103386920D01*
X143902412Y-103620269D01*
X144118645Y-103815178D01*
X144244255Y-103890000D01*
X144118645Y-103964822D01*
X143902412Y-104159731D01*
X143728359Y-104393080D01*
X143603175Y-104655901D01*
X143558524Y-104803110D01*
X143679845Y-105033000D01*
X144873000Y-105033000D01*
X144873000Y-102747000D01*
X145127000Y-102747000D01*
X145127000Y-105033000D01*
X146320155Y-105033000D01*
X146441476Y-104803110D01*
X146396825Y-104655901D01*
X146271641Y-104393080D01*
X146097588Y-104159731D01*
X145881355Y-103964822D01*
X145755745Y-103890000D01*
X145881355Y-103815178D01*
X146097588Y-103620269D01*
X146271641Y-103386920D01*
X146396825Y-103124099D01*
X146441476Y-102976890D01*
X146320155Y-102747000D01*
X145127000Y-102747000D01*
X144873000Y-102747000D01*
X143679845Y-102747000D01*
X143558524Y-102976890D01*
X103986041Y-102976890D01*
X103985000Y-102785750D01*
X103826250Y-102627000D01*
X102627000Y-102627000D01*
X102373000Y-102627000D01*
X101173750Y-102627000D01*
X101015000Y-102785750D01*
X101011928Y-103350000D01*
X100660000Y-103350000D01*
X100660000Y-101650000D01*
X101011928Y-101650000D01*
X101015000Y-102214250D01*
X101173750Y-102373000D01*
X102373000Y-102373000D01*
X102373000Y-101173750D01*
X102627000Y-101173750D01*
X102627000Y-102373000D01*
X103826250Y-102373000D01*
X103985000Y-102214250D01*
X103988072Y-101650000D01*
X103975812Y-101525518D01*
X103939502Y-101405820D01*
X103880537Y-101295506D01*
X103801185Y-101198815D01*
X103704494Y-101119463D01*
X103594180Y-101060498D01*
X103474482Y-101024188D01*
X103350000Y-101011928D01*
X102785750Y-101015000D01*
X102627000Y-101173750D01*
X102373000Y-101173750D01*
X102214250Y-101015000D01*
X101650000Y-101011928D01*
X101525518Y-101024188D01*
X101405820Y-101060498D01*
X101295506Y-101119463D01*
X101198815Y-101198815D01*
X101119463Y-101295506D01*
X101060498Y-101405820D01*
X101024188Y-101525518D01*
X101011928Y-101650000D01*
X100660000Y-101650000D01*
X100660000Y-98390000D01*
X101011928Y-98390000D01*
X101024188Y-98514482D01*
X101060498Y-98634180D01*
X101119463Y-98744494D01*
X101198815Y-98841185D01*
X101295506Y-98920537D01*
X101405820Y-98979502D01*
X101525518Y-99015812D01*
X101650000Y-99028072D01*
X102214250Y-99025000D01*
X102373000Y-98866250D01*
X102373000Y-97667000D01*
X102627000Y-97667000D01*
X102627000Y-98866250D01*
X102785750Y-99025000D01*
X103350000Y-99028072D01*
X103474482Y-99015812D01*
X103594180Y-98979502D01*
X103704494Y-98920537D01*
X103801185Y-98841185D01*
X103880537Y-98744494D01*
X103939502Y-98634180D01*
X103975812Y-98514482D01*
X103988072Y-98390000D01*
X103985000Y-97825750D01*
X103826250Y-97667000D01*
X102627000Y-97667000D01*
X102373000Y-97667000D01*
X101173750Y-97667000D01*
X101015000Y-97825750D01*
X101011928Y-98390000D01*
X100660000Y-98390000D01*
X100660000Y-96690000D01*
X101011928Y-96690000D01*
X101015000Y-97254250D01*
X101173750Y-97413000D01*
X102373000Y-97413000D01*
X102373000Y-97393000D01*
X102627000Y-97393000D01*
X102627000Y-97413000D01*
X103826250Y-97413000D01*
X103985000Y-97254250D01*
X103988072Y-96690000D01*
X103975812Y-96565518D01*
X103939502Y-96445820D01*
X103880537Y-96335506D01*
X103801185Y-96238815D01*
X103704494Y-96159463D01*
X103594180Y-96100498D01*
X103521620Y-96078487D01*
X103653475Y-95946632D01*
X103815990Y-95703411D01*
X103927932Y-95433158D01*
X103985000Y-95146260D01*
X103985000Y-95000000D01*
X109320000Y-95000000D01*
X109411280Y-96014203D01*
X109682186Y-96995809D01*
X110124011Y-97913268D01*
X110722554Y-98737092D01*
X111458578Y-99440803D01*
X112308426Y-100001783D01*
X113244783Y-100402001D01*
X114237555Y-100628595D01*
X115254832Y-100674281D01*
X116263919Y-100537591D01*
X117232382Y-100222918D01*
X118129095Y-99740376D01*
X118925236Y-99105475D01*
X119595217Y-98338620D01*
X120117503Y-97464460D01*
X120475309Y-96511089D01*
X120657134Y-95509151D01*
X120657134Y-95000000D01*
X129320000Y-95000000D01*
X129411280Y-96014203D01*
X129682186Y-96995809D01*
X130124011Y-97913268D01*
X130722554Y-98737092D01*
X131458578Y-99440803D01*
X132308426Y-100001783D01*
X133244783Y-100402001D01*
X134237555Y-100628595D01*
X135254832Y-100674281D01*
X136263919Y-100537591D01*
X136573844Y-100436890D01*
X143558524Y-100436890D01*
X143603175Y-100584099D01*
X143728359Y-100846920D01*
X143902412Y-101080269D01*
X144118645Y-101275178D01*
X144244255Y-101350000D01*
X144118645Y-101424822D01*
X143902412Y-101619731D01*
X143728359Y-101853080D01*
X143603175Y-102115901D01*
X143558524Y-102263110D01*
X143679845Y-102493000D01*
X144873000Y-102493000D01*
X144873000Y-100207000D01*
X145127000Y-100207000D01*
X145127000Y-102493000D01*
X146320155Y-102493000D01*
X146441476Y-102263110D01*
X146396825Y-102115901D01*
X146271641Y-101853080D01*
X146097588Y-101619731D01*
X145881355Y-101424822D01*
X145755745Y-101350000D01*
X145881355Y-101275178D01*
X146097588Y-101080269D01*
X146271641Y-100846920D01*
X146396825Y-100584099D01*
X146441476Y-100436890D01*
X146320155Y-100207000D01*
X145127000Y-100207000D01*
X144873000Y-100207000D01*
X143679845Y-100207000D01*
X143558524Y-100436890D01*
X136573844Y-100436890D01*
X137232382Y-100222918D01*
X138129095Y-99740376D01*
X138925236Y-99105475D01*
X139595217Y-98338620D01*
X139859138Y-97896890D01*
X143558524Y-97896890D01*
X143603175Y-98044099D01*
X143728359Y-98306920D01*
X143902412Y-98540269D01*
X144118645Y-98735178D01*
X144244255Y-98810000D01*
X144118645Y-98884822D01*
X143902412Y-99079731D01*
X143728359Y-99313080D01*
X143603175Y-99575901D01*
X143558524Y-99723110D01*
X143679845Y-99953000D01*
X144873000Y-99953000D01*
X144873000Y-97667000D01*
X145127000Y-97667000D01*
X145127000Y-99953000D01*
X146320155Y-99953000D01*
X146441476Y-99723110D01*
X146396825Y-99575901D01*
X146271641Y-99313080D01*
X146097588Y-99079731D01*
X145881355Y-98884822D01*
X145755745Y-98810000D01*
X145881355Y-98735178D01*
X146097588Y-98540269D01*
X146271641Y-98306920D01*
X146396825Y-98044099D01*
X146441476Y-97896890D01*
X146320155Y-97667000D01*
X145127000Y-97667000D01*
X144873000Y-97667000D01*
X143679845Y-97667000D01*
X143558524Y-97896890D01*
X139859138Y-97896890D01*
X140117503Y-97464460D01*
X140475309Y-96511089D01*
X140657134Y-95509151D01*
X140657134Y-94853740D01*
X143515000Y-94853740D01*
X143515000Y-95146260D01*
X143572068Y-95433158D01*
X143684010Y-95703411D01*
X143846525Y-95946632D01*
X144053368Y-96153475D01*
X144235534Y-96275195D01*
X144118645Y-96344822D01*
X143902412Y-96539731D01*
X143728359Y-96773080D01*
X143603175Y-97035901D01*
X143558524Y-97183110D01*
X143679845Y-97413000D01*
X144873000Y-97413000D01*
X144873000Y-97393000D01*
X145127000Y-97393000D01*
X145127000Y-97413000D01*
X146320155Y-97413000D01*
X146441476Y-97183110D01*
X146396825Y-97035901D01*
X146271641Y-96773080D01*
X146097588Y-96539731D01*
X145881355Y-96344822D01*
X145764466Y-96275195D01*
X145946632Y-96153475D01*
X146153475Y-95946632D01*
X146315990Y-95703411D01*
X146427932Y-95433158D01*
X146485000Y-95146260D01*
X146485000Y-94853740D01*
X146427932Y-94566842D01*
X146315990Y-94296589D01*
X146153475Y-94053368D01*
X145946632Y-93846525D01*
X145764466Y-93724805D01*
X145881355Y-93655178D01*
X146097588Y-93460269D01*
X146271641Y-93226920D01*
X146396825Y-92964099D01*
X146441476Y-92816890D01*
X146320155Y-92587000D01*
X145127000Y-92587000D01*
X145127000Y-92607000D01*
X144873000Y-92607000D01*
X144873000Y-92587000D01*
X143679845Y-92587000D01*
X143558524Y-92816890D01*
X143603175Y-92964099D01*
X143728359Y-93226920D01*
X143902412Y-93460269D01*
X144118645Y-93655178D01*
X144235534Y-93724805D01*
X144053368Y-93846525D01*
X143846525Y-94053368D01*
X143684010Y-94296589D01*
X143572068Y-94566842D01*
X143515000Y-94853740D01*
X140657134Y-94853740D01*
X140657134Y-94490849D01*
X140475309Y-93488911D01*
X140117503Y-92535540D01*
X139595217Y-91661380D01*
X138925236Y-90894525D01*
X138150746Y-90276890D01*
X143558524Y-90276890D01*
X143603175Y-90424099D01*
X143728359Y-90686920D01*
X143902412Y-90920269D01*
X144118645Y-91115178D01*
X144244255Y-91190000D01*
X144118645Y-91264822D01*
X143902412Y-91459731D01*
X143728359Y-91693080D01*
X143603175Y-91955901D01*
X143558524Y-92103110D01*
X143679845Y-92333000D01*
X144873000Y-92333000D01*
X144873000Y-90047000D01*
X145127000Y-90047000D01*
X145127000Y-92333000D01*
X146320155Y-92333000D01*
X146441476Y-92103110D01*
X146396825Y-91955901D01*
X146271641Y-91693080D01*
X146097588Y-91459731D01*
X145881355Y-91264822D01*
X145755745Y-91190000D01*
X145881355Y-91115178D01*
X146097588Y-90920269D01*
X146271641Y-90686920D01*
X146396825Y-90424099D01*
X146441476Y-90276890D01*
X146320155Y-90047000D01*
X145127000Y-90047000D01*
X144873000Y-90047000D01*
X143679845Y-90047000D01*
X143558524Y-90276890D01*
X138150746Y-90276890D01*
X138129095Y-90259624D01*
X137232382Y-89777082D01*
X136263919Y-89462409D01*
X135254832Y-89325719D01*
X134237555Y-89371405D01*
X133244783Y-89597999D01*
X132308426Y-89998217D01*
X131458578Y-90559197D01*
X130722554Y-91262908D01*
X130124011Y-92086732D01*
X129682186Y-93004191D01*
X129411280Y-93985797D01*
X129320000Y-95000000D01*
X120657134Y-95000000D01*
X120657134Y-94490849D01*
X120475309Y-93488911D01*
X120117503Y-92535540D01*
X119595217Y-91661380D01*
X118925236Y-90894525D01*
X118129095Y-90259624D01*
X117232382Y-89777082D01*
X116263919Y-89462409D01*
X115254832Y-89325719D01*
X114237555Y-89371405D01*
X113244783Y-89597999D01*
X112308426Y-89998217D01*
X111458578Y-90559197D01*
X110722554Y-91262908D01*
X110124011Y-92086732D01*
X109682186Y-93004191D01*
X109411280Y-93985797D01*
X109320000Y-95000000D01*
X103985000Y-95000000D01*
X103985000Y-94853740D01*
X103927932Y-94566842D01*
X103815990Y-94296589D01*
X103653475Y-94053368D01*
X103446632Y-93846525D01*
X103264466Y-93724805D01*
X103381355Y-93655178D01*
X103597588Y-93460269D01*
X103771641Y-93226920D01*
X103896825Y-92964099D01*
X103941476Y-92816890D01*
X103820155Y-92587000D01*
X102627000Y-92587000D01*
X102627000Y-92607000D01*
X102373000Y-92607000D01*
X102373000Y-92587000D01*
X101179845Y-92587000D01*
X101058524Y-92816890D01*
X101103175Y-92964099D01*
X101228359Y-93226920D01*
X101402412Y-93460269D01*
X101618645Y-93655178D01*
X101735534Y-93724805D01*
X101553368Y-93846525D01*
X101346525Y-94053368D01*
X101184010Y-94296589D01*
X101072068Y-94566842D01*
X101015000Y-94853740D01*
X101015000Y-95146260D01*
X101072068Y-95433158D01*
X101184010Y-95703411D01*
X101346525Y-95946632D01*
X101478380Y-96078487D01*
X101405820Y-96100498D01*
X101295506Y-96159463D01*
X101198815Y-96238815D01*
X101119463Y-96335506D01*
X101060498Y-96445820D01*
X101024188Y-96565518D01*
X101011928Y-96690000D01*
X100660000Y-96690000D01*
X100660000Y-92103110D01*
X101058524Y-92103110D01*
X101179845Y-92333000D01*
X102373000Y-92333000D01*
X102373000Y-91139186D01*
X102627000Y-91139186D01*
X102627000Y-92333000D01*
X103820155Y-92333000D01*
X103941476Y-92103110D01*
X103896825Y-91955901D01*
X103771641Y-91693080D01*
X103597588Y-91459731D01*
X103381355Y-91264822D01*
X103131252Y-91115843D01*
X102856891Y-91018519D01*
X102627000Y-91139186D01*
X102373000Y-91139186D01*
X102143109Y-91018519D01*
X101868748Y-91115843D01*
X101618645Y-91264822D01*
X101402412Y-91459731D01*
X101228359Y-91693080D01*
X101103175Y-91955901D01*
X101058524Y-92103110D01*
X100660000Y-92103110D01*
X100660000Y-87976890D01*
X101058524Y-87976890D01*
X101103175Y-88124099D01*
X101228359Y-88386920D01*
X101402412Y-88620269D01*
X101618645Y-88815178D01*
X101868748Y-88964157D01*
X102143109Y-89061481D01*
X102373000Y-88940814D01*
X102373000Y-87747000D01*
X102627000Y-87747000D01*
X102627000Y-88940814D01*
X102856891Y-89061481D01*
X103131252Y-88964157D01*
X103381355Y-88815178D01*
X103597588Y-88620269D01*
X103771641Y-88386920D01*
X103896825Y-88124099D01*
X103941476Y-87976890D01*
X103820155Y-87747000D01*
X102627000Y-87747000D01*
X102373000Y-87747000D01*
X101179845Y-87747000D01*
X101058524Y-87976890D01*
X100660000Y-87976890D01*
X100660000Y-87736890D01*
X143558524Y-87736890D01*
X143603175Y-87884099D01*
X143728359Y-88146920D01*
X143902412Y-88380269D01*
X144118645Y-88575178D01*
X144244255Y-88650000D01*
X144118645Y-88724822D01*
X143902412Y-88919731D01*
X143728359Y-89153080D01*
X143603175Y-89415901D01*
X143558524Y-89563110D01*
X143679845Y-89793000D01*
X144873000Y-89793000D01*
X144873000Y-87507000D01*
X145127000Y-87507000D01*
X145127000Y-89793000D01*
X146320155Y-89793000D01*
X146441476Y-89563110D01*
X146396825Y-89415901D01*
X146271641Y-89153080D01*
X146097588Y-88919731D01*
X145881355Y-88724822D01*
X145755745Y-88650000D01*
X145881355Y-88575178D01*
X146097588Y-88380269D01*
X146271641Y-88146920D01*
X146396825Y-87884099D01*
X146441476Y-87736890D01*
X146320155Y-87507000D01*
X145127000Y-87507000D01*
X144873000Y-87507000D01*
X143679845Y-87507000D01*
X143558524Y-87736890D01*
X100660000Y-87736890D01*
X100660000Y-85436890D01*
X101058524Y-85436890D01*
X101103175Y-85584099D01*
X101228359Y-85846920D01*
X101402412Y-86080269D01*
X101618645Y-86275178D01*
X101744255Y-86350000D01*
X101618645Y-86424822D01*
X101402412Y-86619731D01*
X101228359Y-86853080D01*
X101103175Y-87115901D01*
X101058524Y-87263110D01*
X101179845Y-87493000D01*
X102373000Y-87493000D01*
X102373000Y-85207000D01*
X102627000Y-85207000D01*
X102627000Y-87493000D01*
X103820155Y-87493000D01*
X103941476Y-87263110D01*
X103896825Y-87115901D01*
X103771641Y-86853080D01*
X103597588Y-86619731D01*
X103381355Y-86424822D01*
X103255745Y-86350000D01*
X103381355Y-86275178D01*
X103597588Y-86080269D01*
X103771641Y-85846920D01*
X103896825Y-85584099D01*
X103941476Y-85436890D01*
X103820155Y-85207000D01*
X102627000Y-85207000D01*
X102373000Y-85207000D01*
X101179845Y-85207000D01*
X101058524Y-85436890D01*
X100660000Y-85436890D01*
X100660000Y-85196890D01*
X143558524Y-85196890D01*
X143603175Y-85344099D01*
X143728359Y-85606920D01*
X143902412Y-85840269D01*
X144118645Y-86035178D01*
X144244255Y-86110000D01*
X144118645Y-86184822D01*
X143902412Y-86379731D01*
X143728359Y-86613080D01*
X143603175Y-86875901D01*
X143558524Y-87023110D01*
X143679845Y-87253000D01*
X144873000Y-87253000D01*
X144873000Y-84967000D01*
X145127000Y-84967000D01*
X145127000Y-87253000D01*
X146320155Y-87253000D01*
X146441476Y-87023110D01*
X146396825Y-86875901D01*
X146271641Y-86613080D01*
X146097588Y-86379731D01*
X145881355Y-86184822D01*
X145755745Y-86110000D01*
X145881355Y-86035178D01*
X146097588Y-85840269D01*
X146271641Y-85606920D01*
X146396825Y-85344099D01*
X146441476Y-85196890D01*
X146320155Y-84967000D01*
X145127000Y-84967000D01*
X144873000Y-84967000D01*
X143679845Y-84967000D01*
X143558524Y-85196890D01*
X100660000Y-85196890D01*
X100660000Y-82896890D01*
X101058524Y-82896890D01*
X101103175Y-83044099D01*
X101228359Y-83306920D01*
X101402412Y-83540269D01*
X101618645Y-83735178D01*
X101744255Y-83810000D01*
X101618645Y-83884822D01*
X101402412Y-84079731D01*
X101228359Y-84313080D01*
X101103175Y-84575901D01*
X101058524Y-84723110D01*
X101179845Y-84953000D01*
X102373000Y-84953000D01*
X102373000Y-82667000D01*
X102627000Y-82667000D01*
X102627000Y-84953000D01*
X103820155Y-84953000D01*
X103941476Y-84723110D01*
X103896825Y-84575901D01*
X103771641Y-84313080D01*
X103597588Y-84079731D01*
X103381355Y-83884822D01*
X103255745Y-83810000D01*
X103381355Y-83735178D01*
X103597588Y-83540269D01*
X103771641Y-83306920D01*
X103896825Y-83044099D01*
X103941476Y-82896890D01*
X103820155Y-82667000D01*
X102627000Y-82667000D01*
X102373000Y-82667000D01*
X101179845Y-82667000D01*
X101058524Y-82896890D01*
X100660000Y-82896890D01*
X100660000Y-82656890D01*
X143558524Y-82656890D01*
X143603175Y-82804099D01*
X143728359Y-83066920D01*
X143902412Y-83300269D01*
X144118645Y-83495178D01*
X144244255Y-83570000D01*
X144118645Y-83644822D01*
X143902412Y-83839731D01*
X143728359Y-84073080D01*
X143603175Y-84335901D01*
X143558524Y-84483110D01*
X143679845Y-84713000D01*
X144873000Y-84713000D01*
X144873000Y-82427000D01*
X145127000Y-82427000D01*
X145127000Y-84713000D01*
X146320155Y-84713000D01*
X146441476Y-84483110D01*
X146396825Y-84335901D01*
X146271641Y-84073080D01*
X146097588Y-83839731D01*
X145881355Y-83644822D01*
X145755745Y-83570000D01*
X145881355Y-83495178D01*
X146097588Y-83300269D01*
X146271641Y-83066920D01*
X146396825Y-82804099D01*
X146441476Y-82656890D01*
X146320155Y-82427000D01*
X145127000Y-82427000D01*
X144873000Y-82427000D01*
X143679845Y-82427000D01*
X143558524Y-82656890D01*
X100660000Y-82656890D01*
X100660000Y-80850000D01*
X101011928Y-80850000D01*
X101024188Y-80974482D01*
X101060498Y-81094180D01*
X101119463Y-81204494D01*
X101198815Y-81301185D01*
X101295506Y-81380537D01*
X101405820Y-81439502D01*
X101486466Y-81463966D01*
X101402412Y-81539731D01*
X101228359Y-81773080D01*
X101103175Y-82035901D01*
X101058524Y-82183110D01*
X101179845Y-82413000D01*
X102373000Y-82413000D01*
X102373000Y-80127000D01*
X102627000Y-80127000D01*
X102627000Y-82413000D01*
X103820155Y-82413000D01*
X103941476Y-82183110D01*
X103896825Y-82035901D01*
X103771641Y-81773080D01*
X103597588Y-81539731D01*
X103513534Y-81463966D01*
X103594180Y-81439502D01*
X103704494Y-81380537D01*
X103801185Y-81301185D01*
X103880537Y-81204494D01*
X103939502Y-81094180D01*
X103975812Y-80974482D01*
X103988072Y-80850000D01*
X103986766Y-80610000D01*
X143511928Y-80610000D01*
X143524188Y-80734482D01*
X143560498Y-80854180D01*
X143619463Y-80964494D01*
X143698815Y-81061185D01*
X143795506Y-81140537D01*
X143905820Y-81199502D01*
X143986466Y-81223966D01*
X143902412Y-81299731D01*
X143728359Y-81533080D01*
X143603175Y-81795901D01*
X143558524Y-81943110D01*
X143679845Y-82173000D01*
X144873000Y-82173000D01*
X144873000Y-79887000D01*
X145127000Y-79887000D01*
X145127000Y-82173000D01*
X146320155Y-82173000D01*
X146441476Y-81943110D01*
X146396825Y-81795901D01*
X146271641Y-81533080D01*
X146097588Y-81299731D01*
X146013534Y-81223966D01*
X146094180Y-81199502D01*
X146204494Y-81140537D01*
X146301185Y-81061185D01*
X146380537Y-80964494D01*
X146439502Y-80854180D01*
X146475812Y-80734482D01*
X146488072Y-80610000D01*
X146485000Y-80045750D01*
X146326250Y-79887000D01*
X145127000Y-79887000D01*
X144873000Y-79887000D01*
X143673750Y-79887000D01*
X143515000Y-80045750D01*
X143511928Y-80610000D01*
X103986766Y-80610000D01*
X103985000Y-80285750D01*
X103826250Y-80127000D01*
X102627000Y-80127000D01*
X102373000Y-80127000D01*
X101173750Y-80127000D01*
X101015000Y-80285750D01*
X101011928Y-80850000D01*
X100660000Y-80850000D01*
X100660000Y-79150000D01*
X101011928Y-79150000D01*
X101015000Y-79714250D01*
X101173750Y-79873000D01*
X102373000Y-79873000D01*
X102373000Y-78673750D01*
X102627000Y-78673750D01*
X102627000Y-79873000D01*
X103826250Y-79873000D01*
X103985000Y-79714250D01*
X103988072Y-79150000D01*
X103975812Y-79025518D01*
X103940770Y-78910000D01*
X143511928Y-78910000D01*
X143515000Y-79474250D01*
X143673750Y-79633000D01*
X144873000Y-79633000D01*
X144873000Y-78433750D01*
X145127000Y-78433750D01*
X145127000Y-79633000D01*
X146326250Y-79633000D01*
X146485000Y-79474250D01*
X146488072Y-78910000D01*
X146475812Y-78785518D01*
X146439502Y-78665820D01*
X146380537Y-78555506D01*
X146301185Y-78458815D01*
X146204494Y-78379463D01*
X146094180Y-78320498D01*
X145974482Y-78284188D01*
X145850000Y-78271928D01*
X145285750Y-78275000D01*
X145127000Y-78433750D01*
X144873000Y-78433750D01*
X144714250Y-78275000D01*
X144150000Y-78271928D01*
X144025518Y-78284188D01*
X143905820Y-78320498D01*
X143795506Y-78379463D01*
X143698815Y-78458815D01*
X143619463Y-78555506D01*
X143560498Y-78665820D01*
X143524188Y-78785518D01*
X143511928Y-78910000D01*
X103940770Y-78910000D01*
X103939502Y-78905820D01*
X103880537Y-78795506D01*
X103801185Y-78698815D01*
X103704494Y-78619463D01*
X103594180Y-78560498D01*
X103474482Y-78524188D01*
X103350000Y-78511928D01*
X102785750Y-78515000D01*
X102627000Y-78673750D01*
X102373000Y-78673750D01*
X102214250Y-78515000D01*
X101650000Y-78511928D01*
X101525518Y-78524188D01*
X101405820Y-78560498D01*
X101295506Y-78619463D01*
X101198815Y-78698815D01*
X101119463Y-78795506D01*
X101060498Y-78905820D01*
X101024188Y-79025518D01*
X101011928Y-79150000D01*
X100660000Y-79150000D01*
X100660000Y-78225000D01*
X103861928Y-78225000D01*
X103874188Y-78349482D01*
X103910498Y-78469180D01*
X103969463Y-78579494D01*
X104048815Y-78676185D01*
X104145506Y-78755537D01*
X104255820Y-78814502D01*
X104375518Y-78850812D01*
X104500000Y-78863072D01*
X104714250Y-78860000D01*
X104873000Y-78701250D01*
X104873000Y-77627000D01*
X104023750Y-77627000D01*
X103865000Y-77785750D01*
X103861928Y-78225000D01*
X100660000Y-78225000D01*
X100660000Y-77529392D01*
X100731173Y-76731917D01*
X100934656Y-75988109D01*
X101000530Y-75850000D01*
X103511928Y-75850000D01*
X103524188Y-75974482D01*
X103560498Y-76094180D01*
X103619463Y-76204494D01*
X103698815Y-76301185D01*
X103795506Y-76380537D01*
X103905820Y-76439502D01*
X103951846Y-76453464D01*
X103910498Y-76530820D01*
X103874188Y-76650518D01*
X103861928Y-76775000D01*
X103865000Y-77214250D01*
X104023750Y-77373000D01*
X104873000Y-77373000D01*
X104873000Y-75127000D01*
X103673750Y-75127000D01*
X103515000Y-75285750D01*
X103511928Y-75850000D01*
X101000530Y-75850000D01*
X101266638Y-75292095D01*
X101716626Y-74665870D01*
X102248962Y-74150000D01*
X103511928Y-74150000D01*
X103515000Y-74714250D01*
X103673750Y-74873000D01*
X104873000Y-74873000D01*
X104873000Y-73673750D01*
X105127000Y-73673750D01*
X105127000Y-74873000D01*
X105147000Y-74873000D01*
X105147000Y-75127000D01*
X105127000Y-75127000D01*
X105127000Y-77373000D01*
X105147000Y-77373000D01*
X105147000Y-77627000D01*
X105127000Y-77627000D01*
X105127000Y-78701250D01*
X105285750Y-78860000D01*
X105500000Y-78863072D01*
X105624482Y-78850812D01*
X105744180Y-78814502D01*
X105854494Y-78755537D01*
X105951185Y-78676185D01*
X106016658Y-78596406D01*
X106022038Y-78602962D01*
X106156614Y-78713405D01*
X106310150Y-78795472D01*
X106476746Y-78846008D01*
X106650000Y-78863072D01*
X107150000Y-78863072D01*
X107323254Y-78846008D01*
X107489850Y-78795472D01*
X107643386Y-78713405D01*
X107777962Y-78602962D01*
X107888405Y-78468386D01*
X107970472Y-78314850D01*
X108021008Y-78148254D01*
X108038072Y-77975000D01*
X108038072Y-77967060D01*
X108303140Y-77701992D01*
X108346449Y-77666449D01*
X108488284Y-77493623D01*
X108593676Y-77296447D01*
X108658577Y-77082499D01*
X108675000Y-76915752D01*
X108680491Y-76860000D01*
X108675000Y-76804248D01*
X108675000Y-75965107D01*
X108693475Y-75946632D01*
X108810000Y-75772240D01*
X108926525Y-75946632D01*
X108945000Y-75965107D01*
X108945001Y-76974239D01*
X108939509Y-77030000D01*
X108961423Y-77252498D01*
X109026324Y-77466446D01*
X109070096Y-77548337D01*
X109131717Y-77663623D01*
X109273552Y-77836449D01*
X109316860Y-77871991D01*
X109411928Y-77967059D01*
X109411928Y-77975000D01*
X109428992Y-78148254D01*
X109479528Y-78314850D01*
X109561595Y-78468386D01*
X109672038Y-78602962D01*
X109806614Y-78713405D01*
X109960150Y-78795472D01*
X110126746Y-78846008D01*
X110300000Y-78863072D01*
X110800000Y-78863072D01*
X110973254Y-78846008D01*
X111139850Y-78795472D01*
X111293386Y-78713405D01*
X111427962Y-78602962D01*
X111433342Y-78596406D01*
X111498815Y-78676185D01*
X111595506Y-78755537D01*
X111705820Y-78814502D01*
X111825518Y-78850812D01*
X111950000Y-78863072D01*
X112164250Y-78860000D01*
X112323000Y-78701250D01*
X112323000Y-77627000D01*
X112577000Y-77627000D01*
X112577000Y-78701250D01*
X112735750Y-78860000D01*
X112950000Y-78863072D01*
X113074482Y-78850812D01*
X113194180Y-78814502D01*
X113304494Y-78755537D01*
X113401185Y-78676185D01*
X113480537Y-78579494D01*
X113539502Y-78469180D01*
X113575812Y-78349482D01*
X113588072Y-78225000D01*
X113585000Y-77785750D01*
X113426250Y-77627000D01*
X112577000Y-77627000D01*
X112323000Y-77627000D01*
X112303000Y-77627000D01*
X112303000Y-77373000D01*
X112323000Y-77373000D01*
X112323000Y-77353000D01*
X112577000Y-77353000D01*
X112577000Y-77373000D01*
X113426250Y-77373000D01*
X113585000Y-77214250D01*
X113588072Y-76775000D01*
X113575812Y-76650518D01*
X113539502Y-76530820D01*
X113480537Y-76420506D01*
X113401185Y-76323815D01*
X113355719Y-76286502D01*
X113386920Y-76271641D01*
X113620269Y-76097588D01*
X113815178Y-75881355D01*
X113890000Y-75755745D01*
X113964822Y-75881355D01*
X114159731Y-76097588D01*
X114393080Y-76271641D01*
X114655901Y-76396825D01*
X114803110Y-76441476D01*
X115033000Y-76320155D01*
X115033000Y-75127000D01*
X115287000Y-75127000D01*
X115287000Y-76320155D01*
X115516890Y-76441476D01*
X115664099Y-76396825D01*
X115926920Y-76271641D01*
X116160269Y-76097588D01*
X116355178Y-75881355D01*
X116430000Y-75755745D01*
X116504822Y-75881355D01*
X116699731Y-76097588D01*
X116933080Y-76271641D01*
X117195901Y-76396825D01*
X117343110Y-76441476D01*
X117573000Y-76320155D01*
X117573000Y-75127000D01*
X117827000Y-75127000D01*
X117827000Y-76320155D01*
X118056890Y-76441476D01*
X118204099Y-76396825D01*
X118466920Y-76271641D01*
X118700269Y-76097588D01*
X118895178Y-75881355D01*
X118970000Y-75755745D01*
X119044822Y-75881355D01*
X119239731Y-76097588D01*
X119473080Y-76271641D01*
X119735901Y-76396825D01*
X119883110Y-76441476D01*
X120113000Y-76320155D01*
X120113000Y-75127000D01*
X120367000Y-75127000D01*
X120367000Y-76320155D01*
X120596890Y-76441476D01*
X120744099Y-76396825D01*
X121006920Y-76271641D01*
X121240269Y-76097588D01*
X121435178Y-75881355D01*
X121510000Y-75755745D01*
X121584822Y-75881355D01*
X121779731Y-76097588D01*
X122013080Y-76271641D01*
X122275901Y-76396825D01*
X122423110Y-76441476D01*
X122653000Y-76320155D01*
X122653000Y-75127000D01*
X122907000Y-75127000D01*
X122907000Y-76320155D01*
X123136890Y-76441476D01*
X123284099Y-76396825D01*
X123546920Y-76271641D01*
X123780269Y-76097588D01*
X123975178Y-75881355D01*
X124050000Y-75755745D01*
X124124822Y-75881355D01*
X124319731Y-76097588D01*
X124553080Y-76271641D01*
X124815901Y-76396825D01*
X124963110Y-76441476D01*
X125193000Y-76320155D01*
X125193000Y-75127000D01*
X125447000Y-75127000D01*
X125447000Y-76320155D01*
X125676890Y-76441476D01*
X125824099Y-76396825D01*
X126086920Y-76271641D01*
X126320269Y-76097588D01*
X126515178Y-75881355D01*
X126590000Y-75755745D01*
X126664822Y-75881355D01*
X126859731Y-76097588D01*
X127093080Y-76271641D01*
X127355901Y-76396825D01*
X127503110Y-76441476D01*
X127733000Y-76320155D01*
X127733000Y-75127000D01*
X127987000Y-75127000D01*
X127987000Y-76320155D01*
X128216890Y-76441476D01*
X128364099Y-76396825D01*
X128626920Y-76271641D01*
X128860269Y-76097588D01*
X129055178Y-75881355D01*
X129130000Y-75755745D01*
X129204822Y-75881355D01*
X129399731Y-76097588D01*
X129633080Y-76271641D01*
X129895901Y-76396825D01*
X130043110Y-76441476D01*
X130273000Y-76320155D01*
X130273000Y-75127000D01*
X130527000Y-75127000D01*
X130527000Y-76320155D01*
X130756890Y-76441476D01*
X130904099Y-76396825D01*
X131166920Y-76271641D01*
X131400269Y-76097588D01*
X131595178Y-75881355D01*
X131670000Y-75755745D01*
X131744822Y-75881355D01*
X131939731Y-76097588D01*
X132173080Y-76271641D01*
X132435901Y-76396825D01*
X132583110Y-76441476D01*
X132813000Y-76320155D01*
X132813000Y-75127000D01*
X133067000Y-75127000D01*
X133067000Y-76320155D01*
X133296890Y-76441476D01*
X133444099Y-76396825D01*
X133706920Y-76271641D01*
X133940269Y-76097588D01*
X134135178Y-75881355D01*
X134153855Y-75850000D01*
X136011928Y-75850000D01*
X136024188Y-75974482D01*
X136060498Y-76094180D01*
X136119463Y-76204494D01*
X136198815Y-76301185D01*
X136295506Y-76380537D01*
X136405820Y-76439502D01*
X136525518Y-76475812D01*
X136650000Y-76488072D01*
X137214250Y-76485000D01*
X137373000Y-76326250D01*
X137373000Y-75127000D01*
X137627000Y-75127000D01*
X137627000Y-76326250D01*
X137785750Y-76485000D01*
X138350000Y-76488072D01*
X138474482Y-76475812D01*
X138594180Y-76439502D01*
X138704494Y-76380537D01*
X138801185Y-76301185D01*
X138880537Y-76204494D01*
X138939502Y-76094180D01*
X138963966Y-76013534D01*
X139039731Y-76097588D01*
X139273080Y-76271641D01*
X139535901Y-76396825D01*
X139683110Y-76441476D01*
X139913000Y-76320155D01*
X139913000Y-75127000D01*
X140167000Y-75127000D01*
X140167000Y-76320155D01*
X140396890Y-76441476D01*
X140544099Y-76396825D01*
X140806920Y-76271641D01*
X141040269Y-76097588D01*
X141235178Y-75881355D01*
X141310000Y-75755745D01*
X141384822Y-75881355D01*
X141579731Y-76097588D01*
X141813080Y-76271641D01*
X142075901Y-76396825D01*
X142223110Y-76441476D01*
X142453000Y-76320155D01*
X142453000Y-75127000D01*
X142707000Y-75127000D01*
X142707000Y-76320155D01*
X142936890Y-76441476D01*
X143084099Y-76396825D01*
X143346920Y-76271641D01*
X143580269Y-76097588D01*
X143775178Y-75881355D01*
X143850000Y-75755745D01*
X143924822Y-75881355D01*
X144119731Y-76097588D01*
X144353080Y-76271641D01*
X144615901Y-76396825D01*
X144763110Y-76441476D01*
X144993000Y-76320155D01*
X144993000Y-75127000D01*
X142707000Y-75127000D01*
X142453000Y-75127000D01*
X140167000Y-75127000D01*
X139913000Y-75127000D01*
X137627000Y-75127000D01*
X137373000Y-75127000D01*
X136173750Y-75127000D01*
X136015000Y-75285750D01*
X136011928Y-75850000D01*
X134153855Y-75850000D01*
X134284157Y-75631252D01*
X134381481Y-75356891D01*
X134260814Y-75127000D01*
X133067000Y-75127000D01*
X132813000Y-75127000D01*
X130527000Y-75127000D01*
X130273000Y-75127000D01*
X127987000Y-75127000D01*
X127733000Y-75127000D01*
X125447000Y-75127000D01*
X125193000Y-75127000D01*
X122907000Y-75127000D01*
X122653000Y-75127000D01*
X120367000Y-75127000D01*
X120113000Y-75127000D01*
X117827000Y-75127000D01*
X117573000Y-75127000D01*
X115287000Y-75127000D01*
X115033000Y-75127000D01*
X112747000Y-75127000D01*
X112747000Y-75147000D01*
X112493000Y-75147000D01*
X112493000Y-75127000D01*
X112473000Y-75127000D01*
X112473000Y-74873000D01*
X112493000Y-74873000D01*
X112493000Y-73679845D01*
X112747000Y-73679845D01*
X112747000Y-74873000D01*
X115033000Y-74873000D01*
X115033000Y-73679845D01*
X115287000Y-73679845D01*
X115287000Y-74873000D01*
X117573000Y-74873000D01*
X117573000Y-73679845D01*
X117827000Y-73679845D01*
X117827000Y-74873000D01*
X120113000Y-74873000D01*
X120113000Y-73679845D01*
X120367000Y-73679845D01*
X120367000Y-74873000D01*
X122653000Y-74873000D01*
X122653000Y-73679845D01*
X122907000Y-73679845D01*
X122907000Y-74873000D01*
X125193000Y-74873000D01*
X125193000Y-73679845D01*
X125447000Y-73679845D01*
X125447000Y-74873000D01*
X127733000Y-74873000D01*
X127733000Y-73679845D01*
X127987000Y-73679845D01*
X127987000Y-74873000D01*
X130273000Y-74873000D01*
X130273000Y-73679845D01*
X130527000Y-73679845D01*
X130527000Y-74873000D01*
X132813000Y-74873000D01*
X132813000Y-73679845D01*
X133067000Y-73679845D01*
X133067000Y-74873000D01*
X134260814Y-74873000D01*
X134381481Y-74643109D01*
X134284157Y-74368748D01*
X134153856Y-74150000D01*
X136011928Y-74150000D01*
X136015000Y-74714250D01*
X136173750Y-74873000D01*
X137373000Y-74873000D01*
X137373000Y-73673750D01*
X137627000Y-73673750D01*
X137627000Y-74873000D01*
X139913000Y-74873000D01*
X139913000Y-73679845D01*
X140167000Y-73679845D01*
X140167000Y-74873000D01*
X142453000Y-74873000D01*
X142453000Y-73679845D01*
X142223110Y-73558524D01*
X142075901Y-73603175D01*
X141813080Y-73728359D01*
X141579731Y-73902412D01*
X141384822Y-74118645D01*
X141310000Y-74244255D01*
X141235178Y-74118645D01*
X141040269Y-73902412D01*
X140806920Y-73728359D01*
X140544099Y-73603175D01*
X140396890Y-73558524D01*
X140167000Y-73679845D01*
X139913000Y-73679845D01*
X139683110Y-73558524D01*
X139535901Y-73603175D01*
X139273080Y-73728359D01*
X139039731Y-73902412D01*
X138963966Y-73986466D01*
X138939502Y-73905820D01*
X138880537Y-73795506D01*
X138801185Y-73698815D01*
X138704494Y-73619463D01*
X138594180Y-73560498D01*
X138474482Y-73524188D01*
X138350000Y-73511928D01*
X137785750Y-73515000D01*
X137627000Y-73673750D01*
X137373000Y-73673750D01*
X137214250Y-73515000D01*
X136650000Y-73511928D01*
X136525518Y-73524188D01*
X136405820Y-73560498D01*
X136295506Y-73619463D01*
X136198815Y-73698815D01*
X136119463Y-73795506D01*
X136060498Y-73905820D01*
X136024188Y-74025518D01*
X136011928Y-74150000D01*
X134153856Y-74150000D01*
X134135178Y-74118645D01*
X133940269Y-73902412D01*
X133706920Y-73728359D01*
X133444099Y-73603175D01*
X133296890Y-73558524D01*
X133067000Y-73679845D01*
X132813000Y-73679845D01*
X132583110Y-73558524D01*
X132435901Y-73603175D01*
X132173080Y-73728359D01*
X131939731Y-73902412D01*
X131744822Y-74118645D01*
X131670000Y-74244255D01*
X131595178Y-74118645D01*
X131400269Y-73902412D01*
X131166920Y-73728359D01*
X130904099Y-73603175D01*
X130756890Y-73558524D01*
X130527000Y-73679845D01*
X130273000Y-73679845D01*
X130043110Y-73558524D01*
X129895901Y-73603175D01*
X129633080Y-73728359D01*
X129399731Y-73902412D01*
X129204822Y-74118645D01*
X129130000Y-74244255D01*
X129055178Y-74118645D01*
X128860269Y-73902412D01*
X128626920Y-73728359D01*
X128364099Y-73603175D01*
X128216890Y-73558524D01*
X127987000Y-73679845D01*
X127733000Y-73679845D01*
X127503110Y-73558524D01*
X127355901Y-73603175D01*
X127093080Y-73728359D01*
X126859731Y-73902412D01*
X126664822Y-74118645D01*
X126590000Y-74244255D01*
X126515178Y-74118645D01*
X126320269Y-73902412D01*
X126086920Y-73728359D01*
X125824099Y-73603175D01*
X125676890Y-73558524D01*
X125447000Y-73679845D01*
X125193000Y-73679845D01*
X124963110Y-73558524D01*
X124815901Y-73603175D01*
X124553080Y-73728359D01*
X124319731Y-73902412D01*
X124124822Y-74118645D01*
X124050000Y-74244255D01*
X123975178Y-74118645D01*
X123780269Y-73902412D01*
X123546920Y-73728359D01*
X123284099Y-73603175D01*
X123136890Y-73558524D01*
X122907000Y-73679845D01*
X122653000Y-73679845D01*
X122423110Y-73558524D01*
X122275901Y-73603175D01*
X122013080Y-73728359D01*
X121779731Y-73902412D01*
X121584822Y-74118645D01*
X121510000Y-74244255D01*
X121435178Y-74118645D01*
X121240269Y-73902412D01*
X121006920Y-73728359D01*
X120744099Y-73603175D01*
X120596890Y-73558524D01*
X120367000Y-73679845D01*
X120113000Y-73679845D01*
X119883110Y-73558524D01*
X119735901Y-73603175D01*
X119473080Y-73728359D01*
X119239731Y-73902412D01*
X119044822Y-74118645D01*
X118970000Y-74244255D01*
X118895178Y-74118645D01*
X118700269Y-73902412D01*
X118466920Y-73728359D01*
X118204099Y-73603175D01*
X118056890Y-73558524D01*
X117827000Y-73679845D01*
X117573000Y-73679845D01*
X117343110Y-73558524D01*
X117195901Y-73603175D01*
X116933080Y-73728359D01*
X116699731Y-73902412D01*
X116504822Y-74118645D01*
X116430000Y-74244255D01*
X116355178Y-74118645D01*
X116160269Y-73902412D01*
X115926920Y-73728359D01*
X115664099Y-73603175D01*
X115516890Y-73558524D01*
X115287000Y-73679845D01*
X115033000Y-73679845D01*
X114803110Y-73558524D01*
X114655901Y-73603175D01*
X114393080Y-73728359D01*
X114159731Y-73902412D01*
X113964822Y-74118645D01*
X113890000Y-74244255D01*
X113815178Y-74118645D01*
X113620269Y-73902412D01*
X113386920Y-73728359D01*
X113124099Y-73603175D01*
X112976890Y-73558524D01*
X112747000Y-73679845D01*
X112493000Y-73679845D01*
X112263110Y-73558524D01*
X112115901Y-73603175D01*
X111853080Y-73728359D01*
X111619731Y-73902412D01*
X111424822Y-74118645D01*
X111355195Y-74235534D01*
X111233475Y-74053368D01*
X111026632Y-73846525D01*
X110783411Y-73684010D01*
X110513158Y-73572068D01*
X110226260Y-73515000D01*
X109933740Y-73515000D01*
X109646842Y-73572068D01*
X109376589Y-73684010D01*
X109133368Y-73846525D01*
X108926525Y-74053368D01*
X108810000Y-74227760D01*
X108693475Y-74053368D01*
X108486632Y-73846525D01*
X108243411Y-73684010D01*
X107973158Y-73572068D01*
X107686260Y-73515000D01*
X107393740Y-73515000D01*
X107106842Y-73572068D01*
X106836589Y-73684010D01*
X106593368Y-73846525D01*
X106461513Y-73978380D01*
X106439502Y-73905820D01*
X106380537Y-73795506D01*
X106301185Y-73698815D01*
X106204494Y-73619463D01*
X106094180Y-73560498D01*
X105974482Y-73524188D01*
X105850000Y-73511928D01*
X105285750Y-73515000D01*
X105127000Y-73673750D01*
X104873000Y-73673750D01*
X104714250Y-73515000D01*
X104150000Y-73511928D01*
X104025518Y-73524188D01*
X103905820Y-73560498D01*
X103795506Y-73619463D01*
X103698815Y-73698815D01*
X103619463Y-73795506D01*
X103560498Y-73905820D01*
X103524188Y-74025518D01*
X103511928Y-74150000D01*
X102248962Y-74150000D01*
X102270403Y-74129223D01*
X102910451Y-73699129D01*
X103616553Y-73389171D01*
X104371457Y-73207935D01*
X105024207Y-73160000D01*
X142470608Y-73160000D01*
X143268083Y-73231173D01*
%TA.AperFunction,Conductor*%
D14*
G36*
X143268083Y-73231173D02*
G01*
X144011891Y-73434656D01*
X144490462Y-73662923D01*
X144353080Y-73728359D01*
X144119731Y-73902412D01*
X143924822Y-74118645D01*
X143850000Y-74244255D01*
X143775178Y-74118645D01*
X143580269Y-73902412D01*
X143346920Y-73728359D01*
X143084099Y-73603175D01*
X142936890Y-73558524D01*
X142707000Y-73679845D01*
X142707000Y-74873000D01*
X144993000Y-74873000D01*
X144993000Y-74853000D01*
X145247000Y-74853000D01*
X145247000Y-74873000D01*
X145267000Y-74873000D01*
X145267000Y-75127000D01*
X145247000Y-75127000D01*
X145247000Y-76320155D01*
X145476890Y-76441476D01*
X145624099Y-76396825D01*
X145886920Y-76271641D01*
X146120269Y-76097588D01*
X146315178Y-75881355D01*
X146425951Y-75695391D01*
X146610829Y-76116553D01*
X146792065Y-76871457D01*
X146840000Y-77524207D01*
X146840001Y-112470597D01*
X146768827Y-113268083D01*
X146565344Y-114011890D01*
X146425826Y-114304398D01*
X146315178Y-114118645D01*
X146120269Y-113902412D01*
X145886920Y-113728359D01*
X145624099Y-113603175D01*
X145476890Y-113558524D01*
X145247000Y-113679845D01*
X145247000Y-114873000D01*
X145267000Y-114873000D01*
X145267000Y-115127000D01*
X145247000Y-115127000D01*
X145247000Y-115147000D01*
X144993000Y-115147000D01*
X144993000Y-115127000D01*
X142707000Y-115127000D01*
X142707000Y-116320155D01*
X142936890Y-116441476D01*
X143084099Y-116396825D01*
X143346920Y-116271641D01*
X143580269Y-116097588D01*
X143775178Y-115881355D01*
X143850000Y-115755745D01*
X143924822Y-115881355D01*
X144119731Y-116097588D01*
X144353080Y-116271641D01*
X144498427Y-116340871D01*
X143883447Y-116610829D01*
X143128543Y-116792065D01*
X142475793Y-116840000D01*
X105029392Y-116840000D01*
X104231917Y-116768827D01*
X103488110Y-116565344D01*
X102792096Y-116233363D01*
X102258590Y-115850000D01*
X103511928Y-115850000D01*
X103524188Y-115974482D01*
X103560498Y-116094180D01*
X103619463Y-116204494D01*
X103698815Y-116301185D01*
X103795506Y-116380537D01*
X103905820Y-116439502D01*
X104025518Y-116475812D01*
X104150000Y-116488072D01*
X104714250Y-116485000D01*
X104873000Y-116326250D01*
X104873000Y-115127000D01*
X105127000Y-115127000D01*
X105127000Y-116326250D01*
X105285750Y-116485000D01*
X105850000Y-116488072D01*
X105974482Y-116475812D01*
X106094180Y-116439502D01*
X106204494Y-116380537D01*
X106301185Y-116301185D01*
X106380537Y-116204494D01*
X106439502Y-116094180D01*
X106463966Y-116013534D01*
X106539731Y-116097588D01*
X106773080Y-116271641D01*
X107035901Y-116396825D01*
X107183110Y-116441476D01*
X107413000Y-116320155D01*
X107413000Y-115127000D01*
X107667000Y-115127000D01*
X107667000Y-116320155D01*
X107896890Y-116441476D01*
X108044099Y-116396825D01*
X108306920Y-116271641D01*
X108540269Y-116097588D01*
X108735178Y-115881355D01*
X108810000Y-115755745D01*
X108884822Y-115881355D01*
X109079731Y-116097588D01*
X109313080Y-116271641D01*
X109575901Y-116396825D01*
X109723110Y-116441476D01*
X109953000Y-116320155D01*
X109953000Y-115127000D01*
X110207000Y-115127000D01*
X110207000Y-116320155D01*
X110436890Y-116441476D01*
X110584099Y-116396825D01*
X110846920Y-116271641D01*
X111080269Y-116097588D01*
X111275178Y-115881355D01*
X111350000Y-115755745D01*
X111424822Y-115881355D01*
X111619731Y-116097588D01*
X111853080Y-116271641D01*
X112115901Y-116396825D01*
X112263110Y-116441476D01*
X112493000Y-116320155D01*
X112493000Y-115127000D01*
X112747000Y-115127000D01*
X112747000Y-116320155D01*
X112976890Y-116441476D01*
X113124099Y-116396825D01*
X113386920Y-116271641D01*
X113620269Y-116097588D01*
X113815178Y-115881355D01*
X113890000Y-115755745D01*
X113964822Y-115881355D01*
X114159731Y-116097588D01*
X114393080Y-116271641D01*
X114655901Y-116396825D01*
X114803110Y-116441476D01*
X115033000Y-116320155D01*
X115033000Y-115127000D01*
X115287000Y-115127000D01*
X115287000Y-116320155D01*
X115516890Y-116441476D01*
X115664099Y-116396825D01*
X115926920Y-116271641D01*
X116160269Y-116097588D01*
X116355178Y-115881355D01*
X116430000Y-115755745D01*
X116504822Y-115881355D01*
X116699731Y-116097588D01*
X116933080Y-116271641D01*
X117195901Y-116396825D01*
X117343110Y-116441476D01*
X117573000Y-116320155D01*
X117573000Y-115127000D01*
X117827000Y-115127000D01*
X117827000Y-116320155D01*
X118056890Y-116441476D01*
X118204099Y-116396825D01*
X118466920Y-116271641D01*
X118700269Y-116097588D01*
X118895178Y-115881355D01*
X118970000Y-115755745D01*
X119044822Y-115881355D01*
X119239731Y-116097588D01*
X119473080Y-116271641D01*
X119735901Y-116396825D01*
X119883110Y-116441476D01*
X120113000Y-116320155D01*
X120113000Y-115127000D01*
X120367000Y-115127000D01*
X120367000Y-116320155D01*
X120596890Y-116441476D01*
X120744099Y-116396825D01*
X121006920Y-116271641D01*
X121240269Y-116097588D01*
X121435178Y-115881355D01*
X121510000Y-115755745D01*
X121584822Y-115881355D01*
X121779731Y-116097588D01*
X122013080Y-116271641D01*
X122275901Y-116396825D01*
X122423110Y-116441476D01*
X122653000Y-116320155D01*
X122653000Y-115127000D01*
X122907000Y-115127000D01*
X122907000Y-116320155D01*
X123136890Y-116441476D01*
X123284099Y-116396825D01*
X123546920Y-116271641D01*
X123780269Y-116097588D01*
X123975178Y-115881355D01*
X124050000Y-115755745D01*
X124124822Y-115881355D01*
X124319731Y-116097588D01*
X124553080Y-116271641D01*
X124815901Y-116396825D01*
X124963110Y-116441476D01*
X125193000Y-116320155D01*
X125193000Y-115127000D01*
X125447000Y-115127000D01*
X125447000Y-116320155D01*
X125676890Y-116441476D01*
X125824099Y-116396825D01*
X126086920Y-116271641D01*
X126320269Y-116097588D01*
X126515178Y-115881355D01*
X126590000Y-115755745D01*
X126664822Y-115881355D01*
X126859731Y-116097588D01*
X127093080Y-116271641D01*
X127355901Y-116396825D01*
X127503110Y-116441476D01*
X127733000Y-116320155D01*
X127733000Y-115127000D01*
X127987000Y-115127000D01*
X127987000Y-116320155D01*
X128216890Y-116441476D01*
X128364099Y-116396825D01*
X128626920Y-116271641D01*
X128860269Y-116097588D01*
X129055178Y-115881355D01*
X129130000Y-115755745D01*
X129204822Y-115881355D01*
X129399731Y-116097588D01*
X129633080Y-116271641D01*
X129895901Y-116396825D01*
X130043110Y-116441476D01*
X130273000Y-116320155D01*
X130273000Y-115127000D01*
X130527000Y-115127000D01*
X130527000Y-116320155D01*
X130756890Y-116441476D01*
X130904099Y-116396825D01*
X131166920Y-116271641D01*
X131400269Y-116097588D01*
X131595178Y-115881355D01*
X131670000Y-115755745D01*
X131744822Y-115881355D01*
X131939731Y-116097588D01*
X132173080Y-116271641D01*
X132435901Y-116396825D01*
X132583110Y-116441476D01*
X132813000Y-116320155D01*
X132813000Y-115127000D01*
X133067000Y-115127000D01*
X133067000Y-116320155D01*
X133296890Y-116441476D01*
X133444099Y-116396825D01*
X133706920Y-116271641D01*
X133940269Y-116097588D01*
X134135178Y-115881355D01*
X134153855Y-115850000D01*
X136011928Y-115850000D01*
X136024188Y-115974482D01*
X136060498Y-116094180D01*
X136119463Y-116204494D01*
X136198815Y-116301185D01*
X136295506Y-116380537D01*
X136405820Y-116439502D01*
X136525518Y-116475812D01*
X136650000Y-116488072D01*
X137214250Y-116485000D01*
X137373000Y-116326250D01*
X137373000Y-115127000D01*
X137627000Y-115127000D01*
X137627000Y-116326250D01*
X137785750Y-116485000D01*
X138350000Y-116488072D01*
X138474482Y-116475812D01*
X138594180Y-116439502D01*
X138704494Y-116380537D01*
X138801185Y-116301185D01*
X138880537Y-116204494D01*
X138939502Y-116094180D01*
X138963966Y-116013534D01*
X139039731Y-116097588D01*
X139273080Y-116271641D01*
X139535901Y-116396825D01*
X139683110Y-116441476D01*
X139913000Y-116320155D01*
X139913000Y-115127000D01*
X140167000Y-115127000D01*
X140167000Y-116320155D01*
X140396890Y-116441476D01*
X140544099Y-116396825D01*
X140806920Y-116271641D01*
X141040269Y-116097588D01*
X141235178Y-115881355D01*
X141310000Y-115755745D01*
X141384822Y-115881355D01*
X141579731Y-116097588D01*
X141813080Y-116271641D01*
X142075901Y-116396825D01*
X142223110Y-116441476D01*
X142453000Y-116320155D01*
X142453000Y-115127000D01*
X140167000Y-115127000D01*
X139913000Y-115127000D01*
X137627000Y-115127000D01*
X137373000Y-115127000D01*
X136173750Y-115127000D01*
X136015000Y-115285750D01*
X136011928Y-115850000D01*
X134153855Y-115850000D01*
X134284157Y-115631252D01*
X134381481Y-115356891D01*
X134260814Y-115127000D01*
X133067000Y-115127000D01*
X132813000Y-115127000D01*
X130527000Y-115127000D01*
X130273000Y-115127000D01*
X127987000Y-115127000D01*
X127733000Y-115127000D01*
X125447000Y-115127000D01*
X125193000Y-115127000D01*
X122907000Y-115127000D01*
X122653000Y-115127000D01*
X120367000Y-115127000D01*
X120113000Y-115127000D01*
X117827000Y-115127000D01*
X117573000Y-115127000D01*
X115287000Y-115127000D01*
X115033000Y-115127000D01*
X112747000Y-115127000D01*
X112493000Y-115127000D01*
X110207000Y-115127000D01*
X109953000Y-115127000D01*
X107667000Y-115127000D01*
X107413000Y-115127000D01*
X105127000Y-115127000D01*
X104873000Y-115127000D01*
X103673750Y-115127000D01*
X103515000Y-115285750D01*
X103511928Y-115850000D01*
X102258590Y-115850000D01*
X102165870Y-115783374D01*
X101629223Y-115229597D01*
X101199129Y-114589549D01*
X101006180Y-114150000D01*
X103511928Y-114150000D01*
X103515000Y-114714250D01*
X103673750Y-114873000D01*
X104873000Y-114873000D01*
X104873000Y-113673750D01*
X105127000Y-113673750D01*
X105127000Y-114873000D01*
X107413000Y-114873000D01*
X107413000Y-113679845D01*
X107667000Y-113679845D01*
X107667000Y-114873000D01*
X109953000Y-114873000D01*
X109953000Y-113679845D01*
X110207000Y-113679845D01*
X110207000Y-114873000D01*
X112493000Y-114873000D01*
X112493000Y-113679845D01*
X112747000Y-113679845D01*
X112747000Y-114873000D01*
X115033000Y-114873000D01*
X115033000Y-113679845D01*
X115287000Y-113679845D01*
X115287000Y-114873000D01*
X117573000Y-114873000D01*
X117573000Y-113679845D01*
X117827000Y-113679845D01*
X117827000Y-114873000D01*
X120113000Y-114873000D01*
X120113000Y-113679845D01*
X120367000Y-113679845D01*
X120367000Y-114873000D01*
X122653000Y-114873000D01*
X122653000Y-113679845D01*
X122907000Y-113679845D01*
X122907000Y-114873000D01*
X125193000Y-114873000D01*
X125193000Y-113679845D01*
X125447000Y-113679845D01*
X125447000Y-114873000D01*
X127733000Y-114873000D01*
X127733000Y-113679845D01*
X127987000Y-113679845D01*
X127987000Y-114873000D01*
X130273000Y-114873000D01*
X130273000Y-113679845D01*
X130527000Y-113679845D01*
X130527000Y-114873000D01*
X132813000Y-114873000D01*
X132813000Y-113679845D01*
X133067000Y-113679845D01*
X133067000Y-114873000D01*
X134260814Y-114873000D01*
X134381481Y-114643109D01*
X134284157Y-114368748D01*
X134153856Y-114150000D01*
X136011928Y-114150000D01*
X136015000Y-114714250D01*
X136173750Y-114873000D01*
X137373000Y-114873000D01*
X137373000Y-113673750D01*
X137627000Y-113673750D01*
X137627000Y-114873000D01*
X139913000Y-114873000D01*
X139913000Y-113679845D01*
X140167000Y-113679845D01*
X140167000Y-114873000D01*
X142453000Y-114873000D01*
X142453000Y-113679845D01*
X142707000Y-113679845D01*
X142707000Y-114873000D01*
X144993000Y-114873000D01*
X144993000Y-113679845D01*
X144763110Y-113558524D01*
X144615901Y-113603175D01*
X144353080Y-113728359D01*
X144119731Y-113902412D01*
X143924822Y-114118645D01*
X143850000Y-114244255D01*
X143775178Y-114118645D01*
X143580269Y-113902412D01*
X143346920Y-113728359D01*
X143084099Y-113603175D01*
X142936890Y-113558524D01*
X142707000Y-113679845D01*
X142453000Y-113679845D01*
X142223110Y-113558524D01*
X142075901Y-113603175D01*
X141813080Y-113728359D01*
X141579731Y-113902412D01*
X141384822Y-114118645D01*
X141310000Y-114244255D01*
X141235178Y-114118645D01*
X141040269Y-113902412D01*
X140806920Y-113728359D01*
X140544099Y-113603175D01*
X140396890Y-113558524D01*
X140167000Y-113679845D01*
X139913000Y-113679845D01*
X139683110Y-113558524D01*
X139535901Y-113603175D01*
X139273080Y-113728359D01*
X139039731Y-113902412D01*
X138963966Y-113986466D01*
X138939502Y-113905820D01*
X138880537Y-113795506D01*
X138801185Y-113698815D01*
X138704494Y-113619463D01*
X138594180Y-113560498D01*
X138474482Y-113524188D01*
X138350000Y-113511928D01*
X137785750Y-113515000D01*
X137627000Y-113673750D01*
X137373000Y-113673750D01*
X137214250Y-113515000D01*
X136650000Y-113511928D01*
X136525518Y-113524188D01*
X136405820Y-113560498D01*
X136295506Y-113619463D01*
X136198815Y-113698815D01*
X136119463Y-113795506D01*
X136060498Y-113905820D01*
X136024188Y-114025518D01*
X136011928Y-114150000D01*
X134153856Y-114150000D01*
X134135178Y-114118645D01*
X133940269Y-113902412D01*
X133706920Y-113728359D01*
X133444099Y-113603175D01*
X133296890Y-113558524D01*
X133067000Y-113679845D01*
X132813000Y-113679845D01*
X132583110Y-113558524D01*
X132435901Y-113603175D01*
X132173080Y-113728359D01*
X131939731Y-113902412D01*
X131744822Y-114118645D01*
X131670000Y-114244255D01*
X131595178Y-114118645D01*
X131400269Y-113902412D01*
X131166920Y-113728359D01*
X130904099Y-113603175D01*
X130756890Y-113558524D01*
X130527000Y-113679845D01*
X130273000Y-113679845D01*
X130043110Y-113558524D01*
X129895901Y-113603175D01*
X129633080Y-113728359D01*
X129399731Y-113902412D01*
X129204822Y-114118645D01*
X129130000Y-114244255D01*
X129055178Y-114118645D01*
X128860269Y-113902412D01*
X128626920Y-113728359D01*
X128364099Y-113603175D01*
X128216890Y-113558524D01*
X127987000Y-113679845D01*
X127733000Y-113679845D01*
X127503110Y-113558524D01*
X127355901Y-113603175D01*
X127093080Y-113728359D01*
X126859731Y-113902412D01*
X126664822Y-114118645D01*
X126590000Y-114244255D01*
X126515178Y-114118645D01*
X126320269Y-113902412D01*
X126086920Y-113728359D01*
X125824099Y-113603175D01*
X125676890Y-113558524D01*
X125447000Y-113679845D01*
X125193000Y-113679845D01*
X124963110Y-113558524D01*
X124815901Y-113603175D01*
X124553080Y-113728359D01*
X124319731Y-113902412D01*
X124124822Y-114118645D01*
X124050000Y-114244255D01*
X123975178Y-114118645D01*
X123780269Y-113902412D01*
X123546920Y-113728359D01*
X123284099Y-113603175D01*
X123136890Y-113558524D01*
X122907000Y-113679845D01*
X122653000Y-113679845D01*
X122423110Y-113558524D01*
X122275901Y-113603175D01*
X122013080Y-113728359D01*
X121779731Y-113902412D01*
X121584822Y-114118645D01*
X121510000Y-114244255D01*
X121435178Y-114118645D01*
X121240269Y-113902412D01*
X121006920Y-113728359D01*
X120744099Y-113603175D01*
X120596890Y-113558524D01*
X120367000Y-113679845D01*
X120113000Y-113679845D01*
X119883110Y-113558524D01*
X119735901Y-113603175D01*
X119473080Y-113728359D01*
X119239731Y-113902412D01*
X119044822Y-114118645D01*
X118970000Y-114244255D01*
X118895178Y-114118645D01*
X118700269Y-113902412D01*
X118466920Y-113728359D01*
X118204099Y-113603175D01*
X118056890Y-113558524D01*
X117827000Y-113679845D01*
X117573000Y-113679845D01*
X117343110Y-113558524D01*
X117195901Y-113603175D01*
X116933080Y-113728359D01*
X116699731Y-113902412D01*
X116504822Y-114118645D01*
X116430000Y-114244255D01*
X116355178Y-114118645D01*
X116160269Y-113902412D01*
X115926920Y-113728359D01*
X115664099Y-113603175D01*
X115516890Y-113558524D01*
X115287000Y-113679845D01*
X115033000Y-113679845D01*
X114803110Y-113558524D01*
X114655901Y-113603175D01*
X114393080Y-113728359D01*
X114159731Y-113902412D01*
X113964822Y-114118645D01*
X113890000Y-114244255D01*
X113815178Y-114118645D01*
X113620269Y-113902412D01*
X113386920Y-113728359D01*
X113124099Y-113603175D01*
X112976890Y-113558524D01*
X112747000Y-113679845D01*
X112493000Y-113679845D01*
X112263110Y-113558524D01*
X112115901Y-113603175D01*
X111853080Y-113728359D01*
X111619731Y-113902412D01*
X111424822Y-114118645D01*
X111350000Y-114244255D01*
X111275178Y-114118645D01*
X111080269Y-113902412D01*
X110846920Y-113728359D01*
X110584099Y-113603175D01*
X110436890Y-113558524D01*
X110207000Y-113679845D01*
X109953000Y-113679845D01*
X109723110Y-113558524D01*
X109575901Y-113603175D01*
X109313080Y-113728359D01*
X109079731Y-113902412D01*
X108884822Y-114118645D01*
X108810000Y-114244255D01*
X108735178Y-114118645D01*
X108540269Y-113902412D01*
X108306920Y-113728359D01*
X108044099Y-113603175D01*
X107896890Y-113558524D01*
X107667000Y-113679845D01*
X107413000Y-113679845D01*
X107183110Y-113558524D01*
X107035901Y-113603175D01*
X106773080Y-113728359D01*
X106539731Y-113902412D01*
X106463966Y-113986466D01*
X106439502Y-113905820D01*
X106380537Y-113795506D01*
X106301185Y-113698815D01*
X106204494Y-113619463D01*
X106094180Y-113560498D01*
X105974482Y-113524188D01*
X105850000Y-113511928D01*
X105285750Y-113515000D01*
X105127000Y-113673750D01*
X104873000Y-113673750D01*
X104714250Y-113515000D01*
X104150000Y-113511928D01*
X104025518Y-113524188D01*
X103905820Y-113560498D01*
X103795506Y-113619463D01*
X103698815Y-113698815D01*
X103619463Y-113795506D01*
X103560498Y-113905820D01*
X103524188Y-114025518D01*
X103511928Y-114150000D01*
X101006180Y-114150000D01*
X100889171Y-113883447D01*
X100707935Y-113128543D01*
X100660000Y-112475793D01*
X100660000Y-110476890D01*
X101058524Y-110476890D01*
X101103175Y-110624099D01*
X101228359Y-110886920D01*
X101402412Y-111120269D01*
X101618645Y-111315178D01*
X101868748Y-111464157D01*
X102143109Y-111561481D01*
X102373000Y-111440814D01*
X102373000Y-110247000D01*
X102627000Y-110247000D01*
X102627000Y-111440814D01*
X102856891Y-111561481D01*
X103131252Y-111464157D01*
X103381355Y-111315178D01*
X103597588Y-111120269D01*
X103771641Y-110886920D01*
X103896825Y-110624099D01*
X103905077Y-110596890D01*
X143558524Y-110596890D01*
X143603175Y-110744099D01*
X143728359Y-111006920D01*
X143902412Y-111240269D01*
X144118645Y-111435178D01*
X144368748Y-111584157D01*
X144643109Y-111681481D01*
X144873000Y-111560814D01*
X144873000Y-110367000D01*
X145127000Y-110367000D01*
X145127000Y-111560814D01*
X145356891Y-111681481D01*
X145631252Y-111584157D01*
X145881355Y-111435178D01*
X146097588Y-111240269D01*
X146271641Y-111006920D01*
X146396825Y-110744099D01*
X146441476Y-110596890D01*
X146320155Y-110367000D01*
X145127000Y-110367000D01*
X144873000Y-110367000D01*
X143679845Y-110367000D01*
X143558524Y-110596890D01*
X103905077Y-110596890D01*
X103941476Y-110476890D01*
X103820155Y-110247000D01*
X102627000Y-110247000D01*
X102373000Y-110247000D01*
X101179845Y-110247000D01*
X101058524Y-110476890D01*
X100660000Y-110476890D01*
X100660000Y-107936890D01*
X101058524Y-107936890D01*
X101103175Y-108084099D01*
X101228359Y-108346920D01*
X101402412Y-108580269D01*
X101618645Y-108775178D01*
X101744255Y-108850000D01*
X101618645Y-108924822D01*
X101402412Y-109119731D01*
X101228359Y-109353080D01*
X101103175Y-109615901D01*
X101058524Y-109763110D01*
X101179845Y-109993000D01*
X102373000Y-109993000D01*
X102373000Y-107707000D01*
X102627000Y-107707000D01*
X102627000Y-109993000D01*
X103820155Y-109993000D01*
X103941476Y-109763110D01*
X103896825Y-109615901D01*
X103771641Y-109353080D01*
X103597588Y-109119731D01*
X103381355Y-108924822D01*
X103255745Y-108850000D01*
X103381355Y-108775178D01*
X103597588Y-108580269D01*
X103771641Y-108346920D01*
X103896825Y-108084099D01*
X103905077Y-108056890D01*
X143558524Y-108056890D01*
X143603175Y-108204099D01*
X143728359Y-108466920D01*
X143902412Y-108700269D01*
X144118645Y-108895178D01*
X144244255Y-108970000D01*
X144118645Y-109044822D01*
X143902412Y-109239731D01*
X143728359Y-109473080D01*
X143603175Y-109735901D01*
X143558524Y-109883110D01*
X143679845Y-110113000D01*
X144873000Y-110113000D01*
X144873000Y-107827000D01*
X145127000Y-107827000D01*
X145127000Y-110113000D01*
X146320155Y-110113000D01*
X146441476Y-109883110D01*
X146396825Y-109735901D01*
X146271641Y-109473080D01*
X146097588Y-109239731D01*
X145881355Y-109044822D01*
X145755745Y-108970000D01*
X145881355Y-108895178D01*
X146097588Y-108700269D01*
X146271641Y-108466920D01*
X146396825Y-108204099D01*
X146441476Y-108056890D01*
X146320155Y-107827000D01*
X145127000Y-107827000D01*
X144873000Y-107827000D01*
X143679845Y-107827000D01*
X143558524Y-108056890D01*
X103905077Y-108056890D01*
X103941476Y-107936890D01*
X103820155Y-107707000D01*
X102627000Y-107707000D01*
X102373000Y-107707000D01*
X101179845Y-107707000D01*
X101058524Y-107936890D01*
X100660000Y-107936890D01*
X100660000Y-105396890D01*
X101058524Y-105396890D01*
X101103175Y-105544099D01*
X101228359Y-105806920D01*
X101402412Y-106040269D01*
X101618645Y-106235178D01*
X101744255Y-106310000D01*
X101618645Y-106384822D01*
X101402412Y-106579731D01*
X101228359Y-106813080D01*
X101103175Y-107075901D01*
X101058524Y-107223110D01*
X101179845Y-107453000D01*
X102373000Y-107453000D01*
X102373000Y-105167000D01*
X102627000Y-105167000D01*
X102627000Y-107453000D01*
X103820155Y-107453000D01*
X103941476Y-107223110D01*
X103896825Y-107075901D01*
X103771641Y-106813080D01*
X103597588Y-106579731D01*
X103381355Y-106384822D01*
X103255745Y-106310000D01*
X103381355Y-106235178D01*
X103597588Y-106040269D01*
X103771641Y-105806920D01*
X103896825Y-105544099D01*
X103905077Y-105516890D01*
X143558524Y-105516890D01*
X143603175Y-105664099D01*
X143728359Y-105926920D01*
X143902412Y-106160269D01*
X144118645Y-106355178D01*
X144244255Y-106430000D01*
X144118645Y-106504822D01*
X143902412Y-106699731D01*
X143728359Y-106933080D01*
X143603175Y-107195901D01*
X143558524Y-107343110D01*
X143679845Y-107573000D01*
X144873000Y-107573000D01*
X144873000Y-105287000D01*
X145127000Y-105287000D01*
X145127000Y-107573000D01*
X146320155Y-107573000D01*
X146441476Y-107343110D01*
X146396825Y-107195901D01*
X146271641Y-106933080D01*
X146097588Y-106699731D01*
X145881355Y-106504822D01*
X145755745Y-106430000D01*
X145881355Y-106355178D01*
X146097588Y-106160269D01*
X146271641Y-105926920D01*
X146396825Y-105664099D01*
X146441476Y-105516890D01*
X146320155Y-105287000D01*
X145127000Y-105287000D01*
X144873000Y-105287000D01*
X143679845Y-105287000D01*
X143558524Y-105516890D01*
X103905077Y-105516890D01*
X103941476Y-105396890D01*
X103820155Y-105167000D01*
X102627000Y-105167000D01*
X102373000Y-105167000D01*
X101179845Y-105167000D01*
X101058524Y-105396890D01*
X100660000Y-105396890D01*
X100660000Y-103350000D01*
X101011928Y-103350000D01*
X101024188Y-103474482D01*
X101060498Y-103594180D01*
X101119463Y-103704494D01*
X101198815Y-103801185D01*
X101295506Y-103880537D01*
X101405820Y-103939502D01*
X101486466Y-103963966D01*
X101402412Y-104039731D01*
X101228359Y-104273080D01*
X101103175Y-104535901D01*
X101058524Y-104683110D01*
X101179845Y-104913000D01*
X102373000Y-104913000D01*
X102373000Y-102627000D01*
X102627000Y-102627000D01*
X102627000Y-104913000D01*
X103820155Y-104913000D01*
X103941476Y-104683110D01*
X103896825Y-104535901D01*
X103771641Y-104273080D01*
X103597588Y-104039731D01*
X103513534Y-103963966D01*
X103594180Y-103939502D01*
X103704494Y-103880537D01*
X103801185Y-103801185D01*
X103880537Y-103704494D01*
X103939502Y-103594180D01*
X103975812Y-103474482D01*
X103988072Y-103350000D01*
X103986041Y-102976890D01*
X143558524Y-102976890D01*
X143603175Y-103124099D01*
X143728359Y-103386920D01*
X143902412Y-103620269D01*
X144118645Y-103815178D01*
X144244255Y-103890000D01*
X144118645Y-103964822D01*
X143902412Y-104159731D01*
X143728359Y-104393080D01*
X143603175Y-104655901D01*
X143558524Y-104803110D01*
X143679845Y-105033000D01*
X144873000Y-105033000D01*
X144873000Y-102747000D01*
X145127000Y-102747000D01*
X145127000Y-105033000D01*
X146320155Y-105033000D01*
X146441476Y-104803110D01*
X146396825Y-104655901D01*
X146271641Y-104393080D01*
X146097588Y-104159731D01*
X145881355Y-103964822D01*
X145755745Y-103890000D01*
X145881355Y-103815178D01*
X146097588Y-103620269D01*
X146271641Y-103386920D01*
X146396825Y-103124099D01*
X146441476Y-102976890D01*
X146320155Y-102747000D01*
X145127000Y-102747000D01*
X144873000Y-102747000D01*
X143679845Y-102747000D01*
X143558524Y-102976890D01*
X103986041Y-102976890D01*
X103985000Y-102785750D01*
X103826250Y-102627000D01*
X102627000Y-102627000D01*
X102373000Y-102627000D01*
X101173750Y-102627000D01*
X101015000Y-102785750D01*
X101011928Y-103350000D01*
X100660000Y-103350000D01*
X100660000Y-101650000D01*
X101011928Y-101650000D01*
X101015000Y-102214250D01*
X101173750Y-102373000D01*
X102373000Y-102373000D01*
X102373000Y-101173750D01*
X102627000Y-101173750D01*
X102627000Y-102373000D01*
X103826250Y-102373000D01*
X103985000Y-102214250D01*
X103988072Y-101650000D01*
X103975812Y-101525518D01*
X103939502Y-101405820D01*
X103880537Y-101295506D01*
X103801185Y-101198815D01*
X103704494Y-101119463D01*
X103594180Y-101060498D01*
X103474482Y-101024188D01*
X103350000Y-101011928D01*
X102785750Y-101015000D01*
X102627000Y-101173750D01*
X102373000Y-101173750D01*
X102214250Y-101015000D01*
X101650000Y-101011928D01*
X101525518Y-101024188D01*
X101405820Y-101060498D01*
X101295506Y-101119463D01*
X101198815Y-101198815D01*
X101119463Y-101295506D01*
X101060498Y-101405820D01*
X101024188Y-101525518D01*
X101011928Y-101650000D01*
X100660000Y-101650000D01*
X100660000Y-98390000D01*
X101011928Y-98390000D01*
X101024188Y-98514482D01*
X101060498Y-98634180D01*
X101119463Y-98744494D01*
X101198815Y-98841185D01*
X101295506Y-98920537D01*
X101405820Y-98979502D01*
X101525518Y-99015812D01*
X101650000Y-99028072D01*
X102214250Y-99025000D01*
X102373000Y-98866250D01*
X102373000Y-97667000D01*
X102627000Y-97667000D01*
X102627000Y-98866250D01*
X102785750Y-99025000D01*
X103350000Y-99028072D01*
X103474482Y-99015812D01*
X103594180Y-98979502D01*
X103704494Y-98920537D01*
X103801185Y-98841185D01*
X103880537Y-98744494D01*
X103939502Y-98634180D01*
X103975812Y-98514482D01*
X103988072Y-98390000D01*
X103985000Y-97825750D01*
X103826250Y-97667000D01*
X102627000Y-97667000D01*
X102373000Y-97667000D01*
X101173750Y-97667000D01*
X101015000Y-97825750D01*
X101011928Y-98390000D01*
X100660000Y-98390000D01*
X100660000Y-96690000D01*
X101011928Y-96690000D01*
X101015000Y-97254250D01*
X101173750Y-97413000D01*
X102373000Y-97413000D01*
X102373000Y-97393000D01*
X102627000Y-97393000D01*
X102627000Y-97413000D01*
X103826250Y-97413000D01*
X103985000Y-97254250D01*
X103988072Y-96690000D01*
X103975812Y-96565518D01*
X103939502Y-96445820D01*
X103880537Y-96335506D01*
X103801185Y-96238815D01*
X103704494Y-96159463D01*
X103594180Y-96100498D01*
X103521620Y-96078487D01*
X103653475Y-95946632D01*
X103815990Y-95703411D01*
X103927932Y-95433158D01*
X103985000Y-95146260D01*
X103985000Y-95000000D01*
X109320000Y-95000000D01*
X109411280Y-96014203D01*
X109682186Y-96995809D01*
X110124011Y-97913268D01*
X110722554Y-98737092D01*
X111458578Y-99440803D01*
X112308426Y-100001783D01*
X113244783Y-100402001D01*
X114237555Y-100628595D01*
X115254832Y-100674281D01*
X116263919Y-100537591D01*
X117232382Y-100222918D01*
X118129095Y-99740376D01*
X118925236Y-99105475D01*
X119595217Y-98338620D01*
X120117503Y-97464460D01*
X120475309Y-96511089D01*
X120657134Y-95509151D01*
X120657134Y-95000000D01*
X129320000Y-95000000D01*
X129411280Y-96014203D01*
X129682186Y-96995809D01*
X130124011Y-97913268D01*
X130722554Y-98737092D01*
X131458578Y-99440803D01*
X132308426Y-100001783D01*
X133244783Y-100402001D01*
X134237555Y-100628595D01*
X135254832Y-100674281D01*
X136263919Y-100537591D01*
X136573844Y-100436890D01*
X143558524Y-100436890D01*
X143603175Y-100584099D01*
X143728359Y-100846920D01*
X143902412Y-101080269D01*
X144118645Y-101275178D01*
X144244255Y-101350000D01*
X144118645Y-101424822D01*
X143902412Y-101619731D01*
X143728359Y-101853080D01*
X143603175Y-102115901D01*
X143558524Y-102263110D01*
X143679845Y-102493000D01*
X144873000Y-102493000D01*
X144873000Y-100207000D01*
X145127000Y-100207000D01*
X145127000Y-102493000D01*
X146320155Y-102493000D01*
X146441476Y-102263110D01*
X146396825Y-102115901D01*
X146271641Y-101853080D01*
X146097588Y-101619731D01*
X145881355Y-101424822D01*
X145755745Y-101350000D01*
X145881355Y-101275178D01*
X146097588Y-101080269D01*
X146271641Y-100846920D01*
X146396825Y-100584099D01*
X146441476Y-100436890D01*
X146320155Y-100207000D01*
X145127000Y-100207000D01*
X144873000Y-100207000D01*
X143679845Y-100207000D01*
X143558524Y-100436890D01*
X136573844Y-100436890D01*
X137232382Y-100222918D01*
X138129095Y-99740376D01*
X138925236Y-99105475D01*
X139595217Y-98338620D01*
X139859138Y-97896890D01*
X143558524Y-97896890D01*
X143603175Y-98044099D01*
X143728359Y-98306920D01*
X143902412Y-98540269D01*
X144118645Y-98735178D01*
X144244255Y-98810000D01*
X144118645Y-98884822D01*
X143902412Y-99079731D01*
X143728359Y-99313080D01*
X143603175Y-99575901D01*
X143558524Y-99723110D01*
X143679845Y-99953000D01*
X144873000Y-99953000D01*
X144873000Y-97667000D01*
X145127000Y-97667000D01*
X145127000Y-99953000D01*
X146320155Y-99953000D01*
X146441476Y-99723110D01*
X146396825Y-99575901D01*
X146271641Y-99313080D01*
X146097588Y-99079731D01*
X145881355Y-98884822D01*
X145755745Y-98810000D01*
X145881355Y-98735178D01*
X146097588Y-98540269D01*
X146271641Y-98306920D01*
X146396825Y-98044099D01*
X146441476Y-97896890D01*
X146320155Y-97667000D01*
X145127000Y-97667000D01*
X144873000Y-97667000D01*
X143679845Y-97667000D01*
X143558524Y-97896890D01*
X139859138Y-97896890D01*
X140117503Y-97464460D01*
X140475309Y-96511089D01*
X140657134Y-95509151D01*
X140657134Y-94853740D01*
X143515000Y-94853740D01*
X143515000Y-95146260D01*
X143572068Y-95433158D01*
X143684010Y-95703411D01*
X143846525Y-95946632D01*
X144053368Y-96153475D01*
X144235534Y-96275195D01*
X144118645Y-96344822D01*
X143902412Y-96539731D01*
X143728359Y-96773080D01*
X143603175Y-97035901D01*
X143558524Y-97183110D01*
X143679845Y-97413000D01*
X144873000Y-97413000D01*
X144873000Y-97393000D01*
X145127000Y-97393000D01*
X145127000Y-97413000D01*
X146320155Y-97413000D01*
X146441476Y-97183110D01*
X146396825Y-97035901D01*
X146271641Y-96773080D01*
X146097588Y-96539731D01*
X145881355Y-96344822D01*
X145764466Y-96275195D01*
X145946632Y-96153475D01*
X146153475Y-95946632D01*
X146315990Y-95703411D01*
X146427932Y-95433158D01*
X146485000Y-95146260D01*
X146485000Y-94853740D01*
X146427932Y-94566842D01*
X146315990Y-94296589D01*
X146153475Y-94053368D01*
X145946632Y-93846525D01*
X145764466Y-93724805D01*
X145881355Y-93655178D01*
X146097588Y-93460269D01*
X146271641Y-93226920D01*
X146396825Y-92964099D01*
X146441476Y-92816890D01*
X146320155Y-92587000D01*
X145127000Y-92587000D01*
X145127000Y-92607000D01*
X144873000Y-92607000D01*
X144873000Y-92587000D01*
X143679845Y-92587000D01*
X143558524Y-92816890D01*
X143603175Y-92964099D01*
X143728359Y-93226920D01*
X143902412Y-93460269D01*
X144118645Y-93655178D01*
X144235534Y-93724805D01*
X144053368Y-93846525D01*
X143846525Y-94053368D01*
X143684010Y-94296589D01*
X143572068Y-94566842D01*
X143515000Y-94853740D01*
X140657134Y-94853740D01*
X140657134Y-94490849D01*
X140475309Y-93488911D01*
X140117503Y-92535540D01*
X139595217Y-91661380D01*
X138925236Y-90894525D01*
X138150746Y-90276890D01*
X143558524Y-90276890D01*
X143603175Y-90424099D01*
X143728359Y-90686920D01*
X143902412Y-90920269D01*
X144118645Y-91115178D01*
X144244255Y-91190000D01*
X144118645Y-91264822D01*
X143902412Y-91459731D01*
X143728359Y-91693080D01*
X143603175Y-91955901D01*
X143558524Y-92103110D01*
X143679845Y-92333000D01*
X144873000Y-92333000D01*
X144873000Y-90047000D01*
X145127000Y-90047000D01*
X145127000Y-92333000D01*
X146320155Y-92333000D01*
X146441476Y-92103110D01*
X146396825Y-91955901D01*
X146271641Y-91693080D01*
X146097588Y-91459731D01*
X145881355Y-91264822D01*
X145755745Y-91190000D01*
X145881355Y-91115178D01*
X146097588Y-90920269D01*
X146271641Y-90686920D01*
X146396825Y-90424099D01*
X146441476Y-90276890D01*
X146320155Y-90047000D01*
X145127000Y-90047000D01*
X144873000Y-90047000D01*
X143679845Y-90047000D01*
X143558524Y-90276890D01*
X138150746Y-90276890D01*
X138129095Y-90259624D01*
X137232382Y-89777082D01*
X136263919Y-89462409D01*
X135254832Y-89325719D01*
X134237555Y-89371405D01*
X133244783Y-89597999D01*
X132308426Y-89998217D01*
X131458578Y-90559197D01*
X130722554Y-91262908D01*
X130124011Y-92086732D01*
X129682186Y-93004191D01*
X129411280Y-93985797D01*
X129320000Y-95000000D01*
X120657134Y-95000000D01*
X120657134Y-94490849D01*
X120475309Y-93488911D01*
X120117503Y-92535540D01*
X119595217Y-91661380D01*
X118925236Y-90894525D01*
X118129095Y-90259624D01*
X117232382Y-89777082D01*
X116263919Y-89462409D01*
X115254832Y-89325719D01*
X114237555Y-89371405D01*
X113244783Y-89597999D01*
X112308426Y-89998217D01*
X111458578Y-90559197D01*
X110722554Y-91262908D01*
X110124011Y-92086732D01*
X109682186Y-93004191D01*
X109411280Y-93985797D01*
X109320000Y-95000000D01*
X103985000Y-95000000D01*
X103985000Y-94853740D01*
X103927932Y-94566842D01*
X103815990Y-94296589D01*
X103653475Y-94053368D01*
X103446632Y-93846525D01*
X103264466Y-93724805D01*
X103381355Y-93655178D01*
X103597588Y-93460269D01*
X103771641Y-93226920D01*
X103896825Y-92964099D01*
X103941476Y-92816890D01*
X103820155Y-92587000D01*
X102627000Y-92587000D01*
X102627000Y-92607000D01*
X102373000Y-92607000D01*
X102373000Y-92587000D01*
X101179845Y-92587000D01*
X101058524Y-92816890D01*
X101103175Y-92964099D01*
X101228359Y-93226920D01*
X101402412Y-93460269D01*
X101618645Y-93655178D01*
X101735534Y-93724805D01*
X101553368Y-93846525D01*
X101346525Y-94053368D01*
X101184010Y-94296589D01*
X101072068Y-94566842D01*
X101015000Y-94853740D01*
X101015000Y-95146260D01*
X101072068Y-95433158D01*
X101184010Y-95703411D01*
X101346525Y-95946632D01*
X101478380Y-96078487D01*
X101405820Y-96100498D01*
X101295506Y-96159463D01*
X101198815Y-96238815D01*
X101119463Y-96335506D01*
X101060498Y-96445820D01*
X101024188Y-96565518D01*
X101011928Y-96690000D01*
X100660000Y-96690000D01*
X100660000Y-92103110D01*
X101058524Y-92103110D01*
X101179845Y-92333000D01*
X102373000Y-92333000D01*
X102373000Y-91139186D01*
X102627000Y-91139186D01*
X102627000Y-92333000D01*
X103820155Y-92333000D01*
X103941476Y-92103110D01*
X103896825Y-91955901D01*
X103771641Y-91693080D01*
X103597588Y-91459731D01*
X103381355Y-91264822D01*
X103131252Y-91115843D01*
X102856891Y-91018519D01*
X102627000Y-91139186D01*
X102373000Y-91139186D01*
X102143109Y-91018519D01*
X101868748Y-91115843D01*
X101618645Y-91264822D01*
X101402412Y-91459731D01*
X101228359Y-91693080D01*
X101103175Y-91955901D01*
X101058524Y-92103110D01*
X100660000Y-92103110D01*
X100660000Y-87976890D01*
X101058524Y-87976890D01*
X101103175Y-88124099D01*
X101228359Y-88386920D01*
X101402412Y-88620269D01*
X101618645Y-88815178D01*
X101868748Y-88964157D01*
X102143109Y-89061481D01*
X102373000Y-88940814D01*
X102373000Y-87747000D01*
X102627000Y-87747000D01*
X102627000Y-88940814D01*
X102856891Y-89061481D01*
X103131252Y-88964157D01*
X103381355Y-88815178D01*
X103597588Y-88620269D01*
X103771641Y-88386920D01*
X103896825Y-88124099D01*
X103941476Y-87976890D01*
X103820155Y-87747000D01*
X102627000Y-87747000D01*
X102373000Y-87747000D01*
X101179845Y-87747000D01*
X101058524Y-87976890D01*
X100660000Y-87976890D01*
X100660000Y-87736890D01*
X143558524Y-87736890D01*
X143603175Y-87884099D01*
X143728359Y-88146920D01*
X143902412Y-88380269D01*
X144118645Y-88575178D01*
X144244255Y-88650000D01*
X144118645Y-88724822D01*
X143902412Y-88919731D01*
X143728359Y-89153080D01*
X143603175Y-89415901D01*
X143558524Y-89563110D01*
X143679845Y-89793000D01*
X144873000Y-89793000D01*
X144873000Y-87507000D01*
X145127000Y-87507000D01*
X145127000Y-89793000D01*
X146320155Y-89793000D01*
X146441476Y-89563110D01*
X146396825Y-89415901D01*
X146271641Y-89153080D01*
X146097588Y-88919731D01*
X145881355Y-88724822D01*
X145755745Y-88650000D01*
X145881355Y-88575178D01*
X146097588Y-88380269D01*
X146271641Y-88146920D01*
X146396825Y-87884099D01*
X146441476Y-87736890D01*
X146320155Y-87507000D01*
X145127000Y-87507000D01*
X144873000Y-87507000D01*
X143679845Y-87507000D01*
X143558524Y-87736890D01*
X100660000Y-87736890D01*
X100660000Y-85436890D01*
X101058524Y-85436890D01*
X101103175Y-85584099D01*
X101228359Y-85846920D01*
X101402412Y-86080269D01*
X101618645Y-86275178D01*
X101744255Y-86350000D01*
X101618645Y-86424822D01*
X101402412Y-86619731D01*
X101228359Y-86853080D01*
X101103175Y-87115901D01*
X101058524Y-87263110D01*
X101179845Y-87493000D01*
X102373000Y-87493000D01*
X102373000Y-85207000D01*
X102627000Y-85207000D01*
X102627000Y-87493000D01*
X103820155Y-87493000D01*
X103941476Y-87263110D01*
X103896825Y-87115901D01*
X103771641Y-86853080D01*
X103597588Y-86619731D01*
X103381355Y-86424822D01*
X103255745Y-86350000D01*
X103381355Y-86275178D01*
X103597588Y-86080269D01*
X103771641Y-85846920D01*
X103896825Y-85584099D01*
X103941476Y-85436890D01*
X103820155Y-85207000D01*
X102627000Y-85207000D01*
X102373000Y-85207000D01*
X101179845Y-85207000D01*
X101058524Y-85436890D01*
X100660000Y-85436890D01*
X100660000Y-85196890D01*
X143558524Y-85196890D01*
X143603175Y-85344099D01*
X143728359Y-85606920D01*
X143902412Y-85840269D01*
X144118645Y-86035178D01*
X144244255Y-86110000D01*
X144118645Y-86184822D01*
X143902412Y-86379731D01*
X143728359Y-86613080D01*
X143603175Y-86875901D01*
X143558524Y-87023110D01*
X143679845Y-87253000D01*
X144873000Y-87253000D01*
X144873000Y-84967000D01*
X145127000Y-84967000D01*
X145127000Y-87253000D01*
X146320155Y-87253000D01*
X146441476Y-87023110D01*
X146396825Y-86875901D01*
X146271641Y-86613080D01*
X146097588Y-86379731D01*
X145881355Y-86184822D01*
X145755745Y-86110000D01*
X145881355Y-86035178D01*
X146097588Y-85840269D01*
X146271641Y-85606920D01*
X146396825Y-85344099D01*
X146441476Y-85196890D01*
X146320155Y-84967000D01*
X145127000Y-84967000D01*
X144873000Y-84967000D01*
X143679845Y-84967000D01*
X143558524Y-85196890D01*
X100660000Y-85196890D01*
X100660000Y-82896890D01*
X101058524Y-82896890D01*
X101103175Y-83044099D01*
X101228359Y-83306920D01*
X101402412Y-83540269D01*
X101618645Y-83735178D01*
X101744255Y-83810000D01*
X101618645Y-83884822D01*
X101402412Y-84079731D01*
X101228359Y-84313080D01*
X101103175Y-84575901D01*
X101058524Y-84723110D01*
X101179845Y-84953000D01*
X102373000Y-84953000D01*
X102373000Y-82667000D01*
X102627000Y-82667000D01*
X102627000Y-84953000D01*
X103820155Y-84953000D01*
X103941476Y-84723110D01*
X103896825Y-84575901D01*
X103771641Y-84313080D01*
X103597588Y-84079731D01*
X103381355Y-83884822D01*
X103255745Y-83810000D01*
X103381355Y-83735178D01*
X103597588Y-83540269D01*
X103771641Y-83306920D01*
X103896825Y-83044099D01*
X103941476Y-82896890D01*
X103820155Y-82667000D01*
X102627000Y-82667000D01*
X102373000Y-82667000D01*
X101179845Y-82667000D01*
X101058524Y-82896890D01*
X100660000Y-82896890D01*
X100660000Y-82656890D01*
X143558524Y-82656890D01*
X143603175Y-82804099D01*
X143728359Y-83066920D01*
X143902412Y-83300269D01*
X144118645Y-83495178D01*
X144244255Y-83570000D01*
X144118645Y-83644822D01*
X143902412Y-83839731D01*
X143728359Y-84073080D01*
X143603175Y-84335901D01*
X143558524Y-84483110D01*
X143679845Y-84713000D01*
X144873000Y-84713000D01*
X144873000Y-82427000D01*
X145127000Y-82427000D01*
X145127000Y-84713000D01*
X146320155Y-84713000D01*
X146441476Y-84483110D01*
X146396825Y-84335901D01*
X146271641Y-84073080D01*
X146097588Y-83839731D01*
X145881355Y-83644822D01*
X145755745Y-83570000D01*
X145881355Y-83495178D01*
X146097588Y-83300269D01*
X146271641Y-83066920D01*
X146396825Y-82804099D01*
X146441476Y-82656890D01*
X146320155Y-82427000D01*
X145127000Y-82427000D01*
X144873000Y-82427000D01*
X143679845Y-82427000D01*
X143558524Y-82656890D01*
X100660000Y-82656890D01*
X100660000Y-80850000D01*
X101011928Y-80850000D01*
X101024188Y-80974482D01*
X101060498Y-81094180D01*
X101119463Y-81204494D01*
X101198815Y-81301185D01*
X101295506Y-81380537D01*
X101405820Y-81439502D01*
X101486466Y-81463966D01*
X101402412Y-81539731D01*
X101228359Y-81773080D01*
X101103175Y-82035901D01*
X101058524Y-82183110D01*
X101179845Y-82413000D01*
X102373000Y-82413000D01*
X102373000Y-80127000D01*
X102627000Y-80127000D01*
X102627000Y-82413000D01*
X103820155Y-82413000D01*
X103941476Y-82183110D01*
X103896825Y-82035901D01*
X103771641Y-81773080D01*
X103597588Y-81539731D01*
X103513534Y-81463966D01*
X103594180Y-81439502D01*
X103704494Y-81380537D01*
X103801185Y-81301185D01*
X103880537Y-81204494D01*
X103939502Y-81094180D01*
X103975812Y-80974482D01*
X103988072Y-80850000D01*
X103986766Y-80610000D01*
X143511928Y-80610000D01*
X143524188Y-80734482D01*
X143560498Y-80854180D01*
X143619463Y-80964494D01*
X143698815Y-81061185D01*
X143795506Y-81140537D01*
X143905820Y-81199502D01*
X143986466Y-81223966D01*
X143902412Y-81299731D01*
X143728359Y-81533080D01*
X143603175Y-81795901D01*
X143558524Y-81943110D01*
X143679845Y-82173000D01*
X144873000Y-82173000D01*
X144873000Y-79887000D01*
X145127000Y-79887000D01*
X145127000Y-82173000D01*
X146320155Y-82173000D01*
X146441476Y-81943110D01*
X146396825Y-81795901D01*
X146271641Y-81533080D01*
X146097588Y-81299731D01*
X146013534Y-81223966D01*
X146094180Y-81199502D01*
X146204494Y-81140537D01*
X146301185Y-81061185D01*
X146380537Y-80964494D01*
X146439502Y-80854180D01*
X146475812Y-80734482D01*
X146488072Y-80610000D01*
X146485000Y-80045750D01*
X146326250Y-79887000D01*
X145127000Y-79887000D01*
X144873000Y-79887000D01*
X143673750Y-79887000D01*
X143515000Y-80045750D01*
X143511928Y-80610000D01*
X103986766Y-80610000D01*
X103985000Y-80285750D01*
X103826250Y-80127000D01*
X102627000Y-80127000D01*
X102373000Y-80127000D01*
X101173750Y-80127000D01*
X101015000Y-80285750D01*
X101011928Y-80850000D01*
X100660000Y-80850000D01*
X100660000Y-79150000D01*
X101011928Y-79150000D01*
X101015000Y-79714250D01*
X101173750Y-79873000D01*
X102373000Y-79873000D01*
X102373000Y-78673750D01*
X102627000Y-78673750D01*
X102627000Y-79873000D01*
X103826250Y-79873000D01*
X103985000Y-79714250D01*
X103988072Y-79150000D01*
X103975812Y-79025518D01*
X103940770Y-78910000D01*
X143511928Y-78910000D01*
X143515000Y-79474250D01*
X143673750Y-79633000D01*
X144873000Y-79633000D01*
X144873000Y-78433750D01*
X145127000Y-78433750D01*
X145127000Y-79633000D01*
X146326250Y-79633000D01*
X146485000Y-79474250D01*
X146488072Y-78910000D01*
X146475812Y-78785518D01*
X146439502Y-78665820D01*
X146380537Y-78555506D01*
X146301185Y-78458815D01*
X146204494Y-78379463D01*
X146094180Y-78320498D01*
X145974482Y-78284188D01*
X145850000Y-78271928D01*
X145285750Y-78275000D01*
X145127000Y-78433750D01*
X144873000Y-78433750D01*
X144714250Y-78275000D01*
X144150000Y-78271928D01*
X144025518Y-78284188D01*
X143905820Y-78320498D01*
X143795506Y-78379463D01*
X143698815Y-78458815D01*
X143619463Y-78555506D01*
X143560498Y-78665820D01*
X143524188Y-78785518D01*
X143511928Y-78910000D01*
X103940770Y-78910000D01*
X103939502Y-78905820D01*
X103880537Y-78795506D01*
X103801185Y-78698815D01*
X103704494Y-78619463D01*
X103594180Y-78560498D01*
X103474482Y-78524188D01*
X103350000Y-78511928D01*
X102785750Y-78515000D01*
X102627000Y-78673750D01*
X102373000Y-78673750D01*
X102214250Y-78515000D01*
X101650000Y-78511928D01*
X101525518Y-78524188D01*
X101405820Y-78560498D01*
X101295506Y-78619463D01*
X101198815Y-78698815D01*
X101119463Y-78795506D01*
X101060498Y-78905820D01*
X101024188Y-79025518D01*
X101011928Y-79150000D01*
X100660000Y-79150000D01*
X100660000Y-78225000D01*
X103861928Y-78225000D01*
X103874188Y-78349482D01*
X103910498Y-78469180D01*
X103969463Y-78579494D01*
X104048815Y-78676185D01*
X104145506Y-78755537D01*
X104255820Y-78814502D01*
X104375518Y-78850812D01*
X104500000Y-78863072D01*
X104714250Y-78860000D01*
X104873000Y-78701250D01*
X104873000Y-77627000D01*
X104023750Y-77627000D01*
X103865000Y-77785750D01*
X103861928Y-78225000D01*
X100660000Y-78225000D01*
X100660000Y-77529392D01*
X100731173Y-76731917D01*
X100934656Y-75988109D01*
X101000530Y-75850000D01*
X103511928Y-75850000D01*
X103524188Y-75974482D01*
X103560498Y-76094180D01*
X103619463Y-76204494D01*
X103698815Y-76301185D01*
X103795506Y-76380537D01*
X103905820Y-76439502D01*
X103951846Y-76453464D01*
X103910498Y-76530820D01*
X103874188Y-76650518D01*
X103861928Y-76775000D01*
X103865000Y-77214250D01*
X104023750Y-77373000D01*
X104873000Y-77373000D01*
X104873000Y-75127000D01*
X103673750Y-75127000D01*
X103515000Y-75285750D01*
X103511928Y-75850000D01*
X101000530Y-75850000D01*
X101266638Y-75292095D01*
X101716626Y-74665870D01*
X102248962Y-74150000D01*
X103511928Y-74150000D01*
X103515000Y-74714250D01*
X103673750Y-74873000D01*
X104873000Y-74873000D01*
X104873000Y-73673750D01*
X105127000Y-73673750D01*
X105127000Y-74873000D01*
X105147000Y-74873000D01*
X105147000Y-75127000D01*
X105127000Y-75127000D01*
X105127000Y-77373000D01*
X105147000Y-77373000D01*
X105147000Y-77627000D01*
X105127000Y-77627000D01*
X105127000Y-78701250D01*
X105285750Y-78860000D01*
X105500000Y-78863072D01*
X105624482Y-78850812D01*
X105744180Y-78814502D01*
X105854494Y-78755537D01*
X105951185Y-78676185D01*
X106016658Y-78596406D01*
X106022038Y-78602962D01*
X106156614Y-78713405D01*
X106310150Y-78795472D01*
X106476746Y-78846008D01*
X106650000Y-78863072D01*
X107150000Y-78863072D01*
X107323254Y-78846008D01*
X107489850Y-78795472D01*
X107643386Y-78713405D01*
X107777962Y-78602962D01*
X107888405Y-78468386D01*
X107970472Y-78314850D01*
X108021008Y-78148254D01*
X108038072Y-77975000D01*
X108038072Y-77967060D01*
X108303140Y-77701992D01*
X108346449Y-77666449D01*
X108488284Y-77493623D01*
X108593676Y-77296447D01*
X108658577Y-77082499D01*
X108675000Y-76915752D01*
X108680491Y-76860000D01*
X108675000Y-76804248D01*
X108675000Y-75965107D01*
X108693475Y-75946632D01*
X108810000Y-75772240D01*
X108926525Y-75946632D01*
X108945000Y-75965107D01*
X108945001Y-76974239D01*
X108939509Y-77030000D01*
X108961423Y-77252498D01*
X109026324Y-77466446D01*
X109070096Y-77548337D01*
X109131717Y-77663623D01*
X109273552Y-77836449D01*
X109316860Y-77871991D01*
X109411928Y-77967059D01*
X109411928Y-77975000D01*
X109428992Y-78148254D01*
X109479528Y-78314850D01*
X109561595Y-78468386D01*
X109672038Y-78602962D01*
X109806614Y-78713405D01*
X109960150Y-78795472D01*
X110126746Y-78846008D01*
X110300000Y-78863072D01*
X110800000Y-78863072D01*
X110973254Y-78846008D01*
X111139850Y-78795472D01*
X111293386Y-78713405D01*
X111427962Y-78602962D01*
X111433342Y-78596406D01*
X111498815Y-78676185D01*
X111595506Y-78755537D01*
X111705820Y-78814502D01*
X111825518Y-78850812D01*
X111950000Y-78863072D01*
X112164250Y-78860000D01*
X112323000Y-78701250D01*
X112323000Y-77627000D01*
X112577000Y-77627000D01*
X112577000Y-78701250D01*
X112735750Y-78860000D01*
X112950000Y-78863072D01*
X113074482Y-78850812D01*
X113194180Y-78814502D01*
X113304494Y-78755537D01*
X113401185Y-78676185D01*
X113480537Y-78579494D01*
X113539502Y-78469180D01*
X113575812Y-78349482D01*
X113588072Y-78225000D01*
X113585000Y-77785750D01*
X113426250Y-77627000D01*
X112577000Y-77627000D01*
X112323000Y-77627000D01*
X112303000Y-77627000D01*
X112303000Y-77373000D01*
X112323000Y-77373000D01*
X112323000Y-77353000D01*
X112577000Y-77353000D01*
X112577000Y-77373000D01*
X113426250Y-77373000D01*
X113585000Y-77214250D01*
X113588072Y-76775000D01*
X113575812Y-76650518D01*
X113539502Y-76530820D01*
X113480537Y-76420506D01*
X113401185Y-76323815D01*
X113355719Y-76286502D01*
X113386920Y-76271641D01*
X113620269Y-76097588D01*
X113815178Y-75881355D01*
X113890000Y-75755745D01*
X113964822Y-75881355D01*
X114159731Y-76097588D01*
X114393080Y-76271641D01*
X114655901Y-76396825D01*
X114803110Y-76441476D01*
X115033000Y-76320155D01*
X115033000Y-75127000D01*
X115287000Y-75127000D01*
X115287000Y-76320155D01*
X115516890Y-76441476D01*
X115664099Y-76396825D01*
X115926920Y-76271641D01*
X116160269Y-76097588D01*
X116355178Y-75881355D01*
X116430000Y-75755745D01*
X116504822Y-75881355D01*
X116699731Y-76097588D01*
X116933080Y-76271641D01*
X117195901Y-76396825D01*
X117343110Y-76441476D01*
X117573000Y-76320155D01*
X117573000Y-75127000D01*
X117827000Y-75127000D01*
X117827000Y-76320155D01*
X118056890Y-76441476D01*
X118204099Y-76396825D01*
X118466920Y-76271641D01*
X118700269Y-76097588D01*
X118895178Y-75881355D01*
X118970000Y-75755745D01*
X119044822Y-75881355D01*
X119239731Y-76097588D01*
X119473080Y-76271641D01*
X119735901Y-76396825D01*
X119883110Y-76441476D01*
X120113000Y-76320155D01*
X120113000Y-75127000D01*
X120367000Y-75127000D01*
X120367000Y-76320155D01*
X120596890Y-76441476D01*
X120744099Y-76396825D01*
X121006920Y-76271641D01*
X121240269Y-76097588D01*
X121435178Y-75881355D01*
X121510000Y-75755745D01*
X121584822Y-75881355D01*
X121779731Y-76097588D01*
X122013080Y-76271641D01*
X122275901Y-76396825D01*
X122423110Y-76441476D01*
X122653000Y-76320155D01*
X122653000Y-75127000D01*
X122907000Y-75127000D01*
X122907000Y-76320155D01*
X123136890Y-76441476D01*
X123284099Y-76396825D01*
X123546920Y-76271641D01*
X123780269Y-76097588D01*
X123975178Y-75881355D01*
X124050000Y-75755745D01*
X124124822Y-75881355D01*
X124319731Y-76097588D01*
X124553080Y-76271641D01*
X124815901Y-76396825D01*
X124963110Y-76441476D01*
X125193000Y-76320155D01*
X125193000Y-75127000D01*
X125447000Y-75127000D01*
X125447000Y-76320155D01*
X125676890Y-76441476D01*
X125824099Y-76396825D01*
X126086920Y-76271641D01*
X126320269Y-76097588D01*
X126515178Y-75881355D01*
X126590000Y-75755745D01*
X126664822Y-75881355D01*
X126859731Y-76097588D01*
X127093080Y-76271641D01*
X127355901Y-76396825D01*
X127503110Y-76441476D01*
X127733000Y-76320155D01*
X127733000Y-75127000D01*
X127987000Y-75127000D01*
X127987000Y-76320155D01*
X128216890Y-76441476D01*
X128364099Y-76396825D01*
X128626920Y-76271641D01*
X128860269Y-76097588D01*
X129055178Y-75881355D01*
X129130000Y-75755745D01*
X129204822Y-75881355D01*
X129399731Y-76097588D01*
X129633080Y-76271641D01*
X129895901Y-76396825D01*
X130043110Y-76441476D01*
X130273000Y-76320155D01*
X130273000Y-75127000D01*
X130527000Y-75127000D01*
X130527000Y-76320155D01*
X130756890Y-76441476D01*
X130904099Y-76396825D01*
X131166920Y-76271641D01*
X131400269Y-76097588D01*
X131595178Y-75881355D01*
X131670000Y-75755745D01*
X131744822Y-75881355D01*
X131939731Y-76097588D01*
X132173080Y-76271641D01*
X132435901Y-76396825D01*
X132583110Y-76441476D01*
X132813000Y-76320155D01*
X132813000Y-75127000D01*
X133067000Y-75127000D01*
X133067000Y-76320155D01*
X133296890Y-76441476D01*
X133444099Y-76396825D01*
X133706920Y-76271641D01*
X133940269Y-76097588D01*
X134135178Y-75881355D01*
X134153855Y-75850000D01*
X136011928Y-75850000D01*
X136024188Y-75974482D01*
X136060498Y-76094180D01*
X136119463Y-76204494D01*
X136198815Y-76301185D01*
X136295506Y-76380537D01*
X136405820Y-76439502D01*
X136525518Y-76475812D01*
X136650000Y-76488072D01*
X137214250Y-76485000D01*
X137373000Y-76326250D01*
X137373000Y-75127000D01*
X137627000Y-75127000D01*
X137627000Y-76326250D01*
X137785750Y-76485000D01*
X138350000Y-76488072D01*
X138474482Y-76475812D01*
X138594180Y-76439502D01*
X138704494Y-76380537D01*
X138801185Y-76301185D01*
X138880537Y-76204494D01*
X138939502Y-76094180D01*
X138963966Y-76013534D01*
X139039731Y-76097588D01*
X139273080Y-76271641D01*
X139535901Y-76396825D01*
X139683110Y-76441476D01*
X139913000Y-76320155D01*
X139913000Y-75127000D01*
X140167000Y-75127000D01*
X140167000Y-76320155D01*
X140396890Y-76441476D01*
X140544099Y-76396825D01*
X140806920Y-76271641D01*
X141040269Y-76097588D01*
X141235178Y-75881355D01*
X141310000Y-75755745D01*
X141384822Y-75881355D01*
X141579731Y-76097588D01*
X141813080Y-76271641D01*
X142075901Y-76396825D01*
X142223110Y-76441476D01*
X142453000Y-76320155D01*
X142453000Y-75127000D01*
X142707000Y-75127000D01*
X142707000Y-76320155D01*
X142936890Y-76441476D01*
X143084099Y-76396825D01*
X143346920Y-76271641D01*
X143580269Y-76097588D01*
X143775178Y-75881355D01*
X143850000Y-75755745D01*
X143924822Y-75881355D01*
X144119731Y-76097588D01*
X144353080Y-76271641D01*
X144615901Y-76396825D01*
X144763110Y-76441476D01*
X144993000Y-76320155D01*
X144993000Y-75127000D01*
X142707000Y-75127000D01*
X142453000Y-75127000D01*
X140167000Y-75127000D01*
X139913000Y-75127000D01*
X137627000Y-75127000D01*
X137373000Y-75127000D01*
X136173750Y-75127000D01*
X136015000Y-75285750D01*
X136011928Y-75850000D01*
X134153855Y-75850000D01*
X134284157Y-75631252D01*
X134381481Y-75356891D01*
X134260814Y-75127000D01*
X133067000Y-75127000D01*
X132813000Y-75127000D01*
X130527000Y-75127000D01*
X130273000Y-75127000D01*
X127987000Y-75127000D01*
X127733000Y-75127000D01*
X125447000Y-75127000D01*
X125193000Y-75127000D01*
X122907000Y-75127000D01*
X122653000Y-75127000D01*
X120367000Y-75127000D01*
X120113000Y-75127000D01*
X117827000Y-75127000D01*
X117573000Y-75127000D01*
X115287000Y-75127000D01*
X115033000Y-75127000D01*
X112747000Y-75127000D01*
X112747000Y-75147000D01*
X112493000Y-75147000D01*
X112493000Y-75127000D01*
X112473000Y-75127000D01*
X112473000Y-74873000D01*
X112493000Y-74873000D01*
X112493000Y-73679845D01*
X112747000Y-73679845D01*
X112747000Y-74873000D01*
X115033000Y-74873000D01*
X115033000Y-73679845D01*
X115287000Y-73679845D01*
X115287000Y-74873000D01*
X117573000Y-74873000D01*
X117573000Y-73679845D01*
X117827000Y-73679845D01*
X117827000Y-74873000D01*
X120113000Y-74873000D01*
X120113000Y-73679845D01*
X120367000Y-73679845D01*
X120367000Y-74873000D01*
X122653000Y-74873000D01*
X122653000Y-73679845D01*
X122907000Y-73679845D01*
X122907000Y-74873000D01*
X125193000Y-74873000D01*
X125193000Y-73679845D01*
X125447000Y-73679845D01*
X125447000Y-74873000D01*
X127733000Y-74873000D01*
X127733000Y-73679845D01*
X127987000Y-73679845D01*
X127987000Y-74873000D01*
X130273000Y-74873000D01*
X130273000Y-73679845D01*
X130527000Y-73679845D01*
X130527000Y-74873000D01*
X132813000Y-74873000D01*
X132813000Y-73679845D01*
X133067000Y-73679845D01*
X133067000Y-74873000D01*
X134260814Y-74873000D01*
X134381481Y-74643109D01*
X134284157Y-74368748D01*
X134153856Y-74150000D01*
X136011928Y-74150000D01*
X136015000Y-74714250D01*
X136173750Y-74873000D01*
X137373000Y-74873000D01*
X137373000Y-73673750D01*
X137627000Y-73673750D01*
X137627000Y-74873000D01*
X139913000Y-74873000D01*
X139913000Y-73679845D01*
X140167000Y-73679845D01*
X140167000Y-74873000D01*
X142453000Y-74873000D01*
X142453000Y-73679845D01*
X142223110Y-73558524D01*
X142075901Y-73603175D01*
X141813080Y-73728359D01*
X141579731Y-73902412D01*
X141384822Y-74118645D01*
X141310000Y-74244255D01*
X141235178Y-74118645D01*
X141040269Y-73902412D01*
X140806920Y-73728359D01*
X140544099Y-73603175D01*
X140396890Y-73558524D01*
X140167000Y-73679845D01*
X139913000Y-73679845D01*
X139683110Y-73558524D01*
X139535901Y-73603175D01*
X139273080Y-73728359D01*
X139039731Y-73902412D01*
X138963966Y-73986466D01*
X138939502Y-73905820D01*
X138880537Y-73795506D01*
X138801185Y-73698815D01*
X138704494Y-73619463D01*
X138594180Y-73560498D01*
X138474482Y-73524188D01*
X138350000Y-73511928D01*
X137785750Y-73515000D01*
X137627000Y-73673750D01*
X137373000Y-73673750D01*
X137214250Y-73515000D01*
X136650000Y-73511928D01*
X136525518Y-73524188D01*
X136405820Y-73560498D01*
X136295506Y-73619463D01*
X136198815Y-73698815D01*
X136119463Y-73795506D01*
X136060498Y-73905820D01*
X136024188Y-74025518D01*
X136011928Y-74150000D01*
X134153856Y-74150000D01*
X134135178Y-74118645D01*
X133940269Y-73902412D01*
X133706920Y-73728359D01*
X133444099Y-73603175D01*
X133296890Y-73558524D01*
X133067000Y-73679845D01*
X132813000Y-73679845D01*
X132583110Y-73558524D01*
X132435901Y-73603175D01*
X132173080Y-73728359D01*
X131939731Y-73902412D01*
X131744822Y-74118645D01*
X131670000Y-74244255D01*
X131595178Y-74118645D01*
X131400269Y-73902412D01*
X131166920Y-73728359D01*
X130904099Y-73603175D01*
X130756890Y-73558524D01*
X130527000Y-73679845D01*
X130273000Y-73679845D01*
X130043110Y-73558524D01*
X129895901Y-73603175D01*
X129633080Y-73728359D01*
X129399731Y-73902412D01*
X129204822Y-74118645D01*
X129130000Y-74244255D01*
X129055178Y-74118645D01*
X128860269Y-73902412D01*
X128626920Y-73728359D01*
X128364099Y-73603175D01*
X128216890Y-73558524D01*
X127987000Y-73679845D01*
X127733000Y-73679845D01*
X127503110Y-73558524D01*
X127355901Y-73603175D01*
X127093080Y-73728359D01*
X126859731Y-73902412D01*
X126664822Y-74118645D01*
X126590000Y-74244255D01*
X126515178Y-74118645D01*
X126320269Y-73902412D01*
X126086920Y-73728359D01*
X125824099Y-73603175D01*
X125676890Y-73558524D01*
X125447000Y-73679845D01*
X125193000Y-73679845D01*
X124963110Y-73558524D01*
X124815901Y-73603175D01*
X124553080Y-73728359D01*
X124319731Y-73902412D01*
X124124822Y-74118645D01*
X124050000Y-74244255D01*
X123975178Y-74118645D01*
X123780269Y-73902412D01*
X123546920Y-73728359D01*
X123284099Y-73603175D01*
X123136890Y-73558524D01*
X122907000Y-73679845D01*
X122653000Y-73679845D01*
X122423110Y-73558524D01*
X122275901Y-73603175D01*
X122013080Y-73728359D01*
X121779731Y-73902412D01*
X121584822Y-74118645D01*
X121510000Y-74244255D01*
X121435178Y-74118645D01*
X121240269Y-73902412D01*
X121006920Y-73728359D01*
X120744099Y-73603175D01*
X120596890Y-73558524D01*
X120367000Y-73679845D01*
X120113000Y-73679845D01*
X119883110Y-73558524D01*
X119735901Y-73603175D01*
X119473080Y-73728359D01*
X119239731Y-73902412D01*
X119044822Y-74118645D01*
X118970000Y-74244255D01*
X118895178Y-74118645D01*
X118700269Y-73902412D01*
X118466920Y-73728359D01*
X118204099Y-73603175D01*
X118056890Y-73558524D01*
X117827000Y-73679845D01*
X117573000Y-73679845D01*
X117343110Y-73558524D01*
X117195901Y-73603175D01*
X116933080Y-73728359D01*
X116699731Y-73902412D01*
X116504822Y-74118645D01*
X116430000Y-74244255D01*
X116355178Y-74118645D01*
X116160269Y-73902412D01*
X115926920Y-73728359D01*
X115664099Y-73603175D01*
X115516890Y-73558524D01*
X115287000Y-73679845D01*
X115033000Y-73679845D01*
X114803110Y-73558524D01*
X114655901Y-73603175D01*
X114393080Y-73728359D01*
X114159731Y-73902412D01*
X113964822Y-74118645D01*
X113890000Y-74244255D01*
X113815178Y-74118645D01*
X113620269Y-73902412D01*
X113386920Y-73728359D01*
X113124099Y-73603175D01*
X112976890Y-73558524D01*
X112747000Y-73679845D01*
X112493000Y-73679845D01*
X112263110Y-73558524D01*
X112115901Y-73603175D01*
X111853080Y-73728359D01*
X111619731Y-73902412D01*
X111424822Y-74118645D01*
X111355195Y-74235534D01*
X111233475Y-74053368D01*
X111026632Y-73846525D01*
X110783411Y-73684010D01*
X110513158Y-73572068D01*
X110226260Y-73515000D01*
X109933740Y-73515000D01*
X109646842Y-73572068D01*
X109376589Y-73684010D01*
X109133368Y-73846525D01*
X108926525Y-74053368D01*
X108810000Y-74227760D01*
X108693475Y-74053368D01*
X108486632Y-73846525D01*
X108243411Y-73684010D01*
X107973158Y-73572068D01*
X107686260Y-73515000D01*
X107393740Y-73515000D01*
X107106842Y-73572068D01*
X106836589Y-73684010D01*
X106593368Y-73846525D01*
X106461513Y-73978380D01*
X106439502Y-73905820D01*
X106380537Y-73795506D01*
X106301185Y-73698815D01*
X106204494Y-73619463D01*
X106094180Y-73560498D01*
X105974482Y-73524188D01*
X105850000Y-73511928D01*
X105285750Y-73515000D01*
X105127000Y-73673750D01*
X104873000Y-73673750D01*
X104714250Y-73515000D01*
X104150000Y-73511928D01*
X104025518Y-73524188D01*
X103905820Y-73560498D01*
X103795506Y-73619463D01*
X103698815Y-73698815D01*
X103619463Y-73795506D01*
X103560498Y-73905820D01*
X103524188Y-74025518D01*
X103511928Y-74150000D01*
X102248962Y-74150000D01*
X102270403Y-74129223D01*
X102910451Y-73699129D01*
X103616553Y-73389171D01*
X104371457Y-73207935D01*
X105024207Y-73160000D01*
X142470608Y-73160000D01*
X143268083Y-73231173D01*
G37*
%TD.AperFunction*%
%TD*%
M02*
