M48
; DRILL file {KiCad (5.1.9)-1} date 06/05/21 18:29:08
; FORMAT={-:-/ absolute / inch / decimal}
; #@! TF.CreationDate,2021-06-05T18:29:08-04:00
; #@! TF.GenerationSoftware,Kicad,Pcbnew,(5.1.9)-1
; #@! TF.FileFunction,Plated,1,2,PTH
FMAT,2
INCH
T1C0.0157
T2C0.0472
T3C0.0500
T4C0.0600
T5C0.1693
%
G90
G05
T1
X4.0945Y-3.6614
X4.0945Y-3.7402
X4.0945Y-3.8386
X4.1732Y-3.6614
X4.1732Y-3.7402
X4.1732Y-3.8386
X4.252Y-3.6614
X4.252Y-3.7402
X4.252Y-3.8386
X4.2913Y-2.874
X4.2913Y-2.9528
X4.2913Y-3.0512
X4.3504Y-3.622
X4.3504Y-3.7008
X4.3504Y-3.7992
X4.3701Y-2.874
X4.3701Y-2.9528
X4.3701Y-3.0512
X4.4291Y-3.622
X4.4291Y-3.7008
X4.4291Y-3.7992
X4.4488Y-2.874
X4.4488Y-2.9528
X4.4488Y-3.0512
X4.5079Y-3.622
X4.5079Y-3.7008
X4.5079Y-3.7992
X4.5276Y-2.874
X4.5276Y-2.9528
X4.5276Y-3.0512
X4.5866Y-3.622
X4.5866Y-3.7008
X4.5866Y-3.7992
X4.6063Y-2.874
X4.6063Y-2.9528
X4.6063Y-3.0512
X4.6063Y-3.1496
X4.6063Y-3.2677
X4.6654Y-3.622
X4.6654Y-3.7008
X4.6654Y-3.7992
X4.685Y-2.874
X4.685Y-2.9528
X4.685Y-3.0512
X4.7441Y-3.622
X4.7441Y-3.7008
X4.7441Y-3.7992
X4.7638Y-3.1496
X4.7638Y-3.2677
X4.8228Y-3.622
X4.8228Y-3.7008
X4.8228Y-3.7992
X4.8819Y-3.1102
X4.8819Y-3.1496
X4.8819Y-3.189
X4.8819Y-3.2283
X4.8819Y-3.2677
X4.8819Y-3.3071
X4.9016Y-3.622
X4.9016Y-3.7008
X4.9016Y-3.7992
X4.9606Y-3.1102
X4.9606Y-3.1496
X4.9606Y-3.189
X4.9803Y-3.622
X4.9803Y-3.7008
X4.9803Y-3.7992
X5.0Y-3.3858
X5.0394Y-3.1102
X5.0394Y-3.1496
X5.0591Y-3.622
X5.0591Y-3.7008
X5.0591Y-3.7992
X5.0787Y-3.3465
X5.0787Y-3.3858
X5.1181Y-3.1102
X5.1181Y-3.1496
X5.1378Y-3.622
X5.1378Y-3.7008
X5.1378Y-3.7992
X5.1575Y-3.3858
X5.1969Y-2.8543
X5.1969Y-2.9331
X5.1969Y-3.0315
X5.1969Y-3.1102
X5.1969Y-3.1496
X5.1969Y-3.189
X5.1969Y-3.9567
X5.1969Y-4.0354
X5.1969Y-4.1142
X5.2165Y-3.622
X5.2165Y-3.7008
X5.2165Y-3.7992
X5.2362Y-3.5433
X5.2756Y-2.8543
X5.2756Y-2.9331
X5.2756Y-3.0315
X5.2756Y-3.1102
X5.2756Y-3.1496
X5.2756Y-3.189
X5.2756Y-3.2283
X5.2756Y-3.2677
X5.2756Y-3.3071
X5.2756Y-3.9567
X5.2756Y-4.0354
X5.2756Y-4.1142
X5.2953Y-3.622
X5.2953Y-3.7008
X5.2953Y-3.7992
X5.315Y-3.4449
X5.315Y-3.5433
X5.3543Y-2.8543
X5.3543Y-2.9331
X5.3543Y-3.0315
X5.374Y-3.1102
X5.374Y-3.189
X5.374Y-3.2874
X5.374Y-3.622
X5.374Y-3.7008
X5.374Y-3.7992
X5.374Y-3.9567
X5.374Y-4.0354
X5.374Y-4.1142
X5.3937Y-3.5433
X5.4331Y-2.8543
X5.4331Y-2.9331
X5.4331Y-3.0315
X5.4528Y-3.1102
X5.4528Y-3.189
X5.4528Y-3.2874
X5.5118Y-2.8543
X5.5118Y-2.9331
X5.5118Y-3.0315
X5.5315Y-3.1102
X5.5315Y-3.189
X5.5315Y-3.2874
X5.5315Y-3.4449
X5.5315Y-3.5433
X5.5315Y-3.622
X5.5315Y-3.7008
X5.5315Y-3.7992
X5.5906Y-2.8543
X5.5906Y-2.9331
X5.5906Y-3.0315
X5.6063Y-4.0984
X5.6102Y-3.1102
X5.6102Y-3.189
X5.6102Y-3.2874
X5.6102Y-3.4449
X5.6102Y-3.5433
X5.6102Y-3.622
X5.6102Y-3.7008
X5.6102Y-3.7992
X5.6693Y-3.0512
X5.6693Y-3.1102
X5.6693Y-3.1496
X5.6693Y-3.189
X5.6693Y-3.2283
X5.6693Y-3.2677
X5.6693Y-3.3071
X5.6693Y-3.4449
X5.6693Y-3.5433
X5.6693Y-3.622
X5.6693Y-3.7008
X5.6693Y-3.7992
X5.748Y-3.0512
X5.748Y-3.1102
X5.748Y-3.1496
X5.748Y-3.189
X5.748Y-3.2283
X5.748Y-3.5433
X5.748Y-3.622
X5.748Y-3.7008
X5.748Y-3.7992
X5.8071Y-3.9567
X5.8071Y-4.0354
X5.8071Y-4.1142
X5.8268Y-3.0512
X5.8268Y-3.1102
X5.8268Y-3.1496
X5.8268Y-3.3465
X5.8268Y-3.3858
X5.8268Y-3.4252
X5.8268Y-3.622
X5.8268Y-3.7008
X5.8268Y-3.7992
X5.9055Y-3.0512
X5.9055Y-3.1102
X5.9055Y-3.1496
X5.9055Y-3.3465
X5.9055Y-3.3858
X5.9055Y-3.4252
X5.9055Y-3.622
X5.9055Y-3.7008
X5.9055Y-3.7992
X5.9055Y-3.9567
X5.9055Y-4.0354
X5.9055Y-4.1142
X5.9843Y-3.0512
X5.9843Y-3.1102
X5.9843Y-3.1496
X5.9843Y-3.189
X5.9843Y-3.3465
X5.9843Y-3.3858
X5.9843Y-3.4252
X5.9843Y-3.622
X5.9843Y-3.7008
X5.9843Y-3.7992
X6.063Y-3.0512
X6.063Y-3.1102
X6.063Y-3.1496
X6.063Y-3.189
X6.063Y-3.2283
X6.063Y-3.622
X6.063Y-3.7008
X6.063Y-3.7992
X6.1417Y-3.0512
X6.1417Y-3.1102
X6.1417Y-3.1496
X6.1417Y-3.189
X6.1417Y-3.2283
X6.1417Y-3.2677
X6.1417Y-3.622
X6.1417Y-3.7008
X6.1417Y-3.7992
X6.1811Y-3.9567
X6.1811Y-4.0354
X6.1811Y-4.1142
X6.2402Y-3.622
X6.2402Y-3.7008
X6.2402Y-3.7992
X6.2598Y-3.4646
X6.2598Y-3.5433
X6.2598Y-3.9567
X6.2598Y-4.0354
X6.2598Y-4.1142
X6.3189Y-3.622
X6.3189Y-3.7008
X6.3189Y-3.7992
X6.3386Y-3.1102
X6.3386Y-3.1496
X6.3386Y-3.189
X6.3386Y-3.2283
X6.3386Y-3.2677
X6.3386Y-3.3071
X6.3386Y-3.4646
X6.3386Y-3.5433
X6.3583Y-3.9567
X6.3583Y-4.0354
X6.3583Y-4.1142
X6.3976Y-3.622
X6.3976Y-3.7008
X6.3976Y-3.7992
X6.4173Y-3.1102
X6.4173Y-3.1496
X6.4173Y-3.189
X6.4173Y-3.2283
X6.4173Y-3.2677
X6.4173Y-3.3071
X6.4173Y-3.4646
X6.4173Y-3.5433
X6.4764Y-3.622
X6.4764Y-3.7008
X6.4764Y-3.7992
X6.4961Y-3.4646
X6.4961Y-3.5433
X6.5551Y-3.622
X6.5551Y-3.7008
X6.5551Y-3.7992
X6.5748Y-3.4646
X6.5748Y-3.5433
X6.6339Y-3.622
X6.6339Y-3.7008
X6.6339Y-3.7992
X6.6535Y-3.1102
X6.6535Y-3.4646
X6.6535Y-3.5433
X6.7126Y-3.622
X6.7126Y-3.7008
X6.7126Y-3.7992
X6.7323Y-3.1102
X6.7323Y-3.1496
X6.7323Y-3.189
X6.7323Y-3.2283
X6.7323Y-3.2677
X6.7323Y-3.3071
X6.7717Y-2.8543
X6.7717Y-2.9331
X6.7717Y-3.0315
X6.811Y-3.1102
X6.811Y-3.1496
X6.811Y-3.189
X6.811Y-3.2283
X6.811Y-3.2677
X6.811Y-3.3071
X6.811Y-3.622
X6.811Y-3.7008
X6.811Y-3.7992
X6.8504Y-2.8543
X6.8504Y-2.9331
X6.8504Y-3.0315
X6.8898Y-3.622
X6.8898Y-3.7008
X6.8898Y-3.7992
X6.9291Y-2.8543
X6.9291Y-2.9331
X6.9291Y-3.0315
X6.9685Y-3.622
X6.9685Y-3.7008
X6.9685Y-3.7992
X7.0079Y-2.8543
X7.0079Y-2.9331
X7.0079Y-3.0315
X7.0472Y-3.622
X7.0472Y-3.7008
X7.0472Y-3.7992
X7.0866Y-2.8543
X7.0866Y-2.9331
X7.0866Y-3.0315
X7.126Y-3.622
X7.126Y-3.7008
X7.126Y-3.7992
X7.1654Y-2.8543
X7.1654Y-2.9331
X7.1654Y-3.0315
X7.2047Y-3.622
X7.2047Y-3.7008
X7.2047Y-3.7992
X7.2835Y-3.622
X7.2835Y-3.7008
X7.2835Y-3.7992
T2
X5.0108Y-3.2717
X5.1289Y-3.2717
X5.4636Y-3.9803
X5.4636Y-4.0984
X5.8228Y-3.2717
X5.9409Y-3.2717
X6.5551Y-3.1693
X6.5551Y-3.2874
T3
X4.2992Y-3.3898
X7.123Y-3.3898
T4
X4.1742Y-3.2648
X4.1742Y-3.5148
X4.4242Y-3.2648
X4.4242Y-3.5148
X6.998Y-3.2648
X6.998Y-3.5148
X7.248Y-3.2648
X7.248Y-3.5148
T5
X7.3228Y-4.1339
T0
M30
