%TF.GenerationSoftware,KiCad,Pcbnew,(5.1.9)-1*%
%TF.CreationDate,2021-06-05T18:29:07-04:00*%
%TF.ProjectId,SMD_Filter,534d445f-4669-46c7-9465-722e6b696361,rev?*%
%TF.SameCoordinates,Original*%
%TF.FileFunction,Soldermask,Bot*%
%TF.FilePolarity,Negative*%
%FSLAX46Y46*%
G04 Gerber Fmt 4.6, Leading zero omitted, Abs format (unit mm)*
G04 Created by KiCad (PCBNEW (5.1.9)-1) date 2021-06-05 18:29:07*
%MOMM*%
%LPD*%
G01*
G04 APERTURE LIST*
%ADD10C,0.100000*%
%ADD11C,4.300000*%
%ADD12C,7.500000*%
%ADD13C,2.400000*%
%ADD14C,3.810000*%
%ADD15C,3.556000*%
G04 APERTURE END LIST*
D10*
G36*
X193000000Y-95000000D02*
G01*
X172000000Y-95000000D01*
X172000000Y-92000000D01*
X188000000Y-92000000D01*
X188000000Y-80000000D01*
X172000000Y-80000000D01*
X172000000Y-77000000D01*
X193000000Y-77000000D01*
X193000000Y-95000000D01*
G37*
X193000000Y-95000000D02*
X172000000Y-95000000D01*
X172000000Y-92000000D01*
X188000000Y-92000000D01*
X188000000Y-80000000D01*
X172000000Y-80000000D01*
X172000000Y-77000000D01*
X193000000Y-77000000D01*
X193000000Y-95000000D01*
G36*
X172000000Y-78500000D02*
G01*
X122000000Y-78500000D01*
X122000000Y-68000000D01*
X172000000Y-68000000D01*
X172000000Y-78500000D01*
G37*
X172000000Y-78500000D02*
X122000000Y-78500000D01*
X122000000Y-68000000D01*
X172000000Y-68000000D01*
X172000000Y-78500000D01*
G36*
X172000000Y-97000000D02*
G01*
X122000000Y-97000000D01*
X122000000Y-91750000D01*
X172000000Y-91750000D01*
X172000000Y-97000000D01*
G37*
X172000000Y-97000000D02*
X122000000Y-97000000D01*
X122000000Y-91750000D01*
X172000000Y-91750000D01*
X172000000Y-97000000D01*
G36*
X172000000Y-115000000D02*
G01*
X148000000Y-115000000D01*
X148000000Y-92500000D01*
X172000000Y-92500000D01*
X172000000Y-115000000D01*
G37*
X172000000Y-115000000D02*
X148000000Y-115000000D01*
X148000000Y-92500000D01*
X172000000Y-92500000D01*
X172000000Y-115000000D01*
G36*
X175000000Y-92000000D02*
G01*
X169500000Y-92000000D01*
X169500000Y-78000000D01*
X175000000Y-78000000D01*
X175000000Y-92000000D01*
G37*
X175000000Y-92000000D02*
X169500000Y-92000000D01*
X169500000Y-78000000D01*
X175000000Y-78000000D01*
X175000000Y-92000000D01*
G36*
X160000000Y-92000000D02*
G01*
X157500000Y-92000000D01*
X157500000Y-78000000D01*
X160000000Y-78000000D01*
X160000000Y-92000000D01*
G37*
X160000000Y-92000000D02*
X157500000Y-92000000D01*
X157500000Y-78000000D01*
X160000000Y-78000000D01*
X160000000Y-92000000D01*
G36*
X144000000Y-92000000D02*
G01*
X141500000Y-92000000D01*
X141500000Y-78000000D01*
X144000000Y-78000000D01*
X144000000Y-92000000D01*
G37*
X144000000Y-92000000D02*
X141500000Y-92000000D01*
X141500000Y-78000000D01*
X144000000Y-78000000D01*
X144000000Y-92000000D01*
G36*
X137500000Y-92000000D02*
G01*
X135000000Y-92000000D01*
X135000000Y-78000000D01*
X137500000Y-78000000D01*
X137500000Y-92000000D01*
G37*
X137500000Y-92000000D02*
X135000000Y-92000000D01*
X135000000Y-78000000D01*
X137500000Y-78000000D01*
X137500000Y-92000000D01*
G36*
X150000000Y-115000000D02*
G01*
X130000000Y-115000000D01*
X130000000Y-107500000D01*
X150000000Y-107500000D01*
X150000000Y-115000000D01*
G37*
X150000000Y-115000000D02*
X130000000Y-115000000D01*
X130000000Y-107500000D01*
X150000000Y-107500000D01*
X150000000Y-115000000D01*
G36*
X132500000Y-92500000D02*
G01*
X132500000Y-115000000D01*
X122000000Y-115000000D01*
X122000000Y-92250000D01*
X132500000Y-92500000D01*
G37*
X132500000Y-92500000D02*
X132500000Y-115000000D01*
X122000000Y-115000000D01*
X122000000Y-92250000D01*
X132500000Y-92500000D01*
G36*
X124500000Y-92000000D02*
G01*
X122000000Y-92000000D01*
X122000000Y-78000000D01*
X124500000Y-78000000D01*
X124500000Y-92000000D01*
G37*
X124500000Y-92000000D02*
X122000000Y-92000000D01*
X122000000Y-78000000D01*
X124500000Y-78000000D01*
X124500000Y-92000000D01*
D11*
%TO.C,H4*%
X186000000Y-75000000D03*
%TD*%
%TO.C,H3*%
X104000000Y-75000000D03*
%TD*%
%TO.C,H2*%
X104000000Y-105000000D03*
%TD*%
D12*
%TO.C,H1*%
X186000000Y-105000000D03*
%TD*%
D13*
%TO.C,L4*%
X166500000Y-83500000D03*
X166500000Y-80500000D03*
%TD*%
%TO.C,L3*%
X147900000Y-83100000D03*
X150900000Y-83100000D03*
%TD*%
%TO.C,L2*%
X138775000Y-101100000D03*
X138775000Y-104100000D03*
%TD*%
%TO.C,L1*%
X127275000Y-83100000D03*
X130275000Y-83100000D03*
%TD*%
D14*
%TO.C,J2*%
X184100000Y-89275000D03*
X177750000Y-89275000D03*
X184100000Y-82925000D03*
D15*
X180925000Y-86100000D03*
D14*
X177750000Y-82925000D03*
%TD*%
%TO.C,J1*%
X112375000Y-89275000D03*
X106025000Y-89275000D03*
X112375000Y-82925000D03*
D15*
X109200000Y-86100000D03*
D14*
X106025000Y-82925000D03*
%TD*%
M02*
