%TF.GenerationSoftware,KiCad,Pcbnew,(5.1.9)-1*%
%TF.CreationDate,2021-06-05T18:29:07-04:00*%
%TF.ProjectId,SMD_Filter,534d445f-4669-46c7-9465-722e6b696361,rev?*%
%TF.SameCoordinates,Original*%
%TF.FileFunction,Copper,L2,Bot*%
%TF.FilePolarity,Positive*%
%FSLAX46Y46*%
G04 Gerber Fmt 4.6, Leading zero omitted, Abs format (unit mm)*
G04 Created by KiCad (PCBNEW (5.1.9)-1) date 2021-06-05 18:29:07*
%MOMM*%
%LPD*%
G01*
G04 APERTURE LIST*
%TA.AperFunction,ComponentPad*%
%ADD10C,7.500000*%
%TD*%
%TA.AperFunction,ComponentPad*%
%ADD11C,2.400000*%
%TD*%
%TA.AperFunction,ComponentPad*%
%ADD12C,3.810000*%
%TD*%
%TA.AperFunction,ComponentPad*%
%ADD13C,3.556000*%
%TD*%
%TA.AperFunction,ViaPad*%
%ADD14C,0.800000*%
%TD*%
%TA.AperFunction,Conductor*%
%ADD15C,1.000000*%
%TD*%
%TA.AperFunction,Conductor*%
%ADD16C,0.254000*%
%TD*%
%TA.AperFunction,Conductor*%
%ADD17C,0.100000*%
%TD*%
G04 APERTURE END LIST*
D10*
%TO.P,H1,1*%
%TO.N,GND*%
X186000000Y-105000000D03*
%TD*%
D11*
%TO.P,L4,2*%
%TO.N,Net-(C4-Pad1)*%
X166500000Y-83500000D03*
%TO.P,L4,1*%
%TO.N,GND*%
X166500000Y-80500000D03*
%TD*%
%TO.P,L3,2*%
%TO.N,Net-(C2-Pad1)*%
X147900000Y-83100000D03*
%TO.P,L3,1*%
%TO.N,Net-(C4-Pad1)*%
X150900000Y-83100000D03*
%TD*%
%TO.P,L2,2*%
%TO.N,Net-(C3-Pad1)*%
X138775000Y-101100000D03*
%TO.P,L2,1*%
%TO.N,GND*%
X138775000Y-104100000D03*
%TD*%
%TO.P,L1,2*%
%TO.N,Net-(C1-Pad1)*%
X127275000Y-83100000D03*
%TO.P,L1,1*%
%TO.N,Net-(C2-Pad1)*%
X130275000Y-83100000D03*
%TD*%
D12*
%TO.P,J2,2*%
%TO.N,GND*%
X184100000Y-89275000D03*
X177750000Y-89275000D03*
X184100000Y-82925000D03*
D13*
%TO.P,J2,1*%
%TO.N,Net-(C4-Pad1)*%
X180925000Y-86100000D03*
D12*
%TO.P,J2,2*%
%TO.N,GND*%
X177750000Y-82925000D03*
%TD*%
%TO.P,J1,2*%
%TO.N,GND*%
X112375000Y-89275000D03*
X106025000Y-89275000D03*
X112375000Y-82925000D03*
D13*
%TO.P,J1,1*%
%TO.N,Net-(C1-Pad2)*%
X109200000Y-86100000D03*
D12*
%TO.P,J1,2*%
%TO.N,GND*%
X106025000Y-82925000D03*
%TD*%
D14*
%TO.N,GND*%
X144000000Y-84000000D03*
X144000000Y-83000000D03*
X144000000Y-82000000D03*
X144000000Y-81000000D03*
X144000000Y-80000000D03*
X144000000Y-79000000D03*
X156000000Y-82000000D03*
X156000000Y-79000000D03*
X156000000Y-83000000D03*
X156000000Y-81000000D03*
X156000000Y-80000000D03*
X152000000Y-85000000D03*
X152000000Y-87000000D03*
X152000000Y-86000000D03*
X161000000Y-80000000D03*
X173000000Y-79000000D03*
X173000000Y-80000000D03*
X161000000Y-79000000D03*
X173000000Y-81000000D03*
X161000000Y-81000000D03*
X173000000Y-82000000D03*
X173000000Y-84000000D03*
X173000000Y-83000000D03*
X163000000Y-82000000D03*
X163000000Y-84000000D03*
X163000000Y-83000000D03*
X117000000Y-80000000D03*
X142400000Y-104100000D03*
X121000000Y-80000000D03*
X121000000Y-83000000D03*
X117000000Y-83000000D03*
X128000000Y-80000000D03*
X130000000Y-80000000D03*
X132000000Y-80000000D03*
X132000000Y-81000000D03*
X134000000Y-81000000D03*
X134000000Y-80000000D03*
X134000000Y-79000000D03*
X132000000Y-79000000D03*
X130000000Y-79000000D03*
X128000000Y-79000000D03*
X126000000Y-79000000D03*
X126000000Y-80000000D03*
X126000000Y-81000000D03*
X127000000Y-86000000D03*
X129000000Y-86000000D03*
X131000000Y-86000000D03*
X129000000Y-85000000D03*
X134000000Y-84000000D03*
X134000000Y-83000000D03*
X134000000Y-82000000D03*
X152000000Y-79000000D03*
X150000000Y-80000000D03*
X146000000Y-82000000D03*
X152000000Y-81000000D03*
X154000000Y-80000000D03*
X148000000Y-79000000D03*
X146000000Y-80000000D03*
X154000000Y-82000000D03*
X152000000Y-80000000D03*
X154000000Y-81000000D03*
X146000000Y-81000000D03*
X150000000Y-79000000D03*
X146000000Y-79000000D03*
X154000000Y-79000000D03*
X148000000Y-80000000D03*
X150000000Y-85000000D03*
X150000000Y-86000000D03*
X150000000Y-87000000D03*
X148000000Y-87000000D03*
X148000000Y-85000000D03*
X148000000Y-86000000D03*
X163000000Y-80000000D03*
X171000000Y-80000000D03*
X171000000Y-79000000D03*
X169000000Y-79000000D03*
X163000000Y-79000000D03*
X171000000Y-81000000D03*
X163000000Y-81000000D03*
X171000000Y-83000000D03*
X171000000Y-82000000D03*
X171000000Y-84000000D03*
X161000000Y-82000000D03*
X161000000Y-83000000D03*
X161000000Y-84000000D03*
X124000000Y-84000000D03*
X124000000Y-80000000D03*
X124000000Y-83000000D03*
X124000000Y-82000000D03*
X124000000Y-81000000D03*
X124000000Y-79000000D03*
X144000000Y-77500000D03*
X156000000Y-77500000D03*
X152000000Y-77500000D03*
X154000000Y-77500000D03*
X148000000Y-77500000D03*
X150000000Y-77500000D03*
X146000000Y-77500000D03*
X154000000Y-92000000D03*
X146000000Y-92000000D03*
X156000000Y-92000000D03*
X150000000Y-92000000D03*
X148000000Y-92000000D03*
X152000000Y-92000000D03*
X144000000Y-92000000D03*
X148000000Y-94000000D03*
X150000000Y-94000000D03*
X154000000Y-94000000D03*
X156000000Y-94000000D03*
X144000000Y-94000000D03*
X146000000Y-94000000D03*
X152000000Y-94000000D03*
X150000000Y-96500000D03*
X146000000Y-96500000D03*
X148000000Y-96500000D03*
X154000000Y-96500000D03*
X156000000Y-96500000D03*
X144000000Y-96500000D03*
X152000000Y-96500000D03*
X164500000Y-94000000D03*
X160500000Y-94000000D03*
X158500000Y-96500000D03*
X162500000Y-92000000D03*
X164500000Y-96500000D03*
X168500000Y-96500000D03*
X164500000Y-92000000D03*
X162500000Y-94000000D03*
X160500000Y-96500000D03*
X168500000Y-94000000D03*
X168500000Y-92000000D03*
X170500000Y-92000000D03*
X170500000Y-94000000D03*
X162500000Y-96500000D03*
X158500000Y-94000000D03*
X158500000Y-92000000D03*
X160500000Y-92000000D03*
X166500000Y-94000000D03*
X166500000Y-96500000D03*
X170500000Y-96500000D03*
X166500000Y-92000000D03*
X173000000Y-92000000D03*
X173000000Y-96500000D03*
X179000000Y-92000000D03*
X183000000Y-94000000D03*
X181000000Y-96500000D03*
X183000000Y-96500000D03*
X177000000Y-94000000D03*
X175000000Y-96500000D03*
X175000000Y-92000000D03*
X181000000Y-94000000D03*
X177000000Y-92000000D03*
X179000000Y-94000000D03*
X185000000Y-94000000D03*
X183000000Y-92000000D03*
X177000000Y-96500000D03*
X173000000Y-94000000D03*
X179000000Y-96500000D03*
X185000000Y-92000000D03*
X185000000Y-96500000D03*
X175000000Y-94000000D03*
X181000000Y-92000000D03*
X128500000Y-94000000D03*
X128500000Y-92000000D03*
X134500000Y-92000000D03*
X126500000Y-94000000D03*
X134500000Y-96500000D03*
X126500000Y-92000000D03*
X132500000Y-94000000D03*
X130500000Y-92000000D03*
X136500000Y-92000000D03*
X136500000Y-94000000D03*
X134500000Y-94000000D03*
X124500000Y-94000000D03*
X124500000Y-92000000D03*
X124500000Y-96500000D03*
X130500000Y-94000000D03*
X130500000Y-96500000D03*
X126500000Y-96500000D03*
X128500000Y-96500000D03*
X132500000Y-92000000D03*
X132500000Y-96500000D03*
X136500000Y-96500000D03*
X112500000Y-94000000D03*
X122500000Y-92000000D03*
X110500000Y-92000000D03*
X114500000Y-94000000D03*
X120500000Y-94000000D03*
X116500000Y-94000000D03*
X118500000Y-92000000D03*
X114500000Y-96500000D03*
X118500000Y-96500000D03*
X122500000Y-96500000D03*
X112500000Y-96500000D03*
X120500000Y-96500000D03*
X122500000Y-94000000D03*
X112500000Y-92000000D03*
X110500000Y-94000000D03*
X118500000Y-94000000D03*
X120500000Y-92000000D03*
X116500000Y-92000000D03*
X110500000Y-96500000D03*
X114500000Y-92000000D03*
X116500000Y-96500000D03*
X136500000Y-100500000D03*
X132000000Y-104500000D03*
X134000000Y-100500000D03*
X132000000Y-100500000D03*
X134000000Y-104500000D03*
X134000000Y-102500000D03*
X136500000Y-102500000D03*
X132000000Y-102500000D03*
X136500000Y-104500000D03*
X157000000Y-104500000D03*
X157000000Y-100500000D03*
X161500000Y-102500000D03*
X157000000Y-102500000D03*
X161500000Y-100500000D03*
X159000000Y-100500000D03*
X161500000Y-104500000D03*
X159000000Y-104500000D03*
X159000000Y-102500000D03*
X150000000Y-104500000D03*
X147500000Y-100500000D03*
X150000000Y-102500000D03*
X150000000Y-100500000D03*
X147500000Y-104500000D03*
X147500000Y-102500000D03*
X133000000Y-90000000D03*
X135000000Y-87500000D03*
X137000000Y-90000000D03*
X135000000Y-90000000D03*
X140500000Y-87500000D03*
X140500000Y-90000000D03*
X142500000Y-90000000D03*
X146000000Y-90000000D03*
X144000000Y-87500000D03*
X144000000Y-90000000D03*
X142500000Y-87500000D03*
X142500000Y-94000000D03*
X140500000Y-96500000D03*
X142500000Y-96500000D03*
X140500000Y-94000000D03*
X140500000Y-92000000D03*
X142500000Y-92000000D03*
X142500000Y-81000000D03*
X140500000Y-83500000D03*
X140500000Y-81000000D03*
X142500000Y-83500000D03*
X142500000Y-79000000D03*
X140500000Y-79000000D03*
X136500000Y-81000000D03*
X136500000Y-83500000D03*
X136500000Y-79000000D03*
X138500000Y-79000000D03*
X138500000Y-81000000D03*
X138500000Y-83500000D03*
X163000000Y-88000000D03*
X167000000Y-90000000D03*
X161000000Y-90000000D03*
X159000000Y-88000000D03*
X165000000Y-90000000D03*
X161000000Y-88000000D03*
X163000000Y-90000000D03*
X169000000Y-90000000D03*
X167000000Y-88000000D03*
X169000000Y-88000000D03*
X159000000Y-90000000D03*
X165000000Y-88000000D03*
X106000000Y-93000000D03*
X106000000Y-95000000D03*
X104000000Y-95000000D03*
X108000000Y-95000000D03*
X104000000Y-93000000D03*
X104000000Y-97500000D03*
X108000000Y-97500000D03*
X108000000Y-93000000D03*
X106000000Y-97500000D03*
X117000000Y-75000000D03*
X115000000Y-73000000D03*
X119000000Y-75000000D03*
X119000000Y-77500000D03*
X117000000Y-77500000D03*
X117000000Y-73000000D03*
X115000000Y-75000000D03*
X115000000Y-77500000D03*
X119000000Y-73000000D03*
X113000000Y-77500000D03*
X109000000Y-73000000D03*
X113000000Y-75000000D03*
X113000000Y-73000000D03*
X109000000Y-75000000D03*
X111000000Y-75000000D03*
X111000000Y-77500000D03*
X111000000Y-73000000D03*
X109000000Y-77500000D03*
X140000000Y-77000000D03*
X136000000Y-72500000D03*
X140000000Y-72500000D03*
X138000000Y-72500000D03*
X134000000Y-72500000D03*
X138000000Y-74500000D03*
X138000000Y-77000000D03*
X136000000Y-74500000D03*
X142000000Y-72500000D03*
X132000000Y-74500000D03*
X140000000Y-74500000D03*
X132000000Y-77000000D03*
X142000000Y-77000000D03*
X132000000Y-72500000D03*
X134000000Y-74500000D03*
X134000000Y-77000000D03*
X142000000Y-74500000D03*
X136000000Y-77000000D03*
X172000000Y-77000000D03*
X182000000Y-77000000D03*
X172000000Y-72500000D03*
X174000000Y-77000000D03*
X182000000Y-74500000D03*
X180000000Y-74500000D03*
X176000000Y-77000000D03*
X178000000Y-74500000D03*
X182000000Y-72500000D03*
X178000000Y-72500000D03*
X180000000Y-77000000D03*
X172000000Y-74500000D03*
X174000000Y-72500000D03*
X176000000Y-72500000D03*
X178000000Y-77000000D03*
X180000000Y-72500000D03*
X176000000Y-74500000D03*
X174000000Y-74500000D03*
%TD*%
D15*
%TO.N,GND*%
X177750000Y-82925000D02*
X184100000Y-82925000D01*
X184100000Y-89275000D02*
X177750000Y-89275000D01*
%TD*%
D16*
%TO.N,GND*%
X126299826Y-71928332D02*
X125928332Y-72299826D01*
X125636451Y-72736657D01*
X125435400Y-73222037D01*
X125332905Y-73737314D01*
X125332905Y-74262686D01*
X125435400Y-74777963D01*
X125636451Y-75263343D01*
X125928332Y-75700174D01*
X126299826Y-76071668D01*
X126736657Y-76363549D01*
X127222037Y-76564600D01*
X127737314Y-76667095D01*
X128262686Y-76667095D01*
X128777963Y-76564600D01*
X129263343Y-76363549D01*
X129700174Y-76071668D01*
X130071668Y-75700174D01*
X130363549Y-75263343D01*
X130564600Y-74777963D01*
X130667095Y-74262686D01*
X130667095Y-73737314D01*
X130564600Y-73222037D01*
X130363549Y-72736657D01*
X130071668Y-72299826D01*
X129700174Y-71928332D01*
X129298587Y-71660000D01*
X151701413Y-71660000D01*
X151299826Y-71928332D01*
X150928332Y-72299826D01*
X150636451Y-72736657D01*
X150435400Y-73222037D01*
X150332905Y-73737314D01*
X150332905Y-74262686D01*
X150435400Y-74777963D01*
X150636451Y-75263343D01*
X150928332Y-75700174D01*
X151299826Y-76071668D01*
X151736657Y-76363549D01*
X152222037Y-76564600D01*
X152737314Y-76667095D01*
X153262686Y-76667095D01*
X153777963Y-76564600D01*
X154263343Y-76363549D01*
X154700174Y-76071668D01*
X155071668Y-75700174D01*
X155363549Y-75263343D01*
X155564600Y-74777963D01*
X155667095Y-74262686D01*
X155667095Y-73737314D01*
X155564600Y-73222037D01*
X155363549Y-72736657D01*
X155071668Y-72299826D01*
X154700174Y-71928332D01*
X154298587Y-71660000D01*
X164701413Y-71660000D01*
X164299826Y-71928332D01*
X163928332Y-72299826D01*
X163636451Y-72736657D01*
X163435400Y-73222037D01*
X163332905Y-73737314D01*
X163332905Y-74262686D01*
X163435400Y-74777963D01*
X163636451Y-75263343D01*
X163928332Y-75700174D01*
X164299826Y-76071668D01*
X164736657Y-76363549D01*
X165222037Y-76564600D01*
X165737314Y-76667095D01*
X166262686Y-76667095D01*
X166777963Y-76564600D01*
X167263343Y-76363549D01*
X167700174Y-76071668D01*
X168071668Y-75700174D01*
X168363549Y-75263343D01*
X168564600Y-74777963D01*
X168574995Y-74725701D01*
X183215000Y-74725701D01*
X183215000Y-75274299D01*
X183322026Y-75812354D01*
X183531965Y-76319192D01*
X183836750Y-76775334D01*
X184224666Y-77163250D01*
X184680808Y-77468035D01*
X185187646Y-77677974D01*
X185725701Y-77785000D01*
X186274299Y-77785000D01*
X186812354Y-77677974D01*
X187319192Y-77468035D01*
X187775334Y-77163250D01*
X188163250Y-76775334D01*
X188468035Y-76319192D01*
X188677974Y-75812354D01*
X188785000Y-75274299D01*
X188785000Y-74725701D01*
X188677974Y-74187646D01*
X188468035Y-73680808D01*
X188163250Y-73224666D01*
X187775334Y-72836750D01*
X187319192Y-72531965D01*
X186812354Y-72322026D01*
X186274299Y-72215000D01*
X185725701Y-72215000D01*
X185187646Y-72322026D01*
X184680808Y-72531965D01*
X184224666Y-72836750D01*
X183836750Y-73224666D01*
X183531965Y-73680808D01*
X183322026Y-74187646D01*
X183215000Y-74725701D01*
X168574995Y-74725701D01*
X168667095Y-74262686D01*
X168667095Y-73737314D01*
X168564600Y-73222037D01*
X168363549Y-72736657D01*
X168071668Y-72299826D01*
X167700174Y-71928332D01*
X167298587Y-71660000D01*
X186967721Y-71660000D01*
X187453893Y-71707670D01*
X187890498Y-71839489D01*
X188293185Y-72053600D01*
X188646612Y-72341848D01*
X188937327Y-72693261D01*
X189154242Y-73094439D01*
X189289106Y-73530113D01*
X189340001Y-74014353D01*
X189340000Y-102281409D01*
X189091872Y-102087733D01*
X186179605Y-105000000D01*
X186193748Y-105014143D01*
X186014143Y-105193748D01*
X186000000Y-105179605D01*
X183087733Y-108091872D01*
X183281409Y-108340000D01*
X103032279Y-108340000D01*
X102546106Y-108292330D01*
X102109503Y-108160512D01*
X101706814Y-107946399D01*
X101353387Y-107658150D01*
X101062673Y-107306739D01*
X100845760Y-106905564D01*
X100710894Y-106469886D01*
X100660000Y-105985664D01*
X100660000Y-104725701D01*
X101215000Y-104725701D01*
X101215000Y-105274299D01*
X101322026Y-105812354D01*
X101531965Y-106319192D01*
X101836750Y-106775334D01*
X102224666Y-107163250D01*
X102680808Y-107468035D01*
X103187646Y-107677974D01*
X103725701Y-107785000D01*
X104274299Y-107785000D01*
X104812354Y-107677974D01*
X105319192Y-107468035D01*
X105775334Y-107163250D01*
X106163250Y-106775334D01*
X106468035Y-106319192D01*
X106677974Y-105812354D01*
X106764376Y-105377980D01*
X137676626Y-105377980D01*
X137796514Y-105662836D01*
X138120210Y-105823699D01*
X138469069Y-105918322D01*
X138829684Y-105943067D01*
X139188198Y-105896985D01*
X139530833Y-105781846D01*
X139753486Y-105662836D01*
X139873374Y-105377980D01*
X138775000Y-104279605D01*
X137676626Y-105377980D01*
X106764376Y-105377980D01*
X106785000Y-105274299D01*
X106785000Y-104725701D01*
X106677974Y-104187646D01*
X106468035Y-103680808D01*
X106163250Y-103224666D01*
X105775334Y-102836750D01*
X105319192Y-102531965D01*
X104812354Y-102322026D01*
X104274299Y-102215000D01*
X103725701Y-102215000D01*
X103187646Y-102322026D01*
X102680808Y-102531965D01*
X102224666Y-102836750D01*
X101836750Y-103224666D01*
X101531965Y-103680808D01*
X101322026Y-104187646D01*
X101215000Y-104725701D01*
X100660000Y-104725701D01*
X100660000Y-101737314D01*
X125332905Y-101737314D01*
X125332905Y-102262686D01*
X125435400Y-102777963D01*
X125636451Y-103263343D01*
X125928332Y-103700174D01*
X126299826Y-104071668D01*
X126736657Y-104363549D01*
X127222037Y-104564600D01*
X127737314Y-104667095D01*
X128262686Y-104667095D01*
X128777963Y-104564600D01*
X129263343Y-104363549D01*
X129575931Y-104154684D01*
X136931933Y-104154684D01*
X136978015Y-104513198D01*
X137093154Y-104855833D01*
X137212164Y-105078486D01*
X137497020Y-105198374D01*
X138595395Y-104100000D01*
X138954605Y-104100000D01*
X140052980Y-105198374D01*
X140337836Y-105078486D01*
X140399707Y-104953986D01*
X181594024Y-104953986D01*
X181669707Y-105814434D01*
X181911801Y-106643583D01*
X182311001Y-107409570D01*
X182362128Y-107486088D01*
X182908128Y-107912267D01*
X185820395Y-105000000D01*
X182908128Y-102087733D01*
X182362128Y-102513912D01*
X181947017Y-103271395D01*
X181687661Y-104095307D01*
X181594024Y-104953986D01*
X140399707Y-104953986D01*
X140498699Y-104754790D01*
X140593322Y-104405931D01*
X140618067Y-104045316D01*
X140571985Y-103686802D01*
X140456846Y-103344167D01*
X140337836Y-103121514D01*
X140052980Y-103001626D01*
X138954605Y-104100000D01*
X138595395Y-104100000D01*
X137497020Y-103001626D01*
X137212164Y-103121514D01*
X137051301Y-103445210D01*
X136956678Y-103794069D01*
X136931933Y-104154684D01*
X129575931Y-104154684D01*
X129700174Y-104071668D01*
X130071668Y-103700174D01*
X130363549Y-103263343D01*
X130564600Y-102777963D01*
X130667095Y-102262686D01*
X130667095Y-101737314D01*
X130564600Y-101222037D01*
X130439189Y-100919268D01*
X136940000Y-100919268D01*
X136940000Y-101280732D01*
X137010518Y-101635250D01*
X137148844Y-101969199D01*
X137349662Y-102269744D01*
X137605256Y-102525338D01*
X137758419Y-102627678D01*
X137676626Y-102822020D01*
X138775000Y-103920395D01*
X139873374Y-102822020D01*
X139791581Y-102627678D01*
X139944744Y-102525338D01*
X140200338Y-102269744D01*
X140401156Y-101969199D01*
X140497205Y-101737314D01*
X150332905Y-101737314D01*
X150332905Y-102262686D01*
X150435400Y-102777963D01*
X150636451Y-103263343D01*
X150928332Y-103700174D01*
X151299826Y-104071668D01*
X151736657Y-104363549D01*
X152222037Y-104564600D01*
X152737314Y-104667095D01*
X153262686Y-104667095D01*
X153777963Y-104564600D01*
X154263343Y-104363549D01*
X154700174Y-104071668D01*
X155071668Y-103700174D01*
X155363549Y-103263343D01*
X155564600Y-102777963D01*
X155667095Y-102262686D01*
X155667095Y-101737314D01*
X163332905Y-101737314D01*
X163332905Y-102262686D01*
X163435400Y-102777963D01*
X163636451Y-103263343D01*
X163928332Y-103700174D01*
X164299826Y-104071668D01*
X164736657Y-104363549D01*
X165222037Y-104564600D01*
X165737314Y-104667095D01*
X166262686Y-104667095D01*
X166777963Y-104564600D01*
X167263343Y-104363549D01*
X167700174Y-104071668D01*
X168071668Y-103700174D01*
X168363549Y-103263343D01*
X168564600Y-102777963D01*
X168667095Y-102262686D01*
X168667095Y-101908128D01*
X183087733Y-101908128D01*
X186000000Y-104820395D01*
X188912267Y-101908128D01*
X188486088Y-101362128D01*
X187728605Y-100947017D01*
X186904693Y-100687661D01*
X186046014Y-100594024D01*
X185185566Y-100669707D01*
X184356417Y-100911801D01*
X183590430Y-101311001D01*
X183513912Y-101362128D01*
X183087733Y-101908128D01*
X168667095Y-101908128D01*
X168667095Y-101737314D01*
X168564600Y-101222037D01*
X168363549Y-100736657D01*
X168071668Y-100299826D01*
X167700174Y-99928332D01*
X167263343Y-99636451D01*
X166777963Y-99435400D01*
X166262686Y-99332905D01*
X165737314Y-99332905D01*
X165222037Y-99435400D01*
X164736657Y-99636451D01*
X164299826Y-99928332D01*
X163928332Y-100299826D01*
X163636451Y-100736657D01*
X163435400Y-101222037D01*
X163332905Y-101737314D01*
X155667095Y-101737314D01*
X155564600Y-101222037D01*
X155363549Y-100736657D01*
X155071668Y-100299826D01*
X154700174Y-99928332D01*
X154263343Y-99636451D01*
X153777963Y-99435400D01*
X153262686Y-99332905D01*
X152737314Y-99332905D01*
X152222037Y-99435400D01*
X151736657Y-99636451D01*
X151299826Y-99928332D01*
X150928332Y-100299826D01*
X150636451Y-100736657D01*
X150435400Y-101222037D01*
X150332905Y-101737314D01*
X140497205Y-101737314D01*
X140539482Y-101635250D01*
X140610000Y-101280732D01*
X140610000Y-100919268D01*
X140539482Y-100564750D01*
X140401156Y-100230801D01*
X140200338Y-99930256D01*
X139944744Y-99674662D01*
X139644199Y-99473844D01*
X139310250Y-99335518D01*
X138955732Y-99265000D01*
X138594268Y-99265000D01*
X138239750Y-99335518D01*
X137905801Y-99473844D01*
X137605256Y-99674662D01*
X137349662Y-99930256D01*
X137148844Y-100230801D01*
X137010518Y-100564750D01*
X136940000Y-100919268D01*
X130439189Y-100919268D01*
X130363549Y-100736657D01*
X130071668Y-100299826D01*
X129700174Y-99928332D01*
X129263343Y-99636451D01*
X128777963Y-99435400D01*
X128262686Y-99332905D01*
X127737314Y-99332905D01*
X127222037Y-99435400D01*
X126736657Y-99636451D01*
X126299826Y-99928332D01*
X125928332Y-100299826D01*
X125636451Y-100736657D01*
X125435400Y-101222037D01*
X125332905Y-101737314D01*
X100660000Y-101737314D01*
X100660000Y-91054907D01*
X104424699Y-91054907D01*
X104629405Y-91411937D01*
X105073117Y-91643143D01*
X105553409Y-91783343D01*
X106051823Y-91827149D01*
X106549208Y-91772877D01*
X107026447Y-91622613D01*
X107420595Y-91411937D01*
X107625301Y-91054907D01*
X110774699Y-91054907D01*
X110979405Y-91411937D01*
X111423117Y-91643143D01*
X111903409Y-91783343D01*
X112401823Y-91827149D01*
X112899208Y-91772877D01*
X113376447Y-91622613D01*
X113770595Y-91411937D01*
X113975301Y-91054907D01*
X176149699Y-91054907D01*
X176354405Y-91411937D01*
X176798117Y-91643143D01*
X177278409Y-91783343D01*
X177776823Y-91827149D01*
X178274208Y-91772877D01*
X178751447Y-91622613D01*
X179145595Y-91411937D01*
X179350301Y-91054907D01*
X182499699Y-91054907D01*
X182704405Y-91411937D01*
X183148117Y-91643143D01*
X183628409Y-91783343D01*
X184126823Y-91827149D01*
X184624208Y-91772877D01*
X185101447Y-91622613D01*
X185495595Y-91411937D01*
X185700301Y-91054907D01*
X184100000Y-89454605D01*
X182499699Y-91054907D01*
X179350301Y-91054907D01*
X177750000Y-89454605D01*
X176149699Y-91054907D01*
X113975301Y-91054907D01*
X112375000Y-89454605D01*
X110774699Y-91054907D01*
X107625301Y-91054907D01*
X106025000Y-89454605D01*
X104424699Y-91054907D01*
X100660000Y-91054907D01*
X100660000Y-89301823D01*
X103472851Y-89301823D01*
X103527123Y-89799208D01*
X103677387Y-90276447D01*
X103888063Y-90670595D01*
X104245093Y-90875301D01*
X105845395Y-89275000D01*
X104245093Y-87674699D01*
X103888063Y-87879405D01*
X103656857Y-88323117D01*
X103516657Y-88803409D01*
X103472851Y-89301823D01*
X100660000Y-89301823D01*
X100660000Y-84704907D01*
X104424699Y-84704907D01*
X104629405Y-85061937D01*
X105073117Y-85293143D01*
X105553409Y-85433343D01*
X106051823Y-85477149D01*
X106549208Y-85422877D01*
X106916574Y-85307208D01*
X106879731Y-85396154D01*
X106787000Y-85862340D01*
X106787000Y-86337660D01*
X106879731Y-86803846D01*
X106914906Y-86888766D01*
X106496591Y-86766657D01*
X105998177Y-86722851D01*
X105500792Y-86777123D01*
X105023553Y-86927387D01*
X104629405Y-87138063D01*
X104424699Y-87495093D01*
X106025000Y-89095395D01*
X106039143Y-89081253D01*
X106218748Y-89260858D01*
X106204605Y-89275000D01*
X107804907Y-90875301D01*
X108161937Y-90670595D01*
X108393143Y-90226883D01*
X108533343Y-89746591D01*
X108577149Y-89248177D01*
X108522877Y-88750792D01*
X108407208Y-88383426D01*
X108496154Y-88420269D01*
X108962340Y-88513000D01*
X109437660Y-88513000D01*
X109903846Y-88420269D01*
X109988766Y-88385094D01*
X109866657Y-88803409D01*
X109822851Y-89301823D01*
X109877123Y-89799208D01*
X110027387Y-90276447D01*
X110238063Y-90670595D01*
X110595093Y-90875301D01*
X112195395Y-89275000D01*
X112554605Y-89275000D01*
X114154907Y-90875301D01*
X114511937Y-90670595D01*
X114743143Y-90226883D01*
X114883343Y-89746591D01*
X114922434Y-89301823D01*
X175197851Y-89301823D01*
X175252123Y-89799208D01*
X175402387Y-90276447D01*
X175613063Y-90670595D01*
X175970093Y-90875301D01*
X177570395Y-89275000D01*
X175970093Y-87674699D01*
X175613063Y-87879405D01*
X175381857Y-88323117D01*
X175241657Y-88803409D01*
X175197851Y-89301823D01*
X114922434Y-89301823D01*
X114927149Y-89248177D01*
X114872877Y-88750792D01*
X114722613Y-88273553D01*
X114511937Y-87879405D01*
X114154907Y-87674699D01*
X112554605Y-89275000D01*
X112195395Y-89275000D01*
X112181253Y-89260858D01*
X112360858Y-89081253D01*
X112375000Y-89095395D01*
X113975301Y-87495093D01*
X113770595Y-87138063D01*
X113326883Y-86906857D01*
X112846591Y-86766657D01*
X112348177Y-86722851D01*
X111850792Y-86777123D01*
X111483426Y-86892792D01*
X111520269Y-86803846D01*
X111613000Y-86337660D01*
X111613000Y-85862340D01*
X111520269Y-85396154D01*
X111485094Y-85311234D01*
X111903409Y-85433343D01*
X112401823Y-85477149D01*
X112899208Y-85422877D01*
X113376447Y-85272613D01*
X113770595Y-85061937D01*
X113975301Y-84704907D01*
X112375000Y-83104605D01*
X112360858Y-83118748D01*
X112181253Y-82939143D01*
X112195395Y-82925000D01*
X112554605Y-82925000D01*
X114154907Y-84525301D01*
X114511937Y-84320595D01*
X114743143Y-83876883D01*
X114883343Y-83396591D01*
X114925295Y-82919268D01*
X125440000Y-82919268D01*
X125440000Y-83280732D01*
X125510518Y-83635250D01*
X125648844Y-83969199D01*
X125849662Y-84269744D01*
X126105256Y-84525338D01*
X126405801Y-84726156D01*
X126739750Y-84864482D01*
X127094268Y-84935000D01*
X127455732Y-84935000D01*
X127810250Y-84864482D01*
X128144199Y-84726156D01*
X128444744Y-84525338D01*
X128700338Y-84269744D01*
X128775000Y-84158005D01*
X128849662Y-84269744D01*
X129105256Y-84525338D01*
X129405801Y-84726156D01*
X129739750Y-84864482D01*
X130094268Y-84935000D01*
X130455732Y-84935000D01*
X130810250Y-84864482D01*
X131144199Y-84726156D01*
X131444744Y-84525338D01*
X131700338Y-84269744D01*
X131901156Y-83969199D01*
X132039482Y-83635250D01*
X132110000Y-83280732D01*
X132110000Y-82919268D01*
X146065000Y-82919268D01*
X146065000Y-83280732D01*
X146135518Y-83635250D01*
X146273844Y-83969199D01*
X146474662Y-84269744D01*
X146730256Y-84525338D01*
X147030801Y-84726156D01*
X147364750Y-84864482D01*
X147719268Y-84935000D01*
X148080732Y-84935000D01*
X148435250Y-84864482D01*
X148769199Y-84726156D01*
X149069744Y-84525338D01*
X149325338Y-84269744D01*
X149400000Y-84158005D01*
X149474662Y-84269744D01*
X149730256Y-84525338D01*
X150030801Y-84726156D01*
X150364750Y-84864482D01*
X150719268Y-84935000D01*
X151080732Y-84935000D01*
X151435250Y-84864482D01*
X151769199Y-84726156D01*
X152069744Y-84525338D01*
X152325338Y-84269744D01*
X152526156Y-83969199D01*
X152664482Y-83635250D01*
X152727334Y-83319268D01*
X164665000Y-83319268D01*
X164665000Y-83680732D01*
X164735518Y-84035250D01*
X164873844Y-84369199D01*
X165074662Y-84669744D01*
X165330256Y-84925338D01*
X165630801Y-85126156D01*
X165964750Y-85264482D01*
X166319268Y-85335000D01*
X166680732Y-85335000D01*
X167035250Y-85264482D01*
X167369199Y-85126156D01*
X167669744Y-84925338D01*
X167890175Y-84704907D01*
X176149699Y-84704907D01*
X176354405Y-85061937D01*
X176798117Y-85293143D01*
X177278409Y-85433343D01*
X177776823Y-85477149D01*
X178274208Y-85422877D01*
X178641574Y-85307208D01*
X178604731Y-85396154D01*
X178512000Y-85862340D01*
X178512000Y-86337660D01*
X178604731Y-86803846D01*
X178639906Y-86888766D01*
X178221591Y-86766657D01*
X177723177Y-86722851D01*
X177225792Y-86777123D01*
X176748553Y-86927387D01*
X176354405Y-87138063D01*
X176149699Y-87495093D01*
X177750000Y-89095395D01*
X177764143Y-89081253D01*
X177943748Y-89260858D01*
X177929605Y-89275000D01*
X179529907Y-90875301D01*
X179886937Y-90670595D01*
X180118143Y-90226883D01*
X180258343Y-89746591D01*
X180302149Y-89248177D01*
X180247877Y-88750792D01*
X180132208Y-88383426D01*
X180221154Y-88420269D01*
X180687340Y-88513000D01*
X181162660Y-88513000D01*
X181628846Y-88420269D01*
X181713766Y-88385094D01*
X181591657Y-88803409D01*
X181547851Y-89301823D01*
X181602123Y-89799208D01*
X181752387Y-90276447D01*
X181963063Y-90670595D01*
X182320093Y-90875301D01*
X183920395Y-89275000D01*
X184279605Y-89275000D01*
X185879907Y-90875301D01*
X186236937Y-90670595D01*
X186468143Y-90226883D01*
X186608343Y-89746591D01*
X186652149Y-89248177D01*
X186597877Y-88750792D01*
X186447613Y-88273553D01*
X186236937Y-87879405D01*
X185879907Y-87674699D01*
X184279605Y-89275000D01*
X183920395Y-89275000D01*
X183906253Y-89260858D01*
X184085858Y-89081253D01*
X184100000Y-89095395D01*
X185700301Y-87495093D01*
X185495595Y-87138063D01*
X185051883Y-86906857D01*
X184571591Y-86766657D01*
X184073177Y-86722851D01*
X183575792Y-86777123D01*
X183208426Y-86892792D01*
X183245269Y-86803846D01*
X183338000Y-86337660D01*
X183338000Y-85862340D01*
X183245269Y-85396154D01*
X183210094Y-85311234D01*
X183628409Y-85433343D01*
X184126823Y-85477149D01*
X184624208Y-85422877D01*
X185101447Y-85272613D01*
X185495595Y-85061937D01*
X185700301Y-84704907D01*
X184100000Y-83104605D01*
X184085858Y-83118748D01*
X183906253Y-82939143D01*
X183920395Y-82925000D01*
X184279605Y-82925000D01*
X185879907Y-84525301D01*
X186236937Y-84320595D01*
X186468143Y-83876883D01*
X186608343Y-83396591D01*
X186652149Y-82898177D01*
X186597877Y-82400792D01*
X186447613Y-81923553D01*
X186236937Y-81529405D01*
X185879907Y-81324699D01*
X184279605Y-82925000D01*
X183920395Y-82925000D01*
X182320093Y-81324699D01*
X181963063Y-81529405D01*
X181731857Y-81973117D01*
X181591657Y-82453409D01*
X181547851Y-82951823D01*
X181602123Y-83449208D01*
X181717792Y-83816574D01*
X181628846Y-83779731D01*
X181162660Y-83687000D01*
X180687340Y-83687000D01*
X180221154Y-83779731D01*
X180136234Y-83814906D01*
X180258343Y-83396591D01*
X180302149Y-82898177D01*
X180247877Y-82400792D01*
X180097613Y-81923553D01*
X179886937Y-81529405D01*
X179529907Y-81324699D01*
X177929605Y-82925000D01*
X177943748Y-82939143D01*
X177764143Y-83118748D01*
X177750000Y-83104605D01*
X176149699Y-84704907D01*
X167890175Y-84704907D01*
X167925338Y-84669744D01*
X168126156Y-84369199D01*
X168264482Y-84035250D01*
X168335000Y-83680732D01*
X168335000Y-83319268D01*
X168264482Y-82964750D01*
X168259128Y-82951823D01*
X175197851Y-82951823D01*
X175252123Y-83449208D01*
X175402387Y-83926447D01*
X175613063Y-84320595D01*
X175970093Y-84525301D01*
X177570395Y-82925000D01*
X175970093Y-81324699D01*
X175613063Y-81529405D01*
X175381857Y-81973117D01*
X175241657Y-82453409D01*
X175197851Y-82951823D01*
X168259128Y-82951823D01*
X168126156Y-82630801D01*
X167925338Y-82330256D01*
X167669744Y-82074662D01*
X167516581Y-81972322D01*
X167598374Y-81777980D01*
X166500000Y-80679605D01*
X165401626Y-81777980D01*
X165483419Y-81972322D01*
X165330256Y-82074662D01*
X165074662Y-82330256D01*
X164873844Y-82630801D01*
X164735518Y-82964750D01*
X164665000Y-83319268D01*
X152727334Y-83319268D01*
X152735000Y-83280732D01*
X152735000Y-82919268D01*
X152664482Y-82564750D01*
X152526156Y-82230801D01*
X152325338Y-81930256D01*
X152069744Y-81674662D01*
X151769199Y-81473844D01*
X151435250Y-81335518D01*
X151080732Y-81265000D01*
X150719268Y-81265000D01*
X150364750Y-81335518D01*
X150030801Y-81473844D01*
X149730256Y-81674662D01*
X149474662Y-81930256D01*
X149400000Y-82041995D01*
X149325338Y-81930256D01*
X149069744Y-81674662D01*
X148769199Y-81473844D01*
X148435250Y-81335518D01*
X148080732Y-81265000D01*
X147719268Y-81265000D01*
X147364750Y-81335518D01*
X147030801Y-81473844D01*
X146730256Y-81674662D01*
X146474662Y-81930256D01*
X146273844Y-82230801D01*
X146135518Y-82564750D01*
X146065000Y-82919268D01*
X132110000Y-82919268D01*
X132039482Y-82564750D01*
X131901156Y-82230801D01*
X131700338Y-81930256D01*
X131444744Y-81674662D01*
X131144199Y-81473844D01*
X130810250Y-81335518D01*
X130455732Y-81265000D01*
X130094268Y-81265000D01*
X129739750Y-81335518D01*
X129405801Y-81473844D01*
X129105256Y-81674662D01*
X128849662Y-81930256D01*
X128775000Y-82041995D01*
X128700338Y-81930256D01*
X128444744Y-81674662D01*
X128144199Y-81473844D01*
X127810250Y-81335518D01*
X127455732Y-81265000D01*
X127094268Y-81265000D01*
X126739750Y-81335518D01*
X126405801Y-81473844D01*
X126105256Y-81674662D01*
X125849662Y-81930256D01*
X125648844Y-82230801D01*
X125510518Y-82564750D01*
X125440000Y-82919268D01*
X114925295Y-82919268D01*
X114927149Y-82898177D01*
X114872877Y-82400792D01*
X114722613Y-81923553D01*
X114511937Y-81529405D01*
X114154907Y-81324699D01*
X112554605Y-82925000D01*
X112195395Y-82925000D01*
X110595093Y-81324699D01*
X110238063Y-81529405D01*
X110006857Y-81973117D01*
X109866657Y-82453409D01*
X109822851Y-82951823D01*
X109877123Y-83449208D01*
X109992792Y-83816574D01*
X109903846Y-83779731D01*
X109437660Y-83687000D01*
X108962340Y-83687000D01*
X108496154Y-83779731D01*
X108411234Y-83814906D01*
X108533343Y-83396591D01*
X108577149Y-82898177D01*
X108522877Y-82400792D01*
X108372613Y-81923553D01*
X108161937Y-81529405D01*
X107804907Y-81324699D01*
X106204605Y-82925000D01*
X106218748Y-82939143D01*
X106039143Y-83118748D01*
X106025000Y-83104605D01*
X104424699Y-84704907D01*
X100660000Y-84704907D01*
X100660000Y-82951823D01*
X103472851Y-82951823D01*
X103527123Y-83449208D01*
X103677387Y-83926447D01*
X103888063Y-84320595D01*
X104245093Y-84525301D01*
X105845395Y-82925000D01*
X104245093Y-81324699D01*
X103888063Y-81529405D01*
X103656857Y-81973117D01*
X103516657Y-82453409D01*
X103472851Y-82951823D01*
X100660000Y-82951823D01*
X100660000Y-81145093D01*
X104424699Y-81145093D01*
X106025000Y-82745395D01*
X107625301Y-81145093D01*
X110774699Y-81145093D01*
X112375000Y-82745395D01*
X113975301Y-81145093D01*
X113770595Y-80788063D01*
X113326883Y-80556857D01*
X113319439Y-80554684D01*
X164656933Y-80554684D01*
X164703015Y-80913198D01*
X164818154Y-81255833D01*
X164937164Y-81478486D01*
X165222020Y-81598374D01*
X166320395Y-80500000D01*
X166679605Y-80500000D01*
X167777980Y-81598374D01*
X168062836Y-81478486D01*
X168223699Y-81154790D01*
X168226329Y-81145093D01*
X176149699Y-81145093D01*
X177750000Y-82745395D01*
X179350301Y-81145093D01*
X182499699Y-81145093D01*
X184100000Y-82745395D01*
X185700301Y-81145093D01*
X185495595Y-80788063D01*
X185051883Y-80556857D01*
X184571591Y-80416657D01*
X184073177Y-80372851D01*
X183575792Y-80427123D01*
X183098553Y-80577387D01*
X182704405Y-80788063D01*
X182499699Y-81145093D01*
X179350301Y-81145093D01*
X179145595Y-80788063D01*
X178701883Y-80556857D01*
X178221591Y-80416657D01*
X177723177Y-80372851D01*
X177225792Y-80427123D01*
X176748553Y-80577387D01*
X176354405Y-80788063D01*
X176149699Y-81145093D01*
X168226329Y-81145093D01*
X168318322Y-80805931D01*
X168343067Y-80445316D01*
X168296985Y-80086802D01*
X168181846Y-79744167D01*
X168062836Y-79521514D01*
X167777980Y-79401626D01*
X166679605Y-80500000D01*
X166320395Y-80500000D01*
X165222020Y-79401626D01*
X164937164Y-79521514D01*
X164776301Y-79845210D01*
X164681678Y-80194069D01*
X164656933Y-80554684D01*
X113319439Y-80554684D01*
X112846591Y-80416657D01*
X112348177Y-80372851D01*
X111850792Y-80427123D01*
X111373553Y-80577387D01*
X110979405Y-80788063D01*
X110774699Y-81145093D01*
X107625301Y-81145093D01*
X107420595Y-80788063D01*
X106976883Y-80556857D01*
X106496591Y-80416657D01*
X105998177Y-80372851D01*
X105500792Y-80427123D01*
X105023553Y-80577387D01*
X104629405Y-80788063D01*
X104424699Y-81145093D01*
X100660000Y-81145093D01*
X100660000Y-79222020D01*
X165401626Y-79222020D01*
X166500000Y-80320395D01*
X167598374Y-79222020D01*
X167478486Y-78937164D01*
X167154790Y-78776301D01*
X166805931Y-78681678D01*
X166445316Y-78656933D01*
X166086802Y-78703015D01*
X165744167Y-78818154D01*
X165521514Y-78937164D01*
X165401626Y-79222020D01*
X100660000Y-79222020D01*
X100660000Y-74725701D01*
X101215000Y-74725701D01*
X101215000Y-75274299D01*
X101322026Y-75812354D01*
X101531965Y-76319192D01*
X101836750Y-76775334D01*
X102224666Y-77163250D01*
X102680808Y-77468035D01*
X103187646Y-77677974D01*
X103725701Y-77785000D01*
X104274299Y-77785000D01*
X104812354Y-77677974D01*
X105319192Y-77468035D01*
X105775334Y-77163250D01*
X106163250Y-76775334D01*
X106468035Y-76319192D01*
X106677974Y-75812354D01*
X106785000Y-75274299D01*
X106785000Y-74725701D01*
X106677974Y-74187646D01*
X106468035Y-73680808D01*
X106163250Y-73224666D01*
X105775334Y-72836750D01*
X105319192Y-72531965D01*
X104812354Y-72322026D01*
X104274299Y-72215000D01*
X103725701Y-72215000D01*
X103187646Y-72322026D01*
X102680808Y-72531965D01*
X102224666Y-72836750D01*
X101836750Y-73224666D01*
X101531965Y-73680808D01*
X101322026Y-74187646D01*
X101215000Y-74725701D01*
X100660000Y-74725701D01*
X100660000Y-74032279D01*
X100707670Y-73546107D01*
X100839489Y-73109502D01*
X101053600Y-72706815D01*
X101341848Y-72353388D01*
X101693261Y-72062673D01*
X102094439Y-71845758D01*
X102530113Y-71710894D01*
X103014344Y-71660000D01*
X126701413Y-71660000D01*
X126299826Y-71928332D01*
%TA.AperFunction,Conductor*%
D17*
G36*
X126299826Y-71928332D02*
G01*
X125928332Y-72299826D01*
X125636451Y-72736657D01*
X125435400Y-73222037D01*
X125332905Y-73737314D01*
X125332905Y-74262686D01*
X125435400Y-74777963D01*
X125636451Y-75263343D01*
X125928332Y-75700174D01*
X126299826Y-76071668D01*
X126736657Y-76363549D01*
X127222037Y-76564600D01*
X127737314Y-76667095D01*
X128262686Y-76667095D01*
X128777963Y-76564600D01*
X129263343Y-76363549D01*
X129700174Y-76071668D01*
X130071668Y-75700174D01*
X130363549Y-75263343D01*
X130564600Y-74777963D01*
X130667095Y-74262686D01*
X130667095Y-73737314D01*
X130564600Y-73222037D01*
X130363549Y-72736657D01*
X130071668Y-72299826D01*
X129700174Y-71928332D01*
X129298587Y-71660000D01*
X151701413Y-71660000D01*
X151299826Y-71928332D01*
X150928332Y-72299826D01*
X150636451Y-72736657D01*
X150435400Y-73222037D01*
X150332905Y-73737314D01*
X150332905Y-74262686D01*
X150435400Y-74777963D01*
X150636451Y-75263343D01*
X150928332Y-75700174D01*
X151299826Y-76071668D01*
X151736657Y-76363549D01*
X152222037Y-76564600D01*
X152737314Y-76667095D01*
X153262686Y-76667095D01*
X153777963Y-76564600D01*
X154263343Y-76363549D01*
X154700174Y-76071668D01*
X155071668Y-75700174D01*
X155363549Y-75263343D01*
X155564600Y-74777963D01*
X155667095Y-74262686D01*
X155667095Y-73737314D01*
X155564600Y-73222037D01*
X155363549Y-72736657D01*
X155071668Y-72299826D01*
X154700174Y-71928332D01*
X154298587Y-71660000D01*
X164701413Y-71660000D01*
X164299826Y-71928332D01*
X163928332Y-72299826D01*
X163636451Y-72736657D01*
X163435400Y-73222037D01*
X163332905Y-73737314D01*
X163332905Y-74262686D01*
X163435400Y-74777963D01*
X163636451Y-75263343D01*
X163928332Y-75700174D01*
X164299826Y-76071668D01*
X164736657Y-76363549D01*
X165222037Y-76564600D01*
X165737314Y-76667095D01*
X166262686Y-76667095D01*
X166777963Y-76564600D01*
X167263343Y-76363549D01*
X167700174Y-76071668D01*
X168071668Y-75700174D01*
X168363549Y-75263343D01*
X168564600Y-74777963D01*
X168574995Y-74725701D01*
X183215000Y-74725701D01*
X183215000Y-75274299D01*
X183322026Y-75812354D01*
X183531965Y-76319192D01*
X183836750Y-76775334D01*
X184224666Y-77163250D01*
X184680808Y-77468035D01*
X185187646Y-77677974D01*
X185725701Y-77785000D01*
X186274299Y-77785000D01*
X186812354Y-77677974D01*
X187319192Y-77468035D01*
X187775334Y-77163250D01*
X188163250Y-76775334D01*
X188468035Y-76319192D01*
X188677974Y-75812354D01*
X188785000Y-75274299D01*
X188785000Y-74725701D01*
X188677974Y-74187646D01*
X188468035Y-73680808D01*
X188163250Y-73224666D01*
X187775334Y-72836750D01*
X187319192Y-72531965D01*
X186812354Y-72322026D01*
X186274299Y-72215000D01*
X185725701Y-72215000D01*
X185187646Y-72322026D01*
X184680808Y-72531965D01*
X184224666Y-72836750D01*
X183836750Y-73224666D01*
X183531965Y-73680808D01*
X183322026Y-74187646D01*
X183215000Y-74725701D01*
X168574995Y-74725701D01*
X168667095Y-74262686D01*
X168667095Y-73737314D01*
X168564600Y-73222037D01*
X168363549Y-72736657D01*
X168071668Y-72299826D01*
X167700174Y-71928332D01*
X167298587Y-71660000D01*
X186967721Y-71660000D01*
X187453893Y-71707670D01*
X187890498Y-71839489D01*
X188293185Y-72053600D01*
X188646612Y-72341848D01*
X188937327Y-72693261D01*
X189154242Y-73094439D01*
X189289106Y-73530113D01*
X189340001Y-74014353D01*
X189340000Y-102281409D01*
X189091872Y-102087733D01*
X186179605Y-105000000D01*
X186193748Y-105014143D01*
X186014143Y-105193748D01*
X186000000Y-105179605D01*
X183087733Y-108091872D01*
X183281409Y-108340000D01*
X103032279Y-108340000D01*
X102546106Y-108292330D01*
X102109503Y-108160512D01*
X101706814Y-107946399D01*
X101353387Y-107658150D01*
X101062673Y-107306739D01*
X100845760Y-106905564D01*
X100710894Y-106469886D01*
X100660000Y-105985664D01*
X100660000Y-104725701D01*
X101215000Y-104725701D01*
X101215000Y-105274299D01*
X101322026Y-105812354D01*
X101531965Y-106319192D01*
X101836750Y-106775334D01*
X102224666Y-107163250D01*
X102680808Y-107468035D01*
X103187646Y-107677974D01*
X103725701Y-107785000D01*
X104274299Y-107785000D01*
X104812354Y-107677974D01*
X105319192Y-107468035D01*
X105775334Y-107163250D01*
X106163250Y-106775334D01*
X106468035Y-106319192D01*
X106677974Y-105812354D01*
X106764376Y-105377980D01*
X137676626Y-105377980D01*
X137796514Y-105662836D01*
X138120210Y-105823699D01*
X138469069Y-105918322D01*
X138829684Y-105943067D01*
X139188198Y-105896985D01*
X139530833Y-105781846D01*
X139753486Y-105662836D01*
X139873374Y-105377980D01*
X138775000Y-104279605D01*
X137676626Y-105377980D01*
X106764376Y-105377980D01*
X106785000Y-105274299D01*
X106785000Y-104725701D01*
X106677974Y-104187646D01*
X106468035Y-103680808D01*
X106163250Y-103224666D01*
X105775334Y-102836750D01*
X105319192Y-102531965D01*
X104812354Y-102322026D01*
X104274299Y-102215000D01*
X103725701Y-102215000D01*
X103187646Y-102322026D01*
X102680808Y-102531965D01*
X102224666Y-102836750D01*
X101836750Y-103224666D01*
X101531965Y-103680808D01*
X101322026Y-104187646D01*
X101215000Y-104725701D01*
X100660000Y-104725701D01*
X100660000Y-101737314D01*
X125332905Y-101737314D01*
X125332905Y-102262686D01*
X125435400Y-102777963D01*
X125636451Y-103263343D01*
X125928332Y-103700174D01*
X126299826Y-104071668D01*
X126736657Y-104363549D01*
X127222037Y-104564600D01*
X127737314Y-104667095D01*
X128262686Y-104667095D01*
X128777963Y-104564600D01*
X129263343Y-104363549D01*
X129575931Y-104154684D01*
X136931933Y-104154684D01*
X136978015Y-104513198D01*
X137093154Y-104855833D01*
X137212164Y-105078486D01*
X137497020Y-105198374D01*
X138595395Y-104100000D01*
X138954605Y-104100000D01*
X140052980Y-105198374D01*
X140337836Y-105078486D01*
X140399707Y-104953986D01*
X181594024Y-104953986D01*
X181669707Y-105814434D01*
X181911801Y-106643583D01*
X182311001Y-107409570D01*
X182362128Y-107486088D01*
X182908128Y-107912267D01*
X185820395Y-105000000D01*
X182908128Y-102087733D01*
X182362128Y-102513912D01*
X181947017Y-103271395D01*
X181687661Y-104095307D01*
X181594024Y-104953986D01*
X140399707Y-104953986D01*
X140498699Y-104754790D01*
X140593322Y-104405931D01*
X140618067Y-104045316D01*
X140571985Y-103686802D01*
X140456846Y-103344167D01*
X140337836Y-103121514D01*
X140052980Y-103001626D01*
X138954605Y-104100000D01*
X138595395Y-104100000D01*
X137497020Y-103001626D01*
X137212164Y-103121514D01*
X137051301Y-103445210D01*
X136956678Y-103794069D01*
X136931933Y-104154684D01*
X129575931Y-104154684D01*
X129700174Y-104071668D01*
X130071668Y-103700174D01*
X130363549Y-103263343D01*
X130564600Y-102777963D01*
X130667095Y-102262686D01*
X130667095Y-101737314D01*
X130564600Y-101222037D01*
X130439189Y-100919268D01*
X136940000Y-100919268D01*
X136940000Y-101280732D01*
X137010518Y-101635250D01*
X137148844Y-101969199D01*
X137349662Y-102269744D01*
X137605256Y-102525338D01*
X137758419Y-102627678D01*
X137676626Y-102822020D01*
X138775000Y-103920395D01*
X139873374Y-102822020D01*
X139791581Y-102627678D01*
X139944744Y-102525338D01*
X140200338Y-102269744D01*
X140401156Y-101969199D01*
X140497205Y-101737314D01*
X150332905Y-101737314D01*
X150332905Y-102262686D01*
X150435400Y-102777963D01*
X150636451Y-103263343D01*
X150928332Y-103700174D01*
X151299826Y-104071668D01*
X151736657Y-104363549D01*
X152222037Y-104564600D01*
X152737314Y-104667095D01*
X153262686Y-104667095D01*
X153777963Y-104564600D01*
X154263343Y-104363549D01*
X154700174Y-104071668D01*
X155071668Y-103700174D01*
X155363549Y-103263343D01*
X155564600Y-102777963D01*
X155667095Y-102262686D01*
X155667095Y-101737314D01*
X163332905Y-101737314D01*
X163332905Y-102262686D01*
X163435400Y-102777963D01*
X163636451Y-103263343D01*
X163928332Y-103700174D01*
X164299826Y-104071668D01*
X164736657Y-104363549D01*
X165222037Y-104564600D01*
X165737314Y-104667095D01*
X166262686Y-104667095D01*
X166777963Y-104564600D01*
X167263343Y-104363549D01*
X167700174Y-104071668D01*
X168071668Y-103700174D01*
X168363549Y-103263343D01*
X168564600Y-102777963D01*
X168667095Y-102262686D01*
X168667095Y-101908128D01*
X183087733Y-101908128D01*
X186000000Y-104820395D01*
X188912267Y-101908128D01*
X188486088Y-101362128D01*
X187728605Y-100947017D01*
X186904693Y-100687661D01*
X186046014Y-100594024D01*
X185185566Y-100669707D01*
X184356417Y-100911801D01*
X183590430Y-101311001D01*
X183513912Y-101362128D01*
X183087733Y-101908128D01*
X168667095Y-101908128D01*
X168667095Y-101737314D01*
X168564600Y-101222037D01*
X168363549Y-100736657D01*
X168071668Y-100299826D01*
X167700174Y-99928332D01*
X167263343Y-99636451D01*
X166777963Y-99435400D01*
X166262686Y-99332905D01*
X165737314Y-99332905D01*
X165222037Y-99435400D01*
X164736657Y-99636451D01*
X164299826Y-99928332D01*
X163928332Y-100299826D01*
X163636451Y-100736657D01*
X163435400Y-101222037D01*
X163332905Y-101737314D01*
X155667095Y-101737314D01*
X155564600Y-101222037D01*
X155363549Y-100736657D01*
X155071668Y-100299826D01*
X154700174Y-99928332D01*
X154263343Y-99636451D01*
X153777963Y-99435400D01*
X153262686Y-99332905D01*
X152737314Y-99332905D01*
X152222037Y-99435400D01*
X151736657Y-99636451D01*
X151299826Y-99928332D01*
X150928332Y-100299826D01*
X150636451Y-100736657D01*
X150435400Y-101222037D01*
X150332905Y-101737314D01*
X140497205Y-101737314D01*
X140539482Y-101635250D01*
X140610000Y-101280732D01*
X140610000Y-100919268D01*
X140539482Y-100564750D01*
X140401156Y-100230801D01*
X140200338Y-99930256D01*
X139944744Y-99674662D01*
X139644199Y-99473844D01*
X139310250Y-99335518D01*
X138955732Y-99265000D01*
X138594268Y-99265000D01*
X138239750Y-99335518D01*
X137905801Y-99473844D01*
X137605256Y-99674662D01*
X137349662Y-99930256D01*
X137148844Y-100230801D01*
X137010518Y-100564750D01*
X136940000Y-100919268D01*
X130439189Y-100919268D01*
X130363549Y-100736657D01*
X130071668Y-100299826D01*
X129700174Y-99928332D01*
X129263343Y-99636451D01*
X128777963Y-99435400D01*
X128262686Y-99332905D01*
X127737314Y-99332905D01*
X127222037Y-99435400D01*
X126736657Y-99636451D01*
X126299826Y-99928332D01*
X125928332Y-100299826D01*
X125636451Y-100736657D01*
X125435400Y-101222037D01*
X125332905Y-101737314D01*
X100660000Y-101737314D01*
X100660000Y-91054907D01*
X104424699Y-91054907D01*
X104629405Y-91411937D01*
X105073117Y-91643143D01*
X105553409Y-91783343D01*
X106051823Y-91827149D01*
X106549208Y-91772877D01*
X107026447Y-91622613D01*
X107420595Y-91411937D01*
X107625301Y-91054907D01*
X110774699Y-91054907D01*
X110979405Y-91411937D01*
X111423117Y-91643143D01*
X111903409Y-91783343D01*
X112401823Y-91827149D01*
X112899208Y-91772877D01*
X113376447Y-91622613D01*
X113770595Y-91411937D01*
X113975301Y-91054907D01*
X176149699Y-91054907D01*
X176354405Y-91411937D01*
X176798117Y-91643143D01*
X177278409Y-91783343D01*
X177776823Y-91827149D01*
X178274208Y-91772877D01*
X178751447Y-91622613D01*
X179145595Y-91411937D01*
X179350301Y-91054907D01*
X182499699Y-91054907D01*
X182704405Y-91411937D01*
X183148117Y-91643143D01*
X183628409Y-91783343D01*
X184126823Y-91827149D01*
X184624208Y-91772877D01*
X185101447Y-91622613D01*
X185495595Y-91411937D01*
X185700301Y-91054907D01*
X184100000Y-89454605D01*
X182499699Y-91054907D01*
X179350301Y-91054907D01*
X177750000Y-89454605D01*
X176149699Y-91054907D01*
X113975301Y-91054907D01*
X112375000Y-89454605D01*
X110774699Y-91054907D01*
X107625301Y-91054907D01*
X106025000Y-89454605D01*
X104424699Y-91054907D01*
X100660000Y-91054907D01*
X100660000Y-89301823D01*
X103472851Y-89301823D01*
X103527123Y-89799208D01*
X103677387Y-90276447D01*
X103888063Y-90670595D01*
X104245093Y-90875301D01*
X105845395Y-89275000D01*
X104245093Y-87674699D01*
X103888063Y-87879405D01*
X103656857Y-88323117D01*
X103516657Y-88803409D01*
X103472851Y-89301823D01*
X100660000Y-89301823D01*
X100660000Y-84704907D01*
X104424699Y-84704907D01*
X104629405Y-85061937D01*
X105073117Y-85293143D01*
X105553409Y-85433343D01*
X106051823Y-85477149D01*
X106549208Y-85422877D01*
X106916574Y-85307208D01*
X106879731Y-85396154D01*
X106787000Y-85862340D01*
X106787000Y-86337660D01*
X106879731Y-86803846D01*
X106914906Y-86888766D01*
X106496591Y-86766657D01*
X105998177Y-86722851D01*
X105500792Y-86777123D01*
X105023553Y-86927387D01*
X104629405Y-87138063D01*
X104424699Y-87495093D01*
X106025000Y-89095395D01*
X106039143Y-89081253D01*
X106218748Y-89260858D01*
X106204605Y-89275000D01*
X107804907Y-90875301D01*
X108161937Y-90670595D01*
X108393143Y-90226883D01*
X108533343Y-89746591D01*
X108577149Y-89248177D01*
X108522877Y-88750792D01*
X108407208Y-88383426D01*
X108496154Y-88420269D01*
X108962340Y-88513000D01*
X109437660Y-88513000D01*
X109903846Y-88420269D01*
X109988766Y-88385094D01*
X109866657Y-88803409D01*
X109822851Y-89301823D01*
X109877123Y-89799208D01*
X110027387Y-90276447D01*
X110238063Y-90670595D01*
X110595093Y-90875301D01*
X112195395Y-89275000D01*
X112554605Y-89275000D01*
X114154907Y-90875301D01*
X114511937Y-90670595D01*
X114743143Y-90226883D01*
X114883343Y-89746591D01*
X114922434Y-89301823D01*
X175197851Y-89301823D01*
X175252123Y-89799208D01*
X175402387Y-90276447D01*
X175613063Y-90670595D01*
X175970093Y-90875301D01*
X177570395Y-89275000D01*
X175970093Y-87674699D01*
X175613063Y-87879405D01*
X175381857Y-88323117D01*
X175241657Y-88803409D01*
X175197851Y-89301823D01*
X114922434Y-89301823D01*
X114927149Y-89248177D01*
X114872877Y-88750792D01*
X114722613Y-88273553D01*
X114511937Y-87879405D01*
X114154907Y-87674699D01*
X112554605Y-89275000D01*
X112195395Y-89275000D01*
X112181253Y-89260858D01*
X112360858Y-89081253D01*
X112375000Y-89095395D01*
X113975301Y-87495093D01*
X113770595Y-87138063D01*
X113326883Y-86906857D01*
X112846591Y-86766657D01*
X112348177Y-86722851D01*
X111850792Y-86777123D01*
X111483426Y-86892792D01*
X111520269Y-86803846D01*
X111613000Y-86337660D01*
X111613000Y-85862340D01*
X111520269Y-85396154D01*
X111485094Y-85311234D01*
X111903409Y-85433343D01*
X112401823Y-85477149D01*
X112899208Y-85422877D01*
X113376447Y-85272613D01*
X113770595Y-85061937D01*
X113975301Y-84704907D01*
X112375000Y-83104605D01*
X112360858Y-83118748D01*
X112181253Y-82939143D01*
X112195395Y-82925000D01*
X112554605Y-82925000D01*
X114154907Y-84525301D01*
X114511937Y-84320595D01*
X114743143Y-83876883D01*
X114883343Y-83396591D01*
X114925295Y-82919268D01*
X125440000Y-82919268D01*
X125440000Y-83280732D01*
X125510518Y-83635250D01*
X125648844Y-83969199D01*
X125849662Y-84269744D01*
X126105256Y-84525338D01*
X126405801Y-84726156D01*
X126739750Y-84864482D01*
X127094268Y-84935000D01*
X127455732Y-84935000D01*
X127810250Y-84864482D01*
X128144199Y-84726156D01*
X128444744Y-84525338D01*
X128700338Y-84269744D01*
X128775000Y-84158005D01*
X128849662Y-84269744D01*
X129105256Y-84525338D01*
X129405801Y-84726156D01*
X129739750Y-84864482D01*
X130094268Y-84935000D01*
X130455732Y-84935000D01*
X130810250Y-84864482D01*
X131144199Y-84726156D01*
X131444744Y-84525338D01*
X131700338Y-84269744D01*
X131901156Y-83969199D01*
X132039482Y-83635250D01*
X132110000Y-83280732D01*
X132110000Y-82919268D01*
X146065000Y-82919268D01*
X146065000Y-83280732D01*
X146135518Y-83635250D01*
X146273844Y-83969199D01*
X146474662Y-84269744D01*
X146730256Y-84525338D01*
X147030801Y-84726156D01*
X147364750Y-84864482D01*
X147719268Y-84935000D01*
X148080732Y-84935000D01*
X148435250Y-84864482D01*
X148769199Y-84726156D01*
X149069744Y-84525338D01*
X149325338Y-84269744D01*
X149400000Y-84158005D01*
X149474662Y-84269744D01*
X149730256Y-84525338D01*
X150030801Y-84726156D01*
X150364750Y-84864482D01*
X150719268Y-84935000D01*
X151080732Y-84935000D01*
X151435250Y-84864482D01*
X151769199Y-84726156D01*
X152069744Y-84525338D01*
X152325338Y-84269744D01*
X152526156Y-83969199D01*
X152664482Y-83635250D01*
X152727334Y-83319268D01*
X164665000Y-83319268D01*
X164665000Y-83680732D01*
X164735518Y-84035250D01*
X164873844Y-84369199D01*
X165074662Y-84669744D01*
X165330256Y-84925338D01*
X165630801Y-85126156D01*
X165964750Y-85264482D01*
X166319268Y-85335000D01*
X166680732Y-85335000D01*
X167035250Y-85264482D01*
X167369199Y-85126156D01*
X167669744Y-84925338D01*
X167890175Y-84704907D01*
X176149699Y-84704907D01*
X176354405Y-85061937D01*
X176798117Y-85293143D01*
X177278409Y-85433343D01*
X177776823Y-85477149D01*
X178274208Y-85422877D01*
X178641574Y-85307208D01*
X178604731Y-85396154D01*
X178512000Y-85862340D01*
X178512000Y-86337660D01*
X178604731Y-86803846D01*
X178639906Y-86888766D01*
X178221591Y-86766657D01*
X177723177Y-86722851D01*
X177225792Y-86777123D01*
X176748553Y-86927387D01*
X176354405Y-87138063D01*
X176149699Y-87495093D01*
X177750000Y-89095395D01*
X177764143Y-89081253D01*
X177943748Y-89260858D01*
X177929605Y-89275000D01*
X179529907Y-90875301D01*
X179886937Y-90670595D01*
X180118143Y-90226883D01*
X180258343Y-89746591D01*
X180302149Y-89248177D01*
X180247877Y-88750792D01*
X180132208Y-88383426D01*
X180221154Y-88420269D01*
X180687340Y-88513000D01*
X181162660Y-88513000D01*
X181628846Y-88420269D01*
X181713766Y-88385094D01*
X181591657Y-88803409D01*
X181547851Y-89301823D01*
X181602123Y-89799208D01*
X181752387Y-90276447D01*
X181963063Y-90670595D01*
X182320093Y-90875301D01*
X183920395Y-89275000D01*
X184279605Y-89275000D01*
X185879907Y-90875301D01*
X186236937Y-90670595D01*
X186468143Y-90226883D01*
X186608343Y-89746591D01*
X186652149Y-89248177D01*
X186597877Y-88750792D01*
X186447613Y-88273553D01*
X186236937Y-87879405D01*
X185879907Y-87674699D01*
X184279605Y-89275000D01*
X183920395Y-89275000D01*
X183906253Y-89260858D01*
X184085858Y-89081253D01*
X184100000Y-89095395D01*
X185700301Y-87495093D01*
X185495595Y-87138063D01*
X185051883Y-86906857D01*
X184571591Y-86766657D01*
X184073177Y-86722851D01*
X183575792Y-86777123D01*
X183208426Y-86892792D01*
X183245269Y-86803846D01*
X183338000Y-86337660D01*
X183338000Y-85862340D01*
X183245269Y-85396154D01*
X183210094Y-85311234D01*
X183628409Y-85433343D01*
X184126823Y-85477149D01*
X184624208Y-85422877D01*
X185101447Y-85272613D01*
X185495595Y-85061937D01*
X185700301Y-84704907D01*
X184100000Y-83104605D01*
X184085858Y-83118748D01*
X183906253Y-82939143D01*
X183920395Y-82925000D01*
X184279605Y-82925000D01*
X185879907Y-84525301D01*
X186236937Y-84320595D01*
X186468143Y-83876883D01*
X186608343Y-83396591D01*
X186652149Y-82898177D01*
X186597877Y-82400792D01*
X186447613Y-81923553D01*
X186236937Y-81529405D01*
X185879907Y-81324699D01*
X184279605Y-82925000D01*
X183920395Y-82925000D01*
X182320093Y-81324699D01*
X181963063Y-81529405D01*
X181731857Y-81973117D01*
X181591657Y-82453409D01*
X181547851Y-82951823D01*
X181602123Y-83449208D01*
X181717792Y-83816574D01*
X181628846Y-83779731D01*
X181162660Y-83687000D01*
X180687340Y-83687000D01*
X180221154Y-83779731D01*
X180136234Y-83814906D01*
X180258343Y-83396591D01*
X180302149Y-82898177D01*
X180247877Y-82400792D01*
X180097613Y-81923553D01*
X179886937Y-81529405D01*
X179529907Y-81324699D01*
X177929605Y-82925000D01*
X177943748Y-82939143D01*
X177764143Y-83118748D01*
X177750000Y-83104605D01*
X176149699Y-84704907D01*
X167890175Y-84704907D01*
X167925338Y-84669744D01*
X168126156Y-84369199D01*
X168264482Y-84035250D01*
X168335000Y-83680732D01*
X168335000Y-83319268D01*
X168264482Y-82964750D01*
X168259128Y-82951823D01*
X175197851Y-82951823D01*
X175252123Y-83449208D01*
X175402387Y-83926447D01*
X175613063Y-84320595D01*
X175970093Y-84525301D01*
X177570395Y-82925000D01*
X175970093Y-81324699D01*
X175613063Y-81529405D01*
X175381857Y-81973117D01*
X175241657Y-82453409D01*
X175197851Y-82951823D01*
X168259128Y-82951823D01*
X168126156Y-82630801D01*
X167925338Y-82330256D01*
X167669744Y-82074662D01*
X167516581Y-81972322D01*
X167598374Y-81777980D01*
X166500000Y-80679605D01*
X165401626Y-81777980D01*
X165483419Y-81972322D01*
X165330256Y-82074662D01*
X165074662Y-82330256D01*
X164873844Y-82630801D01*
X164735518Y-82964750D01*
X164665000Y-83319268D01*
X152727334Y-83319268D01*
X152735000Y-83280732D01*
X152735000Y-82919268D01*
X152664482Y-82564750D01*
X152526156Y-82230801D01*
X152325338Y-81930256D01*
X152069744Y-81674662D01*
X151769199Y-81473844D01*
X151435250Y-81335518D01*
X151080732Y-81265000D01*
X150719268Y-81265000D01*
X150364750Y-81335518D01*
X150030801Y-81473844D01*
X149730256Y-81674662D01*
X149474662Y-81930256D01*
X149400000Y-82041995D01*
X149325338Y-81930256D01*
X149069744Y-81674662D01*
X148769199Y-81473844D01*
X148435250Y-81335518D01*
X148080732Y-81265000D01*
X147719268Y-81265000D01*
X147364750Y-81335518D01*
X147030801Y-81473844D01*
X146730256Y-81674662D01*
X146474662Y-81930256D01*
X146273844Y-82230801D01*
X146135518Y-82564750D01*
X146065000Y-82919268D01*
X132110000Y-82919268D01*
X132039482Y-82564750D01*
X131901156Y-82230801D01*
X131700338Y-81930256D01*
X131444744Y-81674662D01*
X131144199Y-81473844D01*
X130810250Y-81335518D01*
X130455732Y-81265000D01*
X130094268Y-81265000D01*
X129739750Y-81335518D01*
X129405801Y-81473844D01*
X129105256Y-81674662D01*
X128849662Y-81930256D01*
X128775000Y-82041995D01*
X128700338Y-81930256D01*
X128444744Y-81674662D01*
X128144199Y-81473844D01*
X127810250Y-81335518D01*
X127455732Y-81265000D01*
X127094268Y-81265000D01*
X126739750Y-81335518D01*
X126405801Y-81473844D01*
X126105256Y-81674662D01*
X125849662Y-81930256D01*
X125648844Y-82230801D01*
X125510518Y-82564750D01*
X125440000Y-82919268D01*
X114925295Y-82919268D01*
X114927149Y-82898177D01*
X114872877Y-82400792D01*
X114722613Y-81923553D01*
X114511937Y-81529405D01*
X114154907Y-81324699D01*
X112554605Y-82925000D01*
X112195395Y-82925000D01*
X110595093Y-81324699D01*
X110238063Y-81529405D01*
X110006857Y-81973117D01*
X109866657Y-82453409D01*
X109822851Y-82951823D01*
X109877123Y-83449208D01*
X109992792Y-83816574D01*
X109903846Y-83779731D01*
X109437660Y-83687000D01*
X108962340Y-83687000D01*
X108496154Y-83779731D01*
X108411234Y-83814906D01*
X108533343Y-83396591D01*
X108577149Y-82898177D01*
X108522877Y-82400792D01*
X108372613Y-81923553D01*
X108161937Y-81529405D01*
X107804907Y-81324699D01*
X106204605Y-82925000D01*
X106218748Y-82939143D01*
X106039143Y-83118748D01*
X106025000Y-83104605D01*
X104424699Y-84704907D01*
X100660000Y-84704907D01*
X100660000Y-82951823D01*
X103472851Y-82951823D01*
X103527123Y-83449208D01*
X103677387Y-83926447D01*
X103888063Y-84320595D01*
X104245093Y-84525301D01*
X105845395Y-82925000D01*
X104245093Y-81324699D01*
X103888063Y-81529405D01*
X103656857Y-81973117D01*
X103516657Y-82453409D01*
X103472851Y-82951823D01*
X100660000Y-82951823D01*
X100660000Y-81145093D01*
X104424699Y-81145093D01*
X106025000Y-82745395D01*
X107625301Y-81145093D01*
X110774699Y-81145093D01*
X112375000Y-82745395D01*
X113975301Y-81145093D01*
X113770595Y-80788063D01*
X113326883Y-80556857D01*
X113319439Y-80554684D01*
X164656933Y-80554684D01*
X164703015Y-80913198D01*
X164818154Y-81255833D01*
X164937164Y-81478486D01*
X165222020Y-81598374D01*
X166320395Y-80500000D01*
X166679605Y-80500000D01*
X167777980Y-81598374D01*
X168062836Y-81478486D01*
X168223699Y-81154790D01*
X168226329Y-81145093D01*
X176149699Y-81145093D01*
X177750000Y-82745395D01*
X179350301Y-81145093D01*
X182499699Y-81145093D01*
X184100000Y-82745395D01*
X185700301Y-81145093D01*
X185495595Y-80788063D01*
X185051883Y-80556857D01*
X184571591Y-80416657D01*
X184073177Y-80372851D01*
X183575792Y-80427123D01*
X183098553Y-80577387D01*
X182704405Y-80788063D01*
X182499699Y-81145093D01*
X179350301Y-81145093D01*
X179145595Y-80788063D01*
X178701883Y-80556857D01*
X178221591Y-80416657D01*
X177723177Y-80372851D01*
X177225792Y-80427123D01*
X176748553Y-80577387D01*
X176354405Y-80788063D01*
X176149699Y-81145093D01*
X168226329Y-81145093D01*
X168318322Y-80805931D01*
X168343067Y-80445316D01*
X168296985Y-80086802D01*
X168181846Y-79744167D01*
X168062836Y-79521514D01*
X167777980Y-79401626D01*
X166679605Y-80500000D01*
X166320395Y-80500000D01*
X165222020Y-79401626D01*
X164937164Y-79521514D01*
X164776301Y-79845210D01*
X164681678Y-80194069D01*
X164656933Y-80554684D01*
X113319439Y-80554684D01*
X112846591Y-80416657D01*
X112348177Y-80372851D01*
X111850792Y-80427123D01*
X111373553Y-80577387D01*
X110979405Y-80788063D01*
X110774699Y-81145093D01*
X107625301Y-81145093D01*
X107420595Y-80788063D01*
X106976883Y-80556857D01*
X106496591Y-80416657D01*
X105998177Y-80372851D01*
X105500792Y-80427123D01*
X105023553Y-80577387D01*
X104629405Y-80788063D01*
X104424699Y-81145093D01*
X100660000Y-81145093D01*
X100660000Y-79222020D01*
X165401626Y-79222020D01*
X166500000Y-80320395D01*
X167598374Y-79222020D01*
X167478486Y-78937164D01*
X167154790Y-78776301D01*
X166805931Y-78681678D01*
X166445316Y-78656933D01*
X166086802Y-78703015D01*
X165744167Y-78818154D01*
X165521514Y-78937164D01*
X165401626Y-79222020D01*
X100660000Y-79222020D01*
X100660000Y-74725701D01*
X101215000Y-74725701D01*
X101215000Y-75274299D01*
X101322026Y-75812354D01*
X101531965Y-76319192D01*
X101836750Y-76775334D01*
X102224666Y-77163250D01*
X102680808Y-77468035D01*
X103187646Y-77677974D01*
X103725701Y-77785000D01*
X104274299Y-77785000D01*
X104812354Y-77677974D01*
X105319192Y-77468035D01*
X105775334Y-77163250D01*
X106163250Y-76775334D01*
X106468035Y-76319192D01*
X106677974Y-75812354D01*
X106785000Y-75274299D01*
X106785000Y-74725701D01*
X106677974Y-74187646D01*
X106468035Y-73680808D01*
X106163250Y-73224666D01*
X105775334Y-72836750D01*
X105319192Y-72531965D01*
X104812354Y-72322026D01*
X104274299Y-72215000D01*
X103725701Y-72215000D01*
X103187646Y-72322026D01*
X102680808Y-72531965D01*
X102224666Y-72836750D01*
X101836750Y-73224666D01*
X101531965Y-73680808D01*
X101322026Y-74187646D01*
X101215000Y-74725701D01*
X100660000Y-74725701D01*
X100660000Y-74032279D01*
X100707670Y-73546107D01*
X100839489Y-73109502D01*
X101053600Y-72706815D01*
X101341848Y-72353388D01*
X101693261Y-72062673D01*
X102094439Y-71845758D01*
X102530113Y-71710894D01*
X103014344Y-71660000D01*
X126701413Y-71660000D01*
X126299826Y-71928332D01*
G37*
%TD.AperFunction*%
%TD*%
M02*
