%TF.GenerationSoftware,KiCad,Pcbnew,(5.1.9)-1*%
%TF.CreationDate,2021-10-14T16:01:30-04:00*%
%TF.ProjectId,ModularPreamp,4d6f6475-6c61-4725-9072-65616d702e6b,rev?*%
%TF.SameCoordinates,Original*%
%TF.FileFunction,Legend,Top*%
%TF.FilePolarity,Positive*%
%FSLAX46Y46*%
G04 Gerber Fmt 4.6, Leading zero omitted, Abs format (unit mm)*
G04 Created by KiCad (PCBNEW (5.1.9)-1) date 2021-10-14 16:01:30*
%MOMM*%
%LPD*%
G01*
G04 APERTURE LIST*
%ADD10C,0.120000*%
%ADD11C,0.150000*%
G04 APERTURE END LIST*
D10*
X155900000Y-95900000D02*
X156000000Y-95700000D01*
X155900000Y-95900000D02*
X155600000Y-95900000D01*
X155500000Y-95200000D02*
X155900000Y-95900000D01*
D11*
X148940357Y-104136904D02*
X149092738Y-104136904D01*
X149168928Y-104175000D01*
X149245119Y-104251190D01*
X149283214Y-104403571D01*
X149283214Y-104670238D01*
X149245119Y-104822619D01*
X149168928Y-104898809D01*
X149092738Y-104936904D01*
X148940357Y-104936904D01*
X148864166Y-104898809D01*
X148787976Y-104822619D01*
X148749880Y-104670238D01*
X148749880Y-104403571D01*
X148787976Y-104251190D01*
X148864166Y-104175000D01*
X148940357Y-104136904D01*
X149626071Y-104403571D02*
X149626071Y-105203571D01*
X149626071Y-104441666D02*
X149702261Y-104403571D01*
X149854642Y-104403571D01*
X149930833Y-104441666D01*
X149968928Y-104479761D01*
X150007023Y-104555952D01*
X150007023Y-104784523D01*
X149968928Y-104860714D01*
X149930833Y-104898809D01*
X149854642Y-104936904D01*
X149702261Y-104936904D01*
X149626071Y-104898809D01*
X150235595Y-104403571D02*
X150540357Y-104403571D01*
X150349880Y-104136904D02*
X150349880Y-104822619D01*
X150387976Y-104898809D01*
X150464166Y-104936904D01*
X150540357Y-104936904D01*
X150807023Y-104936904D02*
X150807023Y-104403571D01*
X150807023Y-104136904D02*
X150768928Y-104175000D01*
X150807023Y-104213095D01*
X150845119Y-104175000D01*
X150807023Y-104136904D01*
X150807023Y-104213095D01*
X151302261Y-104936904D02*
X151226071Y-104898809D01*
X151187976Y-104860714D01*
X151149880Y-104784523D01*
X151149880Y-104555952D01*
X151187976Y-104479761D01*
X151226071Y-104441666D01*
X151302261Y-104403571D01*
X151416547Y-104403571D01*
X151492738Y-104441666D01*
X151530833Y-104479761D01*
X151568928Y-104555952D01*
X151568928Y-104784523D01*
X151530833Y-104860714D01*
X151492738Y-104898809D01*
X151416547Y-104936904D01*
X151302261Y-104936904D01*
X151911785Y-104403571D02*
X151911785Y-104936904D01*
X151911785Y-104479761D02*
X151949880Y-104441666D01*
X152026071Y-104403571D01*
X152140357Y-104403571D01*
X152216547Y-104441666D01*
X152254642Y-104517857D01*
X152254642Y-104936904D01*
X152978452Y-104936904D02*
X152978452Y-104517857D01*
X152940357Y-104441666D01*
X152864166Y-104403571D01*
X152711785Y-104403571D01*
X152635595Y-104441666D01*
X152978452Y-104898809D02*
X152902261Y-104936904D01*
X152711785Y-104936904D01*
X152635595Y-104898809D01*
X152597500Y-104822619D01*
X152597500Y-104746428D01*
X152635595Y-104670238D01*
X152711785Y-104632142D01*
X152902261Y-104632142D01*
X152978452Y-104594047D01*
X153473690Y-104936904D02*
X153397500Y-104898809D01*
X153359404Y-104822619D01*
X153359404Y-104136904D01*
X148787976Y-106286904D02*
X148787976Y-105486904D01*
X149168928Y-105753571D02*
X149168928Y-106286904D01*
X149168928Y-105829761D02*
X149207023Y-105791666D01*
X149283214Y-105753571D01*
X149397500Y-105753571D01*
X149473690Y-105791666D01*
X149511785Y-105867857D01*
X149511785Y-106286904D01*
X149892738Y-105753571D02*
X149892738Y-106553571D01*
X149892738Y-105791666D02*
X149968928Y-105753571D01*
X150121309Y-105753571D01*
X150197500Y-105791666D01*
X150235595Y-105829761D01*
X150273690Y-105905952D01*
X150273690Y-106134523D01*
X150235595Y-106210714D01*
X150197500Y-106248809D01*
X150121309Y-106286904D01*
X149968928Y-106286904D01*
X149892738Y-106248809D01*
X150959404Y-105753571D02*
X150959404Y-106286904D01*
X150616547Y-105753571D02*
X150616547Y-106172619D01*
X150654642Y-106248809D01*
X150730833Y-106286904D01*
X150845119Y-106286904D01*
X150921309Y-106248809D01*
X150959404Y-106210714D01*
X151226071Y-105753571D02*
X151530833Y-105753571D01*
X151340357Y-105486904D02*
X151340357Y-106172619D01*
X151378452Y-106248809D01*
X151454642Y-106286904D01*
X151530833Y-106286904D01*
X149242857Y-100134523D02*
X148757142Y-100134523D01*
X149000000Y-100134523D02*
X149000000Y-99284523D01*
X148919047Y-99405952D01*
X148838095Y-99486904D01*
X148757142Y-99527380D01*
X148749880Y-102148809D02*
X148864166Y-102186904D01*
X149054642Y-102186904D01*
X149130833Y-102148809D01*
X149168928Y-102110714D01*
X149207023Y-102034523D01*
X149207023Y-101958333D01*
X149168928Y-101882142D01*
X149130833Y-101844047D01*
X149054642Y-101805952D01*
X148902261Y-101767857D01*
X148826071Y-101729761D01*
X148787976Y-101691666D01*
X148749880Y-101615476D01*
X148749880Y-101539285D01*
X148787976Y-101463095D01*
X148826071Y-101425000D01*
X148902261Y-101386904D01*
X149092738Y-101386904D01*
X149207023Y-101425000D01*
X149892738Y-101653571D02*
X149892738Y-102186904D01*
X149549880Y-101653571D02*
X149549880Y-102072619D01*
X149587976Y-102148809D01*
X149664166Y-102186904D01*
X149778452Y-102186904D01*
X149854642Y-102148809D01*
X149892738Y-102110714D01*
X150273690Y-102186904D02*
X150273690Y-101653571D01*
X150273690Y-101729761D02*
X150311785Y-101691666D01*
X150387976Y-101653571D01*
X150502261Y-101653571D01*
X150578452Y-101691666D01*
X150616547Y-101767857D01*
X150616547Y-102186904D01*
X150616547Y-101767857D02*
X150654642Y-101691666D01*
X150730833Y-101653571D01*
X150845119Y-101653571D01*
X150921309Y-101691666D01*
X150959404Y-101767857D01*
X150959404Y-102186904D01*
X151340357Y-102186904D02*
X151340357Y-101653571D01*
X151340357Y-101729761D02*
X151378452Y-101691666D01*
X151454642Y-101653571D01*
X151568928Y-101653571D01*
X151645119Y-101691666D01*
X151683214Y-101767857D01*
X151683214Y-102186904D01*
X151683214Y-101767857D02*
X151721309Y-101691666D01*
X151797500Y-101653571D01*
X151911785Y-101653571D01*
X151987976Y-101691666D01*
X152026071Y-101767857D01*
X152026071Y-102186904D01*
X152407023Y-102186904D02*
X152407023Y-101653571D01*
X152407023Y-101386904D02*
X152368928Y-101425000D01*
X152407023Y-101463095D01*
X152445119Y-101425000D01*
X152407023Y-101386904D01*
X152407023Y-101463095D01*
X152787976Y-101653571D02*
X152787976Y-102186904D01*
X152787976Y-101729761D02*
X152826071Y-101691666D01*
X152902261Y-101653571D01*
X153016547Y-101653571D01*
X153092738Y-101691666D01*
X153130833Y-101767857D01*
X153130833Y-102186904D01*
X153854642Y-101653571D02*
X153854642Y-102301190D01*
X153816547Y-102377380D01*
X153778452Y-102415476D01*
X153702261Y-102453571D01*
X153587976Y-102453571D01*
X153511785Y-102415476D01*
X153854642Y-102148809D02*
X153778452Y-102186904D01*
X153626071Y-102186904D01*
X153549880Y-102148809D01*
X153511785Y-102110714D01*
X153473690Y-102034523D01*
X153473690Y-101805952D01*
X153511785Y-101729761D01*
X153549880Y-101691666D01*
X153626071Y-101653571D01*
X153778452Y-101653571D01*
X153854642Y-101691666D01*
X148787976Y-103536904D02*
X148787976Y-102736904D01*
X149245119Y-103536904D01*
X149245119Y-102736904D01*
X149740357Y-103536904D02*
X149664166Y-103498809D01*
X149626071Y-103460714D01*
X149587976Y-103384523D01*
X149587976Y-103155952D01*
X149626071Y-103079761D01*
X149664166Y-103041666D01*
X149740357Y-103003571D01*
X149854642Y-103003571D01*
X149930833Y-103041666D01*
X149968928Y-103079761D01*
X150007023Y-103155952D01*
X150007023Y-103384523D01*
X149968928Y-103460714D01*
X149930833Y-103498809D01*
X149854642Y-103536904D01*
X149740357Y-103536904D01*
X150692738Y-103536904D02*
X150692738Y-102736904D01*
X150692738Y-103498809D02*
X150616547Y-103536904D01*
X150464166Y-103536904D01*
X150387976Y-103498809D01*
X150349880Y-103460714D01*
X150311785Y-103384523D01*
X150311785Y-103155952D01*
X150349880Y-103079761D01*
X150387976Y-103041666D01*
X150464166Y-103003571D01*
X150616547Y-103003571D01*
X150692738Y-103041666D01*
X151378452Y-103498809D02*
X151302261Y-103536904D01*
X151149880Y-103536904D01*
X151073690Y-103498809D01*
X151035595Y-103422619D01*
X151035595Y-103117857D01*
X151073690Y-103041666D01*
X151149880Y-103003571D01*
X151302261Y-103003571D01*
X151378452Y-103041666D01*
X151416547Y-103117857D01*
X151416547Y-103194047D01*
X151035595Y-103270238D01*
D10*
%TO.C,JP1*%
X146050000Y-110750000D02*
X147450000Y-110750000D01*
X148150000Y-111450000D02*
X148150000Y-112050000D01*
X147450000Y-112750000D02*
X146050000Y-112750000D01*
X145350000Y-112050000D02*
X145350000Y-111450000D01*
X145350000Y-111450000D02*
G75*
G02*
X146050000Y-110750000I700000J0D01*
G01*
X146050000Y-112750000D02*
G75*
G02*
X145350000Y-112050000I0J700000D01*
G01*
X148150000Y-112050000D02*
G75*
G02*
X147450000Y-112750000I-700000J0D01*
G01*
X147450000Y-110750000D02*
G75*
G02*
X148150000Y-111450000I0J-700000D01*
G01*
%TO.C,R9*%
X173860436Y-93235000D02*
X174314564Y-93235000D01*
X173860436Y-91765000D02*
X174314564Y-91765000D01*
%TO.C,R8*%
X164360436Y-93235000D02*
X164814564Y-93235000D01*
X164360436Y-91765000D02*
X164814564Y-91765000D01*
%TO.C,R7*%
X151814564Y-110515000D02*
X151360436Y-110515000D01*
X151814564Y-111985000D02*
X151360436Y-111985000D01*
%TO.C,R6*%
X151639564Y-107015000D02*
X151185436Y-107015000D01*
X151639564Y-108485000D02*
X151185436Y-108485000D01*
%TO.C,J1*%
X145170000Y-98550000D02*
X146500000Y-98550000D01*
X145170000Y-99880000D02*
X145170000Y-98550000D01*
X145170000Y-101150000D02*
X147830000Y-101150000D01*
X147830000Y-101150000D02*
X147830000Y-108830000D01*
X145170000Y-101150000D02*
X145170000Y-108830000D01*
X145170000Y-108830000D02*
X147830000Y-108830000D01*
%TO.C,D2*%
X179440000Y-98585000D02*
X183525000Y-98585000D01*
X179440000Y-96415000D02*
X179440000Y-98585000D01*
X183525000Y-96415000D02*
X179440000Y-96415000D01*
%TO.C,D1*%
X167015000Y-93585000D02*
X171100000Y-93585000D01*
X167015000Y-91415000D02*
X167015000Y-93585000D01*
X171100000Y-91415000D02*
X167015000Y-91415000D01*
%TO.C,C6*%
X160211252Y-104765000D02*
X159688748Y-104765000D01*
X160211252Y-106235000D02*
X159688748Y-106235000D01*
%TO.C,C5*%
X163761252Y-104765000D02*
X163238748Y-104765000D01*
X163761252Y-106235000D02*
X163238748Y-106235000D01*
%TO.C,C3*%
X159788748Y-99735000D02*
X160311252Y-99735000D01*
X159788748Y-98265000D02*
X160311252Y-98265000D01*
%TO.C,C1*%
X159738748Y-97235000D02*
X160261252Y-97235000D01*
X159738748Y-95765000D02*
X160261252Y-95765000D01*
%TO.C,R5*%
X163765000Y-100727064D02*
X163765000Y-100272936D01*
X165235000Y-100727064D02*
X165235000Y-100272936D01*
%TO.C,SW1*%
X178420000Y-96590000D02*
X178420000Y-103410000D01*
X166580000Y-96590000D02*
X166580000Y-103410000D01*
X178420000Y-96590000D02*
X177110000Y-96590000D01*
X175510000Y-96590000D02*
X174570000Y-96590000D01*
X172970000Y-96590000D02*
X172030000Y-96590000D01*
X170430000Y-96590000D02*
X169490000Y-96590000D01*
X167890000Y-96590000D02*
X166580000Y-96590000D01*
X167890000Y-103410000D02*
X166580000Y-103410000D01*
X170430000Y-103410000D02*
X169490000Y-103410000D01*
X172970000Y-103410000D02*
X172030000Y-103410000D01*
X178420000Y-103410000D02*
X177110000Y-103410000D01*
X175510000Y-103410000D02*
X174570000Y-103410000D01*
X178660000Y-96350000D02*
X178660000Y-97733000D01*
X178660000Y-96350000D02*
X177277000Y-96350000D01*
X176945000Y-98190000D02*
X175675000Y-98190000D01*
X175675000Y-98190000D02*
X175675000Y-101810000D01*
X175675000Y-101810000D02*
X176945000Y-101810000D01*
X176945000Y-101810000D02*
X176945000Y-98190000D01*
X176825000Y-98190000D02*
X176825000Y-99396667D01*
X176705000Y-98190000D02*
X176705000Y-99396667D01*
X176585000Y-98190000D02*
X176585000Y-99396667D01*
X176465000Y-98190000D02*
X176465000Y-99396667D01*
X176345000Y-98190000D02*
X176345000Y-99396667D01*
X176225000Y-98190000D02*
X176225000Y-99396667D01*
X176105000Y-98190000D02*
X176105000Y-99396667D01*
X175985000Y-98190000D02*
X175985000Y-99396667D01*
X175865000Y-98190000D02*
X175865000Y-99396667D01*
X175745000Y-98190000D02*
X175745000Y-99396667D01*
X176945000Y-99396667D02*
X175675000Y-99396667D01*
X174405000Y-98190000D02*
X173135000Y-98190000D01*
X173135000Y-98190000D02*
X173135000Y-101810000D01*
X173135000Y-101810000D02*
X174405000Y-101810000D01*
X174405000Y-101810000D02*
X174405000Y-98190000D01*
X174285000Y-98190000D02*
X174285000Y-99396667D01*
X174165000Y-98190000D02*
X174165000Y-99396667D01*
X174045000Y-98190000D02*
X174045000Y-99396667D01*
X173925000Y-98190000D02*
X173925000Y-99396667D01*
X173805000Y-98190000D02*
X173805000Y-99396667D01*
X173685000Y-98190000D02*
X173685000Y-99396667D01*
X173565000Y-98190000D02*
X173565000Y-99396667D01*
X173445000Y-98190000D02*
X173445000Y-99396667D01*
X173325000Y-98190000D02*
X173325000Y-99396667D01*
X173205000Y-98190000D02*
X173205000Y-99396667D01*
X174405000Y-99396667D02*
X173135000Y-99396667D01*
X171865000Y-98190000D02*
X170595000Y-98190000D01*
X170595000Y-98190000D02*
X170595000Y-101810000D01*
X170595000Y-101810000D02*
X171865000Y-101810000D01*
X171865000Y-101810000D02*
X171865000Y-98190000D01*
X171745000Y-98190000D02*
X171745000Y-99396667D01*
X171625000Y-98190000D02*
X171625000Y-99396667D01*
X171505000Y-98190000D02*
X171505000Y-99396667D01*
X171385000Y-98190000D02*
X171385000Y-99396667D01*
X171265000Y-98190000D02*
X171265000Y-99396667D01*
X171145000Y-98190000D02*
X171145000Y-99396667D01*
X171025000Y-98190000D02*
X171025000Y-99396667D01*
X170905000Y-98190000D02*
X170905000Y-99396667D01*
X170785000Y-98190000D02*
X170785000Y-99396667D01*
X170665000Y-98190000D02*
X170665000Y-99396667D01*
X171865000Y-99396667D02*
X170595000Y-99396667D01*
X169325000Y-98190000D02*
X168055000Y-98190000D01*
X168055000Y-98190000D02*
X168055000Y-101810000D01*
X168055000Y-101810000D02*
X169325000Y-101810000D01*
X169325000Y-101810000D02*
X169325000Y-98190000D01*
X169205000Y-98190000D02*
X169205000Y-99396667D01*
X169085000Y-98190000D02*
X169085000Y-99396667D01*
X168965000Y-98190000D02*
X168965000Y-99396667D01*
X168845000Y-98190000D02*
X168845000Y-99396667D01*
X168725000Y-98190000D02*
X168725000Y-99396667D01*
X168605000Y-98190000D02*
X168605000Y-99396667D01*
X168485000Y-98190000D02*
X168485000Y-99396667D01*
X168365000Y-98190000D02*
X168365000Y-99396667D01*
X168245000Y-98190000D02*
X168245000Y-99396667D01*
X168125000Y-98190000D02*
X168125000Y-99396667D01*
X169325000Y-99396667D02*
X168055000Y-99396667D01*
%TO.C,R1*%
X175765000Y-108727064D02*
X175765000Y-108272936D01*
X177235000Y-108727064D02*
X177235000Y-108272936D01*
%TO.C,R2*%
X173098332Y-108727064D02*
X173098332Y-108272936D01*
X174568332Y-108727064D02*
X174568332Y-108272936D01*
%TO.C,R3*%
X170431666Y-108727064D02*
X170431666Y-108272936D01*
X171901666Y-108727064D02*
X171901666Y-108272936D01*
%TO.C,R4*%
X167765000Y-108727064D02*
X167765000Y-108272936D01*
X169235000Y-108727064D02*
X169235000Y-108272936D01*
%TO.C,J18*%
X147920000Y-90080000D02*
X147920000Y-88750000D01*
X149250000Y-90080000D02*
X147920000Y-90080000D01*
X150520000Y-90080000D02*
X150520000Y-87420000D01*
X150520000Y-87420000D02*
X178520000Y-87420000D01*
X150520000Y-90080000D02*
X178520000Y-90080000D01*
X178520000Y-90080000D02*
X178520000Y-87420000D01*
%TO.C,J22*%
X147670000Y-116330000D02*
X147670000Y-115000000D01*
X149000000Y-116330000D02*
X147670000Y-116330000D01*
X150270000Y-116330000D02*
X150270000Y-113670000D01*
X150270000Y-113670000D02*
X178270000Y-113670000D01*
X150270000Y-116330000D02*
X178270000Y-116330000D01*
X178270000Y-116330000D02*
X178270000Y-113670000D01*
%TO.C,JP6*%
X157250000Y-94850000D02*
X156650000Y-94850000D01*
X157950000Y-92750000D02*
X157950000Y-94150000D01*
X156650000Y-92050000D02*
X157250000Y-92050000D01*
X155950000Y-94150000D02*
X155950000Y-92750000D01*
X156650000Y-94850000D02*
G75*
G02*
X155950000Y-94150000I0J700000D01*
G01*
X157950000Y-94150000D02*
G75*
G02*
X157250000Y-94850000I-700000J0D01*
G01*
X157250000Y-92050000D02*
G75*
G02*
X157950000Y-92750000I0J-700000D01*
G01*
X155950000Y-92750000D02*
G75*
G02*
X156650000Y-92050000I700000J0D01*
G01*
%TO.C,U4*%
X157890000Y-101400000D02*
X157890000Y-103850000D01*
X161110000Y-103200000D02*
X161110000Y-101400000D01*
%TO.C,R38*%
X156065000Y-97360436D02*
X156065000Y-97814564D01*
X157535000Y-97360436D02*
X157535000Y-97814564D01*
%TO.C,R37*%
X153765000Y-97272936D02*
X153765000Y-97727064D01*
X155235000Y-97272936D02*
X155235000Y-97727064D01*
%TO.C,R36*%
X155565000Y-105560436D02*
X155565000Y-106014564D01*
X157035000Y-105560436D02*
X157035000Y-106014564D01*
%TO.C,R33*%
X157814564Y-110765000D02*
X157360436Y-110765000D01*
X157814564Y-112235000D02*
X157360436Y-112235000D01*
%TO.C,C21*%
X155565000Y-101888748D02*
X155565000Y-102411252D01*
X157035000Y-101888748D02*
X157035000Y-102411252D01*
%TO.C,H3*%
D11*
X182838095Y-93452380D02*
X182838095Y-92452380D01*
X182838095Y-92928571D02*
X183409523Y-92928571D01*
X183409523Y-93452380D02*
X183409523Y-92452380D01*
X183790476Y-92452380D02*
X184409523Y-92452380D01*
X184076190Y-92833333D01*
X184219047Y-92833333D01*
X184314285Y-92880952D01*
X184361904Y-92928571D01*
X184409523Y-93023809D01*
X184409523Y-93261904D01*
X184361904Y-93357142D01*
X184314285Y-93404761D01*
X184219047Y-93452380D01*
X183933333Y-93452380D01*
X183838095Y-93404761D01*
X183790476Y-93357142D01*
%TO.C,H2*%
X180738095Y-112752380D02*
X180738095Y-111752380D01*
X180738095Y-112228571D02*
X181309523Y-112228571D01*
X181309523Y-112752380D02*
X181309523Y-111752380D01*
X181738095Y-111847619D02*
X181785714Y-111800000D01*
X181880952Y-111752380D01*
X182119047Y-111752380D01*
X182214285Y-111800000D01*
X182261904Y-111847619D01*
X182309523Y-111942857D01*
X182309523Y-112038095D01*
X182261904Y-112180952D01*
X181690476Y-112752380D01*
X182309523Y-112752380D01*
%TO.C,H1*%
X150488095Y-92952380D02*
X150488095Y-91952380D01*
X150488095Y-92428571D02*
X151059523Y-92428571D01*
X151059523Y-92952380D02*
X151059523Y-91952380D01*
X152059523Y-92952380D02*
X151488095Y-92952380D01*
X151773809Y-92952380D02*
X151773809Y-91952380D01*
X151678571Y-92095238D01*
X151583333Y-92190476D01*
X151488095Y-92238095D01*
%TO.C,JP1*%
X145916666Y-109402380D02*
X145916666Y-110116666D01*
X145869047Y-110259523D01*
X145773809Y-110354761D01*
X145630952Y-110402380D01*
X145535714Y-110402380D01*
X146392857Y-110402380D02*
X146392857Y-109402380D01*
X146773809Y-109402380D01*
X146869047Y-109450000D01*
X146916666Y-109497619D01*
X146964285Y-109592857D01*
X146964285Y-109735714D01*
X146916666Y-109830952D01*
X146869047Y-109878571D01*
X146773809Y-109926190D01*
X146392857Y-109926190D01*
X147916666Y-110402380D02*
X147345238Y-110402380D01*
X147630952Y-110402380D02*
X147630952Y-109402380D01*
X147535714Y-109545238D01*
X147440476Y-109640476D01*
X147345238Y-109688095D01*
%TO.C,R9*%
X173920833Y-91302380D02*
X173587500Y-90826190D01*
X173349404Y-91302380D02*
X173349404Y-90302380D01*
X173730357Y-90302380D01*
X173825595Y-90350000D01*
X173873214Y-90397619D01*
X173920833Y-90492857D01*
X173920833Y-90635714D01*
X173873214Y-90730952D01*
X173825595Y-90778571D01*
X173730357Y-90826190D01*
X173349404Y-90826190D01*
X174397023Y-91302380D02*
X174587500Y-91302380D01*
X174682738Y-91254761D01*
X174730357Y-91207142D01*
X174825595Y-91064285D01*
X174873214Y-90873809D01*
X174873214Y-90492857D01*
X174825595Y-90397619D01*
X174777976Y-90350000D01*
X174682738Y-90302380D01*
X174492261Y-90302380D01*
X174397023Y-90350000D01*
X174349404Y-90397619D01*
X174301785Y-90492857D01*
X174301785Y-90730952D01*
X174349404Y-90826190D01*
X174397023Y-90873809D01*
X174492261Y-90921428D01*
X174682738Y-90921428D01*
X174777976Y-90873809D01*
X174825595Y-90826190D01*
X174873214Y-90730952D01*
%TO.C,R8*%
X164420833Y-91302380D02*
X164087500Y-90826190D01*
X163849404Y-91302380D02*
X163849404Y-90302380D01*
X164230357Y-90302380D01*
X164325595Y-90350000D01*
X164373214Y-90397619D01*
X164420833Y-90492857D01*
X164420833Y-90635714D01*
X164373214Y-90730952D01*
X164325595Y-90778571D01*
X164230357Y-90826190D01*
X163849404Y-90826190D01*
X164992261Y-90730952D02*
X164897023Y-90683333D01*
X164849404Y-90635714D01*
X164801785Y-90540476D01*
X164801785Y-90492857D01*
X164849404Y-90397619D01*
X164897023Y-90350000D01*
X164992261Y-90302380D01*
X165182738Y-90302380D01*
X165277976Y-90350000D01*
X165325595Y-90397619D01*
X165373214Y-90492857D01*
X165373214Y-90540476D01*
X165325595Y-90635714D01*
X165277976Y-90683333D01*
X165182738Y-90730952D01*
X164992261Y-90730952D01*
X164897023Y-90778571D01*
X164849404Y-90826190D01*
X164801785Y-90921428D01*
X164801785Y-91111904D01*
X164849404Y-91207142D01*
X164897023Y-91254761D01*
X164992261Y-91302380D01*
X165182738Y-91302380D01*
X165277976Y-91254761D01*
X165325595Y-91207142D01*
X165373214Y-91111904D01*
X165373214Y-90921428D01*
X165325595Y-90826190D01*
X165277976Y-90778571D01*
X165182738Y-90730952D01*
%TO.C,R7*%
X154333333Y-111952380D02*
X154000000Y-111476190D01*
X153761904Y-111952380D02*
X153761904Y-110952380D01*
X154142857Y-110952380D01*
X154238095Y-111000000D01*
X154285714Y-111047619D01*
X154333333Y-111142857D01*
X154333333Y-111285714D01*
X154285714Y-111380952D01*
X154238095Y-111428571D01*
X154142857Y-111476190D01*
X153761904Y-111476190D01*
X154666666Y-110952380D02*
X155333333Y-110952380D01*
X154904761Y-111952380D01*
%TO.C,R6*%
X151245833Y-109852380D02*
X150912500Y-109376190D01*
X150674404Y-109852380D02*
X150674404Y-108852380D01*
X151055357Y-108852380D01*
X151150595Y-108900000D01*
X151198214Y-108947619D01*
X151245833Y-109042857D01*
X151245833Y-109185714D01*
X151198214Y-109280952D01*
X151150595Y-109328571D01*
X151055357Y-109376190D01*
X150674404Y-109376190D01*
X152102976Y-108852380D02*
X151912500Y-108852380D01*
X151817261Y-108900000D01*
X151769642Y-108947619D01*
X151674404Y-109090476D01*
X151626785Y-109280952D01*
X151626785Y-109661904D01*
X151674404Y-109757142D01*
X151722023Y-109804761D01*
X151817261Y-109852380D01*
X152007738Y-109852380D01*
X152102976Y-109804761D01*
X152150595Y-109757142D01*
X152198214Y-109661904D01*
X152198214Y-109423809D01*
X152150595Y-109328571D01*
X152102976Y-109280952D01*
X152007738Y-109233333D01*
X151817261Y-109233333D01*
X151722023Y-109280952D01*
X151674404Y-109328571D01*
X151626785Y-109423809D01*
%TO.C,J1*%
X146166666Y-97002380D02*
X146166666Y-97716666D01*
X146119047Y-97859523D01*
X146023809Y-97954761D01*
X145880952Y-98002380D01*
X145785714Y-98002380D01*
X147166666Y-98002380D02*
X146595238Y-98002380D01*
X146880952Y-98002380D02*
X146880952Y-97002380D01*
X146785714Y-97145238D01*
X146690476Y-97240476D01*
X146595238Y-97288095D01*
%TO.C,D2*%
X181186904Y-96172380D02*
X181186904Y-95172380D01*
X181425000Y-95172380D01*
X181567857Y-95220000D01*
X181663095Y-95315238D01*
X181710714Y-95410476D01*
X181758333Y-95600952D01*
X181758333Y-95743809D01*
X181710714Y-95934285D01*
X181663095Y-96029523D01*
X181567857Y-96124761D01*
X181425000Y-96172380D01*
X181186904Y-96172380D01*
X182139285Y-95267619D02*
X182186904Y-95220000D01*
X182282142Y-95172380D01*
X182520238Y-95172380D01*
X182615476Y-95220000D01*
X182663095Y-95267619D01*
X182710714Y-95362857D01*
X182710714Y-95458095D01*
X182663095Y-95600952D01*
X182091666Y-96172380D01*
X182710714Y-96172380D01*
%TO.C,D1*%
X168761904Y-91172380D02*
X168761904Y-90172380D01*
X169000000Y-90172380D01*
X169142857Y-90220000D01*
X169238095Y-90315238D01*
X169285714Y-90410476D01*
X169333333Y-90600952D01*
X169333333Y-90743809D01*
X169285714Y-90934285D01*
X169238095Y-91029523D01*
X169142857Y-91124761D01*
X169000000Y-91172380D01*
X168761904Y-91172380D01*
X170285714Y-91172380D02*
X169714285Y-91172380D01*
X170000000Y-91172380D02*
X170000000Y-90172380D01*
X169904761Y-90315238D01*
X169809523Y-90410476D01*
X169714285Y-90458095D01*
%TO.C,C6*%
X159833333Y-107857142D02*
X159785714Y-107904761D01*
X159642857Y-107952380D01*
X159547619Y-107952380D01*
X159404761Y-107904761D01*
X159309523Y-107809523D01*
X159261904Y-107714285D01*
X159214285Y-107523809D01*
X159214285Y-107380952D01*
X159261904Y-107190476D01*
X159309523Y-107095238D01*
X159404761Y-107000000D01*
X159547619Y-106952380D01*
X159642857Y-106952380D01*
X159785714Y-107000000D01*
X159833333Y-107047619D01*
X160690476Y-106952380D02*
X160500000Y-106952380D01*
X160404761Y-107000000D01*
X160357142Y-107047619D01*
X160261904Y-107190476D01*
X160214285Y-107380952D01*
X160214285Y-107761904D01*
X160261904Y-107857142D01*
X160309523Y-107904761D01*
X160404761Y-107952380D01*
X160595238Y-107952380D01*
X160690476Y-107904761D01*
X160738095Y-107857142D01*
X160785714Y-107761904D01*
X160785714Y-107523809D01*
X160738095Y-107428571D01*
X160690476Y-107380952D01*
X160595238Y-107333333D01*
X160404761Y-107333333D01*
X160309523Y-107380952D01*
X160261904Y-107428571D01*
X160214285Y-107523809D01*
%TO.C,C5*%
X163333333Y-107857142D02*
X163285714Y-107904761D01*
X163142857Y-107952380D01*
X163047619Y-107952380D01*
X162904761Y-107904761D01*
X162809523Y-107809523D01*
X162761904Y-107714285D01*
X162714285Y-107523809D01*
X162714285Y-107380952D01*
X162761904Y-107190476D01*
X162809523Y-107095238D01*
X162904761Y-107000000D01*
X163047619Y-106952380D01*
X163142857Y-106952380D01*
X163285714Y-107000000D01*
X163333333Y-107047619D01*
X164238095Y-106952380D02*
X163761904Y-106952380D01*
X163714285Y-107428571D01*
X163761904Y-107380952D01*
X163857142Y-107333333D01*
X164095238Y-107333333D01*
X164190476Y-107380952D01*
X164238095Y-107428571D01*
X164285714Y-107523809D01*
X164285714Y-107761904D01*
X164238095Y-107857142D01*
X164190476Y-107904761D01*
X164095238Y-107952380D01*
X163857142Y-107952380D01*
X163761904Y-107904761D01*
X163714285Y-107857142D01*
%TO.C,C3*%
X162833333Y-99357142D02*
X162785714Y-99404761D01*
X162642857Y-99452380D01*
X162547619Y-99452380D01*
X162404761Y-99404761D01*
X162309523Y-99309523D01*
X162261904Y-99214285D01*
X162214285Y-99023809D01*
X162214285Y-98880952D01*
X162261904Y-98690476D01*
X162309523Y-98595238D01*
X162404761Y-98500000D01*
X162547619Y-98452380D01*
X162642857Y-98452380D01*
X162785714Y-98500000D01*
X162833333Y-98547619D01*
X163166666Y-98452380D02*
X163785714Y-98452380D01*
X163452380Y-98833333D01*
X163595238Y-98833333D01*
X163690476Y-98880952D01*
X163738095Y-98928571D01*
X163785714Y-99023809D01*
X163785714Y-99261904D01*
X163738095Y-99357142D01*
X163690476Y-99404761D01*
X163595238Y-99452380D01*
X163309523Y-99452380D01*
X163214285Y-99404761D01*
X163166666Y-99357142D01*
%TO.C,C1*%
X162833333Y-96857142D02*
X162785714Y-96904761D01*
X162642857Y-96952380D01*
X162547619Y-96952380D01*
X162404761Y-96904761D01*
X162309523Y-96809523D01*
X162261904Y-96714285D01*
X162214285Y-96523809D01*
X162214285Y-96380952D01*
X162261904Y-96190476D01*
X162309523Y-96095238D01*
X162404761Y-96000000D01*
X162547619Y-95952380D01*
X162642857Y-95952380D01*
X162785714Y-96000000D01*
X162833333Y-96047619D01*
X163785714Y-96952380D02*
X163214285Y-96952380D01*
X163500000Y-96952380D02*
X163500000Y-95952380D01*
X163404761Y-96095238D01*
X163309523Y-96190476D01*
X163214285Y-96238095D01*
%TO.C,R5*%
X164952380Y-103166666D02*
X164476190Y-103500000D01*
X164952380Y-103738095D02*
X163952380Y-103738095D01*
X163952380Y-103357142D01*
X164000000Y-103261904D01*
X164047619Y-103214285D01*
X164142857Y-103166666D01*
X164285714Y-103166666D01*
X164380952Y-103214285D01*
X164428571Y-103261904D01*
X164476190Y-103357142D01*
X164476190Y-103738095D01*
X163952380Y-102261904D02*
X163952380Y-102738095D01*
X164428571Y-102785714D01*
X164380952Y-102738095D01*
X164333333Y-102642857D01*
X164333333Y-102404761D01*
X164380952Y-102309523D01*
X164428571Y-102261904D01*
X164523809Y-102214285D01*
X164761904Y-102214285D01*
X164857142Y-102261904D01*
X164904761Y-102309523D01*
X164952380Y-102404761D01*
X164952380Y-102642857D01*
X164904761Y-102738095D01*
X164857142Y-102785714D01*
%TO.C,SW1*%
X179824761Y-101333333D02*
X179872380Y-101190476D01*
X179872380Y-100952380D01*
X179824761Y-100857142D01*
X179777142Y-100809523D01*
X179681904Y-100761904D01*
X179586666Y-100761904D01*
X179491428Y-100809523D01*
X179443809Y-100857142D01*
X179396190Y-100952380D01*
X179348571Y-101142857D01*
X179300952Y-101238095D01*
X179253333Y-101285714D01*
X179158095Y-101333333D01*
X179062857Y-101333333D01*
X178967619Y-101285714D01*
X178920000Y-101238095D01*
X178872380Y-101142857D01*
X178872380Y-100904761D01*
X178920000Y-100761904D01*
X178872380Y-100428571D02*
X179872380Y-100190476D01*
X179158095Y-100000000D01*
X179872380Y-99809523D01*
X178872380Y-99571428D01*
X179872380Y-98666666D02*
X179872380Y-99238095D01*
X179872380Y-98952380D02*
X178872380Y-98952380D01*
X179015238Y-99047619D01*
X179110476Y-99142857D01*
X179158095Y-99238095D01*
%TO.C,R1*%
X176952380Y-111666666D02*
X176476190Y-112000000D01*
X176952380Y-112238095D02*
X175952380Y-112238095D01*
X175952380Y-111857142D01*
X176000000Y-111761904D01*
X176047619Y-111714285D01*
X176142857Y-111666666D01*
X176285714Y-111666666D01*
X176380952Y-111714285D01*
X176428571Y-111761904D01*
X176476190Y-111857142D01*
X176476190Y-112238095D01*
X176952380Y-110714285D02*
X176952380Y-111285714D01*
X176952380Y-111000000D02*
X175952380Y-111000000D01*
X176095238Y-111095238D01*
X176190476Y-111190476D01*
X176238095Y-111285714D01*
%TO.C,R2*%
X174285712Y-111754166D02*
X173809522Y-112087500D01*
X174285712Y-112325595D02*
X173285712Y-112325595D01*
X173285712Y-111944642D01*
X173333332Y-111849404D01*
X173380951Y-111801785D01*
X173476189Y-111754166D01*
X173619046Y-111754166D01*
X173714284Y-111801785D01*
X173761903Y-111849404D01*
X173809522Y-111944642D01*
X173809522Y-112325595D01*
X173380951Y-111373214D02*
X173333332Y-111325595D01*
X173285712Y-111230357D01*
X173285712Y-110992261D01*
X173333332Y-110897023D01*
X173380951Y-110849404D01*
X173476189Y-110801785D01*
X173571427Y-110801785D01*
X173714284Y-110849404D01*
X174285712Y-111420833D01*
X174285712Y-110801785D01*
%TO.C,R3*%
X171619046Y-111754166D02*
X171142856Y-112087500D01*
X171619046Y-112325595D02*
X170619046Y-112325595D01*
X170619046Y-111944642D01*
X170666666Y-111849404D01*
X170714285Y-111801785D01*
X170809523Y-111754166D01*
X170952380Y-111754166D01*
X171047618Y-111801785D01*
X171095237Y-111849404D01*
X171142856Y-111944642D01*
X171142856Y-112325595D01*
X170619046Y-111420833D02*
X170619046Y-110801785D01*
X170999999Y-111135119D01*
X170999999Y-110992261D01*
X171047618Y-110897023D01*
X171095237Y-110849404D01*
X171190475Y-110801785D01*
X171428570Y-110801785D01*
X171523808Y-110849404D01*
X171571427Y-110897023D01*
X171619046Y-110992261D01*
X171619046Y-111277976D01*
X171571427Y-111373214D01*
X171523808Y-111420833D01*
%TO.C,R4*%
X168952380Y-111666666D02*
X168476190Y-112000000D01*
X168952380Y-112238095D02*
X167952380Y-112238095D01*
X167952380Y-111857142D01*
X168000000Y-111761904D01*
X168047619Y-111714285D01*
X168142857Y-111666666D01*
X168285714Y-111666666D01*
X168380952Y-111714285D01*
X168428571Y-111761904D01*
X168476190Y-111857142D01*
X168476190Y-112238095D01*
X168285714Y-110809523D02*
X168952380Y-110809523D01*
X167904761Y-111047619D02*
X168619047Y-111285714D01*
X168619047Y-110666666D01*
%TO.C,J18*%
X145811904Y-89784523D02*
X145811904Y-90391666D01*
X145771428Y-90513095D01*
X145690476Y-90594047D01*
X145569047Y-90634523D01*
X145488095Y-90634523D01*
X146661904Y-90634523D02*
X146176190Y-90634523D01*
X146419047Y-90634523D02*
X146419047Y-89784523D01*
X146338095Y-89905952D01*
X146257142Y-89986904D01*
X146176190Y-90027380D01*
X147147619Y-90148809D02*
X147066666Y-90108333D01*
X147026190Y-90067857D01*
X146985714Y-89986904D01*
X146985714Y-89946428D01*
X147026190Y-89865476D01*
X147066666Y-89825000D01*
X147147619Y-89784523D01*
X147309523Y-89784523D01*
X147390476Y-89825000D01*
X147430952Y-89865476D01*
X147471428Y-89946428D01*
X147471428Y-89986904D01*
X147430952Y-90067857D01*
X147390476Y-90108333D01*
X147309523Y-90148809D01*
X147147619Y-90148809D01*
X147066666Y-90189285D01*
X147026190Y-90229761D01*
X146985714Y-90310714D01*
X146985714Y-90472619D01*
X147026190Y-90553571D01*
X147066666Y-90594047D01*
X147147619Y-90634523D01*
X147309523Y-90634523D01*
X147390476Y-90594047D01*
X147430952Y-90553571D01*
X147471428Y-90472619D01*
X147471428Y-90310714D01*
X147430952Y-90229761D01*
X147390476Y-90189285D01*
X147309523Y-90148809D01*
%TO.C,J22*%
X148311904Y-117034523D02*
X148311904Y-117641666D01*
X148271428Y-117763095D01*
X148190476Y-117844047D01*
X148069047Y-117884523D01*
X147988095Y-117884523D01*
X148676190Y-117115476D02*
X148716666Y-117075000D01*
X148797619Y-117034523D01*
X149000000Y-117034523D01*
X149080952Y-117075000D01*
X149121428Y-117115476D01*
X149161904Y-117196428D01*
X149161904Y-117277380D01*
X149121428Y-117398809D01*
X148635714Y-117884523D01*
X149161904Y-117884523D01*
X149485714Y-117115476D02*
X149526190Y-117075000D01*
X149607142Y-117034523D01*
X149809523Y-117034523D01*
X149890476Y-117075000D01*
X149930952Y-117115476D01*
X149971428Y-117196428D01*
X149971428Y-117277380D01*
X149930952Y-117398809D01*
X149445238Y-117884523D01*
X149971428Y-117884523D01*
%TO.C,JP6*%
X158534523Y-94208333D02*
X159141666Y-94208333D01*
X159263095Y-94248809D01*
X159344047Y-94329761D01*
X159384523Y-94451190D01*
X159384523Y-94532142D01*
X159384523Y-93803571D02*
X158534523Y-93803571D01*
X158534523Y-93479761D01*
X158575000Y-93398809D01*
X158615476Y-93358333D01*
X158696428Y-93317857D01*
X158817857Y-93317857D01*
X158898809Y-93358333D01*
X158939285Y-93398809D01*
X158979761Y-93479761D01*
X158979761Y-93803571D01*
X158534523Y-92589285D02*
X158534523Y-92751190D01*
X158575000Y-92832142D01*
X158615476Y-92872619D01*
X158736904Y-92953571D01*
X158898809Y-92994047D01*
X159222619Y-92994047D01*
X159303571Y-92953571D01*
X159344047Y-92913095D01*
X159384523Y-92832142D01*
X159384523Y-92670238D01*
X159344047Y-92589285D01*
X159303571Y-92548809D01*
X159222619Y-92508333D01*
X159020238Y-92508333D01*
X158939285Y-92548809D01*
X158898809Y-92589285D01*
X158858333Y-92670238D01*
X158858333Y-92832142D01*
X158898809Y-92913095D01*
X158939285Y-92953571D01*
X159020238Y-92994047D01*
%TO.C,U4*%
X161534523Y-103147619D02*
X162222619Y-103147619D01*
X162303571Y-103107142D01*
X162344047Y-103066666D01*
X162384523Y-102985714D01*
X162384523Y-102823809D01*
X162344047Y-102742857D01*
X162303571Y-102702380D01*
X162222619Y-102661904D01*
X161534523Y-102661904D01*
X161817857Y-101892857D02*
X162384523Y-101892857D01*
X161494047Y-102095238D02*
X162101190Y-102297619D01*
X162101190Y-101771428D01*
%TO.C,R38*%
X155384523Y-94546428D02*
X154979761Y-94829761D01*
X155384523Y-95032142D02*
X154534523Y-95032142D01*
X154534523Y-94708333D01*
X154575000Y-94627380D01*
X154615476Y-94586904D01*
X154696428Y-94546428D01*
X154817857Y-94546428D01*
X154898809Y-94586904D01*
X154939285Y-94627380D01*
X154979761Y-94708333D01*
X154979761Y-95032142D01*
X154534523Y-94263095D02*
X154534523Y-93736904D01*
X154858333Y-94020238D01*
X154858333Y-93898809D01*
X154898809Y-93817857D01*
X154939285Y-93777380D01*
X155020238Y-93736904D01*
X155222619Y-93736904D01*
X155303571Y-93777380D01*
X155344047Y-93817857D01*
X155384523Y-93898809D01*
X155384523Y-94141666D01*
X155344047Y-94222619D01*
X155303571Y-94263095D01*
X154898809Y-93251190D02*
X154858333Y-93332142D01*
X154817857Y-93372619D01*
X154736904Y-93413095D01*
X154696428Y-93413095D01*
X154615476Y-93372619D01*
X154575000Y-93332142D01*
X154534523Y-93251190D01*
X154534523Y-93089285D01*
X154575000Y-93008333D01*
X154615476Y-92967857D01*
X154696428Y-92927380D01*
X154736904Y-92927380D01*
X154817857Y-92967857D01*
X154858333Y-93008333D01*
X154898809Y-93089285D01*
X154898809Y-93251190D01*
X154939285Y-93332142D01*
X154979761Y-93372619D01*
X155060714Y-93413095D01*
X155222619Y-93413095D01*
X155303571Y-93372619D01*
X155344047Y-93332142D01*
X155384523Y-93251190D01*
X155384523Y-93089285D01*
X155344047Y-93008333D01*
X155303571Y-92967857D01*
X155222619Y-92927380D01*
X155060714Y-92927380D01*
X154979761Y-92967857D01*
X154939285Y-93008333D01*
X154898809Y-93089285D01*
%TO.C,R37*%
X152884523Y-98046428D02*
X152479761Y-98329761D01*
X152884523Y-98532142D02*
X152034523Y-98532142D01*
X152034523Y-98208333D01*
X152075000Y-98127380D01*
X152115476Y-98086904D01*
X152196428Y-98046428D01*
X152317857Y-98046428D01*
X152398809Y-98086904D01*
X152439285Y-98127380D01*
X152479761Y-98208333D01*
X152479761Y-98532142D01*
X152034523Y-97763095D02*
X152034523Y-97236904D01*
X152358333Y-97520238D01*
X152358333Y-97398809D01*
X152398809Y-97317857D01*
X152439285Y-97277380D01*
X152520238Y-97236904D01*
X152722619Y-97236904D01*
X152803571Y-97277380D01*
X152844047Y-97317857D01*
X152884523Y-97398809D01*
X152884523Y-97641666D01*
X152844047Y-97722619D01*
X152803571Y-97763095D01*
X152034523Y-96953571D02*
X152034523Y-96386904D01*
X152884523Y-96751190D01*
%TO.C,R36*%
X154884523Y-106333928D02*
X154479761Y-106617261D01*
X154884523Y-106819642D02*
X154034523Y-106819642D01*
X154034523Y-106495833D01*
X154075000Y-106414880D01*
X154115476Y-106374404D01*
X154196428Y-106333928D01*
X154317857Y-106333928D01*
X154398809Y-106374404D01*
X154439285Y-106414880D01*
X154479761Y-106495833D01*
X154479761Y-106819642D01*
X154034523Y-106050595D02*
X154034523Y-105524404D01*
X154358333Y-105807738D01*
X154358333Y-105686309D01*
X154398809Y-105605357D01*
X154439285Y-105564880D01*
X154520238Y-105524404D01*
X154722619Y-105524404D01*
X154803571Y-105564880D01*
X154844047Y-105605357D01*
X154884523Y-105686309D01*
X154884523Y-105929166D01*
X154844047Y-106010119D01*
X154803571Y-106050595D01*
X154034523Y-104795833D02*
X154034523Y-104957738D01*
X154075000Y-105038690D01*
X154115476Y-105079166D01*
X154236904Y-105160119D01*
X154398809Y-105200595D01*
X154722619Y-105200595D01*
X154803571Y-105160119D01*
X154844047Y-105119642D01*
X154884523Y-105038690D01*
X154884523Y-104876785D01*
X154844047Y-104795833D01*
X154803571Y-104755357D01*
X154722619Y-104714880D01*
X154520238Y-104714880D01*
X154439285Y-104755357D01*
X154398809Y-104795833D01*
X154358333Y-104876785D01*
X154358333Y-105038690D01*
X154398809Y-105119642D01*
X154439285Y-105160119D01*
X154520238Y-105200595D01*
%TO.C,R33*%
X160128571Y-111884523D02*
X159845238Y-111479761D01*
X159642857Y-111884523D02*
X159642857Y-111034523D01*
X159966666Y-111034523D01*
X160047619Y-111075000D01*
X160088095Y-111115476D01*
X160128571Y-111196428D01*
X160128571Y-111317857D01*
X160088095Y-111398809D01*
X160047619Y-111439285D01*
X159966666Y-111479761D01*
X159642857Y-111479761D01*
X160411904Y-111034523D02*
X160938095Y-111034523D01*
X160654761Y-111358333D01*
X160776190Y-111358333D01*
X160857142Y-111398809D01*
X160897619Y-111439285D01*
X160938095Y-111520238D01*
X160938095Y-111722619D01*
X160897619Y-111803571D01*
X160857142Y-111844047D01*
X160776190Y-111884523D01*
X160533333Y-111884523D01*
X160452380Y-111844047D01*
X160411904Y-111803571D01*
X161221428Y-111034523D02*
X161747619Y-111034523D01*
X161464285Y-111358333D01*
X161585714Y-111358333D01*
X161666666Y-111398809D01*
X161707142Y-111439285D01*
X161747619Y-111520238D01*
X161747619Y-111722619D01*
X161707142Y-111803571D01*
X161666666Y-111844047D01*
X161585714Y-111884523D01*
X161342857Y-111884523D01*
X161261904Y-111844047D01*
X161221428Y-111803571D01*
%TO.C,C21*%
X154803571Y-102646428D02*
X154844047Y-102686904D01*
X154884523Y-102808333D01*
X154884523Y-102889285D01*
X154844047Y-103010714D01*
X154763095Y-103091666D01*
X154682142Y-103132142D01*
X154520238Y-103172619D01*
X154398809Y-103172619D01*
X154236904Y-103132142D01*
X154155952Y-103091666D01*
X154075000Y-103010714D01*
X154034523Y-102889285D01*
X154034523Y-102808333D01*
X154075000Y-102686904D01*
X154115476Y-102646428D01*
X154115476Y-102322619D02*
X154075000Y-102282142D01*
X154034523Y-102201190D01*
X154034523Y-101998809D01*
X154075000Y-101917857D01*
X154115476Y-101877380D01*
X154196428Y-101836904D01*
X154277380Y-101836904D01*
X154398809Y-101877380D01*
X154884523Y-102363095D01*
X154884523Y-101836904D01*
X154884523Y-101027380D02*
X154884523Y-101513095D01*
X154884523Y-101270238D02*
X154034523Y-101270238D01*
X154155952Y-101351190D01*
X154236904Y-101432142D01*
X154277380Y-101513095D01*
%TD*%
M02*
