%TF.GenerationSoftware,KiCad,Pcbnew,(5.1.9)-1*%
%TF.CreationDate,2021-10-14T16:01:30-04:00*%
%TF.ProjectId,ModularPreamp,4d6f6475-6c61-4725-9072-65616d702e6b,rev?*%
%TF.SameCoordinates,Original*%
%TF.FileFunction,Soldermask,Bot*%
%TF.FilePolarity,Negative*%
%FSLAX46Y46*%
G04 Gerber Fmt 4.6, Leading zero omitted, Abs format (unit mm)*
G04 Created by KiCad (PCBNEW (5.1.9)-1) date 2021-10-14 16:01:30*
%MOMM*%
%LPD*%
G01*
G04 APERTURE LIST*
%ADD10C,3.200000*%
%ADD11O,1.700000X1.700000*%
%ADD12R,1.700000X1.700000*%
G04 APERTURE END LIST*
D10*
%TO.C,H3*%
X181500000Y-90500000D03*
%TD*%
%TO.C,H2*%
X181500000Y-116500000D03*
%TD*%
%TO.C,H1*%
X148500000Y-94000000D03*
%TD*%
D11*
%TO.C,J1*%
X146500000Y-107500000D03*
X146500000Y-104960000D03*
X146500000Y-102420000D03*
D12*
X146500000Y-99880000D03*
%TD*%
%TO.C,C4*%
G36*
G01*
X175500000Y-91525000D02*
X175500000Y-92475000D01*
G75*
G02*
X175250000Y-92725000I-250000J0D01*
G01*
X174750000Y-92725000D01*
G75*
G02*
X174500000Y-92475000I0J250000D01*
G01*
X174500000Y-91525000D01*
G75*
G02*
X174750000Y-91275000I250000J0D01*
G01*
X175250000Y-91275000D01*
G75*
G02*
X175500000Y-91525000I0J-250000D01*
G01*
G37*
G36*
G01*
X177400000Y-91525000D02*
X177400000Y-92475000D01*
G75*
G02*
X177150000Y-92725000I-250000J0D01*
G01*
X176650000Y-92725000D01*
G75*
G02*
X176400000Y-92475000I0J250000D01*
G01*
X176400000Y-91525000D01*
G75*
G02*
X176650000Y-91275000I250000J0D01*
G01*
X177150000Y-91275000D01*
G75*
G02*
X177400000Y-91525000I0J-250000D01*
G01*
G37*
%TD*%
%TO.C,C2*%
G36*
G01*
X170050000Y-91525000D02*
X170050000Y-92475000D01*
G75*
G02*
X169800000Y-92725000I-250000J0D01*
G01*
X169300000Y-92725000D01*
G75*
G02*
X169050000Y-92475000I0J250000D01*
G01*
X169050000Y-91525000D01*
G75*
G02*
X169300000Y-91275000I250000J0D01*
G01*
X169800000Y-91275000D01*
G75*
G02*
X170050000Y-91525000I0J-250000D01*
G01*
G37*
G36*
G01*
X171950000Y-91525000D02*
X171950000Y-92475000D01*
G75*
G02*
X171700000Y-92725000I-250000J0D01*
G01*
X171200000Y-92725000D01*
G75*
G02*
X170950000Y-92475000I0J250000D01*
G01*
X170950000Y-91525000D01*
G75*
G02*
X171200000Y-91275000I250000J0D01*
G01*
X171700000Y-91275000D01*
G75*
G02*
X171950000Y-91525000I0J-250000D01*
G01*
G37*
%TD*%
D11*
%TO.C,J18*%
X177190000Y-88750000D03*
X174650000Y-88750000D03*
X172110000Y-88750000D03*
X169570000Y-88750000D03*
X167030000Y-88750000D03*
X164490000Y-88750000D03*
X161950000Y-88750000D03*
X159410000Y-88750000D03*
X156870000Y-88750000D03*
X154330000Y-88750000D03*
X151790000Y-88750000D03*
D12*
X149250000Y-88750000D03*
%TD*%
D11*
%TO.C,J22*%
X176940000Y-115000000D03*
X174400000Y-115000000D03*
X171860000Y-115000000D03*
X169320000Y-115000000D03*
X166780000Y-115000000D03*
X164240000Y-115000000D03*
X161700000Y-115000000D03*
X159160000Y-115000000D03*
X156620000Y-115000000D03*
X154080000Y-115000000D03*
X151540000Y-115000000D03*
D12*
X149000000Y-115000000D03*
%TD*%
M02*
