%TF.GenerationSoftware,KiCad,Pcbnew,(5.1.9)-1*%
%TF.CreationDate,2021-10-14T16:01:29-04:00*%
%TF.ProjectId,ModularPreamp,4d6f6475-6c61-4725-9072-65616d702e6b,rev?*%
%TF.SameCoordinates,Original*%
%TF.FileFunction,Copper,L1,Top*%
%TF.FilePolarity,Positive*%
%FSLAX46Y46*%
G04 Gerber Fmt 4.6, Leading zero omitted, Abs format (unit mm)*
G04 Created by KiCad (PCBNEW (5.1.9)-1) date 2021-10-14 16:01:29*
%MOMM*%
%LPD*%
G01*
G04 APERTURE LIST*
%TA.AperFunction,SMDPad,CuDef*%
%ADD10C,0.100000*%
%TD*%
%TA.AperFunction,ComponentPad*%
%ADD11O,1.700000X1.700000*%
%TD*%
%TA.AperFunction,ComponentPad*%
%ADD12R,1.700000X1.700000*%
%TD*%
%TA.AperFunction,SMDPad,CuDef*%
%ADD13R,1.120000X2.440000*%
%TD*%
%TA.AperFunction,SMDPad,CuDef*%
%ADD14R,0.650000X1.060000*%
%TD*%
%TA.AperFunction,ViaPad*%
%ADD15C,0.800000*%
%TD*%
%TA.AperFunction,Conductor*%
%ADD16C,1.000000*%
%TD*%
%TA.AperFunction,Conductor*%
%ADD17C,0.250000*%
%TD*%
%TA.AperFunction,Conductor*%
%ADD18C,0.254000*%
%TD*%
%TA.AperFunction,Conductor*%
%ADD19C,0.100000*%
%TD*%
G04 APERTURE END LIST*
%TA.AperFunction,SMDPad,CuDef*%
D10*
%TO.P,JP1,2*%
%TO.N,Optional_In+*%
G36*
X147400000Y-111000602D02*
G01*
X147424534Y-111000602D01*
X147473365Y-111005412D01*
X147521490Y-111014984D01*
X147568445Y-111029228D01*
X147613778Y-111048005D01*
X147657051Y-111071136D01*
X147697850Y-111098396D01*
X147735779Y-111129524D01*
X147770476Y-111164221D01*
X147801604Y-111202150D01*
X147828864Y-111242949D01*
X147851995Y-111286222D01*
X147870772Y-111331555D01*
X147885016Y-111378510D01*
X147894588Y-111426635D01*
X147899398Y-111475466D01*
X147899398Y-111500000D01*
X147900000Y-111500000D01*
X147900000Y-112000000D01*
X147899398Y-112000000D01*
X147899398Y-112024534D01*
X147894588Y-112073365D01*
X147885016Y-112121490D01*
X147870772Y-112168445D01*
X147851995Y-112213778D01*
X147828864Y-112257051D01*
X147801604Y-112297850D01*
X147770476Y-112335779D01*
X147735779Y-112370476D01*
X147697850Y-112401604D01*
X147657051Y-112428864D01*
X147613778Y-112451995D01*
X147568445Y-112470772D01*
X147521490Y-112485016D01*
X147473365Y-112494588D01*
X147424534Y-112499398D01*
X147400000Y-112499398D01*
X147400000Y-112500000D01*
X146900000Y-112500000D01*
X146900000Y-111000000D01*
X147400000Y-111000000D01*
X147400000Y-111000602D01*
G37*
%TD.AperFunction*%
%TA.AperFunction,SMDPad,CuDef*%
%TO.P,JP1,1*%
%TO.N,GND*%
G36*
X146600000Y-112500000D02*
G01*
X146100000Y-112500000D01*
X146100000Y-112499398D01*
X146075466Y-112499398D01*
X146026635Y-112494588D01*
X145978510Y-112485016D01*
X145931555Y-112470772D01*
X145886222Y-112451995D01*
X145842949Y-112428864D01*
X145802150Y-112401604D01*
X145764221Y-112370476D01*
X145729524Y-112335779D01*
X145698396Y-112297850D01*
X145671136Y-112257051D01*
X145648005Y-112213778D01*
X145629228Y-112168445D01*
X145614984Y-112121490D01*
X145605412Y-112073365D01*
X145600602Y-112024534D01*
X145600602Y-112000000D01*
X145600000Y-112000000D01*
X145600000Y-111500000D01*
X145600602Y-111500000D01*
X145600602Y-111475466D01*
X145605412Y-111426635D01*
X145614984Y-111378510D01*
X145629228Y-111331555D01*
X145648005Y-111286222D01*
X145671136Y-111242949D01*
X145698396Y-111202150D01*
X145729524Y-111164221D01*
X145764221Y-111129524D01*
X145802150Y-111098396D01*
X145842949Y-111071136D01*
X145886222Y-111048005D01*
X145931555Y-111029228D01*
X145978510Y-111014984D01*
X146026635Y-111005412D01*
X146075466Y-111000602D01*
X146100000Y-111000602D01*
X146100000Y-111000000D01*
X146600000Y-111000000D01*
X146600000Y-112500000D01*
G37*
%TD.AperFunction*%
%TD*%
%TO.P,R9,2*%
%TO.N,Net-(D2-Pad1)*%
%TA.AperFunction,SMDPad,CuDef*%
G36*
G01*
X174487500Y-92950002D02*
X174487500Y-92049998D01*
G75*
G02*
X174737498Y-91800000I249998J0D01*
G01*
X175262502Y-91800000D01*
G75*
G02*
X175512500Y-92049998I0J-249998D01*
G01*
X175512500Y-92950002D01*
G75*
G02*
X175262502Y-93200000I-249998J0D01*
G01*
X174737498Y-93200000D01*
G75*
G02*
X174487500Y-92950002I0J249998D01*
G01*
G37*
%TD.AperFunction*%
%TO.P,R9,1*%
%TO.N,-5V*%
%TA.AperFunction,SMDPad,CuDef*%
G36*
G01*
X172662500Y-92950002D02*
X172662500Y-92049998D01*
G75*
G02*
X172912498Y-91800000I249998J0D01*
G01*
X173437502Y-91800000D01*
G75*
G02*
X173687500Y-92049998I0J-249998D01*
G01*
X173687500Y-92950002D01*
G75*
G02*
X173437502Y-93200000I-249998J0D01*
G01*
X172912498Y-93200000D01*
G75*
G02*
X172662500Y-92950002I0J249998D01*
G01*
G37*
%TD.AperFunction*%
%TD*%
%TO.P,R8,2*%
%TO.N,Net-(D1-Pad1)*%
%TA.AperFunction,SMDPad,CuDef*%
G36*
G01*
X164987500Y-92950002D02*
X164987500Y-92049998D01*
G75*
G02*
X165237498Y-91800000I249998J0D01*
G01*
X165762502Y-91800000D01*
G75*
G02*
X166012500Y-92049998I0J-249998D01*
G01*
X166012500Y-92950002D01*
G75*
G02*
X165762502Y-93200000I-249998J0D01*
G01*
X165237498Y-93200000D01*
G75*
G02*
X164987500Y-92950002I0J249998D01*
G01*
G37*
%TD.AperFunction*%
%TO.P,R8,1*%
%TO.N,GND*%
%TA.AperFunction,SMDPad,CuDef*%
G36*
G01*
X163162500Y-92950002D02*
X163162500Y-92049998D01*
G75*
G02*
X163412498Y-91800000I249998J0D01*
G01*
X163937502Y-91800000D01*
G75*
G02*
X164187500Y-92049998I0J-249998D01*
G01*
X164187500Y-92950002D01*
G75*
G02*
X163937502Y-93200000I-249998J0D01*
G01*
X163412498Y-93200000D01*
G75*
G02*
X163162500Y-92950002I0J249998D01*
G01*
G37*
%TD.AperFunction*%
%TD*%
%TO.P,R7,2*%
%TO.N,GND*%
%TA.AperFunction,SMDPad,CuDef*%
G36*
G01*
X151187500Y-110799998D02*
X151187500Y-111700002D01*
G75*
G02*
X150937502Y-111950000I-249998J0D01*
G01*
X150412498Y-111950000D01*
G75*
G02*
X150162500Y-111700002I0J249998D01*
G01*
X150162500Y-110799998D01*
G75*
G02*
X150412498Y-110550000I249998J0D01*
G01*
X150937502Y-110550000D01*
G75*
G02*
X151187500Y-110799998I0J-249998D01*
G01*
G37*
%TD.AperFunction*%
%TO.P,R7,1*%
%TO.N,Net-(R6-Pad1)*%
%TA.AperFunction,SMDPad,CuDef*%
G36*
G01*
X153012500Y-110799998D02*
X153012500Y-111700002D01*
G75*
G02*
X152762502Y-111950000I-249998J0D01*
G01*
X152237498Y-111950000D01*
G75*
G02*
X151987500Y-111700002I0J249998D01*
G01*
X151987500Y-110799998D01*
G75*
G02*
X152237498Y-110550000I249998J0D01*
G01*
X152762502Y-110550000D01*
G75*
G02*
X153012500Y-110799998I0J-249998D01*
G01*
G37*
%TD.AperFunction*%
%TD*%
%TO.P,R6,2*%
%TO.N,Optional_In+*%
%TA.AperFunction,SMDPad,CuDef*%
G36*
G01*
X151012500Y-107299998D02*
X151012500Y-108200002D01*
G75*
G02*
X150762502Y-108450000I-249998J0D01*
G01*
X150237498Y-108450000D01*
G75*
G02*
X149987500Y-108200002I0J249998D01*
G01*
X149987500Y-107299998D01*
G75*
G02*
X150237498Y-107050000I249998J0D01*
G01*
X150762502Y-107050000D01*
G75*
G02*
X151012500Y-107299998I0J-249998D01*
G01*
G37*
%TD.AperFunction*%
%TO.P,R6,1*%
%TO.N,Net-(R6-Pad1)*%
%TA.AperFunction,SMDPad,CuDef*%
G36*
G01*
X152837500Y-107299998D02*
X152837500Y-108200002D01*
G75*
G02*
X152587502Y-108450000I-249998J0D01*
G01*
X152062498Y-108450000D01*
G75*
G02*
X151812500Y-108200002I0J249998D01*
G01*
X151812500Y-107299998D01*
G75*
G02*
X152062498Y-107050000I249998J0D01*
G01*
X152587502Y-107050000D01*
G75*
G02*
X152837500Y-107299998I0J-249998D01*
G01*
G37*
%TD.AperFunction*%
%TD*%
D11*
%TO.P,J1,4*%
%TO.N,GND*%
X146500000Y-107500000D03*
%TO.P,J1,3*%
%TO.N,Optional_In+*%
X146500000Y-104960000D03*
%TO.P,J1,2*%
%TO.N,Sum*%
X146500000Y-102420000D03*
D12*
%TO.P,J1,1*%
%TO.N,GND*%
X146500000Y-99880000D03*
%TD*%
%TO.P,D2,2*%
%TO.N,GND*%
%TA.AperFunction,SMDPad,CuDef*%
G36*
G01*
X182550000Y-98075000D02*
X182550000Y-96925000D01*
G75*
G02*
X182800000Y-96675000I250000J0D01*
G01*
X183900000Y-96675000D01*
G75*
G02*
X184150000Y-96925000I0J-250000D01*
G01*
X184150000Y-98075000D01*
G75*
G02*
X183900000Y-98325000I-250000J0D01*
G01*
X182800000Y-98325000D01*
G75*
G02*
X182550000Y-98075000I0J250000D01*
G01*
G37*
%TD.AperFunction*%
%TO.P,D2,1*%
%TO.N,Net-(D2-Pad1)*%
%TA.AperFunction,SMDPad,CuDef*%
G36*
G01*
X179700000Y-98075000D02*
X179700000Y-96925000D01*
G75*
G02*
X179950000Y-96675000I250000J0D01*
G01*
X181050000Y-96675000D01*
G75*
G02*
X181300000Y-96925000I0J-250000D01*
G01*
X181300000Y-98075000D01*
G75*
G02*
X181050000Y-98325000I-250000J0D01*
G01*
X179950000Y-98325000D01*
G75*
G02*
X179700000Y-98075000I0J250000D01*
G01*
G37*
%TD.AperFunction*%
%TD*%
%TO.P,D1,2*%
%TO.N,+5V*%
%TA.AperFunction,SMDPad,CuDef*%
G36*
G01*
X170125000Y-93075000D02*
X170125000Y-91925000D01*
G75*
G02*
X170375000Y-91675000I250000J0D01*
G01*
X171475000Y-91675000D01*
G75*
G02*
X171725000Y-91925000I0J-250000D01*
G01*
X171725000Y-93075000D01*
G75*
G02*
X171475000Y-93325000I-250000J0D01*
G01*
X170375000Y-93325000D01*
G75*
G02*
X170125000Y-93075000I0J250000D01*
G01*
G37*
%TD.AperFunction*%
%TO.P,D1,1*%
%TO.N,Net-(D1-Pad1)*%
%TA.AperFunction,SMDPad,CuDef*%
G36*
G01*
X167275000Y-93075000D02*
X167275000Y-91925000D01*
G75*
G02*
X167525000Y-91675000I250000J0D01*
G01*
X168625000Y-91675000D01*
G75*
G02*
X168875000Y-91925000I0J-250000D01*
G01*
X168875000Y-93075000D01*
G75*
G02*
X168625000Y-93325000I-250000J0D01*
G01*
X167525000Y-93325000D01*
G75*
G02*
X167275000Y-93075000I0J250000D01*
G01*
G37*
%TD.AperFunction*%
%TD*%
%TO.P,C6,2*%
%TO.N,-5V*%
%TA.AperFunction,SMDPad,CuDef*%
G36*
G01*
X159500000Y-105025000D02*
X159500000Y-105975000D01*
G75*
G02*
X159250000Y-106225000I-250000J0D01*
G01*
X158750000Y-106225000D01*
G75*
G02*
X158500000Y-105975000I0J250000D01*
G01*
X158500000Y-105025000D01*
G75*
G02*
X158750000Y-104775000I250000J0D01*
G01*
X159250000Y-104775000D01*
G75*
G02*
X159500000Y-105025000I0J-250000D01*
G01*
G37*
%TD.AperFunction*%
%TO.P,C6,1*%
%TO.N,GND*%
%TA.AperFunction,SMDPad,CuDef*%
G36*
G01*
X161400000Y-105025000D02*
X161400000Y-105975000D01*
G75*
G02*
X161150000Y-106225000I-250000J0D01*
G01*
X160650000Y-106225000D01*
G75*
G02*
X160400000Y-105975000I0J250000D01*
G01*
X160400000Y-105025000D01*
G75*
G02*
X160650000Y-104775000I250000J0D01*
G01*
X161150000Y-104775000D01*
G75*
G02*
X161400000Y-105025000I0J-250000D01*
G01*
G37*
%TD.AperFunction*%
%TD*%
%TO.P,C5,2*%
%TO.N,-5V*%
%TA.AperFunction,SMDPad,CuDef*%
G36*
G01*
X163050000Y-105025000D02*
X163050000Y-105975000D01*
G75*
G02*
X162800000Y-106225000I-250000J0D01*
G01*
X162300000Y-106225000D01*
G75*
G02*
X162050000Y-105975000I0J250000D01*
G01*
X162050000Y-105025000D01*
G75*
G02*
X162300000Y-104775000I250000J0D01*
G01*
X162800000Y-104775000D01*
G75*
G02*
X163050000Y-105025000I0J-250000D01*
G01*
G37*
%TD.AperFunction*%
%TO.P,C5,1*%
%TO.N,GND*%
%TA.AperFunction,SMDPad,CuDef*%
G36*
G01*
X164950000Y-105025000D02*
X164950000Y-105975000D01*
G75*
G02*
X164700000Y-106225000I-250000J0D01*
G01*
X164200000Y-106225000D01*
G75*
G02*
X163950000Y-105975000I0J250000D01*
G01*
X163950000Y-105025000D01*
G75*
G02*
X164200000Y-104775000I250000J0D01*
G01*
X164700000Y-104775000D01*
G75*
G02*
X164950000Y-105025000I0J-250000D01*
G01*
G37*
%TD.AperFunction*%
%TD*%
%TO.P,C3,2*%
%TO.N,GND*%
%TA.AperFunction,SMDPad,CuDef*%
G36*
G01*
X160500000Y-99475000D02*
X160500000Y-98525000D01*
G75*
G02*
X160750000Y-98275000I250000J0D01*
G01*
X161250000Y-98275000D01*
G75*
G02*
X161500000Y-98525000I0J-250000D01*
G01*
X161500000Y-99475000D01*
G75*
G02*
X161250000Y-99725000I-250000J0D01*
G01*
X160750000Y-99725000D01*
G75*
G02*
X160500000Y-99475000I0J250000D01*
G01*
G37*
%TD.AperFunction*%
%TO.P,C3,1*%
%TO.N,+5V*%
%TA.AperFunction,SMDPad,CuDef*%
G36*
G01*
X158600000Y-99475000D02*
X158600000Y-98525000D01*
G75*
G02*
X158850000Y-98275000I250000J0D01*
G01*
X159350000Y-98275000D01*
G75*
G02*
X159600000Y-98525000I0J-250000D01*
G01*
X159600000Y-99475000D01*
G75*
G02*
X159350000Y-99725000I-250000J0D01*
G01*
X158850000Y-99725000D01*
G75*
G02*
X158600000Y-99475000I0J250000D01*
G01*
G37*
%TD.AperFunction*%
%TD*%
%TO.P,C1,2*%
%TO.N,GND*%
%TA.AperFunction,SMDPad,CuDef*%
G36*
G01*
X160450000Y-96975000D02*
X160450000Y-96025000D01*
G75*
G02*
X160700000Y-95775000I250000J0D01*
G01*
X161200000Y-95775000D01*
G75*
G02*
X161450000Y-96025000I0J-250000D01*
G01*
X161450000Y-96975000D01*
G75*
G02*
X161200000Y-97225000I-250000J0D01*
G01*
X160700000Y-97225000D01*
G75*
G02*
X160450000Y-96975000I0J250000D01*
G01*
G37*
%TD.AperFunction*%
%TO.P,C1,1*%
%TO.N,+5V*%
%TA.AperFunction,SMDPad,CuDef*%
G36*
G01*
X158550000Y-96975000D02*
X158550000Y-96025000D01*
G75*
G02*
X158800000Y-95775000I250000J0D01*
G01*
X159300000Y-95775000D01*
G75*
G02*
X159550000Y-96025000I0J-250000D01*
G01*
X159550000Y-96975000D01*
G75*
G02*
X159300000Y-97225000I-250000J0D01*
G01*
X158800000Y-97225000D01*
G75*
G02*
X158550000Y-96975000I0J250000D01*
G01*
G37*
%TD.AperFunction*%
%TD*%
%TO.P,R5,2*%
%TO.N,Net-(R33-Pad1)*%
%TA.AperFunction,SMDPad,CuDef*%
G36*
G01*
X164950002Y-100100000D02*
X164049998Y-100100000D01*
G75*
G02*
X163800000Y-99850002I0J249998D01*
G01*
X163800000Y-99324998D01*
G75*
G02*
X164049998Y-99075000I249998J0D01*
G01*
X164950002Y-99075000D01*
G75*
G02*
X165200000Y-99324998I0J-249998D01*
G01*
X165200000Y-99850002D01*
G75*
G02*
X164950002Y-100100000I-249998J0D01*
G01*
G37*
%TD.AperFunction*%
%TO.P,R5,1*%
%TO.N,Net-(R1-Pad1)*%
%TA.AperFunction,SMDPad,CuDef*%
G36*
G01*
X164950002Y-101925000D02*
X164049998Y-101925000D01*
G75*
G02*
X163800000Y-101675002I0J249998D01*
G01*
X163800000Y-101149998D01*
G75*
G02*
X164049998Y-100900000I249998J0D01*
G01*
X164950002Y-100900000D01*
G75*
G02*
X165200000Y-101149998I0J-249998D01*
G01*
X165200000Y-101675002D01*
G75*
G02*
X164950002Y-101925000I-249998J0D01*
G01*
G37*
%TD.AperFunction*%
%TD*%
D13*
%TO.P,SW1,8*%
%TO.N,Net-(R1-Pad2)*%
X176310000Y-104305000D03*
%TO.P,SW1,4*%
%TO.N,Net-(R33-Pad1)*%
X168690000Y-95695000D03*
%TO.P,SW1,7*%
%TO.N,Net-(R2-Pad2)*%
X173770000Y-104305000D03*
%TO.P,SW1,3*%
%TO.N,Net-(R33-Pad1)*%
X171230000Y-95695000D03*
%TO.P,SW1,6*%
%TO.N,Net-(R3-Pad2)*%
X171230000Y-104305000D03*
%TO.P,SW1,2*%
%TO.N,Net-(R33-Pad1)*%
X173770000Y-95695000D03*
%TO.P,SW1,5*%
%TO.N,Net-(R4-Pad2)*%
X168690000Y-104305000D03*
%TO.P,SW1,1*%
%TO.N,Net-(R33-Pad1)*%
X176310000Y-95695000D03*
%TD*%
%TO.P,R1,2*%
%TO.N,Net-(R1-Pad2)*%
%TA.AperFunction,SMDPad,CuDef*%
G36*
G01*
X176950002Y-108100000D02*
X176049998Y-108100000D01*
G75*
G02*
X175800000Y-107850002I0J249998D01*
G01*
X175800000Y-107324998D01*
G75*
G02*
X176049998Y-107075000I249998J0D01*
G01*
X176950002Y-107075000D01*
G75*
G02*
X177200000Y-107324998I0J-249998D01*
G01*
X177200000Y-107850002D01*
G75*
G02*
X176950002Y-108100000I-249998J0D01*
G01*
G37*
%TD.AperFunction*%
%TO.P,R1,1*%
%TO.N,Net-(R1-Pad1)*%
%TA.AperFunction,SMDPad,CuDef*%
G36*
G01*
X176950002Y-109925000D02*
X176049998Y-109925000D01*
G75*
G02*
X175800000Y-109675002I0J249998D01*
G01*
X175800000Y-109149998D01*
G75*
G02*
X176049998Y-108900000I249998J0D01*
G01*
X176950002Y-108900000D01*
G75*
G02*
X177200000Y-109149998I0J-249998D01*
G01*
X177200000Y-109675002D01*
G75*
G02*
X176950002Y-109925000I-249998J0D01*
G01*
G37*
%TD.AperFunction*%
%TD*%
%TO.P,R2,2*%
%TO.N,Net-(R2-Pad2)*%
%TA.AperFunction,SMDPad,CuDef*%
G36*
G01*
X174283334Y-108100000D02*
X173383330Y-108100000D01*
G75*
G02*
X173133332Y-107850002I0J249998D01*
G01*
X173133332Y-107324998D01*
G75*
G02*
X173383330Y-107075000I249998J0D01*
G01*
X174283334Y-107075000D01*
G75*
G02*
X174533332Y-107324998I0J-249998D01*
G01*
X174533332Y-107850002D01*
G75*
G02*
X174283334Y-108100000I-249998J0D01*
G01*
G37*
%TD.AperFunction*%
%TO.P,R2,1*%
%TO.N,Net-(R1-Pad1)*%
%TA.AperFunction,SMDPad,CuDef*%
G36*
G01*
X174283334Y-109925000D02*
X173383330Y-109925000D01*
G75*
G02*
X173133332Y-109675002I0J249998D01*
G01*
X173133332Y-109149998D01*
G75*
G02*
X173383330Y-108900000I249998J0D01*
G01*
X174283334Y-108900000D01*
G75*
G02*
X174533332Y-109149998I0J-249998D01*
G01*
X174533332Y-109675002D01*
G75*
G02*
X174283334Y-109925000I-249998J0D01*
G01*
G37*
%TD.AperFunction*%
%TD*%
%TO.P,R3,2*%
%TO.N,Net-(R3-Pad2)*%
%TA.AperFunction,SMDPad,CuDef*%
G36*
G01*
X171616668Y-108100000D02*
X170716664Y-108100000D01*
G75*
G02*
X170466666Y-107850002I0J249998D01*
G01*
X170466666Y-107324998D01*
G75*
G02*
X170716664Y-107075000I249998J0D01*
G01*
X171616668Y-107075000D01*
G75*
G02*
X171866666Y-107324998I0J-249998D01*
G01*
X171866666Y-107850002D01*
G75*
G02*
X171616668Y-108100000I-249998J0D01*
G01*
G37*
%TD.AperFunction*%
%TO.P,R3,1*%
%TO.N,Net-(R1-Pad1)*%
%TA.AperFunction,SMDPad,CuDef*%
G36*
G01*
X171616668Y-109925000D02*
X170716664Y-109925000D01*
G75*
G02*
X170466666Y-109675002I0J249998D01*
G01*
X170466666Y-109149998D01*
G75*
G02*
X170716664Y-108900000I249998J0D01*
G01*
X171616668Y-108900000D01*
G75*
G02*
X171866666Y-109149998I0J-249998D01*
G01*
X171866666Y-109675002D01*
G75*
G02*
X171616668Y-109925000I-249998J0D01*
G01*
G37*
%TD.AperFunction*%
%TD*%
%TO.P,R4,2*%
%TO.N,Net-(R4-Pad2)*%
%TA.AperFunction,SMDPad,CuDef*%
G36*
G01*
X168950002Y-108100000D02*
X168049998Y-108100000D01*
G75*
G02*
X167800000Y-107850002I0J249998D01*
G01*
X167800000Y-107324998D01*
G75*
G02*
X168049998Y-107075000I249998J0D01*
G01*
X168950002Y-107075000D01*
G75*
G02*
X169200000Y-107324998I0J-249998D01*
G01*
X169200000Y-107850002D01*
G75*
G02*
X168950002Y-108100000I-249998J0D01*
G01*
G37*
%TD.AperFunction*%
%TO.P,R4,1*%
%TO.N,Net-(R1-Pad1)*%
%TA.AperFunction,SMDPad,CuDef*%
G36*
G01*
X168950002Y-109925000D02*
X168049998Y-109925000D01*
G75*
G02*
X167800000Y-109675002I0J249998D01*
G01*
X167800000Y-109149998D01*
G75*
G02*
X168049998Y-108900000I249998J0D01*
G01*
X168950002Y-108900000D01*
G75*
G02*
X169200000Y-109149998I0J-249998D01*
G01*
X169200000Y-109675002D01*
G75*
G02*
X168950002Y-109925000I-249998J0D01*
G01*
G37*
%TD.AperFunction*%
%TD*%
D11*
%TO.P,J18,12*%
%TO.N,GND*%
X177190000Y-88750000D03*
%TO.P,J18,11*%
%TO.N,-5V*%
X174650000Y-88750000D03*
%TO.P,J18,10*%
%TO.N,+5V*%
X172110000Y-88750000D03*
%TO.P,J18,9*%
%TO.N,GND*%
X169570000Y-88750000D03*
%TO.P,J18,8*%
X167030000Y-88750000D03*
%TO.P,J18,7*%
X164490000Y-88750000D03*
%TO.P,J18,6*%
X161950000Y-88750000D03*
%TO.P,J18,5*%
X159410000Y-88750000D03*
%TO.P,J18,4*%
%TO.N,SumOut*%
X156870000Y-88750000D03*
%TO.P,J18,3*%
%TO.N,GND*%
X154330000Y-88750000D03*
%TO.P,J18,2*%
X151790000Y-88750000D03*
D12*
%TO.P,J18,1*%
X149250000Y-88750000D03*
%TD*%
D11*
%TO.P,J22,12*%
%TO.N,GND*%
X176940000Y-115000000D03*
%TO.P,J22,11*%
X174400000Y-115000000D03*
%TO.P,J22,10*%
X171860000Y-115000000D03*
%TO.P,J22,9*%
X169320000Y-115000000D03*
%TO.P,J22,8*%
X166780000Y-115000000D03*
%TO.P,J22,7*%
X164240000Y-115000000D03*
%TO.P,J22,6*%
X161700000Y-115000000D03*
%TO.P,J22,5*%
X159160000Y-115000000D03*
%TO.P,J22,4*%
X156620000Y-115000000D03*
%TO.P,J22,3*%
X154080000Y-115000000D03*
%TO.P,J22,2*%
X151540000Y-115000000D03*
D12*
%TO.P,J22,1*%
X149000000Y-115000000D03*
%TD*%
%TA.AperFunction,SMDPad,CuDef*%
D10*
%TO.P,JP6,2*%
%TO.N,SumOut*%
G36*
X156200602Y-92800000D02*
G01*
X156200602Y-92775466D01*
X156205412Y-92726635D01*
X156214984Y-92678510D01*
X156229228Y-92631555D01*
X156248005Y-92586222D01*
X156271136Y-92542949D01*
X156298396Y-92502150D01*
X156329524Y-92464221D01*
X156364221Y-92429524D01*
X156402150Y-92398396D01*
X156442949Y-92371136D01*
X156486222Y-92348005D01*
X156531555Y-92329228D01*
X156578510Y-92314984D01*
X156626635Y-92305412D01*
X156675466Y-92300602D01*
X156700000Y-92300602D01*
X156700000Y-92300000D01*
X157200000Y-92300000D01*
X157200000Y-92300602D01*
X157224534Y-92300602D01*
X157273365Y-92305412D01*
X157321490Y-92314984D01*
X157368445Y-92329228D01*
X157413778Y-92348005D01*
X157457051Y-92371136D01*
X157497850Y-92398396D01*
X157535779Y-92429524D01*
X157570476Y-92464221D01*
X157601604Y-92502150D01*
X157628864Y-92542949D01*
X157651995Y-92586222D01*
X157670772Y-92631555D01*
X157685016Y-92678510D01*
X157694588Y-92726635D01*
X157699398Y-92775466D01*
X157699398Y-92800000D01*
X157700000Y-92800000D01*
X157700000Y-93300000D01*
X156200000Y-93300000D01*
X156200000Y-92800000D01*
X156200602Y-92800000D01*
G37*
%TD.AperFunction*%
%TA.AperFunction,SMDPad,CuDef*%
%TO.P,JP6,1*%
%TO.N,Net-(JP6-Pad1)*%
G36*
X157700000Y-93600000D02*
G01*
X157700000Y-94100000D01*
X157699398Y-94100000D01*
X157699398Y-94124534D01*
X157694588Y-94173365D01*
X157685016Y-94221490D01*
X157670772Y-94268445D01*
X157651995Y-94313778D01*
X157628864Y-94357051D01*
X157601604Y-94397850D01*
X157570476Y-94435779D01*
X157535779Y-94470476D01*
X157497850Y-94501604D01*
X157457051Y-94528864D01*
X157413778Y-94551995D01*
X157368445Y-94570772D01*
X157321490Y-94585016D01*
X157273365Y-94594588D01*
X157224534Y-94599398D01*
X157200000Y-94599398D01*
X157200000Y-94600000D01*
X156700000Y-94600000D01*
X156700000Y-94599398D01*
X156675466Y-94599398D01*
X156626635Y-94594588D01*
X156578510Y-94585016D01*
X156531555Y-94570772D01*
X156486222Y-94551995D01*
X156442949Y-94528864D01*
X156402150Y-94501604D01*
X156364221Y-94470476D01*
X156329524Y-94435779D01*
X156298396Y-94397850D01*
X156271136Y-94357051D01*
X156248005Y-94313778D01*
X156229228Y-94268445D01*
X156214984Y-94221490D01*
X156205412Y-94173365D01*
X156200602Y-94124534D01*
X156200602Y-94100000D01*
X156200000Y-94100000D01*
X156200000Y-93600000D01*
X157700000Y-93600000D01*
G37*
%TD.AperFunction*%
%TD*%
D14*
%TO.P,U4,5*%
%TO.N,+5V*%
X158550000Y-101200000D03*
%TO.P,U4,4*%
%TO.N,Net-(R33-Pad1)*%
X160450000Y-101200000D03*
%TO.P,U4,3*%
%TO.N,Net-(R6-Pad1)*%
X160450000Y-103400000D03*
%TO.P,U4,2*%
%TO.N,-5V*%
X159500000Y-103400000D03*
%TO.P,U4,1*%
%TO.N,Net-(R1-Pad1)*%
X158550000Y-103400000D03*
%TD*%
%TO.P,R38,2*%
%TO.N,Net-(C21-Pad1)*%
%TA.AperFunction,SMDPad,CuDef*%
G36*
G01*
X156349998Y-97987500D02*
X157250002Y-97987500D01*
G75*
G02*
X157500000Y-98237498I0J-249998D01*
G01*
X157500000Y-98762502D01*
G75*
G02*
X157250002Y-99012500I-249998J0D01*
G01*
X156349998Y-99012500D01*
G75*
G02*
X156100000Y-98762502I0J249998D01*
G01*
X156100000Y-98237498D01*
G75*
G02*
X156349998Y-97987500I249998J0D01*
G01*
G37*
%TD.AperFunction*%
%TO.P,R38,1*%
%TO.N,Net-(JP6-Pad1)*%
%TA.AperFunction,SMDPad,CuDef*%
G36*
G01*
X156349998Y-96162500D02*
X157250002Y-96162500D01*
G75*
G02*
X157500000Y-96412498I0J-249998D01*
G01*
X157500000Y-96937502D01*
G75*
G02*
X157250002Y-97187500I-249998J0D01*
G01*
X156349998Y-97187500D01*
G75*
G02*
X156100000Y-96937502I0J249998D01*
G01*
X156100000Y-96412498D01*
G75*
G02*
X156349998Y-96162500I249998J0D01*
G01*
G37*
%TD.AperFunction*%
%TD*%
%TO.P,R37,2*%
%TO.N,Net-(C21-Pad1)*%
%TA.AperFunction,SMDPad,CuDef*%
G36*
G01*
X154049998Y-97900000D02*
X154950002Y-97900000D01*
G75*
G02*
X155200000Y-98149998I0J-249998D01*
G01*
X155200000Y-98675002D01*
G75*
G02*
X154950002Y-98925000I-249998J0D01*
G01*
X154049998Y-98925000D01*
G75*
G02*
X153800000Y-98675002I0J249998D01*
G01*
X153800000Y-98149998D01*
G75*
G02*
X154049998Y-97900000I249998J0D01*
G01*
G37*
%TD.AperFunction*%
%TO.P,R37,1*%
%TO.N,GND*%
%TA.AperFunction,SMDPad,CuDef*%
G36*
G01*
X154049998Y-96075000D02*
X154950002Y-96075000D01*
G75*
G02*
X155200000Y-96324998I0J-249998D01*
G01*
X155200000Y-96850002D01*
G75*
G02*
X154950002Y-97100000I-249998J0D01*
G01*
X154049998Y-97100000D01*
G75*
G02*
X153800000Y-96850002I0J249998D01*
G01*
X153800000Y-96324998D01*
G75*
G02*
X154049998Y-96075000I249998J0D01*
G01*
G37*
%TD.AperFunction*%
%TD*%
%TO.P,R36,2*%
%TO.N,Net-(R1-Pad1)*%
%TA.AperFunction,SMDPad,CuDef*%
G36*
G01*
X155849998Y-106187500D02*
X156750002Y-106187500D01*
G75*
G02*
X157000000Y-106437498I0J-249998D01*
G01*
X157000000Y-106962502D01*
G75*
G02*
X156750002Y-107212500I-249998J0D01*
G01*
X155849998Y-107212500D01*
G75*
G02*
X155600000Y-106962502I0J249998D01*
G01*
X155600000Y-106437498D01*
G75*
G02*
X155849998Y-106187500I249998J0D01*
G01*
G37*
%TD.AperFunction*%
%TO.P,R36,1*%
%TO.N,Net-(C21-Pad2)*%
%TA.AperFunction,SMDPad,CuDef*%
G36*
G01*
X155849998Y-104362500D02*
X156750002Y-104362500D01*
G75*
G02*
X157000000Y-104612498I0J-249998D01*
G01*
X157000000Y-105137502D01*
G75*
G02*
X156750002Y-105387500I-249998J0D01*
G01*
X155849998Y-105387500D01*
G75*
G02*
X155600000Y-105137502I0J249998D01*
G01*
X155600000Y-104612498D01*
G75*
G02*
X155849998Y-104362500I249998J0D01*
G01*
G37*
%TD.AperFunction*%
%TD*%
%TO.P,R33,2*%
%TO.N,Sum*%
%TA.AperFunction,SMDPad,CuDef*%
G36*
G01*
X157187500Y-111049998D02*
X157187500Y-111950002D01*
G75*
G02*
X156937502Y-112200000I-249998J0D01*
G01*
X156412498Y-112200000D01*
G75*
G02*
X156162500Y-111950002I0J249998D01*
G01*
X156162500Y-111049998D01*
G75*
G02*
X156412498Y-110800000I249998J0D01*
G01*
X156937502Y-110800000D01*
G75*
G02*
X157187500Y-111049998I0J-249998D01*
G01*
G37*
%TD.AperFunction*%
%TO.P,R33,1*%
%TO.N,Net-(R33-Pad1)*%
%TA.AperFunction,SMDPad,CuDef*%
G36*
G01*
X159012500Y-111049998D02*
X159012500Y-111950002D01*
G75*
G02*
X158762502Y-112200000I-249998J0D01*
G01*
X158237498Y-112200000D01*
G75*
G02*
X157987500Y-111950002I0J249998D01*
G01*
X157987500Y-111049998D01*
G75*
G02*
X158237498Y-110800000I249998J0D01*
G01*
X158762502Y-110800000D01*
G75*
G02*
X159012500Y-111049998I0J-249998D01*
G01*
G37*
%TD.AperFunction*%
%TD*%
%TO.P,C21,2*%
%TO.N,Net-(C21-Pad2)*%
%TA.AperFunction,SMDPad,CuDef*%
G36*
G01*
X155825000Y-102600000D02*
X156775000Y-102600000D01*
G75*
G02*
X157025000Y-102850000I0J-250000D01*
G01*
X157025000Y-103350000D01*
G75*
G02*
X156775000Y-103600000I-250000J0D01*
G01*
X155825000Y-103600000D01*
G75*
G02*
X155575000Y-103350000I0J250000D01*
G01*
X155575000Y-102850000D01*
G75*
G02*
X155825000Y-102600000I250000J0D01*
G01*
G37*
%TD.AperFunction*%
%TO.P,C21,1*%
%TO.N,Net-(C21-Pad1)*%
%TA.AperFunction,SMDPad,CuDef*%
G36*
G01*
X155825000Y-100700000D02*
X156775000Y-100700000D01*
G75*
G02*
X157025000Y-100950000I0J-250000D01*
G01*
X157025000Y-101450000D01*
G75*
G02*
X156775000Y-101700000I-250000J0D01*
G01*
X155825000Y-101700000D01*
G75*
G02*
X155575000Y-101450000I0J250000D01*
G01*
X155575000Y-100950000D01*
G75*
G02*
X155825000Y-100700000I250000J0D01*
G01*
G37*
%TD.AperFunction*%
%TD*%
D15*
%TO.N,GND*%
X155500000Y-91000000D03*
X158500000Y-91000000D03*
X155000000Y-95500000D03*
X147500000Y-97500000D03*
X161250000Y-104500000D03*
X164502497Y-103247659D03*
X164250000Y-106750000D03*
X163250000Y-94000000D03*
X162000000Y-96250000D03*
X150000000Y-104000000D03*
X152500000Y-105000000D03*
X155250000Y-108500000D03*
X159500000Y-109250000D03*
X156000000Y-110000000D03*
X154000000Y-112000000D03*
X165500000Y-109250000D03*
X163500000Y-109250000D03*
X167250000Y-105750000D03*
X177750000Y-111250000D03*
X175000000Y-111250000D03*
X172500000Y-111250000D03*
X169500000Y-111250000D03*
X161000000Y-90750000D03*
X162500000Y-98750000D03*
X164000000Y-95750000D03*
X161250000Y-102500000D03*
X158750000Y-93250000D03*
X166500000Y-94250000D03*
X161500000Y-94750000D03*
X172000000Y-101500000D03*
X176000000Y-101500000D03*
X174000000Y-101500000D03*
X172000000Y-98250000D03*
X174000000Y-98250000D03*
X176000000Y-98250000D03*
X168000000Y-98250000D03*
X166000000Y-98250000D03*
X170000000Y-98250000D03*
X168750000Y-101500000D03*
X166750000Y-101500000D03*
X170750000Y-101500000D03*
X149250000Y-100750000D03*
X153250000Y-100750000D03*
X151250000Y-100750000D03*
X183000000Y-110000000D03*
X183000000Y-105000000D03*
X183000000Y-100000000D03*
X183000000Y-95000000D03*
X181000000Y-110000000D03*
X181000000Y-105000000D03*
X181000000Y-100000000D03*
X181000000Y-95000000D03*
%TO.N,-5V*%
X159000000Y-106500000D03*
%TO.N,Net-(R33-Pad1)*%
X162500000Y-102000000D03*
X161500000Y-109500000D03*
%TO.N,Net-(R6-Pad1)*%
X152250000Y-106750000D03*
X154277825Y-103472175D03*
%TD*%
D16*
%TO.N,GND*%
X161000000Y-96550000D02*
X160950000Y-96500000D01*
X161000000Y-99000000D02*
X161000000Y-96550000D01*
D17*
X160900000Y-104850000D02*
X161250000Y-104500000D01*
X160900000Y-105500000D02*
X160900000Y-104850000D01*
X164525019Y-103270181D02*
X164502497Y-103247659D01*
X164525019Y-105424981D02*
X164525019Y-103270181D01*
X164450000Y-105500000D02*
X164525019Y-105424981D01*
X164450000Y-106550000D02*
X164250000Y-106750000D01*
X164450000Y-105500000D02*
X164450000Y-106550000D01*
X163675000Y-93575000D02*
X163250000Y-94000000D01*
X163675000Y-92500000D02*
X163675000Y-93575000D01*
X161750000Y-96500000D02*
X162000000Y-96250000D01*
X160950000Y-96500000D02*
X161750000Y-96500000D01*
D16*
%TO.N,+5V*%
X171860000Y-88500000D02*
X172110000Y-88750000D01*
X159100000Y-99000000D02*
X158500000Y-99600000D01*
X158500000Y-101150000D02*
X158550000Y-101200000D01*
X158500000Y-99600000D02*
X158500000Y-101150000D01*
X159100000Y-96550000D02*
X159050000Y-96500000D01*
X159100000Y-99000000D02*
X159100000Y-96550000D01*
X172110000Y-91315000D02*
X170925000Y-92500000D01*
X159050000Y-95068980D02*
X159050000Y-96500000D01*
X163508980Y-90610000D02*
X159050000Y-95068980D01*
X172110000Y-90610000D02*
X163508980Y-90610000D01*
X172110000Y-88750000D02*
X172110000Y-90610000D01*
X172110000Y-90610000D02*
X172110000Y-91315000D01*
%TO.N,-5V*%
X174400000Y-88500000D02*
X174650000Y-88750000D01*
X173310009Y-92364991D02*
X173310009Y-92189991D01*
X173175000Y-92500000D02*
X173310009Y-92364991D01*
X173787490Y-89612510D02*
X174650000Y-88750000D01*
X173787490Y-91712510D02*
X173787490Y-89612510D01*
X173310009Y-92189991D02*
X173787490Y-91712510D01*
D17*
X159500000Y-105000000D02*
X159500000Y-103400000D01*
X159000000Y-105500000D02*
X159500000Y-105000000D01*
X160050010Y-106550010D02*
X159000000Y-105500000D01*
X161499990Y-106550010D02*
X160050010Y-106550010D01*
X162550000Y-105500000D02*
X161499990Y-106550010D01*
D16*
X159000000Y-106500000D02*
X159000000Y-105500000D01*
%TO.N,Sum*%
X155500000Y-111500000D02*
X156675000Y-111500000D01*
X154000000Y-104750000D02*
X154000000Y-110000000D01*
X151670000Y-102420000D02*
X154000000Y-104750000D01*
X154000000Y-110000000D02*
X155500000Y-111500000D01*
X146500000Y-102420000D02*
X151670000Y-102420000D01*
D17*
%TO.N,Net-(C21-Pad2)*%
X156300000Y-104875000D02*
X156300000Y-103100000D01*
%TO.N,Net-(C21-Pad1)*%
X156300000Y-99000000D02*
X156800000Y-98500000D01*
X156300000Y-101200000D02*
X156300000Y-99000000D01*
X154587500Y-98500000D02*
X154500000Y-98412500D01*
X156800000Y-98500000D02*
X154587500Y-98500000D01*
D16*
%TO.N,SumOut*%
X156950000Y-88830000D02*
X156870000Y-88750000D01*
X156950000Y-92800000D02*
X156950000Y-88830000D01*
%TO.N,Net-(JP6-Pad1)*%
X156950000Y-96225000D02*
X156800000Y-96375000D01*
X156950000Y-94100000D02*
X156950000Y-96225000D01*
%TO.N,Net-(R1-Pad2)*%
X176500000Y-104495000D02*
X176310000Y-104305000D01*
X176500000Y-107587500D02*
X176500000Y-104495000D01*
D17*
%TO.N,Net-(R1-Pad1)*%
X157300000Y-106700000D02*
X156300000Y-106700000D01*
X157750000Y-106250000D02*
X157300000Y-106700000D01*
X157750000Y-104980000D02*
X157750000Y-106250000D01*
X158550000Y-104180000D02*
X157750000Y-104980000D01*
X158550000Y-103400000D02*
X158550000Y-104180000D01*
D16*
X176500000Y-109412500D02*
X173833332Y-109412500D01*
X173833332Y-109412500D02*
X170587500Y-109412500D01*
X170587500Y-109412500D02*
X168500000Y-109412500D01*
X171166666Y-109412500D02*
X170587500Y-109412500D01*
X165650010Y-102562510D02*
X164500000Y-101412500D01*
X165650010Y-107262510D02*
X165650010Y-102562510D01*
X167800000Y-109412500D02*
X165650010Y-107262510D01*
X168500000Y-109412500D02*
X167800000Y-109412500D01*
X164912520Y-108000000D02*
X165650010Y-107262510D01*
X157600000Y-108000000D02*
X164912520Y-108000000D01*
X156300000Y-106700000D02*
X157600000Y-108000000D01*
%TO.N,Net-(R2-Pad2)*%
X173833332Y-104368332D02*
X173770000Y-104305000D01*
X173833332Y-107587500D02*
X173833332Y-104368332D01*
%TO.N,Net-(R3-Pad2)*%
X171166666Y-104368334D02*
X171230000Y-104305000D01*
X171166666Y-107587500D02*
X171166666Y-104368334D01*
%TO.N,Net-(R4-Pad2)*%
X168690000Y-107397500D02*
X168500000Y-107587500D01*
X168690000Y-104305000D02*
X168690000Y-107397500D01*
%TO.N,Net-(R33-Pad1)*%
X163800000Y-99587500D02*
X164500000Y-99587500D01*
X162500000Y-100887500D02*
X163800000Y-99587500D01*
X162500000Y-102000000D02*
X162500000Y-100887500D01*
X164500000Y-99587500D02*
X164500000Y-97500000D01*
X166305000Y-95695000D02*
X168690000Y-95695000D01*
X164500000Y-97500000D02*
X166305000Y-95695000D01*
X168690000Y-95695000D02*
X171230000Y-95695000D01*
X171230000Y-95695000D02*
X173770000Y-95695000D01*
X176310000Y-95695000D02*
X173770000Y-95695000D01*
X161700000Y-101200000D02*
X162500000Y-102000000D01*
X160450000Y-101200000D02*
X161700000Y-101200000D01*
X158500000Y-111500000D02*
X159500000Y-111500000D01*
X159500000Y-111500000D02*
X161500000Y-109500000D01*
%TO.N,Net-(D1-Pad1)*%
X165500000Y-92500000D02*
X168075000Y-92500000D01*
%TO.N,Net-(D2-Pad1)*%
X177150000Y-92500000D02*
X175000000Y-92500000D01*
X179899999Y-95249999D02*
X177150000Y-92500000D01*
X179899999Y-95528001D02*
X179899999Y-95249999D01*
X180471999Y-96100001D02*
X179899999Y-95528001D01*
X180500000Y-96100001D02*
X180471999Y-96100001D01*
X180500000Y-97500000D02*
X180500000Y-96100001D01*
%TO.N,Optional_In+*%
X148460000Y-104960000D02*
X149000000Y-105500000D01*
X146500000Y-104960000D02*
X148460000Y-104960000D01*
X149500000Y-107750000D02*
X149000000Y-107250000D01*
X150500000Y-107750000D02*
X149500000Y-107750000D01*
X149000000Y-105750000D02*
X149000000Y-107250000D01*
D17*
X149000000Y-105500000D02*
X149000000Y-105750000D01*
D16*
X147400000Y-111750000D02*
X147400000Y-110850000D01*
X149000000Y-109250000D02*
X149000000Y-107250000D01*
X147400000Y-110850000D02*
X149000000Y-109250000D01*
D17*
%TO.N,Net-(R6-Pad1)*%
X152325000Y-111075000D02*
X152500000Y-111250000D01*
X152325000Y-107750000D02*
X152325000Y-111075000D01*
X152325000Y-107750000D02*
X152500000Y-107750000D01*
X160450000Y-102620000D02*
X160104990Y-102274990D01*
X160104990Y-102274990D02*
X155475010Y-102274990D01*
X155475010Y-102274990D02*
X154277825Y-103472175D01*
X160450000Y-103400000D02*
X160450000Y-102620000D01*
X152325000Y-106825000D02*
X152250000Y-106750000D01*
X152325000Y-107750000D02*
X152325000Y-106825000D01*
%TD*%
D18*
%TO.N,GND*%
X181648126Y-87726714D02*
X182271572Y-87914943D01*
X182846579Y-88220681D01*
X183351247Y-88632279D01*
X183766362Y-89134067D01*
X184076105Y-89706924D01*
X184268682Y-90329039D01*
X184340001Y-91007594D01*
X184340001Y-96069063D01*
X184274482Y-96049188D01*
X184150000Y-96036928D01*
X183635750Y-96040000D01*
X183477000Y-96198750D01*
X183477000Y-97373000D01*
X183497000Y-97373000D01*
X183497000Y-97627000D01*
X183477000Y-97627000D01*
X183477000Y-98801250D01*
X183635750Y-98960000D01*
X184150000Y-98963072D01*
X184274482Y-98950812D01*
X184340001Y-98930937D01*
X184340000Y-115967721D01*
X184273286Y-116648126D01*
X184085057Y-117271570D01*
X183779323Y-117846573D01*
X183367721Y-118351248D01*
X182865933Y-118766362D01*
X182293077Y-119076104D01*
X181670961Y-119268682D01*
X180992417Y-119340000D01*
X149032279Y-119340000D01*
X148351874Y-119273286D01*
X147728430Y-119085057D01*
X147153427Y-118779323D01*
X146648752Y-118367721D01*
X146233638Y-117865933D01*
X145923896Y-117293077D01*
X145731318Y-116670961D01*
X145660000Y-115992417D01*
X145660000Y-115850000D01*
X147511928Y-115850000D01*
X147524188Y-115974482D01*
X147560498Y-116094180D01*
X147619463Y-116204494D01*
X147698815Y-116301185D01*
X147795506Y-116380537D01*
X147905820Y-116439502D01*
X148025518Y-116475812D01*
X148150000Y-116488072D01*
X148714250Y-116485000D01*
X148873000Y-116326250D01*
X148873000Y-115127000D01*
X149127000Y-115127000D01*
X149127000Y-116326250D01*
X149285750Y-116485000D01*
X149850000Y-116488072D01*
X149974482Y-116475812D01*
X150094180Y-116439502D01*
X150204494Y-116380537D01*
X150301185Y-116301185D01*
X150380537Y-116204494D01*
X150439502Y-116094180D01*
X150463966Y-116013534D01*
X150539731Y-116097588D01*
X150773080Y-116271641D01*
X151035901Y-116396825D01*
X151183110Y-116441476D01*
X151413000Y-116320155D01*
X151413000Y-115127000D01*
X151667000Y-115127000D01*
X151667000Y-116320155D01*
X151896890Y-116441476D01*
X152044099Y-116396825D01*
X152306920Y-116271641D01*
X152540269Y-116097588D01*
X152735178Y-115881355D01*
X152810000Y-115755745D01*
X152884822Y-115881355D01*
X153079731Y-116097588D01*
X153313080Y-116271641D01*
X153575901Y-116396825D01*
X153723110Y-116441476D01*
X153953000Y-116320155D01*
X153953000Y-115127000D01*
X154207000Y-115127000D01*
X154207000Y-116320155D01*
X154436890Y-116441476D01*
X154584099Y-116396825D01*
X154846920Y-116271641D01*
X155080269Y-116097588D01*
X155275178Y-115881355D01*
X155350000Y-115755745D01*
X155424822Y-115881355D01*
X155619731Y-116097588D01*
X155853080Y-116271641D01*
X156115901Y-116396825D01*
X156263110Y-116441476D01*
X156493000Y-116320155D01*
X156493000Y-115127000D01*
X156747000Y-115127000D01*
X156747000Y-116320155D01*
X156976890Y-116441476D01*
X157124099Y-116396825D01*
X157386920Y-116271641D01*
X157620269Y-116097588D01*
X157815178Y-115881355D01*
X157890000Y-115755745D01*
X157964822Y-115881355D01*
X158159731Y-116097588D01*
X158393080Y-116271641D01*
X158655901Y-116396825D01*
X158803110Y-116441476D01*
X159033000Y-116320155D01*
X159033000Y-115127000D01*
X159287000Y-115127000D01*
X159287000Y-116320155D01*
X159516890Y-116441476D01*
X159664099Y-116396825D01*
X159926920Y-116271641D01*
X160160269Y-116097588D01*
X160355178Y-115881355D01*
X160430000Y-115755745D01*
X160504822Y-115881355D01*
X160699731Y-116097588D01*
X160933080Y-116271641D01*
X161195901Y-116396825D01*
X161343110Y-116441476D01*
X161573000Y-116320155D01*
X161573000Y-115127000D01*
X161827000Y-115127000D01*
X161827000Y-116320155D01*
X162056890Y-116441476D01*
X162204099Y-116396825D01*
X162466920Y-116271641D01*
X162700269Y-116097588D01*
X162895178Y-115881355D01*
X162970000Y-115755745D01*
X163044822Y-115881355D01*
X163239731Y-116097588D01*
X163473080Y-116271641D01*
X163735901Y-116396825D01*
X163883110Y-116441476D01*
X164113000Y-116320155D01*
X164113000Y-115127000D01*
X164367000Y-115127000D01*
X164367000Y-116320155D01*
X164596890Y-116441476D01*
X164744099Y-116396825D01*
X165006920Y-116271641D01*
X165240269Y-116097588D01*
X165435178Y-115881355D01*
X165510000Y-115755745D01*
X165584822Y-115881355D01*
X165779731Y-116097588D01*
X166013080Y-116271641D01*
X166275901Y-116396825D01*
X166423110Y-116441476D01*
X166653000Y-116320155D01*
X166653000Y-115127000D01*
X166907000Y-115127000D01*
X166907000Y-116320155D01*
X167136890Y-116441476D01*
X167284099Y-116396825D01*
X167546920Y-116271641D01*
X167780269Y-116097588D01*
X167975178Y-115881355D01*
X168050000Y-115755745D01*
X168124822Y-115881355D01*
X168319731Y-116097588D01*
X168553080Y-116271641D01*
X168815901Y-116396825D01*
X168963110Y-116441476D01*
X169193000Y-116320155D01*
X169193000Y-115127000D01*
X169447000Y-115127000D01*
X169447000Y-116320155D01*
X169676890Y-116441476D01*
X169824099Y-116396825D01*
X170086920Y-116271641D01*
X170320269Y-116097588D01*
X170515178Y-115881355D01*
X170590000Y-115755745D01*
X170664822Y-115881355D01*
X170859731Y-116097588D01*
X171093080Y-116271641D01*
X171355901Y-116396825D01*
X171503110Y-116441476D01*
X171733000Y-116320155D01*
X171733000Y-115127000D01*
X171987000Y-115127000D01*
X171987000Y-116320155D01*
X172216890Y-116441476D01*
X172364099Y-116396825D01*
X172626920Y-116271641D01*
X172860269Y-116097588D01*
X173055178Y-115881355D01*
X173130000Y-115755745D01*
X173204822Y-115881355D01*
X173399731Y-116097588D01*
X173633080Y-116271641D01*
X173895901Y-116396825D01*
X174043110Y-116441476D01*
X174273000Y-116320155D01*
X174273000Y-115127000D01*
X174527000Y-115127000D01*
X174527000Y-116320155D01*
X174756890Y-116441476D01*
X174904099Y-116396825D01*
X175166920Y-116271641D01*
X175400269Y-116097588D01*
X175595178Y-115881355D01*
X175670000Y-115755745D01*
X175744822Y-115881355D01*
X175939731Y-116097588D01*
X176173080Y-116271641D01*
X176435901Y-116396825D01*
X176583110Y-116441476D01*
X176813000Y-116320155D01*
X176813000Y-115127000D01*
X177067000Y-115127000D01*
X177067000Y-116320155D01*
X177296890Y-116441476D01*
X177444099Y-116396825D01*
X177689639Y-116279872D01*
X179265000Y-116279872D01*
X179265000Y-116720128D01*
X179350890Y-117151925D01*
X179519369Y-117558669D01*
X179763962Y-117924729D01*
X180075271Y-118236038D01*
X180441331Y-118480631D01*
X180848075Y-118649110D01*
X181279872Y-118735000D01*
X181720128Y-118735000D01*
X182151925Y-118649110D01*
X182558669Y-118480631D01*
X182924729Y-118236038D01*
X183236038Y-117924729D01*
X183480631Y-117558669D01*
X183649110Y-117151925D01*
X183735000Y-116720128D01*
X183735000Y-116279872D01*
X183649110Y-115848075D01*
X183480631Y-115441331D01*
X183236038Y-115075271D01*
X182924729Y-114763962D01*
X182558669Y-114519369D01*
X182151925Y-114350890D01*
X181720128Y-114265000D01*
X181279872Y-114265000D01*
X180848075Y-114350890D01*
X180441331Y-114519369D01*
X180075271Y-114763962D01*
X179763962Y-115075271D01*
X179519369Y-115441331D01*
X179350890Y-115848075D01*
X179265000Y-116279872D01*
X177689639Y-116279872D01*
X177706920Y-116271641D01*
X177940269Y-116097588D01*
X178135178Y-115881355D01*
X178284157Y-115631252D01*
X178381481Y-115356891D01*
X178260814Y-115127000D01*
X177067000Y-115127000D01*
X176813000Y-115127000D01*
X174527000Y-115127000D01*
X174273000Y-115127000D01*
X171987000Y-115127000D01*
X171733000Y-115127000D01*
X169447000Y-115127000D01*
X169193000Y-115127000D01*
X166907000Y-115127000D01*
X166653000Y-115127000D01*
X164367000Y-115127000D01*
X164113000Y-115127000D01*
X161827000Y-115127000D01*
X161573000Y-115127000D01*
X159287000Y-115127000D01*
X159033000Y-115127000D01*
X156747000Y-115127000D01*
X156493000Y-115127000D01*
X154207000Y-115127000D01*
X153953000Y-115127000D01*
X151667000Y-115127000D01*
X151413000Y-115127000D01*
X149127000Y-115127000D01*
X148873000Y-115127000D01*
X147673750Y-115127000D01*
X147515000Y-115285750D01*
X147511928Y-115850000D01*
X145660000Y-115850000D01*
X145660000Y-114150000D01*
X147511928Y-114150000D01*
X147515000Y-114714250D01*
X147673750Y-114873000D01*
X148873000Y-114873000D01*
X148873000Y-113673750D01*
X149127000Y-113673750D01*
X149127000Y-114873000D01*
X151413000Y-114873000D01*
X151413000Y-113679845D01*
X151667000Y-113679845D01*
X151667000Y-114873000D01*
X153953000Y-114873000D01*
X153953000Y-113679845D01*
X154207000Y-113679845D01*
X154207000Y-114873000D01*
X156493000Y-114873000D01*
X156493000Y-113679845D01*
X156747000Y-113679845D01*
X156747000Y-114873000D01*
X159033000Y-114873000D01*
X159033000Y-113679845D01*
X159287000Y-113679845D01*
X159287000Y-114873000D01*
X161573000Y-114873000D01*
X161573000Y-113679845D01*
X161827000Y-113679845D01*
X161827000Y-114873000D01*
X164113000Y-114873000D01*
X164113000Y-113679845D01*
X164367000Y-113679845D01*
X164367000Y-114873000D01*
X166653000Y-114873000D01*
X166653000Y-113679845D01*
X166907000Y-113679845D01*
X166907000Y-114873000D01*
X169193000Y-114873000D01*
X169193000Y-113679845D01*
X169447000Y-113679845D01*
X169447000Y-114873000D01*
X171733000Y-114873000D01*
X171733000Y-113679845D01*
X171987000Y-113679845D01*
X171987000Y-114873000D01*
X174273000Y-114873000D01*
X174273000Y-113679845D01*
X174527000Y-113679845D01*
X174527000Y-114873000D01*
X176813000Y-114873000D01*
X176813000Y-113679845D01*
X177067000Y-113679845D01*
X177067000Y-114873000D01*
X178260814Y-114873000D01*
X178381481Y-114643109D01*
X178284157Y-114368748D01*
X178135178Y-114118645D01*
X177940269Y-113902412D01*
X177706920Y-113728359D01*
X177444099Y-113603175D01*
X177296890Y-113558524D01*
X177067000Y-113679845D01*
X176813000Y-113679845D01*
X176583110Y-113558524D01*
X176435901Y-113603175D01*
X176173080Y-113728359D01*
X175939731Y-113902412D01*
X175744822Y-114118645D01*
X175670000Y-114244255D01*
X175595178Y-114118645D01*
X175400269Y-113902412D01*
X175166920Y-113728359D01*
X174904099Y-113603175D01*
X174756890Y-113558524D01*
X174527000Y-113679845D01*
X174273000Y-113679845D01*
X174043110Y-113558524D01*
X173895901Y-113603175D01*
X173633080Y-113728359D01*
X173399731Y-113902412D01*
X173204822Y-114118645D01*
X173130000Y-114244255D01*
X173055178Y-114118645D01*
X172860269Y-113902412D01*
X172626920Y-113728359D01*
X172364099Y-113603175D01*
X172216890Y-113558524D01*
X171987000Y-113679845D01*
X171733000Y-113679845D01*
X171503110Y-113558524D01*
X171355901Y-113603175D01*
X171093080Y-113728359D01*
X170859731Y-113902412D01*
X170664822Y-114118645D01*
X170590000Y-114244255D01*
X170515178Y-114118645D01*
X170320269Y-113902412D01*
X170086920Y-113728359D01*
X169824099Y-113603175D01*
X169676890Y-113558524D01*
X169447000Y-113679845D01*
X169193000Y-113679845D01*
X168963110Y-113558524D01*
X168815901Y-113603175D01*
X168553080Y-113728359D01*
X168319731Y-113902412D01*
X168124822Y-114118645D01*
X168050000Y-114244255D01*
X167975178Y-114118645D01*
X167780269Y-113902412D01*
X167546920Y-113728359D01*
X167284099Y-113603175D01*
X167136890Y-113558524D01*
X166907000Y-113679845D01*
X166653000Y-113679845D01*
X166423110Y-113558524D01*
X166275901Y-113603175D01*
X166013080Y-113728359D01*
X165779731Y-113902412D01*
X165584822Y-114118645D01*
X165510000Y-114244255D01*
X165435178Y-114118645D01*
X165240269Y-113902412D01*
X165006920Y-113728359D01*
X164744099Y-113603175D01*
X164596890Y-113558524D01*
X164367000Y-113679845D01*
X164113000Y-113679845D01*
X163883110Y-113558524D01*
X163735901Y-113603175D01*
X163473080Y-113728359D01*
X163239731Y-113902412D01*
X163044822Y-114118645D01*
X162970000Y-114244255D01*
X162895178Y-114118645D01*
X162700269Y-113902412D01*
X162466920Y-113728359D01*
X162204099Y-113603175D01*
X162056890Y-113558524D01*
X161827000Y-113679845D01*
X161573000Y-113679845D01*
X161343110Y-113558524D01*
X161195901Y-113603175D01*
X160933080Y-113728359D01*
X160699731Y-113902412D01*
X160504822Y-114118645D01*
X160430000Y-114244255D01*
X160355178Y-114118645D01*
X160160269Y-113902412D01*
X159926920Y-113728359D01*
X159664099Y-113603175D01*
X159516890Y-113558524D01*
X159287000Y-113679845D01*
X159033000Y-113679845D01*
X158803110Y-113558524D01*
X158655901Y-113603175D01*
X158393080Y-113728359D01*
X158159731Y-113902412D01*
X157964822Y-114118645D01*
X157890000Y-114244255D01*
X157815178Y-114118645D01*
X157620269Y-113902412D01*
X157386920Y-113728359D01*
X157124099Y-113603175D01*
X156976890Y-113558524D01*
X156747000Y-113679845D01*
X156493000Y-113679845D01*
X156263110Y-113558524D01*
X156115901Y-113603175D01*
X155853080Y-113728359D01*
X155619731Y-113902412D01*
X155424822Y-114118645D01*
X155350000Y-114244255D01*
X155275178Y-114118645D01*
X155080269Y-113902412D01*
X154846920Y-113728359D01*
X154584099Y-113603175D01*
X154436890Y-113558524D01*
X154207000Y-113679845D01*
X153953000Y-113679845D01*
X153723110Y-113558524D01*
X153575901Y-113603175D01*
X153313080Y-113728359D01*
X153079731Y-113902412D01*
X152884822Y-114118645D01*
X152810000Y-114244255D01*
X152735178Y-114118645D01*
X152540269Y-113902412D01*
X152306920Y-113728359D01*
X152044099Y-113603175D01*
X151896890Y-113558524D01*
X151667000Y-113679845D01*
X151413000Y-113679845D01*
X151183110Y-113558524D01*
X151035901Y-113603175D01*
X150773080Y-113728359D01*
X150539731Y-113902412D01*
X150463966Y-113986466D01*
X150439502Y-113905820D01*
X150380537Y-113795506D01*
X150301185Y-113698815D01*
X150204494Y-113619463D01*
X150094180Y-113560498D01*
X149974482Y-113524188D01*
X149850000Y-113511928D01*
X149285750Y-113515000D01*
X149127000Y-113673750D01*
X148873000Y-113673750D01*
X148714250Y-113515000D01*
X148150000Y-113511928D01*
X148025518Y-113524188D01*
X147905820Y-113560498D01*
X147795506Y-113619463D01*
X147698815Y-113698815D01*
X147619463Y-113795506D01*
X147560498Y-113905820D01*
X147524188Y-114025518D01*
X147511928Y-114150000D01*
X145660000Y-114150000D01*
X145660000Y-108719812D01*
X145868748Y-108844157D01*
X146143109Y-108941481D01*
X146373000Y-108820814D01*
X146373000Y-107627000D01*
X146353000Y-107627000D01*
X146353000Y-107373000D01*
X146373000Y-107373000D01*
X146373000Y-107353000D01*
X146627000Y-107353000D01*
X146627000Y-107373000D01*
X146647000Y-107373000D01*
X146647000Y-107627000D01*
X146627000Y-107627000D01*
X146627000Y-108820814D01*
X146856891Y-108941481D01*
X147131252Y-108844157D01*
X147381355Y-108695178D01*
X147597588Y-108500269D01*
X147771641Y-108266920D01*
X147865001Y-108070914D01*
X147865000Y-108779867D01*
X146636860Y-110008009D01*
X146593552Y-110043551D01*
X146451717Y-110216377D01*
X146346324Y-110413553D01*
X146281423Y-110627501D01*
X146270442Y-110738997D01*
X146259509Y-110850000D01*
X146265000Y-110905751D01*
X146265000Y-110968808D01*
X146261928Y-111000000D01*
X146261928Y-112500000D01*
X146274188Y-112624482D01*
X146310498Y-112744180D01*
X146369463Y-112854494D01*
X146448815Y-112951185D01*
X146545506Y-113030537D01*
X146655820Y-113089502D01*
X146775518Y-113125812D01*
X146900000Y-113138072D01*
X147400000Y-113138072D01*
X147424450Y-113135664D01*
X147449009Y-113135664D01*
X147573490Y-113123404D01*
X147669623Y-113104282D01*
X147789319Y-113067973D01*
X147879875Y-113030464D01*
X147990192Y-112971498D01*
X148071691Y-112917042D01*
X148168382Y-112837690D01*
X148237690Y-112768382D01*
X148317042Y-112671691D01*
X148371498Y-112590192D01*
X148430464Y-112479875D01*
X148467973Y-112389319D01*
X148504282Y-112269623D01*
X148523404Y-112173490D01*
X148535664Y-112049009D01*
X148535664Y-112024450D01*
X148538072Y-112000000D01*
X148538072Y-111950000D01*
X149524428Y-111950000D01*
X149536688Y-112074482D01*
X149572998Y-112194180D01*
X149631963Y-112304494D01*
X149711315Y-112401185D01*
X149808006Y-112480537D01*
X149918320Y-112539502D01*
X150038018Y-112575812D01*
X150162500Y-112588072D01*
X150389250Y-112585000D01*
X150548000Y-112426250D01*
X150548000Y-111377000D01*
X149686250Y-111377000D01*
X149527500Y-111535750D01*
X149524428Y-111950000D01*
X148538072Y-111950000D01*
X148538072Y-111500000D01*
X148535664Y-111475550D01*
X148535664Y-111450991D01*
X148535000Y-111444249D01*
X148535000Y-111320131D01*
X149600196Y-110254936D01*
X149572998Y-110305820D01*
X149536688Y-110425518D01*
X149524428Y-110550000D01*
X149527500Y-110964250D01*
X149686250Y-111123000D01*
X150548000Y-111123000D01*
X150548000Y-110073750D01*
X150389250Y-109915000D01*
X150162500Y-109911928D01*
X150038018Y-109924188D01*
X149918320Y-109960498D01*
X149859307Y-109992042D01*
X149860773Y-109990256D01*
X149948284Y-109883623D01*
X150053676Y-109686447D01*
X150118577Y-109472499D01*
X150140491Y-109250000D01*
X150135000Y-109194248D01*
X150135000Y-109077977D01*
X150237498Y-109088072D01*
X150762502Y-109088072D01*
X150935756Y-109071008D01*
X151102352Y-109020472D01*
X151255887Y-108938405D01*
X151390462Y-108827962D01*
X151412500Y-108801109D01*
X151434538Y-108827962D01*
X151565000Y-108935030D01*
X151565001Y-110038344D01*
X151541994Y-110019463D01*
X151431680Y-109960498D01*
X151311982Y-109924188D01*
X151187500Y-109911928D01*
X150960750Y-109915000D01*
X150802000Y-110073750D01*
X150802000Y-111123000D01*
X150822000Y-111123000D01*
X150822000Y-111377000D01*
X150802000Y-111377000D01*
X150802000Y-112426250D01*
X150960750Y-112585000D01*
X151187500Y-112588072D01*
X151311982Y-112575812D01*
X151431680Y-112539502D01*
X151541994Y-112480537D01*
X151638685Y-112401185D01*
X151662863Y-112371724D01*
X151744113Y-112438405D01*
X151897648Y-112520472D01*
X152064244Y-112571008D01*
X152237498Y-112588072D01*
X152762502Y-112588072D01*
X152935756Y-112571008D01*
X153102352Y-112520472D01*
X153255887Y-112438405D01*
X153390462Y-112327962D01*
X153500905Y-112193387D01*
X153582972Y-112039852D01*
X153633508Y-111873256D01*
X153650572Y-111700002D01*
X153650572Y-111255703D01*
X154658008Y-112263140D01*
X154693551Y-112306449D01*
X154866377Y-112448284D01*
X155063553Y-112553676D01*
X155277501Y-112618577D01*
X155444248Y-112635000D01*
X155444257Y-112635000D01*
X155499999Y-112640490D01*
X155555741Y-112635000D01*
X155854039Y-112635000D01*
X155919113Y-112688405D01*
X156072648Y-112770472D01*
X156239244Y-112821008D01*
X156412498Y-112838072D01*
X156937502Y-112838072D01*
X157110756Y-112821008D01*
X157277352Y-112770472D01*
X157430887Y-112688405D01*
X157565462Y-112577962D01*
X157587500Y-112551109D01*
X157609538Y-112577962D01*
X157744113Y-112688405D01*
X157897648Y-112770472D01*
X158064244Y-112821008D01*
X158237498Y-112838072D01*
X158762502Y-112838072D01*
X158935756Y-112821008D01*
X159102352Y-112770472D01*
X159255887Y-112688405D01*
X159320961Y-112635000D01*
X159444249Y-112635000D01*
X159500000Y-112640491D01*
X159555751Y-112635000D01*
X159555752Y-112635000D01*
X159722499Y-112618577D01*
X159936447Y-112553676D01*
X160133623Y-112448284D01*
X160306449Y-112306449D01*
X160341996Y-112263135D01*
X162341988Y-110263144D01*
X162448283Y-110133623D01*
X162553675Y-109936447D01*
X162618577Y-109722500D01*
X162640491Y-109500001D01*
X162618577Y-109277502D01*
X162575348Y-109135000D01*
X164856769Y-109135000D01*
X164912520Y-109140491D01*
X164968271Y-109135000D01*
X164968272Y-109135000D01*
X165135019Y-109118577D01*
X165348967Y-109053676D01*
X165546143Y-108948284D01*
X165647484Y-108865115D01*
X166958009Y-110175641D01*
X166993551Y-110218949D01*
X167166377Y-110360784D01*
X167352275Y-110460148D01*
X167363553Y-110466176D01*
X167577501Y-110531077D01*
X167799999Y-110552991D01*
X167855751Y-110547500D01*
X167891893Y-110547500D01*
X168049998Y-110563072D01*
X168950002Y-110563072D01*
X169108107Y-110547500D01*
X170558559Y-110547500D01*
X170716664Y-110563072D01*
X171616668Y-110563072D01*
X171774773Y-110547500D01*
X173225225Y-110547500D01*
X173383330Y-110563072D01*
X174283334Y-110563072D01*
X174441439Y-110547500D01*
X175891893Y-110547500D01*
X176049998Y-110563072D01*
X176950002Y-110563072D01*
X177123256Y-110546008D01*
X177289852Y-110495472D01*
X177443387Y-110413405D01*
X177577962Y-110302962D01*
X177688405Y-110168387D01*
X177770472Y-110014852D01*
X177821008Y-109848256D01*
X177838072Y-109675002D01*
X177838072Y-109149998D01*
X177821008Y-108976744D01*
X177770472Y-108810148D01*
X177688405Y-108656613D01*
X177577962Y-108522038D01*
X177551109Y-108500000D01*
X177577962Y-108477962D01*
X177688405Y-108343387D01*
X177770472Y-108189852D01*
X177821008Y-108023256D01*
X177838072Y-107850002D01*
X177838072Y-107324998D01*
X177821008Y-107151744D01*
X177770472Y-106985148D01*
X177688405Y-106831613D01*
X177635000Y-106766539D01*
X177635000Y-104550752D01*
X177640491Y-104495000D01*
X177618577Y-104272502D01*
X177613750Y-104256589D01*
X177553676Y-104058553D01*
X177508072Y-103973233D01*
X177508072Y-103085000D01*
X177495812Y-102960518D01*
X177459502Y-102840820D01*
X177400537Y-102730506D01*
X177321185Y-102633815D01*
X177224494Y-102554463D01*
X177114180Y-102495498D01*
X176994482Y-102459188D01*
X176870000Y-102446928D01*
X175750000Y-102446928D01*
X175625518Y-102459188D01*
X175505820Y-102495498D01*
X175395506Y-102554463D01*
X175298815Y-102633815D01*
X175219463Y-102730506D01*
X175160498Y-102840820D01*
X175124188Y-102960518D01*
X175111928Y-103085000D01*
X175111928Y-105525000D01*
X175124188Y-105649482D01*
X175160498Y-105769180D01*
X175219463Y-105879494D01*
X175298815Y-105976185D01*
X175365001Y-106030502D01*
X175365000Y-106766539D01*
X175311595Y-106831613D01*
X175229528Y-106985148D01*
X175178992Y-107151744D01*
X175166666Y-107276892D01*
X175154340Y-107151744D01*
X175103804Y-106985148D01*
X175021737Y-106831613D01*
X174968332Y-106766539D01*
X174968332Y-104424083D01*
X174973823Y-104368332D01*
X174968072Y-104309941D01*
X174968072Y-103085000D01*
X174955812Y-102960518D01*
X174919502Y-102840820D01*
X174860537Y-102730506D01*
X174781185Y-102633815D01*
X174684494Y-102554463D01*
X174574180Y-102495498D01*
X174454482Y-102459188D01*
X174330000Y-102446928D01*
X173210000Y-102446928D01*
X173085518Y-102459188D01*
X172965820Y-102495498D01*
X172855506Y-102554463D01*
X172758815Y-102633815D01*
X172679463Y-102730506D01*
X172620498Y-102840820D01*
X172584188Y-102960518D01*
X172571928Y-103085000D01*
X172571928Y-105525000D01*
X172584188Y-105649482D01*
X172620498Y-105769180D01*
X172679463Y-105879494D01*
X172698333Y-105902487D01*
X172698332Y-106766539D01*
X172644927Y-106831613D01*
X172562860Y-106985148D01*
X172512324Y-107151744D01*
X172499999Y-107276882D01*
X172487674Y-107151744D01*
X172437138Y-106985148D01*
X172355071Y-106831613D01*
X172301666Y-106766539D01*
X172301666Y-105902488D01*
X172320537Y-105879494D01*
X172379502Y-105769180D01*
X172415812Y-105649482D01*
X172428072Y-105525000D01*
X172428072Y-103085000D01*
X172415812Y-102960518D01*
X172379502Y-102840820D01*
X172320537Y-102730506D01*
X172241185Y-102633815D01*
X172144494Y-102554463D01*
X172034180Y-102495498D01*
X171914482Y-102459188D01*
X171790000Y-102446928D01*
X170670000Y-102446928D01*
X170545518Y-102459188D01*
X170425820Y-102495498D01*
X170315506Y-102554463D01*
X170218815Y-102633815D01*
X170139463Y-102730506D01*
X170080498Y-102840820D01*
X170044188Y-102960518D01*
X170031928Y-103085000D01*
X170031928Y-104309922D01*
X170026175Y-104368334D01*
X170031667Y-104424095D01*
X170031666Y-106766539D01*
X169978261Y-106831613D01*
X169896194Y-106985148D01*
X169845658Y-107151744D01*
X169833333Y-107276882D01*
X169825000Y-107192276D01*
X169825000Y-105796311D01*
X169839502Y-105769180D01*
X169875812Y-105649482D01*
X169888072Y-105525000D01*
X169888072Y-103085000D01*
X169875812Y-102960518D01*
X169839502Y-102840820D01*
X169780537Y-102730506D01*
X169701185Y-102633815D01*
X169604494Y-102554463D01*
X169494180Y-102495498D01*
X169374482Y-102459188D01*
X169250000Y-102446928D01*
X168130000Y-102446928D01*
X168005518Y-102459188D01*
X167885820Y-102495498D01*
X167775506Y-102554463D01*
X167678815Y-102633815D01*
X167599463Y-102730506D01*
X167540498Y-102840820D01*
X167504188Y-102960518D01*
X167491928Y-103085000D01*
X167491928Y-105525000D01*
X167504188Y-105649482D01*
X167540498Y-105769180D01*
X167555000Y-105796312D01*
X167555001Y-106587918D01*
X167422038Y-106697038D01*
X167311595Y-106831613D01*
X167229528Y-106985148D01*
X167178992Y-107151744D01*
X167175888Y-107183257D01*
X166785010Y-106792379D01*
X166785010Y-102618262D01*
X166790501Y-102562510D01*
X166768587Y-102340011D01*
X166703686Y-102126063D01*
X166598294Y-101928887D01*
X166537231Y-101854482D01*
X166456459Y-101756061D01*
X166413150Y-101720518D01*
X165837574Y-101144943D01*
X165821008Y-100976744D01*
X165770472Y-100810148D01*
X165688405Y-100656613D01*
X165577962Y-100522038D01*
X165551109Y-100500000D01*
X165577962Y-100477962D01*
X165688405Y-100343387D01*
X165770472Y-100189852D01*
X165821008Y-100023256D01*
X165838072Y-99850002D01*
X165838072Y-99324998D01*
X165821008Y-99151744D01*
X165770472Y-98985148D01*
X165688405Y-98831613D01*
X165635000Y-98766539D01*
X165635000Y-97970131D01*
X166775132Y-96830000D01*
X167491928Y-96830000D01*
X167491928Y-96915000D01*
X167504188Y-97039482D01*
X167540498Y-97159180D01*
X167599463Y-97269494D01*
X167678815Y-97366185D01*
X167775506Y-97445537D01*
X167885820Y-97504502D01*
X168005518Y-97540812D01*
X168130000Y-97553072D01*
X169250000Y-97553072D01*
X169374482Y-97540812D01*
X169494180Y-97504502D01*
X169604494Y-97445537D01*
X169701185Y-97366185D01*
X169780537Y-97269494D01*
X169839502Y-97159180D01*
X169875812Y-97039482D01*
X169888072Y-96915000D01*
X169888072Y-96830000D01*
X170031928Y-96830000D01*
X170031928Y-96915000D01*
X170044188Y-97039482D01*
X170080498Y-97159180D01*
X170139463Y-97269494D01*
X170218815Y-97366185D01*
X170315506Y-97445537D01*
X170425820Y-97504502D01*
X170545518Y-97540812D01*
X170670000Y-97553072D01*
X171790000Y-97553072D01*
X171914482Y-97540812D01*
X172034180Y-97504502D01*
X172144494Y-97445537D01*
X172241185Y-97366185D01*
X172320537Y-97269494D01*
X172379502Y-97159180D01*
X172415812Y-97039482D01*
X172428072Y-96915000D01*
X172428072Y-96830000D01*
X172571928Y-96830000D01*
X172571928Y-96915000D01*
X172584188Y-97039482D01*
X172620498Y-97159180D01*
X172679463Y-97269494D01*
X172758815Y-97366185D01*
X172855506Y-97445537D01*
X172965820Y-97504502D01*
X173085518Y-97540812D01*
X173210000Y-97553072D01*
X174330000Y-97553072D01*
X174454482Y-97540812D01*
X174574180Y-97504502D01*
X174684494Y-97445537D01*
X174781185Y-97366185D01*
X174860537Y-97269494D01*
X174919502Y-97159180D01*
X174955812Y-97039482D01*
X174968072Y-96915000D01*
X174968072Y-96830000D01*
X175111928Y-96830000D01*
X175111928Y-96915000D01*
X175124188Y-97039482D01*
X175160498Y-97159180D01*
X175219463Y-97269494D01*
X175298815Y-97366185D01*
X175395506Y-97445537D01*
X175505820Y-97504502D01*
X175625518Y-97540812D01*
X175750000Y-97553072D01*
X176870000Y-97553072D01*
X176994482Y-97540812D01*
X177114180Y-97504502D01*
X177224494Y-97445537D01*
X177321185Y-97366185D01*
X177400537Y-97269494D01*
X177459502Y-97159180D01*
X177495812Y-97039482D01*
X177508072Y-96915000D01*
X177508072Y-94475000D01*
X177506783Y-94461915D01*
X178779898Y-95735030D01*
X178781422Y-95750499D01*
X178846323Y-95964447D01*
X178951715Y-96161624D01*
X179093550Y-96334450D01*
X179136864Y-96369997D01*
X179207027Y-96440160D01*
X179129528Y-96585150D01*
X179078992Y-96751746D01*
X179061928Y-96925000D01*
X179061928Y-98075000D01*
X179078992Y-98248254D01*
X179129528Y-98414850D01*
X179211595Y-98568386D01*
X179322038Y-98702962D01*
X179456614Y-98813405D01*
X179610150Y-98895472D01*
X179776746Y-98946008D01*
X179950000Y-98963072D01*
X181050000Y-98963072D01*
X181223254Y-98946008D01*
X181389850Y-98895472D01*
X181543386Y-98813405D01*
X181677962Y-98702962D01*
X181788405Y-98568386D01*
X181870472Y-98414850D01*
X181912200Y-98277291D01*
X181911928Y-98325000D01*
X181924188Y-98449482D01*
X181960498Y-98569180D01*
X182019463Y-98679494D01*
X182098815Y-98776185D01*
X182195506Y-98855537D01*
X182305820Y-98914502D01*
X182425518Y-98950812D01*
X182550000Y-98963072D01*
X183064250Y-98960000D01*
X183223000Y-98801250D01*
X183223000Y-97627000D01*
X183203000Y-97627000D01*
X183203000Y-97373000D01*
X183223000Y-97373000D01*
X183223000Y-96198750D01*
X183064250Y-96040000D01*
X182550000Y-96036928D01*
X182425518Y-96049188D01*
X182305820Y-96085498D01*
X182195506Y-96144463D01*
X182098815Y-96223815D01*
X182019463Y-96320506D01*
X181960498Y-96430820D01*
X181924188Y-96550518D01*
X181911928Y-96675000D01*
X181912200Y-96722709D01*
X181870472Y-96585150D01*
X181788405Y-96431614D01*
X181677962Y-96297038D01*
X181635000Y-96261780D01*
X181635000Y-96155753D01*
X181640491Y-96100001D01*
X181634582Y-96040000D01*
X181618577Y-95877502D01*
X181553676Y-95663554D01*
X181448284Y-95466378D01*
X181306449Y-95293552D01*
X181133623Y-95151717D01*
X181123361Y-95146232D01*
X181020100Y-95042971D01*
X181018576Y-95027500D01*
X180953675Y-94813552D01*
X180848283Y-94616376D01*
X180802016Y-94560000D01*
X180706448Y-94443550D01*
X180663140Y-94408008D01*
X177991996Y-91736865D01*
X177956449Y-91693551D01*
X177783623Y-91551716D01*
X177586447Y-91446324D01*
X177372499Y-91381423D01*
X177205752Y-91365000D01*
X177205751Y-91365000D01*
X177150000Y-91359509D01*
X177094249Y-91365000D01*
X175820961Y-91365000D01*
X175755887Y-91311595D01*
X175602352Y-91229528D01*
X175435756Y-91178992D01*
X175262502Y-91161928D01*
X174922490Y-91161928D01*
X174922490Y-90279872D01*
X179265000Y-90279872D01*
X179265000Y-90720128D01*
X179350890Y-91151925D01*
X179519369Y-91558669D01*
X179763962Y-91924729D01*
X180075271Y-92236038D01*
X180441331Y-92480631D01*
X180848075Y-92649110D01*
X181279872Y-92735000D01*
X181720128Y-92735000D01*
X182151925Y-92649110D01*
X182558669Y-92480631D01*
X182924729Y-92236038D01*
X183236038Y-91924729D01*
X183480631Y-91558669D01*
X183649110Y-91151925D01*
X183735000Y-90720128D01*
X183735000Y-90279872D01*
X183649110Y-89848075D01*
X183480631Y-89441331D01*
X183236038Y-89075271D01*
X182924729Y-88763962D01*
X182558669Y-88519369D01*
X182151925Y-88350890D01*
X181720128Y-88265000D01*
X181279872Y-88265000D01*
X180848075Y-88350890D01*
X180441331Y-88519369D01*
X180075271Y-88763962D01*
X179763962Y-89075271D01*
X179519369Y-89441331D01*
X179350890Y-89848075D01*
X179265000Y-90279872D01*
X174922490Y-90279872D01*
X174922490Y-90209891D01*
X175083158Y-90177932D01*
X175353411Y-90065990D01*
X175596632Y-89903475D01*
X175803475Y-89696632D01*
X175925195Y-89514466D01*
X175994822Y-89631355D01*
X176189731Y-89847588D01*
X176423080Y-90021641D01*
X176685901Y-90146825D01*
X176833110Y-90191476D01*
X177063000Y-90070155D01*
X177063000Y-88877000D01*
X177317000Y-88877000D01*
X177317000Y-90070155D01*
X177546890Y-90191476D01*
X177694099Y-90146825D01*
X177956920Y-90021641D01*
X178190269Y-89847588D01*
X178385178Y-89631355D01*
X178534157Y-89381252D01*
X178631481Y-89106891D01*
X178510814Y-88877000D01*
X177317000Y-88877000D01*
X177063000Y-88877000D01*
X177043000Y-88877000D01*
X177043000Y-88623000D01*
X177063000Y-88623000D01*
X177063000Y-88603000D01*
X177317000Y-88603000D01*
X177317000Y-88623000D01*
X178510814Y-88623000D01*
X178631481Y-88393109D01*
X178534157Y-88118748D01*
X178385178Y-87868645D01*
X178197109Y-87660000D01*
X180967722Y-87660000D01*
X181648126Y-87726714D01*
%TA.AperFunction,Conductor*%
D19*
G36*
X181648126Y-87726714D02*
G01*
X182271572Y-87914943D01*
X182846579Y-88220681D01*
X183351247Y-88632279D01*
X183766362Y-89134067D01*
X184076105Y-89706924D01*
X184268682Y-90329039D01*
X184340001Y-91007594D01*
X184340001Y-96069063D01*
X184274482Y-96049188D01*
X184150000Y-96036928D01*
X183635750Y-96040000D01*
X183477000Y-96198750D01*
X183477000Y-97373000D01*
X183497000Y-97373000D01*
X183497000Y-97627000D01*
X183477000Y-97627000D01*
X183477000Y-98801250D01*
X183635750Y-98960000D01*
X184150000Y-98963072D01*
X184274482Y-98950812D01*
X184340001Y-98930937D01*
X184340000Y-115967721D01*
X184273286Y-116648126D01*
X184085057Y-117271570D01*
X183779323Y-117846573D01*
X183367721Y-118351248D01*
X182865933Y-118766362D01*
X182293077Y-119076104D01*
X181670961Y-119268682D01*
X180992417Y-119340000D01*
X149032279Y-119340000D01*
X148351874Y-119273286D01*
X147728430Y-119085057D01*
X147153427Y-118779323D01*
X146648752Y-118367721D01*
X146233638Y-117865933D01*
X145923896Y-117293077D01*
X145731318Y-116670961D01*
X145660000Y-115992417D01*
X145660000Y-115850000D01*
X147511928Y-115850000D01*
X147524188Y-115974482D01*
X147560498Y-116094180D01*
X147619463Y-116204494D01*
X147698815Y-116301185D01*
X147795506Y-116380537D01*
X147905820Y-116439502D01*
X148025518Y-116475812D01*
X148150000Y-116488072D01*
X148714250Y-116485000D01*
X148873000Y-116326250D01*
X148873000Y-115127000D01*
X149127000Y-115127000D01*
X149127000Y-116326250D01*
X149285750Y-116485000D01*
X149850000Y-116488072D01*
X149974482Y-116475812D01*
X150094180Y-116439502D01*
X150204494Y-116380537D01*
X150301185Y-116301185D01*
X150380537Y-116204494D01*
X150439502Y-116094180D01*
X150463966Y-116013534D01*
X150539731Y-116097588D01*
X150773080Y-116271641D01*
X151035901Y-116396825D01*
X151183110Y-116441476D01*
X151413000Y-116320155D01*
X151413000Y-115127000D01*
X151667000Y-115127000D01*
X151667000Y-116320155D01*
X151896890Y-116441476D01*
X152044099Y-116396825D01*
X152306920Y-116271641D01*
X152540269Y-116097588D01*
X152735178Y-115881355D01*
X152810000Y-115755745D01*
X152884822Y-115881355D01*
X153079731Y-116097588D01*
X153313080Y-116271641D01*
X153575901Y-116396825D01*
X153723110Y-116441476D01*
X153953000Y-116320155D01*
X153953000Y-115127000D01*
X154207000Y-115127000D01*
X154207000Y-116320155D01*
X154436890Y-116441476D01*
X154584099Y-116396825D01*
X154846920Y-116271641D01*
X155080269Y-116097588D01*
X155275178Y-115881355D01*
X155350000Y-115755745D01*
X155424822Y-115881355D01*
X155619731Y-116097588D01*
X155853080Y-116271641D01*
X156115901Y-116396825D01*
X156263110Y-116441476D01*
X156493000Y-116320155D01*
X156493000Y-115127000D01*
X156747000Y-115127000D01*
X156747000Y-116320155D01*
X156976890Y-116441476D01*
X157124099Y-116396825D01*
X157386920Y-116271641D01*
X157620269Y-116097588D01*
X157815178Y-115881355D01*
X157890000Y-115755745D01*
X157964822Y-115881355D01*
X158159731Y-116097588D01*
X158393080Y-116271641D01*
X158655901Y-116396825D01*
X158803110Y-116441476D01*
X159033000Y-116320155D01*
X159033000Y-115127000D01*
X159287000Y-115127000D01*
X159287000Y-116320155D01*
X159516890Y-116441476D01*
X159664099Y-116396825D01*
X159926920Y-116271641D01*
X160160269Y-116097588D01*
X160355178Y-115881355D01*
X160430000Y-115755745D01*
X160504822Y-115881355D01*
X160699731Y-116097588D01*
X160933080Y-116271641D01*
X161195901Y-116396825D01*
X161343110Y-116441476D01*
X161573000Y-116320155D01*
X161573000Y-115127000D01*
X161827000Y-115127000D01*
X161827000Y-116320155D01*
X162056890Y-116441476D01*
X162204099Y-116396825D01*
X162466920Y-116271641D01*
X162700269Y-116097588D01*
X162895178Y-115881355D01*
X162970000Y-115755745D01*
X163044822Y-115881355D01*
X163239731Y-116097588D01*
X163473080Y-116271641D01*
X163735901Y-116396825D01*
X163883110Y-116441476D01*
X164113000Y-116320155D01*
X164113000Y-115127000D01*
X164367000Y-115127000D01*
X164367000Y-116320155D01*
X164596890Y-116441476D01*
X164744099Y-116396825D01*
X165006920Y-116271641D01*
X165240269Y-116097588D01*
X165435178Y-115881355D01*
X165510000Y-115755745D01*
X165584822Y-115881355D01*
X165779731Y-116097588D01*
X166013080Y-116271641D01*
X166275901Y-116396825D01*
X166423110Y-116441476D01*
X166653000Y-116320155D01*
X166653000Y-115127000D01*
X166907000Y-115127000D01*
X166907000Y-116320155D01*
X167136890Y-116441476D01*
X167284099Y-116396825D01*
X167546920Y-116271641D01*
X167780269Y-116097588D01*
X167975178Y-115881355D01*
X168050000Y-115755745D01*
X168124822Y-115881355D01*
X168319731Y-116097588D01*
X168553080Y-116271641D01*
X168815901Y-116396825D01*
X168963110Y-116441476D01*
X169193000Y-116320155D01*
X169193000Y-115127000D01*
X169447000Y-115127000D01*
X169447000Y-116320155D01*
X169676890Y-116441476D01*
X169824099Y-116396825D01*
X170086920Y-116271641D01*
X170320269Y-116097588D01*
X170515178Y-115881355D01*
X170590000Y-115755745D01*
X170664822Y-115881355D01*
X170859731Y-116097588D01*
X171093080Y-116271641D01*
X171355901Y-116396825D01*
X171503110Y-116441476D01*
X171733000Y-116320155D01*
X171733000Y-115127000D01*
X171987000Y-115127000D01*
X171987000Y-116320155D01*
X172216890Y-116441476D01*
X172364099Y-116396825D01*
X172626920Y-116271641D01*
X172860269Y-116097588D01*
X173055178Y-115881355D01*
X173130000Y-115755745D01*
X173204822Y-115881355D01*
X173399731Y-116097588D01*
X173633080Y-116271641D01*
X173895901Y-116396825D01*
X174043110Y-116441476D01*
X174273000Y-116320155D01*
X174273000Y-115127000D01*
X174527000Y-115127000D01*
X174527000Y-116320155D01*
X174756890Y-116441476D01*
X174904099Y-116396825D01*
X175166920Y-116271641D01*
X175400269Y-116097588D01*
X175595178Y-115881355D01*
X175670000Y-115755745D01*
X175744822Y-115881355D01*
X175939731Y-116097588D01*
X176173080Y-116271641D01*
X176435901Y-116396825D01*
X176583110Y-116441476D01*
X176813000Y-116320155D01*
X176813000Y-115127000D01*
X177067000Y-115127000D01*
X177067000Y-116320155D01*
X177296890Y-116441476D01*
X177444099Y-116396825D01*
X177689639Y-116279872D01*
X179265000Y-116279872D01*
X179265000Y-116720128D01*
X179350890Y-117151925D01*
X179519369Y-117558669D01*
X179763962Y-117924729D01*
X180075271Y-118236038D01*
X180441331Y-118480631D01*
X180848075Y-118649110D01*
X181279872Y-118735000D01*
X181720128Y-118735000D01*
X182151925Y-118649110D01*
X182558669Y-118480631D01*
X182924729Y-118236038D01*
X183236038Y-117924729D01*
X183480631Y-117558669D01*
X183649110Y-117151925D01*
X183735000Y-116720128D01*
X183735000Y-116279872D01*
X183649110Y-115848075D01*
X183480631Y-115441331D01*
X183236038Y-115075271D01*
X182924729Y-114763962D01*
X182558669Y-114519369D01*
X182151925Y-114350890D01*
X181720128Y-114265000D01*
X181279872Y-114265000D01*
X180848075Y-114350890D01*
X180441331Y-114519369D01*
X180075271Y-114763962D01*
X179763962Y-115075271D01*
X179519369Y-115441331D01*
X179350890Y-115848075D01*
X179265000Y-116279872D01*
X177689639Y-116279872D01*
X177706920Y-116271641D01*
X177940269Y-116097588D01*
X178135178Y-115881355D01*
X178284157Y-115631252D01*
X178381481Y-115356891D01*
X178260814Y-115127000D01*
X177067000Y-115127000D01*
X176813000Y-115127000D01*
X174527000Y-115127000D01*
X174273000Y-115127000D01*
X171987000Y-115127000D01*
X171733000Y-115127000D01*
X169447000Y-115127000D01*
X169193000Y-115127000D01*
X166907000Y-115127000D01*
X166653000Y-115127000D01*
X164367000Y-115127000D01*
X164113000Y-115127000D01*
X161827000Y-115127000D01*
X161573000Y-115127000D01*
X159287000Y-115127000D01*
X159033000Y-115127000D01*
X156747000Y-115127000D01*
X156493000Y-115127000D01*
X154207000Y-115127000D01*
X153953000Y-115127000D01*
X151667000Y-115127000D01*
X151413000Y-115127000D01*
X149127000Y-115127000D01*
X148873000Y-115127000D01*
X147673750Y-115127000D01*
X147515000Y-115285750D01*
X147511928Y-115850000D01*
X145660000Y-115850000D01*
X145660000Y-114150000D01*
X147511928Y-114150000D01*
X147515000Y-114714250D01*
X147673750Y-114873000D01*
X148873000Y-114873000D01*
X148873000Y-113673750D01*
X149127000Y-113673750D01*
X149127000Y-114873000D01*
X151413000Y-114873000D01*
X151413000Y-113679845D01*
X151667000Y-113679845D01*
X151667000Y-114873000D01*
X153953000Y-114873000D01*
X153953000Y-113679845D01*
X154207000Y-113679845D01*
X154207000Y-114873000D01*
X156493000Y-114873000D01*
X156493000Y-113679845D01*
X156747000Y-113679845D01*
X156747000Y-114873000D01*
X159033000Y-114873000D01*
X159033000Y-113679845D01*
X159287000Y-113679845D01*
X159287000Y-114873000D01*
X161573000Y-114873000D01*
X161573000Y-113679845D01*
X161827000Y-113679845D01*
X161827000Y-114873000D01*
X164113000Y-114873000D01*
X164113000Y-113679845D01*
X164367000Y-113679845D01*
X164367000Y-114873000D01*
X166653000Y-114873000D01*
X166653000Y-113679845D01*
X166907000Y-113679845D01*
X166907000Y-114873000D01*
X169193000Y-114873000D01*
X169193000Y-113679845D01*
X169447000Y-113679845D01*
X169447000Y-114873000D01*
X171733000Y-114873000D01*
X171733000Y-113679845D01*
X171987000Y-113679845D01*
X171987000Y-114873000D01*
X174273000Y-114873000D01*
X174273000Y-113679845D01*
X174527000Y-113679845D01*
X174527000Y-114873000D01*
X176813000Y-114873000D01*
X176813000Y-113679845D01*
X177067000Y-113679845D01*
X177067000Y-114873000D01*
X178260814Y-114873000D01*
X178381481Y-114643109D01*
X178284157Y-114368748D01*
X178135178Y-114118645D01*
X177940269Y-113902412D01*
X177706920Y-113728359D01*
X177444099Y-113603175D01*
X177296890Y-113558524D01*
X177067000Y-113679845D01*
X176813000Y-113679845D01*
X176583110Y-113558524D01*
X176435901Y-113603175D01*
X176173080Y-113728359D01*
X175939731Y-113902412D01*
X175744822Y-114118645D01*
X175670000Y-114244255D01*
X175595178Y-114118645D01*
X175400269Y-113902412D01*
X175166920Y-113728359D01*
X174904099Y-113603175D01*
X174756890Y-113558524D01*
X174527000Y-113679845D01*
X174273000Y-113679845D01*
X174043110Y-113558524D01*
X173895901Y-113603175D01*
X173633080Y-113728359D01*
X173399731Y-113902412D01*
X173204822Y-114118645D01*
X173130000Y-114244255D01*
X173055178Y-114118645D01*
X172860269Y-113902412D01*
X172626920Y-113728359D01*
X172364099Y-113603175D01*
X172216890Y-113558524D01*
X171987000Y-113679845D01*
X171733000Y-113679845D01*
X171503110Y-113558524D01*
X171355901Y-113603175D01*
X171093080Y-113728359D01*
X170859731Y-113902412D01*
X170664822Y-114118645D01*
X170590000Y-114244255D01*
X170515178Y-114118645D01*
X170320269Y-113902412D01*
X170086920Y-113728359D01*
X169824099Y-113603175D01*
X169676890Y-113558524D01*
X169447000Y-113679845D01*
X169193000Y-113679845D01*
X168963110Y-113558524D01*
X168815901Y-113603175D01*
X168553080Y-113728359D01*
X168319731Y-113902412D01*
X168124822Y-114118645D01*
X168050000Y-114244255D01*
X167975178Y-114118645D01*
X167780269Y-113902412D01*
X167546920Y-113728359D01*
X167284099Y-113603175D01*
X167136890Y-113558524D01*
X166907000Y-113679845D01*
X166653000Y-113679845D01*
X166423110Y-113558524D01*
X166275901Y-113603175D01*
X166013080Y-113728359D01*
X165779731Y-113902412D01*
X165584822Y-114118645D01*
X165510000Y-114244255D01*
X165435178Y-114118645D01*
X165240269Y-113902412D01*
X165006920Y-113728359D01*
X164744099Y-113603175D01*
X164596890Y-113558524D01*
X164367000Y-113679845D01*
X164113000Y-113679845D01*
X163883110Y-113558524D01*
X163735901Y-113603175D01*
X163473080Y-113728359D01*
X163239731Y-113902412D01*
X163044822Y-114118645D01*
X162970000Y-114244255D01*
X162895178Y-114118645D01*
X162700269Y-113902412D01*
X162466920Y-113728359D01*
X162204099Y-113603175D01*
X162056890Y-113558524D01*
X161827000Y-113679845D01*
X161573000Y-113679845D01*
X161343110Y-113558524D01*
X161195901Y-113603175D01*
X160933080Y-113728359D01*
X160699731Y-113902412D01*
X160504822Y-114118645D01*
X160430000Y-114244255D01*
X160355178Y-114118645D01*
X160160269Y-113902412D01*
X159926920Y-113728359D01*
X159664099Y-113603175D01*
X159516890Y-113558524D01*
X159287000Y-113679845D01*
X159033000Y-113679845D01*
X158803110Y-113558524D01*
X158655901Y-113603175D01*
X158393080Y-113728359D01*
X158159731Y-113902412D01*
X157964822Y-114118645D01*
X157890000Y-114244255D01*
X157815178Y-114118645D01*
X157620269Y-113902412D01*
X157386920Y-113728359D01*
X157124099Y-113603175D01*
X156976890Y-113558524D01*
X156747000Y-113679845D01*
X156493000Y-113679845D01*
X156263110Y-113558524D01*
X156115901Y-113603175D01*
X155853080Y-113728359D01*
X155619731Y-113902412D01*
X155424822Y-114118645D01*
X155350000Y-114244255D01*
X155275178Y-114118645D01*
X155080269Y-113902412D01*
X154846920Y-113728359D01*
X154584099Y-113603175D01*
X154436890Y-113558524D01*
X154207000Y-113679845D01*
X153953000Y-113679845D01*
X153723110Y-113558524D01*
X153575901Y-113603175D01*
X153313080Y-113728359D01*
X153079731Y-113902412D01*
X152884822Y-114118645D01*
X152810000Y-114244255D01*
X152735178Y-114118645D01*
X152540269Y-113902412D01*
X152306920Y-113728359D01*
X152044099Y-113603175D01*
X151896890Y-113558524D01*
X151667000Y-113679845D01*
X151413000Y-113679845D01*
X151183110Y-113558524D01*
X151035901Y-113603175D01*
X150773080Y-113728359D01*
X150539731Y-113902412D01*
X150463966Y-113986466D01*
X150439502Y-113905820D01*
X150380537Y-113795506D01*
X150301185Y-113698815D01*
X150204494Y-113619463D01*
X150094180Y-113560498D01*
X149974482Y-113524188D01*
X149850000Y-113511928D01*
X149285750Y-113515000D01*
X149127000Y-113673750D01*
X148873000Y-113673750D01*
X148714250Y-113515000D01*
X148150000Y-113511928D01*
X148025518Y-113524188D01*
X147905820Y-113560498D01*
X147795506Y-113619463D01*
X147698815Y-113698815D01*
X147619463Y-113795506D01*
X147560498Y-113905820D01*
X147524188Y-114025518D01*
X147511928Y-114150000D01*
X145660000Y-114150000D01*
X145660000Y-108719812D01*
X145868748Y-108844157D01*
X146143109Y-108941481D01*
X146373000Y-108820814D01*
X146373000Y-107627000D01*
X146353000Y-107627000D01*
X146353000Y-107373000D01*
X146373000Y-107373000D01*
X146373000Y-107353000D01*
X146627000Y-107353000D01*
X146627000Y-107373000D01*
X146647000Y-107373000D01*
X146647000Y-107627000D01*
X146627000Y-107627000D01*
X146627000Y-108820814D01*
X146856891Y-108941481D01*
X147131252Y-108844157D01*
X147381355Y-108695178D01*
X147597588Y-108500269D01*
X147771641Y-108266920D01*
X147865001Y-108070914D01*
X147865000Y-108779867D01*
X146636860Y-110008009D01*
X146593552Y-110043551D01*
X146451717Y-110216377D01*
X146346324Y-110413553D01*
X146281423Y-110627501D01*
X146270442Y-110738997D01*
X146259509Y-110850000D01*
X146265000Y-110905751D01*
X146265000Y-110968808D01*
X146261928Y-111000000D01*
X146261928Y-112500000D01*
X146274188Y-112624482D01*
X146310498Y-112744180D01*
X146369463Y-112854494D01*
X146448815Y-112951185D01*
X146545506Y-113030537D01*
X146655820Y-113089502D01*
X146775518Y-113125812D01*
X146900000Y-113138072D01*
X147400000Y-113138072D01*
X147424450Y-113135664D01*
X147449009Y-113135664D01*
X147573490Y-113123404D01*
X147669623Y-113104282D01*
X147789319Y-113067973D01*
X147879875Y-113030464D01*
X147990192Y-112971498D01*
X148071691Y-112917042D01*
X148168382Y-112837690D01*
X148237690Y-112768382D01*
X148317042Y-112671691D01*
X148371498Y-112590192D01*
X148430464Y-112479875D01*
X148467973Y-112389319D01*
X148504282Y-112269623D01*
X148523404Y-112173490D01*
X148535664Y-112049009D01*
X148535664Y-112024450D01*
X148538072Y-112000000D01*
X148538072Y-111950000D01*
X149524428Y-111950000D01*
X149536688Y-112074482D01*
X149572998Y-112194180D01*
X149631963Y-112304494D01*
X149711315Y-112401185D01*
X149808006Y-112480537D01*
X149918320Y-112539502D01*
X150038018Y-112575812D01*
X150162500Y-112588072D01*
X150389250Y-112585000D01*
X150548000Y-112426250D01*
X150548000Y-111377000D01*
X149686250Y-111377000D01*
X149527500Y-111535750D01*
X149524428Y-111950000D01*
X148538072Y-111950000D01*
X148538072Y-111500000D01*
X148535664Y-111475550D01*
X148535664Y-111450991D01*
X148535000Y-111444249D01*
X148535000Y-111320131D01*
X149600196Y-110254936D01*
X149572998Y-110305820D01*
X149536688Y-110425518D01*
X149524428Y-110550000D01*
X149527500Y-110964250D01*
X149686250Y-111123000D01*
X150548000Y-111123000D01*
X150548000Y-110073750D01*
X150389250Y-109915000D01*
X150162500Y-109911928D01*
X150038018Y-109924188D01*
X149918320Y-109960498D01*
X149859307Y-109992042D01*
X149860773Y-109990256D01*
X149948284Y-109883623D01*
X150053676Y-109686447D01*
X150118577Y-109472499D01*
X150140491Y-109250000D01*
X150135000Y-109194248D01*
X150135000Y-109077977D01*
X150237498Y-109088072D01*
X150762502Y-109088072D01*
X150935756Y-109071008D01*
X151102352Y-109020472D01*
X151255887Y-108938405D01*
X151390462Y-108827962D01*
X151412500Y-108801109D01*
X151434538Y-108827962D01*
X151565000Y-108935030D01*
X151565001Y-110038344D01*
X151541994Y-110019463D01*
X151431680Y-109960498D01*
X151311982Y-109924188D01*
X151187500Y-109911928D01*
X150960750Y-109915000D01*
X150802000Y-110073750D01*
X150802000Y-111123000D01*
X150822000Y-111123000D01*
X150822000Y-111377000D01*
X150802000Y-111377000D01*
X150802000Y-112426250D01*
X150960750Y-112585000D01*
X151187500Y-112588072D01*
X151311982Y-112575812D01*
X151431680Y-112539502D01*
X151541994Y-112480537D01*
X151638685Y-112401185D01*
X151662863Y-112371724D01*
X151744113Y-112438405D01*
X151897648Y-112520472D01*
X152064244Y-112571008D01*
X152237498Y-112588072D01*
X152762502Y-112588072D01*
X152935756Y-112571008D01*
X153102352Y-112520472D01*
X153255887Y-112438405D01*
X153390462Y-112327962D01*
X153500905Y-112193387D01*
X153582972Y-112039852D01*
X153633508Y-111873256D01*
X153650572Y-111700002D01*
X153650572Y-111255703D01*
X154658008Y-112263140D01*
X154693551Y-112306449D01*
X154866377Y-112448284D01*
X155063553Y-112553676D01*
X155277501Y-112618577D01*
X155444248Y-112635000D01*
X155444257Y-112635000D01*
X155499999Y-112640490D01*
X155555741Y-112635000D01*
X155854039Y-112635000D01*
X155919113Y-112688405D01*
X156072648Y-112770472D01*
X156239244Y-112821008D01*
X156412498Y-112838072D01*
X156937502Y-112838072D01*
X157110756Y-112821008D01*
X157277352Y-112770472D01*
X157430887Y-112688405D01*
X157565462Y-112577962D01*
X157587500Y-112551109D01*
X157609538Y-112577962D01*
X157744113Y-112688405D01*
X157897648Y-112770472D01*
X158064244Y-112821008D01*
X158237498Y-112838072D01*
X158762502Y-112838072D01*
X158935756Y-112821008D01*
X159102352Y-112770472D01*
X159255887Y-112688405D01*
X159320961Y-112635000D01*
X159444249Y-112635000D01*
X159500000Y-112640491D01*
X159555751Y-112635000D01*
X159555752Y-112635000D01*
X159722499Y-112618577D01*
X159936447Y-112553676D01*
X160133623Y-112448284D01*
X160306449Y-112306449D01*
X160341996Y-112263135D01*
X162341988Y-110263144D01*
X162448283Y-110133623D01*
X162553675Y-109936447D01*
X162618577Y-109722500D01*
X162640491Y-109500001D01*
X162618577Y-109277502D01*
X162575348Y-109135000D01*
X164856769Y-109135000D01*
X164912520Y-109140491D01*
X164968271Y-109135000D01*
X164968272Y-109135000D01*
X165135019Y-109118577D01*
X165348967Y-109053676D01*
X165546143Y-108948284D01*
X165647484Y-108865115D01*
X166958009Y-110175641D01*
X166993551Y-110218949D01*
X167166377Y-110360784D01*
X167352275Y-110460148D01*
X167363553Y-110466176D01*
X167577501Y-110531077D01*
X167799999Y-110552991D01*
X167855751Y-110547500D01*
X167891893Y-110547500D01*
X168049998Y-110563072D01*
X168950002Y-110563072D01*
X169108107Y-110547500D01*
X170558559Y-110547500D01*
X170716664Y-110563072D01*
X171616668Y-110563072D01*
X171774773Y-110547500D01*
X173225225Y-110547500D01*
X173383330Y-110563072D01*
X174283334Y-110563072D01*
X174441439Y-110547500D01*
X175891893Y-110547500D01*
X176049998Y-110563072D01*
X176950002Y-110563072D01*
X177123256Y-110546008D01*
X177289852Y-110495472D01*
X177443387Y-110413405D01*
X177577962Y-110302962D01*
X177688405Y-110168387D01*
X177770472Y-110014852D01*
X177821008Y-109848256D01*
X177838072Y-109675002D01*
X177838072Y-109149998D01*
X177821008Y-108976744D01*
X177770472Y-108810148D01*
X177688405Y-108656613D01*
X177577962Y-108522038D01*
X177551109Y-108500000D01*
X177577962Y-108477962D01*
X177688405Y-108343387D01*
X177770472Y-108189852D01*
X177821008Y-108023256D01*
X177838072Y-107850002D01*
X177838072Y-107324998D01*
X177821008Y-107151744D01*
X177770472Y-106985148D01*
X177688405Y-106831613D01*
X177635000Y-106766539D01*
X177635000Y-104550752D01*
X177640491Y-104495000D01*
X177618577Y-104272502D01*
X177613750Y-104256589D01*
X177553676Y-104058553D01*
X177508072Y-103973233D01*
X177508072Y-103085000D01*
X177495812Y-102960518D01*
X177459502Y-102840820D01*
X177400537Y-102730506D01*
X177321185Y-102633815D01*
X177224494Y-102554463D01*
X177114180Y-102495498D01*
X176994482Y-102459188D01*
X176870000Y-102446928D01*
X175750000Y-102446928D01*
X175625518Y-102459188D01*
X175505820Y-102495498D01*
X175395506Y-102554463D01*
X175298815Y-102633815D01*
X175219463Y-102730506D01*
X175160498Y-102840820D01*
X175124188Y-102960518D01*
X175111928Y-103085000D01*
X175111928Y-105525000D01*
X175124188Y-105649482D01*
X175160498Y-105769180D01*
X175219463Y-105879494D01*
X175298815Y-105976185D01*
X175365001Y-106030502D01*
X175365000Y-106766539D01*
X175311595Y-106831613D01*
X175229528Y-106985148D01*
X175178992Y-107151744D01*
X175166666Y-107276892D01*
X175154340Y-107151744D01*
X175103804Y-106985148D01*
X175021737Y-106831613D01*
X174968332Y-106766539D01*
X174968332Y-104424083D01*
X174973823Y-104368332D01*
X174968072Y-104309941D01*
X174968072Y-103085000D01*
X174955812Y-102960518D01*
X174919502Y-102840820D01*
X174860537Y-102730506D01*
X174781185Y-102633815D01*
X174684494Y-102554463D01*
X174574180Y-102495498D01*
X174454482Y-102459188D01*
X174330000Y-102446928D01*
X173210000Y-102446928D01*
X173085518Y-102459188D01*
X172965820Y-102495498D01*
X172855506Y-102554463D01*
X172758815Y-102633815D01*
X172679463Y-102730506D01*
X172620498Y-102840820D01*
X172584188Y-102960518D01*
X172571928Y-103085000D01*
X172571928Y-105525000D01*
X172584188Y-105649482D01*
X172620498Y-105769180D01*
X172679463Y-105879494D01*
X172698333Y-105902487D01*
X172698332Y-106766539D01*
X172644927Y-106831613D01*
X172562860Y-106985148D01*
X172512324Y-107151744D01*
X172499999Y-107276882D01*
X172487674Y-107151744D01*
X172437138Y-106985148D01*
X172355071Y-106831613D01*
X172301666Y-106766539D01*
X172301666Y-105902488D01*
X172320537Y-105879494D01*
X172379502Y-105769180D01*
X172415812Y-105649482D01*
X172428072Y-105525000D01*
X172428072Y-103085000D01*
X172415812Y-102960518D01*
X172379502Y-102840820D01*
X172320537Y-102730506D01*
X172241185Y-102633815D01*
X172144494Y-102554463D01*
X172034180Y-102495498D01*
X171914482Y-102459188D01*
X171790000Y-102446928D01*
X170670000Y-102446928D01*
X170545518Y-102459188D01*
X170425820Y-102495498D01*
X170315506Y-102554463D01*
X170218815Y-102633815D01*
X170139463Y-102730506D01*
X170080498Y-102840820D01*
X170044188Y-102960518D01*
X170031928Y-103085000D01*
X170031928Y-104309922D01*
X170026175Y-104368334D01*
X170031667Y-104424095D01*
X170031666Y-106766539D01*
X169978261Y-106831613D01*
X169896194Y-106985148D01*
X169845658Y-107151744D01*
X169833333Y-107276882D01*
X169825000Y-107192276D01*
X169825000Y-105796311D01*
X169839502Y-105769180D01*
X169875812Y-105649482D01*
X169888072Y-105525000D01*
X169888072Y-103085000D01*
X169875812Y-102960518D01*
X169839502Y-102840820D01*
X169780537Y-102730506D01*
X169701185Y-102633815D01*
X169604494Y-102554463D01*
X169494180Y-102495498D01*
X169374482Y-102459188D01*
X169250000Y-102446928D01*
X168130000Y-102446928D01*
X168005518Y-102459188D01*
X167885820Y-102495498D01*
X167775506Y-102554463D01*
X167678815Y-102633815D01*
X167599463Y-102730506D01*
X167540498Y-102840820D01*
X167504188Y-102960518D01*
X167491928Y-103085000D01*
X167491928Y-105525000D01*
X167504188Y-105649482D01*
X167540498Y-105769180D01*
X167555000Y-105796312D01*
X167555001Y-106587918D01*
X167422038Y-106697038D01*
X167311595Y-106831613D01*
X167229528Y-106985148D01*
X167178992Y-107151744D01*
X167175888Y-107183257D01*
X166785010Y-106792379D01*
X166785010Y-102618262D01*
X166790501Y-102562510D01*
X166768587Y-102340011D01*
X166703686Y-102126063D01*
X166598294Y-101928887D01*
X166537231Y-101854482D01*
X166456459Y-101756061D01*
X166413150Y-101720518D01*
X165837574Y-101144943D01*
X165821008Y-100976744D01*
X165770472Y-100810148D01*
X165688405Y-100656613D01*
X165577962Y-100522038D01*
X165551109Y-100500000D01*
X165577962Y-100477962D01*
X165688405Y-100343387D01*
X165770472Y-100189852D01*
X165821008Y-100023256D01*
X165838072Y-99850002D01*
X165838072Y-99324998D01*
X165821008Y-99151744D01*
X165770472Y-98985148D01*
X165688405Y-98831613D01*
X165635000Y-98766539D01*
X165635000Y-97970131D01*
X166775132Y-96830000D01*
X167491928Y-96830000D01*
X167491928Y-96915000D01*
X167504188Y-97039482D01*
X167540498Y-97159180D01*
X167599463Y-97269494D01*
X167678815Y-97366185D01*
X167775506Y-97445537D01*
X167885820Y-97504502D01*
X168005518Y-97540812D01*
X168130000Y-97553072D01*
X169250000Y-97553072D01*
X169374482Y-97540812D01*
X169494180Y-97504502D01*
X169604494Y-97445537D01*
X169701185Y-97366185D01*
X169780537Y-97269494D01*
X169839502Y-97159180D01*
X169875812Y-97039482D01*
X169888072Y-96915000D01*
X169888072Y-96830000D01*
X170031928Y-96830000D01*
X170031928Y-96915000D01*
X170044188Y-97039482D01*
X170080498Y-97159180D01*
X170139463Y-97269494D01*
X170218815Y-97366185D01*
X170315506Y-97445537D01*
X170425820Y-97504502D01*
X170545518Y-97540812D01*
X170670000Y-97553072D01*
X171790000Y-97553072D01*
X171914482Y-97540812D01*
X172034180Y-97504502D01*
X172144494Y-97445537D01*
X172241185Y-97366185D01*
X172320537Y-97269494D01*
X172379502Y-97159180D01*
X172415812Y-97039482D01*
X172428072Y-96915000D01*
X172428072Y-96830000D01*
X172571928Y-96830000D01*
X172571928Y-96915000D01*
X172584188Y-97039482D01*
X172620498Y-97159180D01*
X172679463Y-97269494D01*
X172758815Y-97366185D01*
X172855506Y-97445537D01*
X172965820Y-97504502D01*
X173085518Y-97540812D01*
X173210000Y-97553072D01*
X174330000Y-97553072D01*
X174454482Y-97540812D01*
X174574180Y-97504502D01*
X174684494Y-97445537D01*
X174781185Y-97366185D01*
X174860537Y-97269494D01*
X174919502Y-97159180D01*
X174955812Y-97039482D01*
X174968072Y-96915000D01*
X174968072Y-96830000D01*
X175111928Y-96830000D01*
X175111928Y-96915000D01*
X175124188Y-97039482D01*
X175160498Y-97159180D01*
X175219463Y-97269494D01*
X175298815Y-97366185D01*
X175395506Y-97445537D01*
X175505820Y-97504502D01*
X175625518Y-97540812D01*
X175750000Y-97553072D01*
X176870000Y-97553072D01*
X176994482Y-97540812D01*
X177114180Y-97504502D01*
X177224494Y-97445537D01*
X177321185Y-97366185D01*
X177400537Y-97269494D01*
X177459502Y-97159180D01*
X177495812Y-97039482D01*
X177508072Y-96915000D01*
X177508072Y-94475000D01*
X177506783Y-94461915D01*
X178779898Y-95735030D01*
X178781422Y-95750499D01*
X178846323Y-95964447D01*
X178951715Y-96161624D01*
X179093550Y-96334450D01*
X179136864Y-96369997D01*
X179207027Y-96440160D01*
X179129528Y-96585150D01*
X179078992Y-96751746D01*
X179061928Y-96925000D01*
X179061928Y-98075000D01*
X179078992Y-98248254D01*
X179129528Y-98414850D01*
X179211595Y-98568386D01*
X179322038Y-98702962D01*
X179456614Y-98813405D01*
X179610150Y-98895472D01*
X179776746Y-98946008D01*
X179950000Y-98963072D01*
X181050000Y-98963072D01*
X181223254Y-98946008D01*
X181389850Y-98895472D01*
X181543386Y-98813405D01*
X181677962Y-98702962D01*
X181788405Y-98568386D01*
X181870472Y-98414850D01*
X181912200Y-98277291D01*
X181911928Y-98325000D01*
X181924188Y-98449482D01*
X181960498Y-98569180D01*
X182019463Y-98679494D01*
X182098815Y-98776185D01*
X182195506Y-98855537D01*
X182305820Y-98914502D01*
X182425518Y-98950812D01*
X182550000Y-98963072D01*
X183064250Y-98960000D01*
X183223000Y-98801250D01*
X183223000Y-97627000D01*
X183203000Y-97627000D01*
X183203000Y-97373000D01*
X183223000Y-97373000D01*
X183223000Y-96198750D01*
X183064250Y-96040000D01*
X182550000Y-96036928D01*
X182425518Y-96049188D01*
X182305820Y-96085498D01*
X182195506Y-96144463D01*
X182098815Y-96223815D01*
X182019463Y-96320506D01*
X181960498Y-96430820D01*
X181924188Y-96550518D01*
X181911928Y-96675000D01*
X181912200Y-96722709D01*
X181870472Y-96585150D01*
X181788405Y-96431614D01*
X181677962Y-96297038D01*
X181635000Y-96261780D01*
X181635000Y-96155753D01*
X181640491Y-96100001D01*
X181634582Y-96040000D01*
X181618577Y-95877502D01*
X181553676Y-95663554D01*
X181448284Y-95466378D01*
X181306449Y-95293552D01*
X181133623Y-95151717D01*
X181123361Y-95146232D01*
X181020100Y-95042971D01*
X181018576Y-95027500D01*
X180953675Y-94813552D01*
X180848283Y-94616376D01*
X180802016Y-94560000D01*
X180706448Y-94443550D01*
X180663140Y-94408008D01*
X177991996Y-91736865D01*
X177956449Y-91693551D01*
X177783623Y-91551716D01*
X177586447Y-91446324D01*
X177372499Y-91381423D01*
X177205752Y-91365000D01*
X177205751Y-91365000D01*
X177150000Y-91359509D01*
X177094249Y-91365000D01*
X175820961Y-91365000D01*
X175755887Y-91311595D01*
X175602352Y-91229528D01*
X175435756Y-91178992D01*
X175262502Y-91161928D01*
X174922490Y-91161928D01*
X174922490Y-90279872D01*
X179265000Y-90279872D01*
X179265000Y-90720128D01*
X179350890Y-91151925D01*
X179519369Y-91558669D01*
X179763962Y-91924729D01*
X180075271Y-92236038D01*
X180441331Y-92480631D01*
X180848075Y-92649110D01*
X181279872Y-92735000D01*
X181720128Y-92735000D01*
X182151925Y-92649110D01*
X182558669Y-92480631D01*
X182924729Y-92236038D01*
X183236038Y-91924729D01*
X183480631Y-91558669D01*
X183649110Y-91151925D01*
X183735000Y-90720128D01*
X183735000Y-90279872D01*
X183649110Y-89848075D01*
X183480631Y-89441331D01*
X183236038Y-89075271D01*
X182924729Y-88763962D01*
X182558669Y-88519369D01*
X182151925Y-88350890D01*
X181720128Y-88265000D01*
X181279872Y-88265000D01*
X180848075Y-88350890D01*
X180441331Y-88519369D01*
X180075271Y-88763962D01*
X179763962Y-89075271D01*
X179519369Y-89441331D01*
X179350890Y-89848075D01*
X179265000Y-90279872D01*
X174922490Y-90279872D01*
X174922490Y-90209891D01*
X175083158Y-90177932D01*
X175353411Y-90065990D01*
X175596632Y-89903475D01*
X175803475Y-89696632D01*
X175925195Y-89514466D01*
X175994822Y-89631355D01*
X176189731Y-89847588D01*
X176423080Y-90021641D01*
X176685901Y-90146825D01*
X176833110Y-90191476D01*
X177063000Y-90070155D01*
X177063000Y-88877000D01*
X177317000Y-88877000D01*
X177317000Y-90070155D01*
X177546890Y-90191476D01*
X177694099Y-90146825D01*
X177956920Y-90021641D01*
X178190269Y-89847588D01*
X178385178Y-89631355D01*
X178534157Y-89381252D01*
X178631481Y-89106891D01*
X178510814Y-88877000D01*
X177317000Y-88877000D01*
X177063000Y-88877000D01*
X177043000Y-88877000D01*
X177043000Y-88623000D01*
X177063000Y-88623000D01*
X177063000Y-88603000D01*
X177317000Y-88603000D01*
X177317000Y-88623000D01*
X178510814Y-88623000D01*
X178631481Y-88393109D01*
X178534157Y-88118748D01*
X178385178Y-87868645D01*
X178197109Y-87660000D01*
X180967722Y-87660000D01*
X181648126Y-87726714D01*
G37*
%TD.AperFunction*%
D18*
X155222038Y-107590462D02*
X155356613Y-107700905D01*
X155510148Y-107782972D01*
X155676744Y-107833508D01*
X155844943Y-107850074D01*
X156758013Y-108763146D01*
X156793551Y-108806449D01*
X156836854Y-108841987D01*
X156836856Y-108841989D01*
X156966377Y-108948284D01*
X157163553Y-109053676D01*
X157377501Y-109118577D01*
X157600000Y-109140491D01*
X157655752Y-109135000D01*
X160259868Y-109135000D01*
X159143400Y-110251469D01*
X159102352Y-110229528D01*
X158935756Y-110178992D01*
X158762502Y-110161928D01*
X158237498Y-110161928D01*
X158064244Y-110178992D01*
X157897648Y-110229528D01*
X157744113Y-110311595D01*
X157609538Y-110422038D01*
X157587500Y-110448891D01*
X157565462Y-110422038D01*
X157430887Y-110311595D01*
X157277352Y-110229528D01*
X157110756Y-110178992D01*
X156937502Y-110161928D01*
X156412498Y-110161928D01*
X156239244Y-110178992D01*
X156072648Y-110229528D01*
X155919113Y-110311595D01*
X155917802Y-110312671D01*
X155135000Y-109529869D01*
X155135000Y-107484406D01*
X155222038Y-107590462D01*
%TA.AperFunction,Conductor*%
D19*
G36*
X155222038Y-107590462D02*
G01*
X155356613Y-107700905D01*
X155510148Y-107782972D01*
X155676744Y-107833508D01*
X155844943Y-107850074D01*
X156758013Y-108763146D01*
X156793551Y-108806449D01*
X156836854Y-108841987D01*
X156836856Y-108841989D01*
X156966377Y-108948284D01*
X157163553Y-109053676D01*
X157377501Y-109118577D01*
X157600000Y-109140491D01*
X157655752Y-109135000D01*
X160259868Y-109135000D01*
X159143400Y-110251469D01*
X159102352Y-110229528D01*
X158935756Y-110178992D01*
X158762502Y-110161928D01*
X158237498Y-110161928D01*
X158064244Y-110178992D01*
X157897648Y-110229528D01*
X157744113Y-110311595D01*
X157609538Y-110422038D01*
X157587500Y-110448891D01*
X157565462Y-110422038D01*
X157430887Y-110311595D01*
X157277352Y-110229528D01*
X157110756Y-110178992D01*
X156937502Y-110161928D01*
X156412498Y-110161928D01*
X156239244Y-110178992D01*
X156072648Y-110229528D01*
X155919113Y-110311595D01*
X155917802Y-110312671D01*
X155135000Y-109529869D01*
X155135000Y-107484406D01*
X155222038Y-107590462D01*
G37*
%TD.AperFunction*%
D18*
X163498815Y-106676185D02*
X163595506Y-106755537D01*
X163705820Y-106814502D01*
X163825518Y-106850812D01*
X163950000Y-106863072D01*
X164164250Y-106860000D01*
X164322998Y-106701252D01*
X164322998Y-106860000D01*
X164447389Y-106860000D01*
X164442389Y-106865000D01*
X162259801Y-106865000D01*
X162265161Y-106859641D01*
X162300000Y-106863072D01*
X162800000Y-106863072D01*
X162973254Y-106846008D01*
X163139850Y-106795472D01*
X163293386Y-106713405D01*
X163427962Y-106602962D01*
X163433342Y-106596406D01*
X163498815Y-106676185D01*
%TA.AperFunction,Conductor*%
D19*
G36*
X163498815Y-106676185D02*
G01*
X163595506Y-106755537D01*
X163705820Y-106814502D01*
X163825518Y-106850812D01*
X163950000Y-106863072D01*
X164164250Y-106860000D01*
X164322998Y-106701252D01*
X164322998Y-106860000D01*
X164447389Y-106860000D01*
X164442389Y-106865000D01*
X162259801Y-106865000D01*
X162265161Y-106859641D01*
X162300000Y-106863072D01*
X162800000Y-106863072D01*
X162973254Y-106846008D01*
X163139850Y-106795472D01*
X163293386Y-106713405D01*
X163427962Y-106602962D01*
X163433342Y-106596406D01*
X163498815Y-106676185D01*
G37*
%TD.AperFunction*%
D18*
X152865000Y-105220133D02*
X152865000Y-105916146D01*
X152740256Y-105832795D01*
X152551898Y-105754774D01*
X152351939Y-105715000D01*
X152148061Y-105715000D01*
X151948102Y-105754774D01*
X151759744Y-105832795D01*
X151590226Y-105946063D01*
X151446063Y-106090226D01*
X151332795Y-106259744D01*
X151254774Y-106448102D01*
X151234476Y-106550150D01*
X151102352Y-106479528D01*
X150935756Y-106428992D01*
X150762502Y-106411928D01*
X150237498Y-106411928D01*
X150135000Y-106422023D01*
X150135000Y-105694248D01*
X150128179Y-105624994D01*
X150140490Y-105499999D01*
X150118576Y-105277500D01*
X150053675Y-105063552D01*
X149948283Y-104866377D01*
X149841988Y-104736857D01*
X149301996Y-104196865D01*
X149266449Y-104153551D01*
X149093623Y-104011716D01*
X148896447Y-103906324D01*
X148682499Y-103841423D01*
X148515752Y-103825000D01*
X148515751Y-103825000D01*
X148460000Y-103819509D01*
X148404249Y-103825000D01*
X147465107Y-103825000D01*
X147446632Y-103806525D01*
X147272240Y-103690000D01*
X147446632Y-103573475D01*
X147465107Y-103555000D01*
X151199869Y-103555000D01*
X152865000Y-105220133D01*
%TA.AperFunction,Conductor*%
D19*
G36*
X152865000Y-105220133D02*
G01*
X152865000Y-105916146D01*
X152740256Y-105832795D01*
X152551898Y-105754774D01*
X152351939Y-105715000D01*
X152148061Y-105715000D01*
X151948102Y-105754774D01*
X151759744Y-105832795D01*
X151590226Y-105946063D01*
X151446063Y-106090226D01*
X151332795Y-106259744D01*
X151254774Y-106448102D01*
X151234476Y-106550150D01*
X151102352Y-106479528D01*
X150935756Y-106428992D01*
X150762502Y-106411928D01*
X150237498Y-106411928D01*
X150135000Y-106422023D01*
X150135000Y-105694248D01*
X150128179Y-105624994D01*
X150140490Y-105499999D01*
X150118576Y-105277500D01*
X150053675Y-105063552D01*
X149948283Y-104866377D01*
X149841988Y-104736857D01*
X149301996Y-104196865D01*
X149266449Y-104153551D01*
X149093623Y-104011716D01*
X148896447Y-103906324D01*
X148682499Y-103841423D01*
X148515752Y-103825000D01*
X148515751Y-103825000D01*
X148460000Y-103819509D01*
X148404249Y-103825000D01*
X147465107Y-103825000D01*
X147446632Y-103806525D01*
X147272240Y-103690000D01*
X147446632Y-103573475D01*
X147465107Y-103555000D01*
X151199869Y-103555000D01*
X152865000Y-105220133D01*
G37*
%TD.AperFunction*%
D18*
X161658008Y-102763140D02*
X161693551Y-102806449D01*
X161754474Y-102856447D01*
X161866377Y-102948284D01*
X162063553Y-103053676D01*
X162277501Y-103118577D01*
X162500000Y-103140491D01*
X162722499Y-103118577D01*
X162936446Y-103053676D01*
X162971405Y-103034990D01*
X163133623Y-102948284D01*
X163306449Y-102806449D01*
X163448284Y-102633623D01*
X163553676Y-102436447D01*
X163560100Y-102415269D01*
X163710148Y-102495472D01*
X163876744Y-102546008D01*
X164044943Y-102562574D01*
X164515011Y-103032643D01*
X164515010Y-105647000D01*
X164323000Y-105647000D01*
X164323000Y-105627000D01*
X164303000Y-105627000D01*
X164303000Y-105373000D01*
X164323000Y-105373000D01*
X164323000Y-104298750D01*
X164164250Y-104140000D01*
X163950000Y-104136928D01*
X163825518Y-104149188D01*
X163705820Y-104185498D01*
X163595506Y-104244463D01*
X163498815Y-104323815D01*
X163433342Y-104403594D01*
X163427962Y-104397038D01*
X163293386Y-104286595D01*
X163139850Y-104204528D01*
X162973254Y-104153992D01*
X162800000Y-104136928D01*
X162300000Y-104136928D01*
X162126746Y-104153992D01*
X161960150Y-104204528D01*
X161806614Y-104286595D01*
X161806223Y-104286916D01*
X161754494Y-104244463D01*
X161644180Y-104185498D01*
X161524482Y-104149188D01*
X161400000Y-104136928D01*
X161375697Y-104137276D01*
X161400812Y-104054482D01*
X161413072Y-103930000D01*
X161413072Y-102870000D01*
X161400812Y-102745518D01*
X161364502Y-102625820D01*
X161305537Y-102515506D01*
X161226185Y-102418815D01*
X161168911Y-102371811D01*
X161157744Y-102335000D01*
X161229869Y-102335000D01*
X161658008Y-102763140D01*
%TA.AperFunction,Conductor*%
D19*
G36*
X161658008Y-102763140D02*
G01*
X161693551Y-102806449D01*
X161754474Y-102856447D01*
X161866377Y-102948284D01*
X162063553Y-103053676D01*
X162277501Y-103118577D01*
X162500000Y-103140491D01*
X162722499Y-103118577D01*
X162936446Y-103053676D01*
X162971405Y-103034990D01*
X163133623Y-102948284D01*
X163306449Y-102806449D01*
X163448284Y-102633623D01*
X163553676Y-102436447D01*
X163560100Y-102415269D01*
X163710148Y-102495472D01*
X163876744Y-102546008D01*
X164044943Y-102562574D01*
X164515011Y-103032643D01*
X164515010Y-105647000D01*
X164323000Y-105647000D01*
X164323000Y-105627000D01*
X164303000Y-105627000D01*
X164303000Y-105373000D01*
X164323000Y-105373000D01*
X164323000Y-104298750D01*
X164164250Y-104140000D01*
X163950000Y-104136928D01*
X163825518Y-104149188D01*
X163705820Y-104185498D01*
X163595506Y-104244463D01*
X163498815Y-104323815D01*
X163433342Y-104403594D01*
X163427962Y-104397038D01*
X163293386Y-104286595D01*
X163139850Y-104204528D01*
X162973254Y-104153992D01*
X162800000Y-104136928D01*
X162300000Y-104136928D01*
X162126746Y-104153992D01*
X161960150Y-104204528D01*
X161806614Y-104286595D01*
X161806223Y-104286916D01*
X161754494Y-104244463D01*
X161644180Y-104185498D01*
X161524482Y-104149188D01*
X161400000Y-104136928D01*
X161375697Y-104137276D01*
X161400812Y-104054482D01*
X161413072Y-103930000D01*
X161413072Y-102870000D01*
X161400812Y-102745518D01*
X161364502Y-102625820D01*
X161305537Y-102515506D01*
X161226185Y-102418815D01*
X161168911Y-102371811D01*
X161157744Y-102335000D01*
X161229869Y-102335000D01*
X161658008Y-102763140D01*
G37*
%TD.AperFunction*%
D18*
X161027000Y-105373000D02*
X161047000Y-105373000D01*
X161047000Y-105627000D01*
X161027000Y-105627000D01*
X161027000Y-105647000D01*
X160773000Y-105647000D01*
X160773000Y-105627000D01*
X160753000Y-105627000D01*
X160753000Y-105373000D01*
X160773000Y-105373000D01*
X160773000Y-105353000D01*
X161027000Y-105353000D01*
X161027000Y-105373000D01*
%TA.AperFunction,Conductor*%
D19*
G36*
X161027000Y-105373000D02*
G01*
X161047000Y-105373000D01*
X161047000Y-105627000D01*
X161027000Y-105627000D01*
X161027000Y-105647000D01*
X160773000Y-105647000D01*
X160773000Y-105627000D01*
X160753000Y-105627000D01*
X160753000Y-105373000D01*
X160773000Y-105373000D01*
X160773000Y-105353000D01*
X161027000Y-105353000D01*
X161027000Y-105373000D01*
G37*
%TD.AperFunction*%
D18*
X147765000Y-88464250D02*
X147923750Y-88623000D01*
X149123000Y-88623000D01*
X149123000Y-88603000D01*
X149377000Y-88603000D01*
X149377000Y-88623000D01*
X151663000Y-88623000D01*
X151663000Y-88603000D01*
X151917000Y-88603000D01*
X151917000Y-88623000D01*
X154203000Y-88623000D01*
X154203000Y-88603000D01*
X154457000Y-88603000D01*
X154457000Y-88623000D01*
X154477000Y-88623000D01*
X154477000Y-88877000D01*
X154457000Y-88877000D01*
X154457000Y-90070155D01*
X154686890Y-90191476D01*
X154834099Y-90146825D01*
X155096920Y-90021641D01*
X155330269Y-89847588D01*
X155525178Y-89631355D01*
X155594805Y-89514466D01*
X155716525Y-89696632D01*
X155815001Y-89795108D01*
X155815000Y-92089265D01*
X155782958Y-92128309D01*
X155728502Y-92209808D01*
X155669536Y-92320125D01*
X155632027Y-92410681D01*
X155595718Y-92530377D01*
X155576596Y-92626510D01*
X155564336Y-92750991D01*
X155564336Y-92775550D01*
X155561928Y-92800000D01*
X155561928Y-93300000D01*
X155574188Y-93424482D01*
X155581929Y-93450000D01*
X155574188Y-93475518D01*
X155561928Y-93600000D01*
X155561928Y-94100000D01*
X155564336Y-94124450D01*
X155564336Y-94149009D01*
X155576596Y-94273490D01*
X155595718Y-94369623D01*
X155632027Y-94489319D01*
X155669536Y-94579875D01*
X155728502Y-94690192D01*
X155782958Y-94771691D01*
X155815000Y-94810735D01*
X155815001Y-95708245D01*
X155751736Y-95760166D01*
X155730537Y-95720506D01*
X155651185Y-95623815D01*
X155554494Y-95544463D01*
X155444180Y-95485498D01*
X155324482Y-95449188D01*
X155200000Y-95436928D01*
X154785750Y-95440000D01*
X154627000Y-95598750D01*
X154627000Y-96460500D01*
X154647000Y-96460500D01*
X154647000Y-96714500D01*
X154627000Y-96714500D01*
X154627000Y-96734500D01*
X154373000Y-96734500D01*
X154373000Y-96714500D01*
X153323750Y-96714500D01*
X153165000Y-96873250D01*
X153161928Y-97100000D01*
X153174188Y-97224482D01*
X153210498Y-97344180D01*
X153269463Y-97454494D01*
X153348815Y-97551185D01*
X153378276Y-97575363D01*
X153311595Y-97656613D01*
X153229528Y-97810148D01*
X153178992Y-97976744D01*
X153161928Y-98149998D01*
X153161928Y-98675002D01*
X153178992Y-98848256D01*
X153229528Y-99014852D01*
X153311595Y-99168387D01*
X153422038Y-99302962D01*
X153556613Y-99413405D01*
X153710148Y-99495472D01*
X153876744Y-99546008D01*
X154049998Y-99563072D01*
X154950002Y-99563072D01*
X155123256Y-99546008D01*
X155289852Y-99495472D01*
X155443387Y-99413405D01*
X155540001Y-99334116D01*
X155540000Y-100112889D01*
X155485150Y-100129528D01*
X155331614Y-100211595D01*
X155197038Y-100322038D01*
X155086595Y-100456614D01*
X155004528Y-100610150D01*
X154953992Y-100776746D01*
X154936928Y-100950000D01*
X154936928Y-101450000D01*
X154953992Y-101623254D01*
X154977346Y-101700244D01*
X154935009Y-101734989D01*
X154911211Y-101763987D01*
X154238024Y-102437175D01*
X154175886Y-102437175D01*
X153975927Y-102476949D01*
X153787569Y-102554970D01*
X153618051Y-102668238D01*
X153570710Y-102715579D01*
X152511996Y-101656864D01*
X152476449Y-101613551D01*
X152303623Y-101471716D01*
X152106447Y-101366324D01*
X151892499Y-101301423D01*
X151725752Y-101285000D01*
X151725751Y-101285000D01*
X151670000Y-101279509D01*
X151614249Y-101285000D01*
X147658728Y-101285000D01*
X147704494Y-101260537D01*
X147801185Y-101181185D01*
X147880537Y-101084494D01*
X147939502Y-100974180D01*
X147975812Y-100854482D01*
X147988072Y-100730000D01*
X147985000Y-100165750D01*
X147826250Y-100007000D01*
X146627000Y-100007000D01*
X146627000Y-100027000D01*
X146373000Y-100027000D01*
X146373000Y-100007000D01*
X146353000Y-100007000D01*
X146353000Y-99753000D01*
X146373000Y-99753000D01*
X146373000Y-98553750D01*
X146627000Y-98553750D01*
X146627000Y-99753000D01*
X147826250Y-99753000D01*
X147985000Y-99594250D01*
X147988072Y-99030000D01*
X147975812Y-98905518D01*
X147939502Y-98785820D01*
X147880537Y-98675506D01*
X147801185Y-98578815D01*
X147704494Y-98499463D01*
X147594180Y-98440498D01*
X147474482Y-98404188D01*
X147350000Y-98391928D01*
X146785750Y-98395000D01*
X146627000Y-98553750D01*
X146373000Y-98553750D01*
X146214250Y-98395000D01*
X145660000Y-98391982D01*
X145660000Y-93779872D01*
X146265000Y-93779872D01*
X146265000Y-94220128D01*
X146350890Y-94651925D01*
X146519369Y-95058669D01*
X146763962Y-95424729D01*
X147075271Y-95736038D01*
X147441331Y-95980631D01*
X147848075Y-96149110D01*
X148279872Y-96235000D01*
X148720128Y-96235000D01*
X149151925Y-96149110D01*
X149330842Y-96075000D01*
X153161928Y-96075000D01*
X153165000Y-96301750D01*
X153323750Y-96460500D01*
X154373000Y-96460500D01*
X154373000Y-95598750D01*
X154214250Y-95440000D01*
X153800000Y-95436928D01*
X153675518Y-95449188D01*
X153555820Y-95485498D01*
X153445506Y-95544463D01*
X153348815Y-95623815D01*
X153269463Y-95720506D01*
X153210498Y-95830820D01*
X153174188Y-95950518D01*
X153161928Y-96075000D01*
X149330842Y-96075000D01*
X149558669Y-95980631D01*
X149924729Y-95736038D01*
X150236038Y-95424729D01*
X150480631Y-95058669D01*
X150649110Y-94651925D01*
X150735000Y-94220128D01*
X150735000Y-93779872D01*
X150649110Y-93348075D01*
X150480631Y-92941331D01*
X150236038Y-92575271D01*
X149924729Y-92263962D01*
X149558669Y-92019369D01*
X149151925Y-91850890D01*
X148720128Y-91765000D01*
X148279872Y-91765000D01*
X147848075Y-91850890D01*
X147441331Y-92019369D01*
X147075271Y-92263962D01*
X146763962Y-92575271D01*
X146519369Y-92941331D01*
X146350890Y-93348075D01*
X146265000Y-93779872D01*
X145660000Y-93779872D01*
X145660000Y-91032278D01*
X145726714Y-90351874D01*
X145914943Y-89728428D01*
X145983229Y-89600000D01*
X147761928Y-89600000D01*
X147774188Y-89724482D01*
X147810498Y-89844180D01*
X147869463Y-89954494D01*
X147948815Y-90051185D01*
X148045506Y-90130537D01*
X148155820Y-90189502D01*
X148275518Y-90225812D01*
X148400000Y-90238072D01*
X148964250Y-90235000D01*
X149123000Y-90076250D01*
X149123000Y-88877000D01*
X149377000Y-88877000D01*
X149377000Y-90076250D01*
X149535750Y-90235000D01*
X150100000Y-90238072D01*
X150224482Y-90225812D01*
X150344180Y-90189502D01*
X150454494Y-90130537D01*
X150551185Y-90051185D01*
X150630537Y-89954494D01*
X150689502Y-89844180D01*
X150713966Y-89763534D01*
X150789731Y-89847588D01*
X151023080Y-90021641D01*
X151285901Y-90146825D01*
X151433110Y-90191476D01*
X151663000Y-90070155D01*
X151663000Y-88877000D01*
X151917000Y-88877000D01*
X151917000Y-90070155D01*
X152146890Y-90191476D01*
X152294099Y-90146825D01*
X152556920Y-90021641D01*
X152790269Y-89847588D01*
X152985178Y-89631355D01*
X153060000Y-89505745D01*
X153134822Y-89631355D01*
X153329731Y-89847588D01*
X153563080Y-90021641D01*
X153825901Y-90146825D01*
X153973110Y-90191476D01*
X154203000Y-90070155D01*
X154203000Y-88877000D01*
X151917000Y-88877000D01*
X151663000Y-88877000D01*
X149377000Y-88877000D01*
X149123000Y-88877000D01*
X147923750Y-88877000D01*
X147765000Y-89035750D01*
X147761928Y-89600000D01*
X145983229Y-89600000D01*
X146220681Y-89153421D01*
X146632279Y-88648753D01*
X147134067Y-88233638D01*
X147706924Y-87923895D01*
X147761965Y-87906857D01*
X147765000Y-88464250D01*
%TA.AperFunction,Conductor*%
D19*
G36*
X147765000Y-88464250D02*
G01*
X147923750Y-88623000D01*
X149123000Y-88623000D01*
X149123000Y-88603000D01*
X149377000Y-88603000D01*
X149377000Y-88623000D01*
X151663000Y-88623000D01*
X151663000Y-88603000D01*
X151917000Y-88603000D01*
X151917000Y-88623000D01*
X154203000Y-88623000D01*
X154203000Y-88603000D01*
X154457000Y-88603000D01*
X154457000Y-88623000D01*
X154477000Y-88623000D01*
X154477000Y-88877000D01*
X154457000Y-88877000D01*
X154457000Y-90070155D01*
X154686890Y-90191476D01*
X154834099Y-90146825D01*
X155096920Y-90021641D01*
X155330269Y-89847588D01*
X155525178Y-89631355D01*
X155594805Y-89514466D01*
X155716525Y-89696632D01*
X155815001Y-89795108D01*
X155815000Y-92089265D01*
X155782958Y-92128309D01*
X155728502Y-92209808D01*
X155669536Y-92320125D01*
X155632027Y-92410681D01*
X155595718Y-92530377D01*
X155576596Y-92626510D01*
X155564336Y-92750991D01*
X155564336Y-92775550D01*
X155561928Y-92800000D01*
X155561928Y-93300000D01*
X155574188Y-93424482D01*
X155581929Y-93450000D01*
X155574188Y-93475518D01*
X155561928Y-93600000D01*
X155561928Y-94100000D01*
X155564336Y-94124450D01*
X155564336Y-94149009D01*
X155576596Y-94273490D01*
X155595718Y-94369623D01*
X155632027Y-94489319D01*
X155669536Y-94579875D01*
X155728502Y-94690192D01*
X155782958Y-94771691D01*
X155815000Y-94810735D01*
X155815001Y-95708245D01*
X155751736Y-95760166D01*
X155730537Y-95720506D01*
X155651185Y-95623815D01*
X155554494Y-95544463D01*
X155444180Y-95485498D01*
X155324482Y-95449188D01*
X155200000Y-95436928D01*
X154785750Y-95440000D01*
X154627000Y-95598750D01*
X154627000Y-96460500D01*
X154647000Y-96460500D01*
X154647000Y-96714500D01*
X154627000Y-96714500D01*
X154627000Y-96734500D01*
X154373000Y-96734500D01*
X154373000Y-96714500D01*
X153323750Y-96714500D01*
X153165000Y-96873250D01*
X153161928Y-97100000D01*
X153174188Y-97224482D01*
X153210498Y-97344180D01*
X153269463Y-97454494D01*
X153348815Y-97551185D01*
X153378276Y-97575363D01*
X153311595Y-97656613D01*
X153229528Y-97810148D01*
X153178992Y-97976744D01*
X153161928Y-98149998D01*
X153161928Y-98675002D01*
X153178992Y-98848256D01*
X153229528Y-99014852D01*
X153311595Y-99168387D01*
X153422038Y-99302962D01*
X153556613Y-99413405D01*
X153710148Y-99495472D01*
X153876744Y-99546008D01*
X154049998Y-99563072D01*
X154950002Y-99563072D01*
X155123256Y-99546008D01*
X155289852Y-99495472D01*
X155443387Y-99413405D01*
X155540001Y-99334116D01*
X155540000Y-100112889D01*
X155485150Y-100129528D01*
X155331614Y-100211595D01*
X155197038Y-100322038D01*
X155086595Y-100456614D01*
X155004528Y-100610150D01*
X154953992Y-100776746D01*
X154936928Y-100950000D01*
X154936928Y-101450000D01*
X154953992Y-101623254D01*
X154977346Y-101700244D01*
X154935009Y-101734989D01*
X154911211Y-101763987D01*
X154238024Y-102437175D01*
X154175886Y-102437175D01*
X153975927Y-102476949D01*
X153787569Y-102554970D01*
X153618051Y-102668238D01*
X153570710Y-102715579D01*
X152511996Y-101656864D01*
X152476449Y-101613551D01*
X152303623Y-101471716D01*
X152106447Y-101366324D01*
X151892499Y-101301423D01*
X151725752Y-101285000D01*
X151725751Y-101285000D01*
X151670000Y-101279509D01*
X151614249Y-101285000D01*
X147658728Y-101285000D01*
X147704494Y-101260537D01*
X147801185Y-101181185D01*
X147880537Y-101084494D01*
X147939502Y-100974180D01*
X147975812Y-100854482D01*
X147988072Y-100730000D01*
X147985000Y-100165750D01*
X147826250Y-100007000D01*
X146627000Y-100007000D01*
X146627000Y-100027000D01*
X146373000Y-100027000D01*
X146373000Y-100007000D01*
X146353000Y-100007000D01*
X146353000Y-99753000D01*
X146373000Y-99753000D01*
X146373000Y-98553750D01*
X146627000Y-98553750D01*
X146627000Y-99753000D01*
X147826250Y-99753000D01*
X147985000Y-99594250D01*
X147988072Y-99030000D01*
X147975812Y-98905518D01*
X147939502Y-98785820D01*
X147880537Y-98675506D01*
X147801185Y-98578815D01*
X147704494Y-98499463D01*
X147594180Y-98440498D01*
X147474482Y-98404188D01*
X147350000Y-98391928D01*
X146785750Y-98395000D01*
X146627000Y-98553750D01*
X146373000Y-98553750D01*
X146214250Y-98395000D01*
X145660000Y-98391982D01*
X145660000Y-93779872D01*
X146265000Y-93779872D01*
X146265000Y-94220128D01*
X146350890Y-94651925D01*
X146519369Y-95058669D01*
X146763962Y-95424729D01*
X147075271Y-95736038D01*
X147441331Y-95980631D01*
X147848075Y-96149110D01*
X148279872Y-96235000D01*
X148720128Y-96235000D01*
X149151925Y-96149110D01*
X149330842Y-96075000D01*
X153161928Y-96075000D01*
X153165000Y-96301750D01*
X153323750Y-96460500D01*
X154373000Y-96460500D01*
X154373000Y-95598750D01*
X154214250Y-95440000D01*
X153800000Y-95436928D01*
X153675518Y-95449188D01*
X153555820Y-95485498D01*
X153445506Y-95544463D01*
X153348815Y-95623815D01*
X153269463Y-95720506D01*
X153210498Y-95830820D01*
X153174188Y-95950518D01*
X153161928Y-96075000D01*
X149330842Y-96075000D01*
X149558669Y-95980631D01*
X149924729Y-95736038D01*
X150236038Y-95424729D01*
X150480631Y-95058669D01*
X150649110Y-94651925D01*
X150735000Y-94220128D01*
X150735000Y-93779872D01*
X150649110Y-93348075D01*
X150480631Y-92941331D01*
X150236038Y-92575271D01*
X149924729Y-92263962D01*
X149558669Y-92019369D01*
X149151925Y-91850890D01*
X148720128Y-91765000D01*
X148279872Y-91765000D01*
X147848075Y-91850890D01*
X147441331Y-92019369D01*
X147075271Y-92263962D01*
X146763962Y-92575271D01*
X146519369Y-92941331D01*
X146350890Y-93348075D01*
X146265000Y-93779872D01*
X145660000Y-93779872D01*
X145660000Y-91032278D01*
X145726714Y-90351874D01*
X145914943Y-89728428D01*
X145983229Y-89600000D01*
X147761928Y-89600000D01*
X147774188Y-89724482D01*
X147810498Y-89844180D01*
X147869463Y-89954494D01*
X147948815Y-90051185D01*
X148045506Y-90130537D01*
X148155820Y-90189502D01*
X148275518Y-90225812D01*
X148400000Y-90238072D01*
X148964250Y-90235000D01*
X149123000Y-90076250D01*
X149123000Y-88877000D01*
X149377000Y-88877000D01*
X149377000Y-90076250D01*
X149535750Y-90235000D01*
X150100000Y-90238072D01*
X150224482Y-90225812D01*
X150344180Y-90189502D01*
X150454494Y-90130537D01*
X150551185Y-90051185D01*
X150630537Y-89954494D01*
X150689502Y-89844180D01*
X150713966Y-89763534D01*
X150789731Y-89847588D01*
X151023080Y-90021641D01*
X151285901Y-90146825D01*
X151433110Y-90191476D01*
X151663000Y-90070155D01*
X151663000Y-88877000D01*
X151917000Y-88877000D01*
X151917000Y-90070155D01*
X152146890Y-90191476D01*
X152294099Y-90146825D01*
X152556920Y-90021641D01*
X152790269Y-89847588D01*
X152985178Y-89631355D01*
X153060000Y-89505745D01*
X153134822Y-89631355D01*
X153329731Y-89847588D01*
X153563080Y-90021641D01*
X153825901Y-90146825D01*
X153973110Y-90191476D01*
X154203000Y-90070155D01*
X154203000Y-88877000D01*
X151917000Y-88877000D01*
X151663000Y-88877000D01*
X149377000Y-88877000D01*
X149123000Y-88877000D01*
X147923750Y-88877000D01*
X147765000Y-89035750D01*
X147761928Y-89600000D01*
X145983229Y-89600000D01*
X146220681Y-89153421D01*
X146632279Y-88648753D01*
X147134067Y-88233638D01*
X147706924Y-87923895D01*
X147761965Y-87906857D01*
X147765000Y-88464250D01*
G37*
%TD.AperFunction*%
D18*
X163802000Y-92373000D02*
X163822000Y-92373000D01*
X163822000Y-92627000D01*
X163802000Y-92627000D01*
X163802000Y-93676250D01*
X163960750Y-93835000D01*
X164187500Y-93838072D01*
X164311982Y-93825812D01*
X164431680Y-93789502D01*
X164541994Y-93730537D01*
X164638685Y-93651185D01*
X164662863Y-93621724D01*
X164744113Y-93688405D01*
X164897648Y-93770472D01*
X165064244Y-93821008D01*
X165237498Y-93838072D01*
X165762502Y-93838072D01*
X165935756Y-93821008D01*
X166102352Y-93770472D01*
X166255887Y-93688405D01*
X166320961Y-93635000D01*
X166841263Y-93635000D01*
X166897038Y-93702962D01*
X167031614Y-93813405D01*
X167185150Y-93895472D01*
X167351746Y-93946008D01*
X167525000Y-93963072D01*
X167752831Y-93963072D01*
X167678815Y-94023815D01*
X167599463Y-94120506D01*
X167540498Y-94230820D01*
X167504188Y-94350518D01*
X167491928Y-94475000D01*
X167491928Y-94560000D01*
X166360741Y-94560000D01*
X166304999Y-94554510D01*
X166249257Y-94560000D01*
X166249248Y-94560000D01*
X166082501Y-94576423D01*
X165868553Y-94641324D01*
X165671377Y-94746716D01*
X165498551Y-94888551D01*
X165463009Y-94931860D01*
X163736860Y-96658009D01*
X163693552Y-96693551D01*
X163551717Y-96866377D01*
X163530298Y-96906450D01*
X163446324Y-97063554D01*
X163381423Y-97277502D01*
X163359509Y-97500000D01*
X163365001Y-97555761D01*
X163365001Y-98533385D01*
X163363553Y-98533824D01*
X163166377Y-98639216D01*
X163036856Y-98745511D01*
X163036854Y-98745513D01*
X162993551Y-98781051D01*
X162958013Y-98824354D01*
X162137511Y-99644857D01*
X162135000Y-99285750D01*
X161976250Y-99127000D01*
X161127000Y-99127000D01*
X161127000Y-99147000D01*
X160873000Y-99147000D01*
X160873000Y-99127000D01*
X160853000Y-99127000D01*
X160853000Y-98873000D01*
X160873000Y-98873000D01*
X160873000Y-97798750D01*
X160799250Y-97725000D01*
X160823000Y-97701250D01*
X160823000Y-96627000D01*
X161077000Y-96627000D01*
X161077000Y-97701250D01*
X161150750Y-97775000D01*
X161127000Y-97798750D01*
X161127000Y-98873000D01*
X161976250Y-98873000D01*
X162135000Y-98714250D01*
X162138072Y-98275000D01*
X162125812Y-98150518D01*
X162089502Y-98030820D01*
X162030537Y-97920506D01*
X161951185Y-97823815D01*
X161854494Y-97744463D01*
X161832387Y-97732646D01*
X161901185Y-97676185D01*
X161980537Y-97579494D01*
X162039502Y-97469180D01*
X162075812Y-97349482D01*
X162088072Y-97225000D01*
X162085000Y-96785750D01*
X161926250Y-96627000D01*
X161077000Y-96627000D01*
X160823000Y-96627000D01*
X160803000Y-96627000D01*
X160803000Y-96373000D01*
X160823000Y-96373000D01*
X160823000Y-95298750D01*
X161077000Y-95298750D01*
X161077000Y-96373000D01*
X161926250Y-96373000D01*
X162085000Y-96214250D01*
X162088072Y-95775000D01*
X162075812Y-95650518D01*
X162039502Y-95530820D01*
X161980537Y-95420506D01*
X161901185Y-95323815D01*
X161804494Y-95244463D01*
X161694180Y-95185498D01*
X161574482Y-95149188D01*
X161450000Y-95136928D01*
X161235750Y-95140000D01*
X161077000Y-95298750D01*
X160823000Y-95298750D01*
X160664250Y-95140000D01*
X160585244Y-95138867D01*
X162524430Y-93199681D01*
X162524428Y-93200000D01*
X162536688Y-93324482D01*
X162572998Y-93444180D01*
X162631963Y-93554494D01*
X162711315Y-93651185D01*
X162808006Y-93730537D01*
X162918320Y-93789502D01*
X163038018Y-93825812D01*
X163162500Y-93838072D01*
X163389250Y-93835000D01*
X163548000Y-93676250D01*
X163548000Y-92627000D01*
X163528000Y-92627000D01*
X163528000Y-92373000D01*
X163548000Y-92373000D01*
X163548000Y-92353000D01*
X163802000Y-92353000D01*
X163802000Y-92373000D01*
%TA.AperFunction,Conductor*%
D19*
G36*
X163802000Y-92373000D02*
G01*
X163822000Y-92373000D01*
X163822000Y-92627000D01*
X163802000Y-92627000D01*
X163802000Y-93676250D01*
X163960750Y-93835000D01*
X164187500Y-93838072D01*
X164311982Y-93825812D01*
X164431680Y-93789502D01*
X164541994Y-93730537D01*
X164638685Y-93651185D01*
X164662863Y-93621724D01*
X164744113Y-93688405D01*
X164897648Y-93770472D01*
X165064244Y-93821008D01*
X165237498Y-93838072D01*
X165762502Y-93838072D01*
X165935756Y-93821008D01*
X166102352Y-93770472D01*
X166255887Y-93688405D01*
X166320961Y-93635000D01*
X166841263Y-93635000D01*
X166897038Y-93702962D01*
X167031614Y-93813405D01*
X167185150Y-93895472D01*
X167351746Y-93946008D01*
X167525000Y-93963072D01*
X167752831Y-93963072D01*
X167678815Y-94023815D01*
X167599463Y-94120506D01*
X167540498Y-94230820D01*
X167504188Y-94350518D01*
X167491928Y-94475000D01*
X167491928Y-94560000D01*
X166360741Y-94560000D01*
X166304999Y-94554510D01*
X166249257Y-94560000D01*
X166249248Y-94560000D01*
X166082501Y-94576423D01*
X165868553Y-94641324D01*
X165671377Y-94746716D01*
X165498551Y-94888551D01*
X165463009Y-94931860D01*
X163736860Y-96658009D01*
X163693552Y-96693551D01*
X163551717Y-96866377D01*
X163530298Y-96906450D01*
X163446324Y-97063554D01*
X163381423Y-97277502D01*
X163359509Y-97500000D01*
X163365001Y-97555761D01*
X163365001Y-98533385D01*
X163363553Y-98533824D01*
X163166377Y-98639216D01*
X163036856Y-98745511D01*
X163036854Y-98745513D01*
X162993551Y-98781051D01*
X162958013Y-98824354D01*
X162137511Y-99644857D01*
X162135000Y-99285750D01*
X161976250Y-99127000D01*
X161127000Y-99127000D01*
X161127000Y-99147000D01*
X160873000Y-99147000D01*
X160873000Y-99127000D01*
X160853000Y-99127000D01*
X160853000Y-98873000D01*
X160873000Y-98873000D01*
X160873000Y-97798750D01*
X160799250Y-97725000D01*
X160823000Y-97701250D01*
X160823000Y-96627000D01*
X161077000Y-96627000D01*
X161077000Y-97701250D01*
X161150750Y-97775000D01*
X161127000Y-97798750D01*
X161127000Y-98873000D01*
X161976250Y-98873000D01*
X162135000Y-98714250D01*
X162138072Y-98275000D01*
X162125812Y-98150518D01*
X162089502Y-98030820D01*
X162030537Y-97920506D01*
X161951185Y-97823815D01*
X161854494Y-97744463D01*
X161832387Y-97732646D01*
X161901185Y-97676185D01*
X161980537Y-97579494D01*
X162039502Y-97469180D01*
X162075812Y-97349482D01*
X162088072Y-97225000D01*
X162085000Y-96785750D01*
X161926250Y-96627000D01*
X161077000Y-96627000D01*
X160823000Y-96627000D01*
X160803000Y-96627000D01*
X160803000Y-96373000D01*
X160823000Y-96373000D01*
X160823000Y-95298750D01*
X161077000Y-95298750D01*
X161077000Y-96373000D01*
X161926250Y-96373000D01*
X162085000Y-96214250D01*
X162088072Y-95775000D01*
X162075812Y-95650518D01*
X162039502Y-95530820D01*
X161980537Y-95420506D01*
X161901185Y-95323815D01*
X161804494Y-95244463D01*
X161694180Y-95185498D01*
X161574482Y-95149188D01*
X161450000Y-95136928D01*
X161235750Y-95140000D01*
X161077000Y-95298750D01*
X160823000Y-95298750D01*
X160664250Y-95140000D01*
X160585244Y-95138867D01*
X162524430Y-93199681D01*
X162524428Y-93200000D01*
X162536688Y-93324482D01*
X162572998Y-93444180D01*
X162631963Y-93554494D01*
X162711315Y-93651185D01*
X162808006Y-93730537D01*
X162918320Y-93789502D01*
X163038018Y-93825812D01*
X163162500Y-93838072D01*
X163389250Y-93835000D01*
X163548000Y-93676250D01*
X163548000Y-92627000D01*
X163528000Y-92627000D01*
X163528000Y-92373000D01*
X163548000Y-92373000D01*
X163548000Y-92353000D01*
X163802000Y-92353000D01*
X163802000Y-92373000D01*
G37*
%TD.AperFunction*%
D18*
X159537000Y-88623000D02*
X161823000Y-88623000D01*
X161823000Y-88603000D01*
X162077000Y-88603000D01*
X162077000Y-88623000D01*
X164363000Y-88623000D01*
X164363000Y-88603000D01*
X164617000Y-88603000D01*
X164617000Y-88623000D01*
X166903000Y-88623000D01*
X166903000Y-88603000D01*
X167157000Y-88603000D01*
X167157000Y-88623000D01*
X169443000Y-88623000D01*
X169443000Y-88603000D01*
X169697000Y-88603000D01*
X169697000Y-88623000D01*
X169717000Y-88623000D01*
X169717000Y-88877000D01*
X169697000Y-88877000D01*
X169697000Y-88897000D01*
X169443000Y-88897000D01*
X169443000Y-88877000D01*
X167157000Y-88877000D01*
X167157000Y-88897000D01*
X166903000Y-88897000D01*
X166903000Y-88877000D01*
X164617000Y-88877000D01*
X164617000Y-88897000D01*
X164363000Y-88897000D01*
X164363000Y-88877000D01*
X162077000Y-88877000D01*
X162077000Y-90070155D01*
X162306890Y-90191476D01*
X162329113Y-90184736D01*
X158332477Y-94181372D01*
X158335664Y-94149009D01*
X158335664Y-94124450D01*
X158338072Y-94100000D01*
X158338072Y-93600000D01*
X158325812Y-93475518D01*
X158318071Y-93450000D01*
X158325812Y-93424482D01*
X158338072Y-93300000D01*
X158338072Y-92800000D01*
X158335664Y-92775550D01*
X158335664Y-92750991D01*
X158323404Y-92626510D01*
X158304282Y-92530377D01*
X158267973Y-92410681D01*
X158230464Y-92320125D01*
X158171498Y-92209808D01*
X158117042Y-92128309D01*
X158085000Y-92089266D01*
X158085000Y-89604553D01*
X158145195Y-89514466D01*
X158214822Y-89631355D01*
X158409731Y-89847588D01*
X158643080Y-90021641D01*
X158905901Y-90146825D01*
X159053110Y-90191476D01*
X159283000Y-90070155D01*
X159283000Y-88877000D01*
X159537000Y-88877000D01*
X159537000Y-90070155D01*
X159766890Y-90191476D01*
X159914099Y-90146825D01*
X160176920Y-90021641D01*
X160410269Y-89847588D01*
X160605178Y-89631355D01*
X160680000Y-89505745D01*
X160754822Y-89631355D01*
X160949731Y-89847588D01*
X161183080Y-90021641D01*
X161445901Y-90146825D01*
X161593110Y-90191476D01*
X161823000Y-90070155D01*
X161823000Y-88877000D01*
X159537000Y-88877000D01*
X159283000Y-88877000D01*
X159263000Y-88877000D01*
X159263000Y-88623000D01*
X159283000Y-88623000D01*
X159283000Y-88603000D01*
X159537000Y-88603000D01*
X159537000Y-88623000D01*
%TA.AperFunction,Conductor*%
D19*
G36*
X159537000Y-88623000D02*
G01*
X161823000Y-88623000D01*
X161823000Y-88603000D01*
X162077000Y-88603000D01*
X162077000Y-88623000D01*
X164363000Y-88623000D01*
X164363000Y-88603000D01*
X164617000Y-88603000D01*
X164617000Y-88623000D01*
X166903000Y-88623000D01*
X166903000Y-88603000D01*
X167157000Y-88603000D01*
X167157000Y-88623000D01*
X169443000Y-88623000D01*
X169443000Y-88603000D01*
X169697000Y-88603000D01*
X169697000Y-88623000D01*
X169717000Y-88623000D01*
X169717000Y-88877000D01*
X169697000Y-88877000D01*
X169697000Y-88897000D01*
X169443000Y-88897000D01*
X169443000Y-88877000D01*
X167157000Y-88877000D01*
X167157000Y-88897000D01*
X166903000Y-88897000D01*
X166903000Y-88877000D01*
X164617000Y-88877000D01*
X164617000Y-88897000D01*
X164363000Y-88897000D01*
X164363000Y-88877000D01*
X162077000Y-88877000D01*
X162077000Y-90070155D01*
X162306890Y-90191476D01*
X162329113Y-90184736D01*
X158332477Y-94181372D01*
X158335664Y-94149009D01*
X158335664Y-94124450D01*
X158338072Y-94100000D01*
X158338072Y-93600000D01*
X158325812Y-93475518D01*
X158318071Y-93450000D01*
X158325812Y-93424482D01*
X158338072Y-93300000D01*
X158338072Y-92800000D01*
X158335664Y-92775550D01*
X158335664Y-92750991D01*
X158323404Y-92626510D01*
X158304282Y-92530377D01*
X158267973Y-92410681D01*
X158230464Y-92320125D01*
X158171498Y-92209808D01*
X158117042Y-92128309D01*
X158085000Y-92089266D01*
X158085000Y-89604553D01*
X158145195Y-89514466D01*
X158214822Y-89631355D01*
X158409731Y-89847588D01*
X158643080Y-90021641D01*
X158905901Y-90146825D01*
X159053110Y-90191476D01*
X159283000Y-90070155D01*
X159283000Y-88877000D01*
X159537000Y-88877000D01*
X159537000Y-90070155D01*
X159766890Y-90191476D01*
X159914099Y-90146825D01*
X160176920Y-90021641D01*
X160410269Y-89847588D01*
X160605178Y-89631355D01*
X160680000Y-89505745D01*
X160754822Y-89631355D01*
X160949731Y-89847588D01*
X161183080Y-90021641D01*
X161445901Y-90146825D01*
X161593110Y-90191476D01*
X161823000Y-90070155D01*
X161823000Y-88877000D01*
X159537000Y-88877000D01*
X159283000Y-88877000D01*
X159263000Y-88877000D01*
X159263000Y-88623000D01*
X159283000Y-88623000D01*
X159283000Y-88603000D01*
X159537000Y-88603000D01*
X159537000Y-88623000D01*
G37*
%TD.AperFunction*%
%TD*%
M02*
