M48
; DRILL file {KiCad (5.1.9)-1} date 10/14/21 16:04:50
; FORMAT={-:-/ absolute / inch / decimal}
; #@! TF.CreationDate,2021-10-14T16:04:50-04:00
; #@! TF.GenerationSoftware,Kicad,Pcbnew,(5.1.9)-1
; #@! TF.FileFunction,Plated,1,2,PTH
FMAT,2
INCH
T1C0.0157
T2C0.0394
%
G90
G05
T1
X5.8071Y-3.8386
X5.876Y-3.9665
X5.9055Y-4.0945
X5.9547Y-3.9665
X5.9941Y-4.2028
X6.0039Y-4.1339
X6.0335Y-3.9665
X6.063Y-4.4094
X6.0739Y-4.0737
X6.1024Y-3.7598
X6.1122Y-4.2717
X6.122Y-3.5827
X6.1417Y-4.3307
X6.2402Y-3.5827
X6.25Y-3.6713
X6.2598Y-4.1929
X6.2795Y-4.3012
X6.3386Y-3.5728
X6.3484Y-4.0354
X6.3484Y-4.1142
X6.3583Y-3.7303
X6.3583Y-4.311
X6.378Y-3.7894
X6.3976Y-3.8878
X6.3976Y-4.0157
X6.4272Y-3.7008
X6.437Y-4.3012
X6.4567Y-3.7697
X6.4665Y-4.2028
X6.4765Y-4.0649
X6.5157Y-4.3012
X6.5354Y-3.8681
X6.5551Y-3.7106
X6.565Y-3.9961
X6.5846Y-4.1634
X6.6142Y-3.8681
X6.6437Y-3.9961
X6.6732Y-4.3799
X6.6929Y-3.8681
X6.7224Y-3.9961
X6.7717Y-3.8681
X6.7717Y-3.9961
X6.7913Y-4.3799
X6.8504Y-3.8681
X6.8504Y-3.9961
X6.8898Y-4.3799
X6.9291Y-3.8681
X6.9291Y-3.9961
X6.998Y-4.3799
X7.126Y-3.7402
X7.126Y-3.937
X7.126Y-4.1339
X7.126Y-4.3307
X7.2047Y-3.7402
X7.2047Y-3.937
X7.2047Y-4.1339
X7.2047Y-4.3307
T2
X5.7677Y-3.9323
X5.7677Y-4.0323
X5.7677Y-4.1323
X5.7677Y-4.2323
X5.8661Y-4.5276
X5.876Y-3.4941
X5.9661Y-4.5276
X5.976Y-3.4941
X6.0661Y-4.5276
X6.076Y-3.4941
X6.1661Y-4.5276
X6.176Y-3.4941
X6.2661Y-4.5276
X6.276Y-3.4941
X6.3661Y-4.5276
X6.376Y-3.4941
X6.4661Y-4.5276
X6.476Y-3.4941
X6.5661Y-4.5276
X6.576Y-3.4941
X6.6661Y-4.5276
X6.676Y-3.4941
X6.7661Y-4.5276
X6.776Y-3.4941
X6.8661Y-4.5276
X6.876Y-3.4941
X6.9661Y-4.5276
X6.976Y-3.4941
T0
M30
