%TF.GenerationSoftware,KiCad,Pcbnew,(5.1.9)-1*%
%TF.CreationDate,2021-10-14T16:01:30-04:00*%
%TF.ProjectId,ModularPreamp,4d6f6475-6c61-4725-9072-65616d702e6b,rev?*%
%TF.SameCoordinates,Original*%
%TF.FileFunction,Copper,L2,Bot*%
%TF.FilePolarity,Positive*%
%FSLAX46Y46*%
G04 Gerber Fmt 4.6, Leading zero omitted, Abs format (unit mm)*
G04 Created by KiCad (PCBNEW (5.1.9)-1) date 2021-10-14 16:01:30*
%MOMM*%
%LPD*%
G01*
G04 APERTURE LIST*
%TA.AperFunction,ComponentPad*%
%ADD10O,1.700000X1.700000*%
%TD*%
%TA.AperFunction,ComponentPad*%
%ADD11R,1.700000X1.700000*%
%TD*%
%TA.AperFunction,ViaPad*%
%ADD12C,0.800000*%
%TD*%
%TA.AperFunction,Conductor*%
%ADD13C,1.000000*%
%TD*%
%TA.AperFunction,Conductor*%
%ADD14C,0.250000*%
%TD*%
%TA.AperFunction,Conductor*%
%ADD15C,0.254000*%
%TD*%
%TA.AperFunction,Conductor*%
%ADD16C,0.100000*%
%TD*%
G04 APERTURE END LIST*
D10*
%TO.P,J1,4*%
%TO.N,GND*%
X146500000Y-107500000D03*
%TO.P,J1,3*%
%TO.N,Optional_In+*%
X146500000Y-104960000D03*
%TO.P,J1,2*%
%TO.N,Sum*%
X146500000Y-102420000D03*
D11*
%TO.P,J1,1*%
%TO.N,GND*%
X146500000Y-99880000D03*
%TD*%
%TO.P,C4,2*%
%TO.N,-5V*%
%TA.AperFunction,SMDPad,CuDef*%
G36*
G01*
X175500000Y-91525000D02*
X175500000Y-92475000D01*
G75*
G02*
X175250000Y-92725000I-250000J0D01*
G01*
X174750000Y-92725000D01*
G75*
G02*
X174500000Y-92475000I0J250000D01*
G01*
X174500000Y-91525000D01*
G75*
G02*
X174750000Y-91275000I250000J0D01*
G01*
X175250000Y-91275000D01*
G75*
G02*
X175500000Y-91525000I0J-250000D01*
G01*
G37*
%TD.AperFunction*%
%TO.P,C4,1*%
%TO.N,GND*%
%TA.AperFunction,SMDPad,CuDef*%
G36*
G01*
X177400000Y-91525000D02*
X177400000Y-92475000D01*
G75*
G02*
X177150000Y-92725000I-250000J0D01*
G01*
X176650000Y-92725000D01*
G75*
G02*
X176400000Y-92475000I0J250000D01*
G01*
X176400000Y-91525000D01*
G75*
G02*
X176650000Y-91275000I250000J0D01*
G01*
X177150000Y-91275000D01*
G75*
G02*
X177400000Y-91525000I0J-250000D01*
G01*
G37*
%TD.AperFunction*%
%TD*%
%TO.P,C2,2*%
%TO.N,GND*%
%TA.AperFunction,SMDPad,CuDef*%
G36*
G01*
X170050000Y-91525000D02*
X170050000Y-92475000D01*
G75*
G02*
X169800000Y-92725000I-250000J0D01*
G01*
X169300000Y-92725000D01*
G75*
G02*
X169050000Y-92475000I0J250000D01*
G01*
X169050000Y-91525000D01*
G75*
G02*
X169300000Y-91275000I250000J0D01*
G01*
X169800000Y-91275000D01*
G75*
G02*
X170050000Y-91525000I0J-250000D01*
G01*
G37*
%TD.AperFunction*%
%TO.P,C2,1*%
%TO.N,+5V*%
%TA.AperFunction,SMDPad,CuDef*%
G36*
G01*
X171950000Y-91525000D02*
X171950000Y-92475000D01*
G75*
G02*
X171700000Y-92725000I-250000J0D01*
G01*
X171200000Y-92725000D01*
G75*
G02*
X170950000Y-92475000I0J250000D01*
G01*
X170950000Y-91525000D01*
G75*
G02*
X171200000Y-91275000I250000J0D01*
G01*
X171700000Y-91275000D01*
G75*
G02*
X171950000Y-91525000I0J-250000D01*
G01*
G37*
%TD.AperFunction*%
%TD*%
D10*
%TO.P,J18,12*%
%TO.N,GND*%
X177190000Y-88750000D03*
%TO.P,J18,11*%
%TO.N,-5V*%
X174650000Y-88750000D03*
%TO.P,J18,10*%
%TO.N,+5V*%
X172110000Y-88750000D03*
%TO.P,J18,9*%
%TO.N,GND*%
X169570000Y-88750000D03*
%TO.P,J18,8*%
X167030000Y-88750000D03*
%TO.P,J18,7*%
X164490000Y-88750000D03*
%TO.P,J18,6*%
X161950000Y-88750000D03*
%TO.P,J18,5*%
X159410000Y-88750000D03*
%TO.P,J18,4*%
%TO.N,SumOut*%
X156870000Y-88750000D03*
%TO.P,J18,3*%
%TO.N,GND*%
X154330000Y-88750000D03*
%TO.P,J18,2*%
X151790000Y-88750000D03*
D11*
%TO.P,J18,1*%
X149250000Y-88750000D03*
%TD*%
D10*
%TO.P,J22,12*%
%TO.N,GND*%
X176940000Y-115000000D03*
%TO.P,J22,11*%
X174400000Y-115000000D03*
%TO.P,J22,10*%
X171860000Y-115000000D03*
%TO.P,J22,9*%
X169320000Y-115000000D03*
%TO.P,J22,8*%
X166780000Y-115000000D03*
%TO.P,J22,7*%
X164240000Y-115000000D03*
%TO.P,J22,6*%
X161700000Y-115000000D03*
%TO.P,J22,5*%
X159160000Y-115000000D03*
%TO.P,J22,4*%
X156620000Y-115000000D03*
%TO.P,J22,3*%
X154080000Y-115000000D03*
%TO.P,J22,2*%
X151540000Y-115000000D03*
D11*
%TO.P,J22,1*%
X149000000Y-115000000D03*
%TD*%
D12*
%TO.N,GND*%
X155500000Y-91000000D03*
X158500000Y-91000000D03*
X155000000Y-95500000D03*
X147500000Y-97500000D03*
X161250000Y-104500000D03*
X164502497Y-103247659D03*
X164250000Y-106750000D03*
X163250000Y-94000000D03*
X162000000Y-96250000D03*
X150000000Y-104000000D03*
X152500000Y-105000000D03*
X155250000Y-108500000D03*
X159500000Y-109250000D03*
X156000000Y-110000000D03*
X154000000Y-112000000D03*
X165500000Y-109250000D03*
X163500000Y-109250000D03*
X167250000Y-105750000D03*
X177750000Y-111250000D03*
X175000000Y-111250000D03*
X172500000Y-111250000D03*
X169500000Y-111250000D03*
X161000000Y-90750000D03*
X162500000Y-98750000D03*
X164000000Y-95750000D03*
X161250000Y-102500000D03*
X158750000Y-93250000D03*
X166500000Y-94250000D03*
X161500000Y-94750000D03*
X172000000Y-101500000D03*
X176000000Y-101500000D03*
X174000000Y-101500000D03*
X172000000Y-98250000D03*
X174000000Y-98250000D03*
X176000000Y-98250000D03*
X168000000Y-98250000D03*
X166000000Y-98250000D03*
X170000000Y-98250000D03*
X168750000Y-101500000D03*
X166750000Y-101500000D03*
X170750000Y-101500000D03*
X149250000Y-100750000D03*
X153250000Y-100750000D03*
X151250000Y-100750000D03*
X183000000Y-110000000D03*
X183000000Y-105000000D03*
X183000000Y-100000000D03*
X183000000Y-95000000D03*
X181000000Y-110000000D03*
X181000000Y-105000000D03*
X181000000Y-100000000D03*
X181000000Y-95000000D03*
%TO.N,-5V*%
X159000000Y-106500000D03*
%TO.N,Net-(R33-Pad1)*%
X162500000Y-102000000D03*
X161500000Y-109500000D03*
%TO.N,Net-(R6-Pad1)*%
X152250000Y-106750000D03*
X154277825Y-103472175D03*
%TD*%
D13*
%TO.N,+5V*%
X171450000Y-92000000D02*
X171450000Y-90550000D01*
X172110000Y-89890000D02*
X172110000Y-88750000D01*
X171450000Y-90550000D02*
X172110000Y-89890000D01*
%TO.N,-5V*%
X174650000Y-91650000D02*
X175000000Y-92000000D01*
X174650000Y-88750000D02*
X174650000Y-91650000D01*
X168906490Y-93425010D02*
X167750000Y-92268520D01*
X173574990Y-93425010D02*
X168906490Y-93425010D01*
X175000000Y-92000000D02*
X173574990Y-93425010D01*
X167750000Y-91250000D02*
X166800001Y-90300001D01*
X167750000Y-92268520D02*
X167750000Y-91250000D01*
X166800001Y-90300001D02*
X163449999Y-90300001D01*
X163449999Y-90300001D02*
X158750000Y-95000000D01*
X158750000Y-106250000D02*
X159000000Y-106500000D01*
X158750000Y-95000000D02*
X158750000Y-106250000D01*
%TO.N,Net-(R33-Pad1)*%
X162500000Y-102000000D02*
X162500000Y-108500000D01*
X162500000Y-108500000D02*
X161500000Y-109500000D01*
D14*
%TO.N,Net-(R6-Pad1)*%
X154277825Y-104722175D02*
X154277825Y-103472175D01*
X152250000Y-106750000D02*
X154277825Y-104722175D01*
%TD*%
D15*
%TO.N,GND*%
X181648126Y-87726714D02*
X182271572Y-87914943D01*
X182846579Y-88220681D01*
X183351247Y-88632279D01*
X183766362Y-89134067D01*
X184076105Y-89706924D01*
X184268682Y-90329039D01*
X184340001Y-91007594D01*
X184340000Y-115967721D01*
X184273286Y-116648126D01*
X184085057Y-117271570D01*
X183779323Y-117846573D01*
X183367721Y-118351248D01*
X182865933Y-118766362D01*
X182293077Y-119076104D01*
X181670961Y-119268682D01*
X180992417Y-119340000D01*
X149032279Y-119340000D01*
X148351874Y-119273286D01*
X147728430Y-119085057D01*
X147153427Y-118779323D01*
X146648752Y-118367721D01*
X146233638Y-117865933D01*
X145923896Y-117293077D01*
X145731318Y-116670961D01*
X145660000Y-115992417D01*
X145660000Y-115850000D01*
X147511928Y-115850000D01*
X147524188Y-115974482D01*
X147560498Y-116094180D01*
X147619463Y-116204494D01*
X147698815Y-116301185D01*
X147795506Y-116380537D01*
X147905820Y-116439502D01*
X148025518Y-116475812D01*
X148150000Y-116488072D01*
X148714250Y-116485000D01*
X148873000Y-116326250D01*
X148873000Y-115127000D01*
X149127000Y-115127000D01*
X149127000Y-116326250D01*
X149285750Y-116485000D01*
X149850000Y-116488072D01*
X149974482Y-116475812D01*
X150094180Y-116439502D01*
X150204494Y-116380537D01*
X150301185Y-116301185D01*
X150380537Y-116204494D01*
X150439502Y-116094180D01*
X150463966Y-116013534D01*
X150539731Y-116097588D01*
X150773080Y-116271641D01*
X151035901Y-116396825D01*
X151183110Y-116441476D01*
X151413000Y-116320155D01*
X151413000Y-115127000D01*
X151667000Y-115127000D01*
X151667000Y-116320155D01*
X151896890Y-116441476D01*
X152044099Y-116396825D01*
X152306920Y-116271641D01*
X152540269Y-116097588D01*
X152735178Y-115881355D01*
X152810000Y-115755745D01*
X152884822Y-115881355D01*
X153079731Y-116097588D01*
X153313080Y-116271641D01*
X153575901Y-116396825D01*
X153723110Y-116441476D01*
X153953000Y-116320155D01*
X153953000Y-115127000D01*
X154207000Y-115127000D01*
X154207000Y-116320155D01*
X154436890Y-116441476D01*
X154584099Y-116396825D01*
X154846920Y-116271641D01*
X155080269Y-116097588D01*
X155275178Y-115881355D01*
X155350000Y-115755745D01*
X155424822Y-115881355D01*
X155619731Y-116097588D01*
X155853080Y-116271641D01*
X156115901Y-116396825D01*
X156263110Y-116441476D01*
X156493000Y-116320155D01*
X156493000Y-115127000D01*
X156747000Y-115127000D01*
X156747000Y-116320155D01*
X156976890Y-116441476D01*
X157124099Y-116396825D01*
X157386920Y-116271641D01*
X157620269Y-116097588D01*
X157815178Y-115881355D01*
X157890000Y-115755745D01*
X157964822Y-115881355D01*
X158159731Y-116097588D01*
X158393080Y-116271641D01*
X158655901Y-116396825D01*
X158803110Y-116441476D01*
X159033000Y-116320155D01*
X159033000Y-115127000D01*
X159287000Y-115127000D01*
X159287000Y-116320155D01*
X159516890Y-116441476D01*
X159664099Y-116396825D01*
X159926920Y-116271641D01*
X160160269Y-116097588D01*
X160355178Y-115881355D01*
X160430000Y-115755745D01*
X160504822Y-115881355D01*
X160699731Y-116097588D01*
X160933080Y-116271641D01*
X161195901Y-116396825D01*
X161343110Y-116441476D01*
X161573000Y-116320155D01*
X161573000Y-115127000D01*
X161827000Y-115127000D01*
X161827000Y-116320155D01*
X162056890Y-116441476D01*
X162204099Y-116396825D01*
X162466920Y-116271641D01*
X162700269Y-116097588D01*
X162895178Y-115881355D01*
X162970000Y-115755745D01*
X163044822Y-115881355D01*
X163239731Y-116097588D01*
X163473080Y-116271641D01*
X163735901Y-116396825D01*
X163883110Y-116441476D01*
X164113000Y-116320155D01*
X164113000Y-115127000D01*
X164367000Y-115127000D01*
X164367000Y-116320155D01*
X164596890Y-116441476D01*
X164744099Y-116396825D01*
X165006920Y-116271641D01*
X165240269Y-116097588D01*
X165435178Y-115881355D01*
X165510000Y-115755745D01*
X165584822Y-115881355D01*
X165779731Y-116097588D01*
X166013080Y-116271641D01*
X166275901Y-116396825D01*
X166423110Y-116441476D01*
X166653000Y-116320155D01*
X166653000Y-115127000D01*
X166907000Y-115127000D01*
X166907000Y-116320155D01*
X167136890Y-116441476D01*
X167284099Y-116396825D01*
X167546920Y-116271641D01*
X167780269Y-116097588D01*
X167975178Y-115881355D01*
X168050000Y-115755745D01*
X168124822Y-115881355D01*
X168319731Y-116097588D01*
X168553080Y-116271641D01*
X168815901Y-116396825D01*
X168963110Y-116441476D01*
X169193000Y-116320155D01*
X169193000Y-115127000D01*
X169447000Y-115127000D01*
X169447000Y-116320155D01*
X169676890Y-116441476D01*
X169824099Y-116396825D01*
X170086920Y-116271641D01*
X170320269Y-116097588D01*
X170515178Y-115881355D01*
X170590000Y-115755745D01*
X170664822Y-115881355D01*
X170859731Y-116097588D01*
X171093080Y-116271641D01*
X171355901Y-116396825D01*
X171503110Y-116441476D01*
X171733000Y-116320155D01*
X171733000Y-115127000D01*
X171987000Y-115127000D01*
X171987000Y-116320155D01*
X172216890Y-116441476D01*
X172364099Y-116396825D01*
X172626920Y-116271641D01*
X172860269Y-116097588D01*
X173055178Y-115881355D01*
X173130000Y-115755745D01*
X173204822Y-115881355D01*
X173399731Y-116097588D01*
X173633080Y-116271641D01*
X173895901Y-116396825D01*
X174043110Y-116441476D01*
X174273000Y-116320155D01*
X174273000Y-115127000D01*
X174527000Y-115127000D01*
X174527000Y-116320155D01*
X174756890Y-116441476D01*
X174904099Y-116396825D01*
X175166920Y-116271641D01*
X175400269Y-116097588D01*
X175595178Y-115881355D01*
X175670000Y-115755745D01*
X175744822Y-115881355D01*
X175939731Y-116097588D01*
X176173080Y-116271641D01*
X176435901Y-116396825D01*
X176583110Y-116441476D01*
X176813000Y-116320155D01*
X176813000Y-115127000D01*
X177067000Y-115127000D01*
X177067000Y-116320155D01*
X177296890Y-116441476D01*
X177444099Y-116396825D01*
X177689639Y-116279872D01*
X179265000Y-116279872D01*
X179265000Y-116720128D01*
X179350890Y-117151925D01*
X179519369Y-117558669D01*
X179763962Y-117924729D01*
X180075271Y-118236038D01*
X180441331Y-118480631D01*
X180848075Y-118649110D01*
X181279872Y-118735000D01*
X181720128Y-118735000D01*
X182151925Y-118649110D01*
X182558669Y-118480631D01*
X182924729Y-118236038D01*
X183236038Y-117924729D01*
X183480631Y-117558669D01*
X183649110Y-117151925D01*
X183735000Y-116720128D01*
X183735000Y-116279872D01*
X183649110Y-115848075D01*
X183480631Y-115441331D01*
X183236038Y-115075271D01*
X182924729Y-114763962D01*
X182558669Y-114519369D01*
X182151925Y-114350890D01*
X181720128Y-114265000D01*
X181279872Y-114265000D01*
X180848075Y-114350890D01*
X180441331Y-114519369D01*
X180075271Y-114763962D01*
X179763962Y-115075271D01*
X179519369Y-115441331D01*
X179350890Y-115848075D01*
X179265000Y-116279872D01*
X177689639Y-116279872D01*
X177706920Y-116271641D01*
X177940269Y-116097588D01*
X178135178Y-115881355D01*
X178284157Y-115631252D01*
X178381481Y-115356891D01*
X178260814Y-115127000D01*
X177067000Y-115127000D01*
X176813000Y-115127000D01*
X174527000Y-115127000D01*
X174273000Y-115127000D01*
X171987000Y-115127000D01*
X171733000Y-115127000D01*
X169447000Y-115127000D01*
X169193000Y-115127000D01*
X166907000Y-115127000D01*
X166653000Y-115127000D01*
X164367000Y-115127000D01*
X164113000Y-115127000D01*
X161827000Y-115127000D01*
X161573000Y-115127000D01*
X159287000Y-115127000D01*
X159033000Y-115127000D01*
X156747000Y-115127000D01*
X156493000Y-115127000D01*
X154207000Y-115127000D01*
X153953000Y-115127000D01*
X151667000Y-115127000D01*
X151413000Y-115127000D01*
X149127000Y-115127000D01*
X148873000Y-115127000D01*
X147673750Y-115127000D01*
X147515000Y-115285750D01*
X147511928Y-115850000D01*
X145660000Y-115850000D01*
X145660000Y-114150000D01*
X147511928Y-114150000D01*
X147515000Y-114714250D01*
X147673750Y-114873000D01*
X148873000Y-114873000D01*
X148873000Y-113673750D01*
X149127000Y-113673750D01*
X149127000Y-114873000D01*
X151413000Y-114873000D01*
X151413000Y-113679845D01*
X151667000Y-113679845D01*
X151667000Y-114873000D01*
X153953000Y-114873000D01*
X153953000Y-113679845D01*
X154207000Y-113679845D01*
X154207000Y-114873000D01*
X156493000Y-114873000D01*
X156493000Y-113679845D01*
X156747000Y-113679845D01*
X156747000Y-114873000D01*
X159033000Y-114873000D01*
X159033000Y-113679845D01*
X159287000Y-113679845D01*
X159287000Y-114873000D01*
X161573000Y-114873000D01*
X161573000Y-113679845D01*
X161827000Y-113679845D01*
X161827000Y-114873000D01*
X164113000Y-114873000D01*
X164113000Y-113679845D01*
X164367000Y-113679845D01*
X164367000Y-114873000D01*
X166653000Y-114873000D01*
X166653000Y-113679845D01*
X166907000Y-113679845D01*
X166907000Y-114873000D01*
X169193000Y-114873000D01*
X169193000Y-113679845D01*
X169447000Y-113679845D01*
X169447000Y-114873000D01*
X171733000Y-114873000D01*
X171733000Y-113679845D01*
X171987000Y-113679845D01*
X171987000Y-114873000D01*
X174273000Y-114873000D01*
X174273000Y-113679845D01*
X174527000Y-113679845D01*
X174527000Y-114873000D01*
X176813000Y-114873000D01*
X176813000Y-113679845D01*
X177067000Y-113679845D01*
X177067000Y-114873000D01*
X178260814Y-114873000D01*
X178381481Y-114643109D01*
X178284157Y-114368748D01*
X178135178Y-114118645D01*
X177940269Y-113902412D01*
X177706920Y-113728359D01*
X177444099Y-113603175D01*
X177296890Y-113558524D01*
X177067000Y-113679845D01*
X176813000Y-113679845D01*
X176583110Y-113558524D01*
X176435901Y-113603175D01*
X176173080Y-113728359D01*
X175939731Y-113902412D01*
X175744822Y-114118645D01*
X175670000Y-114244255D01*
X175595178Y-114118645D01*
X175400269Y-113902412D01*
X175166920Y-113728359D01*
X174904099Y-113603175D01*
X174756890Y-113558524D01*
X174527000Y-113679845D01*
X174273000Y-113679845D01*
X174043110Y-113558524D01*
X173895901Y-113603175D01*
X173633080Y-113728359D01*
X173399731Y-113902412D01*
X173204822Y-114118645D01*
X173130000Y-114244255D01*
X173055178Y-114118645D01*
X172860269Y-113902412D01*
X172626920Y-113728359D01*
X172364099Y-113603175D01*
X172216890Y-113558524D01*
X171987000Y-113679845D01*
X171733000Y-113679845D01*
X171503110Y-113558524D01*
X171355901Y-113603175D01*
X171093080Y-113728359D01*
X170859731Y-113902412D01*
X170664822Y-114118645D01*
X170590000Y-114244255D01*
X170515178Y-114118645D01*
X170320269Y-113902412D01*
X170086920Y-113728359D01*
X169824099Y-113603175D01*
X169676890Y-113558524D01*
X169447000Y-113679845D01*
X169193000Y-113679845D01*
X168963110Y-113558524D01*
X168815901Y-113603175D01*
X168553080Y-113728359D01*
X168319731Y-113902412D01*
X168124822Y-114118645D01*
X168050000Y-114244255D01*
X167975178Y-114118645D01*
X167780269Y-113902412D01*
X167546920Y-113728359D01*
X167284099Y-113603175D01*
X167136890Y-113558524D01*
X166907000Y-113679845D01*
X166653000Y-113679845D01*
X166423110Y-113558524D01*
X166275901Y-113603175D01*
X166013080Y-113728359D01*
X165779731Y-113902412D01*
X165584822Y-114118645D01*
X165510000Y-114244255D01*
X165435178Y-114118645D01*
X165240269Y-113902412D01*
X165006920Y-113728359D01*
X164744099Y-113603175D01*
X164596890Y-113558524D01*
X164367000Y-113679845D01*
X164113000Y-113679845D01*
X163883110Y-113558524D01*
X163735901Y-113603175D01*
X163473080Y-113728359D01*
X163239731Y-113902412D01*
X163044822Y-114118645D01*
X162970000Y-114244255D01*
X162895178Y-114118645D01*
X162700269Y-113902412D01*
X162466920Y-113728359D01*
X162204099Y-113603175D01*
X162056890Y-113558524D01*
X161827000Y-113679845D01*
X161573000Y-113679845D01*
X161343110Y-113558524D01*
X161195901Y-113603175D01*
X160933080Y-113728359D01*
X160699731Y-113902412D01*
X160504822Y-114118645D01*
X160430000Y-114244255D01*
X160355178Y-114118645D01*
X160160269Y-113902412D01*
X159926920Y-113728359D01*
X159664099Y-113603175D01*
X159516890Y-113558524D01*
X159287000Y-113679845D01*
X159033000Y-113679845D01*
X158803110Y-113558524D01*
X158655901Y-113603175D01*
X158393080Y-113728359D01*
X158159731Y-113902412D01*
X157964822Y-114118645D01*
X157890000Y-114244255D01*
X157815178Y-114118645D01*
X157620269Y-113902412D01*
X157386920Y-113728359D01*
X157124099Y-113603175D01*
X156976890Y-113558524D01*
X156747000Y-113679845D01*
X156493000Y-113679845D01*
X156263110Y-113558524D01*
X156115901Y-113603175D01*
X155853080Y-113728359D01*
X155619731Y-113902412D01*
X155424822Y-114118645D01*
X155350000Y-114244255D01*
X155275178Y-114118645D01*
X155080269Y-113902412D01*
X154846920Y-113728359D01*
X154584099Y-113603175D01*
X154436890Y-113558524D01*
X154207000Y-113679845D01*
X153953000Y-113679845D01*
X153723110Y-113558524D01*
X153575901Y-113603175D01*
X153313080Y-113728359D01*
X153079731Y-113902412D01*
X152884822Y-114118645D01*
X152810000Y-114244255D01*
X152735178Y-114118645D01*
X152540269Y-113902412D01*
X152306920Y-113728359D01*
X152044099Y-113603175D01*
X151896890Y-113558524D01*
X151667000Y-113679845D01*
X151413000Y-113679845D01*
X151183110Y-113558524D01*
X151035901Y-113603175D01*
X150773080Y-113728359D01*
X150539731Y-113902412D01*
X150463966Y-113986466D01*
X150439502Y-113905820D01*
X150380537Y-113795506D01*
X150301185Y-113698815D01*
X150204494Y-113619463D01*
X150094180Y-113560498D01*
X149974482Y-113524188D01*
X149850000Y-113511928D01*
X149285750Y-113515000D01*
X149127000Y-113673750D01*
X148873000Y-113673750D01*
X148714250Y-113515000D01*
X148150000Y-113511928D01*
X148025518Y-113524188D01*
X147905820Y-113560498D01*
X147795506Y-113619463D01*
X147698815Y-113698815D01*
X147619463Y-113795506D01*
X147560498Y-113905820D01*
X147524188Y-114025518D01*
X147511928Y-114150000D01*
X145660000Y-114150000D01*
X145660000Y-109500000D01*
X160359509Y-109500000D01*
X160381423Y-109722498D01*
X160446324Y-109936446D01*
X160551717Y-110133622D01*
X160693552Y-110306448D01*
X160866378Y-110448283D01*
X161063554Y-110553676D01*
X161277502Y-110618577D01*
X161500000Y-110640491D01*
X161722498Y-110618577D01*
X161936446Y-110553676D01*
X162133622Y-110448283D01*
X162263143Y-110341988D01*
X163263145Y-109341987D01*
X163306449Y-109306449D01*
X163395368Y-109198102D01*
X163448284Y-109133623D01*
X163553676Y-108936447D01*
X163618577Y-108722499D01*
X163621268Y-108695178D01*
X163635000Y-108555752D01*
X163640491Y-108500000D01*
X163635000Y-108444248D01*
X163635000Y-101944248D01*
X163618577Y-101777501D01*
X163553676Y-101563553D01*
X163448284Y-101366377D01*
X163306449Y-101193551D01*
X163133623Y-101051716D01*
X162936446Y-100946324D01*
X162722498Y-100881423D01*
X162500000Y-100859509D01*
X162277501Y-100881423D01*
X162063553Y-100946324D01*
X161866377Y-101051716D01*
X161693551Y-101193551D01*
X161551716Y-101366377D01*
X161446324Y-101563554D01*
X161381423Y-101777502D01*
X161365000Y-101944249D01*
X161365001Y-108029867D01*
X160658012Y-108736857D01*
X160551717Y-108866378D01*
X160446324Y-109063554D01*
X160381423Y-109277502D01*
X160359509Y-109500000D01*
X145660000Y-109500000D01*
X145660000Y-108719812D01*
X145868748Y-108844157D01*
X146143109Y-108941481D01*
X146373000Y-108820814D01*
X146373000Y-107627000D01*
X146627000Y-107627000D01*
X146627000Y-108820814D01*
X146856891Y-108941481D01*
X147131252Y-108844157D01*
X147381355Y-108695178D01*
X147597588Y-108500269D01*
X147771641Y-108266920D01*
X147896825Y-108004099D01*
X147941476Y-107856890D01*
X147820155Y-107627000D01*
X146627000Y-107627000D01*
X146373000Y-107627000D01*
X146353000Y-107627000D01*
X146353000Y-107373000D01*
X146373000Y-107373000D01*
X146373000Y-107353000D01*
X146627000Y-107353000D01*
X146627000Y-107373000D01*
X147820155Y-107373000D01*
X147941476Y-107143110D01*
X147896825Y-106995901D01*
X147771641Y-106733080D01*
X147708227Y-106648061D01*
X151215000Y-106648061D01*
X151215000Y-106851939D01*
X151254774Y-107051898D01*
X151332795Y-107240256D01*
X151446063Y-107409774D01*
X151590226Y-107553937D01*
X151759744Y-107667205D01*
X151948102Y-107745226D01*
X152148061Y-107785000D01*
X152351939Y-107785000D01*
X152551898Y-107745226D01*
X152740256Y-107667205D01*
X152909774Y-107553937D01*
X153053937Y-107409774D01*
X153167205Y-107240256D01*
X153245226Y-107051898D01*
X153285000Y-106851939D01*
X153285000Y-106789801D01*
X154788829Y-105285973D01*
X154817826Y-105262176D01*
X154912799Y-105146451D01*
X154983371Y-105014422D01*
X155026828Y-104871161D01*
X155037825Y-104759508D01*
X155037825Y-104759507D01*
X155041502Y-104722175D01*
X155037825Y-104684842D01*
X155037825Y-104175886D01*
X155081762Y-104131949D01*
X155195030Y-103962431D01*
X155273051Y-103774073D01*
X155312825Y-103574114D01*
X155312825Y-103370236D01*
X155273051Y-103170277D01*
X155195030Y-102981919D01*
X155081762Y-102812401D01*
X154937599Y-102668238D01*
X154768081Y-102554970D01*
X154579723Y-102476949D01*
X154379764Y-102437175D01*
X154175886Y-102437175D01*
X153975927Y-102476949D01*
X153787569Y-102554970D01*
X153618051Y-102668238D01*
X153473888Y-102812401D01*
X153360620Y-102981919D01*
X153282599Y-103170277D01*
X153242825Y-103370236D01*
X153242825Y-103574114D01*
X153282599Y-103774073D01*
X153360620Y-103962431D01*
X153473888Y-104131949D01*
X153517825Y-104175886D01*
X153517825Y-104407373D01*
X152210199Y-105715000D01*
X152148061Y-105715000D01*
X151948102Y-105754774D01*
X151759744Y-105832795D01*
X151590226Y-105946063D01*
X151446063Y-106090226D01*
X151332795Y-106259744D01*
X151254774Y-106448102D01*
X151215000Y-106648061D01*
X147708227Y-106648061D01*
X147597588Y-106499731D01*
X147381355Y-106304822D01*
X147264466Y-106235195D01*
X147446632Y-106113475D01*
X147653475Y-105906632D01*
X147815990Y-105663411D01*
X147927932Y-105393158D01*
X147985000Y-105106260D01*
X147985000Y-104813740D01*
X147927932Y-104526842D01*
X147815990Y-104256589D01*
X147653475Y-104013368D01*
X147446632Y-103806525D01*
X147272240Y-103690000D01*
X147446632Y-103573475D01*
X147653475Y-103366632D01*
X147815990Y-103123411D01*
X147927932Y-102853158D01*
X147985000Y-102566260D01*
X147985000Y-102273740D01*
X147927932Y-101986842D01*
X147815990Y-101716589D01*
X147653475Y-101473368D01*
X147521620Y-101341513D01*
X147594180Y-101319502D01*
X147704494Y-101260537D01*
X147801185Y-101181185D01*
X147880537Y-101084494D01*
X147939502Y-100974180D01*
X147975812Y-100854482D01*
X147988072Y-100730000D01*
X147985000Y-100165750D01*
X147826250Y-100007000D01*
X146627000Y-100007000D01*
X146627000Y-100027000D01*
X146373000Y-100027000D01*
X146373000Y-100007000D01*
X146353000Y-100007000D01*
X146353000Y-99753000D01*
X146373000Y-99753000D01*
X146373000Y-98553750D01*
X146627000Y-98553750D01*
X146627000Y-99753000D01*
X147826250Y-99753000D01*
X147985000Y-99594250D01*
X147988072Y-99030000D01*
X147975812Y-98905518D01*
X147939502Y-98785820D01*
X147880537Y-98675506D01*
X147801185Y-98578815D01*
X147704494Y-98499463D01*
X147594180Y-98440498D01*
X147474482Y-98404188D01*
X147350000Y-98391928D01*
X146785750Y-98395000D01*
X146627000Y-98553750D01*
X146373000Y-98553750D01*
X146214250Y-98395000D01*
X145660000Y-98391982D01*
X145660000Y-93779872D01*
X146265000Y-93779872D01*
X146265000Y-94220128D01*
X146350890Y-94651925D01*
X146519369Y-95058669D01*
X146763962Y-95424729D01*
X147075271Y-95736038D01*
X147441331Y-95980631D01*
X147848075Y-96149110D01*
X148279872Y-96235000D01*
X148720128Y-96235000D01*
X149151925Y-96149110D01*
X149558669Y-95980631D01*
X149924729Y-95736038D01*
X150236038Y-95424729D01*
X150480631Y-95058669D01*
X150649110Y-94651925D01*
X150735000Y-94220128D01*
X150735000Y-93779872D01*
X150649110Y-93348075D01*
X150480631Y-92941331D01*
X150236038Y-92575271D01*
X149924729Y-92263962D01*
X149558669Y-92019369D01*
X149151925Y-91850890D01*
X148720128Y-91765000D01*
X148279872Y-91765000D01*
X147848075Y-91850890D01*
X147441331Y-92019369D01*
X147075271Y-92263962D01*
X146763962Y-92575271D01*
X146519369Y-92941331D01*
X146350890Y-93348075D01*
X146265000Y-93779872D01*
X145660000Y-93779872D01*
X145660000Y-91032278D01*
X145726714Y-90351874D01*
X145914943Y-89728428D01*
X145983229Y-89600000D01*
X147761928Y-89600000D01*
X147774188Y-89724482D01*
X147810498Y-89844180D01*
X147869463Y-89954494D01*
X147948815Y-90051185D01*
X148045506Y-90130537D01*
X148155820Y-90189502D01*
X148275518Y-90225812D01*
X148400000Y-90238072D01*
X148964250Y-90235000D01*
X149123000Y-90076250D01*
X149123000Y-88877000D01*
X149377000Y-88877000D01*
X149377000Y-90076250D01*
X149535750Y-90235000D01*
X150100000Y-90238072D01*
X150224482Y-90225812D01*
X150344180Y-90189502D01*
X150454494Y-90130537D01*
X150551185Y-90051185D01*
X150630537Y-89954494D01*
X150689502Y-89844180D01*
X150713966Y-89763534D01*
X150789731Y-89847588D01*
X151023080Y-90021641D01*
X151285901Y-90146825D01*
X151433110Y-90191476D01*
X151663000Y-90070155D01*
X151663000Y-88877000D01*
X151917000Y-88877000D01*
X151917000Y-90070155D01*
X152146890Y-90191476D01*
X152294099Y-90146825D01*
X152556920Y-90021641D01*
X152790269Y-89847588D01*
X152985178Y-89631355D01*
X153060000Y-89505745D01*
X153134822Y-89631355D01*
X153329731Y-89847588D01*
X153563080Y-90021641D01*
X153825901Y-90146825D01*
X153973110Y-90191476D01*
X154203000Y-90070155D01*
X154203000Y-88877000D01*
X151917000Y-88877000D01*
X151663000Y-88877000D01*
X149377000Y-88877000D01*
X149123000Y-88877000D01*
X147923750Y-88877000D01*
X147765000Y-89035750D01*
X147761928Y-89600000D01*
X145983229Y-89600000D01*
X146220681Y-89153421D01*
X146632279Y-88648753D01*
X147134067Y-88233638D01*
X147706924Y-87923895D01*
X147761965Y-87906857D01*
X147765000Y-88464250D01*
X147923750Y-88623000D01*
X149123000Y-88623000D01*
X149123000Y-88603000D01*
X149377000Y-88603000D01*
X149377000Y-88623000D01*
X151663000Y-88623000D01*
X151663000Y-88603000D01*
X151917000Y-88603000D01*
X151917000Y-88623000D01*
X154203000Y-88623000D01*
X154203000Y-88603000D01*
X154457000Y-88603000D01*
X154457000Y-88623000D01*
X154477000Y-88623000D01*
X154477000Y-88877000D01*
X154457000Y-88877000D01*
X154457000Y-90070155D01*
X154686890Y-90191476D01*
X154834099Y-90146825D01*
X155096920Y-90021641D01*
X155330269Y-89847588D01*
X155525178Y-89631355D01*
X155594805Y-89514466D01*
X155716525Y-89696632D01*
X155923368Y-89903475D01*
X156166589Y-90065990D01*
X156436842Y-90177932D01*
X156723740Y-90235000D01*
X157016260Y-90235000D01*
X157303158Y-90177932D01*
X157573411Y-90065990D01*
X157816632Y-89903475D01*
X158023475Y-89696632D01*
X158145195Y-89514466D01*
X158214822Y-89631355D01*
X158409731Y-89847588D01*
X158643080Y-90021641D01*
X158905901Y-90146825D01*
X159053110Y-90191476D01*
X159283000Y-90070155D01*
X159283000Y-88877000D01*
X159263000Y-88877000D01*
X159263000Y-88623000D01*
X159283000Y-88623000D01*
X159283000Y-88603000D01*
X159537000Y-88603000D01*
X159537000Y-88623000D01*
X161823000Y-88623000D01*
X161823000Y-88603000D01*
X162077000Y-88603000D01*
X162077000Y-88623000D01*
X164363000Y-88623000D01*
X164363000Y-88603000D01*
X164617000Y-88603000D01*
X164617000Y-88623000D01*
X166903000Y-88623000D01*
X166903000Y-88603000D01*
X167157000Y-88603000D01*
X167157000Y-88623000D01*
X169443000Y-88623000D01*
X169443000Y-88603000D01*
X169697000Y-88603000D01*
X169697000Y-88623000D01*
X169717000Y-88623000D01*
X169717000Y-88877000D01*
X169697000Y-88877000D01*
X169697000Y-90070155D01*
X169926890Y-90191476D01*
X170074099Y-90146825D01*
X170336920Y-90021641D01*
X170539077Y-89870854D01*
X170501717Y-89916377D01*
X170396324Y-90113553D01*
X170331423Y-90327501D01*
X170329251Y-90349550D01*
X170309509Y-90550000D01*
X170315000Y-90605751D01*
X170315000Y-90696627D01*
X170294180Y-90685498D01*
X170174482Y-90649188D01*
X170050000Y-90636928D01*
X169835750Y-90640000D01*
X169677000Y-90798750D01*
X169677000Y-91873000D01*
X169697000Y-91873000D01*
X169697000Y-92127000D01*
X169677000Y-92127000D01*
X169677000Y-92147000D01*
X169423000Y-92147000D01*
X169423000Y-92127000D01*
X169403000Y-92127000D01*
X169403000Y-91873000D01*
X169423000Y-91873000D01*
X169423000Y-90798750D01*
X169264250Y-90640000D01*
X169050000Y-90636928D01*
X168925518Y-90649188D01*
X168805820Y-90685498D01*
X168750916Y-90714845D01*
X168698284Y-90616377D01*
X168556449Y-90443551D01*
X168513140Y-90408008D01*
X167985851Y-89880719D01*
X168030269Y-89847588D01*
X168225178Y-89631355D01*
X168300000Y-89505745D01*
X168374822Y-89631355D01*
X168569731Y-89847588D01*
X168803080Y-90021641D01*
X169065901Y-90146825D01*
X169213110Y-90191476D01*
X169443000Y-90070155D01*
X169443000Y-88877000D01*
X167157000Y-88877000D01*
X167157000Y-88897000D01*
X166903000Y-88897000D01*
X166903000Y-88877000D01*
X164617000Y-88877000D01*
X164617000Y-88897000D01*
X164363000Y-88897000D01*
X164363000Y-88877000D01*
X162077000Y-88877000D01*
X162077000Y-88897000D01*
X161823000Y-88897000D01*
X161823000Y-88877000D01*
X159537000Y-88877000D01*
X159537000Y-90070155D01*
X159766890Y-90191476D01*
X159914099Y-90146825D01*
X160176920Y-90021641D01*
X160410269Y-89847588D01*
X160605178Y-89631355D01*
X160680000Y-89505745D01*
X160754822Y-89631355D01*
X160949731Y-89847588D01*
X161183080Y-90021641D01*
X161445901Y-90146825D01*
X161593110Y-90191476D01*
X161822998Y-90070156D01*
X161822998Y-90235000D01*
X161909868Y-90235000D01*
X157986865Y-94158004D01*
X157943551Y-94193551D01*
X157801716Y-94366377D01*
X157698218Y-94560010D01*
X157696324Y-94563554D01*
X157631423Y-94777502D01*
X157609509Y-95000000D01*
X157615000Y-95055752D01*
X157615001Y-106194239D01*
X157609509Y-106250000D01*
X157631423Y-106472498D01*
X157696324Y-106686446D01*
X157745384Y-106778230D01*
X157801717Y-106883623D01*
X157943552Y-107056449D01*
X157986860Y-107091991D01*
X158236857Y-107341988D01*
X158366377Y-107448283D01*
X158563553Y-107553675D01*
X158777500Y-107618576D01*
X158999999Y-107640490D01*
X159222498Y-107618576D01*
X159436446Y-107553675D01*
X159633622Y-107448283D01*
X159806448Y-107306448D01*
X159948283Y-107133622D01*
X160053675Y-106936446D01*
X160118576Y-106722498D01*
X160140490Y-106499999D01*
X160118576Y-106277500D01*
X160053675Y-106063553D01*
X159948283Y-105866377D01*
X159885000Y-105789267D01*
X159885000Y-95470131D01*
X163920131Y-91435001D01*
X166329870Y-91435001D01*
X166615000Y-91720132D01*
X166615000Y-92212769D01*
X166609509Y-92268520D01*
X166615000Y-92324271D01*
X166631423Y-92491018D01*
X166696324Y-92704966D01*
X166801716Y-92902143D01*
X166943551Y-93074969D01*
X166986864Y-93110516D01*
X168064498Y-94188150D01*
X168100041Y-94231459D01*
X168264439Y-94366377D01*
X168272867Y-94373294D01*
X168470043Y-94478686D01*
X168683991Y-94543587D01*
X168906490Y-94565501D01*
X168962242Y-94560010D01*
X173519239Y-94560010D01*
X173574990Y-94565501D01*
X173630741Y-94560010D01*
X173630742Y-94560010D01*
X173797489Y-94543587D01*
X174011437Y-94478686D01*
X174208613Y-94373294D01*
X174381439Y-94231459D01*
X174416986Y-94188145D01*
X175242060Y-93363072D01*
X175250000Y-93363072D01*
X175423254Y-93346008D01*
X175589850Y-93295472D01*
X175743386Y-93213405D01*
X175877962Y-93102962D01*
X175883342Y-93096406D01*
X175948815Y-93176185D01*
X176045506Y-93255537D01*
X176155820Y-93314502D01*
X176275518Y-93350812D01*
X176400000Y-93363072D01*
X176614250Y-93360000D01*
X176773000Y-93201250D01*
X176773000Y-92127000D01*
X177027000Y-92127000D01*
X177027000Y-93201250D01*
X177185750Y-93360000D01*
X177400000Y-93363072D01*
X177524482Y-93350812D01*
X177644180Y-93314502D01*
X177754494Y-93255537D01*
X177851185Y-93176185D01*
X177930537Y-93079494D01*
X177989502Y-92969180D01*
X178025812Y-92849482D01*
X178038072Y-92725000D01*
X178035000Y-92285750D01*
X177876250Y-92127000D01*
X177027000Y-92127000D01*
X176773000Y-92127000D01*
X176753000Y-92127000D01*
X176753000Y-91873000D01*
X176773000Y-91873000D01*
X176773000Y-90798750D01*
X177027000Y-90798750D01*
X177027000Y-91873000D01*
X177876250Y-91873000D01*
X178035000Y-91714250D01*
X178038072Y-91275000D01*
X178025812Y-91150518D01*
X177989502Y-91030820D01*
X177930537Y-90920506D01*
X177851185Y-90823815D01*
X177754494Y-90744463D01*
X177644180Y-90685498D01*
X177524482Y-90649188D01*
X177400000Y-90636928D01*
X177185750Y-90640000D01*
X177027000Y-90798750D01*
X176773000Y-90798750D01*
X176614250Y-90640000D01*
X176400000Y-90636928D01*
X176275518Y-90649188D01*
X176155820Y-90685498D01*
X176045506Y-90744463D01*
X175948815Y-90823815D01*
X175883342Y-90903594D01*
X175877962Y-90897038D01*
X175785000Y-90820747D01*
X175785000Y-90279872D01*
X179265000Y-90279872D01*
X179265000Y-90720128D01*
X179350890Y-91151925D01*
X179519369Y-91558669D01*
X179763962Y-91924729D01*
X180075271Y-92236038D01*
X180441331Y-92480631D01*
X180848075Y-92649110D01*
X181279872Y-92735000D01*
X181720128Y-92735000D01*
X182151925Y-92649110D01*
X182558669Y-92480631D01*
X182924729Y-92236038D01*
X183236038Y-91924729D01*
X183480631Y-91558669D01*
X183649110Y-91151925D01*
X183735000Y-90720128D01*
X183735000Y-90279872D01*
X183649110Y-89848075D01*
X183480631Y-89441331D01*
X183236038Y-89075271D01*
X182924729Y-88763962D01*
X182558669Y-88519369D01*
X182151925Y-88350890D01*
X181720128Y-88265000D01*
X181279872Y-88265000D01*
X180848075Y-88350890D01*
X180441331Y-88519369D01*
X180075271Y-88763962D01*
X179763962Y-89075271D01*
X179519369Y-89441331D01*
X179350890Y-89848075D01*
X179265000Y-90279872D01*
X175785000Y-90279872D01*
X175785000Y-89715107D01*
X175803475Y-89696632D01*
X175925195Y-89514466D01*
X175994822Y-89631355D01*
X176189731Y-89847588D01*
X176423080Y-90021641D01*
X176685901Y-90146825D01*
X176833110Y-90191476D01*
X177063000Y-90070155D01*
X177063000Y-88877000D01*
X177317000Y-88877000D01*
X177317000Y-90070155D01*
X177546890Y-90191476D01*
X177694099Y-90146825D01*
X177956920Y-90021641D01*
X178190269Y-89847588D01*
X178385178Y-89631355D01*
X178534157Y-89381252D01*
X178631481Y-89106891D01*
X178510814Y-88877000D01*
X177317000Y-88877000D01*
X177063000Y-88877000D01*
X177043000Y-88877000D01*
X177043000Y-88623000D01*
X177063000Y-88623000D01*
X177063000Y-88603000D01*
X177317000Y-88603000D01*
X177317000Y-88623000D01*
X178510814Y-88623000D01*
X178631481Y-88393109D01*
X178534157Y-88118748D01*
X178385178Y-87868645D01*
X178197109Y-87660000D01*
X180967722Y-87660000D01*
X181648126Y-87726714D01*
%TA.AperFunction,Conductor*%
D16*
G36*
X181648126Y-87726714D02*
G01*
X182271572Y-87914943D01*
X182846579Y-88220681D01*
X183351247Y-88632279D01*
X183766362Y-89134067D01*
X184076105Y-89706924D01*
X184268682Y-90329039D01*
X184340001Y-91007594D01*
X184340000Y-115967721D01*
X184273286Y-116648126D01*
X184085057Y-117271570D01*
X183779323Y-117846573D01*
X183367721Y-118351248D01*
X182865933Y-118766362D01*
X182293077Y-119076104D01*
X181670961Y-119268682D01*
X180992417Y-119340000D01*
X149032279Y-119340000D01*
X148351874Y-119273286D01*
X147728430Y-119085057D01*
X147153427Y-118779323D01*
X146648752Y-118367721D01*
X146233638Y-117865933D01*
X145923896Y-117293077D01*
X145731318Y-116670961D01*
X145660000Y-115992417D01*
X145660000Y-115850000D01*
X147511928Y-115850000D01*
X147524188Y-115974482D01*
X147560498Y-116094180D01*
X147619463Y-116204494D01*
X147698815Y-116301185D01*
X147795506Y-116380537D01*
X147905820Y-116439502D01*
X148025518Y-116475812D01*
X148150000Y-116488072D01*
X148714250Y-116485000D01*
X148873000Y-116326250D01*
X148873000Y-115127000D01*
X149127000Y-115127000D01*
X149127000Y-116326250D01*
X149285750Y-116485000D01*
X149850000Y-116488072D01*
X149974482Y-116475812D01*
X150094180Y-116439502D01*
X150204494Y-116380537D01*
X150301185Y-116301185D01*
X150380537Y-116204494D01*
X150439502Y-116094180D01*
X150463966Y-116013534D01*
X150539731Y-116097588D01*
X150773080Y-116271641D01*
X151035901Y-116396825D01*
X151183110Y-116441476D01*
X151413000Y-116320155D01*
X151413000Y-115127000D01*
X151667000Y-115127000D01*
X151667000Y-116320155D01*
X151896890Y-116441476D01*
X152044099Y-116396825D01*
X152306920Y-116271641D01*
X152540269Y-116097588D01*
X152735178Y-115881355D01*
X152810000Y-115755745D01*
X152884822Y-115881355D01*
X153079731Y-116097588D01*
X153313080Y-116271641D01*
X153575901Y-116396825D01*
X153723110Y-116441476D01*
X153953000Y-116320155D01*
X153953000Y-115127000D01*
X154207000Y-115127000D01*
X154207000Y-116320155D01*
X154436890Y-116441476D01*
X154584099Y-116396825D01*
X154846920Y-116271641D01*
X155080269Y-116097588D01*
X155275178Y-115881355D01*
X155350000Y-115755745D01*
X155424822Y-115881355D01*
X155619731Y-116097588D01*
X155853080Y-116271641D01*
X156115901Y-116396825D01*
X156263110Y-116441476D01*
X156493000Y-116320155D01*
X156493000Y-115127000D01*
X156747000Y-115127000D01*
X156747000Y-116320155D01*
X156976890Y-116441476D01*
X157124099Y-116396825D01*
X157386920Y-116271641D01*
X157620269Y-116097588D01*
X157815178Y-115881355D01*
X157890000Y-115755745D01*
X157964822Y-115881355D01*
X158159731Y-116097588D01*
X158393080Y-116271641D01*
X158655901Y-116396825D01*
X158803110Y-116441476D01*
X159033000Y-116320155D01*
X159033000Y-115127000D01*
X159287000Y-115127000D01*
X159287000Y-116320155D01*
X159516890Y-116441476D01*
X159664099Y-116396825D01*
X159926920Y-116271641D01*
X160160269Y-116097588D01*
X160355178Y-115881355D01*
X160430000Y-115755745D01*
X160504822Y-115881355D01*
X160699731Y-116097588D01*
X160933080Y-116271641D01*
X161195901Y-116396825D01*
X161343110Y-116441476D01*
X161573000Y-116320155D01*
X161573000Y-115127000D01*
X161827000Y-115127000D01*
X161827000Y-116320155D01*
X162056890Y-116441476D01*
X162204099Y-116396825D01*
X162466920Y-116271641D01*
X162700269Y-116097588D01*
X162895178Y-115881355D01*
X162970000Y-115755745D01*
X163044822Y-115881355D01*
X163239731Y-116097588D01*
X163473080Y-116271641D01*
X163735901Y-116396825D01*
X163883110Y-116441476D01*
X164113000Y-116320155D01*
X164113000Y-115127000D01*
X164367000Y-115127000D01*
X164367000Y-116320155D01*
X164596890Y-116441476D01*
X164744099Y-116396825D01*
X165006920Y-116271641D01*
X165240269Y-116097588D01*
X165435178Y-115881355D01*
X165510000Y-115755745D01*
X165584822Y-115881355D01*
X165779731Y-116097588D01*
X166013080Y-116271641D01*
X166275901Y-116396825D01*
X166423110Y-116441476D01*
X166653000Y-116320155D01*
X166653000Y-115127000D01*
X166907000Y-115127000D01*
X166907000Y-116320155D01*
X167136890Y-116441476D01*
X167284099Y-116396825D01*
X167546920Y-116271641D01*
X167780269Y-116097588D01*
X167975178Y-115881355D01*
X168050000Y-115755745D01*
X168124822Y-115881355D01*
X168319731Y-116097588D01*
X168553080Y-116271641D01*
X168815901Y-116396825D01*
X168963110Y-116441476D01*
X169193000Y-116320155D01*
X169193000Y-115127000D01*
X169447000Y-115127000D01*
X169447000Y-116320155D01*
X169676890Y-116441476D01*
X169824099Y-116396825D01*
X170086920Y-116271641D01*
X170320269Y-116097588D01*
X170515178Y-115881355D01*
X170590000Y-115755745D01*
X170664822Y-115881355D01*
X170859731Y-116097588D01*
X171093080Y-116271641D01*
X171355901Y-116396825D01*
X171503110Y-116441476D01*
X171733000Y-116320155D01*
X171733000Y-115127000D01*
X171987000Y-115127000D01*
X171987000Y-116320155D01*
X172216890Y-116441476D01*
X172364099Y-116396825D01*
X172626920Y-116271641D01*
X172860269Y-116097588D01*
X173055178Y-115881355D01*
X173130000Y-115755745D01*
X173204822Y-115881355D01*
X173399731Y-116097588D01*
X173633080Y-116271641D01*
X173895901Y-116396825D01*
X174043110Y-116441476D01*
X174273000Y-116320155D01*
X174273000Y-115127000D01*
X174527000Y-115127000D01*
X174527000Y-116320155D01*
X174756890Y-116441476D01*
X174904099Y-116396825D01*
X175166920Y-116271641D01*
X175400269Y-116097588D01*
X175595178Y-115881355D01*
X175670000Y-115755745D01*
X175744822Y-115881355D01*
X175939731Y-116097588D01*
X176173080Y-116271641D01*
X176435901Y-116396825D01*
X176583110Y-116441476D01*
X176813000Y-116320155D01*
X176813000Y-115127000D01*
X177067000Y-115127000D01*
X177067000Y-116320155D01*
X177296890Y-116441476D01*
X177444099Y-116396825D01*
X177689639Y-116279872D01*
X179265000Y-116279872D01*
X179265000Y-116720128D01*
X179350890Y-117151925D01*
X179519369Y-117558669D01*
X179763962Y-117924729D01*
X180075271Y-118236038D01*
X180441331Y-118480631D01*
X180848075Y-118649110D01*
X181279872Y-118735000D01*
X181720128Y-118735000D01*
X182151925Y-118649110D01*
X182558669Y-118480631D01*
X182924729Y-118236038D01*
X183236038Y-117924729D01*
X183480631Y-117558669D01*
X183649110Y-117151925D01*
X183735000Y-116720128D01*
X183735000Y-116279872D01*
X183649110Y-115848075D01*
X183480631Y-115441331D01*
X183236038Y-115075271D01*
X182924729Y-114763962D01*
X182558669Y-114519369D01*
X182151925Y-114350890D01*
X181720128Y-114265000D01*
X181279872Y-114265000D01*
X180848075Y-114350890D01*
X180441331Y-114519369D01*
X180075271Y-114763962D01*
X179763962Y-115075271D01*
X179519369Y-115441331D01*
X179350890Y-115848075D01*
X179265000Y-116279872D01*
X177689639Y-116279872D01*
X177706920Y-116271641D01*
X177940269Y-116097588D01*
X178135178Y-115881355D01*
X178284157Y-115631252D01*
X178381481Y-115356891D01*
X178260814Y-115127000D01*
X177067000Y-115127000D01*
X176813000Y-115127000D01*
X174527000Y-115127000D01*
X174273000Y-115127000D01*
X171987000Y-115127000D01*
X171733000Y-115127000D01*
X169447000Y-115127000D01*
X169193000Y-115127000D01*
X166907000Y-115127000D01*
X166653000Y-115127000D01*
X164367000Y-115127000D01*
X164113000Y-115127000D01*
X161827000Y-115127000D01*
X161573000Y-115127000D01*
X159287000Y-115127000D01*
X159033000Y-115127000D01*
X156747000Y-115127000D01*
X156493000Y-115127000D01*
X154207000Y-115127000D01*
X153953000Y-115127000D01*
X151667000Y-115127000D01*
X151413000Y-115127000D01*
X149127000Y-115127000D01*
X148873000Y-115127000D01*
X147673750Y-115127000D01*
X147515000Y-115285750D01*
X147511928Y-115850000D01*
X145660000Y-115850000D01*
X145660000Y-114150000D01*
X147511928Y-114150000D01*
X147515000Y-114714250D01*
X147673750Y-114873000D01*
X148873000Y-114873000D01*
X148873000Y-113673750D01*
X149127000Y-113673750D01*
X149127000Y-114873000D01*
X151413000Y-114873000D01*
X151413000Y-113679845D01*
X151667000Y-113679845D01*
X151667000Y-114873000D01*
X153953000Y-114873000D01*
X153953000Y-113679845D01*
X154207000Y-113679845D01*
X154207000Y-114873000D01*
X156493000Y-114873000D01*
X156493000Y-113679845D01*
X156747000Y-113679845D01*
X156747000Y-114873000D01*
X159033000Y-114873000D01*
X159033000Y-113679845D01*
X159287000Y-113679845D01*
X159287000Y-114873000D01*
X161573000Y-114873000D01*
X161573000Y-113679845D01*
X161827000Y-113679845D01*
X161827000Y-114873000D01*
X164113000Y-114873000D01*
X164113000Y-113679845D01*
X164367000Y-113679845D01*
X164367000Y-114873000D01*
X166653000Y-114873000D01*
X166653000Y-113679845D01*
X166907000Y-113679845D01*
X166907000Y-114873000D01*
X169193000Y-114873000D01*
X169193000Y-113679845D01*
X169447000Y-113679845D01*
X169447000Y-114873000D01*
X171733000Y-114873000D01*
X171733000Y-113679845D01*
X171987000Y-113679845D01*
X171987000Y-114873000D01*
X174273000Y-114873000D01*
X174273000Y-113679845D01*
X174527000Y-113679845D01*
X174527000Y-114873000D01*
X176813000Y-114873000D01*
X176813000Y-113679845D01*
X177067000Y-113679845D01*
X177067000Y-114873000D01*
X178260814Y-114873000D01*
X178381481Y-114643109D01*
X178284157Y-114368748D01*
X178135178Y-114118645D01*
X177940269Y-113902412D01*
X177706920Y-113728359D01*
X177444099Y-113603175D01*
X177296890Y-113558524D01*
X177067000Y-113679845D01*
X176813000Y-113679845D01*
X176583110Y-113558524D01*
X176435901Y-113603175D01*
X176173080Y-113728359D01*
X175939731Y-113902412D01*
X175744822Y-114118645D01*
X175670000Y-114244255D01*
X175595178Y-114118645D01*
X175400269Y-113902412D01*
X175166920Y-113728359D01*
X174904099Y-113603175D01*
X174756890Y-113558524D01*
X174527000Y-113679845D01*
X174273000Y-113679845D01*
X174043110Y-113558524D01*
X173895901Y-113603175D01*
X173633080Y-113728359D01*
X173399731Y-113902412D01*
X173204822Y-114118645D01*
X173130000Y-114244255D01*
X173055178Y-114118645D01*
X172860269Y-113902412D01*
X172626920Y-113728359D01*
X172364099Y-113603175D01*
X172216890Y-113558524D01*
X171987000Y-113679845D01*
X171733000Y-113679845D01*
X171503110Y-113558524D01*
X171355901Y-113603175D01*
X171093080Y-113728359D01*
X170859731Y-113902412D01*
X170664822Y-114118645D01*
X170590000Y-114244255D01*
X170515178Y-114118645D01*
X170320269Y-113902412D01*
X170086920Y-113728359D01*
X169824099Y-113603175D01*
X169676890Y-113558524D01*
X169447000Y-113679845D01*
X169193000Y-113679845D01*
X168963110Y-113558524D01*
X168815901Y-113603175D01*
X168553080Y-113728359D01*
X168319731Y-113902412D01*
X168124822Y-114118645D01*
X168050000Y-114244255D01*
X167975178Y-114118645D01*
X167780269Y-113902412D01*
X167546920Y-113728359D01*
X167284099Y-113603175D01*
X167136890Y-113558524D01*
X166907000Y-113679845D01*
X166653000Y-113679845D01*
X166423110Y-113558524D01*
X166275901Y-113603175D01*
X166013080Y-113728359D01*
X165779731Y-113902412D01*
X165584822Y-114118645D01*
X165510000Y-114244255D01*
X165435178Y-114118645D01*
X165240269Y-113902412D01*
X165006920Y-113728359D01*
X164744099Y-113603175D01*
X164596890Y-113558524D01*
X164367000Y-113679845D01*
X164113000Y-113679845D01*
X163883110Y-113558524D01*
X163735901Y-113603175D01*
X163473080Y-113728359D01*
X163239731Y-113902412D01*
X163044822Y-114118645D01*
X162970000Y-114244255D01*
X162895178Y-114118645D01*
X162700269Y-113902412D01*
X162466920Y-113728359D01*
X162204099Y-113603175D01*
X162056890Y-113558524D01*
X161827000Y-113679845D01*
X161573000Y-113679845D01*
X161343110Y-113558524D01*
X161195901Y-113603175D01*
X160933080Y-113728359D01*
X160699731Y-113902412D01*
X160504822Y-114118645D01*
X160430000Y-114244255D01*
X160355178Y-114118645D01*
X160160269Y-113902412D01*
X159926920Y-113728359D01*
X159664099Y-113603175D01*
X159516890Y-113558524D01*
X159287000Y-113679845D01*
X159033000Y-113679845D01*
X158803110Y-113558524D01*
X158655901Y-113603175D01*
X158393080Y-113728359D01*
X158159731Y-113902412D01*
X157964822Y-114118645D01*
X157890000Y-114244255D01*
X157815178Y-114118645D01*
X157620269Y-113902412D01*
X157386920Y-113728359D01*
X157124099Y-113603175D01*
X156976890Y-113558524D01*
X156747000Y-113679845D01*
X156493000Y-113679845D01*
X156263110Y-113558524D01*
X156115901Y-113603175D01*
X155853080Y-113728359D01*
X155619731Y-113902412D01*
X155424822Y-114118645D01*
X155350000Y-114244255D01*
X155275178Y-114118645D01*
X155080269Y-113902412D01*
X154846920Y-113728359D01*
X154584099Y-113603175D01*
X154436890Y-113558524D01*
X154207000Y-113679845D01*
X153953000Y-113679845D01*
X153723110Y-113558524D01*
X153575901Y-113603175D01*
X153313080Y-113728359D01*
X153079731Y-113902412D01*
X152884822Y-114118645D01*
X152810000Y-114244255D01*
X152735178Y-114118645D01*
X152540269Y-113902412D01*
X152306920Y-113728359D01*
X152044099Y-113603175D01*
X151896890Y-113558524D01*
X151667000Y-113679845D01*
X151413000Y-113679845D01*
X151183110Y-113558524D01*
X151035901Y-113603175D01*
X150773080Y-113728359D01*
X150539731Y-113902412D01*
X150463966Y-113986466D01*
X150439502Y-113905820D01*
X150380537Y-113795506D01*
X150301185Y-113698815D01*
X150204494Y-113619463D01*
X150094180Y-113560498D01*
X149974482Y-113524188D01*
X149850000Y-113511928D01*
X149285750Y-113515000D01*
X149127000Y-113673750D01*
X148873000Y-113673750D01*
X148714250Y-113515000D01*
X148150000Y-113511928D01*
X148025518Y-113524188D01*
X147905820Y-113560498D01*
X147795506Y-113619463D01*
X147698815Y-113698815D01*
X147619463Y-113795506D01*
X147560498Y-113905820D01*
X147524188Y-114025518D01*
X147511928Y-114150000D01*
X145660000Y-114150000D01*
X145660000Y-109500000D01*
X160359509Y-109500000D01*
X160381423Y-109722498D01*
X160446324Y-109936446D01*
X160551717Y-110133622D01*
X160693552Y-110306448D01*
X160866378Y-110448283D01*
X161063554Y-110553676D01*
X161277502Y-110618577D01*
X161500000Y-110640491D01*
X161722498Y-110618577D01*
X161936446Y-110553676D01*
X162133622Y-110448283D01*
X162263143Y-110341988D01*
X163263145Y-109341987D01*
X163306449Y-109306449D01*
X163395368Y-109198102D01*
X163448284Y-109133623D01*
X163553676Y-108936447D01*
X163618577Y-108722499D01*
X163621268Y-108695178D01*
X163635000Y-108555752D01*
X163640491Y-108500000D01*
X163635000Y-108444248D01*
X163635000Y-101944248D01*
X163618577Y-101777501D01*
X163553676Y-101563553D01*
X163448284Y-101366377D01*
X163306449Y-101193551D01*
X163133623Y-101051716D01*
X162936446Y-100946324D01*
X162722498Y-100881423D01*
X162500000Y-100859509D01*
X162277501Y-100881423D01*
X162063553Y-100946324D01*
X161866377Y-101051716D01*
X161693551Y-101193551D01*
X161551716Y-101366377D01*
X161446324Y-101563554D01*
X161381423Y-101777502D01*
X161365000Y-101944249D01*
X161365001Y-108029867D01*
X160658012Y-108736857D01*
X160551717Y-108866378D01*
X160446324Y-109063554D01*
X160381423Y-109277502D01*
X160359509Y-109500000D01*
X145660000Y-109500000D01*
X145660000Y-108719812D01*
X145868748Y-108844157D01*
X146143109Y-108941481D01*
X146373000Y-108820814D01*
X146373000Y-107627000D01*
X146627000Y-107627000D01*
X146627000Y-108820814D01*
X146856891Y-108941481D01*
X147131252Y-108844157D01*
X147381355Y-108695178D01*
X147597588Y-108500269D01*
X147771641Y-108266920D01*
X147896825Y-108004099D01*
X147941476Y-107856890D01*
X147820155Y-107627000D01*
X146627000Y-107627000D01*
X146373000Y-107627000D01*
X146353000Y-107627000D01*
X146353000Y-107373000D01*
X146373000Y-107373000D01*
X146373000Y-107353000D01*
X146627000Y-107353000D01*
X146627000Y-107373000D01*
X147820155Y-107373000D01*
X147941476Y-107143110D01*
X147896825Y-106995901D01*
X147771641Y-106733080D01*
X147708227Y-106648061D01*
X151215000Y-106648061D01*
X151215000Y-106851939D01*
X151254774Y-107051898D01*
X151332795Y-107240256D01*
X151446063Y-107409774D01*
X151590226Y-107553937D01*
X151759744Y-107667205D01*
X151948102Y-107745226D01*
X152148061Y-107785000D01*
X152351939Y-107785000D01*
X152551898Y-107745226D01*
X152740256Y-107667205D01*
X152909774Y-107553937D01*
X153053937Y-107409774D01*
X153167205Y-107240256D01*
X153245226Y-107051898D01*
X153285000Y-106851939D01*
X153285000Y-106789801D01*
X154788829Y-105285973D01*
X154817826Y-105262176D01*
X154912799Y-105146451D01*
X154983371Y-105014422D01*
X155026828Y-104871161D01*
X155037825Y-104759508D01*
X155037825Y-104759507D01*
X155041502Y-104722175D01*
X155037825Y-104684842D01*
X155037825Y-104175886D01*
X155081762Y-104131949D01*
X155195030Y-103962431D01*
X155273051Y-103774073D01*
X155312825Y-103574114D01*
X155312825Y-103370236D01*
X155273051Y-103170277D01*
X155195030Y-102981919D01*
X155081762Y-102812401D01*
X154937599Y-102668238D01*
X154768081Y-102554970D01*
X154579723Y-102476949D01*
X154379764Y-102437175D01*
X154175886Y-102437175D01*
X153975927Y-102476949D01*
X153787569Y-102554970D01*
X153618051Y-102668238D01*
X153473888Y-102812401D01*
X153360620Y-102981919D01*
X153282599Y-103170277D01*
X153242825Y-103370236D01*
X153242825Y-103574114D01*
X153282599Y-103774073D01*
X153360620Y-103962431D01*
X153473888Y-104131949D01*
X153517825Y-104175886D01*
X153517825Y-104407373D01*
X152210199Y-105715000D01*
X152148061Y-105715000D01*
X151948102Y-105754774D01*
X151759744Y-105832795D01*
X151590226Y-105946063D01*
X151446063Y-106090226D01*
X151332795Y-106259744D01*
X151254774Y-106448102D01*
X151215000Y-106648061D01*
X147708227Y-106648061D01*
X147597588Y-106499731D01*
X147381355Y-106304822D01*
X147264466Y-106235195D01*
X147446632Y-106113475D01*
X147653475Y-105906632D01*
X147815990Y-105663411D01*
X147927932Y-105393158D01*
X147985000Y-105106260D01*
X147985000Y-104813740D01*
X147927932Y-104526842D01*
X147815990Y-104256589D01*
X147653475Y-104013368D01*
X147446632Y-103806525D01*
X147272240Y-103690000D01*
X147446632Y-103573475D01*
X147653475Y-103366632D01*
X147815990Y-103123411D01*
X147927932Y-102853158D01*
X147985000Y-102566260D01*
X147985000Y-102273740D01*
X147927932Y-101986842D01*
X147815990Y-101716589D01*
X147653475Y-101473368D01*
X147521620Y-101341513D01*
X147594180Y-101319502D01*
X147704494Y-101260537D01*
X147801185Y-101181185D01*
X147880537Y-101084494D01*
X147939502Y-100974180D01*
X147975812Y-100854482D01*
X147988072Y-100730000D01*
X147985000Y-100165750D01*
X147826250Y-100007000D01*
X146627000Y-100007000D01*
X146627000Y-100027000D01*
X146373000Y-100027000D01*
X146373000Y-100007000D01*
X146353000Y-100007000D01*
X146353000Y-99753000D01*
X146373000Y-99753000D01*
X146373000Y-98553750D01*
X146627000Y-98553750D01*
X146627000Y-99753000D01*
X147826250Y-99753000D01*
X147985000Y-99594250D01*
X147988072Y-99030000D01*
X147975812Y-98905518D01*
X147939502Y-98785820D01*
X147880537Y-98675506D01*
X147801185Y-98578815D01*
X147704494Y-98499463D01*
X147594180Y-98440498D01*
X147474482Y-98404188D01*
X147350000Y-98391928D01*
X146785750Y-98395000D01*
X146627000Y-98553750D01*
X146373000Y-98553750D01*
X146214250Y-98395000D01*
X145660000Y-98391982D01*
X145660000Y-93779872D01*
X146265000Y-93779872D01*
X146265000Y-94220128D01*
X146350890Y-94651925D01*
X146519369Y-95058669D01*
X146763962Y-95424729D01*
X147075271Y-95736038D01*
X147441331Y-95980631D01*
X147848075Y-96149110D01*
X148279872Y-96235000D01*
X148720128Y-96235000D01*
X149151925Y-96149110D01*
X149558669Y-95980631D01*
X149924729Y-95736038D01*
X150236038Y-95424729D01*
X150480631Y-95058669D01*
X150649110Y-94651925D01*
X150735000Y-94220128D01*
X150735000Y-93779872D01*
X150649110Y-93348075D01*
X150480631Y-92941331D01*
X150236038Y-92575271D01*
X149924729Y-92263962D01*
X149558669Y-92019369D01*
X149151925Y-91850890D01*
X148720128Y-91765000D01*
X148279872Y-91765000D01*
X147848075Y-91850890D01*
X147441331Y-92019369D01*
X147075271Y-92263962D01*
X146763962Y-92575271D01*
X146519369Y-92941331D01*
X146350890Y-93348075D01*
X146265000Y-93779872D01*
X145660000Y-93779872D01*
X145660000Y-91032278D01*
X145726714Y-90351874D01*
X145914943Y-89728428D01*
X145983229Y-89600000D01*
X147761928Y-89600000D01*
X147774188Y-89724482D01*
X147810498Y-89844180D01*
X147869463Y-89954494D01*
X147948815Y-90051185D01*
X148045506Y-90130537D01*
X148155820Y-90189502D01*
X148275518Y-90225812D01*
X148400000Y-90238072D01*
X148964250Y-90235000D01*
X149123000Y-90076250D01*
X149123000Y-88877000D01*
X149377000Y-88877000D01*
X149377000Y-90076250D01*
X149535750Y-90235000D01*
X150100000Y-90238072D01*
X150224482Y-90225812D01*
X150344180Y-90189502D01*
X150454494Y-90130537D01*
X150551185Y-90051185D01*
X150630537Y-89954494D01*
X150689502Y-89844180D01*
X150713966Y-89763534D01*
X150789731Y-89847588D01*
X151023080Y-90021641D01*
X151285901Y-90146825D01*
X151433110Y-90191476D01*
X151663000Y-90070155D01*
X151663000Y-88877000D01*
X151917000Y-88877000D01*
X151917000Y-90070155D01*
X152146890Y-90191476D01*
X152294099Y-90146825D01*
X152556920Y-90021641D01*
X152790269Y-89847588D01*
X152985178Y-89631355D01*
X153060000Y-89505745D01*
X153134822Y-89631355D01*
X153329731Y-89847588D01*
X153563080Y-90021641D01*
X153825901Y-90146825D01*
X153973110Y-90191476D01*
X154203000Y-90070155D01*
X154203000Y-88877000D01*
X151917000Y-88877000D01*
X151663000Y-88877000D01*
X149377000Y-88877000D01*
X149123000Y-88877000D01*
X147923750Y-88877000D01*
X147765000Y-89035750D01*
X147761928Y-89600000D01*
X145983229Y-89600000D01*
X146220681Y-89153421D01*
X146632279Y-88648753D01*
X147134067Y-88233638D01*
X147706924Y-87923895D01*
X147761965Y-87906857D01*
X147765000Y-88464250D01*
X147923750Y-88623000D01*
X149123000Y-88623000D01*
X149123000Y-88603000D01*
X149377000Y-88603000D01*
X149377000Y-88623000D01*
X151663000Y-88623000D01*
X151663000Y-88603000D01*
X151917000Y-88603000D01*
X151917000Y-88623000D01*
X154203000Y-88623000D01*
X154203000Y-88603000D01*
X154457000Y-88603000D01*
X154457000Y-88623000D01*
X154477000Y-88623000D01*
X154477000Y-88877000D01*
X154457000Y-88877000D01*
X154457000Y-90070155D01*
X154686890Y-90191476D01*
X154834099Y-90146825D01*
X155096920Y-90021641D01*
X155330269Y-89847588D01*
X155525178Y-89631355D01*
X155594805Y-89514466D01*
X155716525Y-89696632D01*
X155923368Y-89903475D01*
X156166589Y-90065990D01*
X156436842Y-90177932D01*
X156723740Y-90235000D01*
X157016260Y-90235000D01*
X157303158Y-90177932D01*
X157573411Y-90065990D01*
X157816632Y-89903475D01*
X158023475Y-89696632D01*
X158145195Y-89514466D01*
X158214822Y-89631355D01*
X158409731Y-89847588D01*
X158643080Y-90021641D01*
X158905901Y-90146825D01*
X159053110Y-90191476D01*
X159283000Y-90070155D01*
X159283000Y-88877000D01*
X159263000Y-88877000D01*
X159263000Y-88623000D01*
X159283000Y-88623000D01*
X159283000Y-88603000D01*
X159537000Y-88603000D01*
X159537000Y-88623000D01*
X161823000Y-88623000D01*
X161823000Y-88603000D01*
X162077000Y-88603000D01*
X162077000Y-88623000D01*
X164363000Y-88623000D01*
X164363000Y-88603000D01*
X164617000Y-88603000D01*
X164617000Y-88623000D01*
X166903000Y-88623000D01*
X166903000Y-88603000D01*
X167157000Y-88603000D01*
X167157000Y-88623000D01*
X169443000Y-88623000D01*
X169443000Y-88603000D01*
X169697000Y-88603000D01*
X169697000Y-88623000D01*
X169717000Y-88623000D01*
X169717000Y-88877000D01*
X169697000Y-88877000D01*
X169697000Y-90070155D01*
X169926890Y-90191476D01*
X170074099Y-90146825D01*
X170336920Y-90021641D01*
X170539077Y-89870854D01*
X170501717Y-89916377D01*
X170396324Y-90113553D01*
X170331423Y-90327501D01*
X170329251Y-90349550D01*
X170309509Y-90550000D01*
X170315000Y-90605751D01*
X170315000Y-90696627D01*
X170294180Y-90685498D01*
X170174482Y-90649188D01*
X170050000Y-90636928D01*
X169835750Y-90640000D01*
X169677000Y-90798750D01*
X169677000Y-91873000D01*
X169697000Y-91873000D01*
X169697000Y-92127000D01*
X169677000Y-92127000D01*
X169677000Y-92147000D01*
X169423000Y-92147000D01*
X169423000Y-92127000D01*
X169403000Y-92127000D01*
X169403000Y-91873000D01*
X169423000Y-91873000D01*
X169423000Y-90798750D01*
X169264250Y-90640000D01*
X169050000Y-90636928D01*
X168925518Y-90649188D01*
X168805820Y-90685498D01*
X168750916Y-90714845D01*
X168698284Y-90616377D01*
X168556449Y-90443551D01*
X168513140Y-90408008D01*
X167985851Y-89880719D01*
X168030269Y-89847588D01*
X168225178Y-89631355D01*
X168300000Y-89505745D01*
X168374822Y-89631355D01*
X168569731Y-89847588D01*
X168803080Y-90021641D01*
X169065901Y-90146825D01*
X169213110Y-90191476D01*
X169443000Y-90070155D01*
X169443000Y-88877000D01*
X167157000Y-88877000D01*
X167157000Y-88897000D01*
X166903000Y-88897000D01*
X166903000Y-88877000D01*
X164617000Y-88877000D01*
X164617000Y-88897000D01*
X164363000Y-88897000D01*
X164363000Y-88877000D01*
X162077000Y-88877000D01*
X162077000Y-88897000D01*
X161823000Y-88897000D01*
X161823000Y-88877000D01*
X159537000Y-88877000D01*
X159537000Y-90070155D01*
X159766890Y-90191476D01*
X159914099Y-90146825D01*
X160176920Y-90021641D01*
X160410269Y-89847588D01*
X160605178Y-89631355D01*
X160680000Y-89505745D01*
X160754822Y-89631355D01*
X160949731Y-89847588D01*
X161183080Y-90021641D01*
X161445901Y-90146825D01*
X161593110Y-90191476D01*
X161822998Y-90070156D01*
X161822998Y-90235000D01*
X161909868Y-90235000D01*
X157986865Y-94158004D01*
X157943551Y-94193551D01*
X157801716Y-94366377D01*
X157698218Y-94560010D01*
X157696324Y-94563554D01*
X157631423Y-94777502D01*
X157609509Y-95000000D01*
X157615000Y-95055752D01*
X157615001Y-106194239D01*
X157609509Y-106250000D01*
X157631423Y-106472498D01*
X157696324Y-106686446D01*
X157745384Y-106778230D01*
X157801717Y-106883623D01*
X157943552Y-107056449D01*
X157986860Y-107091991D01*
X158236857Y-107341988D01*
X158366377Y-107448283D01*
X158563553Y-107553675D01*
X158777500Y-107618576D01*
X158999999Y-107640490D01*
X159222498Y-107618576D01*
X159436446Y-107553675D01*
X159633622Y-107448283D01*
X159806448Y-107306448D01*
X159948283Y-107133622D01*
X160053675Y-106936446D01*
X160118576Y-106722498D01*
X160140490Y-106499999D01*
X160118576Y-106277500D01*
X160053675Y-106063553D01*
X159948283Y-105866377D01*
X159885000Y-105789267D01*
X159885000Y-95470131D01*
X163920131Y-91435001D01*
X166329870Y-91435001D01*
X166615000Y-91720132D01*
X166615000Y-92212769D01*
X166609509Y-92268520D01*
X166615000Y-92324271D01*
X166631423Y-92491018D01*
X166696324Y-92704966D01*
X166801716Y-92902143D01*
X166943551Y-93074969D01*
X166986864Y-93110516D01*
X168064498Y-94188150D01*
X168100041Y-94231459D01*
X168264439Y-94366377D01*
X168272867Y-94373294D01*
X168470043Y-94478686D01*
X168683991Y-94543587D01*
X168906490Y-94565501D01*
X168962242Y-94560010D01*
X173519239Y-94560010D01*
X173574990Y-94565501D01*
X173630741Y-94560010D01*
X173630742Y-94560010D01*
X173797489Y-94543587D01*
X174011437Y-94478686D01*
X174208613Y-94373294D01*
X174381439Y-94231459D01*
X174416986Y-94188145D01*
X175242060Y-93363072D01*
X175250000Y-93363072D01*
X175423254Y-93346008D01*
X175589850Y-93295472D01*
X175743386Y-93213405D01*
X175877962Y-93102962D01*
X175883342Y-93096406D01*
X175948815Y-93176185D01*
X176045506Y-93255537D01*
X176155820Y-93314502D01*
X176275518Y-93350812D01*
X176400000Y-93363072D01*
X176614250Y-93360000D01*
X176773000Y-93201250D01*
X176773000Y-92127000D01*
X177027000Y-92127000D01*
X177027000Y-93201250D01*
X177185750Y-93360000D01*
X177400000Y-93363072D01*
X177524482Y-93350812D01*
X177644180Y-93314502D01*
X177754494Y-93255537D01*
X177851185Y-93176185D01*
X177930537Y-93079494D01*
X177989502Y-92969180D01*
X178025812Y-92849482D01*
X178038072Y-92725000D01*
X178035000Y-92285750D01*
X177876250Y-92127000D01*
X177027000Y-92127000D01*
X176773000Y-92127000D01*
X176753000Y-92127000D01*
X176753000Y-91873000D01*
X176773000Y-91873000D01*
X176773000Y-90798750D01*
X177027000Y-90798750D01*
X177027000Y-91873000D01*
X177876250Y-91873000D01*
X178035000Y-91714250D01*
X178038072Y-91275000D01*
X178025812Y-91150518D01*
X177989502Y-91030820D01*
X177930537Y-90920506D01*
X177851185Y-90823815D01*
X177754494Y-90744463D01*
X177644180Y-90685498D01*
X177524482Y-90649188D01*
X177400000Y-90636928D01*
X177185750Y-90640000D01*
X177027000Y-90798750D01*
X176773000Y-90798750D01*
X176614250Y-90640000D01*
X176400000Y-90636928D01*
X176275518Y-90649188D01*
X176155820Y-90685498D01*
X176045506Y-90744463D01*
X175948815Y-90823815D01*
X175883342Y-90903594D01*
X175877962Y-90897038D01*
X175785000Y-90820747D01*
X175785000Y-90279872D01*
X179265000Y-90279872D01*
X179265000Y-90720128D01*
X179350890Y-91151925D01*
X179519369Y-91558669D01*
X179763962Y-91924729D01*
X180075271Y-92236038D01*
X180441331Y-92480631D01*
X180848075Y-92649110D01*
X181279872Y-92735000D01*
X181720128Y-92735000D01*
X182151925Y-92649110D01*
X182558669Y-92480631D01*
X182924729Y-92236038D01*
X183236038Y-91924729D01*
X183480631Y-91558669D01*
X183649110Y-91151925D01*
X183735000Y-90720128D01*
X183735000Y-90279872D01*
X183649110Y-89848075D01*
X183480631Y-89441331D01*
X183236038Y-89075271D01*
X182924729Y-88763962D01*
X182558669Y-88519369D01*
X182151925Y-88350890D01*
X181720128Y-88265000D01*
X181279872Y-88265000D01*
X180848075Y-88350890D01*
X180441331Y-88519369D01*
X180075271Y-88763962D01*
X179763962Y-89075271D01*
X179519369Y-89441331D01*
X179350890Y-89848075D01*
X179265000Y-90279872D01*
X175785000Y-90279872D01*
X175785000Y-89715107D01*
X175803475Y-89696632D01*
X175925195Y-89514466D01*
X175994822Y-89631355D01*
X176189731Y-89847588D01*
X176423080Y-90021641D01*
X176685901Y-90146825D01*
X176833110Y-90191476D01*
X177063000Y-90070155D01*
X177063000Y-88877000D01*
X177317000Y-88877000D01*
X177317000Y-90070155D01*
X177546890Y-90191476D01*
X177694099Y-90146825D01*
X177956920Y-90021641D01*
X178190269Y-89847588D01*
X178385178Y-89631355D01*
X178534157Y-89381252D01*
X178631481Y-89106891D01*
X178510814Y-88877000D01*
X177317000Y-88877000D01*
X177063000Y-88877000D01*
X177043000Y-88877000D01*
X177043000Y-88623000D01*
X177063000Y-88623000D01*
X177063000Y-88603000D01*
X177317000Y-88603000D01*
X177317000Y-88623000D01*
X178510814Y-88623000D01*
X178631481Y-88393109D01*
X178534157Y-88118748D01*
X178385178Y-87868645D01*
X178197109Y-87660000D01*
X180967722Y-87660000D01*
X181648126Y-87726714D01*
G37*
%TD.AperFunction*%
%TD*%
M02*
