%TF.GenerationSoftware,KiCad,Pcbnew,(6.0.10)*%
%TF.CreationDate,2023-02-20T15:55:57-05:00*%
%TF.ProjectId,Rx_Preamp,52785f50-7265-4616-9d70-2e6b69636164,rev?*%
%TF.SameCoordinates,Original*%
%TF.FileFunction,Legend,Top*%
%TF.FilePolarity,Positive*%
%FSLAX46Y46*%
G04 Gerber Fmt 4.6, Leading zero omitted, Abs format (unit mm)*
G04 Created by KiCad (PCBNEW (6.0.10)) date 2023-02-20 15:55:57*
%MOMM*%
%LPD*%
G01*
G04 APERTURE LIST*
%ADD10C,0.120000*%
%ADD11C,0.150000*%
%ADD12C,0.015000*%
%ADD13C,0.127000*%
%ADD14C,0.200000*%
G04 APERTURE END LIST*
D10*
X119723607Y-116500000D02*
G75*
G03*
X119723607Y-116500000I-223607J0D01*
G01*
X118300000Y-139900000D02*
G75*
G03*
X118300000Y-139900000I-200000J0D01*
G01*
X58000000Y-100500000D02*
X58000000Y-95500000D01*
X65250000Y-113250000D02*
X85250000Y-113250000D01*
X85250000Y-107750000D02*
X65250000Y-107750000D01*
X119500000Y-121000000D02*
G75*
G03*
X119500000Y-121000000I-500000J0D01*
G01*
X81500000Y-95500000D02*
X81500000Y-100500000D01*
X58000000Y-95500000D02*
X81500000Y-95500000D01*
X65250000Y-107750000D02*
X65250000Y-113250000D01*
X81500000Y-100500000D02*
X58000000Y-100500000D01*
X85250000Y-113250000D02*
X85250000Y-107750000D01*
D11*
X56071428Y-89452380D02*
X56404761Y-90452380D01*
X56738095Y-89452380D01*
X57023809Y-90404761D02*
X57166666Y-90452380D01*
X57404761Y-90452380D01*
X57500000Y-90404761D01*
X57547619Y-90357142D01*
X57595238Y-90261904D01*
X57595238Y-90166666D01*
X57547619Y-90071428D01*
X57500000Y-90023809D01*
X57404761Y-89976190D01*
X57214285Y-89928571D01*
X57119047Y-89880952D01*
X57071428Y-89833333D01*
X57023809Y-89738095D01*
X57023809Y-89642857D01*
X57071428Y-89547619D01*
X57119047Y-89500000D01*
X57214285Y-89452380D01*
X57452380Y-89452380D01*
X57595238Y-89500000D01*
X58023809Y-90071428D02*
X58785714Y-90071428D01*
X83071428Y-94952380D02*
X83404761Y-95952380D01*
X83738095Y-94952380D01*
X84023809Y-95904761D02*
X84166666Y-95952380D01*
X84404761Y-95952380D01*
X84500000Y-95904761D01*
X84547619Y-95857142D01*
X84595238Y-95761904D01*
X84595238Y-95666666D01*
X84547619Y-95571428D01*
X84500000Y-95523809D01*
X84404761Y-95476190D01*
X84214285Y-95428571D01*
X84119047Y-95380952D01*
X84071428Y-95333333D01*
X84023809Y-95238095D01*
X84023809Y-95142857D01*
X84071428Y-95047619D01*
X84119047Y-95000000D01*
X84214285Y-94952380D01*
X84452380Y-94952380D01*
X84595238Y-95000000D01*
X85023809Y-95571428D02*
X85785714Y-95571428D01*
X85404761Y-95952380D02*
X85404761Y-95190476D01*
X81571428Y-111202380D02*
X81904761Y-112202380D01*
X82238095Y-111202380D01*
X82523809Y-112154761D02*
X82666666Y-112202380D01*
X82904761Y-112202380D01*
X83000000Y-112154761D01*
X83047619Y-112107142D01*
X83095238Y-112011904D01*
X83095238Y-111916666D01*
X83047619Y-111821428D01*
X83000000Y-111773809D01*
X82904761Y-111726190D01*
X82714285Y-111678571D01*
X82619047Y-111630952D01*
X82571428Y-111583333D01*
X82523809Y-111488095D01*
X82523809Y-111392857D01*
X82571428Y-111297619D01*
X82619047Y-111250000D01*
X82714285Y-111202380D01*
X82952380Y-111202380D01*
X83095238Y-111250000D01*
X83523809Y-111821428D02*
X84285714Y-111821428D01*
X83904761Y-112202380D02*
X83904761Y-111440476D01*
X81321428Y-108702380D02*
X81654761Y-109702380D01*
X81988095Y-108702380D01*
X82273809Y-109654761D02*
X82416666Y-109702380D01*
X82654761Y-109702380D01*
X82750000Y-109654761D01*
X82797619Y-109607142D01*
X82845238Y-109511904D01*
X82845238Y-109416666D01*
X82797619Y-109321428D01*
X82750000Y-109273809D01*
X82654761Y-109226190D01*
X82464285Y-109178571D01*
X82369047Y-109130952D01*
X82321428Y-109083333D01*
X82273809Y-108988095D01*
X82273809Y-108892857D01*
X82321428Y-108797619D01*
X82369047Y-108750000D01*
X82464285Y-108702380D01*
X82702380Y-108702380D01*
X82845238Y-108750000D01*
X83273809Y-109321428D02*
X84035714Y-109321428D01*
X115654761Y-97535714D02*
X115702380Y-97392857D01*
X115702380Y-97154761D01*
X115654761Y-97059523D01*
X115607142Y-97011904D01*
X115511904Y-96964285D01*
X115416666Y-96964285D01*
X115321428Y-97011904D01*
X115273809Y-97059523D01*
X115226190Y-97154761D01*
X115178571Y-97345238D01*
X115130952Y-97440476D01*
X115083333Y-97488095D01*
X114988095Y-97535714D01*
X114892857Y-97535714D01*
X114797619Y-97488095D01*
X114750000Y-97440476D01*
X114702380Y-97345238D01*
X114702380Y-97107142D01*
X114750000Y-96964285D01*
X115702380Y-96535714D02*
X115035714Y-96535714D01*
X114702380Y-96535714D02*
X114750000Y-96583333D01*
X114797619Y-96535714D01*
X114750000Y-96488095D01*
X114702380Y-96535714D01*
X114797619Y-96535714D01*
X115035714Y-95630952D02*
X115845238Y-95630952D01*
X115940476Y-95678571D01*
X115988095Y-95726190D01*
X116035714Y-95821428D01*
X116035714Y-95964285D01*
X115988095Y-96059523D01*
X115654761Y-95630952D02*
X115702380Y-95726190D01*
X115702380Y-95916666D01*
X115654761Y-96011904D01*
X115607142Y-96059523D01*
X115511904Y-96107142D01*
X115226190Y-96107142D01*
X115130952Y-96059523D01*
X115083333Y-96011904D01*
X115035714Y-95916666D01*
X115035714Y-95726190D01*
X115083333Y-95630952D01*
X115035714Y-95154761D02*
X115702380Y-95154761D01*
X115130952Y-95154761D02*
X115083333Y-95107142D01*
X115035714Y-95011904D01*
X115035714Y-94869047D01*
X115083333Y-94773809D01*
X115178571Y-94726190D01*
X115702380Y-94726190D01*
X115702380Y-93821428D02*
X115178571Y-93821428D01*
X115083333Y-93869047D01*
X115035714Y-93964285D01*
X115035714Y-94154761D01*
X115083333Y-94250000D01*
X115654761Y-93821428D02*
X115702380Y-93916666D01*
X115702380Y-94154761D01*
X115654761Y-94250000D01*
X115559523Y-94297619D01*
X115464285Y-94297619D01*
X115369047Y-94250000D01*
X115321428Y-94154761D01*
X115321428Y-93916666D01*
X115273809Y-93821428D01*
X115702380Y-93202380D02*
X115654761Y-93297619D01*
X115559523Y-93345238D01*
X114702380Y-93345238D01*
X114702380Y-91869047D02*
X114702380Y-91678571D01*
X114750000Y-91583333D01*
X114845238Y-91488095D01*
X115035714Y-91440476D01*
X115369047Y-91440476D01*
X115559523Y-91488095D01*
X115654761Y-91583333D01*
X115702380Y-91678571D01*
X115702380Y-91869047D01*
X115654761Y-91964285D01*
X115559523Y-92059523D01*
X115369047Y-92107142D01*
X115035714Y-92107142D01*
X114845238Y-92059523D01*
X114750000Y-91964285D01*
X114702380Y-91869047D01*
X115035714Y-90583333D02*
X115702380Y-90583333D01*
X115035714Y-91011904D02*
X115559523Y-91011904D01*
X115654761Y-90964285D01*
X115702380Y-90869047D01*
X115702380Y-90726190D01*
X115654761Y-90630952D01*
X115607142Y-90583333D01*
X115035714Y-90250000D02*
X115035714Y-89869047D01*
X114702380Y-90107142D02*
X115559523Y-90107142D01*
X115654761Y-90059523D01*
X115702380Y-89964285D01*
X115702380Y-89869047D01*
X115321428Y-88773809D02*
X115321428Y-88011904D01*
X62849761Y-112285714D02*
X62897380Y-112142857D01*
X62897380Y-111904761D01*
X62849761Y-111809523D01*
X62802142Y-111761904D01*
X62706904Y-111714285D01*
X62611666Y-111714285D01*
X62516428Y-111761904D01*
X62468809Y-111809523D01*
X62421190Y-111904761D01*
X62373571Y-112095238D01*
X62325952Y-112190476D01*
X62278333Y-112238095D01*
X62183095Y-112285714D01*
X62087857Y-112285714D01*
X61992619Y-112238095D01*
X61945000Y-112190476D01*
X61897380Y-112095238D01*
X61897380Y-111857142D01*
X61945000Y-111714285D01*
X62230714Y-110857142D02*
X62897380Y-110857142D01*
X62230714Y-111285714D02*
X62754523Y-111285714D01*
X62849761Y-111238095D01*
X62897380Y-111142857D01*
X62897380Y-111000000D01*
X62849761Y-110904761D01*
X62802142Y-110857142D01*
X62230714Y-110380952D02*
X63230714Y-110380952D01*
X62278333Y-110380952D02*
X62230714Y-110285714D01*
X62230714Y-110095238D01*
X62278333Y-110000000D01*
X62325952Y-109952380D01*
X62421190Y-109904761D01*
X62706904Y-109904761D01*
X62802142Y-109952380D01*
X62849761Y-110000000D01*
X62897380Y-110095238D01*
X62897380Y-110285714D01*
X62849761Y-110380952D01*
X62230714Y-109476190D02*
X63230714Y-109476190D01*
X62278333Y-109476190D02*
X62230714Y-109380952D01*
X62230714Y-109190476D01*
X62278333Y-109095238D01*
X62325952Y-109047619D01*
X62421190Y-109000000D01*
X62706904Y-109000000D01*
X62802142Y-109047619D01*
X62849761Y-109095238D01*
X62897380Y-109190476D01*
X62897380Y-109380952D01*
X62849761Y-109476190D01*
X62897380Y-108428571D02*
X62849761Y-108523809D01*
X62754523Y-108571428D01*
X61897380Y-108571428D01*
X62230714Y-108142857D02*
X62897380Y-107904761D01*
X62230714Y-107666666D02*
X62897380Y-107904761D01*
X63135476Y-108000000D01*
X63183095Y-108047619D01*
X63230714Y-108142857D01*
X63555000Y-111095238D02*
X63507380Y-111190476D01*
X63507380Y-111333333D01*
X63555000Y-111476190D01*
X63650238Y-111571428D01*
X63745476Y-111619047D01*
X63935952Y-111666666D01*
X64078809Y-111666666D01*
X64269285Y-111619047D01*
X64364523Y-111571428D01*
X64459761Y-111476190D01*
X64507380Y-111333333D01*
X64507380Y-111238095D01*
X64459761Y-111095238D01*
X64412142Y-111047619D01*
X64078809Y-111047619D01*
X64078809Y-111238095D01*
X64507380Y-110476190D02*
X64459761Y-110571428D01*
X64412142Y-110619047D01*
X64316904Y-110666666D01*
X64031190Y-110666666D01*
X63935952Y-110619047D01*
X63888333Y-110571428D01*
X63840714Y-110476190D01*
X63840714Y-110333333D01*
X63888333Y-110238095D01*
X63935952Y-110190476D01*
X64031190Y-110142857D01*
X64316904Y-110142857D01*
X64412142Y-110190476D01*
X64459761Y-110238095D01*
X64507380Y-110333333D01*
X64507380Y-110476190D01*
X64507380Y-109571428D02*
X64459761Y-109666666D01*
X64412142Y-109714285D01*
X64316904Y-109761904D01*
X64031190Y-109761904D01*
X63935952Y-109714285D01*
X63888333Y-109666666D01*
X63840714Y-109571428D01*
X63840714Y-109428571D01*
X63888333Y-109333333D01*
X63935952Y-109285714D01*
X64031190Y-109238095D01*
X64316904Y-109238095D01*
X64412142Y-109285714D01*
X64459761Y-109333333D01*
X64507380Y-109428571D01*
X64507380Y-109571428D01*
X64507380Y-108380952D02*
X63507380Y-108380952D01*
X64459761Y-108380952D02*
X64507380Y-108476190D01*
X64507380Y-108666666D01*
X64459761Y-108761904D01*
X64412142Y-108809523D01*
X64316904Y-108857142D01*
X64031190Y-108857142D01*
X63935952Y-108809523D01*
X63888333Y-108761904D01*
X63840714Y-108666666D01*
X63840714Y-108476190D01*
X63888333Y-108380952D01*
X56571428Y-114452380D02*
X56904761Y-115452380D01*
X57238095Y-114452380D01*
X57523809Y-115404761D02*
X57666666Y-115452380D01*
X57904761Y-115452380D01*
X58000000Y-115404761D01*
X58047619Y-115357142D01*
X58095238Y-115261904D01*
X58095238Y-115166666D01*
X58047619Y-115071428D01*
X58000000Y-115023809D01*
X57904761Y-114976190D01*
X57714285Y-114928571D01*
X57619047Y-114880952D01*
X57571428Y-114833333D01*
X57523809Y-114738095D01*
X57523809Y-114642857D01*
X57571428Y-114547619D01*
X57619047Y-114500000D01*
X57714285Y-114452380D01*
X57952380Y-114452380D01*
X58095238Y-114500000D01*
X58523809Y-115071428D02*
X59285714Y-115071428D01*
X58904761Y-115452380D02*
X58904761Y-114690476D01*
X75488095Y-118452380D02*
X76154761Y-118452380D01*
X75726190Y-119452380D01*
X76583333Y-119452380D02*
X76773809Y-119452380D01*
X76869047Y-119404761D01*
X76916666Y-119357142D01*
X77011904Y-119214285D01*
X77059523Y-119023809D01*
X77059523Y-118642857D01*
X77011904Y-118547619D01*
X76964285Y-118500000D01*
X76869047Y-118452380D01*
X76678571Y-118452380D01*
X76583333Y-118500000D01*
X76535714Y-118547619D01*
X76488095Y-118642857D01*
X76488095Y-118880952D01*
X76535714Y-118976190D01*
X76583333Y-119023809D01*
X76678571Y-119071428D01*
X76869047Y-119071428D01*
X76964285Y-119023809D01*
X77011904Y-118976190D01*
X77059523Y-118880952D01*
X77678571Y-118452380D02*
X77773809Y-118452380D01*
X77869047Y-118500000D01*
X77916666Y-118547619D01*
X77964285Y-118642857D01*
X78011904Y-118833333D01*
X78011904Y-119071428D01*
X77964285Y-119261904D01*
X77916666Y-119357142D01*
X77869047Y-119404761D01*
X77773809Y-119452380D01*
X77678571Y-119452380D01*
X77583333Y-119404761D01*
X77535714Y-119357142D01*
X77488095Y-119261904D01*
X77440476Y-119071428D01*
X77440476Y-118833333D01*
X77488095Y-118642857D01*
X77535714Y-118547619D01*
X77583333Y-118500000D01*
X77678571Y-118452380D01*
X78916666Y-118452380D02*
X78440476Y-118452380D01*
X78392857Y-118928571D01*
X78440476Y-118880952D01*
X78535714Y-118833333D01*
X78773809Y-118833333D01*
X78869047Y-118880952D01*
X78916666Y-118928571D01*
X78964285Y-119023809D01*
X78964285Y-119261904D01*
X78916666Y-119357142D01*
X78869047Y-119404761D01*
X78773809Y-119452380D01*
X78535714Y-119452380D01*
X78440476Y-119404761D01*
X78392857Y-119357142D01*
X57238095Y-110000000D02*
X57142857Y-109952380D01*
X57000000Y-109952380D01*
X56857142Y-110000000D01*
X56761904Y-110095238D01*
X56714285Y-110190476D01*
X56666666Y-110380952D01*
X56666666Y-110523809D01*
X56714285Y-110714285D01*
X56761904Y-110809523D01*
X56857142Y-110904761D01*
X57000000Y-110952380D01*
X57095238Y-110952380D01*
X57238095Y-110904761D01*
X57285714Y-110857142D01*
X57285714Y-110523809D01*
X57095238Y-110523809D01*
X57714285Y-110952380D02*
X57714285Y-109952380D01*
X58285714Y-110952380D01*
X58285714Y-109952380D01*
X58761904Y-110952380D02*
X58761904Y-109952380D01*
X59000000Y-109952380D01*
X59142857Y-110000000D01*
X59238095Y-110095238D01*
X59285714Y-110190476D01*
X59333333Y-110380952D01*
X59333333Y-110523809D01*
X59285714Y-110714285D01*
X59238095Y-110809523D01*
X59142857Y-110904761D01*
X59000000Y-110952380D01*
X58761904Y-110952380D01*
X57071428Y-104952380D02*
X57404761Y-105952380D01*
X57738095Y-104952380D01*
X58023809Y-105904761D02*
X58166666Y-105952380D01*
X58404761Y-105952380D01*
X58500000Y-105904761D01*
X58547619Y-105857142D01*
X58595238Y-105761904D01*
X58595238Y-105666666D01*
X58547619Y-105571428D01*
X58500000Y-105523809D01*
X58404761Y-105476190D01*
X58214285Y-105428571D01*
X58119047Y-105380952D01*
X58071428Y-105333333D01*
X58023809Y-105238095D01*
X58023809Y-105142857D01*
X58071428Y-105047619D01*
X58119047Y-105000000D01*
X58214285Y-104952380D01*
X58452380Y-104952380D01*
X58595238Y-105000000D01*
X59023809Y-105571428D02*
X59785714Y-105571428D01*
X49081071Y-97397380D02*
X48747738Y-96921190D01*
X48509642Y-97397380D02*
X48509642Y-96397380D01*
X48890595Y-96397380D01*
X48985833Y-96445000D01*
X49033452Y-96492619D01*
X49081071Y-96587857D01*
X49081071Y-96730714D01*
X49033452Y-96825952D01*
X48985833Y-96873571D01*
X48890595Y-96921190D01*
X48509642Y-96921190D01*
X49890595Y-97349761D02*
X49795357Y-97397380D01*
X49604880Y-97397380D01*
X49509642Y-97349761D01*
X49462023Y-97254523D01*
X49462023Y-96873571D01*
X49509642Y-96778333D01*
X49604880Y-96730714D01*
X49795357Y-96730714D01*
X49890595Y-96778333D01*
X49938214Y-96873571D01*
X49938214Y-96968809D01*
X49462023Y-97064047D01*
X50271547Y-96730714D02*
X50509642Y-97397380D01*
X50747738Y-96730714D01*
X51128690Y-97302142D02*
X51176309Y-97349761D01*
X51128690Y-97397380D01*
X51081071Y-97349761D01*
X51128690Y-97302142D01*
X51128690Y-97397380D01*
X52223928Y-96397380D02*
X52557261Y-97397380D01*
X52890595Y-96397380D01*
X53366785Y-97397380D02*
X53271547Y-97349761D01*
X53223928Y-97302142D01*
X53176309Y-97206904D01*
X53176309Y-96921190D01*
X53223928Y-96825952D01*
X53271547Y-96778333D01*
X53366785Y-96730714D01*
X53509642Y-96730714D01*
X53604880Y-96778333D01*
X53652500Y-96825952D01*
X53700119Y-96921190D01*
X53700119Y-97206904D01*
X53652500Y-97302142D01*
X53604880Y-97349761D01*
X53509642Y-97397380D01*
X53366785Y-97397380D01*
X54271547Y-97397380D02*
X54176309Y-97349761D01*
X54128690Y-97254523D01*
X54128690Y-96397380D01*
X54509642Y-96730714D02*
X54890595Y-96730714D01*
X54652500Y-96397380D02*
X54652500Y-97254523D01*
X54700119Y-97349761D01*
X54795357Y-97397380D01*
X54890595Y-97397380D01*
X55652500Y-97397380D02*
X55652500Y-96873571D01*
X55604880Y-96778333D01*
X55509642Y-96730714D01*
X55319166Y-96730714D01*
X55223928Y-96778333D01*
X55652500Y-97349761D02*
X55557261Y-97397380D01*
X55319166Y-97397380D01*
X55223928Y-97349761D01*
X55176309Y-97254523D01*
X55176309Y-97159285D01*
X55223928Y-97064047D01*
X55319166Y-97016428D01*
X55557261Y-97016428D01*
X55652500Y-96968809D01*
X56557261Y-96730714D02*
X56557261Y-97540238D01*
X56509642Y-97635476D01*
X56462023Y-97683095D01*
X56366785Y-97730714D01*
X56223928Y-97730714D01*
X56128690Y-97683095D01*
X56557261Y-97349761D02*
X56462023Y-97397380D01*
X56271547Y-97397380D01*
X56176309Y-97349761D01*
X56128690Y-97302142D01*
X56081071Y-97206904D01*
X56081071Y-96921190D01*
X56128690Y-96825952D01*
X56176309Y-96778333D01*
X56271547Y-96730714D01*
X56462023Y-96730714D01*
X56557261Y-96778333D01*
X57414404Y-97349761D02*
X57319166Y-97397380D01*
X57128690Y-97397380D01*
X57033452Y-97349761D01*
X56985833Y-97254523D01*
X56985833Y-96873571D01*
X57033452Y-96778333D01*
X57128690Y-96730714D01*
X57319166Y-96730714D01*
X57414404Y-96778333D01*
X57462023Y-96873571D01*
X57462023Y-96968809D01*
X56985833Y-97064047D01*
X50462023Y-99007380D02*
X50462023Y-98007380D01*
X50938214Y-98340714D02*
X50938214Y-99007380D01*
X50938214Y-98435952D02*
X50985833Y-98388333D01*
X51081071Y-98340714D01*
X51223928Y-98340714D01*
X51319166Y-98388333D01*
X51366785Y-98483571D01*
X51366785Y-99007380D01*
X52271547Y-99007380D02*
X52271547Y-98007380D01*
X52271547Y-98959761D02*
X52176309Y-99007380D01*
X51985833Y-99007380D01*
X51890595Y-98959761D01*
X51842976Y-98912142D01*
X51795357Y-98816904D01*
X51795357Y-98531190D01*
X51842976Y-98435952D01*
X51890595Y-98388333D01*
X51985833Y-98340714D01*
X52176309Y-98340714D01*
X52271547Y-98388333D01*
X52747738Y-99007380D02*
X52747738Y-98340714D01*
X52747738Y-98007380D02*
X52700119Y-98055000D01*
X52747738Y-98102619D01*
X52795357Y-98055000D01*
X52747738Y-98007380D01*
X52747738Y-98102619D01*
X53652500Y-98959761D02*
X53557261Y-99007380D01*
X53366785Y-99007380D01*
X53271547Y-98959761D01*
X53223928Y-98912142D01*
X53176309Y-98816904D01*
X53176309Y-98531190D01*
X53223928Y-98435952D01*
X53271547Y-98388333D01*
X53366785Y-98340714D01*
X53557261Y-98340714D01*
X53652500Y-98388333D01*
X54509642Y-99007380D02*
X54509642Y-98483571D01*
X54462023Y-98388333D01*
X54366785Y-98340714D01*
X54176309Y-98340714D01*
X54081071Y-98388333D01*
X54509642Y-98959761D02*
X54414404Y-99007380D01*
X54176309Y-99007380D01*
X54081071Y-98959761D01*
X54033452Y-98864523D01*
X54033452Y-98769285D01*
X54081071Y-98674047D01*
X54176309Y-98626428D01*
X54414404Y-98626428D01*
X54509642Y-98578809D01*
X54842976Y-98340714D02*
X55223928Y-98340714D01*
X54985833Y-98007380D02*
X54985833Y-98864523D01*
X55033452Y-98959761D01*
X55128690Y-99007380D01*
X55223928Y-99007380D01*
X55700119Y-99007380D02*
X55604880Y-98959761D01*
X55557261Y-98912142D01*
X55509642Y-98816904D01*
X55509642Y-98531190D01*
X55557261Y-98435952D01*
X55604880Y-98388333D01*
X55700119Y-98340714D01*
X55842976Y-98340714D01*
X55938214Y-98388333D01*
X55985833Y-98435952D01*
X56033452Y-98531190D01*
X56033452Y-98816904D01*
X55985833Y-98912142D01*
X55938214Y-98959761D01*
X55842976Y-99007380D01*
X55700119Y-99007380D01*
X56462023Y-99007380D02*
X56462023Y-98340714D01*
X56462023Y-98531190D02*
X56509642Y-98435952D01*
X56557261Y-98388333D01*
X56652500Y-98340714D01*
X56747738Y-98340714D01*
X57033452Y-98959761D02*
X57128690Y-99007380D01*
X57319166Y-99007380D01*
X57414404Y-98959761D01*
X57462023Y-98864523D01*
X57462023Y-98816904D01*
X57414404Y-98721666D01*
X57319166Y-98674047D01*
X57176309Y-98674047D01*
X57081071Y-98626428D01*
X57033452Y-98531190D01*
X57033452Y-98483571D01*
X57081071Y-98388333D01*
X57176309Y-98340714D01*
X57319166Y-98340714D01*
X57414404Y-98388333D01*
X86488095Y-118452380D02*
X87154761Y-118452380D01*
X86726190Y-119452380D01*
X87678571Y-118880952D02*
X87583333Y-118833333D01*
X87535714Y-118785714D01*
X87488095Y-118690476D01*
X87488095Y-118642857D01*
X87535714Y-118547619D01*
X87583333Y-118500000D01*
X87678571Y-118452380D01*
X87869047Y-118452380D01*
X87964285Y-118500000D01*
X88011904Y-118547619D01*
X88059523Y-118642857D01*
X88059523Y-118690476D01*
X88011904Y-118785714D01*
X87964285Y-118833333D01*
X87869047Y-118880952D01*
X87678571Y-118880952D01*
X87583333Y-118928571D01*
X87535714Y-118976190D01*
X87488095Y-119071428D01*
X87488095Y-119261904D01*
X87535714Y-119357142D01*
X87583333Y-119404761D01*
X87678571Y-119452380D01*
X87869047Y-119452380D01*
X87964285Y-119404761D01*
X88011904Y-119357142D01*
X88059523Y-119261904D01*
X88059523Y-119071428D01*
X88011904Y-118976190D01*
X87964285Y-118928571D01*
X87869047Y-118880952D01*
X88678571Y-118452380D02*
X88773809Y-118452380D01*
X88869047Y-118500000D01*
X88916666Y-118547619D01*
X88964285Y-118642857D01*
X89011904Y-118833333D01*
X89011904Y-119071428D01*
X88964285Y-119261904D01*
X88916666Y-119357142D01*
X88869047Y-119404761D01*
X88773809Y-119452380D01*
X88678571Y-119452380D01*
X88583333Y-119404761D01*
X88535714Y-119357142D01*
X88488095Y-119261904D01*
X88440476Y-119071428D01*
X88440476Y-118833333D01*
X88488095Y-118642857D01*
X88535714Y-118547619D01*
X88583333Y-118500000D01*
X88678571Y-118452380D01*
X89916666Y-118452380D02*
X89440476Y-118452380D01*
X89392857Y-118928571D01*
X89440476Y-118880952D01*
X89535714Y-118833333D01*
X89773809Y-118833333D01*
X89869047Y-118880952D01*
X89916666Y-118928571D01*
X89964285Y-119023809D01*
X89964285Y-119261904D01*
X89916666Y-119357142D01*
X89869047Y-119404761D01*
X89773809Y-119452380D01*
X89535714Y-119452380D01*
X89440476Y-119404761D01*
X89392857Y-119357142D01*
X98654761Y-97535714D02*
X98702380Y-97392857D01*
X98702380Y-97154761D01*
X98654761Y-97059523D01*
X98607142Y-97011904D01*
X98511904Y-96964285D01*
X98416666Y-96964285D01*
X98321428Y-97011904D01*
X98273809Y-97059523D01*
X98226190Y-97154761D01*
X98178571Y-97345238D01*
X98130952Y-97440476D01*
X98083333Y-97488095D01*
X97988095Y-97535714D01*
X97892857Y-97535714D01*
X97797619Y-97488095D01*
X97750000Y-97440476D01*
X97702380Y-97345238D01*
X97702380Y-97107142D01*
X97750000Y-96964285D01*
X98702380Y-96535714D02*
X98035714Y-96535714D01*
X97702380Y-96535714D02*
X97750000Y-96583333D01*
X97797619Y-96535714D01*
X97750000Y-96488095D01*
X97702380Y-96535714D01*
X97797619Y-96535714D01*
X98035714Y-95630952D02*
X98845238Y-95630952D01*
X98940476Y-95678571D01*
X98988095Y-95726190D01*
X99035714Y-95821428D01*
X99035714Y-95964285D01*
X98988095Y-96059523D01*
X98654761Y-95630952D02*
X98702380Y-95726190D01*
X98702380Y-95916666D01*
X98654761Y-96011904D01*
X98607142Y-96059523D01*
X98511904Y-96107142D01*
X98226190Y-96107142D01*
X98130952Y-96059523D01*
X98083333Y-96011904D01*
X98035714Y-95916666D01*
X98035714Y-95726190D01*
X98083333Y-95630952D01*
X98035714Y-95154761D02*
X98702380Y-95154761D01*
X98130952Y-95154761D02*
X98083333Y-95107142D01*
X98035714Y-95011904D01*
X98035714Y-94869047D01*
X98083333Y-94773809D01*
X98178571Y-94726190D01*
X98702380Y-94726190D01*
X98702380Y-93821428D02*
X98178571Y-93821428D01*
X98083333Y-93869047D01*
X98035714Y-93964285D01*
X98035714Y-94154761D01*
X98083333Y-94250000D01*
X98654761Y-93821428D02*
X98702380Y-93916666D01*
X98702380Y-94154761D01*
X98654761Y-94250000D01*
X98559523Y-94297619D01*
X98464285Y-94297619D01*
X98369047Y-94250000D01*
X98321428Y-94154761D01*
X98321428Y-93916666D01*
X98273809Y-93821428D01*
X98702380Y-93202380D02*
X98654761Y-93297619D01*
X98559523Y-93345238D01*
X97702380Y-93345238D01*
X97702380Y-91869047D02*
X97702380Y-91678571D01*
X97750000Y-91583333D01*
X97845238Y-91488095D01*
X98035714Y-91440476D01*
X98369047Y-91440476D01*
X98559523Y-91488095D01*
X98654761Y-91583333D01*
X98702380Y-91678571D01*
X98702380Y-91869047D01*
X98654761Y-91964285D01*
X98559523Y-92059523D01*
X98369047Y-92107142D01*
X98035714Y-92107142D01*
X97845238Y-92059523D01*
X97750000Y-91964285D01*
X97702380Y-91869047D01*
X98035714Y-90583333D02*
X98702380Y-90583333D01*
X98035714Y-91011904D02*
X98559523Y-91011904D01*
X98654761Y-90964285D01*
X98702380Y-90869047D01*
X98702380Y-90726190D01*
X98654761Y-90630952D01*
X98607142Y-90583333D01*
X98035714Y-90250000D02*
X98035714Y-89869047D01*
X97702380Y-90107142D02*
X98559523Y-90107142D01*
X98654761Y-90059523D01*
X98702380Y-89964285D01*
X98702380Y-89869047D01*
X98321428Y-88773809D02*
X98321428Y-88011904D01*
X98702380Y-88392857D02*
X97940476Y-88392857D01*
%TO.C,U1*%
X96038095Y-137652380D02*
X96038095Y-138461904D01*
X96085714Y-138557142D01*
X96133333Y-138604761D01*
X96228571Y-138652380D01*
X96419047Y-138652380D01*
X96514285Y-138604761D01*
X96561904Y-138557142D01*
X96609523Y-138461904D01*
X96609523Y-137652380D01*
X97609523Y-138652380D02*
X97038095Y-138652380D01*
X97323809Y-138652380D02*
X97323809Y-137652380D01*
X97228571Y-137795238D01*
X97133333Y-137890476D01*
X97038095Y-137938095D01*
%TO.C,U3*%
X122338095Y-139052380D02*
X122338095Y-139861904D01*
X122385714Y-139957142D01*
X122433333Y-140004761D01*
X122528571Y-140052380D01*
X122719047Y-140052380D01*
X122814285Y-140004761D01*
X122861904Y-139957142D01*
X122909523Y-139861904D01*
X122909523Y-139052380D01*
X123290476Y-139052380D02*
X123909523Y-139052380D01*
X123576190Y-139433333D01*
X123719047Y-139433333D01*
X123814285Y-139480952D01*
X123861904Y-139528571D01*
X123909523Y-139623809D01*
X123909523Y-139861904D01*
X123861904Y-139957142D01*
X123814285Y-140004761D01*
X123719047Y-140052380D01*
X123433333Y-140052380D01*
X123338095Y-140004761D01*
X123290476Y-139957142D01*
%TO.C,U2*%
X115038095Y-116452380D02*
X115038095Y-117261904D01*
X115085714Y-117357142D01*
X115133333Y-117404761D01*
X115228571Y-117452380D01*
X115419047Y-117452380D01*
X115514285Y-117404761D01*
X115561904Y-117357142D01*
X115609523Y-117261904D01*
X115609523Y-116452380D01*
X116038095Y-116547619D02*
X116085714Y-116500000D01*
X116180952Y-116452380D01*
X116419047Y-116452380D01*
X116514285Y-116500000D01*
X116561904Y-116547619D01*
X116609523Y-116642857D01*
X116609523Y-116738095D01*
X116561904Y-116880952D01*
X115990476Y-117452380D01*
X116609523Y-117452380D01*
%TO.C,R9*%
X109652380Y-114366666D02*
X109176190Y-114700000D01*
X109652380Y-114938095D02*
X108652380Y-114938095D01*
X108652380Y-114557142D01*
X108700000Y-114461904D01*
X108747619Y-114414285D01*
X108842857Y-114366666D01*
X108985714Y-114366666D01*
X109080952Y-114414285D01*
X109128571Y-114461904D01*
X109176190Y-114557142D01*
X109176190Y-114938095D01*
X109652380Y-113890476D02*
X109652380Y-113700000D01*
X109604761Y-113604761D01*
X109557142Y-113557142D01*
X109414285Y-113461904D01*
X109223809Y-113414285D01*
X108842857Y-113414285D01*
X108747619Y-113461904D01*
X108700000Y-113509523D01*
X108652380Y-113604761D01*
X108652380Y-113795238D01*
X108700000Y-113890476D01*
X108747619Y-113938095D01*
X108842857Y-113985714D01*
X109080952Y-113985714D01*
X109176190Y-113938095D01*
X109223809Y-113890476D01*
X109271428Y-113795238D01*
X109271428Y-113604761D01*
X109223809Y-113509523D01*
X109176190Y-113461904D01*
X109080952Y-113414285D01*
%TO.C,R6*%
X107232380Y-114566666D02*
X106756190Y-114900000D01*
X107232380Y-115138095D02*
X106232380Y-115138095D01*
X106232380Y-114757142D01*
X106280000Y-114661904D01*
X106327619Y-114614285D01*
X106422857Y-114566666D01*
X106565714Y-114566666D01*
X106660952Y-114614285D01*
X106708571Y-114661904D01*
X106756190Y-114757142D01*
X106756190Y-115138095D01*
X106232380Y-113709523D02*
X106232380Y-113900000D01*
X106280000Y-113995238D01*
X106327619Y-114042857D01*
X106470476Y-114138095D01*
X106660952Y-114185714D01*
X107041904Y-114185714D01*
X107137142Y-114138095D01*
X107184761Y-114090476D01*
X107232380Y-113995238D01*
X107232380Y-113804761D01*
X107184761Y-113709523D01*
X107137142Y-113661904D01*
X107041904Y-113614285D01*
X106803809Y-113614285D01*
X106708571Y-113661904D01*
X106660952Y-113709523D01*
X106613333Y-113804761D01*
X106613333Y-113995238D01*
X106660952Y-114090476D01*
X106708571Y-114138095D01*
X106803809Y-114185714D01*
%TO.C,C7*%
X103333333Y-138357142D02*
X103285714Y-138404761D01*
X103142857Y-138452380D01*
X103047619Y-138452380D01*
X102904761Y-138404761D01*
X102809523Y-138309523D01*
X102761904Y-138214285D01*
X102714285Y-138023809D01*
X102714285Y-137880952D01*
X102761904Y-137690476D01*
X102809523Y-137595238D01*
X102904761Y-137500000D01*
X103047619Y-137452380D01*
X103142857Y-137452380D01*
X103285714Y-137500000D01*
X103333333Y-137547619D01*
X103666666Y-137452380D02*
X104333333Y-137452380D01*
X103904761Y-138452380D01*
%TO.C,C8*%
X112042142Y-109954166D02*
X112089761Y-110001785D01*
X112137380Y-110144642D01*
X112137380Y-110239880D01*
X112089761Y-110382738D01*
X111994523Y-110477976D01*
X111899285Y-110525595D01*
X111708809Y-110573214D01*
X111565952Y-110573214D01*
X111375476Y-110525595D01*
X111280238Y-110477976D01*
X111185000Y-110382738D01*
X111137380Y-110239880D01*
X111137380Y-110144642D01*
X111185000Y-110001785D01*
X111232619Y-109954166D01*
X111565952Y-109382738D02*
X111518333Y-109477976D01*
X111470714Y-109525595D01*
X111375476Y-109573214D01*
X111327857Y-109573214D01*
X111232619Y-109525595D01*
X111185000Y-109477976D01*
X111137380Y-109382738D01*
X111137380Y-109192261D01*
X111185000Y-109097023D01*
X111232619Y-109049404D01*
X111327857Y-109001785D01*
X111375476Y-109001785D01*
X111470714Y-109049404D01*
X111518333Y-109097023D01*
X111565952Y-109192261D01*
X111565952Y-109382738D01*
X111613571Y-109477976D01*
X111661190Y-109525595D01*
X111756428Y-109573214D01*
X111946904Y-109573214D01*
X112042142Y-109525595D01*
X112089761Y-109477976D01*
X112137380Y-109382738D01*
X112137380Y-109192261D01*
X112089761Y-109097023D01*
X112042142Y-109049404D01*
X111946904Y-109001785D01*
X111756428Y-109001785D01*
X111661190Y-109049404D01*
X111613571Y-109097023D01*
X111565952Y-109192261D01*
%TO.C,C13*%
X108151840Y-156557142D02*
X108104221Y-156604761D01*
X107961364Y-156652380D01*
X107866126Y-156652380D01*
X107723269Y-156604761D01*
X107628031Y-156509523D01*
X107580412Y-156414285D01*
X107532793Y-156223809D01*
X107532793Y-156080952D01*
X107580412Y-155890476D01*
X107628031Y-155795238D01*
X107723269Y-155700000D01*
X107866126Y-155652380D01*
X107961364Y-155652380D01*
X108104221Y-155700000D01*
X108151840Y-155747619D01*
X109104221Y-156652380D02*
X108532793Y-156652380D01*
X108818507Y-156652380D02*
X108818507Y-155652380D01*
X108723269Y-155795238D01*
X108628031Y-155890476D01*
X108532793Y-155938095D01*
X109437555Y-155652380D02*
X110056602Y-155652380D01*
X109723269Y-156033333D01*
X109866126Y-156033333D01*
X109961364Y-156080952D01*
X110008983Y-156128571D01*
X110056602Y-156223809D01*
X110056602Y-156461904D01*
X110008983Y-156557142D01*
X109961364Y-156604761D01*
X109866126Y-156652380D01*
X109580412Y-156652380D01*
X109485174Y-156604761D01*
X109437555Y-156557142D01*
%TO.C,C15*%
X84257142Y-97107142D02*
X84209523Y-97154761D01*
X84066666Y-97202380D01*
X83971428Y-97202380D01*
X83828571Y-97154761D01*
X83733333Y-97059523D01*
X83685714Y-96964285D01*
X83638095Y-96773809D01*
X83638095Y-96630952D01*
X83685714Y-96440476D01*
X83733333Y-96345238D01*
X83828571Y-96250000D01*
X83971428Y-96202380D01*
X84066666Y-96202380D01*
X84209523Y-96250000D01*
X84257142Y-96297619D01*
X85209523Y-97202380D02*
X84638095Y-97202380D01*
X84923809Y-97202380D02*
X84923809Y-96202380D01*
X84828571Y-96345238D01*
X84733333Y-96440476D01*
X84638095Y-96488095D01*
X86114285Y-96202380D02*
X85638095Y-96202380D01*
X85590476Y-96678571D01*
X85638095Y-96630952D01*
X85733333Y-96583333D01*
X85971428Y-96583333D01*
X86066666Y-96630952D01*
X86114285Y-96678571D01*
X86161904Y-96773809D01*
X86161904Y-97011904D01*
X86114285Y-97107142D01*
X86066666Y-97154761D01*
X85971428Y-97202380D01*
X85733333Y-97202380D01*
X85638095Y-97154761D01*
X85590476Y-97107142D01*
%TO.C,C29*%
X129027142Y-118912142D02*
X128979523Y-118959761D01*
X128836666Y-119007380D01*
X128741428Y-119007380D01*
X128598571Y-118959761D01*
X128503333Y-118864523D01*
X128455714Y-118769285D01*
X128408095Y-118578809D01*
X128408095Y-118435952D01*
X128455714Y-118245476D01*
X128503333Y-118150238D01*
X128598571Y-118055000D01*
X128741428Y-118007380D01*
X128836666Y-118007380D01*
X128979523Y-118055000D01*
X129027142Y-118102619D01*
X129408095Y-118102619D02*
X129455714Y-118055000D01*
X129550952Y-118007380D01*
X129789047Y-118007380D01*
X129884285Y-118055000D01*
X129931904Y-118102619D01*
X129979523Y-118197857D01*
X129979523Y-118293095D01*
X129931904Y-118435952D01*
X129360476Y-119007380D01*
X129979523Y-119007380D01*
X130455714Y-119007380D02*
X130646190Y-119007380D01*
X130741428Y-118959761D01*
X130789047Y-118912142D01*
X130884285Y-118769285D01*
X130931904Y-118578809D01*
X130931904Y-118197857D01*
X130884285Y-118102619D01*
X130836666Y-118055000D01*
X130741428Y-118007380D01*
X130550952Y-118007380D01*
X130455714Y-118055000D01*
X130408095Y-118102619D01*
X130360476Y-118197857D01*
X130360476Y-118435952D01*
X130408095Y-118531190D01*
X130455714Y-118578809D01*
X130550952Y-118626428D01*
X130741428Y-118626428D01*
X130836666Y-118578809D01*
X130884285Y-118531190D01*
X130931904Y-118435952D01*
%TO.C,C35*%
X71857142Y-148142857D02*
X71904761Y-148190476D01*
X71952380Y-148333333D01*
X71952380Y-148428571D01*
X71904761Y-148571428D01*
X71809523Y-148666666D01*
X71714285Y-148714285D01*
X71523809Y-148761904D01*
X71380952Y-148761904D01*
X71190476Y-148714285D01*
X71095238Y-148666666D01*
X71000000Y-148571428D01*
X70952380Y-148428571D01*
X70952380Y-148333333D01*
X71000000Y-148190476D01*
X71047619Y-148142857D01*
X70952380Y-147809523D02*
X70952380Y-147190476D01*
X71333333Y-147523809D01*
X71333333Y-147380952D01*
X71380952Y-147285714D01*
X71428571Y-147238095D01*
X71523809Y-147190476D01*
X71761904Y-147190476D01*
X71857142Y-147238095D01*
X71904761Y-147285714D01*
X71952380Y-147380952D01*
X71952380Y-147666666D01*
X71904761Y-147761904D01*
X71857142Y-147809523D01*
X70952380Y-146285714D02*
X70952380Y-146761904D01*
X71428571Y-146809523D01*
X71380952Y-146761904D01*
X71333333Y-146666666D01*
X71333333Y-146428571D01*
X71380952Y-146333333D01*
X71428571Y-146285714D01*
X71523809Y-146238095D01*
X71761904Y-146238095D01*
X71857142Y-146285714D01*
X71904761Y-146333333D01*
X71952380Y-146428571D01*
X71952380Y-146666666D01*
X71904761Y-146761904D01*
X71857142Y-146809523D01*
%TO.C,C37*%
X65817142Y-148142857D02*
X65864761Y-148190476D01*
X65912380Y-148333333D01*
X65912380Y-148428571D01*
X65864761Y-148571428D01*
X65769523Y-148666666D01*
X65674285Y-148714285D01*
X65483809Y-148761904D01*
X65340952Y-148761904D01*
X65150476Y-148714285D01*
X65055238Y-148666666D01*
X64960000Y-148571428D01*
X64912380Y-148428571D01*
X64912380Y-148333333D01*
X64960000Y-148190476D01*
X65007619Y-148142857D01*
X64912380Y-147809523D02*
X64912380Y-147190476D01*
X65293333Y-147523809D01*
X65293333Y-147380952D01*
X65340952Y-147285714D01*
X65388571Y-147238095D01*
X65483809Y-147190476D01*
X65721904Y-147190476D01*
X65817142Y-147238095D01*
X65864761Y-147285714D01*
X65912380Y-147380952D01*
X65912380Y-147666666D01*
X65864761Y-147761904D01*
X65817142Y-147809523D01*
X64912380Y-146857142D02*
X64912380Y-146190476D01*
X65912380Y-146619047D01*
%TO.C,C42*%
X79857142Y-131857142D02*
X79809523Y-131904761D01*
X79666666Y-131952380D01*
X79571428Y-131952380D01*
X79428571Y-131904761D01*
X79333333Y-131809523D01*
X79285714Y-131714285D01*
X79238095Y-131523809D01*
X79238095Y-131380952D01*
X79285714Y-131190476D01*
X79333333Y-131095238D01*
X79428571Y-131000000D01*
X79571428Y-130952380D01*
X79666666Y-130952380D01*
X79809523Y-131000000D01*
X79857142Y-131047619D01*
X80714285Y-131285714D02*
X80714285Y-131952380D01*
X80476190Y-130904761D02*
X80238095Y-131619047D01*
X80857142Y-131619047D01*
X81190476Y-131047619D02*
X81238095Y-131000000D01*
X81333333Y-130952380D01*
X81571428Y-130952380D01*
X81666666Y-131000000D01*
X81714285Y-131047619D01*
X81761904Y-131142857D01*
X81761904Y-131238095D01*
X81714285Y-131380952D01*
X81142857Y-131952380D01*
X81761904Y-131952380D01*
%TO.C,H6*%
X53488095Y-93452380D02*
X53488095Y-92452380D01*
X53488095Y-92928571D02*
X54059523Y-92928571D01*
X54059523Y-93452380D02*
X54059523Y-92452380D01*
X54964285Y-92452380D02*
X54773809Y-92452380D01*
X54678571Y-92500000D01*
X54630952Y-92547619D01*
X54535714Y-92690476D01*
X54488095Y-92880952D01*
X54488095Y-93261904D01*
X54535714Y-93357142D01*
X54583333Y-93404761D01*
X54678571Y-93452380D01*
X54869047Y-93452380D01*
X54964285Y-93404761D01*
X55011904Y-93357142D01*
X55059523Y-93261904D01*
X55059523Y-93023809D01*
X55011904Y-92928571D01*
X54964285Y-92880952D01*
X54869047Y-92833333D01*
X54678571Y-92833333D01*
X54583333Y-92880952D01*
X54535714Y-92928571D01*
X54488095Y-93023809D01*
%TO.C,J1*%
X121241666Y-85932380D02*
X121241666Y-86646666D01*
X121194047Y-86789523D01*
X121098809Y-86884761D01*
X120955952Y-86932380D01*
X120860714Y-86932380D01*
X122241666Y-86932380D02*
X121670238Y-86932380D01*
X121955952Y-86932380D02*
X121955952Y-85932380D01*
X121860714Y-86075238D01*
X121765476Y-86170476D01*
X121670238Y-86218095D01*
%TO.C,J3*%
X49441666Y-126827380D02*
X49441666Y-127541666D01*
X49394047Y-127684523D01*
X49298809Y-127779761D01*
X49155952Y-127827380D01*
X49060714Y-127827380D01*
X49822619Y-126827380D02*
X50441666Y-126827380D01*
X50108333Y-127208333D01*
X50251190Y-127208333D01*
X50346428Y-127255952D01*
X50394047Y-127303571D01*
X50441666Y-127398809D01*
X50441666Y-127636904D01*
X50394047Y-127732142D01*
X50346428Y-127779761D01*
X50251190Y-127827380D01*
X49965476Y-127827380D01*
X49870238Y-127779761D01*
X49822619Y-127732142D01*
%TO.C,R3*%
X106102380Y-109079166D02*
X105626190Y-109412500D01*
X106102380Y-109650595D02*
X105102380Y-109650595D01*
X105102380Y-109269642D01*
X105150000Y-109174404D01*
X105197619Y-109126785D01*
X105292857Y-109079166D01*
X105435714Y-109079166D01*
X105530952Y-109126785D01*
X105578571Y-109174404D01*
X105626190Y-109269642D01*
X105626190Y-109650595D01*
X105102380Y-108745833D02*
X105102380Y-108126785D01*
X105483333Y-108460119D01*
X105483333Y-108317261D01*
X105530952Y-108222023D01*
X105578571Y-108174404D01*
X105673809Y-108126785D01*
X105911904Y-108126785D01*
X106007142Y-108174404D01*
X106054761Y-108222023D01*
X106102380Y-108317261D01*
X106102380Y-108602976D01*
X106054761Y-108698214D01*
X106007142Y-108745833D01*
%TO.C,R4*%
X92952380Y-139166666D02*
X92476190Y-139500000D01*
X92952380Y-139738095D02*
X91952380Y-139738095D01*
X91952380Y-139357142D01*
X92000000Y-139261904D01*
X92047619Y-139214285D01*
X92142857Y-139166666D01*
X92285714Y-139166666D01*
X92380952Y-139214285D01*
X92428571Y-139261904D01*
X92476190Y-139357142D01*
X92476190Y-139738095D01*
X92285714Y-138309523D02*
X92952380Y-138309523D01*
X91904761Y-138547619D02*
X92619047Y-138785714D01*
X92619047Y-138166666D01*
%TO.C,R5*%
X94952380Y-139166666D02*
X94476190Y-139500000D01*
X94952380Y-139738095D02*
X93952380Y-139738095D01*
X93952380Y-139357142D01*
X94000000Y-139261904D01*
X94047619Y-139214285D01*
X94142857Y-139166666D01*
X94285714Y-139166666D01*
X94380952Y-139214285D01*
X94428571Y-139261904D01*
X94476190Y-139357142D01*
X94476190Y-139738095D01*
X93952380Y-138261904D02*
X93952380Y-138738095D01*
X94428571Y-138785714D01*
X94380952Y-138738095D01*
X94333333Y-138642857D01*
X94333333Y-138404761D01*
X94380952Y-138309523D01*
X94428571Y-138261904D01*
X94523809Y-138214285D01*
X94761904Y-138214285D01*
X94857142Y-138261904D01*
X94904761Y-138309523D01*
X94952380Y-138404761D01*
X94952380Y-138642857D01*
X94904761Y-138738095D01*
X94857142Y-138785714D01*
%TO.C,R12*%
X115952380Y-137542857D02*
X115476190Y-137876190D01*
X115952380Y-138114285D02*
X114952380Y-138114285D01*
X114952380Y-137733333D01*
X115000000Y-137638095D01*
X115047619Y-137590476D01*
X115142857Y-137542857D01*
X115285714Y-137542857D01*
X115380952Y-137590476D01*
X115428571Y-137638095D01*
X115476190Y-137733333D01*
X115476190Y-138114285D01*
X115952380Y-136590476D02*
X115952380Y-137161904D01*
X115952380Y-136876190D02*
X114952380Y-136876190D01*
X115095238Y-136971428D01*
X115190476Y-137066666D01*
X115238095Y-137161904D01*
X115047619Y-136209523D02*
X115000000Y-136161904D01*
X114952380Y-136066666D01*
X114952380Y-135828571D01*
X115000000Y-135733333D01*
X115047619Y-135685714D01*
X115142857Y-135638095D01*
X115238095Y-135638095D01*
X115380952Y-135685714D01*
X115952380Y-136257142D01*
X115952380Y-135638095D01*
%TO.C,C41*%
X79857142Y-129357142D02*
X79809523Y-129404761D01*
X79666666Y-129452380D01*
X79571428Y-129452380D01*
X79428571Y-129404761D01*
X79333333Y-129309523D01*
X79285714Y-129214285D01*
X79238095Y-129023809D01*
X79238095Y-128880952D01*
X79285714Y-128690476D01*
X79333333Y-128595238D01*
X79428571Y-128500000D01*
X79571428Y-128452380D01*
X79666666Y-128452380D01*
X79809523Y-128500000D01*
X79857142Y-128547619D01*
X80714285Y-128785714D02*
X80714285Y-129452380D01*
X80476190Y-128404761D02*
X80238095Y-129119047D01*
X80857142Y-129119047D01*
X81761904Y-129452380D02*
X81190476Y-129452380D01*
X81476190Y-129452380D02*
X81476190Y-128452380D01*
X81380952Y-128595238D01*
X81285714Y-128690476D01*
X81190476Y-128738095D01*
%TO.C,D1*%
X76761904Y-100202380D02*
X76761904Y-99202380D01*
X77000000Y-99202380D01*
X77142857Y-99250000D01*
X77238095Y-99345238D01*
X77285714Y-99440476D01*
X77333333Y-99630952D01*
X77333333Y-99773809D01*
X77285714Y-99964285D01*
X77238095Y-100059523D01*
X77142857Y-100154761D01*
X77000000Y-100202380D01*
X76761904Y-100202380D01*
X78285714Y-100202380D02*
X77714285Y-100202380D01*
X78000000Y-100202380D02*
X78000000Y-99202380D01*
X77904761Y-99345238D01*
X77809523Y-99440476D01*
X77714285Y-99488095D01*
%TO.C,D2*%
X61761904Y-100202380D02*
X61761904Y-99202380D01*
X62000000Y-99202380D01*
X62142857Y-99250000D01*
X62238095Y-99345238D01*
X62285714Y-99440476D01*
X62333333Y-99630952D01*
X62333333Y-99773809D01*
X62285714Y-99964285D01*
X62238095Y-100059523D01*
X62142857Y-100154761D01*
X62000000Y-100202380D01*
X61761904Y-100202380D01*
X62714285Y-99297619D02*
X62761904Y-99250000D01*
X62857142Y-99202380D01*
X63095238Y-99202380D01*
X63190476Y-99250000D01*
X63238095Y-99297619D01*
X63285714Y-99392857D01*
X63285714Y-99488095D01*
X63238095Y-99630952D01*
X62666666Y-100202380D01*
X63285714Y-100202380D01*
%TO.C,D4*%
X75071904Y-102862380D02*
X75071904Y-101862380D01*
X75310000Y-101862380D01*
X75452857Y-101910000D01*
X75548095Y-102005238D01*
X75595714Y-102100476D01*
X75643333Y-102290952D01*
X75643333Y-102433809D01*
X75595714Y-102624285D01*
X75548095Y-102719523D01*
X75452857Y-102814761D01*
X75310000Y-102862380D01*
X75071904Y-102862380D01*
X76500476Y-102195714D02*
X76500476Y-102862380D01*
X76262380Y-101814761D02*
X76024285Y-102529047D01*
X76643333Y-102529047D01*
%TO.C,D5*%
X78511904Y-112202380D02*
X78511904Y-111202380D01*
X78750000Y-111202380D01*
X78892857Y-111250000D01*
X78988095Y-111345238D01*
X79035714Y-111440476D01*
X79083333Y-111630952D01*
X79083333Y-111773809D01*
X79035714Y-111964285D01*
X78988095Y-112059523D01*
X78892857Y-112154761D01*
X78750000Y-112202380D01*
X78511904Y-112202380D01*
X79988095Y-111202380D02*
X79511904Y-111202380D01*
X79464285Y-111678571D01*
X79511904Y-111630952D01*
X79607142Y-111583333D01*
X79845238Y-111583333D01*
X79940476Y-111630952D01*
X79988095Y-111678571D01*
X80035714Y-111773809D01*
X80035714Y-112011904D01*
X79988095Y-112107142D01*
X79940476Y-112154761D01*
X79845238Y-112202380D01*
X79607142Y-112202380D01*
X79511904Y-112154761D01*
X79464285Y-112107142D01*
%TO.C,D6*%
X78761904Y-109452380D02*
X78761904Y-108452380D01*
X79000000Y-108452380D01*
X79142857Y-108500000D01*
X79238095Y-108595238D01*
X79285714Y-108690476D01*
X79333333Y-108880952D01*
X79333333Y-109023809D01*
X79285714Y-109214285D01*
X79238095Y-109309523D01*
X79142857Y-109404761D01*
X79000000Y-109452380D01*
X78761904Y-109452380D01*
X80190476Y-108452380D02*
X80000000Y-108452380D01*
X79904761Y-108500000D01*
X79857142Y-108547619D01*
X79761904Y-108690476D01*
X79714285Y-108880952D01*
X79714285Y-109261904D01*
X79761904Y-109357142D01*
X79809523Y-109404761D01*
X79904761Y-109452380D01*
X80095238Y-109452380D01*
X80190476Y-109404761D01*
X80238095Y-109357142D01*
X80285714Y-109261904D01*
X80285714Y-109023809D01*
X80238095Y-108928571D01*
X80190476Y-108880952D01*
X80095238Y-108833333D01*
X79904761Y-108833333D01*
X79809523Y-108880952D01*
X79761904Y-108928571D01*
X79714285Y-109023809D01*
%TO.C,R23*%
X71832142Y-100062380D02*
X71498809Y-99586190D01*
X71260714Y-100062380D02*
X71260714Y-99062380D01*
X71641666Y-99062380D01*
X71736904Y-99110000D01*
X71784523Y-99157619D01*
X71832142Y-99252857D01*
X71832142Y-99395714D01*
X71784523Y-99490952D01*
X71736904Y-99538571D01*
X71641666Y-99586190D01*
X71260714Y-99586190D01*
X72213095Y-99157619D02*
X72260714Y-99110000D01*
X72355952Y-99062380D01*
X72594047Y-99062380D01*
X72689285Y-99110000D01*
X72736904Y-99157619D01*
X72784523Y-99252857D01*
X72784523Y-99348095D01*
X72736904Y-99490952D01*
X72165476Y-100062380D01*
X72784523Y-100062380D01*
X73117857Y-99062380D02*
X73736904Y-99062380D01*
X73403571Y-99443333D01*
X73546428Y-99443333D01*
X73641666Y-99490952D01*
X73689285Y-99538571D01*
X73736904Y-99633809D01*
X73736904Y-99871904D01*
X73689285Y-99967142D01*
X73641666Y-100014761D01*
X73546428Y-100062380D01*
X73260714Y-100062380D01*
X73165476Y-100014761D01*
X73117857Y-99967142D01*
%TO.C,R24*%
X66859642Y-100062380D02*
X66526309Y-99586190D01*
X66288214Y-100062380D02*
X66288214Y-99062380D01*
X66669166Y-99062380D01*
X66764404Y-99110000D01*
X66812023Y-99157619D01*
X66859642Y-99252857D01*
X66859642Y-99395714D01*
X66812023Y-99490952D01*
X66764404Y-99538571D01*
X66669166Y-99586190D01*
X66288214Y-99586190D01*
X67240595Y-99157619D02*
X67288214Y-99110000D01*
X67383452Y-99062380D01*
X67621547Y-99062380D01*
X67716785Y-99110000D01*
X67764404Y-99157619D01*
X67812023Y-99252857D01*
X67812023Y-99348095D01*
X67764404Y-99490952D01*
X67192976Y-100062380D01*
X67812023Y-100062380D01*
X68669166Y-99395714D02*
X68669166Y-100062380D01*
X68431071Y-99014761D02*
X68192976Y-99729047D01*
X68812023Y-99729047D01*
%TO.C,R25*%
X66357142Y-112202380D02*
X66023809Y-111726190D01*
X65785714Y-112202380D02*
X65785714Y-111202380D01*
X66166666Y-111202380D01*
X66261904Y-111250000D01*
X66309523Y-111297619D01*
X66357142Y-111392857D01*
X66357142Y-111535714D01*
X66309523Y-111630952D01*
X66261904Y-111678571D01*
X66166666Y-111726190D01*
X65785714Y-111726190D01*
X66738095Y-111297619D02*
X66785714Y-111250000D01*
X66880952Y-111202380D01*
X67119047Y-111202380D01*
X67214285Y-111250000D01*
X67261904Y-111297619D01*
X67309523Y-111392857D01*
X67309523Y-111488095D01*
X67261904Y-111630952D01*
X66690476Y-112202380D01*
X67309523Y-112202380D01*
X68214285Y-111202380D02*
X67738095Y-111202380D01*
X67690476Y-111678571D01*
X67738095Y-111630952D01*
X67833333Y-111583333D01*
X68071428Y-111583333D01*
X68166666Y-111630952D01*
X68214285Y-111678571D01*
X68261904Y-111773809D01*
X68261904Y-112011904D01*
X68214285Y-112107142D01*
X68166666Y-112154761D01*
X68071428Y-112202380D01*
X67833333Y-112202380D01*
X67738095Y-112154761D01*
X67690476Y-112107142D01*
%TO.C,R26*%
X66357142Y-110202380D02*
X66023809Y-109726190D01*
X65785714Y-110202380D02*
X65785714Y-109202380D01*
X66166666Y-109202380D01*
X66261904Y-109250000D01*
X66309523Y-109297619D01*
X66357142Y-109392857D01*
X66357142Y-109535714D01*
X66309523Y-109630952D01*
X66261904Y-109678571D01*
X66166666Y-109726190D01*
X65785714Y-109726190D01*
X66738095Y-109297619D02*
X66785714Y-109250000D01*
X66880952Y-109202380D01*
X67119047Y-109202380D01*
X67214285Y-109250000D01*
X67261904Y-109297619D01*
X67309523Y-109392857D01*
X67309523Y-109488095D01*
X67261904Y-109630952D01*
X66690476Y-110202380D01*
X67309523Y-110202380D01*
X68166666Y-109202380D02*
X67976190Y-109202380D01*
X67880952Y-109250000D01*
X67833333Y-109297619D01*
X67738095Y-109440476D01*
X67690476Y-109630952D01*
X67690476Y-110011904D01*
X67738095Y-110107142D01*
X67785714Y-110154761D01*
X67880952Y-110202380D01*
X68071428Y-110202380D01*
X68166666Y-110154761D01*
X68214285Y-110107142D01*
X68261904Y-110011904D01*
X68261904Y-109773809D01*
X68214285Y-109678571D01*
X68166666Y-109630952D01*
X68071428Y-109583333D01*
X67880952Y-109583333D01*
X67785714Y-109630952D01*
X67738095Y-109678571D01*
X67690476Y-109773809D01*
%TO.C,J6*%
X59742380Y-84593333D02*
X60456666Y-84593333D01*
X60599523Y-84640952D01*
X60694761Y-84736190D01*
X60742380Y-84879047D01*
X60742380Y-84974285D01*
X59742380Y-83688571D02*
X59742380Y-83879047D01*
X59790000Y-83974285D01*
X59837619Y-84021904D01*
X59980476Y-84117142D01*
X60170952Y-84164761D01*
X60551904Y-84164761D01*
X60647142Y-84117142D01*
X60694761Y-84069523D01*
X60742380Y-83974285D01*
X60742380Y-83783809D01*
X60694761Y-83688571D01*
X60647142Y-83640952D01*
X60551904Y-83593333D01*
X60313809Y-83593333D01*
X60218571Y-83640952D01*
X60170952Y-83688571D01*
X60123333Y-83783809D01*
X60123333Y-83974285D01*
X60170952Y-84069523D01*
X60218571Y-84117142D01*
X60313809Y-84164761D01*
%TO.C,J5*%
X73332380Y-85053333D02*
X74046666Y-85053333D01*
X74189523Y-85100952D01*
X74284761Y-85196190D01*
X74332380Y-85339047D01*
X74332380Y-85434285D01*
X73332380Y-84100952D02*
X73332380Y-84577142D01*
X73808571Y-84624761D01*
X73760952Y-84577142D01*
X73713333Y-84481904D01*
X73713333Y-84243809D01*
X73760952Y-84148571D01*
X73808571Y-84100952D01*
X73903809Y-84053333D01*
X74141904Y-84053333D01*
X74237142Y-84100952D01*
X74284761Y-84148571D01*
X74332380Y-84243809D01*
X74332380Y-84481904D01*
X74284761Y-84577142D01*
X74237142Y-84624761D01*
D12*
%TO.C,J7*%
X56922333Y-106781666D02*
X57922333Y-106781666D01*
X58122333Y-106848333D01*
X58255666Y-106981666D01*
X58322333Y-107181666D01*
X58322333Y-107315000D01*
X56922333Y-106248333D02*
X56922333Y-105315000D01*
X58322333Y-105915000D01*
D11*
%TO.C,D3*%
X67661904Y-119252380D02*
X67661904Y-118252380D01*
X67900000Y-118252380D01*
X68042857Y-118300000D01*
X68138095Y-118395238D01*
X68185714Y-118490476D01*
X68233333Y-118680952D01*
X68233333Y-118823809D01*
X68185714Y-119014285D01*
X68138095Y-119109523D01*
X68042857Y-119204761D01*
X67900000Y-119252380D01*
X67661904Y-119252380D01*
X68566666Y-118252380D02*
X69185714Y-118252380D01*
X68852380Y-118633333D01*
X68995238Y-118633333D01*
X69090476Y-118680952D01*
X69138095Y-118728571D01*
X69185714Y-118823809D01*
X69185714Y-119061904D01*
X69138095Y-119157142D01*
X69090476Y-119204761D01*
X68995238Y-119252380D01*
X68709523Y-119252380D01*
X68614285Y-119204761D01*
X68566666Y-119157142D01*
%TO.C,C30*%
X126357142Y-125357142D02*
X126309523Y-125404761D01*
X126166666Y-125452380D01*
X126071428Y-125452380D01*
X125928571Y-125404761D01*
X125833333Y-125309523D01*
X125785714Y-125214285D01*
X125738095Y-125023809D01*
X125738095Y-124880952D01*
X125785714Y-124690476D01*
X125833333Y-124595238D01*
X125928571Y-124500000D01*
X126071428Y-124452380D01*
X126166666Y-124452380D01*
X126309523Y-124500000D01*
X126357142Y-124547619D01*
X126690476Y-124452380D02*
X127309523Y-124452380D01*
X126976190Y-124833333D01*
X127119047Y-124833333D01*
X127214285Y-124880952D01*
X127261904Y-124928571D01*
X127309523Y-125023809D01*
X127309523Y-125261904D01*
X127261904Y-125357142D01*
X127214285Y-125404761D01*
X127119047Y-125452380D01*
X126833333Y-125452380D01*
X126738095Y-125404761D01*
X126690476Y-125357142D01*
X127928571Y-124452380D02*
X128023809Y-124452380D01*
X128119047Y-124500000D01*
X128166666Y-124547619D01*
X128214285Y-124642857D01*
X128261904Y-124833333D01*
X128261904Y-125071428D01*
X128214285Y-125261904D01*
X128166666Y-125357142D01*
X128119047Y-125404761D01*
X128023809Y-125452380D01*
X127928571Y-125452380D01*
X127833333Y-125404761D01*
X127785714Y-125357142D01*
X127738095Y-125261904D01*
X127690476Y-125071428D01*
X127690476Y-124833333D01*
X127738095Y-124642857D01*
X127785714Y-124547619D01*
X127833333Y-124500000D01*
X127928571Y-124452380D01*
%TO.C,C20*%
X103357142Y-145857142D02*
X103309523Y-145904761D01*
X103166666Y-145952380D01*
X103071428Y-145952380D01*
X102928571Y-145904761D01*
X102833333Y-145809523D01*
X102785714Y-145714285D01*
X102738095Y-145523809D01*
X102738095Y-145380952D01*
X102785714Y-145190476D01*
X102833333Y-145095238D01*
X102928571Y-145000000D01*
X103071428Y-144952380D01*
X103166666Y-144952380D01*
X103309523Y-145000000D01*
X103357142Y-145047619D01*
X103738095Y-145047619D02*
X103785714Y-145000000D01*
X103880952Y-144952380D01*
X104119047Y-144952380D01*
X104214285Y-145000000D01*
X104261904Y-145047619D01*
X104309523Y-145142857D01*
X104309523Y-145238095D01*
X104261904Y-145380952D01*
X103690476Y-145952380D01*
X104309523Y-145952380D01*
X104928571Y-144952380D02*
X105023809Y-144952380D01*
X105119047Y-145000000D01*
X105166666Y-145047619D01*
X105214285Y-145142857D01*
X105261904Y-145333333D01*
X105261904Y-145571428D01*
X105214285Y-145761904D01*
X105166666Y-145857142D01*
X105119047Y-145904761D01*
X105023809Y-145952380D01*
X104928571Y-145952380D01*
X104833333Y-145904761D01*
X104785714Y-145857142D01*
X104738095Y-145761904D01*
X104690476Y-145571428D01*
X104690476Y-145333333D01*
X104738095Y-145142857D01*
X104785714Y-145047619D01*
X104833333Y-145000000D01*
X104928571Y-144952380D01*
%TO.C,R11*%
X109487380Y-138080357D02*
X109011190Y-138413690D01*
X109487380Y-138651785D02*
X108487380Y-138651785D01*
X108487380Y-138270833D01*
X108535000Y-138175595D01*
X108582619Y-138127976D01*
X108677857Y-138080357D01*
X108820714Y-138080357D01*
X108915952Y-138127976D01*
X108963571Y-138175595D01*
X109011190Y-138270833D01*
X109011190Y-138651785D01*
X109487380Y-137127976D02*
X109487380Y-137699404D01*
X109487380Y-137413690D02*
X108487380Y-137413690D01*
X108630238Y-137508928D01*
X108725476Y-137604166D01*
X108773095Y-137699404D01*
X109487380Y-136175595D02*
X109487380Y-136747023D01*
X109487380Y-136461309D02*
X108487380Y-136461309D01*
X108630238Y-136556547D01*
X108725476Y-136651785D01*
X108773095Y-136747023D01*
%TO.C,R7*%
X125047380Y-110961666D02*
X124571190Y-111295000D01*
X125047380Y-111533095D02*
X124047380Y-111533095D01*
X124047380Y-111152142D01*
X124095000Y-111056904D01*
X124142619Y-111009285D01*
X124237857Y-110961666D01*
X124380714Y-110961666D01*
X124475952Y-111009285D01*
X124523571Y-111056904D01*
X124571190Y-111152142D01*
X124571190Y-111533095D01*
X124047380Y-110628333D02*
X124047380Y-109961666D01*
X125047380Y-110390238D01*
%TO.C,C32*%
X55857142Y-147857142D02*
X55809523Y-147904761D01*
X55666666Y-147952380D01*
X55571428Y-147952380D01*
X55428571Y-147904761D01*
X55333333Y-147809523D01*
X55285714Y-147714285D01*
X55238095Y-147523809D01*
X55238095Y-147380952D01*
X55285714Y-147190476D01*
X55333333Y-147095238D01*
X55428571Y-147000000D01*
X55571428Y-146952380D01*
X55666666Y-146952380D01*
X55809523Y-147000000D01*
X55857142Y-147047619D01*
X56190476Y-146952380D02*
X56809523Y-146952380D01*
X56476190Y-147333333D01*
X56619047Y-147333333D01*
X56714285Y-147380952D01*
X56761904Y-147428571D01*
X56809523Y-147523809D01*
X56809523Y-147761904D01*
X56761904Y-147857142D01*
X56714285Y-147904761D01*
X56619047Y-147952380D01*
X56333333Y-147952380D01*
X56238095Y-147904761D01*
X56190476Y-147857142D01*
X57190476Y-147047619D02*
X57238095Y-147000000D01*
X57333333Y-146952380D01*
X57571428Y-146952380D01*
X57666666Y-147000000D01*
X57714285Y-147047619D01*
X57761904Y-147142857D01*
X57761904Y-147238095D01*
X57714285Y-147380952D01*
X57142857Y-147952380D01*
X57761904Y-147952380D01*
%TO.C,C31*%
X55857142Y-149357142D02*
X55809523Y-149404761D01*
X55666666Y-149452380D01*
X55571428Y-149452380D01*
X55428571Y-149404761D01*
X55333333Y-149309523D01*
X55285714Y-149214285D01*
X55238095Y-149023809D01*
X55238095Y-148880952D01*
X55285714Y-148690476D01*
X55333333Y-148595238D01*
X55428571Y-148500000D01*
X55571428Y-148452380D01*
X55666666Y-148452380D01*
X55809523Y-148500000D01*
X55857142Y-148547619D01*
X56190476Y-148452380D02*
X56809523Y-148452380D01*
X56476190Y-148833333D01*
X56619047Y-148833333D01*
X56714285Y-148880952D01*
X56761904Y-148928571D01*
X56809523Y-149023809D01*
X56809523Y-149261904D01*
X56761904Y-149357142D01*
X56714285Y-149404761D01*
X56619047Y-149452380D01*
X56333333Y-149452380D01*
X56238095Y-149404761D01*
X56190476Y-149357142D01*
X57761904Y-149452380D02*
X57190476Y-149452380D01*
X57476190Y-149452380D02*
X57476190Y-148452380D01*
X57380952Y-148595238D01*
X57285714Y-148690476D01*
X57190476Y-148738095D01*
%TO.C,C34*%
X60057142Y-127557142D02*
X60009523Y-127604761D01*
X59866666Y-127652380D01*
X59771428Y-127652380D01*
X59628571Y-127604761D01*
X59533333Y-127509523D01*
X59485714Y-127414285D01*
X59438095Y-127223809D01*
X59438095Y-127080952D01*
X59485714Y-126890476D01*
X59533333Y-126795238D01*
X59628571Y-126700000D01*
X59771428Y-126652380D01*
X59866666Y-126652380D01*
X60009523Y-126700000D01*
X60057142Y-126747619D01*
X60390476Y-126652380D02*
X61009523Y-126652380D01*
X60676190Y-127033333D01*
X60819047Y-127033333D01*
X60914285Y-127080952D01*
X60961904Y-127128571D01*
X61009523Y-127223809D01*
X61009523Y-127461904D01*
X60961904Y-127557142D01*
X60914285Y-127604761D01*
X60819047Y-127652380D01*
X60533333Y-127652380D01*
X60438095Y-127604761D01*
X60390476Y-127557142D01*
X61866666Y-126985714D02*
X61866666Y-127652380D01*
X61628571Y-126604761D02*
X61390476Y-127319047D01*
X62009523Y-127319047D01*
%TO.C,C33*%
X56357142Y-131257142D02*
X56309523Y-131304761D01*
X56166666Y-131352380D01*
X56071428Y-131352380D01*
X55928571Y-131304761D01*
X55833333Y-131209523D01*
X55785714Y-131114285D01*
X55738095Y-130923809D01*
X55738095Y-130780952D01*
X55785714Y-130590476D01*
X55833333Y-130495238D01*
X55928571Y-130400000D01*
X56071428Y-130352380D01*
X56166666Y-130352380D01*
X56309523Y-130400000D01*
X56357142Y-130447619D01*
X56690476Y-130352380D02*
X57309523Y-130352380D01*
X56976190Y-130733333D01*
X57119047Y-130733333D01*
X57214285Y-130780952D01*
X57261904Y-130828571D01*
X57309523Y-130923809D01*
X57309523Y-131161904D01*
X57261904Y-131257142D01*
X57214285Y-131304761D01*
X57119047Y-131352380D01*
X56833333Y-131352380D01*
X56738095Y-131304761D01*
X56690476Y-131257142D01*
X57642857Y-130352380D02*
X58261904Y-130352380D01*
X57928571Y-130733333D01*
X58071428Y-130733333D01*
X58166666Y-130780952D01*
X58214285Y-130828571D01*
X58261904Y-130923809D01*
X58261904Y-131161904D01*
X58214285Y-131257142D01*
X58166666Y-131304761D01*
X58071428Y-131352380D01*
X57785714Y-131352380D01*
X57690476Y-131304761D01*
X57642857Y-131257142D01*
%TO.C,L8*%
X65752380Y-125866666D02*
X65752380Y-126342857D01*
X64752380Y-126342857D01*
X65180952Y-125390476D02*
X65133333Y-125485714D01*
X65085714Y-125533333D01*
X64990476Y-125580952D01*
X64942857Y-125580952D01*
X64847619Y-125533333D01*
X64800000Y-125485714D01*
X64752380Y-125390476D01*
X64752380Y-125200000D01*
X64800000Y-125104761D01*
X64847619Y-125057142D01*
X64942857Y-125009523D01*
X64990476Y-125009523D01*
X65085714Y-125057142D01*
X65133333Y-125104761D01*
X65180952Y-125200000D01*
X65180952Y-125390476D01*
X65228571Y-125485714D01*
X65276190Y-125533333D01*
X65371428Y-125580952D01*
X65561904Y-125580952D01*
X65657142Y-125533333D01*
X65704761Y-125485714D01*
X65752380Y-125390476D01*
X65752380Y-125200000D01*
X65704761Y-125104761D01*
X65657142Y-125057142D01*
X65561904Y-125009523D01*
X65371428Y-125009523D01*
X65276190Y-125057142D01*
X65228571Y-125104761D01*
X65180952Y-125200000D01*
%TO.C,L7*%
X74182380Y-139906666D02*
X74182380Y-140382857D01*
X73182380Y-140382857D01*
X73182380Y-139668571D02*
X73182380Y-139001904D01*
X74182380Y-139430476D01*
%TO.C,C39*%
X79857142Y-148357142D02*
X79809523Y-148404761D01*
X79666666Y-148452380D01*
X79571428Y-148452380D01*
X79428571Y-148404761D01*
X79333333Y-148309523D01*
X79285714Y-148214285D01*
X79238095Y-148023809D01*
X79238095Y-147880952D01*
X79285714Y-147690476D01*
X79333333Y-147595238D01*
X79428571Y-147500000D01*
X79571428Y-147452380D01*
X79666666Y-147452380D01*
X79809523Y-147500000D01*
X79857142Y-147547619D01*
X80190476Y-147452380D02*
X80809523Y-147452380D01*
X80476190Y-147833333D01*
X80619047Y-147833333D01*
X80714285Y-147880952D01*
X80761904Y-147928571D01*
X80809523Y-148023809D01*
X80809523Y-148261904D01*
X80761904Y-148357142D01*
X80714285Y-148404761D01*
X80619047Y-148452380D01*
X80333333Y-148452380D01*
X80238095Y-148404761D01*
X80190476Y-148357142D01*
X81285714Y-148452380D02*
X81476190Y-148452380D01*
X81571428Y-148404761D01*
X81619047Y-148357142D01*
X81714285Y-148214285D01*
X81761904Y-148023809D01*
X81761904Y-147642857D01*
X81714285Y-147547619D01*
X81666666Y-147500000D01*
X81571428Y-147452380D01*
X81380952Y-147452380D01*
X81285714Y-147500000D01*
X81238095Y-147547619D01*
X81190476Y-147642857D01*
X81190476Y-147880952D01*
X81238095Y-147976190D01*
X81285714Y-148023809D01*
X81380952Y-148071428D01*
X81571428Y-148071428D01*
X81666666Y-148023809D01*
X81714285Y-147976190D01*
X81761904Y-147880952D01*
%TO.C,TP1*%
X117738095Y-151004380D02*
X118309523Y-151004380D01*
X118023809Y-152004380D02*
X118023809Y-151004380D01*
X118642857Y-152004380D02*
X118642857Y-151004380D01*
X119023809Y-151004380D01*
X119119047Y-151052000D01*
X119166666Y-151099619D01*
X119214285Y-151194857D01*
X119214285Y-151337714D01*
X119166666Y-151432952D01*
X119119047Y-151480571D01*
X119023809Y-151528190D01*
X118642857Y-151528190D01*
X120166666Y-152004380D02*
X119595238Y-152004380D01*
X119880952Y-152004380D02*
X119880952Y-151004380D01*
X119785714Y-151147238D01*
X119690476Y-151242476D01*
X119595238Y-151290095D01*
%TO.C,TP2*%
X102938095Y-134452380D02*
X103509523Y-134452380D01*
X103223809Y-135452380D02*
X103223809Y-134452380D01*
X103842857Y-135452380D02*
X103842857Y-134452380D01*
X104223809Y-134452380D01*
X104319047Y-134500000D01*
X104366666Y-134547619D01*
X104414285Y-134642857D01*
X104414285Y-134785714D01*
X104366666Y-134880952D01*
X104319047Y-134928571D01*
X104223809Y-134976190D01*
X103842857Y-134976190D01*
X104795238Y-134547619D02*
X104842857Y-134500000D01*
X104938095Y-134452380D01*
X105176190Y-134452380D01*
X105271428Y-134500000D01*
X105319047Y-134547619D01*
X105366666Y-134642857D01*
X105366666Y-134738095D01*
X105319047Y-134880952D01*
X104747619Y-135452380D01*
X105366666Y-135452380D01*
%TO.C,TP3*%
X121988095Y-105252380D02*
X122559523Y-105252380D01*
X122273809Y-106252380D02*
X122273809Y-105252380D01*
X122892857Y-106252380D02*
X122892857Y-105252380D01*
X123273809Y-105252380D01*
X123369047Y-105300000D01*
X123416666Y-105347619D01*
X123464285Y-105442857D01*
X123464285Y-105585714D01*
X123416666Y-105680952D01*
X123369047Y-105728571D01*
X123273809Y-105776190D01*
X122892857Y-105776190D01*
X123797619Y-105252380D02*
X124416666Y-105252380D01*
X124083333Y-105633333D01*
X124226190Y-105633333D01*
X124321428Y-105680952D01*
X124369047Y-105728571D01*
X124416666Y-105823809D01*
X124416666Y-106061904D01*
X124369047Y-106157142D01*
X124321428Y-106204761D01*
X124226190Y-106252380D01*
X123940476Y-106252380D01*
X123845238Y-106204761D01*
X123797619Y-106157142D01*
%TO.C,TP4*%
X112338095Y-104804380D02*
X112909523Y-104804380D01*
X112623809Y-105804380D02*
X112623809Y-104804380D01*
X113242857Y-105804380D02*
X113242857Y-104804380D01*
X113623809Y-104804380D01*
X113719047Y-104852000D01*
X113766666Y-104899619D01*
X113814285Y-104994857D01*
X113814285Y-105137714D01*
X113766666Y-105232952D01*
X113719047Y-105280571D01*
X113623809Y-105328190D01*
X113242857Y-105328190D01*
X114671428Y-105137714D02*
X114671428Y-105804380D01*
X114433333Y-104756761D02*
X114195238Y-105471047D01*
X114814285Y-105471047D01*
%TO.C,TP6*%
X105453095Y-138322380D02*
X106024523Y-138322380D01*
X105738809Y-139322380D02*
X105738809Y-138322380D01*
X106357857Y-139322380D02*
X106357857Y-138322380D01*
X106738809Y-138322380D01*
X106834047Y-138370000D01*
X106881666Y-138417619D01*
X106929285Y-138512857D01*
X106929285Y-138655714D01*
X106881666Y-138750952D01*
X106834047Y-138798571D01*
X106738809Y-138846190D01*
X106357857Y-138846190D01*
X107786428Y-138322380D02*
X107595952Y-138322380D01*
X107500714Y-138370000D01*
X107453095Y-138417619D01*
X107357857Y-138560476D01*
X107310238Y-138750952D01*
X107310238Y-139131904D01*
X107357857Y-139227142D01*
X107405476Y-139274761D01*
X107500714Y-139322380D01*
X107691190Y-139322380D01*
X107786428Y-139274761D01*
X107834047Y-139227142D01*
X107881666Y-139131904D01*
X107881666Y-138893809D01*
X107834047Y-138798571D01*
X107786428Y-138750952D01*
X107691190Y-138703333D01*
X107500714Y-138703333D01*
X107405476Y-138750952D01*
X107357857Y-138798571D01*
X107310238Y-138893809D01*
%TO.C,TP9*%
X121438095Y-145804380D02*
X122009523Y-145804380D01*
X121723809Y-146804380D02*
X121723809Y-145804380D01*
X122342857Y-146804380D02*
X122342857Y-145804380D01*
X122723809Y-145804380D01*
X122819047Y-145852000D01*
X122866666Y-145899619D01*
X122914285Y-145994857D01*
X122914285Y-146137714D01*
X122866666Y-146232952D01*
X122819047Y-146280571D01*
X122723809Y-146328190D01*
X122342857Y-146328190D01*
X123390476Y-146804380D02*
X123580952Y-146804380D01*
X123676190Y-146756761D01*
X123723809Y-146709142D01*
X123819047Y-146566285D01*
X123866666Y-146375809D01*
X123866666Y-145994857D01*
X123819047Y-145899619D01*
X123771428Y-145852000D01*
X123676190Y-145804380D01*
X123485714Y-145804380D01*
X123390476Y-145852000D01*
X123342857Y-145899619D01*
X123295238Y-145994857D01*
X123295238Y-146232952D01*
X123342857Y-146328190D01*
X123390476Y-146375809D01*
X123485714Y-146423428D01*
X123676190Y-146423428D01*
X123771428Y-146375809D01*
X123819047Y-146328190D01*
X123866666Y-146232952D01*
%TO.C,C21*%
X114757142Y-148357142D02*
X114709523Y-148404761D01*
X114566666Y-148452380D01*
X114471428Y-148452380D01*
X114328571Y-148404761D01*
X114233333Y-148309523D01*
X114185714Y-148214285D01*
X114138095Y-148023809D01*
X114138095Y-147880952D01*
X114185714Y-147690476D01*
X114233333Y-147595238D01*
X114328571Y-147500000D01*
X114471428Y-147452380D01*
X114566666Y-147452380D01*
X114709523Y-147500000D01*
X114757142Y-147547619D01*
X115138095Y-147547619D02*
X115185714Y-147500000D01*
X115280952Y-147452380D01*
X115519047Y-147452380D01*
X115614285Y-147500000D01*
X115661904Y-147547619D01*
X115709523Y-147642857D01*
X115709523Y-147738095D01*
X115661904Y-147880952D01*
X115090476Y-148452380D01*
X115709523Y-148452380D01*
X116661904Y-148452380D02*
X116090476Y-148452380D01*
X116376190Y-148452380D02*
X116376190Y-147452380D01*
X116280952Y-147595238D01*
X116185714Y-147690476D01*
X116090476Y-147738095D01*
%TO.C,C23*%
X115557142Y-139557142D02*
X115509523Y-139604761D01*
X115366666Y-139652380D01*
X115271428Y-139652380D01*
X115128571Y-139604761D01*
X115033333Y-139509523D01*
X114985714Y-139414285D01*
X114938095Y-139223809D01*
X114938095Y-139080952D01*
X114985714Y-138890476D01*
X115033333Y-138795238D01*
X115128571Y-138700000D01*
X115271428Y-138652380D01*
X115366666Y-138652380D01*
X115509523Y-138700000D01*
X115557142Y-138747619D01*
X115938095Y-138747619D02*
X115985714Y-138700000D01*
X116080952Y-138652380D01*
X116319047Y-138652380D01*
X116414285Y-138700000D01*
X116461904Y-138747619D01*
X116509523Y-138842857D01*
X116509523Y-138938095D01*
X116461904Y-139080952D01*
X115890476Y-139652380D01*
X116509523Y-139652380D01*
X116842857Y-138652380D02*
X117461904Y-138652380D01*
X117128571Y-139033333D01*
X117271428Y-139033333D01*
X117366666Y-139080952D01*
X117414285Y-139128571D01*
X117461904Y-139223809D01*
X117461904Y-139461904D01*
X117414285Y-139557142D01*
X117366666Y-139604761D01*
X117271428Y-139652380D01*
X116985714Y-139652380D01*
X116890476Y-139604761D01*
X116842857Y-139557142D01*
%TO.C,R13*%
X111357142Y-145452380D02*
X111023809Y-144976190D01*
X110785714Y-145452380D02*
X110785714Y-144452380D01*
X111166666Y-144452380D01*
X111261904Y-144500000D01*
X111309523Y-144547619D01*
X111357142Y-144642857D01*
X111357142Y-144785714D01*
X111309523Y-144880952D01*
X111261904Y-144928571D01*
X111166666Y-144976190D01*
X110785714Y-144976190D01*
X112309523Y-145452380D02*
X111738095Y-145452380D01*
X112023809Y-145452380D02*
X112023809Y-144452380D01*
X111928571Y-144595238D01*
X111833333Y-144690476D01*
X111738095Y-144738095D01*
X112642857Y-144452380D02*
X113261904Y-144452380D01*
X112928571Y-144833333D01*
X113071428Y-144833333D01*
X113166666Y-144880952D01*
X113214285Y-144928571D01*
X113261904Y-145023809D01*
X113261904Y-145261904D01*
X113214285Y-145357142D01*
X113166666Y-145404761D01*
X113071428Y-145452380D01*
X112785714Y-145452380D01*
X112690476Y-145404761D01*
X112642857Y-145357142D01*
%TO.C,C17*%
X109642142Y-143177142D02*
X109594523Y-143224761D01*
X109451666Y-143272380D01*
X109356428Y-143272380D01*
X109213571Y-143224761D01*
X109118333Y-143129523D01*
X109070714Y-143034285D01*
X109023095Y-142843809D01*
X109023095Y-142700952D01*
X109070714Y-142510476D01*
X109118333Y-142415238D01*
X109213571Y-142320000D01*
X109356428Y-142272380D01*
X109451666Y-142272380D01*
X109594523Y-142320000D01*
X109642142Y-142367619D01*
X110594523Y-143272380D02*
X110023095Y-143272380D01*
X110308809Y-143272380D02*
X110308809Y-142272380D01*
X110213571Y-142415238D01*
X110118333Y-142510476D01*
X110023095Y-142558095D01*
X110927857Y-142272380D02*
X111594523Y-142272380D01*
X111165952Y-143272380D01*
%TO.C,R8*%
X105435833Y-143242380D02*
X105102500Y-142766190D01*
X104864404Y-143242380D02*
X104864404Y-142242380D01*
X105245357Y-142242380D01*
X105340595Y-142290000D01*
X105388214Y-142337619D01*
X105435833Y-142432857D01*
X105435833Y-142575714D01*
X105388214Y-142670952D01*
X105340595Y-142718571D01*
X105245357Y-142766190D01*
X104864404Y-142766190D01*
X106007261Y-142670952D02*
X105912023Y-142623333D01*
X105864404Y-142575714D01*
X105816785Y-142480476D01*
X105816785Y-142432857D01*
X105864404Y-142337619D01*
X105912023Y-142290000D01*
X106007261Y-142242380D01*
X106197738Y-142242380D01*
X106292976Y-142290000D01*
X106340595Y-142337619D01*
X106388214Y-142432857D01*
X106388214Y-142480476D01*
X106340595Y-142575714D01*
X106292976Y-142623333D01*
X106197738Y-142670952D01*
X106007261Y-142670952D01*
X105912023Y-142718571D01*
X105864404Y-142766190D01*
X105816785Y-142861428D01*
X105816785Y-143051904D01*
X105864404Y-143147142D01*
X105912023Y-143194761D01*
X106007261Y-143242380D01*
X106197738Y-143242380D01*
X106292976Y-143194761D01*
X106340595Y-143147142D01*
X106388214Y-143051904D01*
X106388214Y-142861428D01*
X106340595Y-142766190D01*
X106292976Y-142718571D01*
X106197738Y-142670952D01*
%TO.C,C26*%
X133857142Y-146892857D02*
X133904761Y-146940476D01*
X133952380Y-147083333D01*
X133952380Y-147178571D01*
X133904761Y-147321428D01*
X133809523Y-147416666D01*
X133714285Y-147464285D01*
X133523809Y-147511904D01*
X133380952Y-147511904D01*
X133190476Y-147464285D01*
X133095238Y-147416666D01*
X133000000Y-147321428D01*
X132952380Y-147178571D01*
X132952380Y-147083333D01*
X133000000Y-146940476D01*
X133047619Y-146892857D01*
X133047619Y-146511904D02*
X133000000Y-146464285D01*
X132952380Y-146369047D01*
X132952380Y-146130952D01*
X133000000Y-146035714D01*
X133047619Y-145988095D01*
X133142857Y-145940476D01*
X133238095Y-145940476D01*
X133380952Y-145988095D01*
X133952380Y-146559523D01*
X133952380Y-145940476D01*
X132952380Y-145083333D02*
X132952380Y-145273809D01*
X133000000Y-145369047D01*
X133047619Y-145416666D01*
X133190476Y-145511904D01*
X133380952Y-145559523D01*
X133761904Y-145559523D01*
X133857142Y-145511904D01*
X133904761Y-145464285D01*
X133952380Y-145369047D01*
X133952380Y-145178571D01*
X133904761Y-145083333D01*
X133857142Y-145035714D01*
X133761904Y-144988095D01*
X133523809Y-144988095D01*
X133428571Y-145035714D01*
X133380952Y-145083333D01*
X133333333Y-145178571D01*
X133333333Y-145369047D01*
X133380952Y-145464285D01*
X133428571Y-145511904D01*
X133523809Y-145559523D01*
%TO.C,C25*%
X129157142Y-150742857D02*
X129204761Y-150790476D01*
X129252380Y-150933333D01*
X129252380Y-151028571D01*
X129204761Y-151171428D01*
X129109523Y-151266666D01*
X129014285Y-151314285D01*
X128823809Y-151361904D01*
X128680952Y-151361904D01*
X128490476Y-151314285D01*
X128395238Y-151266666D01*
X128300000Y-151171428D01*
X128252380Y-151028571D01*
X128252380Y-150933333D01*
X128300000Y-150790476D01*
X128347619Y-150742857D01*
X128347619Y-150361904D02*
X128300000Y-150314285D01*
X128252380Y-150219047D01*
X128252380Y-149980952D01*
X128300000Y-149885714D01*
X128347619Y-149838095D01*
X128442857Y-149790476D01*
X128538095Y-149790476D01*
X128680952Y-149838095D01*
X129252380Y-150409523D01*
X129252380Y-149790476D01*
X128252380Y-148885714D02*
X128252380Y-149361904D01*
X128728571Y-149409523D01*
X128680952Y-149361904D01*
X128633333Y-149266666D01*
X128633333Y-149028571D01*
X128680952Y-148933333D01*
X128728571Y-148885714D01*
X128823809Y-148838095D01*
X129061904Y-148838095D01*
X129157142Y-148885714D01*
X129204761Y-148933333D01*
X129252380Y-149028571D01*
X129252380Y-149266666D01*
X129204761Y-149361904D01*
X129157142Y-149409523D01*
%TO.C,C11*%
X121642142Y-148642857D02*
X121689761Y-148690476D01*
X121737380Y-148833333D01*
X121737380Y-148928571D01*
X121689761Y-149071428D01*
X121594523Y-149166666D01*
X121499285Y-149214285D01*
X121308809Y-149261904D01*
X121165952Y-149261904D01*
X120975476Y-149214285D01*
X120880238Y-149166666D01*
X120785000Y-149071428D01*
X120737380Y-148928571D01*
X120737380Y-148833333D01*
X120785000Y-148690476D01*
X120832619Y-148642857D01*
X121737380Y-147690476D02*
X121737380Y-148261904D01*
X121737380Y-147976190D02*
X120737380Y-147976190D01*
X120880238Y-148071428D01*
X120975476Y-148166666D01*
X121023095Y-148261904D01*
X121737380Y-146738095D02*
X121737380Y-147309523D01*
X121737380Y-147023809D02*
X120737380Y-147023809D01*
X120880238Y-147119047D01*
X120975476Y-147214285D01*
X121023095Y-147309523D01*
%TO.C,C12*%
X119167142Y-136937142D02*
X119119523Y-136984761D01*
X118976666Y-137032380D01*
X118881428Y-137032380D01*
X118738571Y-136984761D01*
X118643333Y-136889523D01*
X118595714Y-136794285D01*
X118548095Y-136603809D01*
X118548095Y-136460952D01*
X118595714Y-136270476D01*
X118643333Y-136175238D01*
X118738571Y-136080000D01*
X118881428Y-136032380D01*
X118976666Y-136032380D01*
X119119523Y-136080000D01*
X119167142Y-136127619D01*
X120119523Y-137032380D02*
X119548095Y-137032380D01*
X119833809Y-137032380D02*
X119833809Y-136032380D01*
X119738571Y-136175238D01*
X119643333Y-136270476D01*
X119548095Y-136318095D01*
X120500476Y-136127619D02*
X120548095Y-136080000D01*
X120643333Y-136032380D01*
X120881428Y-136032380D01*
X120976666Y-136080000D01*
X121024285Y-136127619D01*
X121071904Y-136222857D01*
X121071904Y-136318095D01*
X121024285Y-136460952D01*
X120452857Y-137032380D01*
X121071904Y-137032380D01*
%TO.C,C28*%
X123357142Y-130857142D02*
X123309523Y-130904761D01*
X123166666Y-130952380D01*
X123071428Y-130952380D01*
X122928571Y-130904761D01*
X122833333Y-130809523D01*
X122785714Y-130714285D01*
X122738095Y-130523809D01*
X122738095Y-130380952D01*
X122785714Y-130190476D01*
X122833333Y-130095238D01*
X122928571Y-130000000D01*
X123071428Y-129952380D01*
X123166666Y-129952380D01*
X123309523Y-130000000D01*
X123357142Y-130047619D01*
X123738095Y-130047619D02*
X123785714Y-130000000D01*
X123880952Y-129952380D01*
X124119047Y-129952380D01*
X124214285Y-130000000D01*
X124261904Y-130047619D01*
X124309523Y-130142857D01*
X124309523Y-130238095D01*
X124261904Y-130380952D01*
X123690476Y-130952380D01*
X124309523Y-130952380D01*
X124880952Y-130380952D02*
X124785714Y-130333333D01*
X124738095Y-130285714D01*
X124690476Y-130190476D01*
X124690476Y-130142857D01*
X124738095Y-130047619D01*
X124785714Y-130000000D01*
X124880952Y-129952380D01*
X125071428Y-129952380D01*
X125166666Y-130000000D01*
X125214285Y-130047619D01*
X125261904Y-130142857D01*
X125261904Y-130190476D01*
X125214285Y-130285714D01*
X125166666Y-130333333D01*
X125071428Y-130380952D01*
X124880952Y-130380952D01*
X124785714Y-130428571D01*
X124738095Y-130476190D01*
X124690476Y-130571428D01*
X124690476Y-130761904D01*
X124738095Y-130857142D01*
X124785714Y-130904761D01*
X124880952Y-130952380D01*
X125071428Y-130952380D01*
X125166666Y-130904761D01*
X125214285Y-130857142D01*
X125261904Y-130761904D01*
X125261904Y-130571428D01*
X125214285Y-130476190D01*
X125166666Y-130428571D01*
X125071428Y-130380952D01*
%TO.C,C27*%
X123357142Y-137357142D02*
X123309523Y-137404761D01*
X123166666Y-137452380D01*
X123071428Y-137452380D01*
X122928571Y-137404761D01*
X122833333Y-137309523D01*
X122785714Y-137214285D01*
X122738095Y-137023809D01*
X122738095Y-136880952D01*
X122785714Y-136690476D01*
X122833333Y-136595238D01*
X122928571Y-136500000D01*
X123071428Y-136452380D01*
X123166666Y-136452380D01*
X123309523Y-136500000D01*
X123357142Y-136547619D01*
X123738095Y-136547619D02*
X123785714Y-136500000D01*
X123880952Y-136452380D01*
X124119047Y-136452380D01*
X124214285Y-136500000D01*
X124261904Y-136547619D01*
X124309523Y-136642857D01*
X124309523Y-136738095D01*
X124261904Y-136880952D01*
X123690476Y-137452380D01*
X124309523Y-137452380D01*
X124642857Y-136452380D02*
X125309523Y-136452380D01*
X124880952Y-137452380D01*
%TO.C,R20*%
X126852380Y-148542857D02*
X126376190Y-148876190D01*
X126852380Y-149114285D02*
X125852380Y-149114285D01*
X125852380Y-148733333D01*
X125900000Y-148638095D01*
X125947619Y-148590476D01*
X126042857Y-148542857D01*
X126185714Y-148542857D01*
X126280952Y-148590476D01*
X126328571Y-148638095D01*
X126376190Y-148733333D01*
X126376190Y-149114285D01*
X125947619Y-148161904D02*
X125900000Y-148114285D01*
X125852380Y-148019047D01*
X125852380Y-147780952D01*
X125900000Y-147685714D01*
X125947619Y-147638095D01*
X126042857Y-147590476D01*
X126138095Y-147590476D01*
X126280952Y-147638095D01*
X126852380Y-148209523D01*
X126852380Y-147590476D01*
X125852380Y-146971428D02*
X125852380Y-146876190D01*
X125900000Y-146780952D01*
X125947619Y-146733333D01*
X126042857Y-146685714D01*
X126233333Y-146638095D01*
X126471428Y-146638095D01*
X126661904Y-146685714D01*
X126757142Y-146733333D01*
X126804761Y-146780952D01*
X126852380Y-146876190D01*
X126852380Y-146971428D01*
X126804761Y-147066666D01*
X126757142Y-147114285D01*
X126661904Y-147161904D01*
X126471428Y-147209523D01*
X126233333Y-147209523D01*
X126042857Y-147161904D01*
X125947619Y-147114285D01*
X125900000Y-147066666D01*
X125852380Y-146971428D01*
%TO.C,L4*%
X125852380Y-127366666D02*
X125852380Y-127842857D01*
X124852380Y-127842857D01*
X125185714Y-126604761D02*
X125852380Y-126604761D01*
X124804761Y-126842857D02*
X125519047Y-127080952D01*
X125519047Y-126461904D01*
%TO.C,L3*%
X135952380Y-140166666D02*
X135952380Y-140642857D01*
X134952380Y-140642857D01*
X134952380Y-139928571D02*
X134952380Y-139309523D01*
X135333333Y-139642857D01*
X135333333Y-139500000D01*
X135380952Y-139404761D01*
X135428571Y-139357142D01*
X135523809Y-139309523D01*
X135761904Y-139309523D01*
X135857142Y-139357142D01*
X135904761Y-139404761D01*
X135952380Y-139500000D01*
X135952380Y-139785714D01*
X135904761Y-139880952D01*
X135857142Y-139928571D01*
%TO.C,H5*%
X128988095Y-95202380D02*
X128988095Y-94202380D01*
X128988095Y-94678571D02*
X129559523Y-94678571D01*
X129559523Y-95202380D02*
X129559523Y-94202380D01*
X130511904Y-94202380D02*
X130035714Y-94202380D01*
X129988095Y-94678571D01*
X130035714Y-94630952D01*
X130130952Y-94583333D01*
X130369047Y-94583333D01*
X130464285Y-94630952D01*
X130511904Y-94678571D01*
X130559523Y-94773809D01*
X130559523Y-95011904D01*
X130511904Y-95107142D01*
X130464285Y-95154761D01*
X130369047Y-95202380D01*
X130130952Y-95202380D01*
X130035714Y-95154761D01*
X129988095Y-95107142D01*
%TO.C,H4*%
X90988095Y-96952380D02*
X90988095Y-95952380D01*
X90988095Y-96428571D02*
X91559523Y-96428571D01*
X91559523Y-96952380D02*
X91559523Y-95952380D01*
X92464285Y-96285714D02*
X92464285Y-96952380D01*
X92226190Y-95904761D02*
X91988095Y-96619047D01*
X92607142Y-96619047D01*
%TO.C,H1*%
X84238095Y-151952380D02*
X84238095Y-150952380D01*
X84238095Y-151428571D02*
X84809523Y-151428571D01*
X84809523Y-151952380D02*
X84809523Y-150952380D01*
X85809523Y-151952380D02*
X85238095Y-151952380D01*
X85523809Y-151952380D02*
X85523809Y-150952380D01*
X85428571Y-151095238D01*
X85333333Y-151190476D01*
X85238095Y-151238095D01*
%TO.C,H2*%
X126988095Y-159202380D02*
X126988095Y-158202380D01*
X126988095Y-158678571D02*
X127559523Y-158678571D01*
X127559523Y-159202380D02*
X127559523Y-158202380D01*
X127988095Y-158297619D02*
X128035714Y-158250000D01*
X128130952Y-158202380D01*
X128369047Y-158202380D01*
X128464285Y-158250000D01*
X128511904Y-158297619D01*
X128559523Y-158392857D01*
X128559523Y-158488095D01*
X128511904Y-158630952D01*
X127940476Y-159202380D01*
X128559523Y-159202380D01*
%TO.C,J4*%
X49441666Y-144027380D02*
X49441666Y-144741666D01*
X49394047Y-144884523D01*
X49298809Y-144979761D01*
X49155952Y-145027380D01*
X49060714Y-145027380D01*
X50346428Y-144360714D02*
X50346428Y-145027380D01*
X50108333Y-143979761D02*
X49870238Y-144694047D01*
X50489285Y-144694047D01*
%TO.C,C40*%
X79857142Y-150857142D02*
X79809523Y-150904761D01*
X79666666Y-150952380D01*
X79571428Y-150952380D01*
X79428571Y-150904761D01*
X79333333Y-150809523D01*
X79285714Y-150714285D01*
X79238095Y-150523809D01*
X79238095Y-150380952D01*
X79285714Y-150190476D01*
X79333333Y-150095238D01*
X79428571Y-150000000D01*
X79571428Y-149952380D01*
X79666666Y-149952380D01*
X79809523Y-150000000D01*
X79857142Y-150047619D01*
X80714285Y-150285714D02*
X80714285Y-150952380D01*
X80476190Y-149904761D02*
X80238095Y-150619047D01*
X80857142Y-150619047D01*
X81428571Y-149952380D02*
X81523809Y-149952380D01*
X81619047Y-150000000D01*
X81666666Y-150047619D01*
X81714285Y-150142857D01*
X81761904Y-150333333D01*
X81761904Y-150571428D01*
X81714285Y-150761904D01*
X81666666Y-150857142D01*
X81619047Y-150904761D01*
X81523809Y-150952380D01*
X81428571Y-150952380D01*
X81333333Y-150904761D01*
X81285714Y-150857142D01*
X81238095Y-150761904D01*
X81190476Y-150571428D01*
X81190476Y-150333333D01*
X81238095Y-150142857D01*
X81285714Y-150047619D01*
X81333333Y-150000000D01*
X81428571Y-149952380D01*
%TO.C,C5*%
X121757142Y-110666666D02*
X121804761Y-110714285D01*
X121852380Y-110857142D01*
X121852380Y-110952380D01*
X121804761Y-111095238D01*
X121709523Y-111190476D01*
X121614285Y-111238095D01*
X121423809Y-111285714D01*
X121280952Y-111285714D01*
X121090476Y-111238095D01*
X120995238Y-111190476D01*
X120900000Y-111095238D01*
X120852380Y-110952380D01*
X120852380Y-110857142D01*
X120900000Y-110714285D01*
X120947619Y-110666666D01*
X120852380Y-109761904D02*
X120852380Y-110238095D01*
X121328571Y-110285714D01*
X121280952Y-110238095D01*
X121233333Y-110142857D01*
X121233333Y-109904761D01*
X121280952Y-109809523D01*
X121328571Y-109761904D01*
X121423809Y-109714285D01*
X121661904Y-109714285D01*
X121757142Y-109761904D01*
X121804761Y-109809523D01*
X121852380Y-109904761D01*
X121852380Y-110142857D01*
X121804761Y-110238095D01*
X121757142Y-110285714D01*
%TO.C,R27*%
X116152142Y-108207380D02*
X115818809Y-107731190D01*
X115580714Y-108207380D02*
X115580714Y-107207380D01*
X115961666Y-107207380D01*
X116056904Y-107255000D01*
X116104523Y-107302619D01*
X116152142Y-107397857D01*
X116152142Y-107540714D01*
X116104523Y-107635952D01*
X116056904Y-107683571D01*
X115961666Y-107731190D01*
X115580714Y-107731190D01*
X116533095Y-107302619D02*
X116580714Y-107255000D01*
X116675952Y-107207380D01*
X116914047Y-107207380D01*
X117009285Y-107255000D01*
X117056904Y-107302619D01*
X117104523Y-107397857D01*
X117104523Y-107493095D01*
X117056904Y-107635952D01*
X116485476Y-108207380D01*
X117104523Y-108207380D01*
X117437857Y-107207380D02*
X118104523Y-107207380D01*
X117675952Y-108207380D01*
%TO.C,U6*%
X72738095Y-118452380D02*
X72738095Y-119261904D01*
X72785714Y-119357142D01*
X72833333Y-119404761D01*
X72928571Y-119452380D01*
X73119047Y-119452380D01*
X73214285Y-119404761D01*
X73261904Y-119357142D01*
X73309523Y-119261904D01*
X73309523Y-118452380D01*
X74214285Y-118452380D02*
X74023809Y-118452380D01*
X73928571Y-118500000D01*
X73880952Y-118547619D01*
X73785714Y-118690476D01*
X73738095Y-118880952D01*
X73738095Y-119261904D01*
X73785714Y-119357142D01*
X73833333Y-119404761D01*
X73928571Y-119452380D01*
X74119047Y-119452380D01*
X74214285Y-119404761D01*
X74261904Y-119357142D01*
X74309523Y-119261904D01*
X74309523Y-119023809D01*
X74261904Y-118928571D01*
X74214285Y-118880952D01*
X74119047Y-118833333D01*
X73928571Y-118833333D01*
X73833333Y-118880952D01*
X73785714Y-118928571D01*
X73738095Y-119023809D01*
%TO.C,R16*%
X119627380Y-102642857D02*
X119151190Y-102976190D01*
X119627380Y-103214285D02*
X118627380Y-103214285D01*
X118627380Y-102833333D01*
X118675000Y-102738095D01*
X118722619Y-102690476D01*
X118817857Y-102642857D01*
X118960714Y-102642857D01*
X119055952Y-102690476D01*
X119103571Y-102738095D01*
X119151190Y-102833333D01*
X119151190Y-103214285D01*
X119627380Y-101690476D02*
X119627380Y-102261904D01*
X119627380Y-101976190D02*
X118627380Y-101976190D01*
X118770238Y-102071428D01*
X118865476Y-102166666D01*
X118913095Y-102261904D01*
X118627380Y-100833333D02*
X118627380Y-101023809D01*
X118675000Y-101119047D01*
X118722619Y-101166666D01*
X118865476Y-101261904D01*
X119055952Y-101309523D01*
X119436904Y-101309523D01*
X119532142Y-101261904D01*
X119579761Y-101214285D01*
X119627380Y-101119047D01*
X119627380Y-100928571D01*
X119579761Y-100833333D01*
X119532142Y-100785714D01*
X119436904Y-100738095D01*
X119198809Y-100738095D01*
X119103571Y-100785714D01*
X119055952Y-100833333D01*
X119008333Y-100928571D01*
X119008333Y-101119047D01*
X119055952Y-101214285D01*
X119103571Y-101261904D01*
X119198809Y-101309523D01*
%TO.C,R17*%
X111932380Y-102905357D02*
X111456190Y-103238690D01*
X111932380Y-103476785D02*
X110932380Y-103476785D01*
X110932380Y-103095833D01*
X110980000Y-103000595D01*
X111027619Y-102952976D01*
X111122857Y-102905357D01*
X111265714Y-102905357D01*
X111360952Y-102952976D01*
X111408571Y-103000595D01*
X111456190Y-103095833D01*
X111456190Y-103476785D01*
X111932380Y-101952976D02*
X111932380Y-102524404D01*
X111932380Y-102238690D02*
X110932380Y-102238690D01*
X111075238Y-102333928D01*
X111170476Y-102429166D01*
X111218095Y-102524404D01*
X110932380Y-101619642D02*
X110932380Y-100952976D01*
X111932380Y-101381547D01*
%TO.C,F2*%
X88928571Y-110333333D02*
X88928571Y-110666666D01*
X89452380Y-110666666D02*
X88452380Y-110666666D01*
X88452380Y-110190476D01*
X88547619Y-109857142D02*
X88500000Y-109809523D01*
X88452380Y-109714285D01*
X88452380Y-109476190D01*
X88500000Y-109380952D01*
X88547619Y-109333333D01*
X88642857Y-109285714D01*
X88738095Y-109285714D01*
X88880952Y-109333333D01*
X89452380Y-109904761D01*
X89452380Y-109285714D01*
%TO.C,TP8*%
X43802380Y-122861904D02*
X43802380Y-122290476D01*
X44802380Y-122576190D02*
X43802380Y-122576190D01*
X44802380Y-121957142D02*
X43802380Y-121957142D01*
X43802380Y-121576190D01*
X43850000Y-121480952D01*
X43897619Y-121433333D01*
X43992857Y-121385714D01*
X44135714Y-121385714D01*
X44230952Y-121433333D01*
X44278571Y-121480952D01*
X44326190Y-121576190D01*
X44326190Y-121957142D01*
X44230952Y-120814285D02*
X44183333Y-120909523D01*
X44135714Y-120957142D01*
X44040476Y-121004761D01*
X43992857Y-121004761D01*
X43897619Y-120957142D01*
X43850000Y-120909523D01*
X43802380Y-120814285D01*
X43802380Y-120623809D01*
X43850000Y-120528571D01*
X43897619Y-120480952D01*
X43992857Y-120433333D01*
X44040476Y-120433333D01*
X44135714Y-120480952D01*
X44183333Y-120528571D01*
X44230952Y-120623809D01*
X44230952Y-120814285D01*
X44278571Y-120909523D01*
X44326190Y-120957142D01*
X44421428Y-121004761D01*
X44611904Y-121004761D01*
X44707142Y-120957142D01*
X44754761Y-120909523D01*
X44802380Y-120814285D01*
X44802380Y-120623809D01*
X44754761Y-120528571D01*
X44707142Y-120480952D01*
X44611904Y-120433333D01*
X44421428Y-120433333D01*
X44326190Y-120480952D01*
X44278571Y-120528571D01*
X44230952Y-120623809D01*
%TO.C,U5*%
X83488095Y-118452380D02*
X83488095Y-119261904D01*
X83535714Y-119357142D01*
X83583333Y-119404761D01*
X83678571Y-119452380D01*
X83869047Y-119452380D01*
X83964285Y-119404761D01*
X84011904Y-119357142D01*
X84059523Y-119261904D01*
X84059523Y-118452380D01*
X85011904Y-118452380D02*
X84535714Y-118452380D01*
X84488095Y-118928571D01*
X84535714Y-118880952D01*
X84630952Y-118833333D01*
X84869047Y-118833333D01*
X84964285Y-118880952D01*
X85011904Y-118928571D01*
X85059523Y-119023809D01*
X85059523Y-119261904D01*
X85011904Y-119357142D01*
X84964285Y-119404761D01*
X84869047Y-119452380D01*
X84630952Y-119452380D01*
X84535714Y-119404761D01*
X84488095Y-119357142D01*
%TO.C,C1*%
X89178333Y-105912142D02*
X89130714Y-105959761D01*
X88987857Y-106007380D01*
X88892619Y-106007380D01*
X88749761Y-105959761D01*
X88654523Y-105864523D01*
X88606904Y-105769285D01*
X88559285Y-105578809D01*
X88559285Y-105435952D01*
X88606904Y-105245476D01*
X88654523Y-105150238D01*
X88749761Y-105055000D01*
X88892619Y-105007380D01*
X88987857Y-105007380D01*
X89130714Y-105055000D01*
X89178333Y-105102619D01*
X90130714Y-106007380D02*
X89559285Y-106007380D01*
X89845000Y-106007380D02*
X89845000Y-105007380D01*
X89749761Y-105150238D01*
X89654523Y-105245476D01*
X89559285Y-105293095D01*
%TO.C,F1*%
X94678571Y-110333333D02*
X94678571Y-110666666D01*
X95202380Y-110666666D02*
X94202380Y-110666666D01*
X94202380Y-110190476D01*
X95202380Y-109285714D02*
X95202380Y-109857142D01*
X95202380Y-109571428D02*
X94202380Y-109571428D01*
X94345238Y-109666666D01*
X94440476Y-109761904D01*
X94488095Y-109857142D01*
%TO.C,TP7*%
X134702380Y-112261904D02*
X134702380Y-111690476D01*
X135702380Y-111976190D02*
X134702380Y-111976190D01*
X135702380Y-111357142D02*
X134702380Y-111357142D01*
X134702380Y-110976190D01*
X134750000Y-110880952D01*
X134797619Y-110833333D01*
X134892857Y-110785714D01*
X135035714Y-110785714D01*
X135130952Y-110833333D01*
X135178571Y-110880952D01*
X135226190Y-110976190D01*
X135226190Y-111357142D01*
X134702380Y-110452380D02*
X134702380Y-109785714D01*
X135702380Y-110214285D01*
%TO.C,R19*%
X101357142Y-133252380D02*
X101023809Y-132776190D01*
X100785714Y-133252380D02*
X100785714Y-132252380D01*
X101166666Y-132252380D01*
X101261904Y-132300000D01*
X101309523Y-132347619D01*
X101357142Y-132442857D01*
X101357142Y-132585714D01*
X101309523Y-132680952D01*
X101261904Y-132728571D01*
X101166666Y-132776190D01*
X100785714Y-132776190D01*
X102309523Y-133252380D02*
X101738095Y-133252380D01*
X102023809Y-133252380D02*
X102023809Y-132252380D01*
X101928571Y-132395238D01*
X101833333Y-132490476D01*
X101738095Y-132538095D01*
X102785714Y-133252380D02*
X102976190Y-133252380D01*
X103071428Y-133204761D01*
X103119047Y-133157142D01*
X103214285Y-133014285D01*
X103261904Y-132823809D01*
X103261904Y-132442857D01*
X103214285Y-132347619D01*
X103166666Y-132300000D01*
X103071428Y-132252380D01*
X102880952Y-132252380D01*
X102785714Y-132300000D01*
X102738095Y-132347619D01*
X102690476Y-132442857D01*
X102690476Y-132680952D01*
X102738095Y-132776190D01*
X102785714Y-132823809D01*
X102880952Y-132871428D01*
X103071428Y-132871428D01*
X103166666Y-132823809D01*
X103214285Y-132776190D01*
X103261904Y-132680952D01*
%TO.C,SW1*%
X108466666Y-122404761D02*
X108609523Y-122452380D01*
X108847619Y-122452380D01*
X108942857Y-122404761D01*
X108990476Y-122357142D01*
X109038095Y-122261904D01*
X109038095Y-122166666D01*
X108990476Y-122071428D01*
X108942857Y-122023809D01*
X108847619Y-121976190D01*
X108657142Y-121928571D01*
X108561904Y-121880952D01*
X108514285Y-121833333D01*
X108466666Y-121738095D01*
X108466666Y-121642857D01*
X108514285Y-121547619D01*
X108561904Y-121500000D01*
X108657142Y-121452380D01*
X108895238Y-121452380D01*
X109038095Y-121500000D01*
X109371428Y-121452380D02*
X109609523Y-122452380D01*
X109800000Y-121738095D01*
X109990476Y-122452380D01*
X110228571Y-121452380D01*
X111133333Y-122452380D02*
X110561904Y-122452380D01*
X110847619Y-122452380D02*
X110847619Y-121452380D01*
X110752380Y-121595238D01*
X110657142Y-121690476D01*
X110561904Y-121738095D01*
%TO.C,R1*%
X102233333Y-125452380D02*
X101900000Y-124976190D01*
X101661904Y-125452380D02*
X101661904Y-124452380D01*
X102042857Y-124452380D01*
X102138095Y-124500000D01*
X102185714Y-124547619D01*
X102233333Y-124642857D01*
X102233333Y-124785714D01*
X102185714Y-124880952D01*
X102138095Y-124928571D01*
X102042857Y-124976190D01*
X101661904Y-124976190D01*
X103185714Y-125452380D02*
X102614285Y-125452380D01*
X102900000Y-125452380D02*
X102900000Y-124452380D01*
X102804761Y-124595238D01*
X102709523Y-124690476D01*
X102614285Y-124738095D01*
%TO.C,R2*%
X102233333Y-128052380D02*
X101900000Y-127576190D01*
X101661904Y-128052380D02*
X101661904Y-127052380D01*
X102042857Y-127052380D01*
X102138095Y-127100000D01*
X102185714Y-127147619D01*
X102233333Y-127242857D01*
X102233333Y-127385714D01*
X102185714Y-127480952D01*
X102138095Y-127528571D01*
X102042857Y-127576190D01*
X101661904Y-127576190D01*
X102614285Y-127147619D02*
X102661904Y-127100000D01*
X102757142Y-127052380D01*
X102995238Y-127052380D01*
X103090476Y-127100000D01*
X103138095Y-127147619D01*
X103185714Y-127242857D01*
X103185714Y-127338095D01*
X103138095Y-127480952D01*
X102566666Y-128052380D01*
X103185714Y-128052380D01*
%TO.C,R18*%
X101357142Y-130652380D02*
X101023809Y-130176190D01*
X100785714Y-130652380D02*
X100785714Y-129652380D01*
X101166666Y-129652380D01*
X101261904Y-129700000D01*
X101309523Y-129747619D01*
X101357142Y-129842857D01*
X101357142Y-129985714D01*
X101309523Y-130080952D01*
X101261904Y-130128571D01*
X101166666Y-130176190D01*
X100785714Y-130176190D01*
X102309523Y-130652380D02*
X101738095Y-130652380D01*
X102023809Y-130652380D02*
X102023809Y-129652380D01*
X101928571Y-129795238D01*
X101833333Y-129890476D01*
X101738095Y-129938095D01*
X102880952Y-130080952D02*
X102785714Y-130033333D01*
X102738095Y-129985714D01*
X102690476Y-129890476D01*
X102690476Y-129842857D01*
X102738095Y-129747619D01*
X102785714Y-129700000D01*
X102880952Y-129652380D01*
X103071428Y-129652380D01*
X103166666Y-129700000D01*
X103214285Y-129747619D01*
X103261904Y-129842857D01*
X103261904Y-129890476D01*
X103214285Y-129985714D01*
X103166666Y-130033333D01*
X103071428Y-130080952D01*
X102880952Y-130080952D01*
X102785714Y-130128571D01*
X102738095Y-130176190D01*
X102690476Y-130271428D01*
X102690476Y-130461904D01*
X102738095Y-130557142D01*
X102785714Y-130604761D01*
X102880952Y-130652380D01*
X103071428Y-130652380D01*
X103166666Y-130604761D01*
X103214285Y-130557142D01*
X103261904Y-130461904D01*
X103261904Y-130271428D01*
X103214285Y-130176190D01*
X103166666Y-130128571D01*
X103071428Y-130080952D01*
%TO.C,TP5*%
X79033095Y-139742380D02*
X79604523Y-139742380D01*
X79318809Y-140742380D02*
X79318809Y-139742380D01*
X79937857Y-140742380D02*
X79937857Y-139742380D01*
X80318809Y-139742380D01*
X80414047Y-139790000D01*
X80461666Y-139837619D01*
X80509285Y-139932857D01*
X80509285Y-140075714D01*
X80461666Y-140170952D01*
X80414047Y-140218571D01*
X80318809Y-140266190D01*
X79937857Y-140266190D01*
X81414047Y-139742380D02*
X80937857Y-139742380D01*
X80890238Y-140218571D01*
X80937857Y-140170952D01*
X81033095Y-140123333D01*
X81271190Y-140123333D01*
X81366428Y-140170952D01*
X81414047Y-140218571D01*
X81461666Y-140313809D01*
X81461666Y-140551904D01*
X81414047Y-140647142D01*
X81366428Y-140694761D01*
X81271190Y-140742380D01*
X81033095Y-140742380D01*
X80937857Y-140694761D01*
X80890238Y-140647142D01*
%TO.C,J2*%
X110916666Y-93972380D02*
X110916666Y-94686666D01*
X110869047Y-94829523D01*
X110773809Y-94924761D01*
X110630952Y-94972380D01*
X110535714Y-94972380D01*
X111345238Y-94067619D02*
X111392857Y-94020000D01*
X111488095Y-93972380D01*
X111726190Y-93972380D01*
X111821428Y-94020000D01*
X111869047Y-94067619D01*
X111916666Y-94162857D01*
X111916666Y-94258095D01*
X111869047Y-94400952D01*
X111297619Y-94972380D01*
X111916666Y-94972380D01*
%TO.C,D9*%
X129324404Y-114052380D02*
X129324404Y-113052380D01*
X129562500Y-113052380D01*
X129705357Y-113100000D01*
X129800595Y-113195238D01*
X129848214Y-113290476D01*
X129895833Y-113480952D01*
X129895833Y-113623809D01*
X129848214Y-113814285D01*
X129800595Y-113909523D01*
X129705357Y-114004761D01*
X129562500Y-114052380D01*
X129324404Y-114052380D01*
X130372023Y-114052380D02*
X130562500Y-114052380D01*
X130657738Y-114004761D01*
X130705357Y-113957142D01*
X130800595Y-113814285D01*
X130848214Y-113623809D01*
X130848214Y-113242857D01*
X130800595Y-113147619D01*
X130752976Y-113100000D01*
X130657738Y-113052380D01*
X130467261Y-113052380D01*
X130372023Y-113100000D01*
X130324404Y-113147619D01*
X130276785Y-113242857D01*
X130276785Y-113480952D01*
X130324404Y-113576190D01*
X130372023Y-113623809D01*
X130467261Y-113671428D01*
X130657738Y-113671428D01*
X130752976Y-113623809D01*
X130800595Y-113576190D01*
X130848214Y-113480952D01*
D10*
%TO.C,U1*%
X98995000Y-139045000D02*
X100945000Y-139045000D01*
X98995000Y-139045000D02*
X95545000Y-139045000D01*
X98995000Y-144165000D02*
X100945000Y-144165000D01*
X98995000Y-144165000D02*
X97045000Y-144165000D01*
%TO.C,U3*%
X121300000Y-140340000D02*
X123250000Y-140340000D01*
X121300000Y-145460000D02*
X123250000Y-145460000D01*
X121300000Y-140340000D02*
X117850000Y-140340000D01*
X121300000Y-145460000D02*
X119350000Y-145460000D01*
%TO.C,U2*%
X115800000Y-116160000D02*
X113850000Y-116160000D01*
X115800000Y-111040000D02*
X113850000Y-111040000D01*
X115800000Y-116160000D02*
X119250000Y-116160000D01*
X115800000Y-111040000D02*
X117750000Y-111040000D01*
%TO.C,R9*%
X109990000Y-113710436D02*
X109990000Y-115164564D01*
X111810000Y-113710436D02*
X111810000Y-115164564D01*
%TO.C,R6*%
X109510000Y-115127064D02*
X109510000Y-113672936D01*
X107690000Y-115127064D02*
X107690000Y-113672936D01*
%TO.C,C7*%
X99618748Y-138705000D02*
X101041252Y-138705000D01*
X99618748Y-136885000D02*
X101041252Y-136885000D01*
%TO.C,C8*%
X108990000Y-110498752D02*
X108990000Y-109076248D01*
X110810000Y-110498752D02*
X110810000Y-109076248D01*
%TO.C,C13*%
X116375698Y-153640000D02*
X116375698Y-155297000D01*
X115695698Y-149291000D02*
X115695698Y-151560000D01*
X114135698Y-148606000D02*
X114135698Y-156594000D01*
X113294698Y-148520000D02*
X113294698Y-156680000D01*
X114335698Y-148653000D02*
X114335698Y-156547000D01*
X116015698Y-149545000D02*
X116015698Y-151560000D01*
X116175698Y-153640000D02*
X116175698Y-155507000D01*
X116855698Y-150566000D02*
X116855698Y-154634000D01*
X115655698Y-149262000D02*
X115655698Y-151560000D01*
X114855698Y-153640000D02*
X114855698Y-156374000D01*
X117335698Y-151832000D02*
X117335698Y-153368000D01*
X115375698Y-149083000D02*
X115375698Y-151560000D01*
X115535698Y-149182000D02*
X115535698Y-151560000D01*
X109285000Y-149885000D02*
X109285000Y-150685000D01*
X114735698Y-148779000D02*
X114735698Y-156421000D01*
X114815698Y-153640000D02*
X114815698Y-156390000D01*
X115135698Y-153640000D02*
X115135698Y-156247000D01*
X113494698Y-148524000D02*
X113494698Y-156676000D01*
X115215698Y-148994000D02*
X115215698Y-151560000D01*
X115175698Y-153640000D02*
X115175698Y-156227000D01*
X114095698Y-148598000D02*
X114095698Y-156602000D01*
X116015698Y-153640000D02*
X116015698Y-155655000D01*
X115575698Y-153640000D02*
X115575698Y-155992000D01*
X116055698Y-149581000D02*
X116055698Y-151560000D01*
X116815698Y-153640000D02*
X116815698Y-154702000D01*
X116655698Y-153640000D02*
X116655698Y-154945000D01*
X115895698Y-153640000D02*
X115895698Y-155756000D01*
X113534698Y-148526000D02*
X113534698Y-156674000D01*
X114775698Y-153640000D02*
X114775698Y-156405000D01*
X113614698Y-148532000D02*
X113614698Y-156668000D01*
X117215698Y-151371000D02*
X117215698Y-153829000D01*
X113854698Y-148558000D02*
X113854698Y-156642000D01*
X113934698Y-148570000D02*
X113934698Y-156630000D01*
X115015698Y-148896000D02*
X115015698Y-151560000D01*
X113334698Y-148520000D02*
X113334698Y-156680000D01*
X113734698Y-148543000D02*
X113734698Y-156657000D01*
X116535698Y-153640000D02*
X116535698Y-155105000D01*
X116495698Y-153640000D02*
X116495698Y-155156000D01*
X115415698Y-149107000D02*
X115415698Y-151560000D01*
X115295698Y-149038000D02*
X115295698Y-151560000D01*
X115415698Y-153640000D02*
X115415698Y-156093000D01*
X115775698Y-149350000D02*
X115775698Y-151560000D01*
X116975698Y-150787000D02*
X116975698Y-154413000D01*
X117255698Y-151502000D02*
X117255698Y-153698000D01*
X115815698Y-153640000D02*
X115815698Y-155820000D01*
X115815698Y-149380000D02*
X115815698Y-151560000D01*
X117095698Y-151048000D02*
X117095698Y-154152000D01*
X114535698Y-148711000D02*
X114535698Y-156489000D01*
X117015698Y-150869000D02*
X117015698Y-154331000D01*
X114375698Y-148664000D02*
X114375698Y-156536000D01*
X114895698Y-148843000D02*
X114895698Y-151560000D01*
X116335698Y-153640000D02*
X116335698Y-155341000D01*
X113374698Y-148520000D02*
X113374698Y-156680000D01*
X115495698Y-153640000D02*
X115495698Y-156044000D01*
X116295698Y-153640000D02*
X116295698Y-155384000D01*
X115935698Y-153640000D02*
X115935698Y-155724000D01*
X114055698Y-148590000D02*
X114055698Y-156610000D01*
X117295698Y-151652000D02*
X117295698Y-153548000D01*
X116695698Y-150313000D02*
X116695698Y-151560000D01*
X116455698Y-153640000D02*
X116455698Y-155204000D01*
X113694698Y-148539000D02*
X113694698Y-156661000D01*
X116775698Y-153640000D02*
X116775698Y-154766000D01*
X115735698Y-149320000D02*
X115735698Y-151560000D01*
X116375698Y-149903000D02*
X116375698Y-151560000D01*
X114855698Y-148826000D02*
X114855698Y-151560000D01*
X116895698Y-150636000D02*
X116895698Y-154564000D01*
X115335698Y-153640000D02*
X115335698Y-156140000D01*
X115935698Y-149476000D02*
X115935698Y-151560000D01*
X114655698Y-148750000D02*
X114655698Y-156450000D01*
X115695698Y-153640000D02*
X115695698Y-155909000D01*
X115375698Y-153640000D02*
X115375698Y-156117000D01*
X115055698Y-148914000D02*
X115055698Y-151560000D01*
X117375698Y-152067000D02*
X117375698Y-153133000D01*
X114935698Y-153640000D02*
X114935698Y-156340000D01*
X116295698Y-149816000D02*
X116295698Y-151560000D01*
X116535698Y-150095000D02*
X116535698Y-151560000D01*
X114255698Y-148633000D02*
X114255698Y-156567000D01*
X114215698Y-148624000D02*
X114215698Y-156576000D01*
X116935698Y-150710000D02*
X116935698Y-154490000D01*
X116455698Y-149996000D02*
X116455698Y-151560000D01*
X115135698Y-148953000D02*
X115135698Y-151560000D01*
X114895698Y-153640000D02*
X114895698Y-156357000D01*
X114695698Y-148765000D02*
X114695698Y-156435000D01*
X115855698Y-149411000D02*
X115855698Y-151560000D01*
X115095698Y-153640000D02*
X115095698Y-156266000D01*
X115855698Y-153640000D02*
X115855698Y-155789000D01*
X113774698Y-148548000D02*
X113774698Y-156652000D01*
X115615698Y-149235000D02*
X115615698Y-151560000D01*
X114775698Y-148795000D02*
X114775698Y-151560000D01*
X115455698Y-149131000D02*
X115455698Y-151560000D01*
X115015698Y-153640000D02*
X115015698Y-156304000D01*
X113414698Y-148521000D02*
X113414698Y-156679000D01*
X115215698Y-153640000D02*
X115215698Y-156206000D01*
X117055698Y-150955000D02*
X117055698Y-154245000D01*
X114975698Y-148878000D02*
X114975698Y-151560000D01*
X115615698Y-153640000D02*
X115615698Y-155965000D01*
X114455698Y-148686000D02*
X114455698Y-156514000D01*
X116495698Y-150044000D02*
X116495698Y-151560000D01*
X116095698Y-149617000D02*
X116095698Y-151560000D01*
X113894698Y-148563000D02*
X113894698Y-156637000D01*
X114295698Y-148643000D02*
X114295698Y-156557000D01*
X116815698Y-150498000D02*
X116815698Y-151560000D01*
X116655698Y-150255000D02*
X116655698Y-151560000D01*
X116615698Y-153640000D02*
X116615698Y-155000000D01*
X115535698Y-153640000D02*
X115535698Y-156018000D01*
X116095698Y-153640000D02*
X116095698Y-155583000D01*
X116055698Y-153640000D02*
X116055698Y-155619000D01*
X116735698Y-153640000D02*
X116735698Y-154828000D01*
X115335698Y-149060000D02*
X115335698Y-151560000D01*
X114615698Y-148737000D02*
X114615698Y-156463000D01*
X115255698Y-153640000D02*
X115255698Y-156184000D01*
X116175698Y-149693000D02*
X116175698Y-151560000D01*
X114175698Y-148615000D02*
X114175698Y-156585000D01*
X115095698Y-148934000D02*
X115095698Y-151560000D01*
X115895698Y-149444000D02*
X115895698Y-151560000D01*
X116335698Y-149859000D02*
X116335698Y-151560000D01*
X115975698Y-153640000D02*
X115975698Y-155690000D01*
X115655698Y-153640000D02*
X115655698Y-155938000D01*
X113814698Y-148552000D02*
X113814698Y-156648000D01*
X115775698Y-153640000D02*
X115775698Y-155850000D01*
X116575698Y-150146000D02*
X116575698Y-151560000D01*
X116775698Y-150434000D02*
X116775698Y-151560000D01*
X117175698Y-151254000D02*
X117175698Y-153946000D01*
X116215698Y-153640000D02*
X116215698Y-155467000D01*
X115255698Y-149016000D02*
X115255698Y-151560000D01*
X114415698Y-148675000D02*
X114415698Y-156525000D01*
X114975698Y-153640000D02*
X114975698Y-156322000D01*
X116135698Y-149655000D02*
X116135698Y-151560000D01*
X114575698Y-148723000D02*
X114575698Y-156477000D01*
X116415698Y-149949000D02*
X116415698Y-151560000D01*
X115175698Y-148973000D02*
X115175698Y-151560000D01*
X117135698Y-151147000D02*
X117135698Y-154053000D01*
X116695698Y-153640000D02*
X116695698Y-154887000D01*
X115455698Y-153640000D02*
X115455698Y-156069000D01*
X116255698Y-153640000D02*
X116255698Y-155426000D01*
X113654698Y-148535000D02*
X113654698Y-156665000D01*
X116735698Y-150372000D02*
X116735698Y-151560000D01*
X116215698Y-149733000D02*
X116215698Y-151560000D01*
X114015698Y-148583000D02*
X114015698Y-156617000D01*
X115735698Y-153640000D02*
X115735698Y-155880000D01*
X115055698Y-153640000D02*
X115055698Y-156286000D01*
X116415698Y-153640000D02*
X116415698Y-155251000D01*
X108885000Y-150285000D02*
X109685000Y-150285000D01*
X116575698Y-153640000D02*
X116575698Y-155054000D01*
X113574698Y-148529000D02*
X113574698Y-156671000D01*
X116255698Y-149774000D02*
X116255698Y-151560000D01*
X114935698Y-148860000D02*
X114935698Y-151560000D01*
X116135698Y-153640000D02*
X116135698Y-155545000D01*
X115495698Y-149156000D02*
X115495698Y-151560000D01*
X115575698Y-149208000D02*
X115575698Y-151560000D01*
X113974698Y-148576000D02*
X113974698Y-156624000D01*
X116615698Y-150200000D02*
X116615698Y-151560000D01*
X115295698Y-153640000D02*
X115295698Y-156162000D01*
X114495698Y-148698000D02*
X114495698Y-156502000D01*
X114815698Y-148810000D02*
X114815698Y-151560000D01*
X113454698Y-148523000D02*
X113454698Y-156677000D01*
X115975698Y-149510000D02*
X115975698Y-151560000D01*
X117414698Y-152600000D02*
G75*
G03*
X117414698Y-152600000I-4120000J0D01*
G01*
%TO.C,C15*%
X87701000Y-99017000D02*
X87701000Y-100960000D01*
X88061000Y-103040000D02*
X88061000Y-104604000D01*
X85460000Y-97958000D02*
X85460000Y-106042000D01*
X85020000Y-97921000D02*
X85020000Y-106079000D01*
X87581000Y-103040000D02*
X87581000Y-105090000D01*
X80890302Y-99285000D02*
X80890302Y-100085000D01*
X87861000Y-103040000D02*
X87861000Y-104826000D01*
X87581000Y-98910000D02*
X87581000Y-100960000D01*
X86901000Y-103040000D02*
X86901000Y-105562000D01*
X88941000Y-101232000D02*
X88941000Y-102768000D01*
X87261000Y-98662000D02*
X87261000Y-100960000D01*
X86981000Y-103040000D02*
X86981000Y-105517000D01*
X84940000Y-97920000D02*
X84940000Y-106080000D01*
X87141000Y-98582000D02*
X87141000Y-100960000D01*
X85260000Y-97935000D02*
X85260000Y-106065000D01*
X87821000Y-103040000D02*
X87821000Y-104867000D01*
X87021000Y-103040000D02*
X87021000Y-105493000D01*
X87301000Y-103040000D02*
X87301000Y-105309000D01*
X88261000Y-103040000D02*
X88261000Y-104345000D01*
X87741000Y-99055000D02*
X87741000Y-100960000D01*
X85781000Y-98015000D02*
X85781000Y-105985000D01*
X86261000Y-98150000D02*
X86261000Y-105850000D01*
X86901000Y-98438000D02*
X86901000Y-100960000D01*
X86421000Y-103040000D02*
X86421000Y-105790000D01*
X86061000Y-98086000D02*
X86061000Y-105914000D01*
X86501000Y-98243000D02*
X86501000Y-100960000D01*
X88181000Y-99546000D02*
X88181000Y-100960000D01*
X87421000Y-103040000D02*
X87421000Y-105220000D01*
X87421000Y-98780000D02*
X87421000Y-100960000D01*
X86541000Y-98260000D02*
X86541000Y-100960000D01*
X86421000Y-98210000D02*
X86421000Y-100960000D01*
X86821000Y-98394000D02*
X86821000Y-100960000D01*
X88501000Y-100036000D02*
X88501000Y-103964000D01*
X80490302Y-99685000D02*
X81290302Y-99685000D01*
X86461000Y-98226000D02*
X86461000Y-100960000D01*
X88821000Y-100771000D02*
X88821000Y-103229000D01*
X87461000Y-98811000D02*
X87461000Y-100960000D01*
X88181000Y-103040000D02*
X88181000Y-104454000D01*
X88261000Y-99655000D02*
X88261000Y-100960000D01*
X88701000Y-100448000D02*
X88701000Y-103552000D01*
X86661000Y-98314000D02*
X86661000Y-100960000D01*
X87061000Y-98531000D02*
X87061000Y-100960000D01*
X85220000Y-97932000D02*
X85220000Y-106068000D01*
X87501000Y-98844000D02*
X87501000Y-100960000D01*
X87261000Y-103040000D02*
X87261000Y-105338000D01*
X86661000Y-103040000D02*
X86661000Y-105686000D01*
X85420000Y-97952000D02*
X85420000Y-106048000D01*
X85701000Y-97998000D02*
X85701000Y-106002000D01*
X87341000Y-98720000D02*
X87341000Y-100960000D01*
X88861000Y-100902000D02*
X88861000Y-103098000D01*
X85060000Y-97923000D02*
X85060000Y-106077000D01*
X88741000Y-100547000D02*
X88741000Y-103453000D01*
X88381000Y-99834000D02*
X88381000Y-100960000D01*
X86501000Y-103040000D02*
X86501000Y-105757000D01*
X87741000Y-103040000D02*
X87741000Y-104945000D01*
X86781000Y-98373000D02*
X86781000Y-100960000D01*
X88621000Y-100269000D02*
X88621000Y-103731000D01*
X88061000Y-99396000D02*
X88061000Y-100960000D01*
X87901000Y-99216000D02*
X87901000Y-100960000D01*
X85821000Y-98024000D02*
X85821000Y-105976000D01*
X87861000Y-99174000D02*
X87861000Y-100960000D01*
X85741000Y-98006000D02*
X85741000Y-105994000D01*
X86301000Y-98165000D02*
X86301000Y-105835000D01*
X88341000Y-103040000D02*
X88341000Y-104228000D01*
X85941000Y-98053000D02*
X85941000Y-105947000D01*
X87021000Y-98507000D02*
X87021000Y-100960000D01*
X88301000Y-103040000D02*
X88301000Y-104287000D01*
X88101000Y-99444000D02*
X88101000Y-100960000D01*
X85861000Y-98033000D02*
X85861000Y-105967000D01*
X86621000Y-98296000D02*
X86621000Y-100960000D01*
X88021000Y-99349000D02*
X88021000Y-100960000D01*
X85380000Y-97948000D02*
X85380000Y-106052000D01*
X86541000Y-103040000D02*
X86541000Y-105740000D01*
X87381000Y-103040000D02*
X87381000Y-105250000D01*
X87901000Y-103040000D02*
X87901000Y-104784000D01*
X87141000Y-103040000D02*
X87141000Y-105418000D01*
X86741000Y-103040000D02*
X86741000Y-105647000D01*
X86341000Y-98179000D02*
X86341000Y-105821000D01*
X87381000Y-98750000D02*
X87381000Y-100960000D01*
X88981000Y-101467000D02*
X88981000Y-102533000D01*
X85500000Y-97963000D02*
X85500000Y-106037000D01*
X87661000Y-103040000D02*
X87661000Y-105019000D01*
X86741000Y-98353000D02*
X86741000Y-100960000D01*
X86701000Y-98334000D02*
X86701000Y-100960000D01*
X86781000Y-103040000D02*
X86781000Y-105627000D01*
X87541000Y-103040000D02*
X87541000Y-105124000D01*
X85300000Y-97939000D02*
X85300000Y-106061000D01*
X86221000Y-98137000D02*
X86221000Y-105863000D01*
X88221000Y-99600000D02*
X88221000Y-100960000D01*
X85981000Y-98064000D02*
X85981000Y-105936000D01*
X88781000Y-100654000D02*
X88781000Y-103346000D01*
X86981000Y-98483000D02*
X86981000Y-100960000D01*
X88541000Y-100110000D02*
X88541000Y-103890000D01*
X87981000Y-99303000D02*
X87981000Y-100960000D01*
X88341000Y-99772000D02*
X88341000Y-100960000D01*
X86621000Y-103040000D02*
X86621000Y-105704000D01*
X87101000Y-103040000D02*
X87101000Y-105444000D01*
X86101000Y-98098000D02*
X86101000Y-105902000D01*
X85100000Y-97924000D02*
X85100000Y-106076000D01*
X88221000Y-103040000D02*
X88221000Y-104400000D01*
X87981000Y-103040000D02*
X87981000Y-104697000D01*
X87461000Y-103040000D02*
X87461000Y-105189000D01*
X86581000Y-98278000D02*
X86581000Y-100960000D01*
X88101000Y-103040000D02*
X88101000Y-104556000D01*
X88421000Y-99898000D02*
X88421000Y-100960000D01*
X87061000Y-103040000D02*
X87061000Y-105469000D01*
X86861000Y-98416000D02*
X86861000Y-100960000D01*
X87181000Y-98608000D02*
X87181000Y-100960000D01*
X86461000Y-103040000D02*
X86461000Y-105774000D01*
X86141000Y-98111000D02*
X86141000Y-105889000D01*
X87781000Y-103040000D02*
X87781000Y-104907000D01*
X86381000Y-103040000D02*
X86381000Y-105805000D01*
X86941000Y-103040000D02*
X86941000Y-105540000D01*
X85621000Y-97983000D02*
X85621000Y-106017000D01*
X88661000Y-100355000D02*
X88661000Y-103645000D01*
X85580000Y-97976000D02*
X85580000Y-106024000D01*
X88141000Y-99495000D02*
X88141000Y-100960000D01*
X87341000Y-103040000D02*
X87341000Y-105280000D01*
X87501000Y-103040000D02*
X87501000Y-105156000D01*
X85901000Y-98043000D02*
X85901000Y-105957000D01*
X86941000Y-98460000D02*
X86941000Y-100960000D01*
X87221000Y-103040000D02*
X87221000Y-105365000D01*
X87821000Y-99133000D02*
X87821000Y-100960000D01*
X86181000Y-98123000D02*
X86181000Y-105877000D01*
X88901000Y-101052000D02*
X88901000Y-102948000D01*
X88581000Y-100187000D02*
X88581000Y-103813000D01*
X87621000Y-98945000D02*
X87621000Y-100960000D01*
X88021000Y-103040000D02*
X88021000Y-104651000D01*
X87101000Y-98556000D02*
X87101000Y-100960000D01*
X87941000Y-103040000D02*
X87941000Y-104741000D01*
X84900000Y-97920000D02*
X84900000Y-106080000D01*
X87781000Y-99093000D02*
X87781000Y-100960000D01*
X87701000Y-103040000D02*
X87701000Y-104983000D01*
X87661000Y-98981000D02*
X87661000Y-100960000D01*
X85540000Y-97970000D02*
X85540000Y-106030000D01*
X84980000Y-97920000D02*
X84980000Y-106080000D01*
X87621000Y-103040000D02*
X87621000Y-105055000D01*
X85661000Y-97990000D02*
X85661000Y-106010000D01*
X88381000Y-103040000D02*
X88381000Y-104166000D01*
X88301000Y-99713000D02*
X88301000Y-100960000D01*
X85340000Y-97943000D02*
X85340000Y-106057000D01*
X87301000Y-98691000D02*
X87301000Y-100960000D01*
X85140000Y-97926000D02*
X85140000Y-106074000D01*
X85180000Y-97929000D02*
X85180000Y-106071000D01*
X86021000Y-98075000D02*
X86021000Y-105925000D01*
X86861000Y-103040000D02*
X86861000Y-105584000D01*
X88421000Y-103040000D02*
X88421000Y-104102000D01*
X87221000Y-98635000D02*
X87221000Y-100960000D01*
X87541000Y-98876000D02*
X87541000Y-100960000D01*
X86381000Y-98195000D02*
X86381000Y-100960000D01*
X87941000Y-99259000D02*
X87941000Y-100960000D01*
X86581000Y-103040000D02*
X86581000Y-105722000D01*
X87181000Y-103040000D02*
X87181000Y-105392000D01*
X88141000Y-103040000D02*
X88141000Y-104505000D01*
X86701000Y-103040000D02*
X86701000Y-105666000D01*
X88461000Y-99966000D02*
X88461000Y-104034000D01*
X86821000Y-103040000D02*
X86821000Y-105606000D01*
X89020000Y-102000000D02*
G75*
G03*
X89020000Y-102000000I-4120000J0D01*
G01*
%TO.C,C29*%
X128958748Y-119495000D02*
X130381252Y-119495000D01*
X128958748Y-121315000D02*
X130381252Y-121315000D01*
%TO.C,C35*%
X68940000Y-148236252D02*
X68940000Y-146813748D01*
X70760000Y-148236252D02*
X70760000Y-146813748D01*
%TO.C,C37*%
X66400000Y-148236252D02*
X66400000Y-146813748D01*
X68220000Y-148236252D02*
X68220000Y-146813748D01*
%TO.C,C42*%
X75918748Y-130535000D02*
X77341252Y-130535000D01*
X75918748Y-132355000D02*
X77341252Y-132355000D01*
%TO.C,J1*%
X117061411Y-91017337D02*
G75*
G03*
X117075000Y-94480000I4763588J-1712664D01*
G01*
X123537663Y-87966411D02*
G75*
G03*
X120075000Y-87980000I-1712664J-4763588D01*
G01*
X126588589Y-94442663D02*
G75*
G03*
X126575000Y-90980000I-4763589J1712663D01*
G01*
X120112337Y-97493589D02*
G75*
G03*
X123575000Y-97480000I1712663J4763589D01*
G01*
%TO.C,J3*%
X54788589Y-135337663D02*
G75*
G03*
X54775000Y-131875000I-4763589J1712663D01*
G01*
X48312337Y-138388589D02*
G75*
G03*
X51775000Y-138375000I1712663J4763589D01*
G01*
X45261411Y-131912337D02*
G75*
G03*
X45275000Y-135375000I4763588J-1712664D01*
G01*
X51737663Y-128861411D02*
G75*
G03*
X48275000Y-128875000I-1712664J-4763588D01*
G01*
%TO.C,R3*%
X106590000Y-110527064D02*
X106590000Y-109072936D01*
X108410000Y-110527064D02*
X108410000Y-109072936D01*
%TO.C,R4*%
X91552500Y-141177742D02*
X91552500Y-141652258D01*
X92597500Y-141177742D02*
X92597500Y-141652258D01*
%TO.C,R5*%
X93457500Y-141177742D02*
X93457500Y-141652258D01*
X94502500Y-141177742D02*
X94502500Y-141652258D01*
%TO.C,R12*%
X114610000Y-138164564D02*
X114610000Y-136710436D01*
X112790000Y-138164564D02*
X112790000Y-136710436D01*
%TO.C,C41*%
X77341252Y-129815000D02*
X75918748Y-129815000D01*
X77341252Y-127995000D02*
X75918748Y-127995000D01*
%TO.C,D1*%
X80110000Y-96705000D02*
X76025000Y-96705000D01*
X80110000Y-98875000D02*
X80110000Y-96705000D01*
X76025000Y-98875000D02*
X80110000Y-98875000D01*
%TO.C,D2*%
X60630000Y-98875000D02*
X64715000Y-98875000D01*
X64715000Y-98875000D02*
X64715000Y-96705000D01*
X64715000Y-96705000D02*
X60630000Y-96705000D01*
%TO.C,D4*%
X72260000Y-103260000D02*
X72260000Y-107560000D01*
X72260000Y-103260000D02*
X77960000Y-103260000D01*
X72260000Y-107560000D02*
X77960000Y-107560000D01*
%TO.C,D5*%
X77645000Y-110675000D02*
X73560000Y-110675000D01*
X73560000Y-110675000D02*
X73560000Y-112845000D01*
X73560000Y-112845000D02*
X77645000Y-112845000D01*
%TO.C,D6*%
X78530000Y-108135000D02*
X74445000Y-108135000D01*
X74445000Y-110305000D02*
X78530000Y-110305000D01*
X78530000Y-110305000D02*
X78530000Y-108135000D01*
%TO.C,R23*%
X73202064Y-96880000D02*
X71747936Y-96880000D01*
X73202064Y-98700000D02*
X71747936Y-98700000D01*
%TO.C,R24*%
X68229564Y-96880000D02*
X66775436Y-96880000D01*
X68229564Y-98700000D02*
X66775436Y-98700000D01*
%TO.C,R25*%
X71404564Y-110850000D02*
X69950436Y-110850000D01*
X71404564Y-112670000D02*
X69950436Y-112670000D01*
%TO.C,R26*%
X69950436Y-110130000D02*
X71404564Y-110130000D01*
X69950436Y-108310000D02*
X71404564Y-108310000D01*
%TO.C,J6*%
X64140000Y-93610000D02*
X61440000Y-93610000D01*
X61440000Y-78910000D02*
X70640000Y-78910000D01*
X70640000Y-93610000D02*
X68040000Y-93610000D01*
X61440000Y-93610000D02*
X61440000Y-91710000D01*
X70840000Y-92760000D02*
X70840000Y-93810000D01*
X69790000Y-93810000D02*
X70840000Y-93810000D01*
X61440000Y-87710000D02*
X61440000Y-78910000D01*
X70640000Y-78910000D02*
X70640000Y-93610000D01*
%TO.C,J5*%
X83380000Y-94270000D02*
X84430000Y-94270000D01*
X77730000Y-94070000D02*
X75030000Y-94070000D01*
X75030000Y-94070000D02*
X75030000Y-92170000D01*
X75030000Y-79370000D02*
X84230000Y-79370000D01*
X75030000Y-88170000D02*
X75030000Y-79370000D01*
X84430000Y-93220000D02*
X84430000Y-94270000D01*
X84230000Y-79370000D02*
X84230000Y-94070000D01*
X84230000Y-94070000D02*
X81630000Y-94070000D01*
D13*
%TO.C,J7*%
X55800000Y-118110000D02*
X45200000Y-118110000D01*
X55800000Y-102870000D02*
X55800000Y-118110000D01*
X45200000Y-102870000D02*
X55800000Y-102870000D01*
X45200000Y-118110000D02*
X45200000Y-102870000D01*
D14*
X56900000Y-105410000D02*
G75*
G03*
X56900000Y-105410000I-100000J0D01*
G01*
D10*
%TO.C,D3*%
X71950000Y-117950000D02*
X66250000Y-117950000D01*
X71950000Y-113650000D02*
X66250000Y-113650000D01*
X71950000Y-117950000D02*
X71950000Y-113650000D01*
%TO.C,C30*%
X128958748Y-122035000D02*
X130381252Y-122035000D01*
X128958748Y-123855000D02*
X130381252Y-123855000D01*
%TO.C,C20*%
X99413748Y-144505000D02*
X100836252Y-144505000D01*
X99413748Y-146325000D02*
X100836252Y-146325000D01*
%TO.C,R11*%
X110250000Y-136710436D02*
X110250000Y-138164564D01*
X112070000Y-136710436D02*
X112070000Y-138164564D01*
%TO.C,R7*%
X123490000Y-113035436D02*
X123490000Y-114489564D01*
X125310000Y-113035436D02*
X125310000Y-114489564D01*
%TO.C,C32*%
X59613748Y-147595000D02*
X61036252Y-147595000D01*
X59613748Y-145775000D02*
X61036252Y-145775000D01*
%TO.C,C31*%
X61036252Y-150135000D02*
X59613748Y-150135000D01*
X61036252Y-148315000D02*
X59613748Y-148315000D01*
%TO.C,C34*%
X60043748Y-129815000D02*
X61466252Y-129815000D01*
X60043748Y-127995000D02*
X61466252Y-127995000D01*
%TO.C,C33*%
X61466252Y-130535000D02*
X60043748Y-130535000D01*
X61466252Y-132355000D02*
X60043748Y-132355000D01*
%TO.C,L8*%
X70140000Y-133284970D02*
G75*
G03*
X70140000Y-125875030I-1560001J3704970D01*
G01*
X67020000Y-125875030D02*
G75*
G03*
X67020000Y-133284970I1560001J-3704970D01*
G01*
%TO.C,L7*%
X67020000Y-136035030D02*
G75*
G03*
X67020000Y-143444970I1560001J-3704970D01*
G01*
X70140000Y-143444970D02*
G75*
G03*
X70140000Y-136035030I-1560001J3704970D01*
G01*
%TO.C,C39*%
X77581554Y-148830000D02*
X76159050Y-148830000D01*
X77581554Y-147010000D02*
X76159050Y-147010000D01*
%TO.C,TP1*%
X118300000Y-152300000D02*
X119700000Y-152300000D01*
X119700000Y-152300000D02*
X119700000Y-153700000D01*
X119700000Y-153700000D02*
X118300000Y-153700000D01*
X118300000Y-153700000D02*
X118300000Y-152300000D01*
%TO.C,TP2*%
X102700000Y-135700000D02*
X101300000Y-135700000D01*
X101300000Y-134300000D02*
X102700000Y-134300000D01*
X101300000Y-135700000D02*
X101300000Y-134300000D01*
X102700000Y-134300000D02*
X102700000Y-135700000D01*
%TO.C,TP3*%
X121700000Y-107500000D02*
X120300000Y-107500000D01*
X121700000Y-106100000D02*
X121700000Y-107500000D01*
X120300000Y-106100000D02*
X121700000Y-106100000D01*
X120300000Y-107500000D02*
X120300000Y-106100000D01*
%TO.C,TP4*%
X114300000Y-106100000D02*
X114300000Y-107500000D01*
X112900000Y-106100000D02*
X114300000Y-106100000D01*
X112900000Y-107500000D02*
X112900000Y-106100000D01*
X114300000Y-107500000D02*
X112900000Y-107500000D01*
%TO.C,TP6*%
X107415000Y-136295000D02*
X107415000Y-137695000D01*
X106015000Y-137695000D02*
X106015000Y-136295000D01*
X106015000Y-136295000D02*
X107415000Y-136295000D01*
X107415000Y-137695000D02*
X106015000Y-137695000D01*
%TO.C,TP9*%
X122000000Y-148500000D02*
X122000000Y-147100000D01*
X123400000Y-147100000D02*
X123400000Y-148500000D01*
X123400000Y-148500000D02*
X122000000Y-148500000D01*
X122000000Y-147100000D02*
X123400000Y-147100000D01*
%TO.C,C21*%
X114653748Y-145140000D02*
X116076252Y-145140000D01*
X114653748Y-146960000D02*
X116076252Y-146960000D01*
%TO.C,C23*%
X116076252Y-141880000D02*
X114653748Y-141880000D01*
X116076252Y-140060000D02*
X114653748Y-140060000D01*
%TO.C,R13*%
X116072064Y-144420000D02*
X114617936Y-144420000D01*
X116072064Y-142600000D02*
X114617936Y-142600000D01*
%TO.C,C17*%
X110996252Y-140060000D02*
X109573748Y-140060000D01*
X110996252Y-141880000D02*
X109573748Y-141880000D01*
%TO.C,R8*%
X106329564Y-141880000D02*
X104875436Y-141880000D01*
X106329564Y-140060000D02*
X104875436Y-140060000D01*
%TO.C,C26*%
X132355000Y-146966252D02*
X132355000Y-145543748D01*
X130535000Y-146966252D02*
X130535000Y-145543748D01*
%TO.C,C25*%
X129815000Y-146966252D02*
X129815000Y-145543748D01*
X127995000Y-146966252D02*
X127995000Y-145543748D01*
%TO.C,C11*%
X120210000Y-148711252D02*
X120210000Y-147288748D01*
X118390000Y-148711252D02*
X118390000Y-147288748D01*
%TO.C,C12*%
X119098748Y-139340000D02*
X120521252Y-139340000D01*
X119098748Y-137520000D02*
X120521252Y-137520000D01*
%TO.C,C28*%
X123158748Y-133255000D02*
X124581252Y-133255000D01*
X123158748Y-131435000D02*
X124581252Y-131435000D01*
%TO.C,C27*%
X123158748Y-133975000D02*
X124581252Y-133975000D01*
X123158748Y-135795000D02*
X124581252Y-135795000D01*
%TO.C,R20*%
X125490000Y-143372936D02*
X125490000Y-144827064D01*
X127310000Y-143372936D02*
X127310000Y-144827064D01*
%TO.C,L4*%
X128615000Y-125795030D02*
G75*
G03*
X128615000Y-133204970I1560001J-3704970D01*
G01*
X131735000Y-133204970D02*
G75*
G03*
X131735000Y-125795030I-1560001J3704970D01*
G01*
%TO.C,L3*%
X131735000Y-142094970D02*
G75*
G03*
X131735000Y-134685030I-1560001J3704970D01*
G01*
X128615000Y-134685030D02*
G75*
G03*
X128615000Y-142094970I1560001J-3704970D01*
G01*
%TO.C,J4*%
X51737663Y-146061411D02*
G75*
G03*
X48275000Y-146075000I-1712664J-4763588D01*
G01*
X54788589Y-152537663D02*
G75*
G03*
X54775000Y-149075000I-4763589J1712663D01*
G01*
X45261411Y-149112337D02*
G75*
G03*
X45275000Y-152575000I4763588J-1712664D01*
G01*
X48312337Y-155588589D02*
G75*
G03*
X51775000Y-155575000I1712663J4763589D01*
G01*
%TO.C,C40*%
X76159050Y-149585000D02*
X77581554Y-149585000D01*
X76159050Y-151405000D02*
X77581554Y-151405000D01*
%TO.C,C5*%
X122310000Y-113063748D02*
X122310000Y-114486252D01*
X120490000Y-113063748D02*
X120490000Y-114486252D01*
%TO.C,R27*%
X116105436Y-108645000D02*
X117559564Y-108645000D01*
X116105436Y-110465000D02*
X117559564Y-110465000D01*
%TO.C,U6*%
X82460000Y-113530000D02*
X82460000Y-118171000D01*
X72220000Y-118171000D02*
X82460000Y-118171000D01*
X72220000Y-113530000D02*
X82460000Y-113530000D01*
X79191000Y-113530000D02*
X79191000Y-115040000D01*
X72220000Y-115040000D02*
X82460000Y-115040000D01*
X75490000Y-113530000D02*
X75490000Y-115040000D01*
X72220000Y-113530000D02*
X72220000Y-118171000D01*
%TO.C,R16*%
X120090000Y-102989564D02*
X120090000Y-101535436D01*
X121910000Y-102989564D02*
X121910000Y-101535436D01*
%TO.C,R17*%
X112390000Y-102989564D02*
X112390000Y-101535436D01*
X114210000Y-102989564D02*
X114210000Y-101535436D01*
%TO.C,F2*%
X91510000Y-109197936D02*
X91510000Y-110402064D01*
X89690000Y-109197936D02*
X89690000Y-110402064D01*
D11*
%TO.C,TP8*%
X45400000Y-123700000D02*
X45400000Y-119500000D01*
X45400000Y-119500000D02*
X47800000Y-119500000D01*
X47800000Y-123700000D02*
X45400000Y-123700000D01*
X47800000Y-119500000D02*
X47800000Y-123700000D01*
D10*
%TO.C,U5*%
X83020000Y-113530000D02*
X83020000Y-118171000D01*
X83020000Y-115040000D02*
X93260000Y-115040000D01*
X93260000Y-113530000D02*
X93260000Y-118171000D01*
X83020000Y-113530000D02*
X93260000Y-113530000D01*
X89991000Y-113530000D02*
X89991000Y-115040000D01*
X86290000Y-113530000D02*
X86290000Y-115040000D01*
X83020000Y-118171000D02*
X93260000Y-118171000D01*
%TO.C,C1*%
X92179000Y-105863000D02*
X92179000Y-98137000D01*
X91659000Y-105647000D02*
X91659000Y-103040000D01*
X90179000Y-104400000D02*
X90179000Y-103040000D01*
X90379000Y-104651000D02*
X90379000Y-103040000D01*
X91539000Y-100960000D02*
X91539000Y-98416000D01*
X92259000Y-105889000D02*
X92259000Y-98111000D01*
X91579000Y-100960000D02*
X91579000Y-98394000D01*
X91419000Y-100960000D02*
X91419000Y-98483000D01*
X91259000Y-105418000D02*
X91259000Y-103040000D01*
X90699000Y-100960000D02*
X90699000Y-99017000D01*
X90419000Y-100960000D02*
X90419000Y-99303000D01*
X92980000Y-106048000D02*
X92980000Y-97952000D01*
X92619000Y-105985000D02*
X92619000Y-98015000D01*
X93100000Y-106061000D02*
X93100000Y-97939000D01*
X89619000Y-103346000D02*
X89619000Y-100654000D01*
X89979000Y-100960000D02*
X89979000Y-99898000D01*
X91019000Y-100960000D02*
X91019000Y-98750000D01*
X90339000Y-100960000D02*
X90339000Y-99396000D01*
X91899000Y-105757000D02*
X91899000Y-103040000D01*
X91299000Y-105444000D02*
X91299000Y-103040000D01*
X91179000Y-100960000D02*
X91179000Y-98635000D01*
X91899000Y-100960000D02*
X91899000Y-98243000D01*
X90139000Y-100960000D02*
X90139000Y-99655000D01*
X91979000Y-100960000D02*
X91979000Y-98210000D01*
X90539000Y-100960000D02*
X90539000Y-99174000D01*
X90899000Y-100960000D02*
X90899000Y-98844000D01*
X90019000Y-100960000D02*
X90019000Y-99834000D01*
X91579000Y-105606000D02*
X91579000Y-103040000D01*
X93060000Y-106057000D02*
X93060000Y-97943000D01*
X93380000Y-106079000D02*
X93380000Y-97921000D01*
X90659000Y-104945000D02*
X90659000Y-103040000D01*
X90779000Y-105055000D02*
X90779000Y-103040000D01*
X89659000Y-103453000D02*
X89659000Y-100547000D01*
X89579000Y-103229000D02*
X89579000Y-100771000D01*
X91299000Y-100960000D02*
X91299000Y-98556000D01*
X90459000Y-100960000D02*
X90459000Y-99259000D01*
X89819000Y-103813000D02*
X89819000Y-100187000D01*
X90939000Y-100960000D02*
X90939000Y-98811000D01*
X91219000Y-100960000D02*
X91219000Y-98608000D01*
X93300000Y-106076000D02*
X93300000Y-97924000D01*
X91779000Y-100960000D02*
X91779000Y-98296000D01*
X93420000Y-106080000D02*
X93420000Y-97920000D01*
X90059000Y-104228000D02*
X90059000Y-103040000D01*
X92219000Y-105877000D02*
X92219000Y-98123000D01*
X97909698Y-104315000D02*
X97109698Y-104315000D01*
X90499000Y-100960000D02*
X90499000Y-99216000D01*
X92900000Y-106037000D02*
X92900000Y-97963000D01*
X91499000Y-105562000D02*
X91499000Y-103040000D01*
X91459000Y-105540000D02*
X91459000Y-103040000D01*
X91659000Y-100960000D02*
X91659000Y-98353000D01*
X91099000Y-100960000D02*
X91099000Y-98691000D01*
X91179000Y-105365000D02*
X91179000Y-103040000D01*
X91139000Y-100960000D02*
X91139000Y-98662000D01*
X90739000Y-100960000D02*
X90739000Y-98981000D01*
X92459000Y-105947000D02*
X92459000Y-98053000D01*
X90899000Y-105156000D02*
X90899000Y-103040000D01*
X89739000Y-103645000D02*
X89739000Y-100355000D01*
X92860000Y-106030000D02*
X92860000Y-97970000D01*
X90539000Y-104826000D02*
X90539000Y-103040000D01*
X92339000Y-105914000D02*
X92339000Y-98086000D01*
X91499000Y-100960000D02*
X91499000Y-98438000D01*
X90139000Y-104345000D02*
X90139000Y-103040000D01*
X90299000Y-104556000D02*
X90299000Y-103040000D01*
X93220000Y-106071000D02*
X93220000Y-97929000D01*
X90099000Y-104287000D02*
X90099000Y-103040000D01*
X91739000Y-105686000D02*
X91739000Y-103040000D01*
X91739000Y-100960000D02*
X91739000Y-98314000D01*
X89939000Y-104034000D02*
X89939000Y-99966000D01*
X93340000Y-106077000D02*
X93340000Y-97923000D01*
X92739000Y-106010000D02*
X92739000Y-97990000D01*
X92299000Y-105902000D02*
X92299000Y-98098000D01*
X90699000Y-104983000D02*
X90699000Y-103040000D01*
X92779000Y-106017000D02*
X92779000Y-97983000D01*
X93180000Y-106068000D02*
X93180000Y-97932000D01*
X91019000Y-105250000D02*
X91019000Y-103040000D01*
X89699000Y-103552000D02*
X89699000Y-100448000D01*
X90859000Y-105124000D02*
X90859000Y-103040000D01*
X90179000Y-100960000D02*
X90179000Y-99600000D01*
X91379000Y-100960000D02*
X91379000Y-98507000D01*
X92579000Y-105976000D02*
X92579000Y-98024000D01*
X91219000Y-105392000D02*
X91219000Y-103040000D01*
X93020000Y-106052000D02*
X93020000Y-97948000D01*
X91619000Y-105627000D02*
X91619000Y-103040000D01*
X89539000Y-103098000D02*
X89539000Y-100902000D01*
X90459000Y-104741000D02*
X90459000Y-103040000D01*
X90819000Y-105090000D02*
X90819000Y-103040000D01*
X91339000Y-100960000D02*
X91339000Y-98531000D01*
X91939000Y-105774000D02*
X91939000Y-103040000D01*
X93460000Y-106080000D02*
X93460000Y-97920000D01*
X90659000Y-100960000D02*
X90659000Y-99055000D01*
X91259000Y-100960000D02*
X91259000Y-98582000D01*
X90419000Y-104697000D02*
X90419000Y-103040000D01*
X89499000Y-102948000D02*
X89499000Y-101052000D01*
X92139000Y-105850000D02*
X92139000Y-98150000D01*
X90099000Y-100960000D02*
X90099000Y-99713000D01*
X91779000Y-105704000D02*
X91779000Y-103040000D01*
X90499000Y-104784000D02*
X90499000Y-103040000D01*
X92659000Y-105994000D02*
X92659000Y-98006000D01*
X90379000Y-100960000D02*
X90379000Y-99349000D01*
X93260000Y-106074000D02*
X93260000Y-97926000D01*
X91139000Y-105338000D02*
X91139000Y-103040000D01*
X91539000Y-105584000D02*
X91539000Y-103040000D01*
X92699000Y-106002000D02*
X92699000Y-97998000D01*
X91459000Y-100960000D02*
X91459000Y-98460000D01*
X92820000Y-106024000D02*
X92820000Y-97976000D01*
X90979000Y-105220000D02*
X90979000Y-103040000D01*
X97509698Y-104715000D02*
X97509698Y-103915000D01*
X90819000Y-100960000D02*
X90819000Y-98910000D01*
X92019000Y-100960000D02*
X92019000Y-98195000D01*
X89899000Y-103964000D02*
X89899000Y-100036000D01*
X91699000Y-105666000D02*
X91699000Y-103040000D01*
X90619000Y-100960000D02*
X90619000Y-99093000D01*
X91419000Y-105517000D02*
X91419000Y-103040000D01*
X92419000Y-105936000D02*
X92419000Y-98064000D01*
X91819000Y-100960000D02*
X91819000Y-98278000D01*
X91699000Y-100960000D02*
X91699000Y-98334000D01*
X90579000Y-100960000D02*
X90579000Y-99133000D01*
X92499000Y-105957000D02*
X92499000Y-98043000D01*
X91379000Y-105493000D02*
X91379000Y-103040000D01*
X91619000Y-100960000D02*
X91619000Y-98373000D01*
X90259000Y-104505000D02*
X90259000Y-103040000D01*
X91859000Y-100960000D02*
X91859000Y-98260000D01*
X92379000Y-105925000D02*
X92379000Y-98075000D01*
X90259000Y-100960000D02*
X90259000Y-99495000D01*
X90779000Y-100960000D02*
X90779000Y-98945000D01*
X90019000Y-104166000D02*
X90019000Y-103040000D01*
X92099000Y-105835000D02*
X92099000Y-98165000D01*
X90219000Y-104454000D02*
X90219000Y-103040000D01*
X90739000Y-105019000D02*
X90739000Y-103040000D01*
X90859000Y-100960000D02*
X90859000Y-98876000D01*
X90299000Y-100960000D02*
X90299000Y-99444000D01*
X89419000Y-102533000D02*
X89419000Y-101467000D01*
X92940000Y-106042000D02*
X92940000Y-97958000D01*
X92539000Y-105967000D02*
X92539000Y-98033000D01*
X90939000Y-105189000D02*
X90939000Y-103040000D01*
X91819000Y-105722000D02*
X91819000Y-103040000D01*
X90219000Y-100960000D02*
X90219000Y-99546000D01*
X90339000Y-104604000D02*
X90339000Y-103040000D01*
X91099000Y-105309000D02*
X91099000Y-103040000D01*
X91339000Y-105469000D02*
X91339000Y-103040000D01*
X89459000Y-102768000D02*
X89459000Y-101232000D01*
X92059000Y-105821000D02*
X92059000Y-98179000D01*
X89979000Y-104102000D02*
X89979000Y-103040000D01*
X91859000Y-105740000D02*
X91859000Y-103040000D01*
X90979000Y-100960000D02*
X90979000Y-98780000D01*
X92019000Y-105805000D02*
X92019000Y-103040000D01*
X90579000Y-104867000D02*
X90579000Y-103040000D01*
X91979000Y-105790000D02*
X91979000Y-103040000D01*
X91059000Y-105280000D02*
X91059000Y-103040000D01*
X91059000Y-100960000D02*
X91059000Y-98720000D01*
X89859000Y-103890000D02*
X89859000Y-100110000D01*
X93140000Y-106065000D02*
X93140000Y-97935000D01*
X90619000Y-104907000D02*
X90619000Y-103040000D01*
X89779000Y-103731000D02*
X89779000Y-100269000D01*
X90059000Y-100960000D02*
X90059000Y-99772000D01*
X91939000Y-100960000D02*
X91939000Y-98226000D01*
X93500000Y-106080000D02*
X93500000Y-97920000D01*
X97620000Y-102000000D02*
G75*
G03*
X97620000Y-102000000I-4120000J0D01*
G01*
%TO.C,F1*%
X92090000Y-109197936D02*
X92090000Y-110402064D01*
X93910000Y-109197936D02*
X93910000Y-110402064D01*
D11*
%TO.C,TP7*%
X131800000Y-108900000D02*
X134200000Y-108900000D01*
X131800000Y-113100000D02*
X131800000Y-108900000D01*
X134200000Y-108900000D02*
X134200000Y-113100000D01*
X134200000Y-113100000D02*
X131800000Y-113100000D01*
D10*
%TO.C,R19*%
X106789564Y-133610000D02*
X105335436Y-133610000D01*
X106789564Y-131790000D02*
X105335436Y-131790000D01*
%TO.C,SW1*%
X116810000Y-124190000D02*
X116810000Y-122880000D01*
X115210000Y-133245000D02*
X115210000Y-131975000D01*
X115210000Y-128165000D02*
X115210000Y-126895000D01*
X115210000Y-129865000D02*
X114003333Y-129865000D01*
X115210000Y-130105000D02*
X114003333Y-130105000D01*
X115210000Y-127925000D02*
X114003333Y-127925000D01*
X115210000Y-124785000D02*
X114003333Y-124785000D01*
X116810000Y-134720000D02*
X109990000Y-134720000D01*
X115210000Y-124425000D02*
X114003333Y-124425000D01*
X115210000Y-130465000D02*
X114003333Y-130465000D01*
X115210000Y-128045000D02*
X114003333Y-128045000D01*
X115210000Y-130225000D02*
X114003333Y-130225000D01*
X115210000Y-127565000D02*
X114003333Y-127565000D01*
X115210000Y-132525000D02*
X114003333Y-132525000D01*
X115210000Y-130345000D02*
X114003333Y-130345000D01*
X115210000Y-132285000D02*
X114003333Y-132285000D01*
X116810000Y-122880000D02*
X109990000Y-122880000D01*
X115210000Y-124545000D02*
X114003333Y-124545000D01*
X115210000Y-132765000D02*
X114003333Y-132765000D01*
X115210000Y-124905000D02*
X114003333Y-124905000D01*
X115210000Y-132405000D02*
X114003333Y-132405000D01*
X115210000Y-129505000D02*
X114003333Y-129505000D01*
X115210000Y-125265000D02*
X114003333Y-125265000D01*
X115210000Y-127325000D02*
X114003333Y-127325000D01*
X115210000Y-124665000D02*
X114003333Y-124665000D01*
X114003333Y-128165000D02*
X114003333Y-126895000D01*
X116810000Y-131810000D02*
X116810000Y-130870000D01*
X115210000Y-129625000D02*
X114003333Y-129625000D01*
X116810000Y-129270000D02*
X116810000Y-128330000D01*
X115210000Y-125505000D02*
X114003333Y-125505000D01*
X109990000Y-134720000D02*
X109990000Y-133410000D01*
X111590000Y-126895000D02*
X111590000Y-128165000D01*
X115210000Y-130585000D02*
X114003333Y-130585000D01*
X109990000Y-124190000D02*
X109990000Y-122880000D01*
X114003333Y-125625000D02*
X114003333Y-124355000D01*
X115210000Y-129745000D02*
X114003333Y-129745000D01*
X115210000Y-126965000D02*
X114003333Y-126965000D01*
X115210000Y-132165000D02*
X114003333Y-132165000D01*
X115210000Y-132885000D02*
X114003333Y-132885000D01*
X111590000Y-131975000D02*
X111590000Y-133245000D01*
X116810000Y-134720000D02*
X116810000Y-133410000D01*
X111590000Y-128165000D02*
X115210000Y-128165000D01*
X115210000Y-125025000D02*
X114003333Y-125025000D01*
X115210000Y-133005000D02*
X114003333Y-133005000D01*
X115210000Y-125385000D02*
X114003333Y-125385000D01*
X115210000Y-127685000D02*
X114003333Y-127685000D01*
X109990000Y-129270000D02*
X109990000Y-128330000D01*
X115210000Y-129985000D02*
X114003333Y-129985000D01*
X115210000Y-126895000D02*
X111590000Y-126895000D01*
X111590000Y-129435000D02*
X111590000Y-130705000D01*
X115210000Y-125625000D02*
X115210000Y-124355000D01*
X115210000Y-132645000D02*
X114003333Y-132645000D01*
X115210000Y-127805000D02*
X114003333Y-127805000D01*
X115210000Y-124355000D02*
X111590000Y-124355000D01*
X114003333Y-130705000D02*
X114003333Y-129435000D01*
X111590000Y-124355000D02*
X111590000Y-125625000D01*
X115210000Y-127085000D02*
X114003333Y-127085000D01*
X111590000Y-130705000D02*
X115210000Y-130705000D01*
X109990000Y-131810000D02*
X109990000Y-130870000D01*
X115210000Y-127445000D02*
X114003333Y-127445000D01*
X115210000Y-127205000D02*
X114003333Y-127205000D01*
X117050000Y-134960000D02*
X115667000Y-134960000D01*
X115210000Y-129435000D02*
X111590000Y-129435000D01*
X115210000Y-133125000D02*
X114003333Y-133125000D01*
X111590000Y-133245000D02*
X115210000Y-133245000D01*
X109990000Y-126730000D02*
X109990000Y-125790000D01*
X116810000Y-126730000D02*
X116810000Y-125790000D01*
X111590000Y-125625000D02*
X115210000Y-125625000D01*
X115210000Y-130705000D02*
X115210000Y-129435000D01*
X115210000Y-131975000D02*
X111590000Y-131975000D01*
X117050000Y-134960000D02*
X117050000Y-133577000D01*
X115210000Y-132045000D02*
X114003333Y-132045000D01*
X115210000Y-125145000D02*
X114003333Y-125145000D01*
X114003333Y-133245000D02*
X114003333Y-131975000D01*
%TO.C,R1*%
X106789564Y-125910000D02*
X105335436Y-125910000D01*
X106789564Y-124090000D02*
X105335436Y-124090000D01*
%TO.C,R2*%
X106789564Y-126690000D02*
X105335436Y-126690000D01*
X106789564Y-128510000D02*
X105335436Y-128510000D01*
%TO.C,R18*%
X106789564Y-131010000D02*
X105335436Y-131010000D01*
X106789564Y-129190000D02*
X105335436Y-129190000D01*
D11*
%TO.C,TP5*%
X74400000Y-138800000D02*
X78600000Y-138800000D01*
X78600000Y-141200000D02*
X74400000Y-141200000D01*
X74400000Y-141200000D02*
X74400000Y-138800000D01*
X78600000Y-138800000D02*
X78600000Y-141200000D01*
D10*
%TO.C,J2*%
X103062337Y-97493589D02*
G75*
G03*
X106525000Y-97480000I1712663J4763589D01*
G01*
X109538589Y-94442663D02*
G75*
G03*
X109525000Y-90980000I-4763589J1712663D01*
G01*
X100011411Y-91017337D02*
G75*
G03*
X100025000Y-94480000I4763588J-1712664D01*
G01*
X106487663Y-87966411D02*
G75*
G03*
X103025000Y-87980000I-1712664J-4763588D01*
G01*
%TO.C,D9*%
X130062500Y-117560000D02*
X129412500Y-117560000D01*
X130062500Y-114440000D02*
X128387500Y-114440000D01*
X130062500Y-117560000D02*
X130712500Y-117560000D01*
X130062500Y-114440000D02*
X130712500Y-114440000D01*
%TD*%
M02*
