%TF.GenerationSoftware,KiCad,Pcbnew,(6.0.10)*%
%TF.CreationDate,2023-02-20T15:55:57-05:00*%
%TF.ProjectId,Rx_Preamp,52785f50-7265-4616-9d70-2e6b69636164,rev?*%
%TF.SameCoordinates,Original*%
%TF.FileFunction,Legend,Bot*%
%TF.FilePolarity,Positive*%
%FSLAX46Y46*%
G04 Gerber Fmt 4.6, Leading zero omitted, Abs format (unit mm)*
G04 Created by KiCad (PCBNEW (6.0.10)) date 2023-02-20 15:55:57*
%MOMM*%
%LPD*%
G01*
G04 APERTURE LIST*
%ADD10C,0.150000*%
%ADD11C,0.120000*%
G04 APERTURE END LIST*
D10*
X74119047Y-156842380D02*
X74119047Y-155842380D01*
X73785714Y-156556666D01*
X73452380Y-155842380D01*
X73452380Y-156842380D01*
X72976190Y-156842380D02*
X72976190Y-155842380D01*
X72595238Y-155842380D01*
X72500000Y-155890000D01*
X72452380Y-155937619D01*
X72404761Y-156032857D01*
X72404761Y-156175714D01*
X72452380Y-156270952D01*
X72500000Y-156318571D01*
X72595238Y-156366190D01*
X72976190Y-156366190D01*
X71976190Y-156842380D02*
X71976190Y-155842380D01*
X70166666Y-156842380D02*
X70500000Y-156366190D01*
X70738095Y-156842380D02*
X70738095Y-155842380D01*
X70357142Y-155842380D01*
X70261904Y-155890000D01*
X70214285Y-155937619D01*
X70166666Y-156032857D01*
X70166666Y-156175714D01*
X70214285Y-156270952D01*
X70261904Y-156318571D01*
X70357142Y-156366190D01*
X70738095Y-156366190D01*
X69833333Y-156842380D02*
X69309523Y-156175714D01*
X69833333Y-156175714D02*
X69309523Y-156842380D01*
X67833333Y-156318571D02*
X68166666Y-156318571D01*
X68166666Y-156842380D02*
X68166666Y-155842380D01*
X67690476Y-155842380D01*
X67309523Y-156842380D02*
X67309523Y-156175714D01*
X67309523Y-155842380D02*
X67357142Y-155890000D01*
X67309523Y-155937619D01*
X67261904Y-155890000D01*
X67309523Y-155842380D01*
X67309523Y-155937619D01*
X66690476Y-156842380D02*
X66785714Y-156794761D01*
X66833333Y-156699523D01*
X66833333Y-155842380D01*
X66452380Y-156175714D02*
X66071428Y-156175714D01*
X66309523Y-155842380D02*
X66309523Y-156699523D01*
X66261904Y-156794761D01*
X66166666Y-156842380D01*
X66071428Y-156842380D01*
X65357142Y-156794761D02*
X65452380Y-156842380D01*
X65642857Y-156842380D01*
X65738095Y-156794761D01*
X65785714Y-156699523D01*
X65785714Y-156318571D01*
X65738095Y-156223333D01*
X65642857Y-156175714D01*
X65452380Y-156175714D01*
X65357142Y-156223333D01*
X65309523Y-156318571D01*
X65309523Y-156413809D01*
X65785714Y-156509047D01*
X64880952Y-156842380D02*
X64880952Y-156175714D01*
X64880952Y-156366190D02*
X64833333Y-156270952D01*
X64785714Y-156223333D01*
X64690476Y-156175714D01*
X64595238Y-156175714D01*
X64261904Y-156461428D02*
X63500000Y-156461428D01*
X63880952Y-156842380D02*
X63880952Y-156080476D01*
X63023809Y-156842380D02*
X63023809Y-155842380D01*
X62642857Y-155842380D01*
X62547619Y-155890000D01*
X62500000Y-155937619D01*
X62452380Y-156032857D01*
X62452380Y-156175714D01*
X62500000Y-156270952D01*
X62547619Y-156318571D01*
X62642857Y-156366190D01*
X63023809Y-156366190D01*
X62023809Y-156842380D02*
X62023809Y-156175714D01*
X62023809Y-156366190D02*
X61976190Y-156270952D01*
X61928571Y-156223333D01*
X61833333Y-156175714D01*
X61738095Y-156175714D01*
X61023809Y-156794761D02*
X61119047Y-156842380D01*
X61309523Y-156842380D01*
X61404761Y-156794761D01*
X61452380Y-156699523D01*
X61452380Y-156318571D01*
X61404761Y-156223333D01*
X61309523Y-156175714D01*
X61119047Y-156175714D01*
X61023809Y-156223333D01*
X60976190Y-156318571D01*
X60976190Y-156413809D01*
X61452380Y-156509047D01*
X60119047Y-156842380D02*
X60119047Y-156318571D01*
X60166666Y-156223333D01*
X60261904Y-156175714D01*
X60452380Y-156175714D01*
X60547619Y-156223333D01*
X60119047Y-156794761D02*
X60214285Y-156842380D01*
X60452380Y-156842380D01*
X60547619Y-156794761D01*
X60595238Y-156699523D01*
X60595238Y-156604285D01*
X60547619Y-156509047D01*
X60452380Y-156461428D01*
X60214285Y-156461428D01*
X60119047Y-156413809D01*
X59642857Y-156842380D02*
X59642857Y-156175714D01*
X59642857Y-156270952D02*
X59595238Y-156223333D01*
X59500000Y-156175714D01*
X59357142Y-156175714D01*
X59261904Y-156223333D01*
X59214285Y-156318571D01*
X59214285Y-156842380D01*
X59214285Y-156318571D02*
X59166666Y-156223333D01*
X59071428Y-156175714D01*
X58928571Y-156175714D01*
X58833333Y-156223333D01*
X58785714Y-156318571D01*
X58785714Y-156842380D01*
X58309523Y-156175714D02*
X58309523Y-157175714D01*
X58309523Y-156223333D02*
X58214285Y-156175714D01*
X58023809Y-156175714D01*
X57928571Y-156223333D01*
X57880952Y-156270952D01*
X57833333Y-156366190D01*
X57833333Y-156651904D01*
X57880952Y-156747142D01*
X57928571Y-156794761D01*
X58023809Y-156842380D01*
X58214285Y-156842380D01*
X58309523Y-156794761D01*
X70047619Y-157547619D02*
X70000000Y-157500000D01*
X69904761Y-157452380D01*
X69666666Y-157452380D01*
X69571428Y-157500000D01*
X69523809Y-157547619D01*
X69476190Y-157642857D01*
X69476190Y-157738095D01*
X69523809Y-157880952D01*
X70095238Y-158452380D01*
X69476190Y-158452380D01*
X68857142Y-157452380D02*
X68761904Y-157452380D01*
X68666666Y-157500000D01*
X68619047Y-157547619D01*
X68571428Y-157642857D01*
X68523809Y-157833333D01*
X68523809Y-158071428D01*
X68571428Y-158261904D01*
X68619047Y-158357142D01*
X68666666Y-158404761D01*
X68761904Y-158452380D01*
X68857142Y-158452380D01*
X68952380Y-158404761D01*
X69000000Y-158357142D01*
X69047619Y-158261904D01*
X69095238Y-158071428D01*
X69095238Y-157833333D01*
X69047619Y-157642857D01*
X69000000Y-157547619D01*
X68952380Y-157500000D01*
X68857142Y-157452380D01*
X67761904Y-157928571D02*
X68095238Y-157928571D01*
X68095238Y-158452380D02*
X68095238Y-157452380D01*
X67619047Y-157452380D01*
X67238095Y-157928571D02*
X66904761Y-157928571D01*
X66761904Y-158452380D02*
X67238095Y-158452380D01*
X67238095Y-157452380D01*
X66761904Y-157452380D01*
X66000000Y-157928571D02*
X65857142Y-157976190D01*
X65809523Y-158023809D01*
X65761904Y-158119047D01*
X65761904Y-158261904D01*
X65809523Y-158357142D01*
X65857142Y-158404761D01*
X65952380Y-158452380D01*
X66333333Y-158452380D01*
X66333333Y-157452380D01*
X66000000Y-157452380D01*
X65904761Y-157500000D01*
X65857142Y-157547619D01*
X65809523Y-157642857D01*
X65809523Y-157738095D01*
X65857142Y-157833333D01*
X65904761Y-157880952D01*
X66000000Y-157928571D01*
X66333333Y-157928571D01*
X65380952Y-157547619D02*
X65333333Y-157500000D01*
X65238095Y-157452380D01*
X65000000Y-157452380D01*
X64904761Y-157500000D01*
X64857142Y-157547619D01*
X64809523Y-157642857D01*
X64809523Y-157738095D01*
X64857142Y-157880952D01*
X65428571Y-158452380D01*
X64809523Y-158452380D01*
X64190476Y-157452380D02*
X64095238Y-157452380D01*
X64000000Y-157500000D01*
X63952380Y-157547619D01*
X63904761Y-157642857D01*
X63857142Y-157833333D01*
X63857142Y-158071428D01*
X63904761Y-158261904D01*
X63952380Y-158357142D01*
X64000000Y-158404761D01*
X64095238Y-158452380D01*
X64190476Y-158452380D01*
X64285714Y-158404761D01*
X64333333Y-158357142D01*
X64380952Y-158261904D01*
X64428571Y-158071428D01*
X64428571Y-157833333D01*
X64380952Y-157642857D01*
X64333333Y-157547619D01*
X64285714Y-157500000D01*
X64190476Y-157452380D01*
X63476190Y-157547619D02*
X63428571Y-157500000D01*
X63333333Y-157452380D01*
X63095238Y-157452380D01*
X63000000Y-157500000D01*
X62952380Y-157547619D01*
X62904761Y-157642857D01*
X62904761Y-157738095D01*
X62952380Y-157880952D01*
X63523809Y-158452380D01*
X62904761Y-158452380D01*
X62571428Y-157452380D02*
X61952380Y-157452380D01*
X62285714Y-157833333D01*
X62142857Y-157833333D01*
X62047619Y-157880952D01*
X62000000Y-157928571D01*
X61952380Y-158023809D01*
X61952380Y-158261904D01*
X62000000Y-158357142D01*
X62047619Y-158404761D01*
X62142857Y-158452380D01*
X62428571Y-158452380D01*
X62523809Y-158404761D01*
X62571428Y-158357142D01*
X67619047Y-160062380D02*
X67952380Y-159586190D01*
X68190476Y-160062380D02*
X68190476Y-159062380D01*
X67809523Y-159062380D01*
X67714285Y-159110000D01*
X67666666Y-159157619D01*
X67619047Y-159252857D01*
X67619047Y-159395714D01*
X67666666Y-159490952D01*
X67714285Y-159538571D01*
X67809523Y-159586190D01*
X68190476Y-159586190D01*
X66809523Y-160014761D02*
X66904761Y-160062380D01*
X67095238Y-160062380D01*
X67190476Y-160014761D01*
X67238095Y-159919523D01*
X67238095Y-159538571D01*
X67190476Y-159443333D01*
X67095238Y-159395714D01*
X66904761Y-159395714D01*
X66809523Y-159443333D01*
X66761904Y-159538571D01*
X66761904Y-159633809D01*
X67238095Y-159729047D01*
X66428571Y-159395714D02*
X66190476Y-160062380D01*
X65952380Y-159395714D01*
X65571428Y-159967142D02*
X65523809Y-160014761D01*
X65571428Y-160062380D01*
X65619047Y-160014761D01*
X65571428Y-159967142D01*
X65571428Y-160062380D01*
X64000000Y-159538571D02*
X63857142Y-159586190D01*
X63809523Y-159633809D01*
X63761904Y-159729047D01*
X63761904Y-159871904D01*
X63809523Y-159967142D01*
X63857142Y-160014761D01*
X63952380Y-160062380D01*
X64333333Y-160062380D01*
X64333333Y-159062380D01*
X64000000Y-159062380D01*
X63904761Y-159110000D01*
X63857142Y-159157619D01*
X63809523Y-159252857D01*
X63809523Y-159348095D01*
X63857142Y-159443333D01*
X63904761Y-159490952D01*
X64000000Y-159538571D01*
X64333333Y-159538571D01*
%TO.C,C2*%
X104666666Y-158207142D02*
X104714285Y-158254761D01*
X104857142Y-158302380D01*
X104952380Y-158302380D01*
X105095238Y-158254761D01*
X105190476Y-158159523D01*
X105238095Y-158064285D01*
X105285714Y-157873809D01*
X105285714Y-157730952D01*
X105238095Y-157540476D01*
X105190476Y-157445238D01*
X105095238Y-157350000D01*
X104952380Y-157302380D01*
X104857142Y-157302380D01*
X104714285Y-157350000D01*
X104666666Y-157397619D01*
X104285714Y-157397619D02*
X104238095Y-157350000D01*
X104142857Y-157302380D01*
X103904761Y-157302380D01*
X103809523Y-157350000D01*
X103761904Y-157397619D01*
X103714285Y-157492857D01*
X103714285Y-157588095D01*
X103761904Y-157730952D01*
X104333333Y-158302380D01*
X103714285Y-158302380D01*
%TO.C,C16*%
X121357142Y-109057142D02*
X121404761Y-109009523D01*
X121452380Y-108866666D01*
X121452380Y-108771428D01*
X121404761Y-108628571D01*
X121309523Y-108533333D01*
X121214285Y-108485714D01*
X121023809Y-108438095D01*
X120880952Y-108438095D01*
X120690476Y-108485714D01*
X120595238Y-108533333D01*
X120500000Y-108628571D01*
X120452380Y-108771428D01*
X120452380Y-108866666D01*
X120500000Y-109009523D01*
X120547619Y-109057142D01*
X121452380Y-110009523D02*
X121452380Y-109438095D01*
X121452380Y-109723809D02*
X120452380Y-109723809D01*
X120595238Y-109628571D01*
X120690476Y-109533333D01*
X120738095Y-109438095D01*
X120452380Y-110866666D02*
X120452380Y-110676190D01*
X120500000Y-110580952D01*
X120547619Y-110533333D01*
X120690476Y-110438095D01*
X120880952Y-110390476D01*
X121261904Y-110390476D01*
X121357142Y-110438095D01*
X121404761Y-110485714D01*
X121452380Y-110580952D01*
X121452380Y-110771428D01*
X121404761Y-110866666D01*
X121357142Y-110914285D01*
X121261904Y-110961904D01*
X121023809Y-110961904D01*
X120928571Y-110914285D01*
X120880952Y-110866666D01*
X120833333Y-110771428D01*
X120833333Y-110580952D01*
X120880952Y-110485714D01*
X120928571Y-110438095D01*
X121023809Y-110390476D01*
%TO.C,C18*%
X118757142Y-109057142D02*
X118804761Y-109009523D01*
X118852380Y-108866666D01*
X118852380Y-108771428D01*
X118804761Y-108628571D01*
X118709523Y-108533333D01*
X118614285Y-108485714D01*
X118423809Y-108438095D01*
X118280952Y-108438095D01*
X118090476Y-108485714D01*
X117995238Y-108533333D01*
X117900000Y-108628571D01*
X117852380Y-108771428D01*
X117852380Y-108866666D01*
X117900000Y-109009523D01*
X117947619Y-109057142D01*
X118852380Y-110009523D02*
X118852380Y-109438095D01*
X118852380Y-109723809D02*
X117852380Y-109723809D01*
X117995238Y-109628571D01*
X118090476Y-109533333D01*
X118138095Y-109438095D01*
X118280952Y-110580952D02*
X118233333Y-110485714D01*
X118185714Y-110438095D01*
X118090476Y-110390476D01*
X118042857Y-110390476D01*
X117947619Y-110438095D01*
X117900000Y-110485714D01*
X117852380Y-110580952D01*
X117852380Y-110771428D01*
X117900000Y-110866666D01*
X117947619Y-110914285D01*
X118042857Y-110961904D01*
X118090476Y-110961904D01*
X118185714Y-110914285D01*
X118233333Y-110866666D01*
X118280952Y-110771428D01*
X118280952Y-110580952D01*
X118328571Y-110485714D01*
X118376190Y-110438095D01*
X118471428Y-110390476D01*
X118661904Y-110390476D01*
X118757142Y-110438095D01*
X118804761Y-110485714D01*
X118852380Y-110580952D01*
X118852380Y-110771428D01*
X118804761Y-110866666D01*
X118757142Y-110914285D01*
X118661904Y-110961904D01*
X118471428Y-110961904D01*
X118376190Y-110914285D01*
X118328571Y-110866666D01*
X118280952Y-110771428D01*
%TO.C,C24*%
X115957142Y-121582142D02*
X116004761Y-121534523D01*
X116052380Y-121391666D01*
X116052380Y-121296428D01*
X116004761Y-121153571D01*
X115909523Y-121058333D01*
X115814285Y-121010714D01*
X115623809Y-120963095D01*
X115480952Y-120963095D01*
X115290476Y-121010714D01*
X115195238Y-121058333D01*
X115100000Y-121153571D01*
X115052380Y-121296428D01*
X115052380Y-121391666D01*
X115100000Y-121534523D01*
X115147619Y-121582142D01*
X115147619Y-121963095D02*
X115100000Y-122010714D01*
X115052380Y-122105952D01*
X115052380Y-122344047D01*
X115100000Y-122439285D01*
X115147619Y-122486904D01*
X115242857Y-122534523D01*
X115338095Y-122534523D01*
X115480952Y-122486904D01*
X116052380Y-121915476D01*
X116052380Y-122534523D01*
X115385714Y-123391666D02*
X116052380Y-123391666D01*
X115004761Y-123153571D02*
X115719047Y-122915476D01*
X115719047Y-123534523D01*
%TO.C,C36*%
X72842857Y-130757142D02*
X72890476Y-130804761D01*
X73033333Y-130852380D01*
X73128571Y-130852380D01*
X73271428Y-130804761D01*
X73366666Y-130709523D01*
X73414285Y-130614285D01*
X73461904Y-130423809D01*
X73461904Y-130280952D01*
X73414285Y-130090476D01*
X73366666Y-129995238D01*
X73271428Y-129900000D01*
X73128571Y-129852380D01*
X73033333Y-129852380D01*
X72890476Y-129900000D01*
X72842857Y-129947619D01*
X72509523Y-129852380D02*
X71890476Y-129852380D01*
X72223809Y-130233333D01*
X72080952Y-130233333D01*
X71985714Y-130280952D01*
X71938095Y-130328571D01*
X71890476Y-130423809D01*
X71890476Y-130661904D01*
X71938095Y-130757142D01*
X71985714Y-130804761D01*
X72080952Y-130852380D01*
X72366666Y-130852380D01*
X72461904Y-130804761D01*
X72509523Y-130757142D01*
X71033333Y-129852380D02*
X71223809Y-129852380D01*
X71319047Y-129900000D01*
X71366666Y-129947619D01*
X71461904Y-130090476D01*
X71509523Y-130280952D01*
X71509523Y-130661904D01*
X71461904Y-130757142D01*
X71414285Y-130804761D01*
X71319047Y-130852380D01*
X71128571Y-130852380D01*
X71033333Y-130804761D01*
X70985714Y-130757142D01*
X70938095Y-130661904D01*
X70938095Y-130423809D01*
X70985714Y-130328571D01*
X71033333Y-130280952D01*
X71128571Y-130233333D01*
X71319047Y-130233333D01*
X71414285Y-130280952D01*
X71461904Y-130328571D01*
X71509523Y-130423809D01*
%TO.C,C38*%
X72857857Y-124692142D02*
X72905476Y-124739761D01*
X73048333Y-124787380D01*
X73143571Y-124787380D01*
X73286428Y-124739761D01*
X73381666Y-124644523D01*
X73429285Y-124549285D01*
X73476904Y-124358809D01*
X73476904Y-124215952D01*
X73429285Y-124025476D01*
X73381666Y-123930238D01*
X73286428Y-123835000D01*
X73143571Y-123787380D01*
X73048333Y-123787380D01*
X72905476Y-123835000D01*
X72857857Y-123882619D01*
X72524523Y-123787380D02*
X71905476Y-123787380D01*
X72238809Y-124168333D01*
X72095952Y-124168333D01*
X72000714Y-124215952D01*
X71953095Y-124263571D01*
X71905476Y-124358809D01*
X71905476Y-124596904D01*
X71953095Y-124692142D01*
X72000714Y-124739761D01*
X72095952Y-124787380D01*
X72381666Y-124787380D01*
X72476904Y-124739761D01*
X72524523Y-124692142D01*
X71334047Y-124215952D02*
X71429285Y-124168333D01*
X71476904Y-124120714D01*
X71524523Y-124025476D01*
X71524523Y-123977857D01*
X71476904Y-123882619D01*
X71429285Y-123835000D01*
X71334047Y-123787380D01*
X71143571Y-123787380D01*
X71048333Y-123835000D01*
X71000714Y-123882619D01*
X70953095Y-123977857D01*
X70953095Y-124025476D01*
X71000714Y-124120714D01*
X71048333Y-124168333D01*
X71143571Y-124215952D01*
X71334047Y-124215952D01*
X71429285Y-124263571D01*
X71476904Y-124311190D01*
X71524523Y-124406428D01*
X71524523Y-124596904D01*
X71476904Y-124692142D01*
X71429285Y-124739761D01*
X71334047Y-124787380D01*
X71143571Y-124787380D01*
X71048333Y-124739761D01*
X71000714Y-124692142D01*
X70953095Y-124596904D01*
X70953095Y-124406428D01*
X71000714Y-124311190D01*
X71048333Y-124263571D01*
X71143571Y-124215952D01*
%TO.C,L9*%
X71966666Y-145052380D02*
X72442857Y-145052380D01*
X72442857Y-144052380D01*
X71585714Y-145052380D02*
X71395238Y-145052380D01*
X71300000Y-145004761D01*
X71252380Y-144957142D01*
X71157142Y-144814285D01*
X71109523Y-144623809D01*
X71109523Y-144242857D01*
X71157142Y-144147619D01*
X71204761Y-144100000D01*
X71300000Y-144052380D01*
X71490476Y-144052380D01*
X71585714Y-144100000D01*
X71633333Y-144147619D01*
X71680952Y-144242857D01*
X71680952Y-144480952D01*
X71633333Y-144576190D01*
X71585714Y-144623809D01*
X71490476Y-144671428D01*
X71300000Y-144671428D01*
X71204761Y-144623809D01*
X71157142Y-144576190D01*
X71109523Y-144480952D01*
%TO.C,L10*%
X82942857Y-135652380D02*
X83419047Y-135652380D01*
X83419047Y-134652380D01*
X82085714Y-135652380D02*
X82657142Y-135652380D01*
X82371428Y-135652380D02*
X82371428Y-134652380D01*
X82466666Y-134795238D01*
X82561904Y-134890476D01*
X82657142Y-134938095D01*
X81466666Y-134652380D02*
X81371428Y-134652380D01*
X81276190Y-134700000D01*
X81228571Y-134747619D01*
X81180952Y-134842857D01*
X81133333Y-135033333D01*
X81133333Y-135271428D01*
X81180952Y-135461904D01*
X81228571Y-135557142D01*
X81276190Y-135604761D01*
X81371428Y-135652380D01*
X81466666Y-135652380D01*
X81561904Y-135604761D01*
X81609523Y-135557142D01*
X81657142Y-135461904D01*
X81704761Y-135271428D01*
X81704761Y-135033333D01*
X81657142Y-134842857D01*
X81609523Y-134747619D01*
X81561904Y-134700000D01*
X81466666Y-134652380D01*
%TO.C,R21*%
X67902380Y-139294642D02*
X67426190Y-138961309D01*
X67902380Y-138723214D02*
X66902380Y-138723214D01*
X66902380Y-139104166D01*
X66950000Y-139199404D01*
X66997619Y-139247023D01*
X67092857Y-139294642D01*
X67235714Y-139294642D01*
X67330952Y-139247023D01*
X67378571Y-139199404D01*
X67426190Y-139104166D01*
X67426190Y-138723214D01*
X66997619Y-139675595D02*
X66950000Y-139723214D01*
X66902380Y-139818452D01*
X66902380Y-140056547D01*
X66950000Y-140151785D01*
X66997619Y-140199404D01*
X67092857Y-140247023D01*
X67188095Y-140247023D01*
X67330952Y-140199404D01*
X67902380Y-139627976D01*
X67902380Y-140247023D01*
X67902380Y-141199404D02*
X67902380Y-140627976D01*
X67902380Y-140913690D02*
X66902380Y-140913690D01*
X67045238Y-140818452D01*
X67140476Y-140723214D01*
X67188095Y-140627976D01*
%TO.C,R22*%
X68072380Y-128219642D02*
X67596190Y-127886309D01*
X68072380Y-127648214D02*
X67072380Y-127648214D01*
X67072380Y-128029166D01*
X67120000Y-128124404D01*
X67167619Y-128172023D01*
X67262857Y-128219642D01*
X67405714Y-128219642D01*
X67500952Y-128172023D01*
X67548571Y-128124404D01*
X67596190Y-128029166D01*
X67596190Y-127648214D01*
X67167619Y-128600595D02*
X67120000Y-128648214D01*
X67072380Y-128743452D01*
X67072380Y-128981547D01*
X67120000Y-129076785D01*
X67167619Y-129124404D01*
X67262857Y-129172023D01*
X67358095Y-129172023D01*
X67500952Y-129124404D01*
X68072380Y-128552976D01*
X68072380Y-129172023D01*
X67167619Y-129552976D02*
X67120000Y-129600595D01*
X67072380Y-129695833D01*
X67072380Y-129933928D01*
X67120000Y-130029166D01*
X67167619Y-130076785D01*
X67262857Y-130124404D01*
X67358095Y-130124404D01*
X67500952Y-130076785D01*
X68072380Y-129505357D01*
X68072380Y-130124404D01*
%TO.C,L5*%
X55766666Y-142152380D02*
X56242857Y-142152380D01*
X56242857Y-141152380D01*
X54957142Y-141152380D02*
X55433333Y-141152380D01*
X55480952Y-141628571D01*
X55433333Y-141580952D01*
X55338095Y-141533333D01*
X55100000Y-141533333D01*
X55004761Y-141580952D01*
X54957142Y-141628571D01*
X54909523Y-141723809D01*
X54909523Y-141961904D01*
X54957142Y-142057142D01*
X55004761Y-142104761D01*
X55100000Y-142152380D01*
X55338095Y-142152380D01*
X55433333Y-142104761D01*
X55480952Y-142057142D01*
%TO.C,L6*%
X56566666Y-132852380D02*
X57042857Y-132852380D01*
X57042857Y-131852380D01*
X55804761Y-131852380D02*
X55995238Y-131852380D01*
X56090476Y-131900000D01*
X56138095Y-131947619D01*
X56233333Y-132090476D01*
X56280952Y-132280952D01*
X56280952Y-132661904D01*
X56233333Y-132757142D01*
X56185714Y-132804761D01*
X56090476Y-132852380D01*
X55900000Y-132852380D01*
X55804761Y-132804761D01*
X55757142Y-132757142D01*
X55709523Y-132661904D01*
X55709523Y-132423809D01*
X55757142Y-132328571D01*
X55804761Y-132280952D01*
X55900000Y-132233333D01*
X56090476Y-132233333D01*
X56185714Y-132280952D01*
X56233333Y-132328571D01*
X56280952Y-132423809D01*
%TO.C,C9*%
X118457142Y-121558333D02*
X118504761Y-121510714D01*
X118552380Y-121367857D01*
X118552380Y-121272619D01*
X118504761Y-121129761D01*
X118409523Y-121034523D01*
X118314285Y-120986904D01*
X118123809Y-120939285D01*
X117980952Y-120939285D01*
X117790476Y-120986904D01*
X117695238Y-121034523D01*
X117600000Y-121129761D01*
X117552380Y-121272619D01*
X117552380Y-121367857D01*
X117600000Y-121510714D01*
X117647619Y-121558333D01*
X118552380Y-122034523D02*
X118552380Y-122225000D01*
X118504761Y-122320238D01*
X118457142Y-122367857D01*
X118314285Y-122463095D01*
X118123809Y-122510714D01*
X117742857Y-122510714D01*
X117647619Y-122463095D01*
X117600000Y-122415476D01*
X117552380Y-122320238D01*
X117552380Y-122129761D01*
X117600000Y-122034523D01*
X117647619Y-121986904D01*
X117742857Y-121939285D01*
X117980952Y-121939285D01*
X118076190Y-121986904D01*
X118123809Y-122034523D01*
X118171428Y-122129761D01*
X118171428Y-122320238D01*
X118123809Y-122415476D01*
X118076190Y-122463095D01*
X117980952Y-122510714D01*
%TO.C,C22*%
X114257142Y-112857142D02*
X114304761Y-112809523D01*
X114352380Y-112666666D01*
X114352380Y-112571428D01*
X114304761Y-112428571D01*
X114209523Y-112333333D01*
X114114285Y-112285714D01*
X113923809Y-112238095D01*
X113780952Y-112238095D01*
X113590476Y-112285714D01*
X113495238Y-112333333D01*
X113400000Y-112428571D01*
X113352380Y-112571428D01*
X113352380Y-112666666D01*
X113400000Y-112809523D01*
X113447619Y-112857142D01*
X113447619Y-113238095D02*
X113400000Y-113285714D01*
X113352380Y-113380952D01*
X113352380Y-113619047D01*
X113400000Y-113714285D01*
X113447619Y-113761904D01*
X113542857Y-113809523D01*
X113638095Y-113809523D01*
X113780952Y-113761904D01*
X114352380Y-113190476D01*
X114352380Y-113809523D01*
X113447619Y-114190476D02*
X113400000Y-114238095D01*
X113352380Y-114333333D01*
X113352380Y-114571428D01*
X113400000Y-114666666D01*
X113447619Y-114714285D01*
X113542857Y-114761904D01*
X113638095Y-114761904D01*
X113780952Y-114714285D01*
X114352380Y-114142857D01*
X114352380Y-114761904D01*
%TO.C,C3*%
X111757142Y-118233333D02*
X111804761Y-118185714D01*
X111852380Y-118042857D01*
X111852380Y-117947619D01*
X111804761Y-117804761D01*
X111709523Y-117709523D01*
X111614285Y-117661904D01*
X111423809Y-117614285D01*
X111280952Y-117614285D01*
X111090476Y-117661904D01*
X110995238Y-117709523D01*
X110900000Y-117804761D01*
X110852380Y-117947619D01*
X110852380Y-118042857D01*
X110900000Y-118185714D01*
X110947619Y-118233333D01*
X110852380Y-118566666D02*
X110852380Y-119185714D01*
X111233333Y-118852380D01*
X111233333Y-118995238D01*
X111280952Y-119090476D01*
X111328571Y-119138095D01*
X111423809Y-119185714D01*
X111661904Y-119185714D01*
X111757142Y-119138095D01*
X111804761Y-119090476D01*
X111852380Y-118995238D01*
X111852380Y-118709523D01*
X111804761Y-118614285D01*
X111757142Y-118566666D01*
%TO.C,C43*%
X82607142Y-109607142D02*
X82654761Y-109559523D01*
X82702380Y-109416666D01*
X82702380Y-109321428D01*
X82654761Y-109178571D01*
X82559523Y-109083333D01*
X82464285Y-109035714D01*
X82273809Y-108988095D01*
X82130952Y-108988095D01*
X81940476Y-109035714D01*
X81845238Y-109083333D01*
X81750000Y-109178571D01*
X81702380Y-109321428D01*
X81702380Y-109416666D01*
X81750000Y-109559523D01*
X81797619Y-109607142D01*
X82035714Y-110464285D02*
X82702380Y-110464285D01*
X81654761Y-110226190D02*
X82369047Y-109988095D01*
X82369047Y-110607142D01*
X81702380Y-110892857D02*
X81702380Y-111511904D01*
X82083333Y-111178571D01*
X82083333Y-111321428D01*
X82130952Y-111416666D01*
X82178571Y-111464285D01*
X82273809Y-111511904D01*
X82511904Y-111511904D01*
X82607142Y-111464285D01*
X82654761Y-111416666D01*
X82702380Y-111321428D01*
X82702380Y-111035714D01*
X82654761Y-110940476D01*
X82607142Y-110892857D01*
%TO.C,C44*%
X81442857Y-115357142D02*
X81490476Y-115404761D01*
X81633333Y-115452380D01*
X81728571Y-115452380D01*
X81871428Y-115404761D01*
X81966666Y-115309523D01*
X82014285Y-115214285D01*
X82061904Y-115023809D01*
X82061904Y-114880952D01*
X82014285Y-114690476D01*
X81966666Y-114595238D01*
X81871428Y-114500000D01*
X81728571Y-114452380D01*
X81633333Y-114452380D01*
X81490476Y-114500000D01*
X81442857Y-114547619D01*
X80585714Y-114785714D02*
X80585714Y-115452380D01*
X80823809Y-114404761D02*
X81061904Y-115119047D01*
X80442857Y-115119047D01*
X79633333Y-114785714D02*
X79633333Y-115452380D01*
X79871428Y-114404761D02*
X80109523Y-115119047D01*
X79490476Y-115119047D01*
%TO.C,D7*%
X93852380Y-139261904D02*
X92852380Y-139261904D01*
X92852380Y-139500000D01*
X92900000Y-139642857D01*
X92995238Y-139738095D01*
X93090476Y-139785714D01*
X93280952Y-139833333D01*
X93423809Y-139833333D01*
X93614285Y-139785714D01*
X93709523Y-139738095D01*
X93804761Y-139642857D01*
X93852380Y-139500000D01*
X93852380Y-139261904D01*
X92852380Y-140166666D02*
X92852380Y-140833333D01*
X93852380Y-140404761D01*
%TO.C,D8*%
X81152380Y-140261904D02*
X80152380Y-140261904D01*
X80152380Y-140500000D01*
X80200000Y-140642857D01*
X80295238Y-140738095D01*
X80390476Y-140785714D01*
X80580952Y-140833333D01*
X80723809Y-140833333D01*
X80914285Y-140785714D01*
X81009523Y-140738095D01*
X81104761Y-140642857D01*
X81152380Y-140500000D01*
X81152380Y-140261904D01*
X80580952Y-141404761D02*
X80533333Y-141309523D01*
X80485714Y-141261904D01*
X80390476Y-141214285D01*
X80342857Y-141214285D01*
X80247619Y-141261904D01*
X80200000Y-141309523D01*
X80152380Y-141404761D01*
X80152380Y-141595238D01*
X80200000Y-141690476D01*
X80247619Y-141738095D01*
X80342857Y-141785714D01*
X80390476Y-141785714D01*
X80485714Y-141738095D01*
X80533333Y-141690476D01*
X80580952Y-141595238D01*
X80580952Y-141404761D01*
X80628571Y-141309523D01*
X80676190Y-141261904D01*
X80771428Y-141214285D01*
X80961904Y-141214285D01*
X81057142Y-141261904D01*
X81104761Y-141309523D01*
X81152380Y-141404761D01*
X81152380Y-141595238D01*
X81104761Y-141690476D01*
X81057142Y-141738095D01*
X80961904Y-141785714D01*
X80771428Y-141785714D01*
X80676190Y-141738095D01*
X80628571Y-141690476D01*
X80580952Y-141595238D01*
%TO.C,C45*%
X48442857Y-140857142D02*
X48490476Y-140904761D01*
X48633333Y-140952380D01*
X48728571Y-140952380D01*
X48871428Y-140904761D01*
X48966666Y-140809523D01*
X49014285Y-140714285D01*
X49061904Y-140523809D01*
X49061904Y-140380952D01*
X49014285Y-140190476D01*
X48966666Y-140095238D01*
X48871428Y-140000000D01*
X48728571Y-139952380D01*
X48633333Y-139952380D01*
X48490476Y-140000000D01*
X48442857Y-140047619D01*
X47585714Y-140285714D02*
X47585714Y-140952380D01*
X47823809Y-139904761D02*
X48061904Y-140619047D01*
X47442857Y-140619047D01*
X46585714Y-139952380D02*
X47061904Y-139952380D01*
X47109523Y-140428571D01*
X47061904Y-140380952D01*
X46966666Y-140333333D01*
X46728571Y-140333333D01*
X46633333Y-140380952D01*
X46585714Y-140428571D01*
X46538095Y-140523809D01*
X46538095Y-140761904D01*
X46585714Y-140857142D01*
X46633333Y-140904761D01*
X46728571Y-140952380D01*
X46966666Y-140952380D01*
X47061904Y-140904761D01*
X47109523Y-140857142D01*
%TO.C,C46*%
X48342857Y-143357142D02*
X48390476Y-143404761D01*
X48533333Y-143452380D01*
X48628571Y-143452380D01*
X48771428Y-143404761D01*
X48866666Y-143309523D01*
X48914285Y-143214285D01*
X48961904Y-143023809D01*
X48961904Y-142880952D01*
X48914285Y-142690476D01*
X48866666Y-142595238D01*
X48771428Y-142500000D01*
X48628571Y-142452380D01*
X48533333Y-142452380D01*
X48390476Y-142500000D01*
X48342857Y-142547619D01*
X47485714Y-142785714D02*
X47485714Y-143452380D01*
X47723809Y-142404761D02*
X47961904Y-143119047D01*
X47342857Y-143119047D01*
X46533333Y-142452380D02*
X46723809Y-142452380D01*
X46819047Y-142500000D01*
X46866666Y-142547619D01*
X46961904Y-142690476D01*
X47009523Y-142880952D01*
X47009523Y-143261904D01*
X46961904Y-143357142D01*
X46914285Y-143404761D01*
X46819047Y-143452380D01*
X46628571Y-143452380D01*
X46533333Y-143404761D01*
X46485714Y-143357142D01*
X46438095Y-143261904D01*
X46438095Y-143023809D01*
X46485714Y-142928571D01*
X46533333Y-142880952D01*
X46628571Y-142833333D01*
X46819047Y-142833333D01*
X46914285Y-142880952D01*
X46961904Y-142928571D01*
X47009523Y-143023809D01*
%TO.C,C47*%
X63742857Y-154557142D02*
X63790476Y-154604761D01*
X63933333Y-154652380D01*
X64028571Y-154652380D01*
X64171428Y-154604761D01*
X64266666Y-154509523D01*
X64314285Y-154414285D01*
X64361904Y-154223809D01*
X64361904Y-154080952D01*
X64314285Y-153890476D01*
X64266666Y-153795238D01*
X64171428Y-153700000D01*
X64028571Y-153652380D01*
X63933333Y-153652380D01*
X63790476Y-153700000D01*
X63742857Y-153747619D01*
X62885714Y-153985714D02*
X62885714Y-154652380D01*
X63123809Y-153604761D02*
X63361904Y-154319047D01*
X62742857Y-154319047D01*
X62457142Y-153652380D02*
X61790476Y-153652380D01*
X62219047Y-154652380D01*
%TO.C,C48*%
X63742857Y-152057142D02*
X63790476Y-152104761D01*
X63933333Y-152152380D01*
X64028571Y-152152380D01*
X64171428Y-152104761D01*
X64266666Y-152009523D01*
X64314285Y-151914285D01*
X64361904Y-151723809D01*
X64361904Y-151580952D01*
X64314285Y-151390476D01*
X64266666Y-151295238D01*
X64171428Y-151200000D01*
X64028571Y-151152380D01*
X63933333Y-151152380D01*
X63790476Y-151200000D01*
X63742857Y-151247619D01*
X62885714Y-151485714D02*
X62885714Y-152152380D01*
X63123809Y-151104761D02*
X63361904Y-151819047D01*
X62742857Y-151819047D01*
X62219047Y-151580952D02*
X62314285Y-151533333D01*
X62361904Y-151485714D01*
X62409523Y-151390476D01*
X62409523Y-151342857D01*
X62361904Y-151247619D01*
X62314285Y-151200000D01*
X62219047Y-151152380D01*
X62028571Y-151152380D01*
X61933333Y-151200000D01*
X61885714Y-151247619D01*
X61838095Y-151342857D01*
X61838095Y-151390476D01*
X61885714Y-151485714D01*
X61933333Y-151533333D01*
X62028571Y-151580952D01*
X62219047Y-151580952D01*
X62314285Y-151628571D01*
X62361904Y-151676190D01*
X62409523Y-151771428D01*
X62409523Y-151961904D01*
X62361904Y-152057142D01*
X62314285Y-152104761D01*
X62219047Y-152152380D01*
X62028571Y-152152380D01*
X61933333Y-152104761D01*
X61885714Y-152057142D01*
X61838095Y-151961904D01*
X61838095Y-151771428D01*
X61885714Y-151676190D01*
X61933333Y-151628571D01*
X62028571Y-151580952D01*
D11*
%TO.C,C2*%
X107181000Y-151560000D02*
X107181000Y-149510000D01*
X107821000Y-155000000D02*
X107821000Y-153640000D01*
X107421000Y-155467000D02*
X107421000Y-153640000D01*
X105020000Y-156648000D02*
X105020000Y-148552000D01*
X107301000Y-151560000D02*
X107301000Y-149617000D01*
X106421000Y-156206000D02*
X106421000Y-153640000D01*
X105701000Y-156502000D02*
X105701000Y-148698000D01*
X106261000Y-156286000D02*
X106261000Y-153640000D01*
X106261000Y-151560000D02*
X106261000Y-148914000D01*
X106381000Y-151560000D02*
X106381000Y-148973000D01*
X107301000Y-155583000D02*
X107301000Y-153640000D01*
X100090302Y-154915000D02*
X100890302Y-154915000D01*
X106701000Y-151560000D02*
X106701000Y-149156000D01*
X105140000Y-156630000D02*
X105140000Y-148570000D01*
X105501000Y-156557000D02*
X105501000Y-148643000D01*
X107181000Y-155690000D02*
X107181000Y-153640000D01*
X107021000Y-151560000D02*
X107021000Y-149380000D01*
X107781000Y-155054000D02*
X107781000Y-153640000D01*
X106661000Y-151560000D02*
X106661000Y-149131000D01*
X106861000Y-155938000D02*
X106861000Y-153640000D01*
X104980000Y-156652000D02*
X104980000Y-148548000D01*
X106501000Y-156162000D02*
X106501000Y-153640000D01*
X108301000Y-154152000D02*
X108301000Y-151048000D01*
X107661000Y-155204000D02*
X107661000Y-153640000D01*
X106461000Y-151560000D02*
X106461000Y-149016000D01*
X107221000Y-155655000D02*
X107221000Y-153640000D01*
X107861000Y-151560000D02*
X107861000Y-150255000D01*
X106021000Y-151560000D02*
X106021000Y-148810000D01*
X105981000Y-151560000D02*
X105981000Y-148795000D01*
X105941000Y-156421000D02*
X105941000Y-148779000D01*
X107261000Y-155619000D02*
X107261000Y-153640000D01*
X107141000Y-151560000D02*
X107141000Y-149476000D01*
X106661000Y-156069000D02*
X106661000Y-153640000D01*
X106581000Y-156117000D02*
X106581000Y-153640000D01*
X108221000Y-154331000D02*
X108221000Y-150869000D01*
X107701000Y-155156000D02*
X107701000Y-153640000D01*
X105060000Y-156642000D02*
X105060000Y-148558000D01*
X108341000Y-154053000D02*
X108341000Y-151147000D01*
X107541000Y-151560000D02*
X107541000Y-149859000D01*
X104700000Y-156676000D02*
X104700000Y-148524000D01*
X104580000Y-156680000D02*
X104580000Y-148520000D01*
X106821000Y-155965000D02*
X106821000Y-153640000D01*
X108061000Y-154634000D02*
X108061000Y-150566000D01*
X104820000Y-156668000D02*
X104820000Y-148532000D01*
X105221000Y-156617000D02*
X105221000Y-148583000D01*
X107101000Y-155756000D02*
X107101000Y-153640000D01*
X106061000Y-156374000D02*
X106061000Y-153640000D01*
X107941000Y-154828000D02*
X107941000Y-153640000D01*
X105621000Y-156525000D02*
X105621000Y-148675000D01*
X105781000Y-156477000D02*
X105781000Y-148723000D01*
X107781000Y-151560000D02*
X107781000Y-150146000D01*
X107581000Y-151560000D02*
X107581000Y-149903000D01*
X104660000Y-156677000D02*
X104660000Y-148523000D01*
X104540000Y-156680000D02*
X104540000Y-148520000D01*
X106941000Y-151560000D02*
X106941000Y-149320000D01*
X106541000Y-151560000D02*
X106541000Y-149060000D01*
X107141000Y-155724000D02*
X107141000Y-153640000D01*
X100490302Y-155315000D02*
X100490302Y-154515000D01*
X108381000Y-153946000D02*
X108381000Y-151254000D01*
X108461000Y-153698000D02*
X108461000Y-151502000D01*
X107701000Y-151560000D02*
X107701000Y-150044000D01*
X106141000Y-151560000D02*
X106141000Y-148860000D01*
X107421000Y-151560000D02*
X107421000Y-149733000D01*
X105901000Y-156435000D02*
X105901000Y-148765000D01*
X104900000Y-156661000D02*
X104900000Y-148539000D01*
X107261000Y-151560000D02*
X107261000Y-149581000D01*
X107741000Y-155105000D02*
X107741000Y-153640000D01*
X105741000Y-156489000D02*
X105741000Y-148711000D01*
X107061000Y-151560000D02*
X107061000Y-149411000D01*
X105981000Y-156405000D02*
X105981000Y-153640000D01*
X106621000Y-151560000D02*
X106621000Y-149107000D01*
X106901000Y-151560000D02*
X106901000Y-149291000D01*
X105661000Y-156514000D02*
X105661000Y-148686000D01*
X105821000Y-156463000D02*
X105821000Y-148737000D01*
X107581000Y-155297000D02*
X107581000Y-153640000D01*
X106541000Y-156140000D02*
X106541000Y-153640000D01*
X107501000Y-155384000D02*
X107501000Y-153640000D01*
X106981000Y-151560000D02*
X106981000Y-149350000D01*
X105381000Y-156585000D02*
X105381000Y-148615000D01*
X105861000Y-156450000D02*
X105861000Y-148750000D01*
X105341000Y-156594000D02*
X105341000Y-148606000D01*
X107541000Y-155341000D02*
X107541000Y-153640000D01*
X105461000Y-156567000D02*
X105461000Y-148633000D01*
X108261000Y-154245000D02*
X108261000Y-150955000D01*
X106221000Y-156304000D02*
X106221000Y-153640000D01*
X107661000Y-151560000D02*
X107661000Y-149996000D01*
X106101000Y-151560000D02*
X106101000Y-148843000D01*
X107221000Y-151560000D02*
X107221000Y-149545000D01*
X107941000Y-151560000D02*
X107941000Y-150372000D01*
X106861000Y-151560000D02*
X106861000Y-149262000D01*
X107901000Y-154887000D02*
X107901000Y-153640000D01*
X105180000Y-156624000D02*
X105180000Y-148576000D01*
X106221000Y-151560000D02*
X106221000Y-148896000D01*
X104780000Y-156671000D02*
X104780000Y-148529000D01*
X108421000Y-153829000D02*
X108421000Y-151371000D01*
X108141000Y-154490000D02*
X108141000Y-150710000D01*
X107861000Y-154945000D02*
X107861000Y-153640000D01*
X106461000Y-156184000D02*
X106461000Y-153640000D01*
X108101000Y-154564000D02*
X108101000Y-150636000D01*
X105261000Y-156610000D02*
X105261000Y-148590000D01*
X105421000Y-156576000D02*
X105421000Y-148624000D01*
X106061000Y-151560000D02*
X106061000Y-148826000D01*
X108021000Y-151560000D02*
X108021000Y-150498000D01*
X107461000Y-151560000D02*
X107461000Y-149774000D01*
X108541000Y-153368000D02*
X108541000Y-151832000D01*
X107341000Y-151560000D02*
X107341000Y-149655000D01*
X106381000Y-156227000D02*
X106381000Y-153640000D01*
X107901000Y-151560000D02*
X107901000Y-150313000D01*
X107621000Y-155251000D02*
X107621000Y-153640000D01*
X104620000Y-156679000D02*
X104620000Y-148521000D01*
X106741000Y-156018000D02*
X106741000Y-153640000D01*
X106741000Y-151560000D02*
X106741000Y-149182000D01*
X106821000Y-151560000D02*
X106821000Y-149235000D01*
X106581000Y-151560000D02*
X106581000Y-149083000D01*
X105581000Y-156536000D02*
X105581000Y-148664000D01*
X106421000Y-151560000D02*
X106421000Y-148994000D01*
X104860000Y-156665000D02*
X104860000Y-148535000D01*
X107981000Y-154766000D02*
X107981000Y-153640000D01*
X106101000Y-156357000D02*
X106101000Y-153640000D01*
X106181000Y-156322000D02*
X106181000Y-153640000D01*
X106901000Y-155909000D02*
X106901000Y-153640000D01*
X108181000Y-154413000D02*
X108181000Y-150787000D01*
X104940000Y-156657000D02*
X104940000Y-148543000D01*
X105541000Y-156547000D02*
X105541000Y-148653000D01*
X106141000Y-156340000D02*
X106141000Y-153640000D01*
X107501000Y-151560000D02*
X107501000Y-149816000D01*
X107381000Y-155507000D02*
X107381000Y-153640000D01*
X106941000Y-155880000D02*
X106941000Y-153640000D01*
X107981000Y-151560000D02*
X107981000Y-150434000D01*
X106341000Y-156247000D02*
X106341000Y-153640000D01*
X106501000Y-151560000D02*
X106501000Y-149038000D01*
X106701000Y-156044000D02*
X106701000Y-153640000D01*
X106341000Y-151560000D02*
X106341000Y-148953000D01*
X106781000Y-151560000D02*
X106781000Y-149208000D01*
X107341000Y-155545000D02*
X107341000Y-153640000D01*
X106021000Y-156390000D02*
X106021000Y-153640000D01*
X105100000Y-156637000D02*
X105100000Y-148563000D01*
X106621000Y-156093000D02*
X106621000Y-153640000D01*
X106181000Y-151560000D02*
X106181000Y-148878000D01*
X107741000Y-151560000D02*
X107741000Y-150095000D01*
X108581000Y-153133000D02*
X108581000Y-152067000D01*
X107621000Y-151560000D02*
X107621000Y-149949000D01*
X104500000Y-156680000D02*
X104500000Y-148520000D01*
X107381000Y-151560000D02*
X107381000Y-149693000D01*
X108501000Y-153548000D02*
X108501000Y-151652000D01*
X106981000Y-155850000D02*
X106981000Y-153640000D01*
X104740000Y-156674000D02*
X104740000Y-148526000D01*
X107021000Y-155820000D02*
X107021000Y-153640000D01*
X107821000Y-151560000D02*
X107821000Y-150200000D01*
X106301000Y-151560000D02*
X106301000Y-148934000D01*
X108021000Y-154702000D02*
X108021000Y-153640000D01*
X107461000Y-155426000D02*
X107461000Y-153640000D01*
X106301000Y-156266000D02*
X106301000Y-153640000D01*
X105301000Y-156602000D02*
X105301000Y-148598000D01*
X107061000Y-155789000D02*
X107061000Y-153640000D01*
X106781000Y-155992000D02*
X106781000Y-153640000D01*
X107101000Y-151560000D02*
X107101000Y-149444000D01*
X108620000Y-152600000D02*
G75*
G03*
X108620000Y-152600000I-4120000J0D01*
G01*
%TO.C,C16*%
X121910000Y-114111252D02*
X121910000Y-112688748D01*
X120090000Y-114111252D02*
X120090000Y-112688748D01*
%TO.C,C18*%
X117490000Y-114111252D02*
X117490000Y-112688748D01*
X119310000Y-114111252D02*
X119310000Y-112688748D01*
%TO.C,C24*%
X114690000Y-119086252D02*
X114690000Y-117663748D01*
X116510000Y-119086252D02*
X116510000Y-117663748D01*
%TO.C,C36*%
X72926252Y-127815000D02*
X71503748Y-127815000D01*
X72926252Y-129635000D02*
X71503748Y-129635000D01*
%TO.C,C38*%
X72926252Y-125275000D02*
X71503748Y-125275000D01*
X72926252Y-127095000D02*
X71503748Y-127095000D01*
%TO.C,L9*%
X80499970Y-143220000D02*
G75*
G03*
X73090030Y-143220000I-3704970J-1560001D01*
G01*
X73090030Y-146340000D02*
G75*
G03*
X80499970Y-146340000I3704970J1560001D01*
G01*
%TO.C,L10*%
X80499970Y-133695000D02*
G75*
G03*
X73090030Y-133695000I-3704970J-1560001D01*
G01*
X73090030Y-136815000D02*
G75*
G03*
X80499970Y-136815000I3704970J1560001D01*
G01*
%TO.C,R21*%
X64690000Y-139210436D02*
X64690000Y-140664564D01*
X66510000Y-139210436D02*
X66510000Y-140664564D01*
%TO.C,R22*%
X66710000Y-129589564D02*
X66710000Y-128135436D01*
X64890000Y-129589564D02*
X64890000Y-128135436D01*
%TO.C,L5*%
X56660030Y-145070000D02*
G75*
G03*
X64069970Y-145070000I3704970J1560001D01*
G01*
X64069970Y-141950000D02*
G75*
G03*
X56660030Y-141950000I-3704970J-1560001D01*
G01*
%TO.C,L6*%
X57210332Y-136180000D02*
G75*
G03*
X64620272Y-136180000I3704970J1560001D01*
G01*
X64620272Y-133060000D02*
G75*
G03*
X57210332Y-133060000I-3704970J-1560001D01*
G01*
%TO.C,C9*%
X119110000Y-119086252D02*
X119110000Y-117663748D01*
X117290000Y-119086252D02*
X117290000Y-117663748D01*
%TO.C,C22*%
X116705000Y-114166252D02*
X116705000Y-112743748D01*
X114885000Y-114166252D02*
X114885000Y-112743748D01*
%TO.C,C3*%
X114110000Y-119036252D02*
X114110000Y-117613748D01*
X112290000Y-119036252D02*
X112290000Y-117613748D01*
%TO.C,C43*%
X88620000Y-110250000D02*
G75*
G03*
X88620000Y-110250000I-2620000J0D01*
G01*
X83545000Y-111051000D02*
X84960000Y-111051000D01*
X83652000Y-111331000D02*
X84960000Y-111331000D01*
X87040000Y-112131000D02*
X87785000Y-112131000D01*
X87040000Y-111331000D02*
X88348000Y-111331000D01*
X83878000Y-111731000D02*
X84960000Y-111731000D01*
X84902000Y-112611000D02*
X87098000Y-112611000D01*
X83520000Y-110971000D02*
X84960000Y-110971000D01*
X87040000Y-110490000D02*
X88569000Y-110490000D01*
X87040000Y-112091000D02*
X87826000Y-112091000D01*
X87040000Y-111451000D02*
X88290000Y-111451000D01*
X83444000Y-110610000D02*
X84960000Y-110610000D01*
X87040000Y-111251000D02*
X88382000Y-111251000D01*
X87040000Y-111691000D02*
X88149000Y-111691000D01*
X83431000Y-110490000D02*
X84960000Y-110490000D01*
X87040000Y-110730000D02*
X88536000Y-110730000D01*
X84822000Y-112571000D02*
X87178000Y-112571000D01*
X83420000Y-110290000D02*
X88580000Y-110290000D01*
X83558000Y-111091000D02*
X84960000Y-111091000D01*
X87040000Y-112411000D02*
X87443000Y-112411000D01*
X84136000Y-112051000D02*
X84960000Y-112051000D01*
X85716000Y-112851000D02*
X86284000Y-112851000D01*
X87040000Y-111811000D02*
X88065000Y-111811000D01*
X83424000Y-110410000D02*
X88576000Y-110410000D01*
X83996000Y-111891000D02*
X84960000Y-111891000D01*
X87040000Y-112051000D02*
X87864000Y-112051000D01*
X87040000Y-111651000D02*
X88175000Y-111651000D01*
X87040000Y-110810000D02*
X88520000Y-110810000D01*
X87040000Y-111211000D02*
X88398000Y-111211000D01*
X87040000Y-111971000D02*
X87937000Y-111971000D01*
X84749000Y-112531000D02*
X84960000Y-112531000D01*
X87040000Y-110890000D02*
X88501000Y-110890000D01*
X84446000Y-112331000D02*
X84960000Y-112331000D01*
X83602000Y-111211000D02*
X84960000Y-111211000D01*
X84029000Y-111931000D02*
X84960000Y-111931000D01*
X83421000Y-110330000D02*
X88579000Y-110330000D01*
X87040000Y-112211000D02*
X87699000Y-112211000D01*
X87040000Y-110690000D02*
X88543000Y-110690000D01*
X84215000Y-112131000D02*
X84960000Y-112131000D01*
X87040000Y-111371000D02*
X88329000Y-111371000D01*
X83935000Y-111811000D02*
X84960000Y-111811000D01*
X87040000Y-111491000D02*
X88268000Y-111491000D01*
X83825000Y-111651000D02*
X84960000Y-111651000D01*
X83586000Y-111171000D02*
X84960000Y-111171000D01*
X87040000Y-112331000D02*
X87554000Y-112331000D01*
X87040000Y-110971000D02*
X88480000Y-110971000D01*
X85323000Y-112771000D02*
X86677000Y-112771000D01*
X83427000Y-110450000D02*
X88573000Y-110450000D01*
X83776000Y-111571000D02*
X84960000Y-111571000D01*
X83420000Y-110250000D02*
X88580000Y-110250000D01*
X87040000Y-110650000D02*
X88550000Y-110650000D01*
X84301000Y-112211000D02*
X84960000Y-112211000D01*
X84275000Y-107695225D02*
X84775000Y-107695225D01*
X83457000Y-110690000D02*
X84960000Y-110690000D01*
X87040000Y-110570000D02*
X88561000Y-110570000D01*
X87040000Y-111531000D02*
X88247000Y-111531000D01*
X87040000Y-112171000D02*
X87743000Y-112171000D01*
X87040000Y-111851000D02*
X88035000Y-111851000D01*
X83905000Y-111771000D02*
X84960000Y-111771000D01*
X87040000Y-112531000D02*
X87251000Y-112531000D01*
X84257000Y-112171000D02*
X84960000Y-112171000D01*
X87040000Y-110770000D02*
X88528000Y-110770000D01*
X87040000Y-112011000D02*
X87901000Y-112011000D01*
X87040000Y-110930000D02*
X88491000Y-110930000D01*
X87040000Y-112451000D02*
X87383000Y-112451000D01*
X83532000Y-111011000D02*
X84960000Y-111011000D01*
X84174000Y-112091000D02*
X84960000Y-112091000D01*
X87040000Y-111611000D02*
X88200000Y-111611000D01*
X83710000Y-111451000D02*
X84960000Y-111451000D01*
X87040000Y-112251000D02*
X87653000Y-112251000D01*
X87040000Y-111931000D02*
X87971000Y-111931000D01*
X87040000Y-111411000D02*
X88310000Y-111411000D01*
X83965000Y-111851000D02*
X84960000Y-111851000D01*
X87040000Y-111731000D02*
X88122000Y-111731000D01*
X87040000Y-110610000D02*
X88556000Y-110610000D01*
X85085000Y-112691000D02*
X86915000Y-112691000D01*
X84099000Y-112011000D02*
X84960000Y-112011000D01*
X87040000Y-111011000D02*
X88468000Y-111011000D01*
X87040000Y-111171000D02*
X88414000Y-111171000D01*
X83480000Y-110810000D02*
X84960000Y-110810000D01*
X83851000Y-111691000D02*
X84960000Y-111691000D01*
X83732000Y-111491000D02*
X84960000Y-111491000D01*
X84347000Y-112251000D02*
X84960000Y-112251000D01*
X85195000Y-112731000D02*
X86805000Y-112731000D01*
X87040000Y-111131000D02*
X88428000Y-111131000D01*
X83450000Y-110650000D02*
X84960000Y-110650000D01*
X83509000Y-110930000D02*
X84960000Y-110930000D01*
X87040000Y-112371000D02*
X87500000Y-112371000D01*
X84500000Y-112371000D02*
X84960000Y-112371000D01*
X83499000Y-110890000D02*
X84960000Y-110890000D01*
X87040000Y-111571000D02*
X88224000Y-111571000D01*
X87040000Y-112491000D02*
X87319000Y-112491000D01*
X83489000Y-110850000D02*
X84960000Y-110850000D01*
X87040000Y-111291000D02*
X88365000Y-111291000D01*
X83472000Y-110770000D02*
X84960000Y-110770000D01*
X87040000Y-111771000D02*
X88095000Y-111771000D01*
X87040000Y-111091000D02*
X88442000Y-111091000D01*
X83422000Y-110370000D02*
X88578000Y-110370000D01*
X87040000Y-111051000D02*
X88455000Y-111051000D01*
X83464000Y-110730000D02*
X84960000Y-110730000D01*
X83618000Y-111251000D02*
X84960000Y-111251000D01*
X83753000Y-111531000D02*
X84960000Y-111531000D01*
X83635000Y-111291000D02*
X84960000Y-111291000D01*
X87040000Y-111891000D02*
X88004000Y-111891000D01*
X83671000Y-111371000D02*
X84960000Y-111371000D01*
X87040000Y-110850000D02*
X88511000Y-110850000D01*
X84557000Y-112411000D02*
X84960000Y-112411000D01*
X84989000Y-112651000D02*
X87011000Y-112651000D01*
X83439000Y-110570000D02*
X84960000Y-110570000D01*
X84617000Y-112451000D02*
X84960000Y-112451000D01*
X84395000Y-112291000D02*
X84960000Y-112291000D01*
X87040000Y-112291000D02*
X87605000Y-112291000D01*
X84063000Y-111971000D02*
X84960000Y-111971000D01*
X84525000Y-107445225D02*
X84525000Y-107945225D01*
X85482000Y-112811000D02*
X86518000Y-112811000D01*
X83572000Y-111131000D02*
X84960000Y-111131000D01*
X83690000Y-111411000D02*
X84960000Y-111411000D01*
X87040000Y-110530000D02*
X88565000Y-110530000D01*
X83800000Y-111611000D02*
X84960000Y-111611000D01*
X83435000Y-110530000D02*
X84960000Y-110530000D01*
X84681000Y-112491000D02*
X84960000Y-112491000D01*
%TO.C,C44*%
X79370000Y-114000000D02*
G75*
G03*
X79370000Y-114000000I-2620000J0D01*
G01*
X79031000Y-115251000D02*
X79031000Y-115040000D01*
X77591000Y-116442000D02*
X77591000Y-115040000D01*
X77631000Y-112960000D02*
X77631000Y-111572000D01*
X77591000Y-112960000D02*
X77591000Y-111558000D01*
X79311000Y-114518000D02*
X79311000Y-113482000D01*
X77471000Y-112960000D02*
X77471000Y-111520000D01*
X78751000Y-112960000D02*
X78751000Y-112347000D01*
X77030000Y-112960000D02*
X77030000Y-111435000D01*
X77390000Y-116501000D02*
X77390000Y-115040000D01*
X78351000Y-116035000D02*
X78351000Y-115040000D01*
X78311000Y-112960000D02*
X78311000Y-111935000D01*
X78071000Y-112960000D02*
X78071000Y-111776000D01*
X78311000Y-116065000D02*
X78311000Y-115040000D01*
X78831000Y-112960000D02*
X78831000Y-112446000D01*
X77110000Y-112960000D02*
X77110000Y-111444000D01*
X78031000Y-116247000D02*
X78031000Y-115040000D01*
X77951000Y-112960000D02*
X77951000Y-111710000D01*
X74195225Y-115725000D02*
X74195225Y-115225000D01*
X77150000Y-116550000D02*
X77150000Y-115040000D01*
X77030000Y-116565000D02*
X77030000Y-115040000D01*
X78991000Y-115319000D02*
X78991000Y-115040000D01*
X77390000Y-112960000D02*
X77390000Y-111499000D01*
X77150000Y-112960000D02*
X77150000Y-111450000D01*
X73945225Y-115475000D02*
X74445225Y-115475000D01*
X77711000Y-112960000D02*
X77711000Y-111602000D01*
X76870000Y-116578000D02*
X76870000Y-111422000D01*
X78271000Y-112960000D02*
X78271000Y-111905000D01*
X78711000Y-115699000D02*
X78711000Y-115040000D01*
X77310000Y-112960000D02*
X77310000Y-111480000D01*
X76790000Y-116580000D02*
X76790000Y-111420000D01*
X78951000Y-112960000D02*
X78951000Y-112617000D01*
X78711000Y-112960000D02*
X78711000Y-112301000D01*
X78231000Y-112960000D02*
X78231000Y-111878000D01*
X78431000Y-112960000D02*
X78431000Y-112029000D01*
X77711000Y-116398000D02*
X77711000Y-115040000D01*
X77551000Y-112960000D02*
X77551000Y-111545000D01*
X78511000Y-115901000D02*
X78511000Y-115040000D01*
X76950000Y-116573000D02*
X76950000Y-111427000D01*
X77270000Y-116528000D02*
X77270000Y-115040000D01*
X78951000Y-115383000D02*
X78951000Y-115040000D01*
X77791000Y-112960000D02*
X77791000Y-111635000D01*
X77751000Y-116382000D02*
X77751000Y-115040000D01*
X79231000Y-114805000D02*
X79231000Y-113195000D01*
X78391000Y-116004000D02*
X78391000Y-115040000D01*
X78471000Y-115937000D02*
X78471000Y-115040000D01*
X77791000Y-116365000D02*
X77791000Y-115040000D01*
X76990000Y-116569000D02*
X76990000Y-115040000D01*
X78791000Y-112960000D02*
X78791000Y-112395000D01*
X78071000Y-116224000D02*
X78071000Y-115040000D01*
X78431000Y-115971000D02*
X78431000Y-115040000D01*
X77831000Y-116348000D02*
X77831000Y-115040000D01*
X77350000Y-116511000D02*
X77350000Y-115040000D01*
X78591000Y-115826000D02*
X78591000Y-115040000D01*
X77270000Y-112960000D02*
X77270000Y-111472000D01*
X77991000Y-116268000D02*
X77991000Y-115040000D01*
X78191000Y-116149000D02*
X78191000Y-115040000D01*
X77671000Y-116414000D02*
X77671000Y-115040000D01*
X78031000Y-112960000D02*
X78031000Y-111753000D01*
X78111000Y-112960000D02*
X78111000Y-111800000D01*
X78871000Y-115500000D02*
X78871000Y-115040000D01*
X78791000Y-115605000D02*
X78791000Y-115040000D01*
X78271000Y-116095000D02*
X78271000Y-115040000D01*
X77230000Y-112960000D02*
X77230000Y-111464000D01*
X78671000Y-112960000D02*
X78671000Y-112257000D01*
X76910000Y-116576000D02*
X76910000Y-111424000D01*
X78751000Y-115653000D02*
X78751000Y-115040000D01*
X78151000Y-112960000D02*
X78151000Y-111825000D01*
X77310000Y-116520000D02*
X77310000Y-115040000D01*
X78671000Y-115743000D02*
X78671000Y-115040000D01*
X77751000Y-112960000D02*
X77751000Y-111618000D01*
X77911000Y-116310000D02*
X77911000Y-115040000D01*
X78631000Y-112960000D02*
X78631000Y-112215000D01*
X77070000Y-116561000D02*
X77070000Y-115040000D01*
X77230000Y-116536000D02*
X77230000Y-115040000D01*
X78471000Y-112960000D02*
X78471000Y-112063000D01*
X77871000Y-112960000D02*
X77871000Y-111671000D01*
X77551000Y-116455000D02*
X77551000Y-115040000D01*
X77671000Y-112960000D02*
X77671000Y-111586000D01*
X78831000Y-115554000D02*
X78831000Y-115040000D01*
X77511000Y-112960000D02*
X77511000Y-111532000D01*
X78111000Y-116200000D02*
X78111000Y-115040000D01*
X77430000Y-112960000D02*
X77430000Y-111509000D01*
X77430000Y-116491000D02*
X77430000Y-115040000D01*
X78631000Y-115785000D02*
X78631000Y-115040000D01*
X76830000Y-116579000D02*
X76830000Y-111421000D01*
X77350000Y-112960000D02*
X77350000Y-111489000D01*
X78351000Y-112960000D02*
X78351000Y-111965000D01*
X78191000Y-112960000D02*
X78191000Y-111851000D01*
X78911000Y-115443000D02*
X78911000Y-115040000D01*
X77631000Y-116428000D02*
X77631000Y-115040000D01*
X78991000Y-112960000D02*
X78991000Y-112681000D01*
X79351000Y-114284000D02*
X79351000Y-113716000D01*
X78591000Y-112960000D02*
X78591000Y-112174000D01*
X77831000Y-112960000D02*
X77831000Y-111652000D01*
X79111000Y-115098000D02*
X79111000Y-112902000D01*
X77951000Y-116290000D02*
X77951000Y-115040000D01*
X79191000Y-114915000D02*
X79191000Y-113085000D01*
X77190000Y-112960000D02*
X77190000Y-111457000D01*
X78231000Y-116122000D02*
X78231000Y-115040000D01*
X79071000Y-115178000D02*
X79071000Y-112822000D01*
X78151000Y-116175000D02*
X78151000Y-115040000D01*
X78911000Y-112960000D02*
X78911000Y-112557000D01*
X76990000Y-112960000D02*
X76990000Y-111431000D01*
X78511000Y-112960000D02*
X78511000Y-112099000D01*
X78551000Y-112960000D02*
X78551000Y-112136000D01*
X78391000Y-112960000D02*
X78391000Y-111996000D01*
X77190000Y-116543000D02*
X77190000Y-115040000D01*
X76750000Y-116580000D02*
X76750000Y-111420000D01*
X77511000Y-116468000D02*
X77511000Y-115040000D01*
X78551000Y-115864000D02*
X78551000Y-115040000D01*
X79031000Y-112960000D02*
X79031000Y-112749000D01*
X77110000Y-116556000D02*
X77110000Y-115040000D01*
X79271000Y-114677000D02*
X79271000Y-113323000D01*
X77871000Y-116329000D02*
X77871000Y-115040000D01*
X78871000Y-112960000D02*
X78871000Y-112500000D01*
X77471000Y-116480000D02*
X77471000Y-115040000D01*
X77991000Y-112960000D02*
X77991000Y-111732000D01*
X77070000Y-112960000D02*
X77070000Y-111439000D01*
X79151000Y-115011000D02*
X79151000Y-112989000D01*
X77911000Y-112960000D02*
X77911000Y-111690000D01*
%TO.C,D7*%
X89440000Y-140000000D02*
X89440000Y-139350000D01*
X89440000Y-140000000D02*
X89440000Y-140650000D01*
X92560000Y-140000000D02*
X92560000Y-139350000D01*
X92560000Y-140000000D02*
X92560000Y-141675000D01*
%TO.C,D8*%
X84660000Y-141000000D02*
X84660000Y-141650000D01*
X81540000Y-141000000D02*
X81540000Y-139325000D01*
X84660000Y-141000000D02*
X84660000Y-140350000D01*
X81540000Y-141000000D02*
X81540000Y-141650000D01*
%TO.C,C45*%
X52111252Y-141310000D02*
X50688748Y-141310000D01*
X52111252Y-139490000D02*
X50688748Y-139490000D01*
%TO.C,C46*%
X52111252Y-143910000D02*
X50688748Y-143910000D01*
X52111252Y-142090000D02*
X50688748Y-142090000D01*
%TO.C,C47*%
X59986252Y-154910000D02*
X58563748Y-154910000D01*
X59986252Y-153090000D02*
X58563748Y-153090000D01*
%TO.C,C48*%
X59986252Y-152510000D02*
X58563748Y-152510000D01*
X59986252Y-150690000D02*
X58563748Y-150690000D01*
%TD*%
M02*
