M48
; DRILL file {KiCad (6.0.10)} date Mon Feb 20 15:55:59 2023
; FORMAT={-:-/ absolute / inch / decimal}
; #@! TF.CreationDate,2023-02-20T15:55:59-05:00
; #@! TF.GenerationSoftware,Kicad,Pcbnew,(6.0.10)
; #@! TF.FileFunction,Plated,1,2,PTH
FMAT,2
INCH
; #@! TA.AperFunction,Plated,PTH,ViaDrill
T1C0.0157
; #@! TA.AperFunction,Plated,PTH,ComponentDrill
T2C0.0197
; #@! TA.AperFunction,Plated,PTH,ComponentDrill
T3C0.0315
; #@! TA.AperFunction,Plated,PTH,ComponentDrill
T4C0.0394
; #@! TA.AperFunction,Plated,PTH,ComponentDrill
T5C0.0433
; #@! TA.AperFunction,Plated,PTH,ComponentDrill
T6C0.0500
; #@! TA.AperFunction,Plated,PTH,ComponentDrill
T7C0.0512
; #@! TA.AperFunction,Plated,PTH,ComponentDrill
T8C0.0600
; #@! TA.AperFunction,Plated,PTH,ComponentDrill
T9C0.0630
%
G90
G05
T1
X1.874Y-5.5354
X2.1Y-4.6
X2.1457Y-5.8661
X2.175Y-4.6
X2.2Y-5.4
X2.25Y-4.225
X2.25Y-4.45
X2.25Y-4.6
X2.2638Y-6.2992
X2.28Y-5.52
X2.2835Y-4.7244
X2.2835Y-4.8031
X2.2835Y-4.8819
X2.3Y-5.4
X2.325Y-3.75
X2.325Y-3.825
X2.325Y-3.9
X2.325Y-3.975
X2.325Y-4.225
X2.325Y-4.45
X2.325Y-4.6
X2.3386Y-5.9764
X2.38Y-5.52
X2.38Y-5.62
X2.38Y-5.72
X2.38Y-5.82
X2.3819Y-4.7244
X2.3819Y-4.8031
X2.3819Y-4.8819
X2.4Y-4.225
X2.4Y-4.45
X2.4Y-4.6
X2.4Y-5.02
X2.4Y-5.12
X2.4Y-5.22
X2.4Y-5.32
X2.4Y-5.4
X2.4606Y-6.2992
X2.475Y-4.225
X2.475Y-4.45
X2.475Y-4.6
X2.48Y-5.52
X2.4803Y-4.7244
X2.4803Y-4.8031
X2.4803Y-4.8819
X2.5Y-4.05
X2.5Y-5.4
X2.5Y-5.9646
X2.5Y-6.0827
X2.52Y-5.76
X2.52Y-5.86
X2.55Y-4.225
X2.55Y-4.3
X2.55Y-4.375
X2.55Y-4.45
X2.5591Y-6.2992
X2.575Y-4.05
X2.5787Y-4.7244
X2.5787Y-4.8031
X2.5787Y-4.8819
X2.5984Y-5.9646
X2.5984Y-6.0827
X2.6032Y-5.8063
X2.65Y-4.05
X2.65Y-4.275
X2.6575Y-5.1181
X2.6575Y-5.315
X2.6575Y-6.2992
X2.6772Y-4.7244
X2.6772Y-4.8031
X2.6772Y-4.8819
X2.6969Y-5.9646
X2.6969Y-6.0827
X2.7Y-3.775
X2.7032Y-5.8063
X2.725Y-3.925
X2.725Y-4.05
X2.748Y-5.122
X2.7559Y-5.315
X2.7559Y-6.2992
X2.775Y-3.775
X2.775Y-4.25
X2.775Y-4.35
X2.775Y-4.425
X2.7756Y-4.7244
X2.7756Y-4.8031
X2.7756Y-4.8819
X2.7756Y-5.9646
X2.7953Y-6.0827
X2.8Y-3.925
X2.8032Y-5.8063
X2.82Y-5.42
X2.85Y-3.775
X2.85Y-4.025
X2.8543Y-5.0197
X2.8543Y-5.1181
X2.8543Y-6.2992
X2.86Y-5.78
X2.86Y-5.88
X2.86Y-5.98
X2.86Y-6.08
X2.874Y-4.7244
X2.874Y-4.8031
X2.874Y-4.8819
X2.875Y-3.925
X2.92Y-5.42
X2.925Y-3.775
X2.95Y-3.925
X2.9528Y-6.2992
X2.9724Y-4.7244
X2.9724Y-4.8031
X2.9724Y-4.8819
X2.9921Y-6.0236
X2.9921Y-6.1417
X3.02Y-5.42
X3.02Y-5.52
X3.02Y-5.6
X3.0224Y-5.0245
X3.0224Y-5.1245
X3.0224Y-5.2245
X3.0323Y-5.7824
X3.0323Y-5.8824
X3.0323Y-5.9824
X3.0512Y-6.2992
X3.0709Y-4.7244
X3.0709Y-4.8031
X3.0709Y-4.8819
X3.075Y-4.025
X3.0906Y-6.0236
X3.0906Y-6.1417
X3.1102Y-4.2913
X3.12Y-5.42
X3.12Y-5.6
X3.1496Y-6.2992
X3.1693Y-4.7244
X3.1693Y-4.8031
X3.1693Y-4.8819
X3.175Y-3.925
X3.175Y-4.25
X3.175Y-4.325
X3.175Y-4.4
X3.189Y-4.9606
X3.189Y-5.0591
X3.189Y-6.0236
X3.189Y-6.1417
X3.2087Y-5.1181
X3.2087Y-5.1969
X3.2087Y-5.2756
X3.22Y-5.52
X3.22Y-5.78
X3.22Y-5.88
X3.22Y-5.98
X3.22Y-6.08
X3.248Y-6.2992
X3.25Y-3.65
X3.25Y-3.725
X3.25Y-3.8
X3.25Y-3.875
X3.2598Y-5.3354
X3.2677Y-4.7244
X3.2677Y-4.8031
X3.2677Y-4.8819
X3.2677Y-4.9606
X3.2677Y-5.0591
X3.2677Y-6.0236
X3.2874Y-6.1417
X3.3071Y-4.5276
X3.3071Y-5.1181
X3.3071Y-5.1969
X3.3071Y-5.2756
X3.32Y-5.52
X3.325Y-4.025
X3.3465Y-4.9606
X3.3465Y-5.0591
X3.3465Y-6.2992
X3.3661Y-4.7244
X3.3661Y-4.8031
X3.3661Y-4.8819
X3.3661Y-5.5512
X3.3858Y-5.4724
X3.3898Y-4.126
X3.4055Y-4.9606
X3.4055Y-5.0591
X3.4252Y-5.5512
X3.4449Y-5.4724
X3.4449Y-6.2992
X3.4646Y-4.7244
X3.4646Y-4.8031
X3.4646Y-4.8819
X3.4843Y-4.9606
X3.4843Y-5.0591
X3.4843Y-5.4724
X3.5039Y-5.5512
X3.5178Y-5.8351
X3.5433Y-6.2992
X3.563Y-3.3268
X3.563Y-4.7244
X3.563Y-4.8031
X3.563Y-4.8819
X3.563Y-4.9606
X3.563Y-5.0591
X3.563Y-5.1181
X3.563Y-5.1969
X3.563Y-5.2756
X3.6Y-5.7
X3.6178Y-5.8351
X3.6417Y-4.9705
X3.6417Y-6.2992
X3.6614Y-3.3268
X3.6614Y-4.7244
X3.6614Y-4.8031
X3.6614Y-4.8819
X3.6614Y-5.1181
X3.6614Y-5.1969
X3.6614Y-5.2756
X3.6819Y-3.7237
X3.6819Y-3.8237
X3.6819Y-3.9237
X3.7Y-5.7
X3.7008Y-5.4331
X3.7178Y-5.8351
X3.7205Y-4.9705
X3.7205Y-6.2992
X3.7598Y-3.3268
X3.7598Y-4.2323
X3.7598Y-4.3307
X3.7598Y-4.4291
X3.7598Y-4.5276
X3.7598Y-4.626
X3.7598Y-4.9016
X3.7598Y-5.1181
X3.7598Y-5.1969
X3.7598Y-5.2756
X3.7992Y-5.378
X3.7992Y-5.8071
X3.7992Y-5.9055
X3.7992Y-6.0039
X3.7992Y-6.1024
X3.7992Y-6.2008
X3.7992Y-6.2992
X3.8Y-5.7
X3.8189Y-4.2323
X3.8189Y-4.3307
X3.8189Y-4.4291
X3.8189Y-4.5276
X3.8189Y-4.626
X3.8197Y-3.804
X3.8583Y-3.3268
X3.8583Y-4.9803
X3.8583Y-5.1181
X3.8583Y-5.1969
X3.8583Y-5.2756
X3.8701Y-5.5039
X3.8701Y-5.563
X3.8701Y-5.6299
X3.8976Y-4.2323
X3.8976Y-4.3307
X3.8976Y-4.4291
X3.8976Y-4.5276
X3.8976Y-4.626
X3.9173Y-5.8071
X3.9173Y-5.9055
X3.9173Y-6.0039
X3.9173Y-6.1024
X3.9173Y-6.1811
X3.9173Y-6.2992
X3.94Y-5.74
X3.9488Y-5.4449
X3.9567Y-3.3268
X3.9567Y-4.2323
X3.9567Y-4.3307
X3.9567Y-4.4291
X3.9567Y-4.5276
X3.9567Y-4.626
X3.9567Y-4.7244
X3.9567Y-4.8228
X3.9567Y-4.9213
X3.9567Y-5.0197
X3.9567Y-5.1181
X3.9567Y-5.2165
X4.0157Y-5.8071
X4.0157Y-5.9055
X4.0157Y-6.1024
X4.0157Y-6.1811
X4.0157Y-6.2992
X4.0551Y-3.3268
X4.0591Y-4.0748
X4.063Y-5.4213
X4.0669Y-5.7795
X4.0748Y-5.6201
X4.0787Y-4.5709
X4.0787Y-4.6709
X4.0844Y-4.7452
X4.0846Y-5.4724
X4.0866Y-5.3465
X4.1102Y-4.4724
X4.1142Y-5.8071
X4.1142Y-5.9055
X4.1142Y-6.0039
X4.1142Y-6.1024
X4.1142Y-6.1811
X4.1142Y-6.2992
X4.122Y-4.2992
X4.1535Y-3.3268
X4.1535Y-5.6693
X4.1732Y-5.0197
X4.1732Y-5.2323
X4.1757Y-4.9291
X4.1757Y-5.122
X4.1772Y-4.8701
X4.189Y-4.1378
X4.1969Y-4.6181
X4.2101Y-4.0182
X4.2126Y-6.1811
X4.2126Y-6.2992
X4.2323Y-5.6693
X4.252Y-3.3268
X4.26Y-5.92
X4.2618Y-5.6201
X4.2913Y-4.8622
X4.2992Y-4.2598
X4.3Y-5.66
X4.311Y-5.7677
X4.311Y-6.0827
X4.311Y-6.1811
X4.311Y-6.2992
X4.3504Y-3.3268
X4.3504Y-4.0354
X4.3701Y-3.878
X4.3701Y-4.8622
X4.3791Y-3.5747
X4.3791Y-3.6747
X4.3791Y-3.7747
X4.3898Y-5.7677
X4.3976Y-4.3425
X4.4Y-5.66
X4.4094Y-5.8661
X4.4094Y-6.0827
X4.4094Y-6.1811
X4.4094Y-6.2992
X4.4291Y-4.8228
X4.4291Y-4.9409
X4.4291Y-5.0394
X4.4291Y-5.1181
X4.4291Y-5.1969
X4.4488Y-3.3268
X4.4685Y-3.563
X4.4685Y-3.6614
X4.4685Y-3.7598
X4.4685Y-3.878
X4.4882Y-4.8819
X4.4882Y-5.8661
X4.5039Y-4.5694
X4.5079Y-4.8228
X4.5079Y-5.0394
X4.5079Y-5.1181
X4.5079Y-5.1969
X4.5079Y-6.0827
X4.5079Y-6.1811
X4.5079Y-6.2992
X4.5354Y-4.0276
X4.5472Y-3.3268
X4.5472Y-3.7598
X4.5472Y-4.2323
X4.5536Y-3.6508
X4.56Y-5.92
X4.5669Y-3.878
X4.5866Y-4.8228
X4.6063Y-6.0827
X4.6063Y-6.1811
X4.6063Y-6.2992
X4.64Y-5.92
X4.6457Y-3.3268
X4.6457Y-3.9764
X4.6496Y-4.3712
X4.66Y-5.38
X4.685Y-4.9803
X4.685Y-5.0591
X4.685Y-5.1378
X4.685Y-5.2165
X4.7047Y-6.0827
X4.7047Y-6.1811
X4.7047Y-6.2992
X4.7283Y-5.7008
X4.7323Y-4.3189
X4.74Y-5.92
X4.7402Y-4.9016
X4.7441Y-3.3268
X4.7638Y-4.7283
X4.7638Y-4.9803
X4.7638Y-5.0591
X4.7638Y-5.1378
X4.7638Y-5.2165
X4.7953Y-5.5866
X4.8031Y-6.0827
X4.8031Y-6.1811
X4.8031Y-6.2992
X4.8386Y-4.4764
X4.84Y-5.44
X4.84Y-5.92
X4.8819Y-4.1142
X4.8819Y-4.8425
X4.8819Y-4.9606
X4.9016Y-6.2992
X4.94Y-5.44
X4.9409Y-3.3268
X4.9606Y-4.315
X4.9646Y-4.685
X4.9803Y-4.8425
X5.0Y-4.5276
X5.0Y-4.9606
X5.0Y-6.2992
X5.0394Y-3.563
X5.0394Y-3.6614
X5.0394Y-3.7598
X5.0394Y-5.8661
X5.0591Y-4.1929
X5.0591Y-4.4291
X5.0984Y-6.2992
X5.1082Y-4.7254
X5.1082Y-4.7854
X5.1082Y-4.8654
X5.126Y-4.3661
X5.1378Y-4.4291
X5.1413Y-5.0795
X5.1969Y-5.8858
X5.24Y-5.34
X5.24Y-5.44
X5.24Y-5.54
X5.24Y-5.64
X5.2413Y-5.0795
X5.2756Y-5.8858
X5.325Y-5.6
X5.4528Y-4.5079
X5.4528Y-4.6063
X5.4528Y-4.7047
X5.4528Y-4.8031
X5.4528Y-4.9016
X5.4528Y-5.0
X5.4528Y-5.0984
X5.4528Y-5.1969
X5.4528Y-5.2953
X5.4528Y-5.3937
X5.4528Y-5.4921
X5.4528Y-5.5906
X5.4528Y-5.689
X5.4528Y-5.8858
T2
X4.0157Y-5.315
X4.2014Y-5.3935
X4.4724Y-4.2047
X4.685Y-6.0236
X4.7638Y-4.2047
X4.8307Y-5.8189
T3
X2.9724Y-4.4882
X3.0709Y-4.4882
X3.2441Y-4.0157
X3.3858Y-4.2913
X3.3858Y-4.3898
X3.4409Y-4.0157
X3.5827Y-4.0157
X3.7795Y-4.0157
X4.0157Y-6.0079
X4.2126Y-6.0079
X4.362Y-6.0079
X4.5588Y-6.0079
T5
X2.9449Y-4.5984
X3.0449Y-4.5984
X3.1449Y-4.5984
X3.3701Y-4.5984
X3.4701Y-4.5984
X3.5701Y-4.5984
T6
X1.9695Y-5.2608
X1.9695Y-5.938
X4.125Y-3.6508
X4.7963Y-3.6508
T7
X2.2781Y-5.65
X2.2998Y-5.3
X2.475Y-5.65
X2.4967Y-5.3
X2.7Y-5.0031
X2.7Y-5.2
X2.7Y-5.4031
X2.7Y-5.6
X2.925Y-5.325
X2.925Y-5.7
X3.1219Y-5.325
X3.1219Y-5.7
X5.125Y-5.0
X5.125Y-5.1969
X5.125Y-5.35
X5.125Y-5.5469
T8
X1.8445Y-5.1358
X1.8445Y-5.3858
X1.8445Y-5.813
X1.8445Y-6.063
X2.0945Y-5.1358
X2.0945Y-5.3858
X2.0945Y-5.813
X2.0945Y-6.063
X4.0Y-3.5258
X4.0Y-3.7758
X4.25Y-3.5258
X4.25Y-3.7758
X4.6713Y-3.5258
X4.6713Y-3.7758
X4.9213Y-3.5258
X4.9213Y-3.7758
T9
X2.0Y-4.15
X2.0Y-4.35
X2.0Y-4.55
T4
G00X2.415Y-3.4925
M15
G01X2.415Y-3.5713
M16
G05
G00X2.6394Y-3.4138
M15
G01X2.5606Y-3.4138
M16
G05
G00X2.6394Y-3.65
M15
G01X2.5606Y-3.65
M16
G05
G00X2.95Y-3.5106
M15
G01X2.95Y-3.5894
M16
G05
G00X3.1744Y-3.4319
M15
G01X3.0957Y-3.4319
M16
G05
G00X3.1744Y-3.6681
M15
G01X3.0957Y-3.6681
M16
G05
T0
M30
