M48
; DRILL file {KiCad (6.0.10)} date Mon Feb 20 13:08:29 2023
; FORMAT={-:-/ absolute / inch / decimal}
; #@! TF.CreationDate,2023-02-20T13:08:29-05:00
; #@! TF.GenerationSoftware,Kicad,Pcbnew,(6.0.10)
; #@! TF.FileFunction,Plated,1,2,PTH
FMAT,2
INCH
; #@! TA.AperFunction,Plated,PTH,ViaDrill
T1C0.0157
; #@! TA.AperFunction,Plated,PTH,ComponentDrill
T2C0.0315
; #@! TA.AperFunction,Plated,PTH,ComponentDrill
T3C0.0354
; #@! TA.AperFunction,Plated,PTH,ComponentDrill
T4C0.0394
; #@! TA.AperFunction,Plated,PTH,ComponentDrill
T5C0.0433
; #@! TA.AperFunction,Plated,PTH,ComponentDrill
T6C0.0472
; #@! TA.AperFunction,Plated,PTH,ComponentDrill
T7C0.0500
; #@! TA.AperFunction,Plated,PTH,ComponentDrill
T8C0.0512
; #@! TA.AperFunction,Plated,PTH,ComponentDrill
T9C0.0598
; #@! TA.AperFunction,Plated,PTH,ComponentDrill
T10C0.0600
; #@! TA.AperFunction,Plated,PTH,ComponentDrill
T11C0.1693
%
G90
G05
T1
X3.4252Y-0.9449
X3.4252Y-1.063
X3.4252Y-1.1811
X3.4252Y-1.2992
X3.4252Y-1.4173
X3.4252Y-1.5354
X3.4252Y-1.6535
X3.4252Y-1.7717
X3.4252Y-1.8898
X3.4252Y-2.0079
X3.4252Y-2.126
X3.4252Y-2.2441
X3.4252Y-2.3622
X3.4252Y-2.7559
X3.4252Y-2.874
X3.4252Y-2.9921
X3.4252Y-3.1102
X3.4252Y-3.2283
X3.4252Y-3.3465
X3.4252Y-3.4646
X3.8819Y-1.7953
X4.124Y-3.8681
X4.126Y-1.7795
X4.1339Y-3.2874
X4.1535Y-3.9567
X4.1575Y-3.5197
X4.1575Y-3.6299
X4.1732Y-2.5984
X4.1732Y-2.7165
X4.1732Y-2.8346
X4.1969Y-3.0394
X4.2126Y-2.4803
X4.2283Y-3.7638
X4.2913Y-3.0709
X4.2913Y-3.5591
X4.2913Y-3.6378
X4.3307Y-2.0079
X4.3307Y-2.126
X4.3307Y-2.3622
X4.3465Y-4.315
X4.3543Y-1.9134
X4.3701Y-4.0551
X4.378Y-3.3386
X4.378Y-3.7874
X4.4094Y-2.5984
X4.4094Y-2.7165
X4.4094Y-2.8346
X4.4094Y-3.5827
X4.4803Y-3.8031
X4.4882Y-2.0079
X4.4882Y-2.126
X4.4882Y-2.2835
X4.4882Y-2.4803
X4.4961Y-1.937
X4.5039Y-3.1811
X4.5039Y-4.0866
X4.5374Y-3.9685
X4.5433Y-3.6299
X4.5433Y-4.2283
X4.5512Y-3.3228
X4.5669Y-1.8701
X4.5984Y-3.0236
X4.5984Y-3.9449
X4.6063Y-2.3622
X4.6142Y-3.3386
X4.6142Y-3.6299
X4.685Y-2.0079
X4.7244Y-1.8701
X4.7559Y-4.2441
X4.7874Y-3.3228
X4.7933Y-3.5315
X4.7953Y-3.2283
X4.7953Y-3.8583
X4.811Y-3.4016
X4.8504Y-3.6929
X4.8583Y-3.9921
X4.8976Y-3.6299
X4.8976Y-3.9449
X4.9055Y-3.0551
X4.9134Y-3.3858
X4.9134Y-3.4567
X4.9213Y-2.0472
X4.9291Y-4.2598
X4.937Y-3.6417
X4.9409Y-2.2244
X4.9449Y-3.2756
X4.9449Y-3.7953
X4.9449Y-3.874
X4.9528Y-4.1024
X4.9606Y-3.126
X4.9606Y-3.4488
X4.9685Y-3.7165
X4.9873Y-3.2568
X5.0Y-3.8898
X5.0236Y-4.0157
X5.0866Y-3.1732
X5.1181Y-3.7323
X5.1575Y-1.7323
X5.1575Y-1.9291
X5.1811Y-3.1102
X5.1831Y-3.2539
X5.2008Y-3.8327
X5.2126Y-3.7244
X5.2205Y-4.2677
X5.2362Y-3.5591
X5.2598Y-4.2126
X5.2756Y-1.7323
X5.2756Y-1.9291
X5.3071Y-3.1811
X5.3071Y-3.5039
X5.315Y-4.0472
X5.3228Y-3.3622
X5.3465Y-4.2913
X5.3543Y-1.6929
X5.3543Y-1.9291
X5.4331Y-1.6142
X5.4331Y-1.8898
X5.4724Y-1.8504
X5.5118Y-1.5354
X5.5118Y-1.811
X5.5177Y-3.313
X5.5197Y-3.1811
X5.5197Y-4.1654
X5.5354Y-3.5413
X5.5492Y-3.9449
X5.5512Y-1.7717
X5.5906Y-1.4567
X5.5906Y-1.7323
X5.6299Y-1.6929
X5.7087Y-1.4567
X5.8169Y-2.1063
X5.8268Y-1.4567
X5.8346Y-3.6811
X5.8661Y-2.1063
X5.8661Y-3.7795
X5.8858Y-1.8898
X5.8858Y-2.9331
X5.8858Y-3.0118
X5.8858Y-3.2874
X5.9252Y-3.3661
X5.9291Y-3.6811
X5.937Y-3.7913
X5.9449Y-1.4567
X5.9449Y-2.3622
X5.9528Y-2.5827
X5.9646Y-3.2874
X5.9843Y-2.9331
X5.9843Y-3.0118
X6.0Y-3.8465
X6.0197Y-3.6811
X6.0236Y-2.3622
X6.0236Y-2.9134
X6.0236Y-2.9724
X6.0236Y-3.4055
X6.0531Y-2.1555
X6.0551Y-2.5827
X6.063Y-1.4567
X6.063Y-2.0079
X6.063Y-3.1496
X6.063Y-3.2283
X6.063Y-3.3268
X6.0669Y-3.7205
X6.0827Y-3.8701
X6.1024Y-1.9291
X6.1024Y-2.4606
X6.1024Y-3.7598
X6.1181Y-4.2795
X6.122Y-2.3622
X6.122Y-2.5394
X6.122Y-2.6378
X6.122Y-3.5827
X6.1417Y-4.1181
X6.1417Y-4.4488
X6.1516Y-1.9291
X6.1575Y-3.8661
X6.1614Y-2.4803
X6.1811Y-1.4567
X6.1811Y-2.3228
X6.1811Y-2.5984
X6.2106Y-1.8898
X6.2402Y-3.5827
X6.2598Y-2.1555
X6.2598Y-4.1102
X6.2795Y-1.6142
X6.2913Y-3.7559
X6.2992Y-1.4567
X6.2992Y-1.9685
X6.2992Y-2.0374
X6.2992Y-2.5984
X6.3091Y-1.7224
X6.3189Y-2.3819
X6.3228Y-3.6142
X6.3386Y-2.3228
X6.3386Y-2.4409
X6.3681Y-1.752
X6.3681Y-3.2972
X6.378Y-2.4016
X6.378Y-2.5
X6.378Y-4.0984
X6.3976Y-3.3465
X6.4173Y-1.7717
X6.4409Y-3.811
X6.4567Y-1.8701
X6.4567Y-3.4055
X6.4862Y-1.6831
X6.4862Y-1.998
X6.5118Y-4.0945
X6.5256Y-3.1398
X6.5276Y-3.8031
X6.5453Y-2.1457
X6.5748Y-1.8996
X6.5846Y-3.189
X6.6043Y-1.9685
X6.6181Y-4.3346
X6.6437Y-3.1988
X6.6535Y-1.378
X6.6654Y-4.1811
X6.6929Y-2.5197
X6.6929Y-2.6378
X6.6929Y-2.874
X6.6929Y-2.9921
X6.6929Y-3.1102
X6.7028Y-3.1988
X6.7028Y-3.2776
X6.7028Y-3.3957
X6.7087Y-3.9843
X6.811Y-1.063
X6.811Y-2.3622
X6.811Y-2.5197
X6.811Y-2.6378
X6.811Y-2.874
X6.811Y-2.9921
X6.811Y-3.1102
X6.811Y-3.189
X6.811Y-3.2677
X6.8583Y-3.8819
X6.8976Y-3.9764
X6.9291Y-2.5197
X6.9291Y-2.6378
X6.9291Y-2.874
X6.9291Y-2.9921
X6.9291Y-3.1102
X6.9291Y-3.189
X6.9291Y-3.2677
X6.9291Y-3.3465
X7.0079Y-1.4173
T2
X3.8681Y-1.6358
X3.9665Y-1.6358
X4.9902Y-1.6358
X5.0886Y-1.6358
T3
X3.9421Y-2.2146
X4.2421Y-2.2146
X4.5374Y-2.2146
X4.8374Y-2.2146
T4
X4.0354Y-3.1496
X4.0354Y-3.2496
X4.0354Y-3.3496
X4.0354Y-3.4496
X4.0354Y-3.6402
X4.0354Y-3.7402
X4.0354Y-3.8402
X4.0354Y-4.0354
X4.0354Y-4.1354
X4.0354Y-4.2354
X4.0354Y-4.3354
X4.1339Y-2.9528
X4.1339Y-4.5276
X4.189Y-3.1181
X4.2047Y-4.3622
X4.2339Y-2.9528
X4.2339Y-4.5276
X4.2598Y-4.0079
X4.2677Y-3.3858
X4.3339Y-2.9528
X4.3339Y-4.5276
X4.4339Y-2.9528
X4.4339Y-4.5276
X4.5339Y-2.9528
X4.5339Y-4.5276
X4.6339Y-2.9528
X4.6339Y-4.5276
X4.7339Y-2.9528
X4.7339Y-4.5276
X4.8339Y-2.9528
X4.8339Y-4.5276
X4.9339Y-2.9528
X4.9339Y-4.5276
X5.0339Y-2.9528
X5.0339Y-4.5276
X5.1339Y-2.9528
X5.1339Y-4.5276
X5.2339Y-2.9528
X5.2339Y-4.5276
X5.4134Y-2.9528
X5.4134Y-4.5276
X5.5134Y-2.9528
X5.5134Y-4.5276
X5.5807Y-0.8957
X5.5807Y-0.9957
X5.5807Y-1.0957
X5.5807Y-1.1957
X5.6134Y-2.9528
X5.6134Y-4.5276
X5.7087Y-1.6929
X5.7087Y-1.7929
X5.7087Y-1.8929
X5.7087Y-1.9929
X5.7087Y-2.0929
X5.7087Y-2.1929
X5.7087Y-2.2929
X5.7087Y-2.3929
X5.7087Y-2.4929
X5.7087Y-2.5929
X5.7087Y-2.6929
X5.7087Y-2.7929
X5.7087Y-3.1402
X5.7087Y-3.2402
X5.7087Y-3.3402
X5.7087Y-3.4402
X5.7087Y-3.5402
X5.7087Y-3.6402
X5.7087Y-3.7402
X5.7087Y-3.8402
X5.7087Y-3.9402
X5.7087Y-4.0402
X5.7087Y-4.1402
X5.7087Y-4.2402
X5.7087Y-4.3402
X5.7134Y-2.9528
X5.7134Y-4.5276
X5.8661Y-1.6831
X5.8661Y-2.2343
X5.8661Y-4.5276
X5.876Y-3.4941
X5.9661Y-1.6831
X5.9661Y-2.2343
X5.9661Y-4.5276
X5.976Y-3.4941
X6.0661Y-1.6831
X6.0661Y-2.2343
X6.0661Y-4.5276
X6.076Y-3.4941
X6.1661Y-1.6831
X6.1661Y-2.2343
X6.1661Y-4.5276
X6.176Y-3.4941
X6.2661Y-2.2343
X6.2661Y-4.5276
X6.276Y-3.4941
X6.3661Y-2.2343
X6.3661Y-4.5276
X6.376Y-3.4941
X6.4661Y-2.2343
X6.4661Y-4.5276
X6.476Y-3.4941
X6.5661Y-2.2343
X6.5661Y-4.5276
X6.576Y-3.4941
X6.6661Y-2.2343
X6.6661Y-4.5276
X6.676Y-3.4941
X6.7661Y-2.2343
X6.7661Y-4.5276
X6.776Y-3.4941
X6.8661Y-2.2343
X6.8661Y-4.5276
X6.876Y-3.4941
X6.9661Y-2.2343
X6.9661Y-4.5276
X6.976Y-3.4941
X7.1358Y-3.2795
X7.1358Y-3.3795
X7.1358Y-3.4795
X7.1358Y-3.5795
X7.1358Y-3.6795
X7.1358Y-3.7795
X7.1358Y-3.8795
X7.1358Y-3.9795
X7.1358Y-4.0795
X7.1358Y-4.1795
X7.1358Y-4.2795
X7.1358Y-4.3795
X7.1457Y-1.7126
X7.1457Y-1.8126
X7.1457Y-1.9126
X7.1457Y-2.0126
X7.1457Y-2.1126
X7.1457Y-2.2126
X7.1457Y-2.3126
X7.1457Y-2.4126
X7.1457Y-2.5126
X7.1457Y-2.6126
X7.1457Y-2.7126
X7.1457Y-2.8126
T5
X4.1799Y-1.6358
X4.2799Y-1.6358
X4.3799Y-1.6358
X4.613Y-1.6358
X4.713Y-1.6358
X4.813Y-1.6358
T6
X6.2323Y-2.4114
X6.2323Y-2.5295
T7
X3.622Y-3.7402
X5.9547Y-1.0531
X6.5846Y-1.0531
T8
X3.6122Y-4.0913
X3.6122Y-4.2913
X7.1654Y-1.0173
X7.1654Y-1.2173
X7.1654Y-1.4173
T9
X3.5276Y-1.7795
X3.5276Y-1.9795
X3.5276Y-2.1795
X4.298Y-0.8878
X4.498Y-0.8878
X4.698Y-0.8878
T10
X3.497Y-3.6152
X3.497Y-3.8652
X3.747Y-3.6152
X3.747Y-3.8652
X5.8297Y-0.9281
X5.8297Y-1.1781
X6.0797Y-0.9281
X6.0797Y-1.1781
X6.4596Y-0.9281
X6.4596Y-1.1781
X6.7096Y-0.9281
X6.7096Y-1.1781
T11
X3.5433Y-2.5591
T4
G00X3.5531Y-1.0453
M15
G01X3.5531Y-1.124
M16
G05
G00X3.7776Y-0.9665
M15
G01X3.6988Y-0.9665
M16
G05
G00X3.7776Y-1.2028
M15
G01X3.6988Y-1.2028
M16
G05
G00X5.0886Y-1.0846
M15
G01X5.0886Y-1.1634
M16
G05
G00X5.313Y-1.0059
M15
G01X5.2343Y-1.0059
M16
G05
G00X5.313Y-1.2421
M15
G01X5.2343Y-1.2421
M16
G05
T0
M30
