%TF.GenerationSoftware,KiCad,Pcbnew,(6.0.10)*%
%TF.CreationDate,2023-02-20T13:08:26-05:00*%
%TF.ProjectId,ModularPreamp,4d6f6475-6c61-4725-9072-65616d702e6b,rev?*%
%TF.SameCoordinates,Original*%
%TF.FileFunction,Soldermask,Bot*%
%TF.FilePolarity,Negative*%
%FSLAX46Y46*%
G04 Gerber Fmt 4.6, Leading zero omitted, Abs format (unit mm)*
G04 Created by KiCad (PCBNEW (6.0.10)) date 2023-02-20 13:08:26*
%MOMM*%
%LPD*%
G01*
G04 APERTURE LIST*
G04 Aperture macros list*
%AMRoundRect*
0 Rectangle with rounded corners*
0 $1 Rounding radius*
0 $2 $3 $4 $5 $6 $7 $8 $9 X,Y pos of 4 corners*
0 Add a 4 corners polygon primitive as box body*
4,1,4,$2,$3,$4,$5,$6,$7,$8,$9,$2,$3,0*
0 Add four circle primitives for the rounded corners*
1,1,$1+$1,$2,$3*
1,1,$1+$1,$4,$5*
1,1,$1+$1,$6,$7*
1,1,$1+$1,$8,$9*
0 Add four rect primitives between the rounded corners*
20,1,$1+$1,$2,$3,$4,$5,0*
20,1,$1+$1,$4,$5,$6,$7,0*
20,1,$1+$1,$6,$7,$8,$9,0*
20,1,$1+$1,$8,$9,$2,$3,0*%
G04 Aperture macros list end*
%ADD10RoundRect,0.250000X-0.475000X0.250000X-0.475000X-0.250000X0.475000X-0.250000X0.475000X0.250000X0*%
%ADD11RoundRect,0.250000X0.475000X-0.250000X0.475000X0.250000X-0.475000X0.250000X-0.475000X-0.250000X0*%
%ADD12RoundRect,0.250000X0.250000X0.475000X-0.250000X0.475000X-0.250000X-0.475000X0.250000X-0.475000X0*%
%ADD13R,1.600000X1.600000*%
%ADD14C,1.600000*%
%ADD15R,3.500000X3.500000*%
%ADD16RoundRect,0.750000X-1.000000X0.750000X-1.000000X-0.750000X1.000000X-0.750000X1.000000X0.750000X0*%
%ADD17RoundRect,0.875000X-0.875000X0.875000X-0.875000X-0.875000X0.875000X-0.875000X0.875000X0.875000X0*%
%ADD18R,3.000000X3.000000*%
%ADD19C,3.000000*%
%ADD20R,1.905000X2.000000*%
%ADD21O,1.905000X2.000000*%
%ADD22R,1.700000X1.700000*%
%ADD23O,1.700000X1.700000*%
%ADD24C,3.556000*%
%ADD25C,3.810000*%
%ADD26C,2.400000*%
%ADD27R,2.600000X2.600000*%
%ADD28C,2.600000*%
%ADD29R,1.800000X1.800000*%
%ADD30O,1.800000X1.800000*%
%ADD31C,7.500000*%
%ADD32C,4.300000*%
%ADD33C,2.000000*%
G04 APERTURE END LIST*
D10*
%TO.C,C53*%
X120950000Y-95200000D03*
X120950000Y-97100000D03*
%TD*%
D11*
%TO.C,C52*%
X120900000Y-92450000D03*
X120900000Y-90550000D03*
%TD*%
%TO.C,C51*%
X124700000Y-95400000D03*
X124700000Y-93500000D03*
%TD*%
D12*
%TO.C,C50*%
X118600000Y-102300000D03*
X116700000Y-102300000D03*
%TD*%
D13*
%TO.C,C1*%
X100750000Y-41550000D03*
D14*
X98250000Y-41550000D03*
%TD*%
D13*
%TO.C,C2*%
X126750000Y-41550000D03*
D14*
X129250000Y-41550000D03*
%TD*%
D15*
%TO.C,J1*%
X94950000Y-30550000D03*
D16*
X94950000Y-24550000D03*
D17*
X90250000Y-27550000D03*
%TD*%
D15*
%TO.C,J2*%
X133950000Y-31550000D03*
D16*
X133950000Y-25550000D03*
D17*
X129250000Y-28550000D03*
%TD*%
D18*
%TO.C,J3*%
X119330000Y-22550000D03*
D19*
X114250000Y-22550000D03*
X109170000Y-22550000D03*
%TD*%
D20*
%TO.C,U2*%
X106170000Y-41550000D03*
D21*
X108710000Y-41550000D03*
X111250000Y-41550000D03*
%TD*%
D20*
%TO.C,U3*%
X117170000Y-41550000D03*
D21*
X119710000Y-41550000D03*
X122250000Y-41550000D03*
%TD*%
D22*
%TO.C,J5*%
X102500000Y-97540000D03*
D23*
X102500000Y-95000000D03*
X102500000Y-92460000D03*
%TD*%
D24*
%TO.C,J4*%
X92000000Y-95000000D03*
D25*
X88825000Y-98175000D03*
X95175000Y-98175000D03*
X88825000Y-91825000D03*
X95175000Y-91825000D03*
%TD*%
D22*
%TO.C,J8*%
X105000000Y-115000000D03*
D23*
X107540000Y-115000000D03*
X110080000Y-115000000D03*
X112620000Y-115000000D03*
X115160000Y-115000000D03*
X117700000Y-115000000D03*
X120240000Y-115000000D03*
X122780000Y-115000000D03*
X125320000Y-115000000D03*
X127860000Y-115000000D03*
X130400000Y-115000000D03*
X132940000Y-115000000D03*
%TD*%
D22*
%TO.C,J9*%
X181250000Y-83300000D03*
D23*
X181250000Y-85840000D03*
X181250000Y-88380000D03*
X181250000Y-90920000D03*
X181250000Y-93460000D03*
X181250000Y-96000000D03*
X181250000Y-98540000D03*
X181250000Y-101080000D03*
X181250000Y-103620000D03*
X181250000Y-106160000D03*
X181250000Y-108700000D03*
X181250000Y-111240000D03*
%TD*%
D22*
%TO.C,J10*%
X137500000Y-115000000D03*
D23*
X140040000Y-115000000D03*
X142580000Y-115000000D03*
X145120000Y-115000000D03*
%TD*%
D22*
%TO.C,J6*%
X105000000Y-75000000D03*
D23*
X107540000Y-75000000D03*
X110080000Y-75000000D03*
X112620000Y-75000000D03*
X115160000Y-75000000D03*
X117700000Y-75000000D03*
X120240000Y-75000000D03*
X122780000Y-75000000D03*
X125320000Y-75000000D03*
X127860000Y-75000000D03*
X130400000Y-75000000D03*
X132940000Y-75000000D03*
%TD*%
D22*
%TO.C,J11*%
X137500000Y-75000000D03*
D23*
X140040000Y-75000000D03*
X142580000Y-75000000D03*
X145120000Y-75000000D03*
%TD*%
D22*
%TO.C,J7*%
X145000000Y-79760000D03*
D23*
X145000000Y-82300000D03*
X145000000Y-84840000D03*
X145000000Y-87380000D03*
X145000000Y-89920000D03*
X145000000Y-92460000D03*
X145000000Y-95000000D03*
X145000000Y-97540000D03*
X145000000Y-100080000D03*
X145000000Y-102620000D03*
X145000000Y-105160000D03*
X145000000Y-107700000D03*
X145000000Y-110240000D03*
%TD*%
D22*
%TO.C,J12*%
X102500000Y-102500000D03*
D23*
X102500000Y-105040000D03*
X102500000Y-107580000D03*
X102500000Y-110120000D03*
%TD*%
D22*
%TO.C,J13*%
X102500000Y-80000000D03*
D23*
X102500000Y-82540000D03*
X102500000Y-85080000D03*
X102500000Y-87620000D03*
%TD*%
D26*
%TO.C,L1*%
X158300000Y-61250000D03*
X158300000Y-64250000D03*
%TD*%
D22*
%TO.C,J16*%
X181500000Y-43500000D03*
D23*
X181500000Y-46040000D03*
X181500000Y-48580000D03*
X181500000Y-51120000D03*
X181500000Y-53660000D03*
X181500000Y-56200000D03*
X181500000Y-58740000D03*
X181500000Y-61280000D03*
X181500000Y-63820000D03*
X181500000Y-66360000D03*
X181500000Y-68900000D03*
X181500000Y-71440000D03*
%TD*%
D22*
%TO.C,J17*%
X145000000Y-43000000D03*
D23*
X145000000Y-45540000D03*
X145000000Y-48080000D03*
X145000000Y-50620000D03*
X145000000Y-53160000D03*
X145000000Y-55700000D03*
X145000000Y-58240000D03*
X145000000Y-60780000D03*
X145000000Y-63320000D03*
X145000000Y-65860000D03*
X145000000Y-68400000D03*
X145000000Y-70940000D03*
%TD*%
D22*
%TO.C,J21*%
X149000000Y-42750000D03*
D23*
X151540000Y-42750000D03*
X154080000Y-42750000D03*
X156620000Y-42750000D03*
%TD*%
D22*
%TO.C,J18*%
X149250000Y-88750000D03*
D23*
X151790000Y-88750000D03*
X154330000Y-88750000D03*
X156870000Y-88750000D03*
X159410000Y-88750000D03*
X161950000Y-88750000D03*
X164490000Y-88750000D03*
X167030000Y-88750000D03*
X169570000Y-88750000D03*
X172110000Y-88750000D03*
X174650000Y-88750000D03*
X177190000Y-88750000D03*
%TD*%
D22*
%TO.C,J19*%
X149000000Y-56750000D03*
D23*
X151540000Y-56750000D03*
X154080000Y-56750000D03*
X156620000Y-56750000D03*
X159160000Y-56750000D03*
X161700000Y-56750000D03*
X164240000Y-56750000D03*
X166780000Y-56750000D03*
X169320000Y-56750000D03*
X171860000Y-56750000D03*
X174400000Y-56750000D03*
X176940000Y-56750000D03*
%TD*%
D22*
%TO.C,J20*%
X141750000Y-22750000D03*
D23*
X141750000Y-25290000D03*
X141750000Y-27830000D03*
X141750000Y-30370000D03*
%TD*%
D24*
%TO.C,J14*%
X151250000Y-26750000D03*
D25*
X148075000Y-23575000D03*
X148075000Y-29925000D03*
X154425000Y-23575000D03*
X154425000Y-29925000D03*
%TD*%
D24*
%TO.C,J15*%
X167250000Y-26750000D03*
D25*
X164075000Y-23575000D03*
X164075000Y-29925000D03*
X170425000Y-23575000D03*
X170425000Y-29925000D03*
%TD*%
D27*
%TO.C,J23*%
X91750000Y-103920000D03*
D28*
X91750000Y-109000000D03*
%TD*%
D29*
%TO.C,D9*%
X107750000Y-56250000D03*
D30*
X100130000Y-56250000D03*
%TD*%
D29*
%TO.C,D10*%
X115250000Y-56250000D03*
D30*
X122870000Y-56250000D03*
%TD*%
D31*
%TO.C,H1*%
X90000000Y-65000000D03*
%TD*%
D32*
%TO.C,H2*%
X89000000Y-116000000D03*
%TD*%
%TO.C,H3*%
X166000000Y-37000000D03*
%TD*%
%TO.C,H4*%
X103000000Y-24000000D03*
%TD*%
%TO.C,H5*%
X181000000Y-116000000D03*
%TD*%
%TO.C,H6*%
X135000000Y-65000000D03*
%TD*%
D22*
%TO.C,J22*%
X149000000Y-115000000D03*
D23*
X151540000Y-115000000D03*
X154080000Y-115000000D03*
X156620000Y-115000000D03*
X159160000Y-115000000D03*
X161700000Y-115000000D03*
X164240000Y-115000000D03*
X166780000Y-115000000D03*
X169320000Y-115000000D03*
X171860000Y-115000000D03*
X174400000Y-115000000D03*
X176940000Y-115000000D03*
%TD*%
D27*
%TO.C,J24*%
X182000000Y-36000000D03*
D28*
X182000000Y-30920000D03*
X182000000Y-25840000D03*
%TD*%
D18*
%TO.C,J25*%
X89600000Y-45200000D03*
D19*
X89600000Y-50280000D03*
X89600000Y-55360000D03*
%TD*%
D33*
%TO.C,TP1*%
X106400000Y-79200000D03*
%TD*%
%TO.C,TP3*%
X108200000Y-101800000D03*
%TD*%
%TO.C,TP4*%
X108400000Y-86000000D03*
%TD*%
%TO.C,TP2*%
X106800000Y-110800000D03*
%TD*%
M02*
