%TF.GenerationSoftware,KiCad,Pcbnew,(6.0.10)*%
%TF.CreationDate,2023-02-20T13:08:26-05:00*%
%TF.ProjectId,ModularPreamp,4d6f6475-6c61-4725-9072-65616d702e6b,rev?*%
%TF.SameCoordinates,Original*%
%TF.FileFunction,Legend,Bot*%
%TF.FilePolarity,Positive*%
%FSLAX46Y46*%
G04 Gerber Fmt 4.6, Leading zero omitted, Abs format (unit mm)*
G04 Created by KiCad (PCBNEW (6.0.10)) date 2023-02-20 13:08:26*
%MOMM*%
%LPD*%
G01*
G04 APERTURE LIST*
%ADD10C,0.150000*%
%ADD11C,0.300000*%
%ADD12C,0.120000*%
%ADD13C,0.010000*%
G04 APERTURE END LIST*
D10*
X128625000Y-26066023D02*
X128625000Y-25216023D01*
X128341666Y-25823166D01*
X128058333Y-25216023D01*
X128058333Y-26066023D01*
X127289285Y-26066023D02*
X127289285Y-25620785D01*
X127329761Y-25539833D01*
X127410714Y-25499357D01*
X127572619Y-25499357D01*
X127653571Y-25539833D01*
X127289285Y-26025547D02*
X127370238Y-26066023D01*
X127572619Y-26066023D01*
X127653571Y-26025547D01*
X127694047Y-25944595D01*
X127694047Y-25863642D01*
X127653571Y-25782690D01*
X127572619Y-25742214D01*
X127370238Y-25742214D01*
X127289285Y-25701738D01*
X126965476Y-25499357D02*
X126763095Y-26066023D01*
X126560714Y-25499357D02*
X126763095Y-26066023D01*
X126844047Y-26268404D01*
X126884523Y-26308880D01*
X126965476Y-26349357D01*
X125225000Y-25499357D02*
X125225000Y-26066023D01*
X125589285Y-25499357D02*
X125589285Y-25944595D01*
X125548809Y-26025547D01*
X125467857Y-26066023D01*
X125346428Y-26066023D01*
X125265476Y-26025547D01*
X125225000Y-25985071D01*
X124860714Y-26025547D02*
X124779761Y-26066023D01*
X124617857Y-26066023D01*
X124536904Y-26025547D01*
X124496428Y-25944595D01*
X124496428Y-25904119D01*
X124536904Y-25823166D01*
X124617857Y-25782690D01*
X124739285Y-25782690D01*
X124820238Y-25742214D01*
X124860714Y-25661261D01*
X124860714Y-25620785D01*
X124820238Y-25539833D01*
X124739285Y-25499357D01*
X124617857Y-25499357D01*
X124536904Y-25539833D01*
X123808333Y-26025547D02*
X123889285Y-26066023D01*
X124051190Y-26066023D01*
X124132142Y-26025547D01*
X124172619Y-25944595D01*
X124172619Y-25620785D01*
X124132142Y-25539833D01*
X124051190Y-25499357D01*
X123889285Y-25499357D01*
X123808333Y-25539833D01*
X123767857Y-25620785D01*
X123767857Y-25701738D01*
X124172619Y-25782690D01*
X122877380Y-25499357D02*
X122553571Y-25499357D01*
X122755952Y-25216023D02*
X122755952Y-25944595D01*
X122715476Y-26025547D01*
X122634523Y-26066023D01*
X122553571Y-26066023D01*
X122351190Y-25499357D02*
X122189285Y-26066023D01*
X122027380Y-25661261D01*
X121865476Y-26066023D01*
X121703571Y-25499357D01*
X121258333Y-26066023D02*
X121339285Y-26025547D01*
X121379761Y-25985071D01*
X121420238Y-25904119D01*
X121420238Y-25661261D01*
X121379761Y-25580309D01*
X121339285Y-25539833D01*
X121258333Y-25499357D01*
X121136904Y-25499357D01*
X121055952Y-25539833D01*
X121015476Y-25580309D01*
X120975000Y-25661261D01*
X120975000Y-25904119D01*
X121015476Y-25985071D01*
X121055952Y-26025547D01*
X121136904Y-26066023D01*
X121258333Y-26066023D01*
X119963095Y-26066023D02*
X119963095Y-25216023D01*
X119558333Y-26066023D02*
X119558333Y-25216023D01*
X119072619Y-26066023D01*
X119072619Y-25216023D01*
X118667857Y-26066023D02*
X118667857Y-25216023D01*
X118465476Y-25216023D01*
X118344047Y-25256500D01*
X118263095Y-25337452D01*
X118222619Y-25418404D01*
X118182142Y-25580309D01*
X118182142Y-25701738D01*
X118222619Y-25863642D01*
X118263095Y-25944595D01*
X118344047Y-26025547D01*
X118465476Y-26066023D01*
X118667857Y-26066023D01*
X117817857Y-26066023D02*
X117817857Y-25216023D01*
X117534523Y-25216023D02*
X117251190Y-26066023D01*
X116967857Y-25216023D01*
X116684523Y-26066023D02*
X116684523Y-25216023D01*
X116279761Y-26066023D02*
X116279761Y-25216023D01*
X116077380Y-25216023D01*
X115955952Y-25256500D01*
X115875000Y-25337452D01*
X115834523Y-25418404D01*
X115794047Y-25580309D01*
X115794047Y-25701738D01*
X115834523Y-25863642D01*
X115875000Y-25944595D01*
X115955952Y-26025547D01*
X116077380Y-26066023D01*
X116279761Y-26066023D01*
X115429761Y-25216023D02*
X115429761Y-25904119D01*
X115389285Y-25985071D01*
X115348809Y-26025547D01*
X115267857Y-26066023D01*
X115105952Y-26066023D01*
X115025000Y-26025547D01*
X114984523Y-25985071D01*
X114944047Y-25904119D01*
X114944047Y-25216023D01*
X114579761Y-25823166D02*
X114175000Y-25823166D01*
X114660714Y-26066023D02*
X114377380Y-25216023D01*
X114094047Y-26066023D01*
X113405952Y-26066023D02*
X113810714Y-26066023D01*
X113810714Y-25216023D01*
X112717857Y-26066023D02*
X113122619Y-26066023D01*
X113122619Y-25216023D01*
X112272619Y-25661261D02*
X112272619Y-26066023D01*
X112555952Y-25216023D02*
X112272619Y-25661261D01*
X111989285Y-25216023D01*
X111058333Y-26066023D02*
X111058333Y-25216023D01*
X110694047Y-26025547D02*
X110572619Y-26066023D01*
X110370238Y-26066023D01*
X110289285Y-26025547D01*
X110248809Y-25985071D01*
X110208333Y-25904119D01*
X110208333Y-25823166D01*
X110248809Y-25742214D01*
X110289285Y-25701738D01*
X110370238Y-25661261D01*
X110532142Y-25620785D01*
X110613095Y-25580309D01*
X110653571Y-25539833D01*
X110694047Y-25458880D01*
X110694047Y-25377928D01*
X110653571Y-25296976D01*
X110613095Y-25256500D01*
X110532142Y-25216023D01*
X110329761Y-25216023D01*
X110208333Y-25256500D01*
X109682142Y-25216023D02*
X109520238Y-25216023D01*
X109439285Y-25256500D01*
X109358333Y-25337452D01*
X109317857Y-25499357D01*
X109317857Y-25782690D01*
X109358333Y-25944595D01*
X109439285Y-26025547D01*
X109520238Y-26066023D01*
X109682142Y-26066023D01*
X109763095Y-26025547D01*
X109844047Y-25944595D01*
X109884523Y-25782690D01*
X109884523Y-25499357D01*
X109844047Y-25337452D01*
X109763095Y-25256500D01*
X109682142Y-25216023D01*
X108548809Y-26066023D02*
X108953571Y-26066023D01*
X108953571Y-25216023D01*
X108305952Y-25823166D02*
X107901190Y-25823166D01*
X108386904Y-26066023D02*
X108103571Y-25216023D01*
X107820238Y-26066023D01*
X107658333Y-25216023D02*
X107172619Y-25216023D01*
X107415476Y-26066023D02*
X107415476Y-25216023D01*
X106889285Y-25620785D02*
X106605952Y-25620785D01*
X106484523Y-26066023D02*
X106889285Y-26066023D01*
X106889285Y-25216023D01*
X106484523Y-25216023D01*
X106120238Y-26066023D02*
X106120238Y-25216023D01*
X105917857Y-25216023D01*
X105796428Y-25256500D01*
X105715476Y-25337452D01*
X105675000Y-25418404D01*
X105634523Y-25580309D01*
X105634523Y-25701738D01*
X105675000Y-25863642D01*
X105715476Y-25944595D01*
X105796428Y-26025547D01*
X105917857Y-26066023D01*
X106120238Y-26066023D01*
X121845238Y-27434523D02*
X121845238Y-26584523D01*
X121521428Y-26584523D01*
X121440476Y-26625000D01*
X121400000Y-26665476D01*
X121359523Y-26746428D01*
X121359523Y-26867857D01*
X121400000Y-26948809D01*
X121440476Y-26989285D01*
X121521428Y-27029761D01*
X121845238Y-27029761D01*
X120873809Y-27434523D02*
X120954761Y-27394047D01*
X120995238Y-27353571D01*
X121035714Y-27272619D01*
X121035714Y-27029761D01*
X120995238Y-26948809D01*
X120954761Y-26908333D01*
X120873809Y-26867857D01*
X120752380Y-26867857D01*
X120671428Y-26908333D01*
X120630952Y-26948809D01*
X120590476Y-27029761D01*
X120590476Y-27272619D01*
X120630952Y-27353571D01*
X120671428Y-27394047D01*
X120752380Y-27434523D01*
X120873809Y-27434523D01*
X120307142Y-26867857D02*
X120145238Y-27434523D01*
X119983333Y-27029761D01*
X119821428Y-27434523D01*
X119659523Y-26867857D01*
X119011904Y-27394047D02*
X119092857Y-27434523D01*
X119254761Y-27434523D01*
X119335714Y-27394047D01*
X119376190Y-27313095D01*
X119376190Y-26989285D01*
X119335714Y-26908333D01*
X119254761Y-26867857D01*
X119092857Y-26867857D01*
X119011904Y-26908333D01*
X118971428Y-26989285D01*
X118971428Y-27070238D01*
X119376190Y-27151190D01*
X118607142Y-27434523D02*
X118607142Y-26867857D01*
X118607142Y-27029761D02*
X118566666Y-26948809D01*
X118526190Y-26908333D01*
X118445238Y-26867857D01*
X118364285Y-26867857D01*
X117473809Y-27394047D02*
X117352380Y-27434523D01*
X117150000Y-27434523D01*
X117069047Y-27394047D01*
X117028571Y-27353571D01*
X116988095Y-27272619D01*
X116988095Y-27191666D01*
X117028571Y-27110714D01*
X117069047Y-27070238D01*
X117150000Y-27029761D01*
X117311904Y-26989285D01*
X117392857Y-26948809D01*
X117433333Y-26908333D01*
X117473809Y-26827380D01*
X117473809Y-26746428D01*
X117433333Y-26665476D01*
X117392857Y-26625000D01*
X117311904Y-26584523D01*
X117109523Y-26584523D01*
X116988095Y-26625000D01*
X116259523Y-26867857D02*
X116259523Y-27434523D01*
X116623809Y-26867857D02*
X116623809Y-27313095D01*
X116583333Y-27394047D01*
X116502380Y-27434523D01*
X116380952Y-27434523D01*
X116300000Y-27394047D01*
X116259523Y-27353571D01*
X115854761Y-26867857D02*
X115854761Y-27717857D01*
X115854761Y-26908333D02*
X115773809Y-26867857D01*
X115611904Y-26867857D01*
X115530952Y-26908333D01*
X115490476Y-26948809D01*
X115450000Y-27029761D01*
X115450000Y-27272619D01*
X115490476Y-27353571D01*
X115530952Y-27394047D01*
X115611904Y-27434523D01*
X115773809Y-27434523D01*
X115854761Y-27394047D01*
X115085714Y-26867857D02*
X115085714Y-27717857D01*
X115085714Y-26908333D02*
X115004761Y-26867857D01*
X114842857Y-26867857D01*
X114761904Y-26908333D01*
X114721428Y-26948809D01*
X114680952Y-27029761D01*
X114680952Y-27272619D01*
X114721428Y-27353571D01*
X114761904Y-27394047D01*
X114842857Y-27434523D01*
X115004761Y-27434523D01*
X115085714Y-27394047D01*
X114195238Y-27434523D02*
X114276190Y-27394047D01*
X114316666Y-27313095D01*
X114316666Y-26584523D01*
X113871428Y-27434523D02*
X113871428Y-26867857D01*
X113871428Y-26584523D02*
X113911904Y-26625000D01*
X113871428Y-26665476D01*
X113830952Y-26625000D01*
X113871428Y-26584523D01*
X113871428Y-26665476D01*
X113142857Y-27394047D02*
X113223809Y-27434523D01*
X113385714Y-27434523D01*
X113466666Y-27394047D01*
X113507142Y-27313095D01*
X113507142Y-26989285D01*
X113466666Y-26908333D01*
X113385714Y-26867857D01*
X113223809Y-26867857D01*
X113142857Y-26908333D01*
X113102380Y-26989285D01*
X113102380Y-27070238D01*
X113507142Y-27151190D01*
X112778571Y-27394047D02*
X112697619Y-27434523D01*
X112535714Y-27434523D01*
X112454761Y-27394047D01*
X112414285Y-27313095D01*
X112414285Y-27272619D01*
X112454761Y-27191666D01*
X112535714Y-27151190D01*
X112657142Y-27151190D01*
X112738095Y-27110714D01*
X112778571Y-27029761D01*
X112778571Y-26989285D01*
X112738095Y-26908333D01*
X112657142Y-26867857D01*
X112535714Y-26867857D01*
X112454761Y-26908333D01*
X123282142Y-28357785D02*
X123160714Y-28398261D01*
X123120238Y-28438738D01*
X123079761Y-28519690D01*
X123079761Y-28641119D01*
X123120238Y-28722071D01*
X123160714Y-28762547D01*
X123241666Y-28803023D01*
X123565476Y-28803023D01*
X123565476Y-27953023D01*
X123282142Y-27953023D01*
X123201190Y-27993500D01*
X123160714Y-28033976D01*
X123120238Y-28114928D01*
X123120238Y-28195880D01*
X123160714Y-28276833D01*
X123201190Y-28317309D01*
X123282142Y-28357785D01*
X123565476Y-28357785D01*
X122594047Y-28803023D02*
X122675000Y-28762547D01*
X122715476Y-28722071D01*
X122755952Y-28641119D01*
X122755952Y-28398261D01*
X122715476Y-28317309D01*
X122675000Y-28276833D01*
X122594047Y-28236357D01*
X122472619Y-28236357D01*
X122391666Y-28276833D01*
X122351190Y-28317309D01*
X122310714Y-28398261D01*
X122310714Y-28641119D01*
X122351190Y-28722071D01*
X122391666Y-28762547D01*
X122472619Y-28803023D01*
X122594047Y-28803023D01*
X122067857Y-28236357D02*
X121744047Y-28236357D01*
X121946428Y-27953023D02*
X121946428Y-28681595D01*
X121905952Y-28762547D01*
X121825000Y-28803023D01*
X121744047Y-28803023D01*
X121460714Y-28803023D02*
X121460714Y-27953023D01*
X121096428Y-28803023D02*
X121096428Y-28357785D01*
X121136904Y-28276833D01*
X121217857Y-28236357D01*
X121339285Y-28236357D01*
X121420238Y-28276833D01*
X121460714Y-28317309D01*
X119558333Y-28722071D02*
X119598809Y-28762547D01*
X119720238Y-28803023D01*
X119801190Y-28803023D01*
X119922619Y-28762547D01*
X120003571Y-28681595D01*
X120044047Y-28600642D01*
X120084523Y-28438738D01*
X120084523Y-28317309D01*
X120044047Y-28155404D01*
X120003571Y-28074452D01*
X119922619Y-27993500D01*
X119801190Y-27953023D01*
X119720238Y-27953023D01*
X119598809Y-27993500D01*
X119558333Y-28033976D01*
X118870238Y-28762547D02*
X118951190Y-28803023D01*
X119113095Y-28803023D01*
X119194047Y-28762547D01*
X119234523Y-28681595D01*
X119234523Y-28357785D01*
X119194047Y-28276833D01*
X119113095Y-28236357D01*
X118951190Y-28236357D01*
X118870238Y-28276833D01*
X118829761Y-28357785D01*
X118829761Y-28438738D01*
X119234523Y-28519690D01*
X118465476Y-28236357D02*
X118465476Y-28803023D01*
X118465476Y-28317309D02*
X118425000Y-28276833D01*
X118344047Y-28236357D01*
X118222619Y-28236357D01*
X118141666Y-28276833D01*
X118101190Y-28357785D01*
X118101190Y-28803023D01*
X117817857Y-28236357D02*
X117494047Y-28236357D01*
X117696428Y-27953023D02*
X117696428Y-28681595D01*
X117655952Y-28762547D01*
X117575000Y-28803023D01*
X117494047Y-28803023D01*
X116886904Y-28762547D02*
X116967857Y-28803023D01*
X117129761Y-28803023D01*
X117210714Y-28762547D01*
X117251190Y-28681595D01*
X117251190Y-28357785D01*
X117210714Y-28276833D01*
X117129761Y-28236357D01*
X116967857Y-28236357D01*
X116886904Y-28276833D01*
X116846428Y-28357785D01*
X116846428Y-28438738D01*
X117251190Y-28519690D01*
X116482142Y-28803023D02*
X116482142Y-28236357D01*
X116482142Y-28398261D02*
X116441666Y-28317309D01*
X116401190Y-28276833D01*
X116320238Y-28236357D01*
X116239285Y-28236357D01*
X115308333Y-28803023D02*
X115308333Y-27953023D01*
X114984523Y-27953023D01*
X114903571Y-27993500D01*
X114863095Y-28033976D01*
X114822619Y-28114928D01*
X114822619Y-28236357D01*
X114863095Y-28317309D01*
X114903571Y-28357785D01*
X114984523Y-28398261D01*
X115308333Y-28398261D01*
X114336904Y-28803023D02*
X114417857Y-28762547D01*
X114458333Y-28722071D01*
X114498809Y-28641119D01*
X114498809Y-28398261D01*
X114458333Y-28317309D01*
X114417857Y-28276833D01*
X114336904Y-28236357D01*
X114215476Y-28236357D01*
X114134523Y-28276833D01*
X114094047Y-28317309D01*
X114053571Y-28398261D01*
X114053571Y-28641119D01*
X114094047Y-28722071D01*
X114134523Y-28762547D01*
X114215476Y-28803023D01*
X114336904Y-28803023D01*
X113729761Y-28762547D02*
X113648809Y-28803023D01*
X113486904Y-28803023D01*
X113405952Y-28762547D01*
X113365476Y-28681595D01*
X113365476Y-28641119D01*
X113405952Y-28560166D01*
X113486904Y-28519690D01*
X113608333Y-28519690D01*
X113689285Y-28479214D01*
X113729761Y-28398261D01*
X113729761Y-28357785D01*
X113689285Y-28276833D01*
X113608333Y-28236357D01*
X113486904Y-28236357D01*
X113405952Y-28276833D01*
X113001190Y-28803023D02*
X113001190Y-28236357D01*
X113001190Y-27953023D02*
X113041666Y-27993500D01*
X113001190Y-28033976D01*
X112960714Y-27993500D01*
X113001190Y-27953023D01*
X113001190Y-28033976D01*
X112717857Y-28236357D02*
X112394047Y-28236357D01*
X112596428Y-27953023D02*
X112596428Y-28681595D01*
X112555952Y-28762547D01*
X112475000Y-28803023D01*
X112394047Y-28803023D01*
X112110714Y-28803023D02*
X112110714Y-28236357D01*
X112110714Y-27953023D02*
X112151190Y-27993500D01*
X112110714Y-28033976D01*
X112070238Y-27993500D01*
X112110714Y-27953023D01*
X112110714Y-28033976D01*
X111786904Y-28236357D02*
X111584523Y-28803023D01*
X111382142Y-28236357D01*
X110734523Y-28762547D02*
X110815476Y-28803023D01*
X110977380Y-28803023D01*
X111058333Y-28762547D01*
X111098809Y-28681595D01*
X111098809Y-28357785D01*
X111058333Y-28276833D01*
X110977380Y-28236357D01*
X110815476Y-28236357D01*
X110734523Y-28276833D01*
X110694047Y-28357785D01*
X110694047Y-28438738D01*
X111098809Y-28519690D01*
D11*
X94836428Y-80057142D02*
X95550714Y-80557142D01*
X94836428Y-80914285D02*
X96336428Y-80914285D01*
X96336428Y-80342857D01*
X96265000Y-80200000D01*
X96193571Y-80128571D01*
X96050714Y-80057142D01*
X95836428Y-80057142D01*
X95693571Y-80128571D01*
X95622142Y-80200000D01*
X95550714Y-80342857D01*
X95550714Y-80914285D01*
X94907857Y-78842857D02*
X94836428Y-78985714D01*
X94836428Y-79271428D01*
X94907857Y-79414285D01*
X95050714Y-79485714D01*
X95622142Y-79485714D01*
X95765000Y-79414285D01*
X95836428Y-79271428D01*
X95836428Y-78985714D01*
X95765000Y-78842857D01*
X95622142Y-78771428D01*
X95479285Y-78771428D01*
X95336428Y-79485714D01*
X95836428Y-78271428D02*
X94836428Y-77914285D01*
X95836428Y-77557142D01*
X94979285Y-76985714D02*
X94907857Y-76914285D01*
X94836428Y-76985714D01*
X94907857Y-77057142D01*
X94979285Y-76985714D01*
X94836428Y-76985714D01*
X95622142Y-75771428D02*
X95550714Y-75557142D01*
X95479285Y-75485714D01*
X95336428Y-75414285D01*
X95122142Y-75414285D01*
X94979285Y-75485714D01*
X94907857Y-75557142D01*
X94836428Y-75700000D01*
X94836428Y-76271428D01*
X96336428Y-76271428D01*
X96336428Y-75771428D01*
X96265000Y-75628571D01*
X96193571Y-75557142D01*
X96050714Y-75485714D01*
X95907857Y-75485714D01*
X95765000Y-75557142D01*
X95693571Y-75628571D01*
X95622142Y-75771428D01*
X95622142Y-76271428D01*
X93778571Y-84271428D02*
X93850000Y-84200000D01*
X93921428Y-84057142D01*
X93921428Y-83700000D01*
X93850000Y-83557142D01*
X93778571Y-83485714D01*
X93635714Y-83414285D01*
X93492857Y-83414285D01*
X93278571Y-83485714D01*
X92421428Y-84342857D01*
X92421428Y-83414285D01*
X93921428Y-82485714D02*
X93921428Y-82342857D01*
X93850000Y-82200000D01*
X93778571Y-82128571D01*
X93635714Y-82057142D01*
X93350000Y-81985714D01*
X92992857Y-81985714D01*
X92707142Y-82057142D01*
X92564285Y-82128571D01*
X92492857Y-82200000D01*
X92421428Y-82342857D01*
X92421428Y-82485714D01*
X92492857Y-82628571D01*
X92564285Y-82700000D01*
X92707142Y-82771428D01*
X92992857Y-82842857D01*
X93350000Y-82842857D01*
X93635714Y-82771428D01*
X93778571Y-82700000D01*
X93850000Y-82628571D01*
X93921428Y-82485714D01*
X93207142Y-80842857D02*
X93207142Y-81342857D01*
X92421428Y-81342857D02*
X93921428Y-81342857D01*
X93921428Y-80628571D01*
X93207142Y-80057142D02*
X93207142Y-79557142D01*
X92421428Y-79342857D02*
X92421428Y-80057142D01*
X93921428Y-80057142D01*
X93921428Y-79342857D01*
X93207142Y-78200000D02*
X93135714Y-77985714D01*
X93064285Y-77914285D01*
X92921428Y-77842857D01*
X92707142Y-77842857D01*
X92564285Y-77914285D01*
X92492857Y-77985714D01*
X92421428Y-78128571D01*
X92421428Y-78700000D01*
X93921428Y-78700000D01*
X93921428Y-78200000D01*
X93850000Y-78057142D01*
X93778571Y-77985714D01*
X93635714Y-77914285D01*
X93492857Y-77914285D01*
X93350000Y-77985714D01*
X93278571Y-78057142D01*
X93207142Y-78200000D01*
X93207142Y-78700000D01*
X93778571Y-77271428D02*
X93850000Y-77200000D01*
X93921428Y-77057142D01*
X93921428Y-76700000D01*
X93850000Y-76557142D01*
X93778571Y-76485714D01*
X93635714Y-76414285D01*
X93492857Y-76414285D01*
X93278571Y-76485714D01*
X92421428Y-77342857D01*
X92421428Y-76414285D01*
X93921428Y-75485714D02*
X93921428Y-75342857D01*
X93850000Y-75200000D01*
X93778571Y-75128571D01*
X93635714Y-75057142D01*
X93350000Y-74985714D01*
X92992857Y-74985714D01*
X92707142Y-75057142D01*
X92564285Y-75128571D01*
X92492857Y-75200000D01*
X92421428Y-75342857D01*
X92421428Y-75485714D01*
X92492857Y-75628571D01*
X92564285Y-75700000D01*
X92707142Y-75771428D01*
X92992857Y-75842857D01*
X93350000Y-75842857D01*
X93635714Y-75771428D01*
X93778571Y-75700000D01*
X93850000Y-75628571D01*
X93921428Y-75485714D01*
X93778571Y-74414285D02*
X93850000Y-74342857D01*
X93921428Y-74200000D01*
X93921428Y-73842857D01*
X93850000Y-73700000D01*
X93778571Y-73628571D01*
X93635714Y-73557142D01*
X93492857Y-73557142D01*
X93278571Y-73628571D01*
X92421428Y-74485714D01*
X92421428Y-73557142D01*
X93921428Y-73057142D02*
X93921428Y-72128571D01*
X93350000Y-72628571D01*
X93350000Y-72414285D01*
X93278571Y-72271428D01*
X93207142Y-72200000D01*
X93064285Y-72128571D01*
X92707142Y-72128571D01*
X92564285Y-72200000D01*
X92492857Y-72271428D01*
X92421428Y-72414285D01*
X92421428Y-72842857D01*
X92492857Y-72985714D01*
X92564285Y-73057142D01*
X90792142Y-84521428D02*
X90792142Y-84021428D01*
X90006428Y-83807142D02*
X90006428Y-84521428D01*
X91506428Y-84521428D01*
X91506428Y-83807142D01*
X90149285Y-83164285D02*
X90077857Y-83092857D01*
X90006428Y-83164285D01*
X90077857Y-83235714D01*
X90149285Y-83164285D01*
X90006428Y-83164285D01*
X90006428Y-81307142D02*
X91506428Y-81307142D01*
X90435000Y-80807142D01*
X91506428Y-80307142D01*
X90006428Y-80307142D01*
X90006428Y-78950000D02*
X90792142Y-78950000D01*
X90935000Y-79021428D01*
X91006428Y-79164285D01*
X91006428Y-79450000D01*
X90935000Y-79592857D01*
X90077857Y-78950000D02*
X90006428Y-79092857D01*
X90006428Y-79450000D01*
X90077857Y-79592857D01*
X90220714Y-79664285D01*
X90363571Y-79664285D01*
X90506428Y-79592857D01*
X90577857Y-79450000D01*
X90577857Y-79092857D01*
X90649285Y-78950000D01*
X91006428Y-78450000D02*
X91006428Y-77878571D01*
X91506428Y-78235714D02*
X90220714Y-78235714D01*
X90077857Y-78164285D01*
X90006428Y-78021428D01*
X90006428Y-77878571D01*
X91006428Y-77592857D02*
X91006428Y-77021428D01*
X91506428Y-77378571D02*
X90220714Y-77378571D01*
X90077857Y-77307142D01*
X90006428Y-77164285D01*
X90006428Y-77021428D01*
X90006428Y-76521428D02*
X91006428Y-76521428D01*
X91506428Y-76521428D02*
X91435000Y-76592857D01*
X91363571Y-76521428D01*
X91435000Y-76450000D01*
X91506428Y-76521428D01*
X91363571Y-76521428D01*
X91006428Y-75807142D02*
X90006428Y-75807142D01*
X90863571Y-75807142D02*
X90935000Y-75735714D01*
X91006428Y-75592857D01*
X91006428Y-75378571D01*
X90935000Y-75235714D01*
X90792142Y-75164285D01*
X90006428Y-75164285D01*
X91006428Y-73807142D02*
X89792142Y-73807142D01*
X89649285Y-73878571D01*
X89577857Y-73950000D01*
X89506428Y-74092857D01*
X89506428Y-74307142D01*
X89577857Y-74450000D01*
X90077857Y-73807142D02*
X90006428Y-73950000D01*
X90006428Y-74235714D01*
X90077857Y-74378571D01*
X90149285Y-74450000D01*
X90292142Y-74521428D01*
X90720714Y-74521428D01*
X90863571Y-74450000D01*
X90935000Y-74378571D01*
X91006428Y-74235714D01*
X91006428Y-73950000D01*
X90935000Y-73807142D01*
X90006428Y-72878571D02*
X90077857Y-73021428D01*
X90220714Y-73092857D01*
X91506428Y-73092857D01*
X91006428Y-72450000D02*
X90006428Y-72092857D01*
X91006428Y-71735714D02*
X90006428Y-72092857D01*
X89649285Y-72235714D01*
X89577857Y-72307142D01*
X89506428Y-72450000D01*
D10*
%TO.C,C53*%
X119627142Y-95507142D02*
X119674761Y-95459523D01*
X119722380Y-95316666D01*
X119722380Y-95221428D01*
X119674761Y-95078571D01*
X119579523Y-94983333D01*
X119484285Y-94935714D01*
X119293809Y-94888095D01*
X119150952Y-94888095D01*
X118960476Y-94935714D01*
X118865238Y-94983333D01*
X118770000Y-95078571D01*
X118722380Y-95221428D01*
X118722380Y-95316666D01*
X118770000Y-95459523D01*
X118817619Y-95507142D01*
X118722380Y-96411904D02*
X118722380Y-95935714D01*
X119198571Y-95888095D01*
X119150952Y-95935714D01*
X119103333Y-96030952D01*
X119103333Y-96269047D01*
X119150952Y-96364285D01*
X119198571Y-96411904D01*
X119293809Y-96459523D01*
X119531904Y-96459523D01*
X119627142Y-96411904D01*
X119674761Y-96364285D01*
X119722380Y-96269047D01*
X119722380Y-96030952D01*
X119674761Y-95935714D01*
X119627142Y-95888095D01*
X118722380Y-96792857D02*
X118722380Y-97411904D01*
X119103333Y-97078571D01*
X119103333Y-97221428D01*
X119150952Y-97316666D01*
X119198571Y-97364285D01*
X119293809Y-97411904D01*
X119531904Y-97411904D01*
X119627142Y-97364285D01*
X119674761Y-97316666D01*
X119722380Y-97221428D01*
X119722380Y-96935714D01*
X119674761Y-96840476D01*
X119627142Y-96792857D01*
%TO.C,C52*%
X122937142Y-90857142D02*
X122984761Y-90809523D01*
X123032380Y-90666666D01*
X123032380Y-90571428D01*
X122984761Y-90428571D01*
X122889523Y-90333333D01*
X122794285Y-90285714D01*
X122603809Y-90238095D01*
X122460952Y-90238095D01*
X122270476Y-90285714D01*
X122175238Y-90333333D01*
X122080000Y-90428571D01*
X122032380Y-90571428D01*
X122032380Y-90666666D01*
X122080000Y-90809523D01*
X122127619Y-90857142D01*
X122032380Y-91761904D02*
X122032380Y-91285714D01*
X122508571Y-91238095D01*
X122460952Y-91285714D01*
X122413333Y-91380952D01*
X122413333Y-91619047D01*
X122460952Y-91714285D01*
X122508571Y-91761904D01*
X122603809Y-91809523D01*
X122841904Y-91809523D01*
X122937142Y-91761904D01*
X122984761Y-91714285D01*
X123032380Y-91619047D01*
X123032380Y-91380952D01*
X122984761Y-91285714D01*
X122937142Y-91238095D01*
X122127619Y-92190476D02*
X122080000Y-92238095D01*
X122032380Y-92333333D01*
X122032380Y-92571428D01*
X122080000Y-92666666D01*
X122127619Y-92714285D01*
X122222857Y-92761904D01*
X122318095Y-92761904D01*
X122460952Y-92714285D01*
X123032380Y-92142857D01*
X123032380Y-92761904D01*
%TO.C,C51*%
X126737142Y-93807142D02*
X126784761Y-93759523D01*
X126832380Y-93616666D01*
X126832380Y-93521428D01*
X126784761Y-93378571D01*
X126689523Y-93283333D01*
X126594285Y-93235714D01*
X126403809Y-93188095D01*
X126260952Y-93188095D01*
X126070476Y-93235714D01*
X125975238Y-93283333D01*
X125880000Y-93378571D01*
X125832380Y-93521428D01*
X125832380Y-93616666D01*
X125880000Y-93759523D01*
X125927619Y-93807142D01*
X125832380Y-94711904D02*
X125832380Y-94235714D01*
X126308571Y-94188095D01*
X126260952Y-94235714D01*
X126213333Y-94330952D01*
X126213333Y-94569047D01*
X126260952Y-94664285D01*
X126308571Y-94711904D01*
X126403809Y-94759523D01*
X126641904Y-94759523D01*
X126737142Y-94711904D01*
X126784761Y-94664285D01*
X126832380Y-94569047D01*
X126832380Y-94330952D01*
X126784761Y-94235714D01*
X126737142Y-94188095D01*
X126832380Y-95711904D02*
X126832380Y-95140476D01*
X126832380Y-95426190D02*
X125832380Y-95426190D01*
X125975238Y-95330952D01*
X126070476Y-95235714D01*
X126118095Y-95140476D01*
%TO.C,C50*%
X118292857Y-100977142D02*
X118340476Y-101024761D01*
X118483333Y-101072380D01*
X118578571Y-101072380D01*
X118721428Y-101024761D01*
X118816666Y-100929523D01*
X118864285Y-100834285D01*
X118911904Y-100643809D01*
X118911904Y-100500952D01*
X118864285Y-100310476D01*
X118816666Y-100215238D01*
X118721428Y-100120000D01*
X118578571Y-100072380D01*
X118483333Y-100072380D01*
X118340476Y-100120000D01*
X118292857Y-100167619D01*
X117388095Y-100072380D02*
X117864285Y-100072380D01*
X117911904Y-100548571D01*
X117864285Y-100500952D01*
X117769047Y-100453333D01*
X117530952Y-100453333D01*
X117435714Y-100500952D01*
X117388095Y-100548571D01*
X117340476Y-100643809D01*
X117340476Y-100881904D01*
X117388095Y-100977142D01*
X117435714Y-101024761D01*
X117530952Y-101072380D01*
X117769047Y-101072380D01*
X117864285Y-101024761D01*
X117911904Y-100977142D01*
X116721428Y-100072380D02*
X116626190Y-100072380D01*
X116530952Y-100120000D01*
X116483333Y-100167619D01*
X116435714Y-100262857D01*
X116388095Y-100453333D01*
X116388095Y-100691428D01*
X116435714Y-100881904D01*
X116483333Y-100977142D01*
X116530952Y-101024761D01*
X116626190Y-101072380D01*
X116721428Y-101072380D01*
X116816666Y-101024761D01*
X116864285Y-100977142D01*
X116911904Y-100881904D01*
X116959523Y-100691428D01*
X116959523Y-100453333D01*
X116911904Y-100262857D01*
X116864285Y-100167619D01*
X116816666Y-100120000D01*
X116721428Y-100072380D01*
D12*
%TO.C,C53*%
X121685000Y-95888748D02*
X121685000Y-96411252D01*
X120215000Y-95888748D02*
X120215000Y-96411252D01*
%TO.C,C52*%
X120165000Y-91761252D02*
X120165000Y-91238748D01*
X121635000Y-91761252D02*
X121635000Y-91238748D01*
%TO.C,C51*%
X123965000Y-94711252D02*
X123965000Y-94188748D01*
X125435000Y-94711252D02*
X125435000Y-94188748D01*
%TO.C,C50*%
X117911252Y-103035000D02*
X117388748Y-103035000D01*
X117911252Y-101565000D02*
X117388748Y-101565000D01*
%TO.C,U7*%
G36*
X123954821Y-31049150D02*
G01*
X123957033Y-31394167D01*
X124302050Y-31396379D01*
X124647066Y-31398590D01*
X124647066Y-31601600D01*
X123952800Y-31601600D01*
X123952800Y-32287401D01*
X123741133Y-32287401D01*
X123741133Y-31601600D01*
X123055333Y-31601600D01*
X123055333Y-31398400D01*
X123741133Y-31398400D01*
X123741133Y-30704134D01*
X123952610Y-30704134D01*
X123954821Y-31049150D01*
G37*
D13*
X123954821Y-31049150D02*
X123957033Y-31394167D01*
X124302050Y-31396379D01*
X124647066Y-31398590D01*
X124647066Y-31601600D01*
X123952800Y-31601600D01*
X123952800Y-32287401D01*
X123741133Y-32287401D01*
X123741133Y-31601600D01*
X123055333Y-31601600D01*
X123055333Y-31398400D01*
X123741133Y-31398400D01*
X123741133Y-30704134D01*
X123952610Y-30704134D01*
X123954821Y-31049150D01*
G36*
X102076314Y-31224341D02*
G01*
X102105706Y-31022441D01*
X102150535Y-30823800D01*
X102210532Y-30629643D01*
X102285429Y-30441193D01*
X102374960Y-30259675D01*
X102478856Y-30086313D01*
X102522374Y-30022062D01*
X102650632Y-29852623D01*
X102789926Y-29695754D01*
X102939658Y-29551814D01*
X103099229Y-29421162D01*
X103268038Y-29304159D01*
X103445488Y-29201163D01*
X103630978Y-29112534D01*
X103823910Y-29038631D01*
X104023685Y-28979814D01*
X104229704Y-28936443D01*
X104441366Y-28908876D01*
X104470753Y-28906843D01*
X104526016Y-28904947D01*
X104591681Y-28904317D01*
X104663879Y-28904859D01*
X104738742Y-28906481D01*
X104812401Y-28909090D01*
X104880988Y-28912595D01*
X104940632Y-28916903D01*
X104987466Y-28921921D01*
X105011109Y-28925230D01*
X105180482Y-28954319D01*
X105339790Y-28992055D01*
X105493751Y-29039880D01*
X105647081Y-29099236D01*
X105804499Y-29171563D01*
X105820506Y-29179512D01*
X106003509Y-29280550D01*
X106176805Y-29395294D01*
X106339780Y-29523181D01*
X106491821Y-29663650D01*
X106632315Y-29816136D01*
X106760647Y-29980077D01*
X106876204Y-30154909D01*
X106937352Y-30261210D01*
X107027692Y-30443291D01*
X107102375Y-30630021D01*
X107161806Y-30822603D01*
X107206388Y-31022240D01*
X107236525Y-31230138D01*
X107251107Y-31364534D01*
X112427948Y-31364534D01*
X112433489Y-31303150D01*
X112448300Y-31170900D01*
X112484791Y-30958728D01*
X112536285Y-30754394D01*
X112602811Y-30557828D01*
X112684402Y-30368961D01*
X112781089Y-30187724D01*
X112892902Y-30014049D01*
X113019873Y-29847867D01*
X113162033Y-29689110D01*
X113217619Y-29633258D01*
X113372101Y-29494303D01*
X113536172Y-29369180D01*
X113709417Y-29258097D01*
X113891421Y-29161262D01*
X114081770Y-29078881D01*
X114280048Y-29011163D01*
X114485840Y-28958315D01*
X114698733Y-28920543D01*
X114719697Y-28917901D01*
X114786130Y-28912014D01*
X114863936Y-28907923D01*
X114949130Y-28905625D01*
X115037726Y-28905117D01*
X115125740Y-28906398D01*
X115209186Y-28909464D01*
X115284079Y-28914313D01*
X115346433Y-28920942D01*
X115475083Y-28941422D01*
X115682773Y-28987204D01*
X115882113Y-29047648D01*
X116073437Y-29122908D01*
X116257078Y-29213137D01*
X116433371Y-29318490D01*
X116602649Y-29439121D01*
X116765245Y-29575184D01*
X116857501Y-29658444D01*
X116771449Y-29744790D01*
X116685398Y-29831135D01*
X116611085Y-29760417D01*
X116536126Y-29693433D01*
X116430308Y-29609876D01*
X116315098Y-29529383D01*
X116194620Y-29454801D01*
X116072998Y-29388977D01*
X115922292Y-29320187D01*
X115739579Y-29253449D01*
X115552953Y-29202447D01*
X115363490Y-29167111D01*
X115172265Y-29147371D01*
X114980355Y-29143157D01*
X114788835Y-29154399D01*
X114598780Y-29181028D01*
X114411266Y-29222974D01*
X114227369Y-29280167D01*
X114048164Y-29352536D01*
X113874727Y-29440013D01*
X113708133Y-29542527D01*
X113643119Y-29588550D01*
X113543777Y-29666118D01*
X113444797Y-29751392D01*
X113350013Y-29840860D01*
X113263261Y-29931011D01*
X113188376Y-30018334D01*
X113139581Y-30082139D01*
X113061137Y-30195909D01*
X112986599Y-30317474D01*
X112918450Y-30442444D01*
X112859172Y-30566432D01*
X112811249Y-30685047D01*
X112806694Y-30697743D01*
X112747510Y-30888887D01*
X112704825Y-31082162D01*
X112678503Y-31276665D01*
X112668403Y-31471490D01*
X112674389Y-31665733D01*
X112696321Y-31858489D01*
X112734061Y-32048853D01*
X112787471Y-32235920D01*
X112856413Y-32418786D01*
X112940748Y-32596546D01*
X113040338Y-32768296D01*
X113155044Y-32933129D01*
X113156318Y-32934803D01*
X113196413Y-32984045D01*
X113246735Y-33040735D01*
X113304331Y-33101941D01*
X113366248Y-33164729D01*
X113429533Y-33226168D01*
X113491234Y-33283325D01*
X113548396Y-33333268D01*
X113598066Y-33373063D01*
X113649490Y-33410698D01*
X113816688Y-33520067D01*
X113989820Y-33613848D01*
X114169489Y-33692286D01*
X114356300Y-33755622D01*
X114550858Y-33804101D01*
X114753766Y-33837965D01*
X114785183Y-33841411D01*
X114856586Y-33846307D01*
X114938248Y-33848901D01*
X115025880Y-33849253D01*
X115115190Y-33847426D01*
X115201889Y-33843479D01*
X115281687Y-33837475D01*
X115350292Y-33829474D01*
X115355019Y-33828780D01*
X115554472Y-33791033D01*
X115747242Y-33737732D01*
X115933209Y-33668934D01*
X116112250Y-33584698D01*
X116284243Y-33485079D01*
X116449066Y-33370136D01*
X116606598Y-33239925D01*
X116689896Y-33165300D01*
X116774674Y-33250078D01*
X116859451Y-33334856D01*
X116767575Y-33417142D01*
X116766537Y-33418072D01*
X116600664Y-33555755D01*
X116428238Y-33677825D01*
X116249245Y-33784287D01*
X116063671Y-33875147D01*
X115871503Y-33950412D01*
X115672728Y-34010088D01*
X115467331Y-34054180D01*
X115255298Y-34082694D01*
X115213692Y-34085898D01*
X115139160Y-34088972D01*
X115055514Y-34089915D01*
X114967086Y-34088843D01*
X114878206Y-34085871D01*
X114793206Y-34081113D01*
X114716415Y-34074684D01*
X114652166Y-34066699D01*
X114544575Y-34048041D01*
X114336293Y-33999598D01*
X114135702Y-33936106D01*
X113942879Y-33857599D01*
X113757902Y-33764110D01*
X113580850Y-33655672D01*
X113411800Y-33532320D01*
X113395444Y-33519033D01*
X113349178Y-33479038D01*
X113296166Y-33430550D01*
X113239211Y-33376353D01*
X113181118Y-33319230D01*
X113124691Y-33261963D01*
X113072735Y-33207336D01*
X113028054Y-33158132D01*
X112993451Y-33117134D01*
X112939679Y-33047140D01*
X112822934Y-32875570D01*
X112720516Y-32695417D01*
X112632725Y-32507443D01*
X112559861Y-32312412D01*
X112502224Y-32111089D01*
X112460113Y-31904236D01*
X112433830Y-31692617D01*
X112428221Y-31627000D01*
X109839025Y-31627000D01*
X107249829Y-31627001D01*
X107244118Y-31696850D01*
X107234854Y-31790148D01*
X107202330Y-31997321D01*
X107154076Y-32199192D01*
X107090542Y-32395061D01*
X107012178Y-32584231D01*
X106919433Y-32766006D01*
X106812758Y-32939687D01*
X106692601Y-33104577D01*
X106559414Y-33259979D01*
X106413646Y-33405194D01*
X106255746Y-33539526D01*
X106086165Y-33662277D01*
X105905352Y-33772750D01*
X105899187Y-33776181D01*
X105741578Y-33855449D01*
X105572806Y-33925200D01*
X105396324Y-33984272D01*
X105215583Y-34031506D01*
X105034033Y-34065741D01*
X105007271Y-34069439D01*
X104933477Y-34077124D01*
X104849216Y-34083116D01*
X104758995Y-34087286D01*
X104667322Y-34089504D01*
X104578705Y-34089640D01*
X104497650Y-34087565D01*
X104428666Y-34083149D01*
X104275217Y-34064677D01*
X104068949Y-34025466D01*
X103868278Y-33970481D01*
X103673810Y-33900007D01*
X103486153Y-33814330D01*
X103305912Y-33713735D01*
X103133695Y-33598505D01*
X102970109Y-33468928D01*
X102815759Y-33325287D01*
X102677692Y-33174940D01*
X102549707Y-33011370D01*
X102435567Y-32838805D01*
X102335722Y-32658145D01*
X102250622Y-32470288D01*
X102180718Y-32276135D01*
X102126460Y-32076584D01*
X102088298Y-31872534D01*
X102083431Y-31837352D01*
X102064909Y-31633021D01*
X102064209Y-31570292D01*
X102340714Y-31570292D01*
X102353997Y-31755981D01*
X102382148Y-31940013D01*
X102425084Y-32121446D01*
X102482722Y-32299333D01*
X102554981Y-32472732D01*
X102641780Y-32640699D01*
X102743034Y-32802288D01*
X102858663Y-32956557D01*
X102988584Y-33102560D01*
X103006420Y-33120800D01*
X103153647Y-33258258D01*
X103309117Y-33380951D01*
X103472564Y-33488749D01*
X103643718Y-33581518D01*
X103822312Y-33659125D01*
X104008077Y-33721440D01*
X104200746Y-33768328D01*
X104400049Y-33799659D01*
X104459362Y-33804836D01*
X104533028Y-33808298D01*
X104614557Y-33809828D01*
X104699830Y-33809489D01*
X104784725Y-33807341D01*
X104865121Y-33803449D01*
X104936897Y-33797873D01*
X104995933Y-33790675D01*
X105090363Y-33774090D01*
X105284622Y-33727646D01*
X105472229Y-33665803D01*
X105652659Y-33588826D01*
X105825384Y-33496982D01*
X105989877Y-33390538D01*
X106145612Y-33269760D01*
X106292061Y-33134915D01*
X106389662Y-33032161D01*
X106488158Y-32914811D01*
X106575982Y-32793162D01*
X106656127Y-32663030D01*
X106731582Y-32520234D01*
X106782549Y-32411129D01*
X106835839Y-32279374D01*
X106879519Y-32147080D01*
X106915288Y-32008987D01*
X106944843Y-31859834D01*
X106949508Y-31831720D01*
X106954231Y-31798816D01*
X106957819Y-31766018D01*
X106960428Y-31730487D01*
X106962210Y-31689383D01*
X106963320Y-31639866D01*
X106963913Y-31579096D01*
X106964142Y-31504234D01*
X106964111Y-31458586D01*
X106963374Y-31376251D01*
X106961428Y-31305768D01*
X106957911Y-31243733D01*
X106952460Y-31186746D01*
X106944712Y-31131401D01*
X106934303Y-31074297D01*
X106920870Y-31012031D01*
X106904050Y-30941200D01*
X106890083Y-30886926D01*
X106831447Y-30701576D01*
X106758119Y-30523592D01*
X106670833Y-30353642D01*
X106570323Y-30192392D01*
X106457319Y-30040511D01*
X106332557Y-29898666D01*
X106196768Y-29767526D01*
X106050685Y-29647758D01*
X105895041Y-29540030D01*
X105730569Y-29445010D01*
X105558001Y-29363365D01*
X105378072Y-29295763D01*
X105191512Y-29242872D01*
X104999056Y-29205360D01*
X104971563Y-29201562D01*
X104898030Y-29193990D01*
X104815082Y-29188332D01*
X104727080Y-29184685D01*
X104638383Y-29183149D01*
X104553353Y-29183820D01*
X104476349Y-29186797D01*
X104411733Y-29192178D01*
X104281795Y-29210529D01*
X104086641Y-29251238D01*
X103899156Y-29306933D01*
X103718948Y-29377754D01*
X103545626Y-29463843D01*
X103378800Y-29565342D01*
X103372849Y-29569321D01*
X103292678Y-29624706D01*
X103222073Y-29677560D01*
X103156123Y-29731916D01*
X103089916Y-29791810D01*
X103018541Y-29861275D01*
X102977469Y-29902987D01*
X102909007Y-29976420D01*
X102848548Y-30047430D01*
X102792209Y-30120687D01*
X102736102Y-30200864D01*
X102670917Y-30303411D01*
X102577829Y-30474256D01*
X102500183Y-30650053D01*
X102437897Y-30829860D01*
X102390890Y-31012732D01*
X102359078Y-31197724D01*
X102342381Y-31383892D01*
X102340714Y-31570292D01*
X102064209Y-31570292D01*
X102062626Y-31428276D01*
X102076314Y-31224341D01*
G37*
X102076314Y-31224341D02*
X102105706Y-31022441D01*
X102150535Y-30823800D01*
X102210532Y-30629643D01*
X102285429Y-30441193D01*
X102374960Y-30259675D01*
X102478856Y-30086313D01*
X102522374Y-30022062D01*
X102650632Y-29852623D01*
X102789926Y-29695754D01*
X102939658Y-29551814D01*
X103099229Y-29421162D01*
X103268038Y-29304159D01*
X103445488Y-29201163D01*
X103630978Y-29112534D01*
X103823910Y-29038631D01*
X104023685Y-28979814D01*
X104229704Y-28936443D01*
X104441366Y-28908876D01*
X104470753Y-28906843D01*
X104526016Y-28904947D01*
X104591681Y-28904317D01*
X104663879Y-28904859D01*
X104738742Y-28906481D01*
X104812401Y-28909090D01*
X104880988Y-28912595D01*
X104940632Y-28916903D01*
X104987466Y-28921921D01*
X105011109Y-28925230D01*
X105180482Y-28954319D01*
X105339790Y-28992055D01*
X105493751Y-29039880D01*
X105647081Y-29099236D01*
X105804499Y-29171563D01*
X105820506Y-29179512D01*
X106003509Y-29280550D01*
X106176805Y-29395294D01*
X106339780Y-29523181D01*
X106491821Y-29663650D01*
X106632315Y-29816136D01*
X106760647Y-29980077D01*
X106876204Y-30154909D01*
X106937352Y-30261210D01*
X107027692Y-30443291D01*
X107102375Y-30630021D01*
X107161806Y-30822603D01*
X107206388Y-31022240D01*
X107236525Y-31230138D01*
X107251107Y-31364534D01*
X112427948Y-31364534D01*
X112433489Y-31303150D01*
X112448300Y-31170900D01*
X112484791Y-30958728D01*
X112536285Y-30754394D01*
X112602811Y-30557828D01*
X112684402Y-30368961D01*
X112781089Y-30187724D01*
X112892902Y-30014049D01*
X113019873Y-29847867D01*
X113162033Y-29689110D01*
X113217619Y-29633258D01*
X113372101Y-29494303D01*
X113536172Y-29369180D01*
X113709417Y-29258097D01*
X113891421Y-29161262D01*
X114081770Y-29078881D01*
X114280048Y-29011163D01*
X114485840Y-28958315D01*
X114698733Y-28920543D01*
X114719697Y-28917901D01*
X114786130Y-28912014D01*
X114863936Y-28907923D01*
X114949130Y-28905625D01*
X115037726Y-28905117D01*
X115125740Y-28906398D01*
X115209186Y-28909464D01*
X115284079Y-28914313D01*
X115346433Y-28920942D01*
X115475083Y-28941422D01*
X115682773Y-28987204D01*
X115882113Y-29047648D01*
X116073437Y-29122908D01*
X116257078Y-29213137D01*
X116433371Y-29318490D01*
X116602649Y-29439121D01*
X116765245Y-29575184D01*
X116857501Y-29658444D01*
X116771449Y-29744790D01*
X116685398Y-29831135D01*
X116611085Y-29760417D01*
X116536126Y-29693433D01*
X116430308Y-29609876D01*
X116315098Y-29529383D01*
X116194620Y-29454801D01*
X116072998Y-29388977D01*
X115922292Y-29320187D01*
X115739579Y-29253449D01*
X115552953Y-29202447D01*
X115363490Y-29167111D01*
X115172265Y-29147371D01*
X114980355Y-29143157D01*
X114788835Y-29154399D01*
X114598780Y-29181028D01*
X114411266Y-29222974D01*
X114227369Y-29280167D01*
X114048164Y-29352536D01*
X113874727Y-29440013D01*
X113708133Y-29542527D01*
X113643119Y-29588550D01*
X113543777Y-29666118D01*
X113444797Y-29751392D01*
X113350013Y-29840860D01*
X113263261Y-29931011D01*
X113188376Y-30018334D01*
X113139581Y-30082139D01*
X113061137Y-30195909D01*
X112986599Y-30317474D01*
X112918450Y-30442444D01*
X112859172Y-30566432D01*
X112811249Y-30685047D01*
X112806694Y-30697743D01*
X112747510Y-30888887D01*
X112704825Y-31082162D01*
X112678503Y-31276665D01*
X112668403Y-31471490D01*
X112674389Y-31665733D01*
X112696321Y-31858489D01*
X112734061Y-32048853D01*
X112787471Y-32235920D01*
X112856413Y-32418786D01*
X112940748Y-32596546D01*
X113040338Y-32768296D01*
X113155044Y-32933129D01*
X113156318Y-32934803D01*
X113196413Y-32984045D01*
X113246735Y-33040735D01*
X113304331Y-33101941D01*
X113366248Y-33164729D01*
X113429533Y-33226168D01*
X113491234Y-33283325D01*
X113548396Y-33333268D01*
X113598066Y-33373063D01*
X113649490Y-33410698D01*
X113816688Y-33520067D01*
X113989820Y-33613848D01*
X114169489Y-33692286D01*
X114356300Y-33755622D01*
X114550858Y-33804101D01*
X114753766Y-33837965D01*
X114785183Y-33841411D01*
X114856586Y-33846307D01*
X114938248Y-33848901D01*
X115025880Y-33849253D01*
X115115190Y-33847426D01*
X115201889Y-33843479D01*
X115281687Y-33837475D01*
X115350292Y-33829474D01*
X115355019Y-33828780D01*
X115554472Y-33791033D01*
X115747242Y-33737732D01*
X115933209Y-33668934D01*
X116112250Y-33584698D01*
X116284243Y-33485079D01*
X116449066Y-33370136D01*
X116606598Y-33239925D01*
X116689896Y-33165300D01*
X116774674Y-33250078D01*
X116859451Y-33334856D01*
X116767575Y-33417142D01*
X116766537Y-33418072D01*
X116600664Y-33555755D01*
X116428238Y-33677825D01*
X116249245Y-33784287D01*
X116063671Y-33875147D01*
X115871503Y-33950412D01*
X115672728Y-34010088D01*
X115467331Y-34054180D01*
X115255298Y-34082694D01*
X115213692Y-34085898D01*
X115139160Y-34088972D01*
X115055514Y-34089915D01*
X114967086Y-34088843D01*
X114878206Y-34085871D01*
X114793206Y-34081113D01*
X114716415Y-34074684D01*
X114652166Y-34066699D01*
X114544575Y-34048041D01*
X114336293Y-33999598D01*
X114135702Y-33936106D01*
X113942879Y-33857599D01*
X113757902Y-33764110D01*
X113580850Y-33655672D01*
X113411800Y-33532320D01*
X113395444Y-33519033D01*
X113349178Y-33479038D01*
X113296166Y-33430550D01*
X113239211Y-33376353D01*
X113181118Y-33319230D01*
X113124691Y-33261963D01*
X113072735Y-33207336D01*
X113028054Y-33158132D01*
X112993451Y-33117134D01*
X112939679Y-33047140D01*
X112822934Y-32875570D01*
X112720516Y-32695417D01*
X112632725Y-32507443D01*
X112559861Y-32312412D01*
X112502224Y-32111089D01*
X112460113Y-31904236D01*
X112433830Y-31692617D01*
X112428221Y-31627000D01*
X109839025Y-31627000D01*
X107249829Y-31627001D01*
X107244118Y-31696850D01*
X107234854Y-31790148D01*
X107202330Y-31997321D01*
X107154076Y-32199192D01*
X107090542Y-32395061D01*
X107012178Y-32584231D01*
X106919433Y-32766006D01*
X106812758Y-32939687D01*
X106692601Y-33104577D01*
X106559414Y-33259979D01*
X106413646Y-33405194D01*
X106255746Y-33539526D01*
X106086165Y-33662277D01*
X105905352Y-33772750D01*
X105899187Y-33776181D01*
X105741578Y-33855449D01*
X105572806Y-33925200D01*
X105396324Y-33984272D01*
X105215583Y-34031506D01*
X105034033Y-34065741D01*
X105007271Y-34069439D01*
X104933477Y-34077124D01*
X104849216Y-34083116D01*
X104758995Y-34087286D01*
X104667322Y-34089504D01*
X104578705Y-34089640D01*
X104497650Y-34087565D01*
X104428666Y-34083149D01*
X104275217Y-34064677D01*
X104068949Y-34025466D01*
X103868278Y-33970481D01*
X103673810Y-33900007D01*
X103486153Y-33814330D01*
X103305912Y-33713735D01*
X103133695Y-33598505D01*
X102970109Y-33468928D01*
X102815759Y-33325287D01*
X102677692Y-33174940D01*
X102549707Y-33011370D01*
X102435567Y-32838805D01*
X102335722Y-32658145D01*
X102250622Y-32470288D01*
X102180718Y-32276135D01*
X102126460Y-32076584D01*
X102088298Y-31872534D01*
X102083431Y-31837352D01*
X102064909Y-31633021D01*
X102064209Y-31570292D01*
X102340714Y-31570292D01*
X102353997Y-31755981D01*
X102382148Y-31940013D01*
X102425084Y-32121446D01*
X102482722Y-32299333D01*
X102554981Y-32472732D01*
X102641780Y-32640699D01*
X102743034Y-32802288D01*
X102858663Y-32956557D01*
X102988584Y-33102560D01*
X103006420Y-33120800D01*
X103153647Y-33258258D01*
X103309117Y-33380951D01*
X103472564Y-33488749D01*
X103643718Y-33581518D01*
X103822312Y-33659125D01*
X104008077Y-33721440D01*
X104200746Y-33768328D01*
X104400049Y-33799659D01*
X104459362Y-33804836D01*
X104533028Y-33808298D01*
X104614557Y-33809828D01*
X104699830Y-33809489D01*
X104784725Y-33807341D01*
X104865121Y-33803449D01*
X104936897Y-33797873D01*
X104995933Y-33790675D01*
X105090363Y-33774090D01*
X105284622Y-33727646D01*
X105472229Y-33665803D01*
X105652659Y-33588826D01*
X105825384Y-33496982D01*
X105989877Y-33390538D01*
X106145612Y-33269760D01*
X106292061Y-33134915D01*
X106389662Y-33032161D01*
X106488158Y-32914811D01*
X106575982Y-32793162D01*
X106656127Y-32663030D01*
X106731582Y-32520234D01*
X106782549Y-32411129D01*
X106835839Y-32279374D01*
X106879519Y-32147080D01*
X106915288Y-32008987D01*
X106944843Y-31859834D01*
X106949508Y-31831720D01*
X106954231Y-31798816D01*
X106957819Y-31766018D01*
X106960428Y-31730487D01*
X106962210Y-31689383D01*
X106963320Y-31639866D01*
X106963913Y-31579096D01*
X106964142Y-31504234D01*
X106964111Y-31458586D01*
X106963374Y-31376251D01*
X106961428Y-31305768D01*
X106957911Y-31243733D01*
X106952460Y-31186746D01*
X106944712Y-31131401D01*
X106934303Y-31074297D01*
X106920870Y-31012031D01*
X106904050Y-30941200D01*
X106890083Y-30886926D01*
X106831447Y-30701576D01*
X106758119Y-30523592D01*
X106670833Y-30353642D01*
X106570323Y-30192392D01*
X106457319Y-30040511D01*
X106332557Y-29898666D01*
X106196768Y-29767526D01*
X106050685Y-29647758D01*
X105895041Y-29540030D01*
X105730569Y-29445010D01*
X105558001Y-29363365D01*
X105378072Y-29295763D01*
X105191512Y-29242872D01*
X104999056Y-29205360D01*
X104971563Y-29201562D01*
X104898030Y-29193990D01*
X104815082Y-29188332D01*
X104727080Y-29184685D01*
X104638383Y-29183149D01*
X104553353Y-29183820D01*
X104476349Y-29186797D01*
X104411733Y-29192178D01*
X104281795Y-29210529D01*
X104086641Y-29251238D01*
X103899156Y-29306933D01*
X103718948Y-29377754D01*
X103545626Y-29463843D01*
X103378800Y-29565342D01*
X103372849Y-29569321D01*
X103292678Y-29624706D01*
X103222073Y-29677560D01*
X103156123Y-29731916D01*
X103089916Y-29791810D01*
X103018541Y-29861275D01*
X102977469Y-29902987D01*
X102909007Y-29976420D01*
X102848548Y-30047430D01*
X102792209Y-30120687D01*
X102736102Y-30200864D01*
X102670917Y-30303411D01*
X102577829Y-30474256D01*
X102500183Y-30650053D01*
X102437897Y-30829860D01*
X102390890Y-31012732D01*
X102359078Y-31197724D01*
X102342381Y-31383892D01*
X102340714Y-31570292D01*
X102064209Y-31570292D01*
X102062626Y-31428276D01*
X102076314Y-31224341D01*
G36*
X113985313Y-31218847D02*
G01*
X114025996Y-31099058D01*
X114082367Y-30985513D01*
X114154569Y-30877861D01*
X114242745Y-30775754D01*
X114328576Y-30696161D01*
X114433418Y-30619414D01*
X114545625Y-30557030D01*
X114663559Y-30510043D01*
X114705244Y-30497094D01*
X114758761Y-30482885D01*
X114809625Y-30473084D01*
X114862713Y-30467003D01*
X114922902Y-30463954D01*
X114995066Y-30463249D01*
X115037752Y-30463544D01*
X115084251Y-30464668D01*
X115121669Y-30467034D01*
X115154523Y-30471094D01*
X115187333Y-30477295D01*
X115224615Y-30486088D01*
X115289526Y-30504125D01*
X115406726Y-30547735D01*
X115514317Y-30603848D01*
X115614786Y-30673860D01*
X115710618Y-30759167D01*
X115788786Y-30843849D01*
X115863905Y-30945072D01*
X115923941Y-31051817D01*
X115969784Y-31165699D01*
X116002325Y-31288334D01*
X116017101Y-31360300D01*
X118637534Y-31362431D01*
X121257968Y-31364561D01*
X121263731Y-31286231D01*
X121272635Y-31193695D01*
X121296714Y-31034348D01*
X121331308Y-30872617D01*
X121375147Y-30714109D01*
X121426963Y-30564434D01*
X121445695Y-30518570D01*
X121477063Y-30448437D01*
X121513564Y-30372376D01*
X121552973Y-30294740D01*
X121593066Y-30219882D01*
X121631618Y-30152156D01*
X121666403Y-30095914D01*
X121693728Y-30054615D01*
X121743473Y-29982030D01*
X121790380Y-29917906D01*
X121837594Y-29858357D01*
X121888264Y-29799496D01*
X121945535Y-29737434D01*
X122012555Y-29668285D01*
X122132505Y-29554117D01*
X122292425Y-29422517D01*
X122461531Y-29304848D01*
X122639145Y-29201429D01*
X122824588Y-29112578D01*
X123017180Y-29038613D01*
X123216243Y-28979853D01*
X123421098Y-28936616D01*
X123631066Y-28909221D01*
X123656762Y-28907359D01*
X123712433Y-28905223D01*
X123778786Y-28904399D01*
X123851896Y-28904795D01*
X123927838Y-28906322D01*
X124002685Y-28908889D01*
X124072511Y-28912404D01*
X124133391Y-28916779D01*
X124181400Y-28921921D01*
X124205882Y-28925350D01*
X124375254Y-28954487D01*
X124534529Y-28992267D01*
X124688373Y-29040118D01*
X124841452Y-29099467D01*
X124998433Y-29171741D01*
X125119277Y-29235317D01*
X125296327Y-29343829D01*
X125462687Y-29464930D01*
X125617861Y-29597909D01*
X125761350Y-29742058D01*
X125892658Y-29896666D01*
X126011285Y-30061023D01*
X126116734Y-30234419D01*
X126208508Y-30416144D01*
X126286108Y-30605488D01*
X126349038Y-30801741D01*
X126396798Y-31004193D01*
X126428892Y-31212134D01*
X126429886Y-31221191D01*
X126435208Y-31286182D01*
X126438976Y-31362306D01*
X126441152Y-31444901D01*
X126441698Y-31529306D01*
X126440577Y-31610858D01*
X126437752Y-31684894D01*
X126433185Y-31746753D01*
X126428779Y-31787477D01*
X126396380Y-31995252D01*
X126348222Y-32197619D01*
X126284755Y-32393891D01*
X126206432Y-32583380D01*
X126113706Y-32765401D01*
X126007027Y-32939267D01*
X125886849Y-33104291D01*
X125753623Y-33259786D01*
X125607802Y-33405066D01*
X125449837Y-33539445D01*
X125280181Y-33662235D01*
X125099285Y-33772750D01*
X124951334Y-33848222D01*
X124779818Y-33920352D01*
X124599501Y-33981466D01*
X124413200Y-34030615D01*
X124223733Y-34066855D01*
X124197204Y-34070835D01*
X124160165Y-34075739D01*
X124123921Y-34079482D01*
X124085515Y-34082217D01*
X124041994Y-34084096D01*
X123990404Y-34085273D01*
X123927790Y-34085901D01*
X123851200Y-34086132D01*
X123788811Y-34086103D01*
X123724246Y-34085719D01*
X123671285Y-34084809D01*
X123626974Y-34083222D01*
X123588362Y-34080810D01*
X123552496Y-34077422D01*
X123516424Y-34072907D01*
X123477195Y-34067115D01*
X123315645Y-34037241D01*
X123110200Y-33984605D01*
X122911989Y-33916888D01*
X122721503Y-33834385D01*
X122539235Y-33737392D01*
X122365677Y-33626202D01*
X122201322Y-33501110D01*
X122046663Y-33362410D01*
X121902191Y-33210397D01*
X121768400Y-33045365D01*
X121735424Y-33000227D01*
X121625884Y-32832876D01*
X121529288Y-32656693D01*
X121446290Y-32473412D01*
X121377542Y-32284766D01*
X121323698Y-32092488D01*
X121285408Y-31898312D01*
X121263327Y-31703969D01*
X121257862Y-31626974D01*
X118637471Y-31629104D01*
X116017079Y-31631234D01*
X116000867Y-31711482D01*
X115983587Y-31782826D01*
X115941484Y-31901887D01*
X115884849Y-32014660D01*
X115814867Y-32119826D01*
X115732721Y-32216065D01*
X115639598Y-32302056D01*
X115536681Y-32376481D01*
X115425156Y-32438018D01*
X115306208Y-32485350D01*
X115285168Y-32491977D01*
X115206082Y-32512472D01*
X115126626Y-32525327D01*
X115041604Y-32531194D01*
X114945824Y-32530728D01*
X114902467Y-32529008D01*
X114851624Y-32525740D01*
X114809561Y-32520992D01*
X114771484Y-32514179D01*
X114732600Y-32504717D01*
X114722862Y-32502056D01*
X114595261Y-32458299D01*
X114476483Y-32400803D01*
X114367400Y-32330389D01*
X114268886Y-32247877D01*
X114181811Y-32154088D01*
X114107048Y-32049843D01*
X114045468Y-31935962D01*
X113997944Y-31813267D01*
X113988911Y-31783824D01*
X113970236Y-31712228D01*
X113958236Y-31644087D01*
X113951923Y-31572741D01*
X113950311Y-31491534D01*
X113950440Y-31478557D01*
X113955815Y-31404947D01*
X121536236Y-31404947D01*
X121536378Y-31598005D01*
X121552398Y-31789090D01*
X121584018Y-31977328D01*
X121630961Y-32161842D01*
X121692950Y-32341758D01*
X121769706Y-32516200D01*
X121860954Y-32684293D01*
X121966414Y-32845161D01*
X122085810Y-32997929D01*
X122218864Y-33141723D01*
X122365300Y-33275666D01*
X122507883Y-33386091D01*
X122670416Y-33491599D01*
X122841588Y-33583005D01*
X123020463Y-33659912D01*
X123206110Y-33721922D01*
X123397594Y-33768637D01*
X123593982Y-33799659D01*
X123653295Y-33804836D01*
X123726961Y-33808298D01*
X123808491Y-33809828D01*
X123893763Y-33809489D01*
X123978658Y-33807341D01*
X124059054Y-33803449D01*
X124130830Y-33797873D01*
X124189866Y-33790675D01*
X124283297Y-33774287D01*
X124477666Y-33727908D01*
X124665364Y-33666117D01*
X124845884Y-33589169D01*
X125018724Y-33497320D01*
X125183378Y-33390825D01*
X125339343Y-33269938D01*
X125486114Y-33134915D01*
X125512009Y-33108680D01*
X125627842Y-32981353D01*
X125730146Y-32850485D01*
X125821714Y-32712263D01*
X125905340Y-32562876D01*
X125943454Y-32486109D01*
X126008505Y-32336914D01*
X126061552Y-32186490D01*
X126104151Y-32030161D01*
X126137856Y-31863248D01*
X126138047Y-31862126D01*
X126145914Y-31803986D01*
X126152349Y-31733090D01*
X126157238Y-31653475D01*
X126160470Y-31569176D01*
X126161930Y-31484231D01*
X126161506Y-31402675D01*
X126159086Y-31328545D01*
X126154557Y-31265877D01*
X126152538Y-31246694D01*
X126122740Y-31051091D01*
X126076854Y-30860132D01*
X126015266Y-30674632D01*
X125938362Y-30495403D01*
X125846530Y-30323259D01*
X125740154Y-30159013D01*
X125619623Y-30003478D01*
X125485321Y-29857467D01*
X125416540Y-29791426D01*
X125265695Y-29663651D01*
X125105801Y-29550022D01*
X124937497Y-29450860D01*
X124761423Y-29366490D01*
X124578221Y-29297235D01*
X124388529Y-29243417D01*
X124192990Y-29205360D01*
X124165496Y-29201562D01*
X124091964Y-29193990D01*
X124009016Y-29188332D01*
X123921013Y-29184685D01*
X123832317Y-29183149D01*
X123747286Y-29183820D01*
X123670283Y-29186797D01*
X123605666Y-29192178D01*
X123472990Y-29211087D01*
X123276159Y-29252785D01*
X123086119Y-29309986D01*
X122902923Y-29382667D01*
X122726624Y-29470808D01*
X122557276Y-29574385D01*
X122394933Y-29693377D01*
X122389574Y-29697691D01*
X122344600Y-29736192D01*
X122292630Y-29783901D01*
X122237002Y-29837479D01*
X122181052Y-29893589D01*
X122128117Y-29948893D01*
X122081534Y-30000054D01*
X122044641Y-30043734D01*
X121934378Y-30193764D01*
X121831074Y-30360989D01*
X121742543Y-30535209D01*
X121669390Y-30715226D01*
X121612220Y-30899842D01*
X121584696Y-31016414D01*
X121552250Y-31210791D01*
X121536236Y-31404947D01*
X113955815Y-31404947D01*
X113960175Y-31345230D01*
X113985313Y-31218847D01*
G37*
X113985313Y-31218847D02*
X114025996Y-31099058D01*
X114082367Y-30985513D01*
X114154569Y-30877861D01*
X114242745Y-30775754D01*
X114328576Y-30696161D01*
X114433418Y-30619414D01*
X114545625Y-30557030D01*
X114663559Y-30510043D01*
X114705244Y-30497094D01*
X114758761Y-30482885D01*
X114809625Y-30473084D01*
X114862713Y-30467003D01*
X114922902Y-30463954D01*
X114995066Y-30463249D01*
X115037752Y-30463544D01*
X115084251Y-30464668D01*
X115121669Y-30467034D01*
X115154523Y-30471094D01*
X115187333Y-30477295D01*
X115224615Y-30486088D01*
X115289526Y-30504125D01*
X115406726Y-30547735D01*
X115514317Y-30603848D01*
X115614786Y-30673860D01*
X115710618Y-30759167D01*
X115788786Y-30843849D01*
X115863905Y-30945072D01*
X115923941Y-31051817D01*
X115969784Y-31165699D01*
X116002325Y-31288334D01*
X116017101Y-31360300D01*
X118637534Y-31362431D01*
X121257968Y-31364561D01*
X121263731Y-31286231D01*
X121272635Y-31193695D01*
X121296714Y-31034348D01*
X121331308Y-30872617D01*
X121375147Y-30714109D01*
X121426963Y-30564434D01*
X121445695Y-30518570D01*
X121477063Y-30448437D01*
X121513564Y-30372376D01*
X121552973Y-30294740D01*
X121593066Y-30219882D01*
X121631618Y-30152156D01*
X121666403Y-30095914D01*
X121693728Y-30054615D01*
X121743473Y-29982030D01*
X121790380Y-29917906D01*
X121837594Y-29858357D01*
X121888264Y-29799496D01*
X121945535Y-29737434D01*
X122012555Y-29668285D01*
X122132505Y-29554117D01*
X122292425Y-29422517D01*
X122461531Y-29304848D01*
X122639145Y-29201429D01*
X122824588Y-29112578D01*
X123017180Y-29038613D01*
X123216243Y-28979853D01*
X123421098Y-28936616D01*
X123631066Y-28909221D01*
X123656762Y-28907359D01*
X123712433Y-28905223D01*
X123778786Y-28904399D01*
X123851896Y-28904795D01*
X123927838Y-28906322D01*
X124002685Y-28908889D01*
X124072511Y-28912404D01*
X124133391Y-28916779D01*
X124181400Y-28921921D01*
X124205882Y-28925350D01*
X124375254Y-28954487D01*
X124534529Y-28992267D01*
X124688373Y-29040118D01*
X124841452Y-29099467D01*
X124998433Y-29171741D01*
X125119277Y-29235317D01*
X125296327Y-29343829D01*
X125462687Y-29464930D01*
X125617861Y-29597909D01*
X125761350Y-29742058D01*
X125892658Y-29896666D01*
X126011285Y-30061023D01*
X126116734Y-30234419D01*
X126208508Y-30416144D01*
X126286108Y-30605488D01*
X126349038Y-30801741D01*
X126396798Y-31004193D01*
X126428892Y-31212134D01*
X126429886Y-31221191D01*
X126435208Y-31286182D01*
X126438976Y-31362306D01*
X126441152Y-31444901D01*
X126441698Y-31529306D01*
X126440577Y-31610858D01*
X126437752Y-31684894D01*
X126433185Y-31746753D01*
X126428779Y-31787477D01*
X126396380Y-31995252D01*
X126348222Y-32197619D01*
X126284755Y-32393891D01*
X126206432Y-32583380D01*
X126113706Y-32765401D01*
X126007027Y-32939267D01*
X125886849Y-33104291D01*
X125753623Y-33259786D01*
X125607802Y-33405066D01*
X125449837Y-33539445D01*
X125280181Y-33662235D01*
X125099285Y-33772750D01*
X124951334Y-33848222D01*
X124779818Y-33920352D01*
X124599501Y-33981466D01*
X124413200Y-34030615D01*
X124223733Y-34066855D01*
X124197204Y-34070835D01*
X124160165Y-34075739D01*
X124123921Y-34079482D01*
X124085515Y-34082217D01*
X124041994Y-34084096D01*
X123990404Y-34085273D01*
X123927790Y-34085901D01*
X123851200Y-34086132D01*
X123788811Y-34086103D01*
X123724246Y-34085719D01*
X123671285Y-34084809D01*
X123626974Y-34083222D01*
X123588362Y-34080810D01*
X123552496Y-34077422D01*
X123516424Y-34072907D01*
X123477195Y-34067115D01*
X123315645Y-34037241D01*
X123110200Y-33984605D01*
X122911989Y-33916888D01*
X122721503Y-33834385D01*
X122539235Y-33737392D01*
X122365677Y-33626202D01*
X122201322Y-33501110D01*
X122046663Y-33362410D01*
X121902191Y-33210397D01*
X121768400Y-33045365D01*
X121735424Y-33000227D01*
X121625884Y-32832876D01*
X121529288Y-32656693D01*
X121446290Y-32473412D01*
X121377542Y-32284766D01*
X121323698Y-32092488D01*
X121285408Y-31898312D01*
X121263327Y-31703969D01*
X121257862Y-31626974D01*
X118637471Y-31629104D01*
X116017079Y-31631234D01*
X116000867Y-31711482D01*
X115983587Y-31782826D01*
X115941484Y-31901887D01*
X115884849Y-32014660D01*
X115814867Y-32119826D01*
X115732721Y-32216065D01*
X115639598Y-32302056D01*
X115536681Y-32376481D01*
X115425156Y-32438018D01*
X115306208Y-32485350D01*
X115285168Y-32491977D01*
X115206082Y-32512472D01*
X115126626Y-32525327D01*
X115041604Y-32531194D01*
X114945824Y-32530728D01*
X114902467Y-32529008D01*
X114851624Y-32525740D01*
X114809561Y-32520992D01*
X114771484Y-32514179D01*
X114732600Y-32504717D01*
X114722862Y-32502056D01*
X114595261Y-32458299D01*
X114476483Y-32400803D01*
X114367400Y-32330389D01*
X114268886Y-32247877D01*
X114181811Y-32154088D01*
X114107048Y-32049843D01*
X114045468Y-31935962D01*
X113997944Y-31813267D01*
X113988911Y-31783824D01*
X113970236Y-31712228D01*
X113958236Y-31644087D01*
X113951923Y-31572741D01*
X113950311Y-31491534D01*
X113950440Y-31478557D01*
X113955815Y-31404947D01*
X121536236Y-31404947D01*
X121536378Y-31598005D01*
X121552398Y-31789090D01*
X121584018Y-31977328D01*
X121630961Y-32161842D01*
X121692950Y-32341758D01*
X121769706Y-32516200D01*
X121860954Y-32684293D01*
X121966414Y-32845161D01*
X122085810Y-32997929D01*
X122218864Y-33141723D01*
X122365300Y-33275666D01*
X122507883Y-33386091D01*
X122670416Y-33491599D01*
X122841588Y-33583005D01*
X123020463Y-33659912D01*
X123206110Y-33721922D01*
X123397594Y-33768637D01*
X123593982Y-33799659D01*
X123653295Y-33804836D01*
X123726961Y-33808298D01*
X123808491Y-33809828D01*
X123893763Y-33809489D01*
X123978658Y-33807341D01*
X124059054Y-33803449D01*
X124130830Y-33797873D01*
X124189866Y-33790675D01*
X124283297Y-33774287D01*
X124477666Y-33727908D01*
X124665364Y-33666117D01*
X124845884Y-33589169D01*
X125018724Y-33497320D01*
X125183378Y-33390825D01*
X125339343Y-33269938D01*
X125486114Y-33134915D01*
X125512009Y-33108680D01*
X125627842Y-32981353D01*
X125730146Y-32850485D01*
X125821714Y-32712263D01*
X125905340Y-32562876D01*
X125943454Y-32486109D01*
X126008505Y-32336914D01*
X126061552Y-32186490D01*
X126104151Y-32030161D01*
X126137856Y-31863248D01*
X126138047Y-31862126D01*
X126145914Y-31803986D01*
X126152349Y-31733090D01*
X126157238Y-31653475D01*
X126160470Y-31569176D01*
X126161930Y-31484231D01*
X126161506Y-31402675D01*
X126159086Y-31328545D01*
X126154557Y-31265877D01*
X126152538Y-31246694D01*
X126122740Y-31051091D01*
X126076854Y-30860132D01*
X126015266Y-30674632D01*
X125938362Y-30495403D01*
X125846530Y-30323259D01*
X125740154Y-30159013D01*
X125619623Y-30003478D01*
X125485321Y-29857467D01*
X125416540Y-29791426D01*
X125265695Y-29663651D01*
X125105801Y-29550022D01*
X124937497Y-29450860D01*
X124761423Y-29366490D01*
X124578221Y-29297235D01*
X124388529Y-29243417D01*
X124192990Y-29205360D01*
X124165496Y-29201562D01*
X124091964Y-29193990D01*
X124009016Y-29188332D01*
X123921013Y-29184685D01*
X123832317Y-29183149D01*
X123747286Y-29183820D01*
X123670283Y-29186797D01*
X123605666Y-29192178D01*
X123472990Y-29211087D01*
X123276159Y-29252785D01*
X123086119Y-29309986D01*
X122902923Y-29382667D01*
X122726624Y-29470808D01*
X122557276Y-29574385D01*
X122394933Y-29693377D01*
X122389574Y-29697691D01*
X122344600Y-29736192D01*
X122292630Y-29783901D01*
X122237002Y-29837479D01*
X122181052Y-29893589D01*
X122128117Y-29948893D01*
X122081534Y-30000054D01*
X122044641Y-30043734D01*
X121934378Y-30193764D01*
X121831074Y-30360989D01*
X121742543Y-30535209D01*
X121669390Y-30715226D01*
X121612220Y-30899842D01*
X121584696Y-31016414D01*
X121552250Y-31210791D01*
X121536236Y-31404947D01*
X113955815Y-31404947D01*
X113960175Y-31345230D01*
X113985313Y-31218847D01*
G36*
X105055200Y-31610067D02*
G01*
X104259333Y-31610067D01*
X104259333Y-31381467D01*
X105055200Y-31381467D01*
X105055200Y-31610067D01*
G37*
X105055200Y-31610067D02*
X104259333Y-31610067D01*
X104259333Y-31381467D01*
X105055200Y-31381467D01*
X105055200Y-31610067D01*
%TO.C,U8*%
G36*
X123954821Y-36549150D02*
G01*
X123957033Y-36894167D01*
X124302050Y-36896379D01*
X124647066Y-36898590D01*
X124647066Y-37101600D01*
X123952800Y-37101600D01*
X123952800Y-37787401D01*
X123741133Y-37787401D01*
X123741133Y-37101600D01*
X123055333Y-37101600D01*
X123055333Y-36898400D01*
X123741133Y-36898400D01*
X123741133Y-36204134D01*
X123952610Y-36204134D01*
X123954821Y-36549150D01*
G37*
X123954821Y-36549150D02*
X123957033Y-36894167D01*
X124302050Y-36896379D01*
X124647066Y-36898590D01*
X124647066Y-37101600D01*
X123952800Y-37101600D01*
X123952800Y-37787401D01*
X123741133Y-37787401D01*
X123741133Y-37101600D01*
X123055333Y-37101600D01*
X123055333Y-36898400D01*
X123741133Y-36898400D01*
X123741133Y-36204134D01*
X123952610Y-36204134D01*
X123954821Y-36549150D01*
G36*
X102076314Y-36724341D02*
G01*
X102105706Y-36522441D01*
X102150535Y-36323800D01*
X102210532Y-36129643D01*
X102285429Y-35941193D01*
X102374960Y-35759675D01*
X102478856Y-35586313D01*
X102522374Y-35522062D01*
X102650632Y-35352623D01*
X102789926Y-35195754D01*
X102939658Y-35051814D01*
X103099229Y-34921162D01*
X103268038Y-34804159D01*
X103445488Y-34701163D01*
X103630978Y-34612534D01*
X103823910Y-34538631D01*
X104023685Y-34479814D01*
X104229704Y-34436443D01*
X104441366Y-34408876D01*
X104470753Y-34406843D01*
X104526016Y-34404947D01*
X104591681Y-34404317D01*
X104663879Y-34404859D01*
X104738742Y-34406481D01*
X104812401Y-34409090D01*
X104880988Y-34412595D01*
X104940632Y-34416903D01*
X104987466Y-34421921D01*
X105011109Y-34425230D01*
X105180482Y-34454319D01*
X105339790Y-34492055D01*
X105493751Y-34539880D01*
X105647081Y-34599236D01*
X105804499Y-34671563D01*
X105820506Y-34679512D01*
X106003509Y-34780550D01*
X106176805Y-34895294D01*
X106339780Y-35023181D01*
X106491821Y-35163650D01*
X106632315Y-35316136D01*
X106760647Y-35480077D01*
X106876204Y-35654909D01*
X106937352Y-35761210D01*
X107027692Y-35943291D01*
X107102375Y-36130021D01*
X107161806Y-36322603D01*
X107206388Y-36522240D01*
X107236525Y-36730138D01*
X107251107Y-36864534D01*
X112427948Y-36864534D01*
X112433489Y-36803150D01*
X112448300Y-36670900D01*
X112484791Y-36458728D01*
X112536285Y-36254394D01*
X112602811Y-36057828D01*
X112684402Y-35868961D01*
X112781089Y-35687724D01*
X112892902Y-35514049D01*
X113019873Y-35347867D01*
X113162033Y-35189110D01*
X113217619Y-35133258D01*
X113372101Y-34994303D01*
X113536172Y-34869180D01*
X113709417Y-34758097D01*
X113891421Y-34661262D01*
X114081770Y-34578881D01*
X114280048Y-34511163D01*
X114485840Y-34458315D01*
X114698733Y-34420543D01*
X114719697Y-34417901D01*
X114786130Y-34412014D01*
X114863936Y-34407923D01*
X114949130Y-34405625D01*
X115037726Y-34405117D01*
X115125740Y-34406398D01*
X115209186Y-34409464D01*
X115284079Y-34414313D01*
X115346433Y-34420942D01*
X115475083Y-34441422D01*
X115682773Y-34487204D01*
X115882113Y-34547648D01*
X116073437Y-34622908D01*
X116257078Y-34713137D01*
X116433371Y-34818490D01*
X116602649Y-34939121D01*
X116765245Y-35075184D01*
X116857501Y-35158444D01*
X116771449Y-35244790D01*
X116685398Y-35331135D01*
X116611085Y-35260417D01*
X116536126Y-35193433D01*
X116430308Y-35109876D01*
X116315098Y-35029383D01*
X116194620Y-34954801D01*
X116072998Y-34888977D01*
X115922292Y-34820187D01*
X115739579Y-34753449D01*
X115552953Y-34702447D01*
X115363490Y-34667111D01*
X115172265Y-34647371D01*
X114980355Y-34643157D01*
X114788835Y-34654399D01*
X114598780Y-34681028D01*
X114411266Y-34722974D01*
X114227369Y-34780167D01*
X114048164Y-34852536D01*
X113874727Y-34940013D01*
X113708133Y-35042527D01*
X113643119Y-35088550D01*
X113543777Y-35166118D01*
X113444797Y-35251392D01*
X113350013Y-35340860D01*
X113263261Y-35431011D01*
X113188376Y-35518334D01*
X113139581Y-35582139D01*
X113061137Y-35695909D01*
X112986599Y-35817474D01*
X112918450Y-35942444D01*
X112859172Y-36066432D01*
X112811249Y-36185047D01*
X112806694Y-36197743D01*
X112747510Y-36388887D01*
X112704825Y-36582162D01*
X112678503Y-36776665D01*
X112668403Y-36971490D01*
X112674389Y-37165733D01*
X112696321Y-37358489D01*
X112734061Y-37548853D01*
X112787471Y-37735920D01*
X112856413Y-37918786D01*
X112940748Y-38096546D01*
X113040338Y-38268296D01*
X113155044Y-38433129D01*
X113156318Y-38434803D01*
X113196413Y-38484045D01*
X113246735Y-38540735D01*
X113304331Y-38601941D01*
X113366248Y-38664729D01*
X113429533Y-38726168D01*
X113491234Y-38783325D01*
X113548396Y-38833268D01*
X113598066Y-38873063D01*
X113649490Y-38910698D01*
X113816688Y-39020067D01*
X113989820Y-39113848D01*
X114169489Y-39192286D01*
X114356300Y-39255622D01*
X114550858Y-39304101D01*
X114753766Y-39337965D01*
X114785183Y-39341411D01*
X114856586Y-39346307D01*
X114938248Y-39348901D01*
X115025880Y-39349253D01*
X115115190Y-39347426D01*
X115201889Y-39343479D01*
X115281687Y-39337475D01*
X115350292Y-39329474D01*
X115355019Y-39328780D01*
X115554472Y-39291033D01*
X115747242Y-39237732D01*
X115933209Y-39168934D01*
X116112250Y-39084698D01*
X116284243Y-38985079D01*
X116449066Y-38870136D01*
X116606598Y-38739925D01*
X116689896Y-38665300D01*
X116774674Y-38750078D01*
X116859451Y-38834856D01*
X116767575Y-38917142D01*
X116766537Y-38918072D01*
X116600664Y-39055755D01*
X116428238Y-39177825D01*
X116249245Y-39284287D01*
X116063671Y-39375147D01*
X115871503Y-39450412D01*
X115672728Y-39510088D01*
X115467331Y-39554180D01*
X115255298Y-39582694D01*
X115213692Y-39585898D01*
X115139160Y-39588972D01*
X115055514Y-39589915D01*
X114967086Y-39588843D01*
X114878206Y-39585871D01*
X114793206Y-39581113D01*
X114716415Y-39574684D01*
X114652166Y-39566699D01*
X114544575Y-39548041D01*
X114336293Y-39499598D01*
X114135702Y-39436106D01*
X113942879Y-39357599D01*
X113757902Y-39264110D01*
X113580850Y-39155672D01*
X113411800Y-39032320D01*
X113395444Y-39019033D01*
X113349178Y-38979038D01*
X113296166Y-38930550D01*
X113239211Y-38876353D01*
X113181118Y-38819230D01*
X113124691Y-38761963D01*
X113072735Y-38707336D01*
X113028054Y-38658132D01*
X112993451Y-38617134D01*
X112939679Y-38547140D01*
X112822934Y-38375570D01*
X112720516Y-38195417D01*
X112632725Y-38007443D01*
X112559861Y-37812412D01*
X112502224Y-37611089D01*
X112460113Y-37404236D01*
X112433830Y-37192617D01*
X112428221Y-37127000D01*
X109839025Y-37127000D01*
X107249829Y-37127001D01*
X107244118Y-37196850D01*
X107234854Y-37290148D01*
X107202330Y-37497321D01*
X107154076Y-37699192D01*
X107090542Y-37895061D01*
X107012178Y-38084231D01*
X106919433Y-38266006D01*
X106812758Y-38439687D01*
X106692601Y-38604577D01*
X106559414Y-38759979D01*
X106413646Y-38905194D01*
X106255746Y-39039526D01*
X106086165Y-39162277D01*
X105905352Y-39272750D01*
X105899187Y-39276181D01*
X105741578Y-39355449D01*
X105572806Y-39425200D01*
X105396324Y-39484272D01*
X105215583Y-39531506D01*
X105034033Y-39565741D01*
X105007271Y-39569439D01*
X104933477Y-39577124D01*
X104849216Y-39583116D01*
X104758995Y-39587286D01*
X104667322Y-39589504D01*
X104578705Y-39589640D01*
X104497650Y-39587565D01*
X104428666Y-39583149D01*
X104275217Y-39564677D01*
X104068949Y-39525466D01*
X103868278Y-39470481D01*
X103673810Y-39400007D01*
X103486153Y-39314330D01*
X103305912Y-39213735D01*
X103133695Y-39098505D01*
X102970109Y-38968928D01*
X102815759Y-38825287D01*
X102677692Y-38674940D01*
X102549707Y-38511370D01*
X102435567Y-38338805D01*
X102335722Y-38158145D01*
X102250622Y-37970288D01*
X102180718Y-37776135D01*
X102126460Y-37576584D01*
X102088298Y-37372534D01*
X102083431Y-37337352D01*
X102064909Y-37133021D01*
X102064209Y-37070292D01*
X102340714Y-37070292D01*
X102353997Y-37255981D01*
X102382148Y-37440013D01*
X102425084Y-37621446D01*
X102482722Y-37799333D01*
X102554981Y-37972732D01*
X102641780Y-38140699D01*
X102743034Y-38302288D01*
X102858663Y-38456557D01*
X102988584Y-38602560D01*
X103006420Y-38620800D01*
X103153647Y-38758258D01*
X103309117Y-38880951D01*
X103472564Y-38988749D01*
X103643718Y-39081518D01*
X103822312Y-39159125D01*
X104008077Y-39221440D01*
X104200746Y-39268328D01*
X104400049Y-39299659D01*
X104459362Y-39304836D01*
X104533028Y-39308298D01*
X104614557Y-39309828D01*
X104699830Y-39309489D01*
X104784725Y-39307341D01*
X104865121Y-39303449D01*
X104936897Y-39297873D01*
X104995933Y-39290675D01*
X105090363Y-39274090D01*
X105284622Y-39227646D01*
X105472229Y-39165803D01*
X105652659Y-39088826D01*
X105825384Y-38996982D01*
X105989877Y-38890538D01*
X106145612Y-38769760D01*
X106292061Y-38634915D01*
X106389662Y-38532161D01*
X106488158Y-38414811D01*
X106575982Y-38293162D01*
X106656127Y-38163030D01*
X106731582Y-38020234D01*
X106782549Y-37911129D01*
X106835839Y-37779374D01*
X106879519Y-37647080D01*
X106915288Y-37508987D01*
X106944843Y-37359834D01*
X106949508Y-37331720D01*
X106954231Y-37298816D01*
X106957819Y-37266018D01*
X106960428Y-37230487D01*
X106962210Y-37189383D01*
X106963320Y-37139866D01*
X106963913Y-37079096D01*
X106964142Y-37004234D01*
X106964111Y-36958586D01*
X106963374Y-36876251D01*
X106961428Y-36805768D01*
X106957911Y-36743733D01*
X106952460Y-36686746D01*
X106944712Y-36631401D01*
X106934303Y-36574297D01*
X106920870Y-36512031D01*
X106904050Y-36441200D01*
X106890083Y-36386926D01*
X106831447Y-36201576D01*
X106758119Y-36023592D01*
X106670833Y-35853642D01*
X106570323Y-35692392D01*
X106457319Y-35540511D01*
X106332557Y-35398666D01*
X106196768Y-35267526D01*
X106050685Y-35147758D01*
X105895041Y-35040030D01*
X105730569Y-34945010D01*
X105558001Y-34863365D01*
X105378072Y-34795763D01*
X105191512Y-34742872D01*
X104999056Y-34705360D01*
X104971563Y-34701562D01*
X104898030Y-34693990D01*
X104815082Y-34688332D01*
X104727080Y-34684685D01*
X104638383Y-34683149D01*
X104553353Y-34683820D01*
X104476349Y-34686797D01*
X104411733Y-34692178D01*
X104281795Y-34710529D01*
X104086641Y-34751238D01*
X103899156Y-34806933D01*
X103718948Y-34877754D01*
X103545626Y-34963843D01*
X103378800Y-35065342D01*
X103372849Y-35069321D01*
X103292678Y-35124706D01*
X103222073Y-35177560D01*
X103156123Y-35231916D01*
X103089916Y-35291810D01*
X103018541Y-35361275D01*
X102977469Y-35402987D01*
X102909007Y-35476420D01*
X102848548Y-35547430D01*
X102792209Y-35620687D01*
X102736102Y-35700864D01*
X102670917Y-35803411D01*
X102577829Y-35974256D01*
X102500183Y-36150053D01*
X102437897Y-36329860D01*
X102390890Y-36512732D01*
X102359078Y-36697724D01*
X102342381Y-36883892D01*
X102340714Y-37070292D01*
X102064209Y-37070292D01*
X102062626Y-36928276D01*
X102076314Y-36724341D01*
G37*
X102076314Y-36724341D02*
X102105706Y-36522441D01*
X102150535Y-36323800D01*
X102210532Y-36129643D01*
X102285429Y-35941193D01*
X102374960Y-35759675D01*
X102478856Y-35586313D01*
X102522374Y-35522062D01*
X102650632Y-35352623D01*
X102789926Y-35195754D01*
X102939658Y-35051814D01*
X103099229Y-34921162D01*
X103268038Y-34804159D01*
X103445488Y-34701163D01*
X103630978Y-34612534D01*
X103823910Y-34538631D01*
X104023685Y-34479814D01*
X104229704Y-34436443D01*
X104441366Y-34408876D01*
X104470753Y-34406843D01*
X104526016Y-34404947D01*
X104591681Y-34404317D01*
X104663879Y-34404859D01*
X104738742Y-34406481D01*
X104812401Y-34409090D01*
X104880988Y-34412595D01*
X104940632Y-34416903D01*
X104987466Y-34421921D01*
X105011109Y-34425230D01*
X105180482Y-34454319D01*
X105339790Y-34492055D01*
X105493751Y-34539880D01*
X105647081Y-34599236D01*
X105804499Y-34671563D01*
X105820506Y-34679512D01*
X106003509Y-34780550D01*
X106176805Y-34895294D01*
X106339780Y-35023181D01*
X106491821Y-35163650D01*
X106632315Y-35316136D01*
X106760647Y-35480077D01*
X106876204Y-35654909D01*
X106937352Y-35761210D01*
X107027692Y-35943291D01*
X107102375Y-36130021D01*
X107161806Y-36322603D01*
X107206388Y-36522240D01*
X107236525Y-36730138D01*
X107251107Y-36864534D01*
X112427948Y-36864534D01*
X112433489Y-36803150D01*
X112448300Y-36670900D01*
X112484791Y-36458728D01*
X112536285Y-36254394D01*
X112602811Y-36057828D01*
X112684402Y-35868961D01*
X112781089Y-35687724D01*
X112892902Y-35514049D01*
X113019873Y-35347867D01*
X113162033Y-35189110D01*
X113217619Y-35133258D01*
X113372101Y-34994303D01*
X113536172Y-34869180D01*
X113709417Y-34758097D01*
X113891421Y-34661262D01*
X114081770Y-34578881D01*
X114280048Y-34511163D01*
X114485840Y-34458315D01*
X114698733Y-34420543D01*
X114719697Y-34417901D01*
X114786130Y-34412014D01*
X114863936Y-34407923D01*
X114949130Y-34405625D01*
X115037726Y-34405117D01*
X115125740Y-34406398D01*
X115209186Y-34409464D01*
X115284079Y-34414313D01*
X115346433Y-34420942D01*
X115475083Y-34441422D01*
X115682773Y-34487204D01*
X115882113Y-34547648D01*
X116073437Y-34622908D01*
X116257078Y-34713137D01*
X116433371Y-34818490D01*
X116602649Y-34939121D01*
X116765245Y-35075184D01*
X116857501Y-35158444D01*
X116771449Y-35244790D01*
X116685398Y-35331135D01*
X116611085Y-35260417D01*
X116536126Y-35193433D01*
X116430308Y-35109876D01*
X116315098Y-35029383D01*
X116194620Y-34954801D01*
X116072998Y-34888977D01*
X115922292Y-34820187D01*
X115739579Y-34753449D01*
X115552953Y-34702447D01*
X115363490Y-34667111D01*
X115172265Y-34647371D01*
X114980355Y-34643157D01*
X114788835Y-34654399D01*
X114598780Y-34681028D01*
X114411266Y-34722974D01*
X114227369Y-34780167D01*
X114048164Y-34852536D01*
X113874727Y-34940013D01*
X113708133Y-35042527D01*
X113643119Y-35088550D01*
X113543777Y-35166118D01*
X113444797Y-35251392D01*
X113350013Y-35340860D01*
X113263261Y-35431011D01*
X113188376Y-35518334D01*
X113139581Y-35582139D01*
X113061137Y-35695909D01*
X112986599Y-35817474D01*
X112918450Y-35942444D01*
X112859172Y-36066432D01*
X112811249Y-36185047D01*
X112806694Y-36197743D01*
X112747510Y-36388887D01*
X112704825Y-36582162D01*
X112678503Y-36776665D01*
X112668403Y-36971490D01*
X112674389Y-37165733D01*
X112696321Y-37358489D01*
X112734061Y-37548853D01*
X112787471Y-37735920D01*
X112856413Y-37918786D01*
X112940748Y-38096546D01*
X113040338Y-38268296D01*
X113155044Y-38433129D01*
X113156318Y-38434803D01*
X113196413Y-38484045D01*
X113246735Y-38540735D01*
X113304331Y-38601941D01*
X113366248Y-38664729D01*
X113429533Y-38726168D01*
X113491234Y-38783325D01*
X113548396Y-38833268D01*
X113598066Y-38873063D01*
X113649490Y-38910698D01*
X113816688Y-39020067D01*
X113989820Y-39113848D01*
X114169489Y-39192286D01*
X114356300Y-39255622D01*
X114550858Y-39304101D01*
X114753766Y-39337965D01*
X114785183Y-39341411D01*
X114856586Y-39346307D01*
X114938248Y-39348901D01*
X115025880Y-39349253D01*
X115115190Y-39347426D01*
X115201889Y-39343479D01*
X115281687Y-39337475D01*
X115350292Y-39329474D01*
X115355019Y-39328780D01*
X115554472Y-39291033D01*
X115747242Y-39237732D01*
X115933209Y-39168934D01*
X116112250Y-39084698D01*
X116284243Y-38985079D01*
X116449066Y-38870136D01*
X116606598Y-38739925D01*
X116689896Y-38665300D01*
X116774674Y-38750078D01*
X116859451Y-38834856D01*
X116767575Y-38917142D01*
X116766537Y-38918072D01*
X116600664Y-39055755D01*
X116428238Y-39177825D01*
X116249245Y-39284287D01*
X116063671Y-39375147D01*
X115871503Y-39450412D01*
X115672728Y-39510088D01*
X115467331Y-39554180D01*
X115255298Y-39582694D01*
X115213692Y-39585898D01*
X115139160Y-39588972D01*
X115055514Y-39589915D01*
X114967086Y-39588843D01*
X114878206Y-39585871D01*
X114793206Y-39581113D01*
X114716415Y-39574684D01*
X114652166Y-39566699D01*
X114544575Y-39548041D01*
X114336293Y-39499598D01*
X114135702Y-39436106D01*
X113942879Y-39357599D01*
X113757902Y-39264110D01*
X113580850Y-39155672D01*
X113411800Y-39032320D01*
X113395444Y-39019033D01*
X113349178Y-38979038D01*
X113296166Y-38930550D01*
X113239211Y-38876353D01*
X113181118Y-38819230D01*
X113124691Y-38761963D01*
X113072735Y-38707336D01*
X113028054Y-38658132D01*
X112993451Y-38617134D01*
X112939679Y-38547140D01*
X112822934Y-38375570D01*
X112720516Y-38195417D01*
X112632725Y-38007443D01*
X112559861Y-37812412D01*
X112502224Y-37611089D01*
X112460113Y-37404236D01*
X112433830Y-37192617D01*
X112428221Y-37127000D01*
X109839025Y-37127000D01*
X107249829Y-37127001D01*
X107244118Y-37196850D01*
X107234854Y-37290148D01*
X107202330Y-37497321D01*
X107154076Y-37699192D01*
X107090542Y-37895061D01*
X107012178Y-38084231D01*
X106919433Y-38266006D01*
X106812758Y-38439687D01*
X106692601Y-38604577D01*
X106559414Y-38759979D01*
X106413646Y-38905194D01*
X106255746Y-39039526D01*
X106086165Y-39162277D01*
X105905352Y-39272750D01*
X105899187Y-39276181D01*
X105741578Y-39355449D01*
X105572806Y-39425200D01*
X105396324Y-39484272D01*
X105215583Y-39531506D01*
X105034033Y-39565741D01*
X105007271Y-39569439D01*
X104933477Y-39577124D01*
X104849216Y-39583116D01*
X104758995Y-39587286D01*
X104667322Y-39589504D01*
X104578705Y-39589640D01*
X104497650Y-39587565D01*
X104428666Y-39583149D01*
X104275217Y-39564677D01*
X104068949Y-39525466D01*
X103868278Y-39470481D01*
X103673810Y-39400007D01*
X103486153Y-39314330D01*
X103305912Y-39213735D01*
X103133695Y-39098505D01*
X102970109Y-38968928D01*
X102815759Y-38825287D01*
X102677692Y-38674940D01*
X102549707Y-38511370D01*
X102435567Y-38338805D01*
X102335722Y-38158145D01*
X102250622Y-37970288D01*
X102180718Y-37776135D01*
X102126460Y-37576584D01*
X102088298Y-37372534D01*
X102083431Y-37337352D01*
X102064909Y-37133021D01*
X102064209Y-37070292D01*
X102340714Y-37070292D01*
X102353997Y-37255981D01*
X102382148Y-37440013D01*
X102425084Y-37621446D01*
X102482722Y-37799333D01*
X102554981Y-37972732D01*
X102641780Y-38140699D01*
X102743034Y-38302288D01*
X102858663Y-38456557D01*
X102988584Y-38602560D01*
X103006420Y-38620800D01*
X103153647Y-38758258D01*
X103309117Y-38880951D01*
X103472564Y-38988749D01*
X103643718Y-39081518D01*
X103822312Y-39159125D01*
X104008077Y-39221440D01*
X104200746Y-39268328D01*
X104400049Y-39299659D01*
X104459362Y-39304836D01*
X104533028Y-39308298D01*
X104614557Y-39309828D01*
X104699830Y-39309489D01*
X104784725Y-39307341D01*
X104865121Y-39303449D01*
X104936897Y-39297873D01*
X104995933Y-39290675D01*
X105090363Y-39274090D01*
X105284622Y-39227646D01*
X105472229Y-39165803D01*
X105652659Y-39088826D01*
X105825384Y-38996982D01*
X105989877Y-38890538D01*
X106145612Y-38769760D01*
X106292061Y-38634915D01*
X106389662Y-38532161D01*
X106488158Y-38414811D01*
X106575982Y-38293162D01*
X106656127Y-38163030D01*
X106731582Y-38020234D01*
X106782549Y-37911129D01*
X106835839Y-37779374D01*
X106879519Y-37647080D01*
X106915288Y-37508987D01*
X106944843Y-37359834D01*
X106949508Y-37331720D01*
X106954231Y-37298816D01*
X106957819Y-37266018D01*
X106960428Y-37230487D01*
X106962210Y-37189383D01*
X106963320Y-37139866D01*
X106963913Y-37079096D01*
X106964142Y-37004234D01*
X106964111Y-36958586D01*
X106963374Y-36876251D01*
X106961428Y-36805768D01*
X106957911Y-36743733D01*
X106952460Y-36686746D01*
X106944712Y-36631401D01*
X106934303Y-36574297D01*
X106920870Y-36512031D01*
X106904050Y-36441200D01*
X106890083Y-36386926D01*
X106831447Y-36201576D01*
X106758119Y-36023592D01*
X106670833Y-35853642D01*
X106570323Y-35692392D01*
X106457319Y-35540511D01*
X106332557Y-35398666D01*
X106196768Y-35267526D01*
X106050685Y-35147758D01*
X105895041Y-35040030D01*
X105730569Y-34945010D01*
X105558001Y-34863365D01*
X105378072Y-34795763D01*
X105191512Y-34742872D01*
X104999056Y-34705360D01*
X104971563Y-34701562D01*
X104898030Y-34693990D01*
X104815082Y-34688332D01*
X104727080Y-34684685D01*
X104638383Y-34683149D01*
X104553353Y-34683820D01*
X104476349Y-34686797D01*
X104411733Y-34692178D01*
X104281795Y-34710529D01*
X104086641Y-34751238D01*
X103899156Y-34806933D01*
X103718948Y-34877754D01*
X103545626Y-34963843D01*
X103378800Y-35065342D01*
X103372849Y-35069321D01*
X103292678Y-35124706D01*
X103222073Y-35177560D01*
X103156123Y-35231916D01*
X103089916Y-35291810D01*
X103018541Y-35361275D01*
X102977469Y-35402987D01*
X102909007Y-35476420D01*
X102848548Y-35547430D01*
X102792209Y-35620687D01*
X102736102Y-35700864D01*
X102670917Y-35803411D01*
X102577829Y-35974256D01*
X102500183Y-36150053D01*
X102437897Y-36329860D01*
X102390890Y-36512732D01*
X102359078Y-36697724D01*
X102342381Y-36883892D01*
X102340714Y-37070292D01*
X102064209Y-37070292D01*
X102062626Y-36928276D01*
X102076314Y-36724341D01*
G36*
X105055200Y-37110067D02*
G01*
X104259333Y-37110067D01*
X104259333Y-36881467D01*
X105055200Y-36881467D01*
X105055200Y-37110067D01*
G37*
X105055200Y-37110067D02*
X104259333Y-37110067D01*
X104259333Y-36881467D01*
X105055200Y-36881467D01*
X105055200Y-37110067D01*
G36*
X113985313Y-36718847D02*
G01*
X114025996Y-36599058D01*
X114082367Y-36485513D01*
X114154569Y-36377861D01*
X114242745Y-36275754D01*
X114328576Y-36196161D01*
X114433418Y-36119414D01*
X114545625Y-36057030D01*
X114663559Y-36010043D01*
X114705244Y-35997094D01*
X114758761Y-35982885D01*
X114809625Y-35973084D01*
X114862713Y-35967003D01*
X114922902Y-35963954D01*
X114995066Y-35963249D01*
X115037752Y-35963544D01*
X115084251Y-35964668D01*
X115121669Y-35967034D01*
X115154523Y-35971094D01*
X115187333Y-35977295D01*
X115224615Y-35986088D01*
X115289526Y-36004125D01*
X115406726Y-36047735D01*
X115514317Y-36103848D01*
X115614786Y-36173860D01*
X115710618Y-36259167D01*
X115788786Y-36343849D01*
X115863905Y-36445072D01*
X115923941Y-36551817D01*
X115969784Y-36665699D01*
X116002325Y-36788334D01*
X116017101Y-36860300D01*
X118637534Y-36862431D01*
X121257968Y-36864561D01*
X121263731Y-36786231D01*
X121272635Y-36693695D01*
X121296714Y-36534348D01*
X121331308Y-36372617D01*
X121375147Y-36214109D01*
X121426963Y-36064434D01*
X121445695Y-36018570D01*
X121477063Y-35948437D01*
X121513564Y-35872376D01*
X121552973Y-35794740D01*
X121593066Y-35719882D01*
X121631618Y-35652156D01*
X121666403Y-35595914D01*
X121693728Y-35554615D01*
X121743473Y-35482030D01*
X121790380Y-35417906D01*
X121837594Y-35358357D01*
X121888264Y-35299496D01*
X121945535Y-35237434D01*
X122012555Y-35168285D01*
X122132505Y-35054117D01*
X122292425Y-34922517D01*
X122461531Y-34804848D01*
X122639145Y-34701429D01*
X122824588Y-34612578D01*
X123017180Y-34538613D01*
X123216243Y-34479853D01*
X123421098Y-34436616D01*
X123631066Y-34409221D01*
X123656762Y-34407359D01*
X123712433Y-34405223D01*
X123778786Y-34404399D01*
X123851896Y-34404795D01*
X123927838Y-34406322D01*
X124002685Y-34408889D01*
X124072511Y-34412404D01*
X124133391Y-34416779D01*
X124181400Y-34421921D01*
X124205882Y-34425350D01*
X124375254Y-34454487D01*
X124534529Y-34492267D01*
X124688373Y-34540118D01*
X124841452Y-34599467D01*
X124998433Y-34671741D01*
X125119277Y-34735317D01*
X125296327Y-34843829D01*
X125462687Y-34964930D01*
X125617861Y-35097909D01*
X125761350Y-35242058D01*
X125892658Y-35396666D01*
X126011285Y-35561023D01*
X126116734Y-35734419D01*
X126208508Y-35916144D01*
X126286108Y-36105488D01*
X126349038Y-36301741D01*
X126396798Y-36504193D01*
X126428892Y-36712134D01*
X126429886Y-36721191D01*
X126435208Y-36786182D01*
X126438976Y-36862306D01*
X126441152Y-36944901D01*
X126441698Y-37029306D01*
X126440577Y-37110858D01*
X126437752Y-37184894D01*
X126433185Y-37246753D01*
X126428779Y-37287477D01*
X126396380Y-37495252D01*
X126348222Y-37697619D01*
X126284755Y-37893891D01*
X126206432Y-38083380D01*
X126113706Y-38265401D01*
X126007027Y-38439267D01*
X125886849Y-38604291D01*
X125753623Y-38759786D01*
X125607802Y-38905066D01*
X125449837Y-39039445D01*
X125280181Y-39162235D01*
X125099285Y-39272750D01*
X124951334Y-39348222D01*
X124779818Y-39420352D01*
X124599501Y-39481466D01*
X124413200Y-39530615D01*
X124223733Y-39566855D01*
X124197204Y-39570835D01*
X124160165Y-39575739D01*
X124123921Y-39579482D01*
X124085515Y-39582217D01*
X124041994Y-39584096D01*
X123990404Y-39585273D01*
X123927790Y-39585901D01*
X123851200Y-39586132D01*
X123788811Y-39586103D01*
X123724246Y-39585719D01*
X123671285Y-39584809D01*
X123626974Y-39583222D01*
X123588362Y-39580810D01*
X123552496Y-39577422D01*
X123516424Y-39572907D01*
X123477195Y-39567115D01*
X123315645Y-39537241D01*
X123110200Y-39484605D01*
X122911989Y-39416888D01*
X122721503Y-39334385D01*
X122539235Y-39237392D01*
X122365677Y-39126202D01*
X122201322Y-39001110D01*
X122046663Y-38862410D01*
X121902191Y-38710397D01*
X121768400Y-38545365D01*
X121735424Y-38500227D01*
X121625884Y-38332876D01*
X121529288Y-38156693D01*
X121446290Y-37973412D01*
X121377542Y-37784766D01*
X121323698Y-37592488D01*
X121285408Y-37398312D01*
X121263327Y-37203969D01*
X121257862Y-37126974D01*
X118637471Y-37129104D01*
X116017079Y-37131234D01*
X116000867Y-37211482D01*
X115983587Y-37282826D01*
X115941484Y-37401887D01*
X115884849Y-37514660D01*
X115814867Y-37619826D01*
X115732721Y-37716065D01*
X115639598Y-37802056D01*
X115536681Y-37876481D01*
X115425156Y-37938018D01*
X115306208Y-37985350D01*
X115285168Y-37991977D01*
X115206082Y-38012472D01*
X115126626Y-38025327D01*
X115041604Y-38031194D01*
X114945824Y-38030728D01*
X114902467Y-38029008D01*
X114851624Y-38025740D01*
X114809561Y-38020992D01*
X114771484Y-38014179D01*
X114732600Y-38004717D01*
X114722862Y-38002056D01*
X114595261Y-37958299D01*
X114476483Y-37900803D01*
X114367400Y-37830389D01*
X114268886Y-37747877D01*
X114181811Y-37654088D01*
X114107048Y-37549843D01*
X114045468Y-37435962D01*
X113997944Y-37313267D01*
X113988911Y-37283824D01*
X113970236Y-37212228D01*
X113958236Y-37144087D01*
X113951923Y-37072741D01*
X113950311Y-36991534D01*
X113950440Y-36978557D01*
X113955815Y-36904947D01*
X121536236Y-36904947D01*
X121536378Y-37098005D01*
X121552398Y-37289090D01*
X121584018Y-37477328D01*
X121630961Y-37661842D01*
X121692950Y-37841758D01*
X121769706Y-38016200D01*
X121860954Y-38184293D01*
X121966414Y-38345161D01*
X122085810Y-38497929D01*
X122218864Y-38641723D01*
X122365300Y-38775666D01*
X122507883Y-38886091D01*
X122670416Y-38991599D01*
X122841588Y-39083005D01*
X123020463Y-39159912D01*
X123206110Y-39221922D01*
X123397594Y-39268637D01*
X123593982Y-39299659D01*
X123653295Y-39304836D01*
X123726961Y-39308298D01*
X123808491Y-39309828D01*
X123893763Y-39309489D01*
X123978658Y-39307341D01*
X124059054Y-39303449D01*
X124130830Y-39297873D01*
X124189866Y-39290675D01*
X124283297Y-39274287D01*
X124477666Y-39227908D01*
X124665364Y-39166117D01*
X124845884Y-39089169D01*
X125018724Y-38997320D01*
X125183378Y-38890825D01*
X125339343Y-38769938D01*
X125486114Y-38634915D01*
X125512009Y-38608680D01*
X125627842Y-38481353D01*
X125730146Y-38350485D01*
X125821714Y-38212263D01*
X125905340Y-38062876D01*
X125943454Y-37986109D01*
X126008505Y-37836914D01*
X126061552Y-37686490D01*
X126104151Y-37530161D01*
X126137856Y-37363248D01*
X126138047Y-37362126D01*
X126145914Y-37303986D01*
X126152349Y-37233090D01*
X126157238Y-37153475D01*
X126160470Y-37069176D01*
X126161930Y-36984231D01*
X126161506Y-36902675D01*
X126159086Y-36828545D01*
X126154557Y-36765877D01*
X126152538Y-36746694D01*
X126122740Y-36551091D01*
X126076854Y-36360132D01*
X126015266Y-36174632D01*
X125938362Y-35995403D01*
X125846530Y-35823259D01*
X125740154Y-35659013D01*
X125619623Y-35503478D01*
X125485321Y-35357467D01*
X125416540Y-35291426D01*
X125265695Y-35163651D01*
X125105801Y-35050022D01*
X124937497Y-34950860D01*
X124761423Y-34866490D01*
X124578221Y-34797235D01*
X124388529Y-34743417D01*
X124192990Y-34705360D01*
X124165496Y-34701562D01*
X124091964Y-34693990D01*
X124009016Y-34688332D01*
X123921013Y-34684685D01*
X123832317Y-34683149D01*
X123747286Y-34683820D01*
X123670283Y-34686797D01*
X123605666Y-34692178D01*
X123472990Y-34711087D01*
X123276159Y-34752785D01*
X123086119Y-34809986D01*
X122902923Y-34882667D01*
X122726624Y-34970808D01*
X122557276Y-35074385D01*
X122394933Y-35193377D01*
X122389574Y-35197691D01*
X122344600Y-35236192D01*
X122292630Y-35283901D01*
X122237002Y-35337479D01*
X122181052Y-35393589D01*
X122128117Y-35448893D01*
X122081534Y-35500054D01*
X122044641Y-35543734D01*
X121934378Y-35693764D01*
X121831074Y-35860989D01*
X121742543Y-36035209D01*
X121669390Y-36215226D01*
X121612220Y-36399842D01*
X121584696Y-36516414D01*
X121552250Y-36710791D01*
X121536236Y-36904947D01*
X113955815Y-36904947D01*
X113960175Y-36845230D01*
X113985313Y-36718847D01*
G37*
X113985313Y-36718847D02*
X114025996Y-36599058D01*
X114082367Y-36485513D01*
X114154569Y-36377861D01*
X114242745Y-36275754D01*
X114328576Y-36196161D01*
X114433418Y-36119414D01*
X114545625Y-36057030D01*
X114663559Y-36010043D01*
X114705244Y-35997094D01*
X114758761Y-35982885D01*
X114809625Y-35973084D01*
X114862713Y-35967003D01*
X114922902Y-35963954D01*
X114995066Y-35963249D01*
X115037752Y-35963544D01*
X115084251Y-35964668D01*
X115121669Y-35967034D01*
X115154523Y-35971094D01*
X115187333Y-35977295D01*
X115224615Y-35986088D01*
X115289526Y-36004125D01*
X115406726Y-36047735D01*
X115514317Y-36103848D01*
X115614786Y-36173860D01*
X115710618Y-36259167D01*
X115788786Y-36343849D01*
X115863905Y-36445072D01*
X115923941Y-36551817D01*
X115969784Y-36665699D01*
X116002325Y-36788334D01*
X116017101Y-36860300D01*
X118637534Y-36862431D01*
X121257968Y-36864561D01*
X121263731Y-36786231D01*
X121272635Y-36693695D01*
X121296714Y-36534348D01*
X121331308Y-36372617D01*
X121375147Y-36214109D01*
X121426963Y-36064434D01*
X121445695Y-36018570D01*
X121477063Y-35948437D01*
X121513564Y-35872376D01*
X121552973Y-35794740D01*
X121593066Y-35719882D01*
X121631618Y-35652156D01*
X121666403Y-35595914D01*
X121693728Y-35554615D01*
X121743473Y-35482030D01*
X121790380Y-35417906D01*
X121837594Y-35358357D01*
X121888264Y-35299496D01*
X121945535Y-35237434D01*
X122012555Y-35168285D01*
X122132505Y-35054117D01*
X122292425Y-34922517D01*
X122461531Y-34804848D01*
X122639145Y-34701429D01*
X122824588Y-34612578D01*
X123017180Y-34538613D01*
X123216243Y-34479853D01*
X123421098Y-34436616D01*
X123631066Y-34409221D01*
X123656762Y-34407359D01*
X123712433Y-34405223D01*
X123778786Y-34404399D01*
X123851896Y-34404795D01*
X123927838Y-34406322D01*
X124002685Y-34408889D01*
X124072511Y-34412404D01*
X124133391Y-34416779D01*
X124181400Y-34421921D01*
X124205882Y-34425350D01*
X124375254Y-34454487D01*
X124534529Y-34492267D01*
X124688373Y-34540118D01*
X124841452Y-34599467D01*
X124998433Y-34671741D01*
X125119277Y-34735317D01*
X125296327Y-34843829D01*
X125462687Y-34964930D01*
X125617861Y-35097909D01*
X125761350Y-35242058D01*
X125892658Y-35396666D01*
X126011285Y-35561023D01*
X126116734Y-35734419D01*
X126208508Y-35916144D01*
X126286108Y-36105488D01*
X126349038Y-36301741D01*
X126396798Y-36504193D01*
X126428892Y-36712134D01*
X126429886Y-36721191D01*
X126435208Y-36786182D01*
X126438976Y-36862306D01*
X126441152Y-36944901D01*
X126441698Y-37029306D01*
X126440577Y-37110858D01*
X126437752Y-37184894D01*
X126433185Y-37246753D01*
X126428779Y-37287477D01*
X126396380Y-37495252D01*
X126348222Y-37697619D01*
X126284755Y-37893891D01*
X126206432Y-38083380D01*
X126113706Y-38265401D01*
X126007027Y-38439267D01*
X125886849Y-38604291D01*
X125753623Y-38759786D01*
X125607802Y-38905066D01*
X125449837Y-39039445D01*
X125280181Y-39162235D01*
X125099285Y-39272750D01*
X124951334Y-39348222D01*
X124779818Y-39420352D01*
X124599501Y-39481466D01*
X124413200Y-39530615D01*
X124223733Y-39566855D01*
X124197204Y-39570835D01*
X124160165Y-39575739D01*
X124123921Y-39579482D01*
X124085515Y-39582217D01*
X124041994Y-39584096D01*
X123990404Y-39585273D01*
X123927790Y-39585901D01*
X123851200Y-39586132D01*
X123788811Y-39586103D01*
X123724246Y-39585719D01*
X123671285Y-39584809D01*
X123626974Y-39583222D01*
X123588362Y-39580810D01*
X123552496Y-39577422D01*
X123516424Y-39572907D01*
X123477195Y-39567115D01*
X123315645Y-39537241D01*
X123110200Y-39484605D01*
X122911989Y-39416888D01*
X122721503Y-39334385D01*
X122539235Y-39237392D01*
X122365677Y-39126202D01*
X122201322Y-39001110D01*
X122046663Y-38862410D01*
X121902191Y-38710397D01*
X121768400Y-38545365D01*
X121735424Y-38500227D01*
X121625884Y-38332876D01*
X121529288Y-38156693D01*
X121446290Y-37973412D01*
X121377542Y-37784766D01*
X121323698Y-37592488D01*
X121285408Y-37398312D01*
X121263327Y-37203969D01*
X121257862Y-37126974D01*
X118637471Y-37129104D01*
X116017079Y-37131234D01*
X116000867Y-37211482D01*
X115983587Y-37282826D01*
X115941484Y-37401887D01*
X115884849Y-37514660D01*
X115814867Y-37619826D01*
X115732721Y-37716065D01*
X115639598Y-37802056D01*
X115536681Y-37876481D01*
X115425156Y-37938018D01*
X115306208Y-37985350D01*
X115285168Y-37991977D01*
X115206082Y-38012472D01*
X115126626Y-38025327D01*
X115041604Y-38031194D01*
X114945824Y-38030728D01*
X114902467Y-38029008D01*
X114851624Y-38025740D01*
X114809561Y-38020992D01*
X114771484Y-38014179D01*
X114732600Y-38004717D01*
X114722862Y-38002056D01*
X114595261Y-37958299D01*
X114476483Y-37900803D01*
X114367400Y-37830389D01*
X114268886Y-37747877D01*
X114181811Y-37654088D01*
X114107048Y-37549843D01*
X114045468Y-37435962D01*
X113997944Y-37313267D01*
X113988911Y-37283824D01*
X113970236Y-37212228D01*
X113958236Y-37144087D01*
X113951923Y-37072741D01*
X113950311Y-36991534D01*
X113950440Y-36978557D01*
X113955815Y-36904947D01*
X121536236Y-36904947D01*
X121536378Y-37098005D01*
X121552398Y-37289090D01*
X121584018Y-37477328D01*
X121630961Y-37661842D01*
X121692950Y-37841758D01*
X121769706Y-38016200D01*
X121860954Y-38184293D01*
X121966414Y-38345161D01*
X122085810Y-38497929D01*
X122218864Y-38641723D01*
X122365300Y-38775666D01*
X122507883Y-38886091D01*
X122670416Y-38991599D01*
X122841588Y-39083005D01*
X123020463Y-39159912D01*
X123206110Y-39221922D01*
X123397594Y-39268637D01*
X123593982Y-39299659D01*
X123653295Y-39304836D01*
X123726961Y-39308298D01*
X123808491Y-39309828D01*
X123893763Y-39309489D01*
X123978658Y-39307341D01*
X124059054Y-39303449D01*
X124130830Y-39297873D01*
X124189866Y-39290675D01*
X124283297Y-39274287D01*
X124477666Y-39227908D01*
X124665364Y-39166117D01*
X124845884Y-39089169D01*
X125018724Y-38997320D01*
X125183378Y-38890825D01*
X125339343Y-38769938D01*
X125486114Y-38634915D01*
X125512009Y-38608680D01*
X125627842Y-38481353D01*
X125730146Y-38350485D01*
X125821714Y-38212263D01*
X125905340Y-38062876D01*
X125943454Y-37986109D01*
X126008505Y-37836914D01*
X126061552Y-37686490D01*
X126104151Y-37530161D01*
X126137856Y-37363248D01*
X126138047Y-37362126D01*
X126145914Y-37303986D01*
X126152349Y-37233090D01*
X126157238Y-37153475D01*
X126160470Y-37069176D01*
X126161930Y-36984231D01*
X126161506Y-36902675D01*
X126159086Y-36828545D01*
X126154557Y-36765877D01*
X126152538Y-36746694D01*
X126122740Y-36551091D01*
X126076854Y-36360132D01*
X126015266Y-36174632D01*
X125938362Y-35995403D01*
X125846530Y-35823259D01*
X125740154Y-35659013D01*
X125619623Y-35503478D01*
X125485321Y-35357467D01*
X125416540Y-35291426D01*
X125265695Y-35163651D01*
X125105801Y-35050022D01*
X124937497Y-34950860D01*
X124761423Y-34866490D01*
X124578221Y-34797235D01*
X124388529Y-34743417D01*
X124192990Y-34705360D01*
X124165496Y-34701562D01*
X124091964Y-34693990D01*
X124009016Y-34688332D01*
X123921013Y-34684685D01*
X123832317Y-34683149D01*
X123747286Y-34683820D01*
X123670283Y-34686797D01*
X123605666Y-34692178D01*
X123472990Y-34711087D01*
X123276159Y-34752785D01*
X123086119Y-34809986D01*
X122902923Y-34882667D01*
X122726624Y-34970808D01*
X122557276Y-35074385D01*
X122394933Y-35193377D01*
X122389574Y-35197691D01*
X122344600Y-35236192D01*
X122292630Y-35283901D01*
X122237002Y-35337479D01*
X122181052Y-35393589D01*
X122128117Y-35448893D01*
X122081534Y-35500054D01*
X122044641Y-35543734D01*
X121934378Y-35693764D01*
X121831074Y-35860989D01*
X121742543Y-36035209D01*
X121669390Y-36215226D01*
X121612220Y-36399842D01*
X121584696Y-36516414D01*
X121552250Y-36710791D01*
X121536236Y-36904947D01*
X113955815Y-36904947D01*
X113960175Y-36845230D01*
X113985313Y-36718847D01*
%TD*%
M02*
